<?xml version="1.0" encoding="utf-8"?>
<!-- Generator: Adobe Illustrator 23.0.3, SVG Export Plug-In . SVG Version: 6.00 Build 0)  -->
<svg version="1.1" id="Layer_1" xmlns="http://www.w3.org/2000/svg" xmlns:xlink="http://www.w3.org/1999/xlink" x="0px" y="0px"
	 viewBox="0 0 512 293" style="enable-background:new 0 0 512 293;" xml:space="preserve">
<style type="text/css">
	.st0{fill-rule:evenodd;clip-rule:evenodd;fill:#E09817;}
	.st1{fill-rule:evenodd;clip-rule:evenodd;fill:#FFD900;}
	.st2{fill-rule:evenodd;clip-rule:evenodd;fill:#00A339;}
	.st3{fill-rule:evenodd;clip-rule:evenodd;fill:#0060AB;}
	.st4{fill-rule:evenodd;clip-rule:evenodd;fill:#E30D1B;}
	.st5{fill-rule:evenodd;clip-rule:evenodd;fill:none;stroke:#E0E6F1;stroke-miterlimit:10;}
	.st6{fill-rule:evenodd;clip-rule:evenodd;fill:#5470C6;}
	.st7{fill-rule:evenodd;clip-rule:evenodd;fill:#91CC75;}
	.st8{fill-rule:evenodd;clip-rule:evenodd;fill:#FAC858;}
	.st9{fill-rule:evenodd;clip-rule:evenodd;fill:#EE6666;}
	.st10{fill-rule:evenodd;clip-rule:evenodd;fill:none;stroke:#000000;stroke-miterlimit:10;}
	.st11{fill:#6D6D6D;}
	.st12{font-family:'Roboto-Medium';}
	.st13{font-size:13.6003px;}
</style>
<g>
	<path class="st0" d="M816.7-29.8c-56.3,0-94,50.5-149.3,48.5l0,0c-15.1,53.2-74.9,73.4-92.3,127c-17.4,53.5,19,105,0,157l0,0
		c45.9,30.8,46.7,93.9,92.3,127c45.5,33.1,105.8,14.4,149.3,48.5v0c43.5-34.1,103.7-15.4,149.3-48.5c45.5-33.1,46.4-96.1,92.3-127
		l0,0c-19-51.9,17.4-103.4,0-157c-17.4-53.5-77.1-73.8-92.3-127l0,0C910.7,20.7,873-29.8,816.7-29.8L816.7-29.8z M1049.4,299.7
		c-52.5,30.7-59.6,89.6-94.3,114.8c-34.7,25.2-93,13.8-138.3,54.2v0c-45.4-40.4-103.7-29-138.3-54.2
		c-34.7-25.2-41.9-84.2-94.3-114.8l0,0c24.4-55.6-4.4-107.6,8.8-148.3s67.1-65.8,80-125.2l0,0c60.5,6,100.9-37.4,143.8-37.4
		c42.9,0,83.3,43.5,143.8,37.4l0,0c12.9,59.4,66.8,84.4,80,125.2C1053.8,192.2,1025,244.1,1049.4,299.7L1049.4,299.7L1049.4,299.7z"
		/>
	<path class="st1" d="M1049.4,299.7c-52.5,30.7-59.6,89.6-94.3,114.8c-34.7,25.2-93,13.8-138.3,54.2v0
		c-45.4-40.4-103.7-29-138.3-54.2c-34.7-25.2-41.9-84.2-94.3-114.8l0,0c24.4-55.6-4.4-107.6,8.8-148.3s67.1-65.8,80-125.2l0,0
		c60.5,6,100.9-37.4,143.8-37.4c42.9,0,83.3,43.5,143.8,37.4l0,0c12.9,59.4,66.8,84.4,80,125.2
		C1053.8,192.2,1025,244.1,1049.4,299.7L1049.4,299.7L1049.4,299.7z"/>
	<path class="st2" d="M809.7,186.1c-27.7-37.2-27.3-74.7,7-112.6c34.3,37.8,34.7,75.3,7,112.6c4.9,5.2,10.5,8.7,16.1,11.2
		c31.4-49.7,69.3-53.9,109.9-34.1c-26,47.1-61.2,61.9-104.9,46.5c-11,22.5-19.1,49.8-22.1,85.5l12.1,0c13.8-49.6,58.1-70.3,119-74
		c-14.9,55.9-53.6,81.6-112,82l0,14.2l-9.1,0v-13.4h-10.9v13.4h-10v-13.4h-10.9v13.4l-9.1,0l0-14.2c-58.4-0.4-97.1-26.2-112-82
		c60.8,3.7,105.2,24.4,119,74l12.1,0c-3-35.7-11.1-63-22.1-85.5c-43.8,15.4-78.9,0.6-104.9-46.5c40.6-19.8,78.5-15.6,109.9,34.1
		C799.3,194.7,804.8,191.2,809.7,186.1L809.7,186.1z M816.7,88.1c-21.3,28.3-24.4,58.4,0,91C841.1,146.4,838,116.4,816.7,88.1
		L816.7,88.1z M816.7,193.1l-19,13c8.7,18.8,14.2,39.4,19,60.2c4.8-20.8,10.3-41.4,19-60.2L816.7,193.1L816.7,193.1z M849.5,200.7
		c22.6-34.7,49.6-46.7,85.8-32.9c-10.3,15.9-24.1,30.2-42.7,35.5C878.3,207.4,863.4,205.4,849.5,200.7L849.5,200.7z M939.7,232.3
		c-15.8,41.2-48,59.4-93.8,60.7C859.9,251.5,899.1,236.9,939.7,232.3L939.7,232.3z M783.9,200.7c-22.6-34.7-49.6-46.7-85.8-32.9
		c10.3,15.9,24.1,30.2,42.7,35.5C755.1,207.4,770,205.4,783.9,200.7L783.9,200.7z M693.8,232.3c15.8,41.2,48,59.4,93.8,60.7
		C773.5,251.5,734.3,236.9,693.8,232.3L693.8,232.3z"/>
	<path class="st3" d="M738,336.6c28.2-10.3,46.5,14.2,78.7,14.2s50.6-24.5,78.7-14.2c-28.8,2.5-48.8,36.6-78.7,36.6
		S766.8,339.1,738,336.6L738,336.6z"/>
	<path class="st4" d="M816.7,36.5c103.6,0,187.6,84,187.6,187.6c0,103.6-84,187.6-187.6,187.6c-103.6,0-187.6-84-187.6-187.6
		C629.1,120.5,713.1,36.5,816.7,36.5L816.7,36.5z M816.7,59.2c91.1,0,164.9,73.8,164.9,164.9c0,91.1-73.8,164.9-164.9,164.9
		c-91.1,0-164.9-73.8-164.9-164.9C651.8,133.1,725.7,59.2,816.7,59.2L816.7,59.2z"/>
</g>
<g>
	<g>
		<line class="st5" x1="59.3" y1="220.7" x2="483.9" y2="220.7"/>
		<line class="st5" x1="59.3" y1="184.5" x2="483.9" y2="184.5"/>
		<line class="st5" x1="59.3" y1="148.2" x2="483.9" y2="148.2"/>
		<line class="st5" x1="59.3" y1="112" x2="483.9" y2="112"/>
		<line class="st5" x1="59.3" y1="75.8" x2="483.9" y2="75.8"/>
		<line class="st5" x1="59.3" y1="39.6" x2="483.9" y2="39.6"/>
		<rect x="103.8" y="58.5" class="st6" width="42.6" height="198.4"/>
		<rect x="201.9" y="121.9" class="st7" width="42.6" height="135"/>
		<rect x="300.1" y="154.9" class="st8" width="42.6" height="102"/>
		<rect x="398.2" y="205.9" class="st9" width="42.6" height="51"/>
		<polyline class="st10" points="59.3,262.6 59.3,256.9 483.9,256.9 483.9,262.6 		"/>
		<text transform="matrix(0.8823 0 0 1 41.6455 262.5905)" class="st11 st12 st13">0</text>
		<text transform="matrix(0.8823 0 0 1 28.0693 226.4109)" class="st11 st12 st13">100</text>
		<text transform="matrix(0.8823 0 0 1 28.0693 190.2312)" class="st11 st12 st13">200</text>
		<text transform="matrix(0.8823 0 0 1 28.0693 154.0515)" class="st11 st12 st13">300</text>
		<text transform="matrix(0.8823 0 0 1 28.0693 117.8718)" class="st11 st12 st13">400</text>
		<text transform="matrix(0.8823 0 0 1 28.0693 81.6911)" class="st11 st12 st13">500</text>
		<text transform="matrix(0.8823 0 0 1 28.0693 45.5114)" class="st11 st12 st13">600</text>
	</g>
</g>
</svg>
