<?xml version="1.0" encoding="utf-8"?>
<!-- Generator: Adobe Illustrator 23.0.3, SVG Export Plug-In . SVG Version: 6.00 Build 0)  -->
<svg version="1.1" id="Layer_1" xmlns="http://www.w3.org/2000/svg" xmlns:xlink="http://www.w3.org/1999/xlink" x="0px" y="0px"
	 viewBox="0 0 544 512" style="enable-background:new 0 0 544 512;" xml:space="preserve">
<style type="text/css">
	.st0{fill:#EAEAEA;}
	.st1{fill:#66CC66;}
</style>
<path class="st0" d="M272-0.1C130.6-0.1,15.9,114.6,15.9,256S130.6,512.1,272,512.1S528.1,397.4,528.1,256S413.4-0.1,272-0.1z
	 M433,417c-43,43-100.2,66.7-161,66.7c-60.8,0-118-23.7-161-66.7c-43-43-66.7-100.2-66.7-161S68,138,111,95s100.2-66.7,161-66.7
	c60.8,0,118,23.7,161,66.7c43,43,66.7,100.2,66.7,161S476,374,433,417z"/>
<path class="st1" d="M433,95c2.8,2.8,5.4,5.6,8,8.5l21-19C415.2,32.6,347.4-0.1,272-0.1v28.3C332.8,28.3,390,52,433,95z"/>
<path class="st1" d="M285.8,259.8c0,19.2-4.3,34-12.9,44.4c-8.6,10.4-20.8,15.6-36.5,15.6c-15.8,0-28.1-5.2-36.7-15.7
	c-8.7-10.5-13-25.3-13-44.3v-26c0-19.2,4.3-34,12.9-44.4c8.6-10.4,20.8-15.6,36.6-15.6c15.8,0,28,5.2,36.6,15.7
	c8.7,10.5,13,25.3,13,44.4V259.8z M252.9,229.6c0-10.2-1.3-17.9-4-22.9c-2.7-5-6.9-7.6-12.7-7.6c-5.7,0-9.8,2.3-12.4,7
	c-2.6,4.7-4,11.8-4.2,21.3v36.3c0,10.6,1.3,18.4,4,23.3c2.7,4.9,6.9,7.4,12.7,7.4c5.6,0,9.7-2.4,12.4-7.2c2.7-4.8,4-12.3,4.1-22.5
	V229.6z"/>
<path class="st1" d="M303,203c0-8.8,2.9-15.9,8.6-21.3c5.7-5.4,13.4-8.1,23-8.1c9.8,0,17.5,2.7,23.1,8.1s8.5,12.6,8.5,21.8v7
	c0,8.8-2.8,15.9-8.5,21.2c-5.7,5.3-13.3,8-22.9,8c-9.6,0-17.3-2.7-23.1-8c-5.8-5.3-8.7-12.6-8.7-21.8V203z M324.2,210.5
	c0,3.4,0.9,6.1,2.8,8.2c1.9,2.1,4.5,3.2,7.8,3.2c6.8,0,10.3-4.3,10.3-13v-5.8c0-3.4-0.9-6.1-2.7-8.3c-1.8-2.2-4.4-3.3-7.7-3.3
	c-3.2,0-5.7,1.1-7.6,3.2c-1.9,2.1-2.8,5-2.8,8.6V210.5z M341.1,307.2l-15.3-7.7l69.4-111.1l15.3,7.7L341.1,307.2z M370.6,283
	c0-8.9,2.9-16,8.6-21.3c5.8-5.3,13.4-8,23-8c9.7,0,17.4,2.6,23.1,7.9c5.7,5.3,8.6,12.6,8.6,22.1v6.8c0,8.9-2.8,16-8.5,21.3
	c-5.7,5.3-13.3,8-23,8c-9.6,0-17.3-2.7-23.1-8c-5.8-5.3-8.7-12.6-8.7-21.8V283z M391.7,290.5c0,3,1,5.7,3.1,8
	c2.1,2.3,4.6,3.4,7.6,3.4c6.3,0,9.7-3,10.3-8.9l0.1-10c0-3.4-0.9-6.2-2.8-8.3c-1.9-2.1-4.5-3.2-7.7-3.2c-3.1,0-5.6,1-7.5,3
	c-1.9,2-2.9,4.6-3,8V290.5z"/>
</svg>
