<?xml version="1.0" encoding="utf-8"?>
<!-- Generator: Adobe Illustrator 23.1.0, SVG Export Plug-In . SVG Version: 6.00 Build 0)  -->
<svg version="1.1" id="Layer_1" xmlns="http://www.w3.org/2000/svg" xmlns:xlink="http://www.w3.org/1999/xlink" x="0px" y="0px"
	 viewBox="0 0 512 384" style="enable-background:new 0 0 512 384;" xml:space="preserve">
<style type="text/css">
	.st0{fill:#B2B2B2;}
</style>
<path class="st0" d="M510.5,384H1.5c-0.8,0-1.5-0.7-1.5-1.5V0h510.5c0.8,0,1.5,0.7,1.5,1.5v381C512,383.3,511.3,384,510.5,384z
	 M151.8,70C92.6,26.6,26.6,92.6,70,151.8c0.6,0.8,1.3,1.6,2.2,2.2c59.2,43.5,125.2-22.5,81.7-81.7C153.3,71.4,152.6,70.7,151.8,70z
	 M64,320h384V208l-87.5-87.5c-4.7-4.7-12.3-4.7-17,0L208,256l-55.5-55.5c-4.7-4.7-12.3-4.7-17,0L64,272V320z"/>
</svg>
