<?xml version="1.0" encoding="iso-8859-1"?>
<!-- Generator: Adobe Illustrator 23.0.0, SVG Export Plug-In . SVG Version: 6.00 Build 0)  -->
<svg version="1.1" id="Layer_1" xmlns="http://www.w3.org/2000/svg" xmlns:xlink="http://www.w3.org/1999/xlink" x="0px" y="0px"
	 viewBox="0 0 512 512" style="enable-background:new 0 0 512 512;" xml:space="preserve">
<g id="_1528549580000">
	<polygon style="fill-rule:evenodd;clip-rule:evenodd;fill:#3F51B5;" points="59.794,487.879 59.794,24.406 416.532,24.121 
		416.532,202.489 380.858,202.489 380.858,60.08 95.468,60.08 95.468,452.206 416.532,452.063 416.532,487.594 	"/>
	<path style="fill:#3F51B5;" d="M357.884,416.817c-17.98,0-34.104-3.853-48.516-11.558c-14.27-7.706-25.542-18.408-33.676-31.964
		c-8.134-13.556-12.272-28.824-12.272-45.662c0-16.981,4.138-32.249,12.272-45.662c8.134-13.556,19.407-24.258,33.676-31.964
		c14.412-7.706,30.537-11.558,48.516-11.558c17.837,0,33.961,3.853,48.231,11.558c14.27,7.706,25.542,18.408,33.819,31.964
		c8.134,13.413,12.272,28.682,12.272,45.662c0,16.838-4.138,32.106-12.272,45.662c-8.276,13.556-19.549,24.258-33.819,31.964
		C391.846,412.965,375.721,416.817,357.884,416.817z M357.884,382.856c10.131,0,19.407-2.426,27.54-7.135
		c8.276-4.709,14.698-11.13,19.407-19.549c4.566-8.419,6.992-17.837,6.992-28.539c0-10.702-2.426-20.263-6.992-28.682
		c-4.709-8.276-11.13-14.84-19.407-19.549c-8.134-4.709-17.409-6.992-27.54-6.992c-10.274,0-19.407,2.283-27.683,6.992
		c-8.134,4.709-14.555,11.273-19.264,19.549c-4.709,8.419-6.992,17.98-6.992,28.682c0,10.702,2.283,20.12,6.992,28.539
		c4.709,8.419,11.13,14.84,19.264,19.549C338.478,380.43,347.61,382.856,357.884,382.856z"/>
</g>
</svg>
