<?xml version="1.0" encoding="utf-8"?>
<!-- Generator: Adobe Illustrator 23.0.3, SVG Export Plug-In . SVG Version: 6.00 Build 0)  -->
<svg version="1.1" id="Layer_1" xmlns="http://www.w3.org/2000/svg" xmlns:xlink="http://www.w3.org/1999/xlink" x="0px" y="0px"
	 viewBox="0 0 566.9 566.9" style="enable-background:new 0 0 566.9 566.9;" xml:space="preserve">
<style type="text/css">
	.st0{fill:#FFFFFF;}
</style>
<g>
	<path class="st0" d="M64.3,335.5c-5.8,0-10.3,2.3-13.5,6.8c-3.2,4.5-4.8,11.2-4.8,20v4.1c0,8.6,1.6,15.3,4.8,20.1
		c3.2,4.8,7.7,7.1,13.7,7.1c5.8,0,10.3-2.3,13.4-6.9c3.1-4.6,4.7-11.3,4.8-20v-4.1c0-8.8-1.6-15.6-4.8-20.2
		C74.7,337.8,70.2,335.5,64.3,335.5z"/>
	<path class="st0" d="M108.1,191.4c-2.9-2.4-8.4-3.7-16.4-3.7H72.4v28.8h18.5c2,0,5.9-0.6,11.6-1.9c2.9-0.6,5.3-2.1,7.1-4.4
		c1.8-2.4,2.8-5.1,2.8-8.2C112.4,197.3,111,193.8,108.1,191.4z"/>
	<path class="st0" d="M516.6,0H50.3C22.5,0,0,22.5,0,50.3v466.4c0,27.8,22.5,50.3,50.3,50.3h466.4c27.8,0,50.3-22.5,50.3-50.3V50.3
		C566.9,22.5,544.4,0,516.6,0z M100.2,366.4c0,8.3-1.5,15.6-4.4,21.8c-2.9,6.3-7.1,11.1-12.6,14.5c-5.5,3.4-11.7,5.1-18.8,5.1
		c-7,0-13.2-1.7-18.7-5c-5.5-3.4-9.7-8.2-12.8-14.4c-3-6.2-4.5-13.4-4.6-21.5v-4.2c0-8.3,1.5-15.6,4.5-21.9
		c3-6.3,7.2-11.2,12.7-14.5c5.5-3.4,11.7-5.1,18.7-5.1c7,0,13.3,1.7,18.7,5.1c5.5,3.4,9.7,8.2,12.7,14.5c3,6.3,4.5,13.6,4.5,21.9
		V366.4z M95,257.5c-3-5.6-5.6-9.2-7.9-10.9c-3.2-2.2-6.7-3.3-10.8-3.3h-3.9v57.5H28.3V159.1h73.1c13.6,0,23.9,1.2,31.1,3.5
		c7.2,2.3,12.9,6.6,17.3,12.9c4.4,6.3,6.6,13.9,6.6,23c0,7.9-1.7,14.6-5,20.4s-8,10.3-13.9,13.9c-3.7,2.3-8.9,4.1-15.4,5.6
		c5.2,1.7,9,3.5,11.4,5.2c1.6,1.2,4,3.6,7,7.5c3.1,3.8,5.1,6.7,6.1,8.8l21.2,41.1h-49.6L95,257.5z M202,406.7h-17.4l-33.8-55.5v55.5
		h-17.4v-84.4h17.4l33.9,55.6v-55.6H202V406.7z M227.8,300.8h-44V159.1h44V300.8z M292,406.7h-54.3v-84.4h17.4v70.4H292V406.7z
		 M341,406.7h-17.4v-84.4H341V406.7z M366.6,236.1c-8.6,8.1-21.8,12.1-39.5,12.1h-24v52.6h-44.1V159.1H332
		c15.9,0,27.8,3.8,35.7,11.3c7.9,7.5,11.9,18.3,11.9,32.2C379.5,216.9,375.2,228.1,366.6,236.1z M446.3,406.7h-17.4l-33.8-55.5v55.5
		h-17.4v-84.4h17.4l33.9,55.6v-55.6h17.3V406.7z M538.6,406.7H482v-84.4h56.5v14.1h-39.1v20.1h33.4v13.6h-33.4v22.6h39.2V406.7z
		 M538.6,300.8h-44.1v-57.3h-47.9v57.3h-43.9V159.1h43.9v49.6h47.9v-49.6h44.1V300.8z"/>
	<path class="st0" d="M315.6,187.9h-12.5v31.6h10.8c8.5,0,14.4-1.5,17.8-4.4c3.4-2.9,5.1-6.7,5.1-11.3c0-4.4-1.5-8.2-4.5-11.3
		C329.4,189.4,323.8,187.9,315.6,187.9z"/>
</g>
</svg>
