<?xml version="1.0" encoding="UTF-8" standalone="no"?>
<svg
   xmlns:dc="http://purl.org/dc/elements/1.1/"
   xmlns:cc="http://creativecommons.org/ns#"
   xmlns:rdf="http://www.w3.org/1999/02/22-rdf-syntax-ns#"
   xmlns:svg="http://www.w3.org/2000/svg"
   xmlns="http://www.w3.org/2000/svg"
   xmlns:xlink="http://www.w3.org/1999/xlink"
   xmlns:sodipodi="http://sodipodi.sourceforge.net/DTD/sodipodi-0.dtd"
   xmlns:inkscape="http://www.inkscape.org/namespaces/inkscape"
   width="643.143"
   height="742.447"
   viewBox="0 0 170.165 196.439"
   version="1.1"
   id="svg290"
   sodipodi:docname="Coat of arms of Papua.svg"
   inkscape:version="1.0.1 (3bc2e813f5, 2020-09-07)">
  <metadata
     id="metadata294">
    <rdf:RDF>
      <cc:Work
         rdf:about="">
        <dc:format>image/svg+xml</dc:format>
        <dc:type
           rdf:resource="http://purl.org/dc/dcmitype/StillImage" />
      </cc:Work>
    </rdf:RDF>
  </metadata>
  <sodipodi:namedview
     pagecolor="#ffffff"
     bordercolor="#666666"
     borderopacity="1"
     objecttolerance="10"
     gridtolerance="10"
     guidetolerance="10"
     inkscape:pageopacity="0"
     inkscape:pageshadow="2"
     inkscape:window-width="1366"
     inkscape:window-height="705"
     id="namedview292"
     showgrid="false"
     inkscape:zoom="0.61149144"
     inkscape:cx="456.65623"
     inkscape:cy="413.62133"
     inkscape:window-x="-8"
     inkscape:window-y="-8"
     inkscape:window-maximized="1"
     inkscape:current-layer="svg290" />
  <style
     id="style2"><![CDATA[.B{opacity:.999}.C{fill:#fff}.D{stroke-width:.265}.E{opacity:.998}.F{fill:#008857}.G{fill:#074}.H{stroke:#005e3a}.I{fill:#e3e3e3}.J{stroke:#b0b0b0}.K{stroke:#d2d2d2}.L{stroke:#c10000}.M{fill:#ffd657}.N{stroke:#995b05}.O{fill:#636466}.P{fill:#a7b6bf}.Q{fill-rule:evenodd}.R{stroke-width:.367}]]></style>
  <defs
     id="defs64">
    <linearGradient
       id="A"
       x1="0"
       y1="0"
       x2="170.16499"
       y2="0"
       gradientUnits="userSpaceOnUse"
       spreadMethod="pad">
      <stop
         offset="0"
         stop-color="#ddd"
         id="stop4" />
      <stop
         offset="1"
         stop-color="#fff"
         id="stop6" />
    </linearGradient>
    <linearGradient
       id="B"
       x1="0"
       y1="0"
       x2="170.16499"
       y2="0"
       gradientUnits="userSpaceOnUse"
       spreadMethod="pad">
      <stop
         offset="0"
         stop-color="#f50000"
         id="stop9" />
      <stop
         offset="1"
         stop-color="#b40000"
         id="stop11" />
    </linearGradient>
    <linearGradient
       id="C"
       x1="0"
       y1="0"
       x2="170.16499"
       y2="0"
       gradientUnits="userSpaceOnUse"
       spreadMethod="pad">
      <stop
         offset="0"
         stop-color="#f50000"
         id="stop14" />
      <stop
         offset="1"
         stop-color="#b40000"
         id="stop16" />
    </linearGradient>
    <linearGradient
       id="D"
       x1="0"
       y1="0"
       x2="170.16499"
       y2="0"
       gradientUnits="userSpaceOnUse"
       spreadMethod="pad">
      <stop
         offset="0"
         stop-color="#f50000"
         id="stop19" />
      <stop
         offset=".155"
         stop-color="#ff3030"
         id="stop21" />
      <stop
         offset="1"
         stop-color="#b40000"
         id="stop23" />
    </linearGradient>
    <linearGradient
       id="E"
       x1="0"
       y1="0"
       x2="170.16499"
       y2="0"
       gradientUnits="userSpaceOnUse"
       spreadMethod="pad">
      <stop
         offset="0"
         stop-color="#f50000"
         id="stop26" />
      <stop
         offset=".186"
         stop-color="#ff3030"
         id="stop28" />
      <stop
         offset="1"
         stop-color="#b40000"
         id="stop30" />
    </linearGradient>
    <linearGradient
       xlink:href="#B"
       id="F"
       x1="92.80793"
       y1="161.14384"
       x2="99.202965"
       y2="169.31854"
       gradientUnits="userSpaceOnUse"
       gradientTransform="scale(0.93877891,1.0652135)" />
    <linearGradient
       xlink:href="#B"
       id="G"
       x1="121.71827"
       y1="130.40451"
       x2="123.48858"
       y2="134.16376"
       gradientTransform="scale(0.7637915,1.3092578)"
       gradientUnits="userSpaceOnUse" />
    <linearGradient
       xlink:href="#B"
       id="H"
       x1="135.88069"
       y1="131.23073"
       x2="134.39365"
       y2="133.62672"
       gradientTransform="scale(0.7637915,1.3092578)"
       gradientUnits="userSpaceOnUse" />
    <linearGradient
       xlink:href="#E"
       id="I"
       x1="116.25634"
       y1="161.70236"
       x2="113.14525"
       y2="166.2213"
       gradientTransform="scale(0.93877891,1.0652135)"
       gradientUnits="userSpaceOnUse" />
    <linearGradient
       xlink:href="#B"
       id="J"
       x1="90.548645"
       y1="182.5229"
       x2="96.589478"
       y2="176.1163"
       gradientTransform="scale(0.94010195,1.0637144)"
       gradientUnits="userSpaceOnUse" />
    <linearGradient
       xlink:href="#B"
       id="K"
       x1="139.51019"
       y1="128.05397"
       x2="142.44916"
       y2="123.03746"
       gradientTransform="scale(0.66250731,1.5094173)"
       gradientUnits="userSpaceOnUse" />
    <linearGradient
       xlink:href="#B"
       id="L"
       x1="113.9208"
       y1="180.92719"
       x2="110.3285"
       y2="176.87434"
       gradientTransform="scale(0.94852996,1.054263)"
       gradientUnits="userSpaceOnUse" />
    <linearGradient
       xlink:href="#B"
       id="M"
       x1="234.05534"
       y1="80.482475"
       x2="235.61842"
       y2="77.675247"
       gradientTransform="scale(0.41522685,2.4083221)"
       gradientUnits="userSpaceOnUse" />
    <linearGradient
       xlink:href="#B"
       id="N"
       x1="151.93413"
       y1="131.56689"
       x2="149.56374"
       y2="127.60551"
       gradientTransform="scale(0.68451282,1.460893)"
       gradientUnits="userSpaceOnUse" />
    <linearGradient
       xlink:href="#A"
       id="O"
       x1="108.10771"
       y1="142.02722"
       x2="108.8263"
       y2="143.23627"
       gradientTransform="scale(0.82793258,1.2078278)"
       gradientUnits="userSpaceOnUse" />
    <linearGradient
       xlink:href="#A"
       id="P"
       x1="160.32927"
       y1="101.86139"
       x2="160.96445"
       y2="103.31207"
       gradientTransform="scale(0.59604525,1.677725)"
       gradientUnits="userSpaceOnUse" />
    <linearGradient
       xlink:href="#A"
       id="Q"
       x1="169.40335"
       y1="102.37719"
       x2="168.67743"
       y2="104.11801"
       gradientTransform="scale(0.59604525,1.677725)"
       gradientUnits="userSpaceOnUse" />
    <linearGradient
       xlink:href="#A"
       id="R"
       x1="128.42416"
       y1="142.60934"
       x2="127.83623"
       y2="144.08707"
       gradientTransform="scale(0.82793258,1.2078278)"
       gradientUnits="userSpaceOnUse" />
    <linearGradient
       xlink:href="#A"
       id="S"
       x1="113.37271"
       y1="152.92317"
       x2="107.52542"
       y2="159.48439"
       gradientTransform="scale(0.80952022,1.2352996)"
       gradientUnits="userSpaceOnUse" />
    <linearGradient
       xlink:href="#A"
       id="T"
       x1="178.23653"
       y1="100.6663"
       x2="175.12172"
       y2="105.00422"
       gradientTransform="scale(0.53828525,1.8577511)"
       gradientUnits="userSpaceOnUse" />
    <linearGradient
       xlink:href="#A"
       id="U"
       x1="290.8179"
       y1="64.802521"
       x2="292.23892"
       y2="66.395851"
       gradientTransform="scale(0.34255086,2.9192746)"
       gradientUnits="userSpaceOnUse" />
    <linearGradient
       xlink:href="#A"
       id="V"
       x1="192.99178"
       y1="99.43219"
       x2="195.77251"
       y2="103.26665"
       gradientTransform="scale(0.52515535,1.9041984)"
       gradientUnits="userSpaceOnUse" />
    <linearGradient
       xlink:href="#A"
       id="W"
       x1="128.48535"
       y1="154.2939"
       x2="131.80386"
       y2="158.04027"
       gradientTransform="scale(0.81490983,1.2271296)"
       gradientUnits="userSpaceOnUse" />
    <linearGradient
       xlink:href="#B"
       id="X"
       x1="96.062798"
       y1="177.85402"
       x2="96.007523"
       y2="179.65335"
       gradientTransform="scale(0.9784746,1.0219989)"
       gradientUnits="userSpaceOnUse" />
    <linearGradient
       xlink:href="#A"
       id="Y"
       x1="104.34933"
       y1="167.87572"
       x2="104.52501"
       y2="169.27438"
       gradientTransform="scale(0.92357836,1.0827452)"
       gradientUnits="userSpaceOnUse" />
    <linearGradient
       xlink:href="#A"
       id="Z"
       x1="108.15579"
       y1="167.52605"
       x2="107.96593"
       y2="169.68628"
       gradientTransform="scale(0.92357836,1.0827452)"
       gradientUnits="userSpaceOnUse" />
    <linearGradient
       xlink:href="#B"
       id="a"
       x1="104.90688"
       y1="178.22447"
       x2="104.85161"
       y2="179.70628"
       gradientUnits="userSpaceOnUse"
       gradientTransform="scale(0.9784746,1.0219989)" />
    <path
       id="b"
       d="M83.342 98.76a.57.57 0 0 0-.428.197l-5.057 5.859a.57.57 0 0 0-.138.366l-.284 32.978a.57.57 0 0 0 .212.446l5.34 4.303a.57.57 0 0 0 .712 0l5.34-4.303a.57.57 0 0 0 .212-.446l-.284-32.978a.57.57 0 0 0-.138-.366l-5.057-5.859a.57.57 0 0 0-.431-.197z" />
    <path
       id="c"
       d="M83.343 142.468v-43.14l-5.057 5.859-.283 32.978z" />
    <path
       id="d"
       d="M83.343 142.468v-43.14l5.057 5.859.283 32.978z" />
    <path
       id="e"
       d="M76.697 143.381h7.192v3.756h-7.192z" />
    <path
       id="f"
       d="M-41.98 167.477c.986-.947 1.208-2.368 3.875-2.272 2.146-2.453 3.169.355 4.143.601 4.465-1.85 3.644 2.834 2.606 3.608 1.124.43 1.081 2.803-.2 3.408.385 3.401-1.447 3.914-3.007 4.544l-6.815-4.076z" />
    <path
       id="g"
       d="M-40.009 167.978c-.287-1.908 2.011-2.213 3.024-1.701.5-1.661 1.924-.516 2.551.52 2.229-1.058 3.033 1.813 1.606 2.315 1.718.803.449 2.886 0 2.74.626 2.049-.458 2.22-1.134 2.173.055-.698.788-2.216-.425-3.402 1.465-1.742-1.26-3.582-2.268-2.599-1.193-2.012-2.66-.847-3.355-.047z" />
    <path
       id="h"
       d="M-43.363 165.899c.348.659.64 1.394.614 2.551-.691 1.905-2.677.447-2.37 5.256.054.843-.665 1.941-.937 3.438.472 1.682 2.365 2.364 6.237 1.654 2.476-.658 2.774 1.006 3.449 2.268 4.432-3.274.493-5.167-2.079-5.859 3.083-4.076 1.94-3.756 2.126-4.819-.811-.123-1.591-.264-3.874.472-.372-2.04-.049-4.473-3.166-4.961z" />
    <path
       id="i"
       d="M-41.993 167.789c.368 3.87-4.905 5.216-2.032 9.024.895 1.186 4.057.379 4.843.46 2.16.222 2.703 1.109 2.905 2.705 2.019-3.26-2.367-3.518-3.922-5.103 1.503-1.109 1.758-2.529 2.315-3.874-1.291.428-2.829.578-3.166 2.079-.02-4.124-.584-3.896-.945-5.292z" />
    <linearGradient
       id="j"
       gradientUnits="userSpaceOnUse" />
    <linearGradient
       inkscape:collect="always"
       xlink:href="#B"
       id="linearGradient1230"
       gradientUnits="userSpaceOnUse"
       gradientTransform="scale(0.93877891,1.0652135)"
       x1="116.25634"
       y1="161.70236"
       x2="113.14525"
       y2="166.2213" />
  </defs>
  <g
     transform="translate(-13.191,-42.442)"
     id="g288">
    <path
       d="m 34.216,45.01 -0.141,1.11 c -0.902,5.482 -4.662,10.098 -9.472,12.859 4.949,2.829 8.905,7.743 9.606,13.573 a 15.66,15.66 0 0 1 0.095,1.214 c 0.008,0.204 0.012,0.409 0.012,0.615 V 95.362 H 162.153 V 74.381 a 15.9,15.9 0 0 1 0.012,-0.615 15.63,15.63 0 0 1 0.095,-1.214 c 0.701,-5.83 4.657,-10.745 9.606,-13.573 -4.809,-2.761 -8.57,-7.377 -9.472,-12.859 -0.06,-0.366 -0.107,-0.736 -0.141,-1.11 H 98.236 Z"
       fill="#2957a4"
       id="path66" />
    <path
       d="M 162.154,94.771 H 34.317 v 71.256 l 0.595,3.979 0.177,0.937 c 0.427,2.162 0.944,4.144 1.542,5.964 l 0.532,1.521 0.281,0.732 v 0.001 c 0.57,1.445 1.198,2.779 1.875,4.012 l 0.694,1.2 v 0.001 l 1.102,1.682 0.16,0.223 0.613,0.824 1.632,1.925 c 0.846,0.913 1.737,1.751 2.669,2.525 h 10e-4 c 3.106,2.579 6.667,4.44 10.544,5.931 a 63.09,63.09 0 0 0 2.363,0.853 l 1.208,0.398 a 86.15,86.15 0 0 0 2.34,0.713 l 1.189,0.337 3.629,0.962 h 0.001 l 9.918,2.556 2.482,0.728 c 6.185,1.898 12.196,4.439 17.353,8.792 h 0.001 c 0.008,0.007 0.016,0.015 0.025,0.022 0.335,0.284 0.667,0.574 0.995,0.873 a 35.06,35.06 0 0 1 0.995,-0.873 c 0.008,-0.007 0.016,-0.015 0.025,-0.022 h 0.001 c 5.157,-4.353 11.168,-6.894 17.353,-8.792 l 2.481,-0.728 c 3.317,-0.932 6.657,-1.725 9.918,-2.556 h 0.001 l 3.629,-0.962 1.189,-0.337 2.34,-0.713 1.208,-0.398 c 0.799,-0.271 1.587,-0.555 2.363,-0.853 3.877,-1.491 7.438,-3.352 10.544,-5.931 h 0.001 c 0.932,-0.774 1.823,-1.612 2.669,-2.525 a 28.34,28.34 0 0 0 1.632,-1.925 c 0.208,-0.268 0.412,-0.544 0.613,-0.824 l 0.16,-0.223 a 29.92,29.92 0 0 0 1.102,-1.682 v -0.001 c 0.237,-0.389 0.468,-0.789 0.694,-1.2 0.678,-1.233 1.305,-2.567 1.875,-4.012 v -0.001 l 0.281,-0.732 a 41.53,41.53 0 0 0 0.532,-1.521 50.32,50.32 0 0 0 1.542,-5.964 l 0.177,-0.937 c 0.229,-1.265 0.428,-2.59 0.595,-3.979 z"
       class="M"
       id="path68" />
    <path
       d="m 32.034,42.726 -0.049,0.063 0.021,0.805 c 0,7.427 -6.467,13.836 -13.72,15.389 7.271,1.544 13.747,7.964 13.747,15.398 v 91.807 c 5.481,46.067 45.98,29.628 66.202,50.69 20.222,-21.062 60.722,-4.623 66.202,-50.69 V 74.381 c 0,-7.433 6.476,-13.854 13.747,-15.398 -7.253,-1.553 -13.72,-7.962 -13.72,-15.389 a 15.8,15.8 0 0 1 0.021,-0.805 l -0.049,-0.063 h -66.2 z m 2.183,2.284 h 64.019 64.019 c 0.034,0.374 0.081,0.744 0.141,1.11 0.902,5.482 4.662,10.098 9.472,12.859 -4.949,2.829 -8.905,7.743 -9.606,13.573 -0.047,0.4 -0.079,0.805 -0.095,1.214 a 15.9,15.9 0 0 0 -0.012,0.615 v 91.646 a 68.1,68.1 0 0 1 -0.595,3.979 l -0.177,0.937 a 50.32,50.32 0 0 1 -1.542,5.964 c -0.171,0.52 -0.348,1.027 -0.532,1.521 l -0.281,0.732 v 0.001 c -0.57,1.445 -1.198,2.779 -1.875,4.012 -0.226,0.411 -0.457,0.811 -0.694,1.2 v 0.001 a 29.92,29.92 0 0 1 -1.102,1.682 l -0.16,0.223 a 28.93,28.93 0 0 1 -0.613,0.824 c -0.525,0.679 -1.07,1.319 -1.632,1.925 -0.846,0.913 -1.737,1.751 -2.669,2.525 h -10e-4 c -3.106,2.579 -6.667,4.44 -10.544,5.931 -0.775,0.298 -1.563,0.582 -2.363,0.853 l -1.208,0.398 c -0.771,0.247 -1.551,0.484 -2.34,0.713 l -1.189,0.337 -3.629,0.962 h -10e-4 l -9.918,2.556 -2.482,0.728 c -6.185,1.898 -12.196,4.439 -17.353,8.792 h -10e-4 l -0.025,0.022 c -0.335,0.284 -0.667,0.574 -0.995,0.873 -0.328,-0.299 -0.66,-0.59 -0.995,-0.873 -0.008,-0.007 -0.016,-0.015 -0.025,-0.022 H 97.213 C 92.056,208.47 86.045,205.929 79.86,204.031 l -2.482,-0.728 c -3.317,-0.932 -6.657,-1.725 -9.918,-2.556 h -10e-4 l -3.629,-0.962 -1.189,-0.337 -2.34,-0.713 -1.208,-0.398 c -0.799,-0.271 -1.587,-0.555 -2.363,-0.853 -3.877,-1.491 -7.438,-3.352 -10.544,-5.931 h -10e-4 c -0.932,-0.774 -1.823,-1.612 -2.669,-2.525 -0.562,-0.606 -1.107,-1.247 -1.632,-1.925 -0.208,-0.268 -0.412,-0.544 -0.613,-0.824 l -0.16,-0.223 c -0.379,-0.538 -0.747,-1.098 -1.102,-1.682 v -0.001 c -0.237,-0.389 -0.468,-0.789 -0.694,-1.2 -0.678,-1.233 -1.305,-2.567 -1.875,-4.012 v -0.001 l -0.281,-0.732 a 41.53,41.53 0 0 1 -0.532,-1.521 50.32,50.32 0 0 1 -1.542,-5.964 l -0.177,-0.937 c -0.229,-1.265 -0.428,-2.59 -0.595,-3.979 V 74.381 c 0,-0.206 -0.004,-0.411 -0.012,-0.615 A 15.66,15.66 0 0 0 34.206,72.552 C 33.505,66.722 29.549,61.807 24.6,58.979 29.409,56.218 33.17,51.602 34.072,46.12 a 15.71,15.71 0 0 0 0.141,-1.11 z"
       fill="#f7d200"
       stroke-width=".765"
       class="N"
       id="path70" />
    <path
       d="m 65.532,57.281 q 0,-1.254 -0.771,-1.788 -0.759,-0.534 -2.137,-0.534 h -3.63 v 4.731 h 3.63 q 1.378,0 2.137,-0.578 0.771,-0.578 0.771,-1.831 z m 3.857,-0.022 q 0,2.845 -1.669,4.023 -1.669,1.177 -4.768,1.177 h -3.958 v 5.778 h -3.87 V 52.168 h 8.119 q 2.808,0 4.477,1.243 1.669,1.243 1.669,3.848 z m 7.998,4.906 h 4.73 L 79.79,55.842 Z m 0.24,-9.997 h 4.401 l 6.601,16.069 h -4.224 l -1.201,-3.303 h -6.867 l -1.29,3.303 h -4.072 z m 23.392,5.113 c 0,-0.836 -0.257,-1.432 -0.771,-1.788 -0.506,-0.356 -1.218,-0.534 -2.137,-0.534 h -3.63 v 4.731 h 3.63 c 0.919,0 1.631,-0.193 2.137,-0.578 0.514,-0.385 0.771,-0.996 0.771,-1.831 z m 3.857,-0.022 c 0,1.897 -0.556,3.238 -1.669,4.023 -1.113,0.785 -2.702,1.177 -4.768,1.177 h -3.958 v 5.778 h -3.87 V 52.168 h 8.119 c 1.872,0 3.364,0.414 4.477,1.243 1.113,0.829 1.669,2.111 1.669,3.848 z m 2.039,-5.091 h 3.958 v 9.877 c 0,1.105 0.152,1.911 0.455,2.42 0.472,0.901 1.501,1.352 3.086,1.352 1.577,0 2.601,-0.451 3.073,-1.352 0.304,-0.509 0.455,-1.315 0.455,-2.42 v -9.877 h 3.958 v 9.877 c 0,1.708 -0.308,3.038 -0.923,3.99 -1.147,1.744 -3.334,2.616 -6.563,2.616 -3.229,0 -5.421,-0.872 -6.576,-2.616 -0.615,-0.952 -0.923,-2.282 -0.923,-3.99 z m 23.266,9.997 h 4.73 l -2.327,-6.323 z m 0.24,-9.997 h 4.401 l 6.601,16.069 h -4.224 l -1.201,-3.303 h -6.867 l -1.29,3.303 h -4.072 z m 2.175,0 z"
       class="B C"
       id="path72" />
    <use
       xlink:href="#b"
       class="O"
       id="use74"
       x="0"
       y="0"
       width="100%"
       height="100%" />
    <use
       xlink:href="#c"
       class="C"
       id="use76"
       x="0"
       y="0"
       width="100%"
       height="100%" />
    <use
       xlink:href="#d"
       class="P"
       id="use78"
       x="0"
       y="0"
       width="100%"
       height="100%" />
    <use
       xlink:href="#b"
       x="14.93"
       class="O"
       id="use80"
       y="0"
       width="100%"
       height="100%" />
    <use
       xlink:href="#c"
       x="14.93"
       class="C"
       id="use82"
       y="0"
       width="100%"
       height="100%" />
    <use
       xlink:href="#d"
       x="14.93"
       class="P"
       id="use84"
       y="0"
       width="100%"
       height="100%" />
    <use
       xlink:href="#b"
       x="29.860001"
       class="O"
       id="use86"
       y="0"
       width="100%"
       height="100%" />
    <use
       xlink:href="#c"
       x="29.860001"
       class="C"
       id="use88"
       y="0"
       width="100%"
       height="100%" />
    <use
       xlink:href="#d"
       x="29.860001"
       class="P"
       id="use90"
       y="0"
       width="100%"
       height="100%" />
    <g
       stroke="#636466"
       class="C Q R"
       id="g104">
      <use
         xlink:href="#e"
         
         class="E"
         id="use92"
         x="0"
         y="0"
         width="100%"
         height="100%" />
      <use
         xlink:href="#e"
         x="7.1919999"
         
         class="E"
         id="use94"
         y="0"
         width="100%"
         height="100%" />
      <use
         xlink:href="#e"
         x="14.385"
         
         class="E"
         id="use96"
         y="0"
         width="100%"
         height="100%" />
      <use
         xlink:href="#e"
         x="21.577"
         
         class="E"
         id="use98"
         y="0"
         width="100%"
         height="100%" />
      <use
         xlink:href="#e"
         x="28.768999"
         
         class="E"
         id="use100"
         y="0"
         width="100%"
         height="100%" />
      <use
         xlink:href="#e"
         x="35.960999"
         
         class="E"
         id="use102"
         y="0"
         width="100%"
         height="100%" />
    </g>
    <g
       stroke="#636466"
       class="C E Q R"
       id="g124">
      <use
         xlink:href="#e"
         x="-10.788"
         y="3.756"
         
         class="E"
         id="use106"
         width="100%"
         height="100%" />
      <use
         xlink:href="#e"
         x="-3.596"
         y="3.756"
         
         class="E"
         id="use108"
         width="100%"
         height="100%" />
      <use
         xlink:href="#e"
         x="3.596"
         y="3.756"
         
         class="E"
         id="use110"
         width="100%"
         height="100%" />
      <use
         xlink:href="#e"
         x="10.789"
         y="3.756"
         
         class="E"
         id="use112"
         width="100%"
         height="100%" />
      <use
         xlink:href="#e"
         x="17.981001"
         y="3.756"
         
         class="E"
         id="use114"
         width="100%"
         height="100%" />
      <use
         xlink:href="#e"
         x="25.173"
         y="3.756"
         
         class="E"
         id="use116"
         width="100%"
         height="100%" />
      <use
         xlink:href="#e"
         x="32.365002"
         y="3.756"
         
         class="E"
         id="use118"
         width="100%"
         height="100%" />
      <use
         xlink:href="#e"
         x="39.556999"
         y="3.756"
         
         class="E"
         id="use120"
         width="100%"
         height="100%" />
      <use
         xlink:href="#e"
         x="46.749001"
         y="3.756"
         
         class="E"
         id="use122"
         width="100%"
         height="100%" />
    </g>
    <path
       d="m 92.353,74.24 c -3.227,0.009 -4.585,2.564 -6.948,3.749 L 82.8,76.586 c -2.32,-0.422 -2.509,-2.016 -8.285,-0.768 -1.6,-0.041 -4.184,-1.707 -8.018,1.437 -9.557,7.887 -21.317,12.471 -27.87,17.538 h 120.379 c -9.784,-5.093 -19.422,-9.96 -31.404,-18.473 -1.448,-0.562 -2.505,-1.566 -5.252,-0.662 -1.157,0.355 -2.33,0.87 -3.402,0.331 -1.208,-0.551 -3.273,-1.681 -6.78,1.835 -1.616,-0.131 -2.353,-0.91 -3.308,-1.537 -1.614,-1.373 -3.264,-2.7 -6.882,-1.503 -2.185,0.075 -4.005,0.385 -7.055,-0.094 -0.979,-0.317 -1.823,-0.451 -2.568,-0.449 z"
       class="G"
       id="path126" />
    <path
       d="m 92.353,74.24 c -3.227,0.009 -4.585,2.564 -6.948,3.749 L 82.8,76.586 c -2.32,-0.422 -2.509,-2.016 -8.285,-0.768 -1.6,-0.041 -4.184,-1.707 -8.018,1.437 -9.557,7.887 -21.317,12.471 -27.87,17.538 h 120.379 c -9.784,-5.093 -19.422,-9.96 -31.404,-18.473 -1.448,-0.562 -2.505,-1.566 -5.252,-0.662 -1.157,0.355 -2.33,0.87 -3.402,0.331 -1.208,-0.551 -3.273,-1.681 -6.78,1.835 -1.616,-0.131 -2.353,-0.91 -3.308,-1.537 -1.614,-1.373 -3.264,-2.7 -6.882,-1.503 -2.185,0.075 -4.005,0.385 -7.055,-0.094 -0.979,-0.317 -1.823,-0.451 -2.568,-0.449 z m 0.002,0.645 c 0.667,-0.002 1.441,0.119 2.367,0.419 0.033,0.011 0.066,0.018 0.1,0.024 3.131,0.491 5.039,0.173 7.176,0.099 a 0.65,0.65 0 0 0 0.181,-0.033 c 1.713,-0.567 2.858,-0.518 3.785,-0.211 0.927,0.307 1.674,0.911 2.476,1.594 a 0.65,0.65 0 0 0 0.063,0.049 c 3.131,2.433 6.79,5.696 9.92,8.124 1.553,1.205 2.661,2.241 4.133,2.795 1.996,-0.035 0.756,-1.01 0.635,-1.203 -1.48,-1.018 -2.297,-1.446 -4.466,-3.071 -2.85,-2.135 -3.973,-3.553 -5.957,-5.329 1.609,-1.57 2.811,-2.045 3.702,-2.116 0.908,-0.072 1.563,0.256 2.185,0.541 0.695,0.35 1.428,0.347 2.078,0.226 0.65,-0.121 1.251,-0.348 1.805,-0.517 2.533,-0.833 3.224,-10e-4 4.754,0.615 11.068,7.857 20.121,12.572 29.131,17.256 H 40.802 c 6.642,-4.54 17.197,-9.041 26.105,-16.392 3.638,-2.982 5.561,-1.341 7.592,-1.289 0.051,0.002 0.102,-0.003 0.152,-0.013 2.831,-0.611 4.189,-0.514 5.129,-0.252 0.878,0.244 1.574,0.703 2.712,0.957 l 2.606,1.402 c -3.287,4.679 -12.462,8.084 -11.62,9.477 9.899,-4.248 10.957,-7.233 13.761,-10.468 l -0.005,0.002 c 0.522,-0.404 1.003,-0.826 1.483,-1.205 0.912,-0.72 1.801,-1.286 3.004,-1.44 a 5.08,5.08 0 0 1 0.633,-0.04 z"
       fill="#005e3a"
       id="path128" />
    <path
       d="m 69.368,76.697 c -1.307,0.771 -2.181,2.131 -3.602,2.733 -1.767,1.004 -3.503,2.083 -5.029,3.432 -1.473,1.052 -3.175,1.763 -4.543,2.964 -0.654,1.432 1.58,0.658 2.06,0.07 1.211,-0.463 2.55,-0.161 3.813,-0.361 0.738,-0.045 1.678,-0.315 2.12,-0.797 -0.854,0.378 -1.458,1.105 -2.261,1.565 -0.993,0.893 1.136,0.446 1.664,0.368 1.37,-0.089 2.614,-0.634 3.883,-1.101 1.477,-0.279 3.172,-0.299 4.315,-1.422 0.386,-0.371 1.126,-0.53 0.355,-0.009 l -3.284,2.498 c -0.435,0.22 -1.441,0.937 -0.349,0.512 1.437,-0.446 2.658,-1.384 4.079,-1.87 1.27,-0.559 2.592,-1.018 3.725,-1.843 0.82,-0.484 1.773,-0.663 2.6,-1.15 0.848,-0.428 1.66,-0.948 2.327,-1.63 0.011,-1.316 2.87,-1.046 2.14,-2.375 l -4.047,-1.715 c -1.374,-0.415 -2.412,0.722 -3.651,0.931 -1.204,0.055 -2.172,-0.877 -3.382,-0.817 -0.978,-0.056 -1.956,0.073 -2.934,0.017 z"
       class="F"
       id="path130" />
    <path
       d="m 60.663,85.307 c 4.506,-3.281 8.401,-6.407 11.02,-7.807 1.134,-0.183 2.268,0.296 3.402,0.614 l 2.929,-0.992 c 1.682,-0.534 1.501,1.452 0.876,1.557 -0.925,0.613 -0.771,0.744 -4.136,1.845 -0.619,0.026 -0.927,0.13 -2.551,-0.094 -0.388,-0.463 -3.872,2.067 -6.804,4.063 -1.703,0.537 -3.382,1.022 -4.736,0.815 z"
       class="C"
       id="path132" />
    <path
       d="m 90.676,75.704 c -2.624,0.968 -3.671,3.988 -5.923,5.534 -0.961,1.423 -2.754,2.24 -2.805,3.581 l 6.889,-2.895 c 1.767,-1.352 2.105,-0.132 0.53,1.047 -1.309,0.581 -3.873,3.591 -1.028,1.758 2.747,-1.097 4.457,-3.836 7.675,-3.702 0.591,0.926 -3.738,4.892 -1,4.877 2.39,-0.214 4.361,-1.62 5.943,-3.33 2.315,-2.258 4.746,0.835 6.436,2.315 3.136,2.897 0.793,-3.56 3.844,-3.144 2.332,0.634 -0.534,-1.388 -1.079,-2.266 -1.568,-2.378 -3.773,-3.955 -5.333,-3.842 -2.981,0.281 -6.232,1.164 -9.46,0.327 -2.101,-0.545 -4.213,-0.414 -4.689,-0.26 z"
       class="F"
       id="path134" />
    <path
       d="m 87.7,79.957 c 1.624,-0.996 3.164,-2.354 4.961,-2.599 1.964,-0.156 1.608,0.016 2.221,0.331 3.73,1.915 4.391,0.642 6.307,-0.047 2.183,-0.785 3.31,-0.774 4.559,-0.378 4.395,2.797 3.399,4.896 1.654,4.725 -1.745,-0.171 -1.905,-1.064 -3.449,-1.654 -2.726,-1.04 -2.765,0.308 -3.685,0.756 -2.766,2.953 -2.684,0.864 -3.402,0.189 -0.746,-1.651 -2.965,-2.194 -3.964,-1.537 l -2.509,1.065 c -1.33,0.559 -3.354,0.266 -2.693,-0.85 z"
       class="C"
       id="path136" />
    <path
       d="m 116.331,76.508 c -0.766,0.456 -1.834,0.707 -2.18,1.622 -0.09,0.857 0.939,1.157 1.494,1.592 1.167,0.689 2.248,1.504 3.384,2.243 1.219,0.763 2.065,2.168 3.544,2.474 -0.259,-0.894 0.154,-2.114 1.055,-1.043 1.041,0.57 2.194,0.9 3.232,1.479 -0.292,-0.376 -1.055,-1.397 -0.104,-0.732 2.264,0.995 4.681,1.796 7.179,1.795 0.526,-0.063 1.78,0.097 2.531,0.351 0.48,0.178 0.949,0.107 0.749,-0.473 0.424,-0.52 2,0.231 1.912,-0.357 -0.916,-0.634 -2.048,-0.927 -2.822,-1.769 -1.33,-1.221 -2.807,-2.263 -4.316,-3.247 l -2.621,-1.373 c -1.153,-0.639 -2.308,-1.298 -3.326,-2.132 -1.139,-0.546 -2.545,-0.626 -3.667,0.016 -0.956,0.508 -2.08,0.897 -3.129,0.406 -0.956,-0.352 -1.845,-0.959 -2.913,-0.851 z"
       class="F"
       id="path138" />
    <path
       d="m 116.969,76.697 c -2.065,1.973 2.499,3.124 4.158,3.851 2.686,-1.398 6.189,2.472 9.284,3.709 0.196,0.522 5.04,1.305 4.63,0.945 -0.165,-0.145 -9.629,-6.999 -9.733,-7.04 -0.719,-0.283 -0.926,-1.47 -2.929,-0.709 -0.975,0.515 -1.997,0.663 -3.097,0.203 z"
       class="C"
       id="path140" />
    <path
       d="m 65.464,180.734 c 2.679,1.225 4.438,2.942 8.393,3.022 2.165,0.091 5.668,-2.671 8.6,-3.269 8.979,1.923 15.536,2.412 26.941,5.773 2.459,1.634 4.797,3.351 7.938,4.517 -0.641,-1.711 -1.928,-3.691 -3.074,-5.613 -13.856,-4.211 -16.6,-4.381 -22.8,-5.808 -4.92,-1.394 -5.068,-11.567 -17.023,-13.636 0.527,4.259 2.865,7.715 8.112,9.391 1.546,0.382 1.961,1.894 2.779,3.003 -4.118,0.186 -8.466,-2.358 -11.159,-5.913 -2.053,-5.287 -0.138,-11.268 -6.682,-15.769 0.29,4.474 -0.281,9.005 1.737,13.363 -2.009,-0.181 -3.273,-2.286 -4.527,-5.613 2.622,-11.999 -1.556,-10.246 -1.887,-15.723 -0.467,4.515 -4.855,4.558 -0.935,14.921 -2.59,-0.846 -4.472,-3.404 -4.677,-10.023 6.936,-6.049 2.937,-10.024 3.341,-14.833 -2.308,3.073 -5.961,4.618 -5.746,10.557 l -1.336,-5.613 c 3.243,-6.075 6.534,-3.625 6.014,-14.032 -5.025,1.652 -6.59,8.154 -7.884,9.354 -0.343,-2.405 -0.689,-4.811 0.935,-7.216 9.544,-5.824 6.775,-8.312 8.137,-13.593 -9.05,4.038 -5.988,9.871 -9.34,11.722 0.297,-3.697 0.102,-7.394 3.475,-11.092 4.608,-2.868 10.226,-5.062 8.686,-12.027 -2.795,1.783 -5.607,3.831 -8.577,8.246 -0.59,-2.036 -0.594,-3.312 0.692,-4.638 8.989,-7.332 5.144,-9.202 6.682,-13.363 -3.21,3.933 -8.1,3.303 -8.954,13.631 -0.481,3.116 0.364,6.651 -2.272,9.087 0.205,-1.5 -0.844,-2.094 -0.324,-3.501 1.642,-4.446 1.354,-7.848 0.458,-11.065 -1.617,3.946 -7.963,4.682 -1.871,17.239 0.477,1.607 0.454,6.015 0.197,7.744 -3.267,-3.044 -0.687,-5.585 -5.142,-14.827 0.609,5.629 -6.084,8.88 4.143,17.64 l 0.802,2.806 c -3.378,-1.713 -5.587,-5.596 -8.152,-8.82 -0.315,3.746 -1.763,7.309 7.083,14.032 0.997,1.025 1.621,2.049 1.737,3.074 -4.047,-0.814 -9.245,-7.836 -9.889,-7.35 1.463,4.043 -2.075,7.618 11.893,12.829 1.718,2.72 2.308,4.387 2.138,5.345 -5.19,-6.365 -9.067,-5.813 -13.497,-10.156 2.346,12.603 8.031,8.94 14.7,13.096 l 1.604,2.673 c -4.185,-4.645 -7.191,-0.847 -12.963,-3.341 2.498,3.426 4.322,7.222 15.234,6.014 3.583,2.574 5.546,4.67 3.608,5.613 -4.518,-4.764 -8.824,-1.666 -13.23,-2.272 3.531,1.905 3.575,6.276 13.764,3.475 2.818,1.529 6.335,1.193 8.419,4.677 -0.64,-0.202 -0.995,0.528 -2.413,-0.347 -1.983,-1.223 -6.682,-2.322 -12.687,-0.054 2.67,1.546 5.026,3.193 11.844,3.397 4.398,-1.278 6.899,-0.08 9.404,0.612 -4.371,-0.017 -5.751,2.12 -12.449,2.653 z"
       fill="#f7d200"
       stroke-width=".565"
       class="N"
       id="path142" />
    <path
       d="m 76.331,167.316 c 0.721,2.737 3.667,4.961 7.654,6.945 -1.413,-2.983 -2.689,-6.045 -7.654,-6.945 z m -7.418,14.033 c 3.987,-1.363 8.08,-2.919 10.725,-1.843 -5.164,2.998 -7.723,2.087 -10.725,1.843 z m -9.544,-7.229 c 3.946,-0.894 7.092,-0.267 9.78,1.228 -4.055,0.783 -6.963,-0.155 -9.78,-1.228 z m 9.213,-15.355 c 1.821,2.359 3.694,4.62 3.307,11.15 -2.323,-3.107 -2.979,-7.047 -3.307,-11.15 z m -15.497,8.315 c 3.352,-0.629 6.092,-0.482 7.56,1.276 -3.565,0.321 -5.744,-0.347 -7.56,-1.276 z m 9.733,-15.213 c -2.568,4.405 -1.006,6.843 -0.142,9.355 1.353,-4.669 0.759,-7.025 0.142,-9.355 z m -16.143,6.771 c 3.003,0.742 7.074,-0.734 8.987,2.272 -3.958,0.104 -6.715,-0.867 -8.987,-2.272 z m -3.942,-10.49 c 3.998,1.286 7.036,3.125 8.72,5.746 -5.032,-0.794 -6.804,-3.308 -8.72,-5.746 z m 16.972,-7.15 c -3.794,4.175 -4.197,7.22 -3.475,9.889 3.021,-3.351 3.443,-6.626 3.475,-9.889 z m -18.241,-2.305 c 0.197,3.672 3.144,6.428 8.686,8.319 -3.542,-2.428 -6.48,-5.178 -8.686,-8.319 z m 11.459,1.603 c 2.983,-2.376 4.988,-5.276 5.479,-8.987 -2.218,1.882 -4.396,3.877 -5.479,8.987 z M 42.067,129.794 c -0.128,3.408 2.094,6.212 6.533,8.446 -2.74,-2.554 -4.955,-5.352 -6.533,-8.446 z m 12.388,-2.732 c 1.232,-5.262 3.011,-4.871 4.583,-6.615 -0.991,2.778 -1.771,5.78 -4.583,6.615 z m -9.449,-7.371 c -1.719,3.539 -0.891,5.91 0.378,8.079 1.074,-2.693 0.814,-5.386 -0.378,-8.079 z m 3.921,-4.441 c 0.921,-1.833 2.36,-2.59 1.748,-7.607 -1.7,2.207 -2.19,4.77 -1.748,7.607 z m 7.135,1.04 c 4.198,-1.49 5.247,-4.617 6.378,-7.701 -2.593,2.058 -5.142,4.163 -6.378,7.701 z m -0.237,-8.741 c 2.127,-1.106 4.141,-2.484 4.536,-7.796 -3.036,2.429 -4.894,4.989 -4.536,7.796 z"
       fill="#ffe75d"
       id="path144" />
    <g
       transform="matrix(0.200291,-0.87278,0.839521,0.135246,0.98792,48.545008)"
       id="g154">
      <use
         xlink:href="#f"
         class="D I J"
         id="use146"
         x="0"
         y="0"
         width="100%"
         height="100%" />
      <use
         xlink:href="#g"
         class="C"
         id="use148"
         x="0"
         y="0"
         width="100%"
         height="100%" />
      <use
         xlink:href="#h"
         class="D G H"
         id="use150"
         x="0"
         y="0"
         width="100%"
         height="100%" />
      <use
         xlink:href="#i"
         class="F"
         id="use152"
         x="0"
         y="0"
         width="100%"
         height="100%" />
    </g>
    <g
       transform="matrix(0.332165,-0.860963,0.838665,0.269673,12.75003,37.115746)"
       id="g164">
      <use
         xlink:href="#f"
         class="D I J"
         id="use156"
         x="0"
         y="0"
         width="100%"
         height="100%" />
      <use
         xlink:href="#g"
         class="C"
         id="use158"
         x="0"
         y="0"
         width="100%"
         height="100%" />
      <use
         xlink:href="#h"
         class="D G H"
         id="use160"
         x="0"
         y="0"
         width="100%"
         height="100%" />
      <use
         xlink:href="#i"
         class="F"
         id="use162"
         x="0"
         y="0"
         width="100%"
         height="100%" />
    </g>
    <g
       transform="matrix(0.424722,-0.853037,0.86934,0.351151,13.97759,35.243924)"
       id="g174">
      <use
         xlink:href="#f"
         class="D I J"
         id="use166"
         x="0"
         y="0"
         width="100%"
         height="100%" />
      <use
         xlink:href="#g"
         class="C"
         id="use168"
         x="0"
         y="0"
         width="100%"
         height="100%" />
      <use
         xlink:href="#h"
         class="D G H"
         id="use170"
         x="0"
         y="0"
         width="100%"
         height="100%" />
      <use
         xlink:href="#i"
         class="F"
         id="use172"
         x="0"
         y="0"
         width="100%"
         height="100%" />
    </g>
    <g
       transform="matrix(0.592383,-0.710331,0.766811,0.514851,39.36178,24.289481)"
       id="g184">
      <use
         xlink:href="#f"
         class="D I J"
         id="use176"
         x="0"
         y="0"
         width="100%"
         height="100%" />
      <use
         xlink:href="#g"
         class="C"
         id="use178"
         x="0"
         y="0"
         width="100%"
         height="100%" />
      <use
         xlink:href="#h"
         class="D G H"
         id="use180"
         x="0"
         y="0"
         width="100%"
         height="100%" />
      <use
         xlink:href="#i"
         class="F"
         id="use182"
         x="0"
         y="0"
         width="100%"
         height="100%" />
    </g>
    <g
       transform="matrix(0.804682,-0.554047,0.626284,0.739888,68.28832,4.382237)"
       id="g194">
      <use
         xlink:href="#f"
         class="D I J"
         id="use186"
         x="0"
         y="0"
         width="100%"
         height="100%" />
      <use
         xlink:href="#g"
         class="C"
         id="use188"
         x="0"
         y="0"
         width="100%"
         height="100%" />
      <use
         xlink:href="#h"
         class="D G H"
         id="use190"
         x="0"
         y="0"
         width="100%"
         height="100%" />
      <use
         xlink:href="#i"
         class="F"
         id="use192"
         x="0"
         y="0"
         width="100%"
         height="100%" />
    </g>
    <g
       transform="matrix(0.951709,-0.230606,0.240944,0.910875,135.12778,-2.7928)"
       id="g204">
      <use
         xlink:href="#f"
         class="D I J"
         id="use196"
         x="0"
         y="0"
         width="100%"
         height="100%" />
      <use
         xlink:href="#g"
         class="C"
         id="use198"
         x="0"
         y="0"
         width="100%"
         height="100%" />
      <use
         xlink:href="#h"
         class="D G H"
         id="use200"
         x="0"
         y="0"
         width="100%"
         height="100%" />
      <use
         xlink:href="#i"
         class="F"
         id="use202"
         x="0"
         y="0"
         width="100%"
         height="100%" />
    </g>
    <use
       xlink:href="#f"
       x="168.689"
       class="D I J"
       id="use206"
       y="0"
       width="100%"
       height="100%" />
    <use
       xlink:href="#g"
       x="168.689"
       class="C"
       id="use208"
       y="0"
       width="100%"
       height="100%" />
    <use
       xlink:href="#h"
       x="168.689"
       class="D G H"
       id="use210"
       y="0"
       width="100%"
       height="100%" />
    <use
       xlink:href="#i"
       x="168.689"
       class="F"
       id="use212"
       y="0"
       width="100%"
       height="100%" />
    <path
       d="m 113.278,172.277 c 0.984,-3.196 4.442,-2.315 5.15,-1.654 1.424,-0.877 3.986,-0.504 4.725,2.032 4.26,-0.602 4.011,4.227 2.178,4.281 0.852,-0.013 2.552,2.517 -0.335,3.657 0.303,1.309 -0.22,4.63 -4.583,3.544 l -5.433,-5.197 z"
       fill="#c8c8c8"
       stroke="#777"
       class="D"
       id="path214" />
    <path
       d="m 115.33,171.6 c 0.837,-0.824 2.292,-0.602 3.307,-0.134 1.598,-1.014 3.617,0.289 3.809,1.704 2.596,0.083 3.463,2.025 1.704,3.14 1.653,1.052 1.134,3.896 -0.401,3.441 1.076,2.216 -0.371,2.618 -1.236,3.04 0.127,-2.022 -0.922,-2.985 -2.572,-3.408 2.337,-1.545 1.951,-3.799 2.539,-5.078 -1.835,-1.018 -3.528,-0.373 -4.844,0.167 -0.58,-1.776 -1.472,-2.198 -2.305,-2.873 z"
       class="C"
       id="path216" />
    <path
       d="m 82.095,185.506 c -0.669,3.288 -3.51,3.833 -1.606,5.67 16.651,-7.89 10.476,-10.798 26.836,-8.487 1.709,0.619 4.695,-1.909 8.032,-1.718 1.159,0.559 2.534,0.764 3.375,4.986 1.689,-0.971 5.372,-4.3 0.121,-6.687 1.641,-1.568 2.786,-3.162 2.74,-4.819 -1.702,-0.182 -3.079,0.147 -4.158,0.945 -2.9,-4.289 -5.218,-4.705 -6.527,-4.485 1.115,0.843 1.145,3.873 -0.401,5.864 -11.145,7.813 -4.697,-1.268 -28.413,8.732 z"
       class="D G H"
       id="path218" />
    <path
       d="m 83.291,185.966 c -0.882,1.255 -1.55,2.372 -1.37,2.94 5.172,-4.582 9.845,-5.17 14.767,-7.751 -4.092,1.106 -8.197,2.228 -13.397,4.811 z m 18.677,-5.263 c 3.515,1.412 7.396,-0.945 7.864,-2.607 -3.147,2.324 -5.705,3.019 -7.864,2.607 z m 10.506,-8.568 c 1.585,0.634 -0.11,3.32 -0.84,4.609 -0.836,2.209 0.401,3.977 1.851,3.371 0.672,-0.281 2.203,-0.166 2.637,0.04 2.104,1.135 3.319,2.105 3.204,4.029 0.65,-1.371 1.417,-3.679 -2.504,-4.866 2.104,0.051 2.72,-2.315 3.921,-3.733 -2.333,0.468 -4.854,0.778 -6.472,1.842 l -0.025,-0.004 c 1.297,-1.276 1.21,-3.033 -1.771,-5.288 z"
       class="F"
       id="path220" />
    <path
       d="m 100.001,183.853 2.603,15.778 1.771,-1.102 c -1.365,-4.919 -1.974,-9.656 -4.102,-14.758 z"
       fill="url(#V)"
       class="B"
       id="path222"
       style="fill-opacity:1;fill:url(#V)" />
    <g
       class="D"
       id="g272">
      <path
         d="m 95.748,180.994 c -3.119,-3.526 -7.343,-5.828 -6.874,-10.182 0.894,0.017 1.641,0.221 2.123,1.751 0.868,2.758 3.327,5.575 4.752,8.43 z"
         fill="url(#O)"
         class="B K"
         id="path224"
         style="fill-opacity:1;fill:url(#O)" />
      <path
         d="m 93.055,181.231 2.693,-0.236 c -3.119,-3.526 -7.343,-5.828 -6.874,-10.182 -0.7,-0.011 -2.23,-0.609 -2.221,1.417 -0.069,2.581 4.125,5.973 6.402,9.001 z"
         fill="url(#F)"
         class="B L"
         id="path226"
         style="fill-opacity:1.0;fill:url(#F)" />
      <path
         d="m 98.276,180.829 c -1.612,-3.865 -5.184,-7.387 -3.256,-11.2 0.484,0.437 1.597,0.951 1.67,3.575 0.059,2.1 0.849,3.803 1.586,7.625 z"
         fill="url(#P)"
         class="B K"
         id="path228"
         style="fill-opacity:1;fill:url(#P)" />
      <path
         d="m 95.748,180.994 2.528,-0.165 c -1.612,-3.865 -5.184,-7.387 -3.256,-11.2 -0.486,-0.534 -2.492,-1.077 -3.441,1.37 -0.355,3.402 2.78,6.664 4.17,9.995 z"
         fill="url(#G)"
         class="B L"
         id="path230"
         style="fill-opacity:1.0;fill:url(#G)" />
      <path
         d="m 100.804,180.994 c 3.119,-3.526 7.343,-5.828 6.874,-10.182 -0.894,0.017 -1.641,0.221 -2.123,1.751 -0.868,2.758 -3.327,5.575 -4.752,8.43 z"
         fill="url(#R)"
         class="B K"
         id="path232"
         style="fill-opacity:1;fill:url(#R)" />
      <path
         d="m 103.497,181.231 -2.693,-0.236 c 3.119,-3.526 7.343,-5.828 6.874,-10.182 0.7,-0.011 2.23,-0.609 2.221,1.417 0.069,2.581 -4.125,5.973 -6.402,9.001 z"
         fill="url(#I)"
         class="B L"
         id="path234"
         style="fill-opacity:1.0;fill:url(#linearGradient1230)" />
      <path
         d="m 98.276,180.829 c 1.612,-3.865 5.184,-7.387 3.256,-11.2 -0.484,0.437 -1.597,0.951 -1.67,3.575 -0.059,2.1 -0.849,3.803 -1.586,7.625 z"
         fill="url(#Q)"
         class="B K"
         id="path236"
         style="fill-opacity:1;fill:url(#Q)" />
      <path
         d="m 100.804,180.994 -2.528,-0.165 c 1.612,-3.865 5.184,-7.387 3.256,-11.2 0.486,-0.534 2.492,-1.077 3.441,1.37 0.355,3.402 -2.78,6.664 -4.17,9.995 z"
         fill="url(#H)"
         class="B L"
         id="path238"
         style="fill-opacity:1.0;fill:url(#H)" />
      <g
         class="K"
         id="g248">
        <path
           d="m 86.089,196.182 0.955,0.829 1.134,0.354 6.414,-13.265 -0.587,0.057 z"
           fill="url(#S)"
           class="B"
           id="path240"
           style="fill-opacity:1;fill:url(#S)" />
        <path
           d="m 95.937,183.971 -3.657,14.557 1.696,1.082 2.641,-15.677 z"
           fill="url(#T)"
           class="B"
           id="path242"
           style="fill-opacity:1;fill:url(#T)" />
        <path
           d="m 98.979,201.05 0.585,0.434 1.27,-1.236 -1.119,-16.521 -0.651,0.184 z"
           fill="url(#U)"
           class="B"
           id="path244"
           style="fill-opacity:1;fill:url(#U)" />
        <path
           d="m 101.583,183.959 6.7,13.399 1.203,-0.334 0.802,-0.702 -8.134,-12.309 z"
           fill="url(#W)"
           class="B"
           id="path246"
           style="fill-opacity:1;fill:url(#W)" />
      </g>
      <g
         class="L"
         id="g264">
        <path
           d="m 93.244,184.231 -10.252,10.555 -0.134,2.138 2.873,-0.2 8.271,-12.566 z"
           fill="url(#J)"
           class="B"
           id="path250"
           style="fill-opacity:1.0;fill:url(#J)" />
        <path
           d="m 94.004,184.158 -1.661,2.523 c 0.814,0.842 0.453,1.684 0.238,2.526 l -3.307,9.421 0.535,0.935 2.472,-1.036 3.657,-14.557 z"
           fill="url(#K)"
           class="B"
           id="path252"
           style="fill-opacity:1.0;fill:url(#K)" />
        <path
           d="m 96.008,202.657 0.983,-18.746 h 2.071 l -0.084,17.139 -1.687,1.871 z"
           fill="url(#M)"
           class="B"
           id="path254"
           style="fill-opacity:1.0;fill:url(#M)" />
        <path
           d="m 103.308,184.231 1.45,1.015 -1.455,2.42 4.174,11.087 -0.732,0.843 -2.372,-1.069 c -1.365,-4.919 -1.974,-9.656 -4.102,-14.758 1,0.253 2.013,0.362 3.036,0.461 z"
           fill="url(#N)"
           class="B"
           id="path256"
           style="fill-opacity:1.0;fill:url(#N)" />
        <path
           d="m 102.154,184.014 1.692,0.157 9.816,10.883 0.033,1.938 -2.973,-0.033 -0.434,-0.635 z"
           fill="url(#L)"
           class="B"
           id="path258"
           style="fill-opacity:1;fill:url(#L)" />
        <path
           d="m 93.055,181.231 c 1.399,-0.623 1.95,-0.563 2.693,-0.236 -0.994,1.071 -0.388,2.643 0.189,2.977 -1.008,0.745 -1.84,0.588 -2.693,0.26 -0.652,-0.467 -1.273,-2.419 -0.189,-3 z"
           fill="url(#X)"
           class="B"
           id="path260"
           style="fill-opacity:1;fill:url(#X)" />
        <path
           d="m 103.846,181.231 c -1.399,-0.623 -1.95,-0.563 -2.693,-0.236 0.994,1.071 0.388,2.643 -0.189,2.977 1.008,0.745 1.84,0.588 2.693,0.26 0.652,-0.467 1.273,-2.419 0.189,-3 z"
           fill="url(#a)"
           class="B"
           id="path262"
           style="fill-opacity:1.0;fill:url(#a)" />
      </g>
      <g
         class="K"
         id="g270">
        <path
           d="m 98.276,180.829 c -0.728,-0.292 -2.131,-0.452 -2.528,0.165 -0.789,1.229 -0.163,2.411 0.189,2.977 0.616,0.989 1.398,0.556 2.528,-0.142 0.15,-0.435 0.586,-1.95 -0.189,-3 z"
           fill="url(#Y)"
           class="B"
           id="path266"
           style="fill-opacity:1;fill:url(#Y)" />
        <path
           d="m 98.625,180.829 c 0.728,-0.292 2.131,-0.452 2.528,0.165 0.789,1.229 0.163,2.411 -0.189,2.977 -0.616,0.989 -1.398,0.556 -2.528,-0.142 -0.15,-0.435 -0.586,-1.95 0.189,-3 z"
           fill="url(#Z)"
           class="B"
           id="path268"
           style="fill-opacity:1;fill:url(#Z)" />
      </g>
    </g>
    <g
       stroke-width=".423"
       class="N"
       id="g284">
      <path
         d="m 13.272,172.655 c -0.268,29.208 30.225,48.066 44.111,49.125 v -15.368 c -29.757,-4.828 -32.643,-32.718 -29.4,-43.699 -3.576,4.769 -6.949,5.071 -6.548,17.373 -1.497,-0.149 -5.273,-2.157 -8.163,-7.431 z"
         class="M"
         id="path274" />
      <path
         d="m 42.148,222.382 0.535,-16.37 14.7,0.401 v 15.368 z"
         fill="#f3b800"
         id="path276" />
      <path
         d="m 183.276,172.55 c 0.268,29.208 -30.225,48.066 -44.111,49.125 v -15.368 c 29.757,-4.828 32.643,-32.718 29.4,-43.699 3.576,4.769 6.949,5.071 6.548,17.373 1.497,-0.149 5.273,-2.157 8.163,-7.431 z"
         class="M"
         id="path278" />
      <path
         d="m 154.399,222.277 -0.535,-16.37 -14.7,0.401 v 15.368 z"
         fill="#f3b800"
         id="path280" />
      <path
         d="m 42.683,206.011 -0.535,16.371 c 16.601,10.506 36.452,16.236 56.127,16.236 19.675,0 39.526,-5.73 56.127,-16.236 l -0.535,-16.371 c -7.248,4.788 -38.101,16.437 -55.592,16.437 -17.491,0 -48.344,-11.649 -55.592,-16.437 z"
         class="M"
         id="path282" />
    </g>
    <path
       d="m 52.248,224.842 1.286,-2.748 1.111,-0.742 -0.084,4.573 2.019,0.945 0.082,-6.631 4.291,-3.008 -2.019,-0.945 -1.963,1.465 q -0.737,0.543 -1.257,0.954 -0.52,0.411 -0.945,0.82 l -0.026,-0.012 1.993,-4.256 -1.789,-0.838 -4.488,9.585 z m 6.548,2.881 1.441,-2.32 2.163,0.823 -0.465,2.692 1.978,0.753 1.522,-10.745 -2.493,-0.948 -6.124,8.993 z m 3.906,-6.259 q 0.22,-0.339 0.585,-1.061 l 0.122,-0.241 q 0.109,-0.246 0.317,-0.634 l 0.026,0.01 q -0.103,0.429 -0.185,0.685 l -0.069,0.261 q -0.207,0.782 -0.268,1.181 l -0.568,3 -1.583,-0.602 z m 5.747,4.815 q 0.609,0.18 0.953,0.311 0.348,0.117 0.618,0.3 0.197,0.132 0.284,0.334 0.091,0.189 0.082,0.421 0.004,0.237 -0.047,0.457 -0.046,0.207 -0.137,0.563 l -0.024,0.081 q -0.008,0.027 -0.116,0.392 -0.206,0.748 -0.339,1.298 -0.119,0.553 -0.101,0.941 l 2.084,0.615 0.056,-0.189 q -0.111,-0.121 -0.101,-0.456 0.015,-0.349 0.106,-0.807 0.095,-0.472 0.222,-0.95 0.13,-0.491 0.314,-1.114 0.232,-0.785 0.033,-1.359 -0.185,-0.57 -0.951,-0.914 l 0.008,-0.027 q 0.48,0.068 0.842,-0.06 0.379,-0.138 0.655,-0.425 0.276,-0.286 0.459,-0.659 0.188,-0.386 0.323,-0.846 0.2,-0.677 0.123,-1.214 -0.063,-0.534 -0.372,-0.934 -0.295,-0.396 -0.787,-0.674 -0.478,-0.274 -1.128,-0.465 l -3.586,-1.059 -2.997,10.15 1.895,0.559 1.291,-4.371 z m 0.928,-4.39 1.407,0.416 q 0.605,0.193 0.809,0.548 0.222,0.345 -0.014,1.144 -0.212,0.717 -0.631,0.991 -0.402,0.264 -0.91,0.143 l -1.489,-0.439 z m 7.201,0.346 -2.11,-0.457 1.403,6.526 -0.952,4.4 1.931,0.418 0.952,-4.4 4.017,-5.353 -2.11,-0.457 -1.431,2.145 q -0.042,0.063 -0.125,0.175 -0.34,0.504 -0.545,0.849 -0.202,0.332 -0.389,0.797 l -0.028,-0.006 q 0.048,-0.755 -0.112,-1.685 z m 4.614,11.698 0.9,-2.579 2.29,0.331 0.133,2.728 2.095,0.303 -0.859,-10.818 -2.64,-0.382 -4.015,10.113 z m 2.447,-6.96 q 0.14,-0.379 0.339,-1.163 l 0.066,-0.261 q 0.052,-0.263 0.171,-0.688 l 0.028,0.004 q -0.007,0.441 -0.031,0.708 l -0.01,0.269 q -0.031,0.808 -0.004,1.211 l 0.101,3.051 -1.676,-0.242 z m 13.779,0.983 0.004,-0.113 q 0.022,-0.606 -0.03,-1.117 -0.052,-0.51 -0.329,-1.043 -0.263,-0.532 -0.899,-0.894 -0.622,-0.376 -1.693,-0.415 -1.551,-0.056 -2.353,0.634 -0.801,0.677 -0.851,2.045 -0.032,0.874 0.449,1.64 0.35,0.479 0.788,0.862 0.452,0.384 1.195,0.905 0.716,0.506 1.044,0.786 0.385,0.282 0.57,0.628 0.185,0.346 0.169,0.797 -0.045,1.241 -1.272,1.196 -0.663,-0.024 -0.942,-0.486 -0.266,-0.462 -0.234,-1.336 l 0.023,-0.62 -1.974,-0.072 -0.028,0.776 q -0.027,0.733 0.121,1.332 0.162,0.585 0.528,1.022 0.365,0.437 0.978,0.685 0.612,0.262 1.472,0.294 1.481,0.054 2.398,-0.703 0.917,-0.757 0.971,-2.224 0.026,-0.705 -0.153,-1.22 -0.178,-0.529 -0.654,-1.026 -0.19,-0.205 -0.506,-0.456 -0.302,-0.251 -0.604,-0.474 -0.302,-0.237 -0.591,-0.445 -0.289,-0.208 -0.633,-0.447 l -0.028,-0.015 q -0.564,-0.402 -0.822,-0.694 -0.243,-0.305 -0.224,-0.841 0.019,-0.522 0.309,-0.737 0.291,-0.229 0.813,-0.21 0.705,0.026 0.913,0.513 0.208,0.488 0.175,1.404 z m 6.757,-3.473 -1.634,0.096 -0.638,5.522 q -0.098,0.741 -0.175,2.555 -0.025,0.779 -0.055,1.233 l -0.028,0.002 q -0.058,-0.505 -0.101,-0.757 -0.222,-1.613 -0.454,-2.687 l -1.225,-5.71 -2.043,0.12 2.634,10.447 2.367,-0.139 0.46,-4.211 q 0.097,-0.755 0.164,-2.271 0.036,-0.836 0.062,-1.12 l 0.028,-0.002 q 0.059,0.279 0.192,1.105 0.243,1.498 0.428,2.237 l 1.033,4.124 2.367,-0.139 1.339,-10.68 -2.043,0.12 -0.451,5.808 q -0.105,1.095 -0.137,2.722 0.003,0.056 -0.006,0.382 -0.01,0.312 -0.02,0.383 l -0.028,0.002 q -0.045,-0.28 -0.158,-1.008 -0.139,-0.925 -0.261,-1.568 -0.108,-0.644 -0.238,-1.159 z m 7.625,9.865 0.113,-2.729 2.288,-0.348 0.919,2.572 2.093,-0.318 -3.963,-10.102 -2.637,0.401 -0.905,10.843 z m 0.32,-7.371 q 0.024,-0.403 -0.013,-1.211 l -0.012,-0.269 q -0.026,-0.267 -0.036,-0.708 l 0.028,-0.004 q 0.122,0.424 0.176,0.687 l 0.068,0.261 q 0.205,0.782 0.348,1.16 l 0.982,2.891 -1.674,0.255 z m 7.789,4.357 -1.688,-7.286 1.265,-0.293 q 0.839,-0.194 1.289,0.498 0.461,0.675 0.9,2.573 0.293,1.265 0.401,1.979 0.118,0.697 0.038,1.164 -0.08,0.468 -0.407,0.746 -0.313,0.275 -0.959,0.425 z m 1.986,1.133 q 0.454,-0.105 0.785,-0.24 0.331,-0.135 0.581,-0.366 0.487,-0.461 0.687,-1.101 0.199,-0.64 0.174,-1.373 -0.014,-0.75 -0.149,-1.457 -0.121,-0.711 -0.36,-1.742 -0.315,-1.361 -0.633,-2.171 -0.321,-0.824 -0.755,-1.259 -0.548,-0.554 -1.265,-0.706 -0.276,-0.066 -0.533,-0.05 -0.26,0.002 -0.466,0.05 l -4.014,0.93 2.389,10.31 z m 5.989,-1.583 -0.301,-2.715 2.209,-0.69 1.298,2.403 2.02,-0.631 -5.445,-9.387 -2.546,0.795 0.745,10.855 z m -0.798,-7.335 q -0.037,-0.402 -0.196,-1.195 l -0.053,-0.264 q -0.066,-0.26 -0.143,-0.695 l 0.027,-0.008 q 0.184,0.401 0.278,0.652 l 0.107,0.248 q 0.321,0.743 0.519,1.094 l 1.408,2.709 -1.616,0.505 z m 3.749,-4.794 -2.012,0.782 4.769,4.671 1.631,4.195 1.841,-0.716 -1.631,-4.195 0.4,-6.681 -2.012,0.782 -0.012,2.578 q -0.001,0.076 -0.007,0.215 -0.006,0.608 0.014,1.009 0.015,0.388 0.115,0.879 l -0.026,0.01 q -0.376,-0.656 -1.022,-1.344 z m 10.301,7.221 -0.669,-2.648 2.094,-0.985 1.614,2.204 1.915,-0.901 -6.676,-8.555 -2.413,1.135 2.22,10.652 z m -1.792,-7.157 q -0.092,-0.394 -0.357,-1.157 l -0.089,-0.255 q -0.101,-0.249 -0.237,-0.668 l 0.026,-0.012 q 0.237,0.372 0.364,0.608 l 0.14,0.231 q 0.419,0.692 0.664,1.013 l 1.765,2.491 -1.532,0.721 z"
       id="path286" />
  </g>
</svg>
