<?xml version="1.0" encoding="utf-8"?>
<!-- Generator: Adobe Illustrator 23.0.3, SVG Export Plug-In . SVG Version: 6.00 Build 0)  -->
<svg version="1.1" id="Layer_1" xmlns="http://www.w3.org/2000/svg" xmlns:xlink="http://www.w3.org/1999/xlink" x="0px" y="0px"
	 viewBox="0 0 320 320" style="enable-background:new 0 0 320 320;" xml:space="preserve">
<style type="text/css">
	.st0{fill:#50B848;}
	.st1{fill:#E9C31E;stroke:#9A6104;stroke-width:1.5;stroke-linecap:round;stroke-linejoin:round;}
	.st2{fill:#FFFFFF;}
	.st3{fill:#F15B5B;}
	.st4{fill:#39BB9D;}
	.st5{fill:#ED1C24;}
	.st6{fill:#FFFFFF;stroke:#000000;stroke-width:2;stroke-linecap:round;stroke-linejoin:round;}
	.st7{fill:#FFFFFF;stroke:#000000;}
	.st8{fill:#ED1C24;stroke:#000000;}
	.st9{fill:none;stroke:#000000;}
	.st10{fill:#5DA9DD;}
	.st11{fill:none;stroke:#9A6104;stroke-width:2;stroke-linecap:round;stroke-linejoin:round;}
</style>
<g>
	<path class="st0" d="M160.3,310c84.1-19.8,116.3-90.3,116.3-144.7s0-118.8,0-118.8C253.7,35.4,245.7,10,245.7,10H74.3
		c0,0-8,25.4-30.9,36.5c0,0,0,64.3,0,118.8S75.6,290.2,159.7,310H160.3z"/>
	<g>
		<g>
			<path class="st1" d="M215.1,154.8c-7.4-20-22.5-28.6-22.5-28.6c0.6-10,13.7-14.6,20.6-12.5c7,2.1,14.1,13.3,18.3,21.4
				c4.3,8.1,14.8,8,14.8,8l0,0c0,0-8,6.9-6,15.8c2,8.9,4,22,0.1,28.2c-3.9,6.2-16.8,11.2-23.8,4c0,0,5.8-16.3-1.6-36.3L215.1,154.8z
				"/>
			<path class="st1" d="M214.9,154.2c-2.2-5.9-7.5-13.7-7.5-13.7s3.7-6.6,9.6-7.1c5.9-0.5,12.1,5.1,14.9,8.8
				c2.9,3.8,7.4,3.5,7.4,3.5l0.1,0.2c0,0-3.6,2.8-3.3,7.5c0.3,4.7-0.7,13-5.5,16.4c-4.8,3.5-12,0.9-12,0.9s-1.1-9.4-3.3-15.3
				L214.9,154.2z"/>
		</g>
		<g>
			<path class="st1" d="M160.3,117.1c21.3,0,34.6,11.1,34.6,11.1c9.1-4,9-17.9,4.5-23.7c-4.4-5.8-17.4-8.6-26.5-9.7
				c-9.1-1.2-12.7-11.1-12.7-11.1h0c0,0-3.6,9.9-12.7,11.1c-9.1,1.2-22,3.9-26.5,9.7s-4.6,19.7,4.5,23.7c0,0,13.3-11.1,34.6-11.1
				H160.3z"/>
			<path class="st1" d="M160.9,117.1c6.3,0,15.4,2.3,15.4,2.3s4.9-5.8,3.3-11.5c-1.6-5.7-9-9.5-13.5-10.9c-4.5-1.4-5.9-5.7-5.9-5.7
				h-0.2c0,0-1.4,4.3-5.9,5.7c-4.5,1.4-11.9,5.2-13.5,10.9c-1.6,5.7,3.3,11.5,3.3,11.5s9.1-2.3,15.4-2.3L160.9,117.1L160.9,117.1z"
				/>
		</g>
		<g>
			<path class="st1" d="M104.9,154.8c7.4-20,22.5-28.6,22.5-28.6c-0.6-10-13.7-14.6-20.6-12.5c-7,2.1-14.1,13.3-18.3,21.4
				c-4.3,8.1-14.8,8-14.8,8l0,0c0,0,8,6.9,6,15.8c-2,8.9-4,22-0.1,28.2c3.9,6.2,16.8,11.2,23.8,4c0,0-5.8-16.3,1.6-36.3L104.9,154.8
				z"/>
			<path class="st1" d="M105.1,154.2c2.2-5.9,7.5-13.7,7.5-13.7s-3.7-6.6-9.6-7.1c-5.9-0.5-12.1,5.1-14.9,8.8
				c-2.9,3.8-7.4,3.5-7.4,3.5l-0.1,0.2c0,0,3.6,2.8,3.3,7.5c-0.3,4.7,0.7,13,5.5,16.4c4.8,3.5,12,0.9,12,0.9s1.1-9.4,3.3-15.3
				L105.1,154.2z"/>
		</g>
		<g>
			<path class="st1" d="M125.5,222.7c-17.1-12.7-21.2-29.5-21.2-29.5c-9.8-2.2-17.9,9.1-17.7,16.4c0.1,7.3,8.9,17.2,15.5,23.6
				c6.6,6.3,3.6,16.5,3.6,16.5l0,0c0,0,8.8-5.8,16.8-1.4c8,4.4,20,10,27.1,7.9c7-2,15.4-13.1,10.5-21.7
				C160,234.5,142.7,235.5,125.5,222.7L125.5,222.7z"/>
			<path class="st1" d="M125,222.4c-5.1-3.7-11.1-11-11.1-11s-7.4,1.7-9.5,7.3c-2.1,5.5,1.5,13,4.3,16.8c2.8,3.8,1.3,8.1,1.3,8.1
				l0.2,0.1c0,0,3.7-2.7,8.1-1.1c4.5,1.6,12.7,2.9,17.3-0.8c4.7-3.6,4.2-11.2,4.2-11.2s-8.7-3.6-13.8-7.4L125,222.4z"/>
		</g>
		<g>
			<path class="st1" d="M194.5,222.7c17.1-12.7,21.2-29.5,21.2-29.5c9.8-2.2,17.9,9.1,17.7,16.4c-0.1,7.3-8.9,17.2-15.5,23.6
				s-3.6,16.5-3.6,16.5l0,0c0,0-8.8-5.8-16.8-1.4c-8,4.4-20,10-27.1,7.9c-7-2-15.4-13.1-10.5-21.7
				C160,234.5,177.3,235.5,194.5,222.7L194.5,222.7z"/>
			<path class="st1" d="M195,222.4c5.1-3.7,11.1-11,11.1-11s7.4,1.7,9.5,7.3c2.1,5.5-1.5,13-4.3,16.8c-2.8,3.8-1.3,8.1-1.3,8.1
				l-0.2,0.1c0,0-3.7-2.7-8.1-1.1c-4.5,1.6-12.7,2.9-17.3-0.8c-4.7-3.6-4.2-11.2-4.2-11.2s8.7-3.6,13.8-7.4L195,222.4z"/>
		</g>
		<g>
			<g>
				<g>
					<g>
						<circle class="st1" cx="151.6" cy="117.2" r="8.5"/>
						<circle class="st1" cx="151.6" cy="117.2" r="5"/>
					</g>
					<g>
						<circle class="st1" cx="137.6" cy="121" r="8.5"/>
						<circle class="st1" cx="137.6" cy="121" r="5"/>
					</g>
					<g>
						<circle class="st1" cx="125.5" cy="127.7" r="8.5"/>
						<circle class="st1" cx="125.5" cy="127.7" r="5"/>
					</g>
					<g>
						<circle class="st1" cx="116.1" cy="136.9" r="8.5"/>
						<circle class="st1" cx="116.1" cy="136.9" r="5"/>
					</g>
					<g>
						<circle class="st1" cx="108.3" cy="148.7" r="8.5"/>
						<circle class="st1" cx="108.3" cy="148.7" r="5"/>
					</g>
					<g>
						<circle class="st1" cx="103.4" cy="161.2" r="8.5"/>
						<circle class="st1" cx="103.4" cy="161.2" r="5"/>
					</g>
					<g>
						<circle class="st1" cx="101.7" cy="175.2" r="8.5"/>
						<circle class="st1" cx="101.7" cy="175.2" r="5"/>
					</g>
				</g>
				<g>
					<g>
						<circle class="st1" cx="103" cy="189.1" r="8.5"/>
						<circle class="st1" cx="103" cy="189.1" r="5"/>
					</g>
					<g>
						<circle class="st1" cx="108" cy="202.7" r="8.5"/>
						<circle class="st1" cx="108" cy="202.7" r="5"/>
					</g>
					<g>
						<circle class="st1" cx="115.7" cy="214.2" r="8.5"/>
						<circle class="st1" cx="115.7" cy="214.2" r="5"/>
					</g>
					<g>
						<circle class="st1" cx="125.7" cy="222.8" r="8.5"/>
						<circle class="st1" cx="125.7" cy="222.8" r="5"/>
					</g>
					<g>
						<circle class="st1" cx="138.1" cy="229.5" r="8.5"/>
						<circle class="st1" cx="138.1" cy="229.5" r="5"/>
					</g>
					<g>
						<circle class="st1" cx="151" cy="233.4" r="8.5"/>
						<circle class="st1" cx="151" cy="233.4" r="5"/>
					</g>
				</g>
			</g>
			<g>
				<g>
					<g>
						<circle class="st1" cx="168.6" cy="233.4" r="8.5"/>
						<circle class="st1" cx="168.6" cy="233.4" r="5"/>
					</g>
					<g>
						<circle class="st1" cx="182.6" cy="229.5" r="8.5"/>
						<circle class="st1" cx="182.6" cy="229.5" r="5"/>
					</g>
					<g>
						<circle class="st1" cx="194.8" cy="222.9" r="8.5"/>
						<circle class="st1" cx="194.8" cy="222.9" r="5"/>
					</g>
					<g>
						<circle class="st1" cx="204.2" cy="213.6" r="8.5"/>
						<circle class="st1" cx="204.2" cy="213.6" r="5"/>
					</g>
					<g>
						<circle class="st1" cx="211.9" cy="201.8" r="8.5"/>
						<circle class="st1" cx="211.9" cy="201.8" r="5"/>
					</g>
					<g>
						<circle class="st1" cx="216.9" cy="189.3" r="8.5"/>
						<circle class="st1" cx="216.9" cy="189.3" r="5"/>
					</g>
					<g>
						<circle class="st1" cx="218.5" cy="175.3" r="8.5"/>
						<circle class="st1" cx="218.5" cy="175.3" r="5"/>
					</g>
				</g>
				<g>
					<g>
						<circle class="st1" cx="217.3" cy="161.5" r="8.5"/>
						<circle class="st1" cx="217.3" cy="161.5" r="5"/>
					</g>
					<g>
						<circle class="st1" cx="212.2" cy="147.9" r="8.5"/>
						<circle class="st1" cx="212.2" cy="147.9" r="5"/>
					</g>
					<g>
						<circle class="st1" cx="204.5" cy="136.3" r="8.5"/>
						<circle class="st1" cx="204.5" cy="136.3" r="5"/>
					</g>
					<g>
						<circle class="st1" cx="194.6" cy="127.7" r="8.5"/>
						<circle class="st1" cx="194.6" cy="127.7" r="5"/>
					</g>
					<g>
						<circle class="st1" cx="182.1" cy="121" r="8.5"/>
						<circle class="st1" cx="182.1" cy="121" r="5"/>
					</g>
					<g>
						<circle class="st1" cx="169.2" cy="117.2" r="8.5"/>
						<circle class="st1" cx="169.2" cy="117.2" r="5"/>
					</g>
				</g>
			</g>
		</g>
	</g>
	<path class="st2" d="M256.8,58.7c7.9,0,9.5-1.6,9.5-5.1s-4.1-5.9-4.1-5.9c1.1,1.1,1.1,2.8-0.4,4c-1.5,1.2-5.3-0.9-5.3-0.9
		s3.2-0.4,3.2-3.9c0-3.4-3-4.5-3-4.5s0.4,0.6,0.4,2.1c0.1,1.5-0.6,3.2-2.3,3.2s-3-2.2-3-2.2s1.5,0.4,2.1-0.4
		c0.6-0.8,0.9-2.7-0.1-4.7c-1-2-3.5-1.8-3.5-1.8s0.4,0.4,0.5,1.6c0.1,1.1-1.1,2.5-3.1,1.4c-1.9-1.1-0.7-5.5-1.4-7.3
		c-0.7-1.8-3.9-2.2-3.9-2.2s0.8,2,0.2,2.9c-0.6,0.9-2.7,0.4-3.8-1.2c-1.1-1.7,1.6-3.5-0.2-6s-4.5-2.5-4.5-2.5s0.4-0.2,1.4,1.3
		c1,1.5-0.5,4-2.5,2.5c-1.9-1.6-9.5-9.5-9.5-9.5s0.3-1.1-0.5-4s-5.8-2.6-5.8-2.6s1.3,0.9,1.8,2.7s-1.1,2.2-1.1,2.2h-17
		c0,0,1.1-1-0.3-2.8c-1.4-1.8-4.5-1.8-4.5-1.8s1.5,1.5,1.5,2.7c0,0.9-1,1.9-2.6,1.9c-3.7,0-13.7,0-13.7,0s1.1-1.8-0.3-3.1
		c-1.4-1.3-5.5-1.5-5.5-1.5s2.5,2.1,1.8,3.3s-2.1,1.2-2.1,1.2h-12.2c0,0-1-1.6-1.8-1.9c-0.9-0.3-1.7-2.2-1.7-2.2h0
		c0,0-0.8,1.9-1.7,2.2c-0.9,0.3-1.8,1.9-1.8,1.9h-12.2c0,0-1.4,0-2.1-1.2s1.8-3.3,1.8-3.3s-4.1,0.2-5.5,1.5s-0.3,3.1-0.3,3.1
		s-10,0-13.7,0c-1.6,0-2.6-0.9-2.6-1.9c0-1.3,1.5-2.7,1.5-2.7s-3.1-0.1-4.5,1.8c-1.4,1.8-0.3,2.8-0.3,2.8h-17c0,0-1.7-0.4-1.1-2.2
		s1.8-2.7,1.8-2.7s-4.9-0.3-5.8,2.6s-0.5,4-0.5,4s-7.5,8-9.5,9.5s-3.4-1-2.5-2.5c1-1.5,1.4-1.3,1.4-1.3s-2.7-0.1-4.5,2.5
		c-1.8,2.5,0.9,4.4-0.2,6c-1.1,1.7-3.2,2.1-3.8,1.2c-0.6-0.9,0.2-2.9,0.2-2.9s-3.2,0.4-3.9,2.2c-0.7,1.8,0.5,6.1-1.4,7.3
		c-1.9,1.1-3.2-0.3-3.1-1.4c0.1-1.1,0.5-1.6,0.5-1.6s-2.5-0.2-3.5,1.8c-1,2-0.7,3.9-0.1,4.7c0.6,0.8,2.1,0.4,2.1,0.4s-1.3,2.2-3,2.2
		s-2.4-1.7-2.3-3.2s0.4-2.1,0.4-2.1s-3,1.1-3,4.5c0,3.4,3.2,3.9,3.2,3.9s-3.9,2.1-5.3,0.9c-1.5-1.2-1.6-3-0.4-4c0,0-4.1,2.4-4.1,5.9
		s1.7,5.1,9.5,5.1H256.8z"/>
	<g>
		<rect x="142.1" y="29" class="st3" width="35.7" height="3.5"/>
		<rect x="144" y="24.6" class="st3" width="32" height="2.8"/>
		<g>
			<g>
				<rect x="89.7" y="29" class="st3" width="24.2" height="3.5"/>
				<rect x="115.3" y="29" class="st3" width="25.1" height="3.5"/>
				<rect x="93.7" y="24.6" class="st3" width="24.2" height="2.8"/>
				<rect x="119.4" y="24.6" class="st3" width="22.6" height="2.8"/>
				<rect x="98" y="20.2" class="st3" width="23.8" height="3.2"/>
				<rect x="123.6" y="20.2" class="st3" width="21.8" height="3.2"/>
			</g>
			<g>
				<rect x="206" y="29" class="st3" width="24.2" height="3.5"/>
				<rect x="179.6" y="29" class="st3" width="25.1" height="3.5"/>
				<rect x="202" y="24.6" class="st3" width="24.2" height="2.8"/>
				<rect x="178" y="24.6" class="st3" width="22.6" height="2.8"/>
				<rect x="198.2" y="20.2" class="st3" width="23.8" height="3.2"/>
				<rect x="174.7" y="20.2" class="st3" width="21.8" height="3.2"/>
			</g>
		</g>
		<rect x="147.4" y="20.2" class="st3" width="25.2" height="3.2"/>
		<g>
			<g>
				<rect x="65.6" y="51.5" class="st3" width="27.1" height="3.9"/>
				<rect x="94.4" y="51.5" class="st3" width="30.3" height="3.9"/>
				<rect x="126.5" y="51.5" class="st3" width="32.4" height="3.9"/>
				<rect x="71.2" y="46.4" class="st3" width="28.1" height="3.4"/>
				<rect x="100.9" y="46.4" class="st3" width="28.1" height="3.4"/>
				<rect x="130.8" y="46.4" class="st3" width="28.1" height="3.4"/>
				<rect x="77.1" y="42" class="st3" width="26" height="2.8"/>
				<rect x="104.7" y="42" class="st3" width="26.9" height="2.8"/>
				<rect x="133" y="42" class="st3" width="25.9" height="2.8"/>
				<rect x="80.7" y="38.1" class="st3" width="26.8" height="2.5"/>
				<rect x="108.9" y="38.1" class="st3" width="26.8" height="2.5"/>
				<rect x="137.3" y="38.1" class="st3" width="21.6" height="2.5"/>
				<rect x="85.1" y="34.2" class="st3" width="25.8" height="2.5"/>
				<rect x="112.7" y="34.2" class="st3" width="24.9" height="2.5"/>
				<rect x="140" y="34.2" class="st3" width="18.9" height="2.5"/>
			</g>
			<g>
				<rect x="227.3" y="51.5" class="st3" width="27.1" height="3.9"/>
				<rect x="195.3" y="51.5" class="st3" width="30.3" height="3.9"/>
				<rect x="161.1" y="51.5" class="st3" width="32.4" height="3.9"/>
				<rect x="220.7" y="46.4" class="st3" width="28.1" height="3.4"/>
				<rect x="190.9" y="46.4" class="st3" width="28.1" height="3.4"/>
				<rect x="161.1" y="46.4" class="st3" width="28.1" height="3.4"/>
				<rect x="216.9" y="42" class="st3" width="26" height="2.8"/>
				<rect x="188.4" y="42" class="st3" width="26.9" height="2.8"/>
				<rect x="161.1" y="42" class="st3" width="25.9" height="2.8"/>
				<rect x="212.6" y="38.1" class="st3" width="26.8" height="2.5"/>
				<rect x="184.3" y="38.1" class="st3" width="26.8" height="2.5"/>
				<rect x="161.1" y="38.1" class="st3" width="21.6" height="2.5"/>
				<rect x="209.1" y="34.2" class="st3" width="25.8" height="2.5"/>
				<rect x="182.4" y="34.2" class="st3" width="24.9" height="2.5"/>
				<rect x="161.1" y="34.2" class="st3" width="18.9" height="2.5"/>
			</g>
		</g>
	</g>
	<circle class="st2" cx="160" cy="175.4" r="58.3"/>
	<path class="st4" d="M102.3,184.3h115.1c0,0,1.5-11.2,0.4-15c0,0-12.2,0.4-22.9-4.2c-10.7-4.6-23.4-10.7-26.2-12.7
		c-2.8-2-2.7-3.4-5.2-2.5c-2.5,0.9-3.5,3.3-5.3,2.7c-1.8-0.6-2.9-2.6-5.2-2.2c-2.2,0.4-3.6,3.3-11.3,6c-7.6,2.7-15.3,6.1-19,7.4
		c-3.8,1.3-13.2,6.2-15.5,6.5c-2.4,0.2-5.4,0.8-5.4,0.8S101.6,181.3,102.3,184.3z"/>
	<g>
		<path class="st2" d="M149.1,154.3c0,0,2.2-3.7,4.4-3.7s2.8,2.6,5.6,2.2c2.7-0.4,2.7-3,5.3-2.8c2.6,0.2,6.7,4.9,6.7,4.9v-13h-21.9
			L149.1,154.3L149.1,154.3z"/>
		<path class="st5" d="M149.1,149.4c0,0,2.2-3.7,4.4-3.7s2.8,2.6,5.6,2.2c2.7-0.4,2.7-3,5.3-2.8c2.6,0.2,6.7,4.9,6.7,4.9v-8h-21.9
			L149.1,149.4L149.1,149.4z"/>
	</g>
	<g>
		<path class="st6" d="M143.3,132.2h4.8v-5.4c0-1.3-1.1-2.4-2.4-2.4c-1.3,0-2.4,1.1-2.4,2.4L143.3,132.2L143.3,132.2z"/>
		<path class="st6" d="M179.3,173.3l-2.1-41.2h-6.4v5.4h0v-3c0-1.3-1.1-2.4-2.4-2.4c-1.3,0-2.4,1.1-2.4,2.4v3h-6h-6v-3
			c0-1.3-1.1-2.4-2.4-2.4c-1.3,0-2.4,1.1-2.4,2.4v3h0v-5.4h-6.4l-2.1,41.2h-38.9c0,0-0.1,2.4,0.1,5.8c0.3,4.3,1.1,10.2,2.8,14h0.7
			v-2.8c0-2.8,2.5-5.2,5.6-5.2h5.7c3.1,0,5.6,2.3,5.6,5.2v2.8h5.8v-2.8c0-2.8,2.5-5.2,5.6-5.2h5.7c3.1,0,5.6,2.3,5.6,5.2v2.8h4.3
			v-14v-5.8V142H160h10.8v31.4v5.8v14h4.3v-2.8c0-2.8,2.5-5.2,5.6-5.2h5.7c3.1,0,5.6,2.3,5.6,5.2v2.8h5.8v-2.8
			c0-2.8,2.5-5.2,5.6-5.2h5.7c3.1,0,5.6,2.3,5.6,5.2v2.8h0.7c1.7-3.8,2.4-9.7,2.8-14c0.3-3.3,0-5.8,0-5.8H179.3z"/>
		<path class="st6" d="M171.9,132.2h4.8v-5.4c0-1.3-1.1-2.4-2.4-2.4c-1.3,0-2.4,1.1-2.4,2.4L171.9,132.2L171.9,132.2z"/>
	</g>
	<g>
		<g>
			<polygon class="st7" points="149.2,173.3 140.7,173.3 142.7,132.2 149.2,132.2 			"/>
			<g>
				<path class="st7" d="M101.8,179.1c0.3,4.3,1.1,10.2,2.8,14h0.7v-2.8c0-2.8,2.5-5.2,5.6-5.2h5.7c3.1,0,5.6,2.3,5.6,5.2v2.8h5.8
					v-2.8c0-2.8,2.5-5.2,5.6-5.2h5.7c3.1,0,5.6,2.3,5.6,5.2v2.8h4.3v-14H101.8z"/>
				<path class="st8" d="M149.2,173.3h-47.4c0,0-0.1,2.4,0.1,5.8h47.3V173.3z"/>
			</g>
			<line class="st9" x1="108.3" y1="173.3" x2="108.3" y2="179.1"/>
			<line class="st9" x1="116.1" y1="173.3" x2="116.1" y2="179.1"/>
			<line class="st9" x1="123.9" y1="173.3" x2="123.9" y2="179.1"/>
			<line class="st9" x1="131.6" y1="173.3" x2="131.6" y2="179.1"/>
			<line class="st9" x1="139.4" y1="173.3" x2="139.4" y2="179.1"/>
			<path class="st7" d="M148.1,132.2v-5.4c0-1.3-1.1-2.4-2.4-2.4c-1.3,0-2.4,1.1-2.4,2.4v5.4H148.1z"/>
			<line class="st9" x1="143.3" y1="128.1" x2="148.1" y2="128.1"/>
			<line class="st9" x1="143.3" y1="130.8" x2="148.1" y2="130.8"/>
			<line class="st9" x1="142.6" y1="133.7" x2="149.1" y2="133.7"/>
			<line class="st9" x1="142.3" y1="141.7" x2="149.1" y2="141.7"/>
			<line class="st9" x1="142" y1="148.4" x2="149.1" y2="148.4"/>
			<line class="st9" x1="141.6" y1="155.1" x2="149.1" y2="155.1"/>
			<line class="st9" x1="141.3" y1="161.8" x2="149.1" y2="161.8"/>
			<line class="st9" x1="140.9" y1="168.4" x2="149.1" y2="168.4"/>
			<g>
				<path class="st7" d="M154,137.6v-3c0-1.3-1.1-2.4-2.4-2.4c-1.3,0-2.4,1.1-2.4,2.4v3H154z"/>
				<rect x="149.1" y="137.6" class="st7" width="10.9" height="4.4"/>
			</g>
		</g>
		<g>
			<polygon class="st7" points="170.8,173.3 179.3,173.3 177.3,132.2 170.8,132.2 			"/>
			<g>
				<path class="st7" d="M218.2,179.1c-0.3,4.3-1.1,10.2-2.8,14h-0.7v-2.8c0-2.8-2.5-5.2-5.6-5.2h-5.7c-3.1,0-5.6,2.3-5.6,5.2v2.8
					H192v-2.8c0-2.8-2.5-5.2-5.6-5.2h-5.7c-3.1,0-5.6,2.3-5.6,5.2v2.8h-4.3v-14H218.2z"/>
				<path class="st8" d="M170.8,173.3h47.4c0,0,0.2,2.4,0,5.8h-47.3V173.3z"/>
			</g>
			<line class="st9" x1="211.7" y1="173.3" x2="211.7" y2="179.1"/>
			<line class="st9" x1="203.9" y1="173.3" x2="203.9" y2="179.1"/>
			<line class="st9" x1="196.1" y1="173.3" x2="196.1" y2="179.1"/>
			<line class="st9" x1="188.4" y1="173.3" x2="188.4" y2="179.1"/>
			<line class="st9" x1="180.6" y1="173.3" x2="180.6" y2="179.1"/>
			<path class="st7" d="M171.9,132.2v-5.4c0-1.3,1.1-2.4,2.4-2.4s2.4,1.1,2.4,2.4v5.4H171.9z"/>
			<line class="st9" x1="176.7" y1="128.1" x2="171.9" y2="128.1"/>
			<line class="st9" x1="176.7" y1="130.8" x2="171.9" y2="130.8"/>
			<line class="st9" x1="177.4" y1="133.7" x2="170.9" y2="133.7"/>
			<line class="st9" x1="177.7" y1="141.7" x2="170.9" y2="141.7"/>
			<line class="st9" x1="178" y1="148.4" x2="170.9" y2="148.4"/>
			<line class="st9" x1="178.4" y1="155.1" x2="170.9" y2="155.1"/>
			<line class="st9" x1="178.7" y1="161.8" x2="170.9" y2="161.8"/>
			<line class="st9" x1="179.1" y1="168.4" x2="170.9" y2="168.4"/>
			<g>
				<path class="st7" d="M166,137.6v-3c0-1.3,1.1-2.4,2.4-2.4c1.3,0,2.4,1.1,2.4,2.4v3H166z"/>
				<rect x="160" y="137.6" class="st7" width="10.9" height="4.4"/>
			</g>
		</g>
	</g>
	<g>
		<path class="st10" d="M106.9,196.9c0,0-1.1-4.9-0.1-7.5c1-2.6,4.2-0.9,5.9-0.7c0,0,3.3,0.4,4.8,0.1c1.5-0.3,3-0.3,3.4,0.7
			c0.4,1,0.5,4.1,0.5,4.1l1.8,1.8c0,0-0.2,1.8-1,2.6c-0.9,0.8-0.8,1.7-1.7,2.4c-0.9,0.6-1.7,1.4-1,3.6c0.7,2.2,0.6,3.5-0.4,5.5
			s-2,2.1-3,2c-1-0.1-3.5-2.6-5.4-5.9S107.2,198.9,106.9,196.9z"/>
		<path class="st10" d="M128.6,191.2c0-0.2,0.2-2.6,1.8-3.4c1.6-0.8,2.4,1.1,5.1,0c2.8-1.1,5.9-1.3,7.3,0.7c1.3,2,1.4,4.2,1.1,6.3
			c-0.3,2.1-1.6,5.6-3.6,7.1c-2,1.5-3,2-4.8,1.7c-1.8-0.2-3.2,0.1-4.3-1.7c-1.1-1.9-2-3.9-3.5-3.8c-1.5,0.1-3.1,0.1-2.6,1.3
			c0.5,1.1,2,1.8,0,2.2c-2,0.3-3.7-0.8-3.4-1.5c0.3-0.7,2-2.2,2-3.2c0-0.9,0.5-2.4,2.2-2.4S128.9,194.5,128.6,191.2z"/>
		<path class="st10" d="M145.2,194.2c0,0,2.2,0.4,3.5-0.1c1.3-0.5,1.9-0.8,2.1,0.5s-0.5,4.4-1.7,4.9s-2.1,1.2-2.9,0.6
			c-0.8-0.6-2.2-2.3-1.8-3.6S144.6,194.8,145.2,194.2z"/>
		<path class="st10" d="M150.2,191.7c-0.8-1-1-3.8,0-4.7c1-0.9,4.6,0.3,7,0.3c2.4,0,4.4-0.9,5.5-0.9s1.9,0.4,3.5,0.4
			c1.6,0,3.8,0.1,3.8,2c0,1.9-1.3,3-2.2,4.3c-0.9,1.3-2.5,3.5-1.8,5.2s3,4.3,2,4.7s-2.2-1.2-4.8-1.5s-5.2,1-7.3,1.3
			c-2,0.3-4.5-0.5-5.2-1.5c-0.7-1.1,0.2-2.7,0.6-4.8S150.9,192.7,150.2,191.7z"/>
		<path class="st10" d="M168,194.3c0,0,1.9-0.9,3.5-0.1c1.6,0.7,3.1,2.4,3.2,4.2c0.1,1.9-0.3,2.8-1.9,3c-1.6,0.2-4,0-5-1.1
			c-0.9-1.1-1.4-2-1-3.7S167.2,195,168,194.3z"/>
		<path class="st10" d="M175,195.8c-0.3-0.9-1.3-1.1-0.4-1.8c0.9-0.7,1.2-0.7,1.1-1.5c-0.1-0.8-1.1-4.2,0.9-4.4
			c2-0.1,4.4-0.1,6.7-0.3c2.2-0.3,6.4-0.4,7.2,1s0.7,2.7,0.7,4s-0.5,3.9-1.1,4.7c-0.5,0.8-3.2,2.6-3.2,4.1s-3.1-0.8-4,0.2
			c-0.9,1-2.8,3.4-4.9,1.4c-2.1-2-2.3-5.4-2.6-6.2C175.2,196.2,175,195.8,175,195.8z"/>
		<path class="st10" d="M198.1,193c-0.1-0.3-0.4-2.7,0.5-3.8c0.9-1.1,2.4-2.4,4.6-2.3c2.3,0.1,6,0.7,7.2,0.7s3.3,1.3,3.2,3.2
			c-0.1,1.9,0,5.1-0.9,7.1c-0.9,2-2.6,3.6-3.7,4s-1.7,0.8-1.7,2s-0.2,2.8-1.7,2.5c-1.5-0.3-1.5-2-3.4-4.1c-1.8-2.1-4.7-4.4-4.7-5.5
			S198.4,194.6,198.1,193z"/>
		<path class="st10" d="M191.8,194.4c0.4-0.4,3.4-0.7,4.4-0.2c0.9,0.5,1.7,3,0.9,4.6s-0.3,2.6-1.7,2.8s-3.4,0-3.8-0.9
			c-0.5-0.9-1.2-2.3-0.8-3.2S191.3,195,191.8,194.4z"/>
		<path class="st10" d="M201.1,203.5c1.1-0.4,4.4,2.7,4.4,4.8c0,2.2-0.6,3.7-2.2,3.3s-3.2-2.3-3.2-3.6S199.7,204,201.1,203.5z"/>
		<path class="st10" d="M188.8,203.4c0.8-0.8,6.2-1.3,7.7-0.7c1.5,0.5,4,8.2,3.6,11c-0.5,2.8-4.6,7.4-5.8,7.5
			c-1.2,0.1-3.8-0.1-3.4-2.4c0.5-2.3,2.4-5.3,0.1-6.7C188.8,210.9,186.8,205.4,188.8,203.4z"/>
		<path class="st10" d="M120.6,203.7c0.8-0.8,3.2-2.2,5.8-0.7c2.6,1.5,4.6,5.9,4.2,9.4c-0.3,3.5-1.7,6.7-3.4,7.3s-7.3-2.8-8.3-4.5
			c-1.1-1.7-1.4-3-0.1-4.2c1.3-1.2,2.4-1.8,2.1-3.8C120.6,205,119.9,204.3,120.6,203.7z"/>
		<path class="st10" d="M135,204.5c2,0.2,6.1,0.5,6.5,2.8c0.4,2.3-4.2,6.6-4,10.6s0.9,7.6,0,8.6c-0.9,1-2.3,0.7-3.5,0.1
			s-5.9-3.6-5-6.5c0.9-3,2.8-4.6,2.5-8.4c-0.3-3.8-0.9-5.5,0.1-6.3C132.5,204.7,133.3,204.3,135,204.5z"/>
		<path class="st10" d="M146.5,200.8c1.1,0,5,0.9,6.7,4.1c1.7,3.2-3.9,10.3-3.1,15.1c0.7,4.6,0.9,9.8-0.6,10.7s-5.7-0.1-7.1-2
			c-1.3-1.9-4.9-6.4-4.3-10.9s3.2-7.6,4.2-9.4c1-1.8,1.1-4.1,1.3-5.3C143.9,202,144.6,200.8,146.5,200.8z"/>
		<path class="st10" d="M162.9,202.4c-2.1-0.4-6.9,2.4-9.3,7.5c-2.4,5.1-2.6,7.1-2.2,11.8c0.5,4.6,2.7,9.7,6.2,10.8
			c3.5,1.1,7.4-0.5,9.3-5.1c1.9-4.6,1.1-8.2-1-11.8c-2.1-3.6-2.2-4.1-0.4-7.2S167,203.1,162.9,202.4z"/>
		<path class="st10" d="M170.3,202.6c2.8-1.2,7.5,4.5,8.6,8.3s-0.5,16.5-3.5,18.4s-6.2,3.4-7.3,2.4c-1.1-1.1-1.6-2.6-0.7-4.2
			c0.9-1.7,3.8-6.9,1-11.2c-2.8-4.2-3.1-6.2-1.9-8.9C167.8,204.6,168.1,203.6,170.3,202.6z"/>
		<path class="st10" d="M180.4,204.8c0,0-2.4,1-2,3.2s1.9,4.8,1.5,7.2c-0.3,2.4-0.9,10,0.3,11.5s5.3,0.5,7.5-2.2s3-7.1,3.4-8.5
			c0.4-1.4-1-3.5-2-4.7c-1-1.2-1.6-5.3-2.1-6.2s-2.5-2.9-3.8-2.2C182,203.6,180.8,204.3,180.4,204.8z"/>
	</g>
	<g>
		<path class="st2" d="M94.9,266.2l6.2-9.2l4.5,3c1,0.7,1.6,1.5,1.7,2.3c0.1,0.7,0,1.3-0.4,1.9c-0.4,0.6-0.8,0.9-1.3,1.1
			c-0.3,0.1-0.6,0.1-1.1,0c0.4,0.5,0.6,1.1,0.5,1.7c0,0.5-0.2,1-0.6,1.5c-0.2,0.4-0.5,0.7-0.9,0.9s-0.7,0.4-1.2,0.5
			c-0.5,0.1-0.9,0.1-1.3,0c-0.6-0.1-1.3-0.5-2.1-1.1L94.9,266.2z M99.4,263.4l-1.6,2.5l2.4,1.6c0.5,0.3,0.9,0.5,1.3,0.4
			c0.4-0.1,0.8-0.3,1.1-0.8c0.3-0.4,0.3-0.7,0.2-1.1c-0.1-0.4-0.4-0.7-0.8-0.9L99.4,263.4z M101.8,259.8l-1.3,2l2.3,1.5
			c0.4,0.3,0.8,0.4,1.1,0.4c0.4,0,0.7-0.2,0.9-0.5c0.2-0.4,0.3-0.7,0.1-1c-0.1-0.3-0.4-0.6-0.9-0.9L101.8,259.8z"/>
		<path class="st2" d="M117.2,266.3l-0.9,1.8l-5.3-2.6l-1,2.1l4.9,2.4l-0.9,1.8l-4.9-2.4l-1.3,2.6l5.5,2.7l-0.9,1.8l-7.6-3.7l4.9-10
			L117.2,266.3z"/>
		<path class="st2" d="M115,277.4l3.7-10.5l5.3,1.9c1,0.3,1.6,0.8,2,1.5c0.5,0.8,0.6,1.7,0.2,2.6c-0.2,0.6-0.5,1-1,1.4
			c-0.4,0.3-1,0.5-1.5,0.5c0.4,0.4,0.7,0.8,0.7,1.1c0.1,0.4,0,1.1-0.3,2c-0.3,0.8-0.5,1.4-0.5,1.6c0,0.3,0,0.5,0.2,0.6l-0.1,0.3
			l-2.4-0.9c0-0.3,0.1-0.6,0.1-0.9c0.1-0.3,0.2-0.7,0.4-1.3c0.3-0.8,0.4-1.3,0.3-1.6c-0.1-0.4-0.5-0.7-1.3-1l-2.3-0.8l-1.5,4.1
			L115,277.4z M119.3,272.3l2.6,0.9c0.6,0.2,1,0.3,1.4,0.1c0.3-0.1,0.6-0.4,0.8-1c0.1-0.4,0.1-0.7,0-1c-0.1-0.4-0.5-0.7-1.1-0.9
			l-2.7-1L119.3,272.3z"/>
		<path class="st2" d="M126.5,277.8l2.2,0.5c-0.1,0.4-0.1,0.8,0.1,1.2c0.3,0.5,0.9,0.9,1.7,1.1c0.6,0.2,1.2,0.2,1.6,0.1
			c0.5-0.1,0.9-0.4,1-1c0.1-0.4,0-0.7-0.3-1c-0.2-0.2-0.6-0.5-1.3-0.8l-1.1-0.5c-1.1-0.5-1.8-1-2.2-1.4c-0.6-0.7-0.8-1.5-0.5-2.6
			c0.2-0.8,0.6-1.5,1.3-1.9c0.9-0.6,2.1-0.8,3.7-0.4c1.5,0.4,2.5,1,3,2.1c0.4,0.8,0.5,1.6,0.3,2.5l-2.2-0.5c0.1-0.4,0-0.8-0.1-1.1
			c-0.3-0.5-0.8-0.9-1.7-1.1c-0.5-0.1-1-0.1-1.3,0c-0.5,0.1-0.8,0.4-0.9,0.9c-0.1,0.4,0,0.7,0.2,0.9c0.1,0.1,0.4,0.3,0.7,0.5
			l2.5,1.3c0.8,0.4,1.4,0.9,1.8,1.3c0.5,0.6,0.6,1.4,0.4,2.3c-0.3,1.1-0.8,1.9-1.7,2.3c-1,0.5-2.1,0.5-3.4,0.2
			c-1.8-0.4-2.9-1.2-3.5-2.2C126.4,279.5,126.3,278.7,126.5,277.8z"/>
		<path class="st2" d="M139.6,281.7l-1.1,2.2l-2.4-0.3l5.5-10.4l2.7,0.4l2.3,11.5l-2.5-0.3l-0.4-2.4L139.6,281.7z M140.5,279.9
			l2.8,0.4l-0.8-4.5L140.5,279.9z"/>
		<path class="st2" d="M153.8,276.2l-0.5,9.1l-2.3-0.1l0.5-9.1l-3.4-0.2l0.1-2l9,0.5l-0.1,2L153.8,276.2z"/>
		<path class="st2" d="M167.1,274.2l0.2,7.2c0,1.4-0.3,2.5-1.1,3.2c-0.8,0.7-1.9,1.1-3.3,1.1c-0.6,0-1.2,0-1.8-0.2
			c-0.7-0.2-1.3-0.6-1.8-1c-0.6-0.6-0.9-1.5-1-2.7l-0.2-7.4l2.4-0.1l0.2,7.2c0,0.7,0.2,1.3,0.6,1.6c0.4,0.4,0.9,0.5,1.4,0.5
			c0.8,0,1.3-0.2,1.7-0.6c0.3-0.4,0.5-0.9,0.5-1.6l-0.2-7.3L167.1,274.2z"/>
		<path class="st2" d="M178,274.7l1.5,9l-2.3,0.4l-1.5-9l-3.3,0.5l-0.3-1.9l8.9-1.5l0.3,1.9L178,274.7z"/>
		<path class="st2" d="M189.8,270l0.5,1.9l-5.7,1.5l0.6,2.3l5.2-1.4l0.5,1.9l-5.2,1.4l0.7,2.8l6-1.6l0.5,1.9l-8.2,2.1l-2.8-10.7
			L189.8,270z"/>
		<path class="st2" d="M198.8,274.2l-0.7-1.7l4.3-1.7l2.1,5.6l-1.4,0.6l-0.7-1.2c-0.2,0.6-0.5,1.1-0.7,1.4c-0.4,0.6-1.1,1-1.9,1.4
			c-1.3,0.5-2.6,0.5-3.8-0.1c-1.3-0.6-2.3-1.8-3-3.5c-0.6-1.5-0.7-3-0.2-4.3c0.5-1.5,1.6-2.5,3.2-3.2c1.4-0.6,2.8-0.6,3.9-0.1
			c1,0.4,1.6,1,2,1.9l-2.2,0.8c-0.1-0.3-0.4-0.6-0.9-0.8c-0.7-0.3-1.3-0.3-2-0.1c-0.8,0.3-1.4,0.9-1.7,1.7c-0.4,0.9-0.3,2,0.2,3.2
			c0.5,1.3,1.2,2.1,2,2.5c0.7,0.3,1.5,0.3,2.3-0.1c0.5-0.2,0.8-0.4,1.1-0.8c0.5-0.6,0.7-1.4,0.5-2.4L198.8,274.2z"/>
		<path class="st2" d="M210,261.1l3.4,6.4c0.7,1.3,0.8,2.4,0.4,3.4c-0.4,0.9-1.2,1.8-2.5,2.4c-0.6,0.3-1.1,0.5-1.7,0.6
			c-0.7,0.1-1.4,0.1-2.1-0.2c-0.8-0.3-1.5-1-2-2l-3.4-6.5l2.1-1.1l3.3,6.4c0.3,0.6,0.8,1.1,1.3,1.2c0.5,0.2,1,0.1,1.5-0.2
			c0.7-0.4,1.1-0.8,1.3-1.3c0.2-0.5,0.1-1-0.3-1.6l-3.4-6.5L210,261.1z"/>
		<path class="st2" d="M220.4,261.5l-3.5,2.5l2.9,4.1l-1.9,1.3l-6.4-9.1l1.9-1.3l2.4,3.4l3.5-2.5l-2.4-3.4l1.9-1.3l6.4,9.1l-1.9,1.3
			L220.4,261.5z"/>
	</g>
	<g>
		<path class="st2" d="M56.9,77.7h2.9c0,0.7,0.2,1.3,0.5,1.8c0.5,0.7,1.3,1.1,2.5,1.1c0.8,0,1.5-0.1,2-0.4c0.6-0.4,0.9-1,0.9-1.9
			c0-0.6-0.2-1.1-0.7-1.5c-0.3-0.2-0.9-0.5-1.9-0.7l-1.5-0.4c-1.5-0.4-2.6-0.9-3.1-1.4c-0.9-0.8-1.4-2.1-1.4-3.8
			c0-1.4,0.3-2.5,1-3.5c0.9-1.3,2.4-2,4.5-2c1.9,0,3.4,0.7,4.4,2.1c0.8,1.1,1.1,2.3,1.1,3.7h-2.8c-0.1-0.7-0.2-1.3-0.5-1.6
			c-0.5-0.7-1.3-1-2.4-1c-0.7,0-1.2,0.1-1.7,0.4c-0.5,0.4-0.8,0.9-0.8,1.7c0,0.6,0.2,1.1,0.5,1.4c0.2,0.2,0.5,0.3,1,0.5l3.5,1.1
			c1.2,0.4,2,0.8,2.6,1.4c0.8,0.8,1.1,1.9,1.1,3.4c0,1.8-0.5,3.2-1.4,4.2c-1,1.1-2.4,1.6-4.2,1.6c-2.3,0-4-0.7-5-2.1
			C57.3,80.5,56.9,79.3,56.9,77.7z"/>
		<path class="st2" d="M82.3,65.4V77c0,2.3-0.5,4-1.6,5.1c-1,1.1-2.4,1.6-4.3,1.6c-0.8,0-1.6-0.1-2.3-0.4c-0.9-0.4-1.7-0.9-2.3-1.8
			c-0.7-1-1.1-2.5-1.1-4.3V65.4h3V77c0,1.2,0.2,2.1,0.7,2.7c0.5,0.6,1.1,0.9,1.8,0.9c1,0,1.7-0.3,2.2-0.9c0.5-0.6,0.7-1.4,0.7-2.5
			V65.4L82.3,65.4L82.3,65.4z"/>
		<path class="st2" d="M98.8,65.4v17.8H96V68.4l-2.7,14.8h-2.9l-2.6-14.8l0,14.8H85V65.4h4.3l2.6,14l2.6-14H98.8z"/>
		<path class="st2" d="M104.7,79.5l-1,3.7h-3.1l5.1-17.8h3.4l5,17.8h-3.2l-0.9-3.7H104.7z M105.5,76.5h3.6l-1.8-7L105.5,76.5z"/>
		<path class="st2" d="M122,68.6v14.6h-3V68.6h-4.3v-3.1h11.6v3.1H122z"/>
		<path class="st2" d="M138.5,65.4v3.1h-7.5v3.7h6.9v3.1h-6.9v4.6h7.9v3.1H128V65.4L138.5,65.4L138.5,65.4z"/>
		<path class="st2" d="M141.2,83.2V65.4h7.2c1.3,0,2.3,0.4,3.1,1.2c0.9,1,1.4,2.2,1.4,3.9c0,1-0.2,1.9-0.6,2.6
			c-0.4,0.8-0.9,1.3-1.6,1.6c0.7,0.4,1.1,0.8,1.3,1.2c0.3,0.6,0.5,1.7,0.5,3.3c0,1.4,0,2.3,0.1,2.7c0.1,0.4,0.2,0.7,0.5,0.8v0.5
			h-3.3c-0.1-0.5-0.2-1-0.2-1.5c-0.1-0.5-0.1-1.2-0.1-2.1c0-1.4-0.1-2.2-0.3-2.6c-0.3-0.5-1-0.8-2-0.8h-3.1v7H141.2z M144.2,73.2
			h3.5c0.8,0,1.4-0.2,1.7-0.6s0.6-1,0.6-1.9c0-0.6-0.1-1.1-0.4-1.5c-0.4-0.5-0.9-0.8-1.7-0.8h-3.7V73.2z"/>
		<path class="st2" d="M158.5,79.5l-1,3.7h-3.1l5.1-17.8h3.4l5,17.8h-3.2l-0.9-3.7H158.5z M159.3,76.5h3.6l-1.8-7L159.3,76.5z"/>
		<path class="st2" d="M174.6,77.7h2.9c0,0.7,0.2,1.3,0.5,1.8c0.5,0.7,1.3,1.1,2.5,1.1c0.8,0,1.5-0.1,2-0.4c0.6-0.4,0.9-1,0.9-1.9
			c0-0.6-0.2-1.1-0.7-1.5c-0.3-0.2-0.9-0.5-1.9-0.7l-1.5-0.4c-1.5-0.4-2.6-0.9-3.1-1.4c-0.9-0.8-1.4-2.1-1.4-3.8
			c0-1.4,0.3-2.5,1-3.5c0.9-1.3,2.4-2,4.5-2c1.9,0,3.4,0.7,4.4,2.1c0.8,1.1,1.1,2.3,1.1,3.7H183c-0.1-0.7-0.2-1.3-0.5-1.6
			c-0.5-0.7-1.3-1-2.4-1c-0.7,0-1.2,0.1-1.7,0.4c-0.5,0.4-0.8,0.9-0.8,1.7c0,0.6,0.2,1.1,0.5,1.4c0.2,0.2,0.5,0.3,1,0.5l3.5,1.1
			c1.2,0.4,2,0.8,2.6,1.4c0.8,0.8,1.1,1.9,1.1,3.4c0,1.8-0.5,3.2-1.4,4.2c-1,1.1-2.4,1.6-4.2,1.6c-2.3,0-4-0.7-5-2.1
			C175,80.5,174.6,79.3,174.6,77.7z"/>
		<path class="st2" d="M199,65.4v3.1h-7.5v3.7h6.9v3.1h-6.9v4.6h7.9v3.1h-10.8V65.4L199,65.4L199,65.4z"/>
		<path class="st2" d="M204.7,65.4V80h7.1v3.2h-10V65.4H204.7z"/>
		<path class="st2" d="M216.8,79.5l-1,3.7h-3.1l5.1-17.8h3.4l5,17.8H223l-0.9-3.7H216.8z M217.6,76.5h3.6l-1.8-7L217.6,76.5z"/>
		<path class="st2" d="M233.1,68.6v14.6h-3V68.6h-4.3v-3.1h11.6v3.1H233.1z"/>
		<path class="st2" d="M240.3,79.5l-1,3.7h-3.1l5.1-17.8h3.4l5,17.8h-3.2l-0.9-3.7H240.3z M241.1,76.5h3.6l-1.8-7L241.1,76.5z"/>
		<path class="st2" d="M260.3,65.4h2.8v17.8h-3l-5.8-12.7l0,12.7h-2.8V65.4l3.1,0l5.6,12.4L260.3,65.4z"/>
	</g>
	<circle class="st11" cx="160" cy="175.4" r="58.3"/>
</g>
</svg>
