<?xml version="1.0" encoding="utf-8"?>
<!-- Generator: Adobe Illustrator 23.0.3, SVG Export Plug-In . SVG Version: 6.00 Build 0)  -->
<svg version="1.1" id="Layer_1" xmlns="http://www.w3.org/2000/svg" xmlns:xlink="http://www.w3.org/1999/xlink" x="0px" y="0px"
	 viewBox="0 0 320 320" style="enable-background:new 0 0 320 320;" xml:space="preserve">
<style type="text/css">
	.st0{fill:none;}
	.st1{fill:#FCCD00;}
	.st2{fill:url(#path97_1_);}
	.st3{opacity:0.994;fill-rule:evenodd;clip-rule:evenodd;fill:#008B46;enable-background:new    ;}
	.st4{fill:none;stroke:#C8A300;stroke-width:1.165;}
	.st5{fill:#FFFFFF;}
	.st6{fill:#FCCD00;stroke:#C8A300;stroke-width:1.165;}
	.st7{opacity:0.994;fill-rule:evenodd;clip-rule:evenodd;fill:#FF7005;enable-background:new    ;}
	.st8{opacity:0.994;fill-rule:evenodd;clip-rule:evenodd;fill:#FF8A33;enable-background:new    ;}
	.st9{opacity:0.994;fill-rule:evenodd;clip-rule:evenodd;fill:#FFAF75;enable-background:new    ;}
	.st10{opacity:0.998;fill:#727272;enable-background:new    ;}
	.st11{fill:url(#S_1_);}
	.st12{opacity:0.998;fill:#1D1D1D;stroke:#000000;stroke-width:0.265;enable-background:new    ;}
	.st13{fill:url(#T_1_);stroke:#000000;stroke-width:0.265;}
	.st14{opacity:0.998;}
	.st15{fill:#353535;}
	.st16{fill:url(#SVGID_1_);}
	.st17{fill:url(#SVGID_2_);stroke:#000000;stroke-width:0.265;}
	.st18{fill:#00974B;stroke:#006B34;stroke-width:0.265;}
	.st19{fill:#006B34;}
	.st20{opacity:0.998;fill:#FCCD00;stroke:#9F8200;stroke-width:0.565;enable-background:new    ;}
	.st21{fill:#9F8200;}
	
		.st22{opacity:0.994;fill-rule:evenodd;clip-rule:evenodd;fill:#FCCD00;stroke:#918600;stroke-width:0.565;enable-background:new    ;}
	
		.st23{opacity:0.994;fill-rule:evenodd;clip-rule:evenodd;fill:#9F8200;stroke:#918600;stroke-width:0.565;enable-background:new    ;}
	.st24{opacity:0.994;fill:none;stroke:#918600;stroke-width:0.565;stroke-linecap:round;enable-background:new    ;}
	.st25{opacity:0.994;fill:none;stroke:#918600;stroke-width:0.965;stroke-miterlimit:2;enable-background:new    ;}
	
		.st26{opacity:0.994;fill-rule:evenodd;clip-rule:evenodd;fill:url(#path185_1_);stroke:#918600;stroke-width:2.135;enable-background:new    ;}
	.st27{opacity:0.994;fill-rule:evenodd;clip-rule:evenodd;fill:#918600;enable-background:new    ;}
	.st28{fill:#918600;}
	.st29{fill:#FCCD00;stroke:#918600;stroke-width:0.265;}
	.st30{fill:#6A1A4B;}
	
		.st31{opacity:0.994;fill-rule:evenodd;clip-rule:evenodd;fill:url(#path223_1_);stroke:#6A1A4B;stroke-width:1.079;stroke-linejoin:bevel;enable-background:new    ;}
	.st32{fill:url(#path225_1_);}
	.st33{fill:url(#path227_1_);}
	.st34{fill:url(#path229_1_);}
	.st35{fill:url(#path231_1_);}
	.st36{fill:#7C1E58;}
	.st37{fill:url(#path253_1_);}
	.st38{fill:#86205F;}
	.st39{opacity:0.999;fill:#86205F;enable-background:new    ;}
	.st40{opacity:0.999;fill:url(#path295_1_);stroke:#9F8200;stroke-width:0.794;stroke-miterlimit:2.8;enable-background:new    ;}
	.st41{opacity:0.999;fill:#6B5700;stroke:#9F8200;stroke-width:0.794;stroke-miterlimit:2.8;enable-background:new    ;}
	.st42{opacity:0.999;fill:url(#path299_1_);stroke:#9F8200;stroke-width:0.794;stroke-miterlimit:2.8;enable-background:new    ;}
	.st43{opacity:0.999;fill:url(#path303_1_);stroke:#9F8200;stroke-width:0.794;stroke-miterlimit:2.8;enable-background:new    ;}
	.st44{fill-rule:evenodd;clip-rule:evenodd;}
	.st45{opacity:0.998;fill:#3A5830;stroke:#293E22;stroke-width:0.265;enable-background:new    ;}
	.st46{opacity:0.998;fill:#00974B;stroke:#006B34;stroke-width:0.803;enable-background:new    ;}
	.st47{opacity:0.998;fill:none;stroke:#006B34;stroke-width:0.5;enable-background:new    ;}
	.st48{opacity:0.998;fill:none;stroke:#006B34;stroke-width:0.265;enable-background:new    ;}
	.st49{opacity:0.998;fill:#00974B;stroke:#006B34;stroke-width:0.797;enable-background:new    ;}
	.st50{opacity:0.998;fill:none;stroke:#006B34;stroke-width:0.263;enable-background:new    ;}
	.st51{opacity:0.998;fill:#00974B;stroke:#006B34;stroke-width:0.769;enable-background:new    ;}
	.st52{opacity:0.998;fill:none;stroke:#006B34;stroke-width:0.254;enable-background:new    ;}
	.st53{fill:none;stroke:#006B34;stroke-width:0.5;}
	.st54{fill:none;stroke:#006B34;stroke-width:0.265;}
	.st55{fill:none;stroke:#006B34;stroke-width:0.479;}
	.st56{fill:none;stroke:#006B34;stroke-width:0.254;}
	
		.st57{opacity:0.992;fill-rule:evenodd;clip-rule:evenodd;fill:#D42229;stroke:#AB1B21;stroke-width:0.5;enable-background:new    ;}
	.st58{fill:#E87175;}
	.st59{fill-rule:evenodd;clip-rule:evenodd;fill:#D42229;stroke:#AB1B21;stroke-width:0.321;}
	.st60{opacity:0.994;fill:#E87175;enable-background:new    ;}
	
		.st61{opacity:0.999;fill-rule:evenodd;clip-rule:evenodd;fill:#7C7630;stroke:#585422;stroke-width:0.465;enable-background:new    ;}
	.st62{opacity:0.999;fill-rule:evenodd;clip-rule:evenodd;fill:#B8AF48;enable-background:new    ;}
	.st63{opacity:0.994;fill:#FFFFFF;stroke:#000000;stroke-width:0.1;enable-background:new    ;}
	.st64{opacity:0.994;fill:#FFFFFF;stroke:#000000;stroke-width:9.900000e-02;enable-background:new    ;}
	.st65{fill:#FFFFFF;stroke:#000000;stroke-width:0.1;}
	.st66{opacity:0.994;fill:#FFFFFF;stroke:#000000;stroke-width:0.149;enable-background:new    ;}
	.st67{opacity:0.994;fill:#FFFFFF;stroke:#000000;stroke-width:0.114;enable-background:new    ;}
	.st68{opacity:0.994;fill:#FFFFFF;stroke:#000000;stroke-width:0.133;enable-background:new    ;}
	.st69{opacity:0.994;fill:#FFFFFF;stroke:#000000;stroke-width:0.141;enable-background:new    ;}
	.st70{opacity:0.994;fill:#FFFFFF;stroke:#000000;stroke-width:0.135;enable-background:new    ;}
	.st71{opacity:0.994;fill:#FFFFFF;stroke:#000000;stroke-width:0.14;enable-background:new    ;}
</style>
<pattern  x="-800" y="-80" width="516.3" height="651.7" patternUnits="userSpaceOnUse" id="A" viewBox="0 -651.7 516.3 651.7" style="overflow:visible;">
	<g>
		<rect y="-651.7" class="st0" width="516.3" height="651.7"/>
	</g>
</pattern>
<g>
	<g id="g2083">
		<path id="path95" class="st1" d="M41.2,10v188.6c0,1,0.2,1.9,0.5,2.8c14,34,39.7,75.3,115.4,108c1.8,0.8,3.9,0.8,5.8,0
			c75.7-32.7,101.4-74,115.4-108c0.4-0.9,0.6-1.8,0.5-2.8V10H41.2z"/>
		<pattern  id="path97_1_" xlink:href="#A" patternTransform="matrix(0.5883 0 0 -0.5794 -1736.912 -12176.1943)">
		</pattern>
		<path id="path97" class="st2" d="M48.4,142.6v56.1c13.7,33.1,37.4,72.1,111.6,104.1c74.2-32,97.9-71,111.6-104.1l1-56.1H160H48.4z
			"/>
		<path id="path99" class="st3" d="M47.4,16.3h225.1v126.3H47.4V16.3z"/>
		<path id="path101" class="st4" d="M48.4,17.3v181.3c13.7,33.1,37.4,72.1,111.6,104.1c74.2-32,97.9-71,111.6-104.1V17.3H160H48.4z"
			/>
		<path id="path103" class="st5" d="M82.6,49v140.1c10.9,25,25.6,48.7,77.4,73.7c51.8-25,66.6-48.7,77.4-73.7V49H160H82.6z"/>
		<path id="path105" class="st6" d="M77.8,44.2v145.9c11.2,26.1,27.3,51.9,82.2,78c54.9-26,71-51.9,82.2-78V44.2H160H77.8z M82.6,49
			H160h77.4v140.1c-10.9,25-25.6,48.7-77.4,73.7c-51.8-25-66.6-48.7-77.4-73.7V49z"/>
	</g>
	<g id="g113">
		<path id="path107" class="st7" d="M160,51.4l-3.3,10h-10.5l8.5,6.2l-3.3,10l8.5-6.2l8.5,6.2l-3.3-10l8.5-6.2h-10.5L160,51.4z"/>
		<path id="path109" class="st8" d="M160,53.3l-2.8,8.7H148l7.4,5.4l-2.8,8.7l7.4-5.4l7.4,5.4l-2.8-8.7L172,62h-9.2L160,53.3z"/>
		<path id="path111" class="st9" d="M160,53.3l-2.8,8.7l2.8,3.9L148,62l7.4,5.4l4.6-1.5l-7.4,10.2l7.4-5.4v-4.8l7.4,10.2l-2.8-8.7
			l-4.6-1.5l12-3.9h-9.2l-2.8,3.9V53.3z"/>
	</g>
	<g id="g1597">
		<path id="path115" class="st10" d="M193.5,114l8.5,2.8l-0.4,0.3c-16.2,9.3-32.4,16.7-48.6,21.6l-0.2,0.1l-1.3-2.2l0.2-0.1
			C162.4,131.4,178.4,122.3,193.5,114L193.5,114z"/>
		<g id="use117" transform="matrix(-1 0 0 1 -2.775756 -47.687)">
			
				<linearGradient id="S_1_" gradientUnits="userSpaceOnUse" x1="-984.4594" y1="858.3527" x2="-977.6669" y2="851.3089" gradientTransform="matrix(-5.4174 0 0 -2.6368 -5137.9863 2380.2446)">
				<stop  offset="0" style="stop-color:#EAEAEA"/>
				<stop  offset="1" style="stop-color:#E0B600"/>
			</linearGradient>
			<path id="S" class="st11" d="M201.4,116.9c-16.2,9.2-32.4,16.7-48.6,21.5l-1.1-1.8c10.8-5,26.8-14.1,41.8-22.4L201.4,116.9z"/>
		</g>
		<g id="g123">
			<path id="path119" class="st12" d="M152.8,138.4l-1.1-1.8l-2.2,0.9l1,2.1L152.8,138.4z"/>
			<g id="use121" transform="matrix(-1 0 0 1 -2.775756 -47.687)">
				
					<linearGradient id="T_1_" gradientUnits="userSpaceOnUse" x1="-1053.0781" y1="895.3021" x2="-1048.3029" y2="893.2913" gradientTransform="matrix(-3.7795 0 0 -3.7795 -3829.3311 3524.0698)">
					<stop  offset="0" style="stop-color:#1D1D1D"/>
					<stop  offset="1" style="stop-color:#1D1D1D;stop-opacity:0"/>
				</linearGradient>
				<path id="T" class="st13" d="M150.5,139.5l-1-2.1c-3.3,1.1-10.2,1.4-11.1,6.9c0,2.8,5.6,5.4,6.7,1.2c0.1-2.1-0.8-3.2-2.4-2.3
					L150.5,139.5z"/>
			</g>
		</g>
		<g id="g133" transform="matrix(-1 0 0 1 -2.775756 -47.687)" class="st14">
			<path id="path125" class="st15" d="M-154.3,184.8l-0.6,1c0.6-0.4,1.2-0.5,2-0.5L-154.3,184.8z"/>
			<g id="use127">
				<path id="U" class="st15" d="M-151.9,185.9l-0.3,0.6c4,1,7.1,2.3,9.5,3.7C-143.2,189.3-145.6,187.9-151.9,185.9L-151.9,185.9z"
					/>
			</g>
			<g id="use129">
				<path id="V" class="st15" d="M-145.5,191.4c-4.7,2.2,1.8,5.7,3.3,0.6C-144.2,196.2-148.3,192.8-145.5,191.4z"/>
			</g>
			<g id="use131">
				<path id="W" class="st15" d="M-147.5,189.1c1.6,0.1,5.5,1.4,3.2,4.3C-143.4,191.6-145.7,189.8-147.5,189.1z"/>
			</g>
		</g>
		<path id="path135" class="st10" d="M126.5,114l-8.5,2.8l0.4,0.3c16.2,9.3,32.4,16.7,48.6,21.6l0.2,0.1l1.3-2.2l-0.2-0.1
			C157.6,131.4,141.6,122.3,126.5,114L126.5,114z"/>
		<g id="use137" transform="translate(139.385 -47.687)">
			
				<linearGradient id="SVGID_1_" gradientUnits="userSpaceOnUse" x1="-725.7218" y1="858.3527" x2="-718.9293" y2="851.3089" gradientTransform="matrix(5.4174 0 0 -2.6368 4056.3044 2380.2446)">
				<stop  offset="0" style="stop-color:#EAEAEA"/>
				<stop  offset="1" style="stop-color:#E0B600"/>
			</linearGradient>
			<path class="st16" d="M118.6,116.9c16.2,9.2,32.4,16.7,48.6,21.5l1.1-1.8c-10.8-5-26.8-14.1-41.8-22.4L118.6,116.9z"/>
		</g>
		<g id="g143">
			<path id="path139" class="st12" d="M167.2,138.4l1.1-1.8l2.2,0.9l-1,2.1L167.2,138.4z"/>
			<g id="use141" transform="translate(139.385 -47.687)">
				
					<linearGradient id="SVGID_2_" gradientUnits="userSpaceOnUse" x1="-682.216" y1="895.3021" x2="-677.4407" y2="893.2913" gradientTransform="matrix(3.7795 0 0 -3.7795 2747.6489 3524.0698)">
					<stop  offset="0" style="stop-color:#1D1D1D"/>
					<stop  offset="1" style="stop-color:#1D1D1D;stop-opacity:0"/>
				</linearGradient>
				<path class="st17" d="M169.5,139.5l1-2.1c3.3,1.1,10.2,1.4,11.1,6.9c0,2.8-5.6,5.4-6.7,1.2c-0.1-2.1,0.8-3.2,2.4-2.3
					L169.5,139.5z"/>
			</g>
		</g>
		<g id="g153" class="st14">
			<path id="path145" class="st15" d="M168.5,137.1l-0.6,1c0.6-0.4,1.2-0.5,2-0.5L168.5,137.1z"/>
			<g id="use147">
				<path class="st15" d="M170.9,138.3l-0.3,0.6c4,1,7.1,2.3,9.5,3.7C179.6,141.6,177.2,140.3,170.9,138.3L170.9,138.3z"/>
			</g>
			<g id="use149">
				<path class="st15" d="M177.3,143.7c-4.7,2.2,1.8,5.7,3.3,0.6C178.6,148.5,174.4,145.1,177.3,143.7z"/>
			</g>
			<g id="use151">
				<path class="st15" d="M175.2,141.4c1.6,0.1,5.5,1.4,3.2,4.3C179.4,143.9,177.1,142.1,175.2,141.4z"/>
			</g>
		</g>
	</g>
	<g id="g1536">
		<path id="path155" class="st18" d="M92.4,179.5l7.3,18.5l-2.2-9.8c26.7,30.4,46.2,29.4,65.1,25.7c-18.9-10.8-30.2-31.3-42.2-51
			c5.4,15.1,12.4,33,30.3,48C119.1,204.9,105.6,189.2,92.4,179.5L92.4,179.5z"/>
		<path id="path157" class="st19" d="M130.2,181.2c6.3,10.1,8.6,19.1,27.6,32.5C140.9,199.5,137.1,191.1,130.2,181.2L130.2,181.2z
			 M157.8,213.7c-31.6-3-44.5-16.3-60.8-28.9C114.6,202.6,127.9,211.8,157.8,213.7z"/>
		<g id="g1529">
			<path id="path161" class="st20" d="M116.5,82.2L107,93.6c4.7-4.4,8.2-11,15.8-10.3l6.9-4.5l-6.6,4.9c-1,3.8-3.7,11.8-13.6,10.1
				l-4.6,3.3l-4.1,10.7c2.2-3,3.6-9.2,13.4-10.8l5.2-4.2c-1.7,1.4-4.4,3.6-4.4,6.1c-0.2,8.7-10.2,12.4-14.5,11.7l-1,10.7
				c0.5-5.6,4.7-10.7,9.3-11c1.1-0.1,2.3-1.4,4.3-3.3c-2,2.7-3.6,3.9-3.7,4.4c-0.5,4.3,1.6,7.9-10.4,15.5L98.6,141
				c0.2-5.7-1.2-11.2,9.9-18.6c-1.7,7.6,0.9,17.6-9.5,20.4l3,15.9c1-7-2.9-13.4,5.8-19.8c1.6-1.2,1.1-4.1,1.6-6.3
				c-0.3,2.3,1.6,4.5-1.1,6.8c4.4,11.1-1,15.7-4,22l5.9,11.7c-3.9-4.8-3.9-12.7-0.4-16.2c1.7-1.7,1.4-3.9,1.6-9
				c0.4,4.7-0.3,6.5,0.9,8.5c2.6,4.1,5.6,9.3,0.2,20.8l10.5,11.8c-1.3-2.8-10.4-9.1-5.4-26.2c3.3,10.1,12,16.3,7,28.5
				c14.6,16.3,51,25.6,67.7,28.3c0.6,0.9-0.5,3.7-6.8,3c-31.7-8-56.5-19.6-68.6-34c-11.8,4.5-18.5-10.5-24.9-19.6l5.9,5.9
				c17,1.3,13.9,7.5,19.3,11.6c-3.7-4.4,0.7-2.4-12.8-14.6c-3.6-1.2-14-2.7-14.6-14.5l-3.6-7l4.4,6.2c3.4,2.2,11.7,2,12.9,11.7
				l2.4,1c-1.7-5.1-5.1-9.6-8.5-14.1c-16.8-5.8-9.9-14.4-12.2-21.9l3,6.7c10,4.7,8.4,9.2,9.3,12.1l2.1,3.1
				c-0.9-5.1-2.3-8.3-3.5-12.4c-13.8-9.2-7.3-17.7-8.9-26.8l0.7,8.4c8.4,4.1,6.9,11.5,9.3,17.5l-1.5-14.4c-9-7.1-7.3-18.2-6-20.6
				l1.2-9.6v9.4c7.7,6.4,5.3,12.8,6.9,18.8c-0.3-5.8,0-11.5-1-17.6c-0.2,0-8-9.4,0-17.6l3.9-9.5L98.7,91c4.9,6.5,0.8,10.5,1,15.7
				l3.9-14.1c-2-4.6-2.6-9.8,4.7-18.7l5.5-6.2l-4.3,7.2c2.7,9.7-0.8,12.4-3.5,15.9l-0.2,2.6l5-5.6l2.4-9.1
				c1.3-5.7-1.8-12.6,10.7-15.2l4.9-6.2l-4.4,6.5c-0.6,4.9-0.2,9.9-9.5,14.4l-0.7,3.9L125,69.4c2.3-4.9,6.4-12.2,16.1-10.1L147,55
				l-5.8,4.9c0.2,2.4-4.7,11.7-15.2,11.1l-8.3,8.8c10.5-10.1,11.6-6.7,15.3-7.2l4.5-4.9c-1.6,2-3,4.2-4.9,5.8
				C130.2,76.1,127.6,82.1,116.5,82.2L116.5,82.2z"/>
			<path id="path163" class="st21" d="M120.4,174.7c2.8,2.7,4.2,5.6,3.5,9C123.4,180.5,121.9,177.6,120.4,174.7z M103.8,178.1
				c2.9,0.9,6.2,0.9,8,5.3C109.7,181,106.7,179.7,103.8,178.1z M95,160.7c2.9,1.1,4.4,3,4.9,5.5C98.1,163.8,96.5,161.8,95,160.7z
				 M111.4,172.9c1.4-2.1,2.4-5,1.7-11.7L111.4,172.9z M91,145.1c2.4,0.7,4.3,2.1,4.7,5.9C94.5,148.9,93,147,91,145.1z M104.9,155.3
				c2.6-2.4,4.5-5.4,3-11.1C107.9,148.6,106.8,152.2,104.9,155.3z M90.7,129.3c2.7,2.2,3.4,5.1,2.6,8.4
				C93.1,135,92.1,132.1,90.7,129.3z M100.6,139.8c4.1-2.1,5.8-5.3,5.8-9.4C105.4,134.3,103.2,137.2,100.6,139.8z M92.1,113.2
				c2,2.2,3.7,4.5,3.5,7.5C95,118.2,93.6,115.7,92.1,113.2z M101.2,121.4c5.1-1.8,6.3-4.2,6.5-6.8
				C106.9,117.1,104,118.3,101.2,121.4z M97.1,95.2c3.6,3.6,2,5.5,1,7.7C98.5,100.3,98.2,97.7,97.1,95.2z M105.2,106.9
				c5.5-1.2,6.6-2.9,7-4.7l-3,2c1.2-1.2,2.7-2.1,3.4-3.7C113.5,103.1,114.8,105.8,105.2,106.9z M106.4,87.7c0.5-1,1.6-1.1,1.1-3.8
				c1-1.4,0.9-2.8,1.3-4.2C108.5,82.5,110,85.7,106.4,87.7z M111.4,92.4c4.5-0.1,6.3-2.5,7.9-5C116.6,89.4,113.9,91.1,111.4,92.4
				L111.4,92.4z M118,72.6c0.5-1,1.5-1.3,1.4-3c1.2-0.5,0.9-1.8,1.2-2.8C121.5,71.8,119.1,71.1,118,72.6L118,72.6z M120.7,80.8
				c1.2-0.7,1.9,0.3,3.7-2.1c2.1-0.5,2.8-1.8,4-2.7C125.2,81.5,123.1,80.1,120.7,80.8L120.7,80.8z M131.2,67.9
				c2.7-0.1,4.5-0.8,5.8-4.9C132.8,66.3,133.9,67.1,131.2,67.9z"/>
		</g>
	</g>
	<g id="g1525">
		<g id="g217" transform="translate(-23.534 -47.394)">
			<g id="g183">
				<g id="g173">
					<g id="g169">
						<path id="path165" class="st22" d="M198.1,162.4l-4.5,0.3l-10.2,0.2c-3.8,0-7.2-0.1-10.2-0.2l-4.4-0.3l2.8,2.4l11.8,0.2
							l11.8-0.2L198.1,162.4z"/>
						<path id="path167" class="st22" d="M162.8,142.9v9.4c0.3,3.6,0.9,5.3,3.6,7.8l2.6,2.3l4.4,0.3l10.2,0.2l10.2-0.2l4.5-0.3
							l2.6-2.3c2.6-2.5,3.3-4.2,3.6-7.8v-9.4c0,0.7-9.3,1.4-20.8,1.4S162.8,143.7,162.8,142.9L162.8,142.9z"/>
					</g>
					<path id="path171" class="st23" d="M204.3,142.9c0,0.7-9.3,1.4-20.8,1.4s-20.8-0.6-20.8-1.4c0-0.7,9.3-1.4,20.8-1.4
						S204.3,142.2,204.3,142.9z"/>
				</g>
				<g id="g181">
					<path id="path175" class="st24" d="M204.3,146.1c0,0.7-9.3,1.4-20.8,1.4c-11.5,0-20.8-0.6-20.8-1.4"/>
					<path id="path177" class="st25" d="M162.8,152.1c1.2,0.4,9.3,1.4,20.8,1.4c11.5,0,19.5-1,20.8-1.4"/>
					<path id="path179" class="st24" d="M166.1,159.8c3.6,0.4,9.9,0.7,17.4,0.7s13.8-0.3,17.4-0.7"/>
				</g>
			</g>
			<g id="g189">
				
					<linearGradient id="path185_1_" gradientUnits="userSpaceOnUse" x1="174.7558" y1="-1981.1232" x2="175.5416" y2="-1726.8563" gradientTransform="matrix(1 0 0 -1 1.009242e-03 1017.8954)">
					<stop  offset="0" style="stop-color:#B3A600"/>
					<stop  offset="1" style="stop-color:#FBCC00"/>
				</linearGradient>
				<path id="path185" class="st26" d="M171.7,164.8l1.7,1.6l0,2l-2.2,2.3l0,1.7c2.7,1.5,8.3,2.7,12.3,2.7c4,0,9.6-1.2,12.3-2.7
					l0-1.7l-2.2-2.3l0-2l1.7-1.6c-3.3,0.1-7.4,0.2-11.7,0.2h-0.1C179.1,164.9,175.1,164.9,171.7,164.8L171.7,164.8z"/>
				<path id="path187" class="st27" d="M171.9,163.3h1.1v0.9h-1.1V163.3z M174.6,163.4h1.1v0.9h-1.1V163.4z M177.2,163.4h1.1v0.9
					h-1.1V163.4z M179.9,163.5h1.1v0.9h-1.1V163.5z M183,163.5h1.1v0.9H183V163.5z M195.1,163.3h-1.1v0.9h1.1V163.3z M192.5,163.4
					h-1.1v0.9h1.1V163.4z M189.9,163.4h-1.1v0.9h1.1V163.4z M187.2,163.5h-1.1v0.9h1.1V163.5z M184.1,161.2H183v0.9h1.1V161.2z
					 M171.9,161.1h1.1v0.9h-1.1V161.1z M174.6,161.1h1.1v0.9h-1.1V161.1z M177.2,161.2h1.1v0.9h-1.1V161.2z M179.9,161.2h1.1v0.9
					h-1.1V161.2z M169.4,160.8h1.1v0.9h-1.1V160.8z M195.1,161.1h-1.1v0.9h1.1V161.1z M192.5,161.1h-1.1v0.9h1.1V161.1z
					 M189.9,161.2h-1.1v0.9h1.1V161.2z M187.2,161.2h-1.1v0.9h1.1V161.2z M197.7,160.8h-1.1v0.9h1.1V160.8z"/>
			</g>
			<g id="g215">
				<g id="use191">
					<path id="X" class="st28" d="M168.7,155.3l-1.4,1l1.4,1.2l1.4-1L168.7,155.3z"/>
				</g>
				<g id="use193">
					<path class="st28" d="M173.6,155.6l-1.4,1l1.4,1.2l1.4-1L173.6,155.6z"/>
				</g>
				<g id="use195">
					<path id="Y" class="st28" d="M178.8,155.8l-1.4,1l1.4,1.2l1.4-1.1L178.8,155.8z M183.5,155.9l-1.4,1l1.4,1.2l1.4-1.2
						L183.5,155.9z"/>
				</g>
				<g id="use197">
					<path id="Z" class="st28" d="M198.4,155.3l1.4,1l-1.4,1.2l-1.4-1L198.4,155.3z"/>
				</g>
				<g id="use199">
					<path class="st28" d="M193.5,155.6l1.4,1l-1.4,1.2l-1.4-1L193.5,155.6z"/>
				</g>
				<path id="path201" class="st28" d="M188.3,155.8l1.4,1l-1.4,1.2l-1.4-1.1L188.3,155.8z"/>
				<g id="use203">
					<path class="st28" d="M168.7,148.5l-1.4,1l1.4,1.2l1.4-1L168.7,148.5z"/>
				</g>
				<g id="use205">
					<path class="st28" d="M173.6,148.9l-1.4,1l1.4,1.2l1.4-1L173.6,148.9z"/>
				</g>
				<g id="use207">
					<path class="st28" d="M178.8,149.1l-1.4,1l1.4,1.2l1.4-1.1L178.8,149.1z M183.5,149.1l-1.4,1l1.4,1.2l1.4-1.2L183.5,149.1z"/>
				</g>
				<g id="use209">
					<path class="st28" d="M198.4,148.5l1.4,1l-1.4,1.2l-1.4-1L198.4,148.5z"/>
				</g>
				<g id="use211">
					<path class="st28" d="M193.5,148.9l1.4,1l-1.4,1.2l-1.4-1L193.5,148.9z"/>
				</g>
				<path id="path213" class="st28" d="M188.3,149.1l1.4,1l-1.4,1.2l-1.4-1.1L188.3,149.1z"/>
			</g>
		</g>
		<path id="path219" class="st29" d="M141.9,95.5l0-3.7l-0.6-0.5V90h6.2l-0.2,2.3H146l0,3.2L141.9,95.5z M150.4,91.3l-3.4,4.3h7.4
			L150.4,91.3z M160,75c-0.4,0.2-1,0-0.9,1.9c-1.8,0-1.6,1.2,0,1.2v3.9h-3.9l0.1,1.2c2.1,0.1,3.5,0.4,3.7,1.2v6.1l-3-0.6v1.6
			l2.8,1.1v1.2l-1,1.8h4.4l-1-1.8v-1.2l2.8-1.1v-1.6l-3,0.6v-6.1c0.9-1.3,2.4-0.9,3.7-1.2l0.1-1.2H161v-3.9c1.6,0,1.8-1.2,0-1.2
			C161,75,160.4,75.1,160,75z M172.6,95.5l0.1-2.3l-0.6-0.5l0.1-1.4l4.6-0.1l1.3,0.7l-0.1,1.4l-1.3,0.8v1.5L172.6,95.5z M164.1,95.5
			l3.5-2.1v-1.6l-2-2.8l-0.3-2.1c2.3,0.6,4.8,0.7,7.4,0l-0.3,2.4l-2.7,2.1l-0.1,2.6l0.8,1.5H164.1z"/>
	</g>
	<g id="g1575">
		<g id="g293" transform="matrix(.950587 0 0 .950587 -271.46662 -5.373964)">
			<path id="path221" class="st30" d="M452.9,158c-4.9,0-7.1,0.3-9.7,1.2c-3.2,1.2-4.7,2.9-4.5,5.3l0.1,1.1l-1-0.5
				c-3.4-1.9-7.9-1.7-11.2,0.4c-7,4.5-9.7,14.1-5.2,18c1.4,1.2,2.6,1.6,5.2,1.6l2.2,0l-0.6,0.9c-2.9,4.4-0.2,9.7,6.6,12.8
				c3.4,1.5,5.9,2.1,9.3,2.1c3.8,0,5.8-0.7,7.5-2.6l0.9-1l0.4,0.6c1.2,1.7,3.4,3.2,5.7,3.8h0c1.7,0.5,5.8,0.3,8-0.4
				c4.9-1.5,9.2-4.6,10.9-7.9c0.6-1.2,0.6-1.4,0.6-3.2c0-1.4-0.1-2.1-0.3-2.5l-0.3-0.6l1.2-0.1c4-0.4,6.8-4.2,6.8-9.2
				c0-6.4-3.9-12.6-8.8-14.3c-2.2-0.7-5.2-0.3-7.4,0.9l-1,0.6l0-0.7c0-2.8-3-4.9-8.5-6C457.6,158.1,456.8,158,452.9,158L452.9,158z"
				/>
			
				<radialGradient id="path223_1_" cx="1611.3505" cy="878.4291" r="20.7057" gradientTransform="matrix(0.8791 0 0 -0.3986 -963.8653 527.4465)" gradientUnits="userSpaceOnUse">
				<stop  offset="0" style="stop-color:#A02771"/>
				<stop  offset="0.38" style="stop-color:#A02771"/>
				<stop  offset="0.851" style="stop-color:#E48FC3"/>
				<stop  offset="1" style="stop-color:#7D1D56"/>
			</radialGradient>
			<path id="path223" class="st31" d="M452.3,167.1c-11.4,0-20.6,5-20.6,11.1s9.2,11.1,20.6,11.1c11.4,0,20.6-5,20.6-11.1l0,0
				C473,172.1,463.7,167.1,452.3,167.1L452.3,167.1z"/>
			
				<radialGradient id="path225_1_" cx="1171.8752" cy="446.5768" r="28.0257" gradientTransform="matrix(5.9822 0 0 -2.1577 1685.5504 2185.54)" gradientUnits="userSpaceOnUse">
				<stop  offset="0" style="stop-color:#E9A9D0"/>
				<stop  offset="1" style="stop-color:#A02771"/>
			</radialGradient>
			<path id="path225" class="st32" d="M461.4,168.6c-5.3-1.4-10.9-1.5-16.5-0.3l-1.9,0.4l-0.4-0.5c-0.9-1.2-1.6-2.7-1.6-3.7
				c0-0.9,0.1-1,0.8-1.7c1.8-1.7,6.6-2.7,12.5-2.4c4.6,0.2,7.8,0.9,9.8,2.2c1.3,0.8,1.7,1.5,1.7,2.7c0,1-0.8,2.8-1.7,3.6l-0.5,0.5
				L461.4,168.6z"/>
			
				<radialGradient id="path227_1_" cx="1623.0856" cy="467.2199" r="24.3577" gradientTransform="matrix(3.7363 0 0 -3.4547 439.2013 3558.6306)" gradientUnits="userSpaceOnUse">
				<stop  offset="0" style="stop-color:#E9A9D0"/>
				<stop  offset="1" style="stop-color:#A02771"/>
			</radialGradient>
			<path id="path227" class="st33" d="M424.4,182.8c-1.1-0.3-2.1-1.1-2.6-2.1c-0.6-1.2-0.6-3.9,0.1-5.7c0.7-2,1.8-3.8,3.3-5.3
				c2.4-2.5,4.6-3.5,7.4-3.5c1.9,0,3.2,0.4,5.1,1.6c1.7,1.1,2.2,1.7,1.9,2.1c-0.1,0.2-0.3,0.3-0.5,0.3c-0.5,0-3.3,1.9-4.4,3
				c-2.4,2.3-3,5-1.9,7.5c0.3,0.6,0.5,1.2,0.4,1.3c-0.1,0.1-0.4,0.2-0.7,0.2c-0.3,0.1-1.4,0.3-2.4,0.5
				C428.3,183.1,425.7,183.2,424.4,182.8L424.4,182.8z"/>
			
				<radialGradient id="path229_1_" cx="1658.626" cy="437.8244" r="30.4509" gradientTransform="matrix(4.1826 0 0 -3.0861 686.8305 3168.4373)" gradientUnits="userSpaceOnUse">
				<stop  offset="0" style="stop-color:#E9A9D0"/>
				<stop  offset="1" style="stop-color:#A02771"/>
			</radialGradient>
			<path id="path229" class="st34" d="M434.2,183c-0.1,0-0.2,0.2-0.3,0.5c-0.1,0.3-0.4,0.8-0.8,1.1c-1.4,1.1-3,2.7-3.4,3.4
				c-0.5,1-0.6,3-0.1,3.9c1.7,3.2,7.2,6.3,12.4,6.9c6.3,0.7,9.7-2,8.6-7c-0.1-0.6-0.2-1.6-0.2-2.1c0-0.5,0-0.9-0.1-0.9
				c-0.5,0-3.7-0.4-4.9-0.7c-3.8-0.7-8-2.6-9.9-4.3C434.8,183.2,434.4,182.9,434.2,183L434.2,183z"/>
			
				<radialGradient id="path231_1_" cx="3072.3123" cy="-18.6634" r="75.0852" gradientTransform="matrix(3.3922 0 0 -3.8052 248.2258 3929.665)" gradientUnits="userSpaceOnUse">
				<stop  offset="0" style="stop-color:#E9A9D0"/>
				<stop  offset="1" style="stop-color:#A02771"/>
			</radialGradient>
			<path id="path231" class="st35" d="M473.9,165.7c-1.6,0-3.3,0.5-4.9,1.7c-1.5,1-2.9,2.3-2.9,2.7c0,0.2,0.6,0.6,1.4,1.1
				c1.8,1,3.8,2.9,4.5,4.4c0.5,1,0.6,1.4,0.6,2.7c0,1.3-0.1,1.7-0.6,2.7c-2.1,4.3-9.1,7.5-17.3,7.9c-1.2,0.1-2.2,0.2-2.2,0.3
				s0.1,0.4,0.3,0.7s0.3,0.9,0.3,1.4c0,1.3,0.5,3.7,1.1,4.8c1,2,2.9,3.5,5.1,3.9c1.2,0.2,3.3,0.2,4.8,0c3.2-0.5,6.8-2.2,9.1-4.4
				c3.9-3.7,3.6-7.4-1-9.7c-1.7-0.9-1.9-1.2-1.2-1.9l0.6-0.5l1.5,0.7c1.7,0.8,2.8,1.1,4.3,1.1c5.4,0,7.4-6.6,4.1-13.6
				c-0.7-1.4-1.2-2.1-2.2-3.2c-0.8-0.8-1.8-1.6-2.3-1.8C475.9,166,474.9,165.7,473.9,165.7L473.9,165.7z"/>
			<g id="g251">
				<path id="path233" class="st36" d="M458.1,161.2c-0.2,0-0.5,0-0.7,0c-0.2,0,0,0.1,0.3,0.1S458.3,161.3,458.1,161.2z
					 M458.6,162.9c-0.3-0.3-0.3-0.4,0.2-0.7c0.6-0.3,0.6-0.8,0.1-0.8c-0.2,0-0.4,0.1-0.3,0.3c0,0.2-0.1,0.4-0.4,0.4
					c-0.2,0-0.4,0.2-0.4,0.3c0,0.2-0.2,0.3-0.4,0.3c-0.3,0-0.3,0.1,0.3,0.4C458.5,163.5,459.1,163.3,458.6,162.9L458.6,162.9z
					 M454.3,162.4c0.7-0.2,0.3-0.5-0.8-0.5c-0.8,0-0.9,0-0.7,0.3C453.1,162.5,453.6,162.6,454.3,162.4z M450.9,162.6
					c0.3-0.4,0.1-0.7-0.5-0.7c-0.3,0-0.4,0.1-0.2,0.1c0.4,0.1,0.3,0.5-0.1,0.6c-0.2,0-0.3-0.1-0.3-0.3c0-0.2-0.1-0.3-0.1-0.2
					c-0.1,0.1-0.1,0.3,0,0.4C449.8,163,450.6,163,450.9,162.6L450.9,162.6z M445.4,163.2c0.2,0,0.5,0,0.7,0c0.2,0,0,0.1-0.3,0.1
					S445.2,163.2,445.4,163.2z"/>
				<path id="path235" class="st36" d="M446.8,163.6c0.1-0.4-0.3-0.6-1-0.6c-0.6,0-1.2,0.4-0.9,0.6c0.1,0.1,0.4,0.1,0.8,0
					c0.6-0.1,0.6-0.1,0.2,0.1c-0.5,0.2-0.5,0.2,0.1,0.2C446.5,163.9,446.7,163.8,446.8,163.6L446.8,163.6z M463,164.1
					c0-0.4-0.5-0.8-0.8-0.7c-0.3,0.1-0.4,0.5-0.2,0.7C462.1,164.3,463,164.3,463,164.1z M443,164.7c-0.1-0.2-0.1-0.3-0.2-0.5
					c-0.1-0.3-0.2-0.3-0.4-0.1c-0.4,0.4-0.3,0.8,0.2,0.8C442.8,164.8,443,164.8,443,164.7z M451.4,164.4c-0.4-0.2-1.6-0.2-1.4,0
					c0.2,0.2,1,0.4,1.4,0.2C451.7,164.6,451.7,164.6,451.4,164.4z M448.8,164.9c0.4-0.4,0.1-0.9-0.5-0.9c-0.8,0-1.1,0.4-0.7,0.8
					C448,165.3,448.5,165.3,448.8,164.9L448.8,164.9z M454.2,165.1c0.3-0.2,0.4-0.3,0.2-0.3c-0.3,0-0.6-0.1-0.9-0.1
					c-0.5-0.1-0.6-0.1-0.6,0.3C452.8,165.5,453.4,165.5,454.2,165.1L454.2,165.1z M458.3,166c0.3,0,0.1-0.1-0.4-0.3
					c-1.2-0.4-1.4-0.4-1.3,0.1c0.1,0.3,0.2,0.4,0.7,0.3C457.6,166,457.9,166,458.3,166L458.3,166z M452.6,166.2
					c0-0.1-0.1-0.2-0.2-0.2l-0.7-0.1c-0.4,0-0.6,0.1-0.3,0.3C451.6,166.4,452.6,166.4,452.6,166.2L452.6,166.2z M446.5,166.7
					c0-0.2-0.2-0.3-1.1-0.3l-1.1,0l0.7,0.3C445.9,167,446.5,167,446.5,166.7L446.5,166.7z M461.8,166.8c0.9-0.4,0.9-0.7,0-0.9
					c-0.7-0.2-1.2,0.1-1.2,0.7C460.7,167.2,460.8,167.2,461.8,166.8z M431.2,168.7c-0.2-0.1-0.3-0.1-0.5,0c-0.1,0.1,0,0.1,0.2,0.1
					C431.2,168.8,431.3,168.8,431.2,168.7z M433.8,171.3c0.1-0.5-0.2-1.1-0.5-1.1c-0.1,0-0.3,0.1-0.5,0.3c-0.4,0.3-0.4,0.3,0.1,0.2
					c0.3-0.1,0.5,0,0.7,0.4c0.2,0.5,0.1,0.8-0.2,0.6c-0.1-0.1-0.2-0.3-0.1-0.4s0-0.3-0.1-0.3c-0.3,0-0.2,0.5,0,0.7
					C433.4,172.1,433.7,171.9,433.8,171.3L433.8,171.3z M429.3,172.2c-0.2-0.5,0.1-0.9,0.5-0.8c0.2,0,0.3,0.2,0.3,0.5
					C430.1,172.5,429.5,172.7,429.3,172.2L429.3,172.2z M425.9,174.8c0-0.2-0.4-0.5-0.5-0.3c-0.1,0.1,0.1,0.5,0.3,0.5
					C425.8,175,425.9,174.9,425.9,174.8z M430.2,178.4c0.3-0.6-0.1-0.9-0.7-0.5c-0.5,0.3-0.5,0.4-0.2,0.6
					C429.8,178.9,429.9,178.9,430.2,178.4L430.2,178.4z M425.4,178.9c0.4-0.4,0.1-0.8-0.5-0.8c-0.3,0-0.3,0-0.1,0.1
					c0.4,0.1,0.5,0.8,0,0.8c-0.2,0-0.3-0.1-0.3-0.2s-0.1-0.2-0.1-0.1c-0.2,0.2,0.1,0.5,0.4,0.5C425,179.2,425.2,179.1,425.4,178.9
					L425.4,178.9z M429.1,181c0.2-0.3-0.3-0.8-0.5-0.6c-0.2,0.2,0,0.8,0.2,0.8C428.9,181.1,429,181.1,429.1,181L429.1,181z
					 M437.1,188.1c0-0.4-0.6-0.7-1.4-0.7c-0.9,0-1,0.3-0.2,0.7C436.3,188.6,437.1,188.6,437.1,188.1L437.1,188.1z M433.3,189.1
					c0.2-0.2,0.3-0.6,0.3-0.9c0-0.5-0.1-0.5-0.3-0.4c-0.6,0.3-1.1,1-0.9,1.3C432.5,189.5,432.9,189.5,433.3,189.1L433.3,189.1z
					 M440.7,190.4c-0.3-0.4-0.6-0.5-0.9-0.1c-0.3,0.3-0.1,0.5,0.6,0.5C440.9,190.8,440.9,190.7,440.7,190.4L440.7,190.4z
					 M444.9,190.7c0,0-0.1-0.1-0.2-0.2c-0.1-0.1-0.2,0-0.2,0.1s0.1,0.2,0.2,0.2S444.9,190.7,444.9,190.7z"/>
				<path id="path237" class="st36" d="M445.4,191c0.2-0.4-0.1-1.2-0.4-1.3c-0.1-0.1-0.4,0-0.6,0.2c-0.2,0.2-0.2,0.2-0.1,0.2
					c0.4-0.2,1,0.2,1,0.7c0,0.2-0.1,0.4-0.2,0.5c-0.2,0.1-0.2,0.1,0,0.1C445.2,191.3,445.4,191.2,445.4,191L445.4,191z M436.6,191.2
					c-0.1-0.4,0.1-0.7,0.4-0.7c0.4,0,0.5,0.4,0.3,0.7C437,191.6,436.7,191.6,436.6,191.2L436.6,191.2z M434.2,192.5
					c-0.1-0.1-0.4-0.2-0.6-0.1c-0.3,0.1-0.3,0.1,0.1,0.1c0.4,0,0.4,0.1,0.3,0.4c-0.1,0.3-0.1,0.3,0.1,0.1
					C434.4,192.7,434.4,192.6,434.2,192.5L434.2,192.5z"/>
				<path id="path239" class="st36" d="M433.8,192.8c0-0.1-0.1-0.1-0.2-0.1c-0.1,0.1-0.2,0.2-0.2,0.3s0.1,0.1,0.2,0.1
					C433.7,193.1,433.8,193,433.8,192.8z M433.2,192.4c0-0.1-0.2,0-0.4,0.1c-0.3,0.2-0.3,0.3-0.1,0.6c0.3,0.3,0.3,0.3,0.4-0.1
					C433.2,192.8,433.2,192.5,433.2,192.4z M443.9,193.1c-0.3-0.3-0.8,0-0.6,0.5c0.1,0.3,0.2,0.3,0.5,0.1
					C444.1,193.4,444.1,193.3,443.9,193.1L443.9,193.1z M446.8,194.5c-0.2-0.2-0.4-0.3-0.6-0.2c-0.2,0.1-0.1,0.2,0.2,0.3
					C447.1,194.8,447.2,194.8,446.8,194.5L446.8,194.5z"/>
				<g id="use241">
					<path id="a" class="st36" d="M439.7,194.5c0-0.2-0.1-0.3-0.2-0.3c-0.2,0-0.3,0.2-0.3,0.4C439.2,195.1,439.6,195,439.7,194.5
						L439.7,194.5z"/>
				</g>
				<path id="path243" class="st36" d="M437.4,195.4c0.1,0,0.2-0.1,0.2-0.2c-0.1-0.4-0.6-0.9-0.9-0.9c-0.3,0-0.6,0.6-0.5,1
					c0.3,0.8,0.2,0.8,0.6,0.5C437,195.5,437.3,195.4,437.4,195.4L437.4,195.4z M443.8,195.7c-0.4-0.3-1-0.3-1,0.1
					c0,0.1,0.3,0.2,0.7,0.2C444.2,196,444.2,196,443.8,195.7z M443.5,196.6c-0.1-0.1-0.2-0.1-0.4,0c-0.2,0.1-0.1,0.1,0.1,0.1
					C443.5,196.7,443.6,196.7,443.5,196.6L443.5,196.6z M473.5,182.5c0.1-0.1-0.1-0.2-0.4-0.2c-0.4,0-0.8,0.4-0.6,0.6
					C472.7,183.1,473.3,182.8,473.5,182.5z M477.9,184c0.1-0.1,0.3-0.2,0.5-0.2c0.7,0,0.7-0.8-0.1-1.1c-0.6-0.3-1.1,0.1-1.1,0.9
					C477.2,184.2,477.6,184.5,477.9,184L477.9,184z M473.4,167.9c0.1-0.2,0-0.4,0-0.4c-0.3,0-0.6,0.6-0.5,0.8
					C473,168.6,473.3,168.4,473.4,167.9L473.4,167.9z"/>
				<path id="path245" class="st36" d="M473.6,168.5c0.1-0.2,0.4-0.4,0.5-0.5c0.2-0.1,0.2-0.1,0-0.1c-0.2,0-0.4,0.2-0.5,0.4
					c-0.3,0.5-1,0.4-1.1-0.2c0-0.3,0.1-0.5,0.5-0.8c0.5-0.3,0.5-0.4,0.3-0.5c-0.4-0.2-1.2,0.4-1.2,0.8c0,0.5,0.5,1.2,1,1.2
					C473.2,168.8,473.4,168.7,473.6,168.5z M477.2,169.3c0-0.3-0.4-0.7-0.6-0.5c-0.4,0.2-0.2,0.7,0.2,0.7
					C477,169.4,477.2,169.4,477.2,169.3z M470.1,169.9c0-0.3-0.7-0.8-1-0.8c-0.4,0-0.4,0.1-0.1,0.6
					C469.2,170,470.1,170.2,470.1,169.9z M473.3,170.8c-0.1-0.1-0.1-0.3-0.1-0.5c0-0.6,1-0.4,1.1,0.2c0,0.3,0,0.4-0.4,0.4
					C473.6,171,473.4,170.9,473.3,170.8L473.3,170.8z M476.9,172c-0.1-0.2-0.2-0.3-0.3-0.3c-0.2,0-0.2,0.5,0,0.6
					C476.8,172.6,477,172.3,476.9,172L476.9,172z M479.5,172.1c0.3,0.2,0.4,0.1,0.4-0.1c0-0.4-0.6-0.6-0.8-0.3
					c-0.1,0.1-0.1,0.3-0.2,0.5c0,0.1,0.1,0.1,0.1,0C479.1,172,479.3,172,479.5,172.1L479.5,172.1z M473.6,172.3
					c0-0.2-0.2-0.4-0.4-0.5c-0.5-0.2-0.6,0-0.4,0.5C473,172.8,473.6,172.8,473.6,172.3L473.6,172.3z M476.5,174.7
					c0.2-0.7-0.1-1-0.6-0.4c-0.4,0.5-0.4,1,0.2,1C476.3,175.2,476.4,175,476.5,174.7L476.5,174.7z M480.4,176.7
					c0.1-0.1,0-0.3-0.2-0.5c-0.3-0.2-0.4-0.2-0.6,0c-0.2,0.2-0.3,0.2-0.2-0.1c0.1-0.2,0-0.3-0.1-0.3c-0.3,0-0.2,0.4,0.1,0.8
					C479.8,177,480.2,177,480.4,176.7L480.4,176.7z M475.8,180c0.4-0.4,0.3-0.7-0.3-0.8c-0.6-0.1-1.3,0.3-0.9,0.6
					c0.1,0.1,0.2,0,0.2-0.1c0-0.1,0.1-0.3,0.3-0.3c0.4-0.1,0.5,0.6,0.1,0.8c-0.2,0.1-0.1,0.1,0.1,0.1
					C475.5,180.2,475.7,180.1,475.8,180L475.8,180z M478.9,179.6c-0.4,0-0.5,0.6-0.1,0.9c0.3,0.3,0.5,0.2,0.8-0.2
					C479.8,180,479.5,179.6,478.9,179.6z M479.2,180.2c0,0,0.1,0.1,0.1,0.2s-0.1,0.2-0.2,0.2c-0.1,0-0.1-0.1-0.1-0.2
					S479.2,180.2,479.2,180.2z"/>
				<g id="use247">
					<path class="st36" d="M470.3,186.1c0-0.2-0.1-0.3-0.2-0.3s-0.3,0.2-0.3,0.4C469.7,186.6,470.2,186.6,470.3,186.1L470.3,186.1z"
						/>
				</g>
				<path id="path249" class="st36" d="M472.1,190.1c-0.1-0.2-0.1-0.3-0.1-0.4s-0.1-0.1-0.3-0.1c-0.3,0-0.4,0.5,0,0.6
					C472.1,190.4,472.3,190.4,472.1,190.1L472.1,190.1z M467.4,190.8c0.3-0.2,0.1-0.8-0.3-0.8c-0.4,0-0.6,0.3-0.4,0.7
					C466.8,191,467,191,467.4,190.8z M464,191.2c-0.1-0.1-0.4-0.3-0.7-0.3l-0.5-0.1l0.5,0.5C463.8,191.7,464.4,191.7,464,191.2z
					 M458.8,192.8c0-0.1-0.2-0.4-0.4-0.6c-0.4-0.4-0.7-0.1-0.5,0.5C458,193.1,458.8,193.2,458.8,192.8L458.8,192.8z M470.5,192.8
					c-0.1-0.1-0.3-0.1-0.5,0.1c-0.4,0.3-0.4,0.3,0.1,0.3c0.3,0,0.4,0.1,0.5,0.3c0,0.2,0.1,0.2,0.1-0.1
					C470.7,193.2,470.6,192.9,470.5,192.8z M470.3,193.9c0,0-0.1-0.1-0.3-0.2s-0.2,0-0.2,0.1C469.9,194,470.3,194.1,470.3,193.9z
					 M463.4,194.2c0-0.2-0.1-0.5-0.3-0.6c-0.2-0.2-0.3-0.1-0.6,0.2c-0.2,0.3-0.2,0.5-0.1,0.6C462.9,194.7,463.4,194.6,463.4,194.2
					L463.4,194.2z M466.3,195.2c0.4-0.4,0.1-0.7-0.5-0.4c-0.4,0.2-0.5,0.4-0.3,0.6C465.8,195.6,466,195.6,466.3,195.2z M459.5,195.6
					c-0.1-0.4-0.9-0.6-0.9-0.2c0,0.2,0.1,0.3,0.2,0.4C459.3,196,459.6,195.9,459.5,195.6z"/>
			</g>
			
				<radialGradient id="path253_1_" cx="1292.6156" cy="804.7725" r="16.2265" gradientTransform="matrix(1.4178 -4.838846e-03 -1.834246e-03 -0.5374 -1378.1888 620.8796)" gradientUnits="userSpaceOnUse">
				<stop  offset="0" style="stop-color:#A02771"/>
				<stop  offset="1" style="stop-color:#000000"/>
			</radialGradient>
			<path id="path253" class="st37" d="M452.4,173c3.4,0,6.8,0.5,9.6,1.4c3.6,1.2,4.9,3.2,3.1,4.9c-0.7,0.7-2.8,1.7-4.6,2.2
				c-3.4,0.8-10,1.1-13.9,0.6c-2.6-0.4-4.4-0.8-6.1-1.6c-1.9-0.9-2.6-1.6-2.6-2.7C438,174.8,445.1,172.9,452.4,173L452.4,173z"/>
			<g id="g291">
				<g id="use255">
					<path id="b" class="st38" d="M441.3,177.5l-0.6,1.7l0.6-0.6l0.4,0.5L441.3,177.5z"/>
				</g>
				<g id="use257">
					<path class="st38" d="M442.9,175.5l-0.6,1.7l0.6-0.6l0.4,0.5L442.9,175.5z"/>
				</g>
				<g id="use259">
					<path class="st38" d="M442.3,179.2l-0.6,1.7l0.6-0.6l0.4,0.5L442.3,179.2z"/>
				</g>
				<g id="use261">
					<path class="st38" d="M443.7,177.5l-0.6,1.7l0.6-0.6l0.4,0.5L443.7,177.5z"/>
				</g>
				<g id="use263">
					<path class="st38" d="M445.5,175.2l-0.6,1.7l0.6-0.6l0.4,0.5L445.5,175.2z"/>
				</g>
				<g id="use265">
					<path class="st38" d="M445.9,176.3l-0.6,1.7l0.6-0.6l0.4,0.5L445.9,176.3z"/>
				</g>
				<path id="path267" class="st39" d="M447.1,178.4l-0.9,2.3l0.8-0.8l0.6,0.7L447.1,178.4z"/>
				<g id="use269">
					<path class="st38" d="M445.8,179.8l-0.6,1.7l0.6-0.6l0.4,0.5L445.8,179.8z"/>
				</g>
				<path id="path271" class="st39" d="M449.3,178.2l-0.9,2.6l0.8-0.9l0.6,0.8L449.3,178.2z M448.4,175.4l-0.4,1.8l0.5-0.7l0.5,0.4
					L448.4,175.4z M450.5,174.3l-0.6,2.6l0.6-0.9l0.4,0.8L450.5,174.3z M451.3,176.9l-1.1,1.5l0.7-0.4l0.3,0.6L451.3,176.9z
					 M450.8,179.5l-0.9,2.4l0.9-0.9l0.6,0.7L450.8,179.5z M452.3,178.3l-0.9,2.5l0.8-0.9l0.6,0.7L452.3,178.3z M453,175.4l-0.7,2
					l0.7-0.7l0.5,0.6L453,175.4z M455.2,174.3l-0.9,2.7l0.9-1l0.6,0.8L455.2,174.3z"/>
				<g id="use273">
					<path class="st38" d="M456.8,174.8l-0.6,1.7l0.6-0.6l0.4,0.5L456.8,174.8z"/>
				</g>
				<path id="path275" class="st39" d="M455.4,177.5l-0.9,2.8l0.9-1l0.6,0.8L455.4,177.5z M454.2,179.9l-0.8,2l0.7-0.7l0.5,0.6
					L454.2,179.9z"/>
				<g id="use277">
					<path class="st38" d="M456.6,180l-0.6,1.7l0.6-0.6l0.4,0.5L456.6,180z"/>
				</g>
				<path id="path279" class="st39" d="M457.4,177.7l-0.4,2.4l0.9-1l1.2,0.5L457.4,177.7z M459.3,179.5l-0.4,1.8l0.5-0.7l0.5,0.4
					L459.3,179.5z"/>
				<g id="use281">
					<path class="st38" d="M461.7,179.3l-0.6,1.7l0.6-0.6l0.4,0.5L461.7,179.3z"/>
				</g>
				<path id="path283" class="st39" d="M459.2,175.7l0,3.1l0.5-1.3l0.8,0.5L459.2,175.7z"/>
				<g id="use285">
					<path class="st38" d="M462.4,175.4l-0.6,1.7l0.6-0.6l0.4,0.5L462.4,175.4z"/>
				</g>
				<g id="use287">
					<path class="st38" d="M464.5,176.8l-0.6,1.7l0.6-0.6l0.4,0.5L464.5,176.8z"/>
				</g>
				<path id="path289" class="st39" d="M462.4,177.9l-0.8,2.4l0.8-0.9l0.5,0.7L462.4,177.9z"/>
			</g>
		</g>
	</g>
	<g id="g1763">
		<g id="g305">
			
				<linearGradient id="path295_1_" gradientUnits="userSpaceOnUse" x1="-436.1277" y1="923.1154" x2="-552.9612" y2="923.1154" gradientTransform="matrix(3.7795 0 0 -3.7795 2220.8398 3704.304)">
				<stop  offset="0" style="stop-color:#DAB200"/>
				<stop  offset="1" style="stop-color:#FCCD00"/>
			</linearGradient>
			<path id="path295" class="st40" d="M99.6,206.6c-10.6,0.7-20.9,1.8-33.4,0.3l9.6,8.5l-9.7,6.6c11.3,2,22.7,0.9,33.5,0.3
				c1.8-0.1,3.1,0.8,3.1,1.9v-15.2C102.7,207.4,101.2,206.6,99.6,206.6L99.6,206.6z"/>
			<path id="path297" class="st41" d="M102.7,208.9c-4.7,5-8.7,4.1-12.8,4.4v22.2c0-4.5,5.2-11.3,12.8-11.3V208.9z"/>
			
				<linearGradient id="path299_1_" gradientUnits="userSpaceOnUse" x1="-654.4006" y1="923.1154" x2="-537.5671" y2="923.1154" gradientTransform="matrix(3.7795 0 0 -3.7795 2220.8398 3704.304)">
				<stop  offset="0" style="stop-color:#DAB200"/>
				<stop  offset="1" style="stop-color:#FCCD00"/>
			</linearGradient>
			<path id="path299" class="st42" d="M220.4,206.6c10.6,0.7,20.9,1.8,33.4,0.3l-9.6,8.5l9.7,6.6c-11.3,2-22.7,0.9-33.5,0.3
				c-1.8-0.1-3.1,0.8-3.1,1.9v-15.2C217.3,207.4,218.8,206.6,220.4,206.6L220.4,206.6z"/>
			<path id="path301" class="st41" d="M217.3,208.9c4.7,5,8.7,4.1,12.8,4.4v22.2c0-4.5-5.2-11.3-12.8-11.3V208.9z"/>
			
				<linearGradient id="path303_1_" gradientUnits="userSpaceOnUse" x1="471.4677" y1="918.7064" x2="3517.5422" y2="918.7064" gradientTransform="matrix(3.7795 0 0 -3.7795 2220.8398 3704.304)">
				<stop  offset="0" style="stop-color:#FCCD00"/>
				<stop  offset="0.499" style="stop-color:#FFDD41"/>
				<stop  offset="1" style="stop-color:#FCCD00"/>
			</linearGradient>
			<path id="path303" class="st43" d="M89.9,213.3v22.2c20.5,10.6,55.5,15.3,70.1,15.3c14.6,0,49.6-4.7,70.1-15.3v-22.2
				c-19.2,11.7-50.9,18.5-70.1,18.5S109.1,225,89.9,213.3L89.9,213.3z"/>
		</g>
		<path id="path307" d="M215.8,238.6c1.7-0.5,3.2-1.5,3.9-2.5c0.8-1.2,0.7-2.1-0.7-6.3l-1.1-3.8c0.1-0.3,0.7-0.8,1.3-0.9
			c0,0,0-0.3-0.2-0.6s-0.3-0.6-0.4-0.5l-2.7,0.9l-2.4,0.9c0,0,0.1,0.3,0.2,0.6c0.2,0.5,0.3,0.6,1,0.5c0.7-0.1,0.9,0,1.1,0.3
			c0.3,0.6,2.5,7.2,2.5,7.6c0,0.6-0.7,1.5-1.6,2c-1.5,0.7-2.5,0.5-3.2-0.9c-0.7-1.4-2.6-7.1-2.4-7.5c0.1-0.2,0.4-0.5,0.8-0.6
			c0.6-0.2,0.6-0.3,0.4-0.8l-0.2-0.6c0-0.1-6.8,2.2-6.9,2.3c0,0,0,0.3,0.1,0.6c0.2,0.5,0.3,0.6,1.1,0.6l0.9,0l1.2,3.5
			c1.6,4.6,1.7,4.8,2.6,5.4C212,239.2,213.9,239.2,215.8,238.6L215.8,238.6z M103.4,225.1c-0.1,0-0.1,0-0.1,0
			c-0.1,0.1-0.2,0.4-0.2,0.6c-0.1,0.4,0,0.5,0.5,0.8c0.3,0.2,0.7,0.4,0.7,0.6c0.1,0.5-2,7.8-2.4,8.5c-0.2,0.4-0.4,0.4-1,0.3
			c-0.7-0.1-0.7-0.1-0.9,0.5c-0.1,0.3-0.1,0.6-0.1,0.7c0.1,0.1,7.8,2.2,8.6,2.4c0.4,0.1,1.3,0.1,2,0.1c1.1,0,1.4-0.1,1.9-0.6
			c0.4-0.3,0.7-1,0.9-1.6c0.3-0.9,0.3-1.1-0.1-1.8c-0.3-0.6-0.7-1.1-1.2-1.5c-0.4-0.4-0.8-0.7-0.7-0.9s0.4-0.3,0.9-0.4
			c0.9-0.2,1.8-0.7,2.2-1.4c0.1-0.2,0.2-0.8,0.2-1.3c0-0.8-0.1-1-0.6-1.6c-0.4-0.4-1-0.8-1.5-1C111.1,227.2,104.3,225.3,103.4,225.1
			L103.4,225.1z M108.7,228c0.9,0.1,2.3,1.1,2.3,1.8c-0.1,0.8-0.4,1.5-1,2c-0.5,0.4-1.6,0.4-2.3,0.1c-0.3-0.1-0.5-0.3-0.5-0.4
			c0.2-1,0.9-3.3,1.1-3.4C108.5,228,108.6,228,108.7,228L108.7,228z M107.3,233.1c0.3,0,0.6,0.1,1.1,0.4c1.1,0.5,1.5,1.3,1.3,2.3
			c-0.4,1.9-1.5,2.4-3.4,1.9c-0.3-0.1-0.6-0.3-0.6-0.4c0-0.1,0.2-1.1,0.5-2.2C106.6,233.6,106.8,233,107.3,233.1L107.3,233.1z
			 M200.7,242.7l5.5-1.4l1.9-0.6c0,0,0-0.5-0.2-1l-1.1-3.7c0,0-0.4,0-0.7,0.1l-0.7,0.1l0.1,1.1c0.2,1.6-0.2,2.4-1.4,2.9
			c-0.5,0.2-1.2,0.4-1.7,0.4l-0.8,0l-0.4-1.5l-1.7-7.5c0.1-0.2,0.4-0.4,0.7-0.6c0.4-0.2,0.6-0.3,0.6-0.7c0-0.3-0.1-0.6-0.2-0.6
			c-0.2-0.1-6.9,1.5-7.1,1.7c0,0,0,0.3,0.1,0.6c0.1,0.5,0.2,0.6,0.9,0.5c0.7,0,0.8,0,1,0.5c0.4,0.8,2.2,8.2,2.1,8.5
			c-0.1,0.2-0.4,0.4-0.6,0.5l-0.6,0.3c-0.1,0.1,0.2,1.2,0.3,1.2C196.9,243.6,198.6,243.2,200.7,242.7L200.7,242.7z M187.5,245.6
			c2.8-0.7,4.1-1.9,4.1-3.8c0-0.5-0.2-2.4-0.5-4.1c-0.6-3.8-0.6-4.1,0.3-4.5c0.5-0.2,0.6-0.4,0.6-0.8c0-0.3-0.1-0.6-0.2-0.6
			c-0.1-0.1-0.9,0-1.7,0.2l-2.6,0.4c-1.1,0.1-1.1,0.1-1.1,0.7c0.1,0.5,0.1,0.6,0.8,0.7c0.9,0.1,1.2,0.5,1.4,1.9l0.5,3.4
			c0.4,2.6,0.4,3.7-0.2,4.3c-0.7,0.8-2.4,1.2-3.4,0.7c-0.7-0.3-1.1-1.3-1.4-3.5l-0.6-3.6c-0.3-2-0.2-2.4,0.8-2.6
			c0.7-0.1,0.7-0.2,0.6-0.7c-0.1-0.3-0.2-0.6-0.2-0.7c0,0-1.4,0.2-3.1,0.4l-3.6,0.5c-0.5,0-0.5,0.1-0.5,0.7c0.1,0.7,0.1,0.7,0.6,0.7
			c1.1-0.1,1.2,0.2,1.7,3.5c0.9,5.8,1,6,2.6,6.7C183.9,246,185.8,246.1,187.5,245.6L187.5,245.6z M127.6,241.7l0.5-2.4
			c0,0-0.4-0.1-0.8-0.2c-0.8-0.1-0.8-0.1-1.1,0.7c-0.2,0.5-0.5,1-0.9,1.4c-0.4,0.5-0.7,0.6-1.4,0.6c-0.9,0-3.8-0.6-4-0.9
			c-0.2-0.2,0.1-1.8,0.6-3.6c0.2-0.7,0.2-0.7,0.9-0.6c1,0.2,1.4,0.6,1.4,1.7c0,0.8,0,0.9,0.5,1c0.3,0.1,0.5,0.1,0.6,0.1
			c0.1-0.2,1.2-5.2,1.1-5.3c-0.3-0.4-1-0.1-1.3,0.6c-0.4,0.7-0.5,0.7-1.3,0.8c-0.5,0-1,0-1.1-0.1c-0.2-0.2,0-1.4,0.5-3.2
			c0.2-0.9,0.4-0.9,2.6-0.3c2.1,0.5,3,1.5,3,3.1c0,0.6,0,0.7,0.8,0.8c0.4,0.1,0.8,0.1,0.8,0.1c0.1-0.2,0.9-4,0.8-4.1
			c-0.2-0.2-12.7-2.9-12.8-2.8c-0.1,0.1-0.2,0.3-0.2,0.6c-0.1,0.4,0,0.5,0.5,0.7c0.4,0.1,0.7,0.4,0.8,0.6s-0.1,1.2-0.4,2.3l-0.9,4
			l-0.6,2.3c-0.1,0.2-0.5,0.3-1,0.4c-0.8,0.1-0.8,0.1-0.9,0.6l-0.1,0.6l2.7,0.6l6,1.4l3.8,0.8C127,244,127.1,243.9,127.6,241.7
			L127.6,241.7z M142.3,244.7l0.9-7c0.2-1.7,0.4-2.4,1-2.5c0.3-0.1,0.6-0.1,0.8,0c0.2,0.1,0.3,0,0.3-0.6v-0.7l-2.5-0.3l-2.6-0.3
			c0,0-0.1,0.3-0.1,0.6c-0.1,0.5,0,0.6,0.5,0.8c1,0.4,1.1,0.5,0.8,2.4c-0.4,3.5-0.7,4.9-0.9,4.9c-0.1,0-0.6-1-1.1-2.2l-1.8-4.6
			c-0.7-1.8-1-2.4-1.3-2.4c-0.9-0.2-5.3-0.7-5.6-0.6c-0.2,0.1-0.3,0.4-0.3,0.7c0,0.5,0.1,0.6,0.5,0.6c0.6,0,1.1,0.5,1.1,1
			c0,0.8-1,7.9-1.2,8.3c-0.1,0.3-0.3,0.4-0.9,0.4c-0.7,0-0.8,0.1-0.9,0.5c-0.1,0.3,0,0.6,0.1,0.7c0.2,0.2,3.6,0.7,4.6,0.7
			c0.6,0,0.6,0,0.6-0.6c0-0.4-0.2-0.6-0.4-0.7c-0.8-0.1-0.9-0.4-0.8-1.9c0.2-2.6,0.8-5.9,1-5.9c0.2,0,0.7,1.1,2.3,5.2
			c1.5,4,1.7,4.5,2.1,4.6c1.1,0.2,2.2,0.3,3.3,0.5C142,246.3,142.1,246.2,142.3,244.7L142.3,244.7z M167.6,247.2
			c0.1,0,0.2-0.3,0.2-0.7c0-0.4-0.1-0.6-0.3-0.6c-0.7,0-1-0.5-1.1-1.6l-0.1-1.1l1-0.8c0.5-0.4,1.1-0.8,1.2-0.8
			c0.4,0,2.5,2.9,2.5,3.4c0,0.3-0.2,0.4-0.5,0.5c-1,0.2-1,0.3-1,0.8l0.1,0.5l2.6,0.1l3.8-0.1l1.2-0.1v-0.7c0-0.6,0-0.7-0.6-0.7
			c-0.5,0-0.8-0.2-1.3-0.7c-0.6-0.7-3-4-3.7-5l-0.4-0.6l1.5-1.4c1.4-1.3,2.8-2.3,3.3-2.3c0.2,0,0.2-0.3,0.2-0.7v-0.7l-1.2,0.1
			c-0.6,0.1-2.2,0.1-3.4,0.1h-2.2v0.7c0,0.6,0,0.7,0.6,0.7c0.7,0,1.1,0.3,1.1,0.8c0,0.2-0.5,0.7-1.1,1.3l-2,1.7
			c-0.8,0.8-1.5,1.1-1.7,1c-0.2-0.2-0.3-3.3-0.2-3.9c0.1-0.3,0.3-0.5,0.6-0.6c0.4-0.1,0.5-0.2,0.5-0.8v-0.7h-2.5l-3.4,0.1
			c-0.9,0.1-0.9,0.1-0.9,0.8c0,0.6,0,0.6,0.6,0.6c0.4,0,0.7,0.1,0.9,0.3c0.3,0.3,0.6,8.1,0.4,8.9c-0.1,0.4-0.3,0.5-0.8,0.7
			c-0.6,0.1-0.7,0.3-0.7,0.7c0,0.3,0,0.6,0.1,0.6C161.1,247.4,167.2,247.3,167.6,247.2L167.6,247.2z M154.3,247c1-0.3,1-0.3,1.4,0.1
			c0.3,0.3,0.6,0.4,1.2,0.4h0.8l0.1-2.3c0.1-1.2,0.2-2.4,0.3-2.6c0.1-0.2,0.4-0.3,0.7-0.3c0.5,0,0.6-0.1,0.6-0.7c0-0.8,0-0.8-4-1
			l-2.7-0.1v0.7c0,0.6,0.1,0.7,0.7,0.9c0.8,0.3,1,0.8,0.8,2.3c-0.2,1.3-0.5,1.6-1.7,1.6c-1.6,0-2.3-0.9-2.6-3.1
			c-0.2-1.8,0-4.8,0.6-5.8c0.5-1.1,1.2-1.6,2.2-1.6c1.4,0,2.5,0.9,2.9,2.7c0.2,0.8,0.3,0.9,1,1c0.4,0.1,0.8,0.1,0.9,0
			c0.1-0.1,0.2-1.2,0.3-2.5l0.1-2.3h-0.8c-0.6,0-0.9,0.1-1.1,0.3c-0.2,0.3-0.3,0.3-1.2-0.1c-0.8-0.4-1.2-0.5-3-0.5
			c-1.9,0-2.1,0-3.2,0.6c-1.4,0.8-2.5,2.1-3.1,3.6c-0.5,1.6-0.4,4.7,0.2,5.8c0.9,1.7,2.1,2.7,3.8,3.1
			C150.8,247.5,153.2,247.4,154.3,247L154.3,247z"/>
	</g>
	<g id="g2075">
		<path id="path159" class="st44" d="M149.7,191L149.7,191L149.7,191z"/>
		<path id="path309" class="st45" d="M129.9,220c0.2,2.2,1.7,3.2,3.4,3.9c38-16,41.1-14.2,52.4-21.9c42.1-28.6,43.6-79.7,28.4-116.4
			l-3.2,2.9c7.5,13.7,19.5,65.5-16.8,102.8C187.7,197.9,161.2,214.2,129.9,220L129.9,220z"/>
		<g id="g399">
			<path id="path311" class="st46" d="M181.4,74c11.5,0.1,23.3-1.9,33,16.5C203.1,94.9,192,90.9,181.4,74L181.4,74z"/>
			<g id="g317">
				<path id="path313" class="st47" d="M181.4,74c16.9,10.3,23.8,8.8,32.9,16.4"/>
				<path id="path315" class="st48" d="M185.1,79.3c1.5,0.1,3,0,3.9-1.1c-0.4-1.7-1.7-2.9-2.7-4.3 M187.5,82.3c2,0.2,4,0.1,6.1-1.9
					c-1.1-2.2-2.8-4.3-4.5-6.4 M190.5,85.4c4.2,1,7.3-2.3,7.3-3.2l-3.9-7.8 M195.2,88.9c3.1-0.5,5.7-1.9,7.5-4.9
					c-2.5-5.8-3.6-6.9-5-8.8"/>
			</g>
			<path id="path319" class="st46" d="M167.7,209.6c19.1-2.7,25.3-14.6,19.3-31.3C181.9,192.3,153.9,196.8,167.7,209.6z"/>
			<g id="g325">
				<path id="path321" class="st47" d="M167.8,209c11.3-7.8,19.2-17.3,19.2-30.7"/>
				<path id="path323" class="st48" d="M184.5,182.7c0.4,1,0.6,3.4,0.7,6.1 M182.4,194.6c0.9-4.8,0.6-7.6-0.3-9.3 M178.7,188.2
					c1.6,6.1-0.2,8.5-0.7,12.2 M173,192.4c1.9,7.6,1,8.8,1,11.9 M184.4,190.8c1.7-0.2,3.3-0.3,4.7-2"/>
			</g>
			<path id="path327" class="st46" d="M167.8,209c21.8-27.2,41.8-13.5,49.3-9.6C187.6,223.3,178.2,208.8,167.8,209z"/>
			<g id="g333">
				<path id="path329" class="st47" d="M167.8,209c15.8-6.3,31.9-10.8,49.3-9.6"/>
				<path id="path331" class="st48" d="M209.2,195.4c-2.4,1-3,2.5-3.8,4c1.8,1.3,3,2.7,7,3.6 M205,193.8c-2.2,1.6-4.2,3.4-5.7,6.2
					c2.9,1.8-0.3,1.8,9.6,5.4 M200.9,192.9c-4.6,2.4-7.5,5.2-8.2,8.3c3.1,4.5,9.1,6.7,11,7.3 M193.3,192.7c-1.9,1.6-3.5,1.9-6.6,10
					c3.2,3.2,5.6,7,10.6,8.7 M184.1,195.3c-1.9,1.5-3.7,3.4-4.5,9.5c2.6,2.8,1.9,5.4,9.2,8.4"/>
			</g>
			<path id="path335" class="st49" d="M196,190.3c7.3-0.9,24.1-15.4,5.9-39.9C188,171.8,195,179,196,190.3z"/>
			<g id="g341">
				<path id="path337" class="st47" d="M196,190.3c7.8-13.6,6.1-26.7,5.9-39.9"/>
				<path id="path339" class="st50" d="M199.2,154.8c0.7,1.9,1.7,3.4,2.9,4.4c1.7-0.7,2.5-2.1,3.3-3.5 M197.5,158.1
					c1.7,2.9,3.2,4.2,4.8,5.7 M195.4,162.9c1.9,2.5,4,4.9,6.6,6.5c3-0.6,5.6-2.6,7.1-5.3 M194.3,166.6c2,3,3.9,6.1,7.3,7.3
					 M201.3,175.3c2.8-1.7,5.2-1.3,8.7-6.1 M202.2,164.9c2.4-1.2,4.1-3,5.3-5.2 M200.1,180.5c3.4-0.2,6.4-1.5,9.3-3.9"/>
			</g>
			<path id="path343" class="st46" d="M198.7,189.7c6.1,3.3,28.6,0.5,31.7-30.5C205.3,169.7,205.6,179.6,198.7,189.7z"/>
			<g id="g349">
				<path id="path345" class="st47" d="M198.7,189.7c15.1-7.1,22.8-19.2,31.7-30.5"/>
				<path id="path347" class="st48" d="M225.3,161.5c-0.7,2-1.1,3.8-0.8,5.4c1.8,0.4,3.3-0.4,4.9-1.2 M221.7,163.4
					c-0.7,3.4-0.4,5.4-0.3,7.5 M216.8,166.3c-0.3,3.2-0.4,6.3,0.6,9.2c2.7,1.1,5.6,1,8.9-0.5 M213.5,168.7
					c-0.5,3.6-1.2,7.3,0.5,10.2 M212.9,180c3.3,0.1,4.8,1.8,10.7-0.4 M220.6,171.8c2.6,0.4,5.1-0.2,7.5-1.5 M208.5,173.6
					c-1.4,1.7-2.3,4.2-0.1,10.2c2.6,1.7,5.8,2.4,9.6,1.8"/>
			</g>
			<path id="path351" class="st46" d="M198.8,93.5c10.3,5.2,21.8,8.5,22.4,29.3C209.1,121.7,200.9,113.3,198.8,93.5z"/>
			<g id="g357">
				<path id="path353" class="st47" d="M198.8,93.5c10.6,16.7,17.6,18.4,22.4,29.2"/>
				<path id="path355" class="st48" d="M199.8,99.9c1.3,0.8,2.7,1.3,4,0.8c0.4-1.7-0.2-3.4-0.6-5 M200.7,103.7
					c1.7,1.1,3.6,1.8,6.3,1c0-2.5-0.6-5.1-1.2-7.7 M202,107.7c3.3,2.7,7.6,1.1,7.9,0.3l-0.1-8.8 M204.7,113c3,0.9,6,0.8,8.9-1.2
					c0.3-6.3-0.3-7.8-0.6-10.2 M218.9,118.4c0.2-2.1,0.3-0.7,0.6-6.6"/>
			</g>
			<path id="path359" class="st51" d="M206,123c6.9,8.6,15.6,16.1,7.9,34.5C203.9,151.8,200.1,141.2,206,123z"/>
			<g id="g365">
				<path id="path361" class="st47" d="M206,123c2.7,18.8,8,23.1,8,34.4"/>
				<path id="path363" class="st52" d="M204.4,129c0.9,1.2,1.8,2.2,3.2,2.2c1.1-1.4,1.1-3,1.5-4.6 M203.7,132.6c1,1.6,2.4,3,5.1,3.4
					c1-2.2,1.5-4.7,2-7.2 M203.3,136.7c1.8,3.7,6.1,4,6.8,3.5l3.4-7.7 M203.5,142.4c2.3,2,4.9,3.1,8.2,2.5c2.7-5.4,2.8-6.9,3.4-9.1
					 M213.7,152.8c1-1.8,0.6-0.5,3.1-5.6"/>
			</g>
			<path id="path367" class="st46" d="M215.1,157.9c12.9,1,20.1-8.9,19-34.6C219.4,129.8,211.9,140.6,215.1,157.9z"/>
			<g id="g373">
				<path id="path369" class="st47" d="M234.1,123.2c-9.9,10.6-12.1,32.7-19,34.6"/>
				<path id="path371" class="st48" d="M215,144.2c-1,0.4-0.2,4.6,5.1,8.1 M220.6,151c3.3,1,6.6,0,9.9-1.6 M218.7,135.2
					c1.3,3.5,0.3,6,4.1,10.5 M223.1,144.8c2.5,0.8,7.3-0.5,9.6-1.6 M222.3,130.9c-0.4,5.5,1.1,7.8,2.4,9.8l8.9-2.1 M225.5,128.2
					c0.1,2.4-0.5,4.5,1.3,7.4c1.7-0.2,4.2-1.1,7.4-2.5 M228.2,126.4c0,0.9-0.2,1.7,0.8,4.4c2.5,0.5,3.1-1,5.2-1.6"/>
			</g>
			<path id="path375" class="st46" d="M227.2,85.2c-10.7,11.7-9.8,24.4-6.2,37.4C240,122.7,228.9,107,227.2,85.2L227.2,85.2z"/>
			<g id="g381">
				<path id="path377" class="st53" d="M221.1,122.7c4-2.2-0.5-26.4,6.1-37.4"/>
				<path id="path379" class="st54" d="M218.6,109.6c1.7,2.3,3.2,3,4.5,2.9c3.5,1.3,6.2,0.2,8.6-1.6 M218.8,102.8
					c1.2,1.7,2.5,3.2,4.4,3.4c1.7,0.4,3.4,0.8,7.4-1.2 M219.9,97.8c1.2,2.3,2.4,3.2,3.6,3.8l6.2-1.1 M221.2,94.1l2.6,3.2l4.9-1.6
					 M223.1,90.7l1.5,2l3.5-0.6"/>
			</g>
			<path id="path383" class="st51" d="M208.7,54.2c-6.9,13.3-2.7,24.6,4.2,35.4C230.8,84.7,216.2,73.4,208.7,54.2z"/>
			<g id="g389">
				<path id="path385" class="st55" d="M213.1,89.5c3.2-3-7.5-23.7-4.3-35.4"/>
				<path id="path387" class="st56" d="M207.2,78.4c2.2,1.7,3.8,1.9,5,1.5c3.6,0.3,5.9-1.4,7.7-3.6 M205.6,72.1
					c1.6,1.2,3.2,2.2,5.1,1.9c1.7-0.1,3.4-0.2,6.6-2.9 M205.2,67.4c1.8,1.8,3.1,2.3,4.4,2.5l5.6-2.6 M205.5,63.7l3.3,2.3l4.1-2.7
					 M206.3,60.1l1.9,1.5l3.1-1.4"/>
			</g>
			<path id="path391" class="st46" d="M176.4,55.8c32.1,0.5,26.7,14.2,31.5,23.5C183.5,72.1,181.9,63.8,176.4,55.8z"/>
			<g id="g397">
				<path id="path393" class="st53" d="M176.4,55.8c18.7,9.2,23.8,16.1,31.5,23.5"/>
				<path id="path395" class="st54" d="M179,60c2.2,0.5,3.6,0.1,5.2,0c0.3-1.1,0.2-2.3-0.3-3.8 M180.8,62.7l7.8-0.1
					c0.6-1.6,0.3-3.5-1.1-5.9 M183.3,66l8.7-1c1.5-2.1,0.9-4.7-0.2-7.4 M185.8,68.5c2.6,0.6,5.5,0.6,9.4-1.2 M195.9,67.9
					c2.4-3.7,1.4-6.1,0.6-8.6 M191.5,72.6c5.3,0.1,6.6-0.6,8.3-1.3c2.3-2.3,2.1-4.8,2.5-7.3"/>
			</g>
		</g>
		<path id="path401" class="st57" d="M203.3,181.1c1.5,1.1,1.8,3.1,0.7,4.6c-1.1,1.5-3.1,1.8-4.6,0.8c-1.5-1.1-1.8-3.1-0.7-4.6
			C199.8,180.4,201.8,180,203.3,181.1z"/>
		<g id="use403">
			<path id="c" class="st58" d="M199.4,183.1c1.4-3,5.1-0.9,4,1.5C202.8,183.4,201.3,181.8,199.4,183.1z"/>
		</g>
		<g id="use405">
			<path id="d" class="st59" d="M197.7,180c1,0.7,1.2,2,0.5,3s-2,1.2-3,0.5c0,0,0,0-0.1,0c-1-0.7-1.2-2-0.5-3
				C195.3,179.5,196.6,179.3,197.7,180C197.6,180,197.7,180,197.7,180z"/>
		</g>
		<g id="use407">
			<path id="e" class="st58" d="M195.1,181.3c0.9-1.9,3.3-0.6,2.5,1C197.4,181.5,196.4,180.5,195.1,181.3z"/>
		</g>
		<g id="use409">
			<path class="st59" d="M201.3,176.8c1,0.7,1.2,2,0.5,3c-0.7,1-2,1.2-3,0.5c0,0,0,0-0.1,0c-1-0.7-1.2-2-0.5-3
				S200.3,176.1,201.3,176.8C201.2,176.7,201.3,176.8,201.3,176.8z"/>
		</g>
		<g id="use411">
			<path class="st58" d="M198.8,178c0.9-1.9,3.3-0.6,2.5,1C201,178.2,200,177.2,198.8,178z"/>
		</g>
		<g id="use413">
			<path class="st59" d="M206.1,177.6c1,0.7,1.2,2,0.5,3s-2,1.2-3,0.5c0,0,0,0-0.1,0c-1-0.7-1.2-2-0.5-3S205.1,176.9,206.1,177.6
				C206,177.6,206.1,177.6,206.1,177.6z"/>
		</g>
		<g id="use415">
			<path class="st58" d="M203.6,178.9c0.9-1.9,3.3-0.6,2.5,1C205.8,179.1,204.8,178.1,203.6,178.9z"/>
		</g>
		<g id="use417">
			<path class="st59" d="M208.4,182.1c1,0.7,1.2,2,0.5,3c-0.7,1-2,1.2-3,0.5c0,0,0,0-0.1,0c-1-0.7-1.2-2-0.5-3
				S207.3,181.4,208.4,182.1C208.3,182.1,208.3,182.1,208.4,182.1z"/>
		</g>
		<g id="use419">
			<path class="st58" d="M205.8,183.4c0.9-1.9,3.3-0.6,2.5,1C208.1,183.6,207.1,182.6,205.8,183.4z"/>
		</g>
		<g id="use421">
			<path id="f" class="st59" d="M206.1,186.4c0.9,0.7,1.1,2,0.4,3c-0.7,0.9-2,1.1-2.9,0.5c-1-0.7-1.2-2-0.5-3
				S205.1,185.7,206.1,186.4C206.1,186.4,206.1,186.4,206.1,186.4z"/>
		</g>
		<g id="use423">
			<path class="st58" d="M203.6,187.7c0.9-1.9,3.3-0.6,2.5,1C205.8,187.9,204.8,186.9,203.6,187.7z"/>
		</g>
		<g id="use425">
			<path class="st59" d="M201.4,187.6c1,0.7,1.2,2,0.5,3c-0.7,1-2,1.2-3,0.5c0,0,0,0-0.1,0c-1-0.7-1.2-2-0.5-3
				S200.4,186.9,201.4,187.6C201.4,187.6,201.4,187.6,201.4,187.6z"/>
		</g>
		<g id="use427">
			<path class="st58" d="M198.9,188.9c0.9-1.9,3.3-0.6,2.5,1C201.1,189,200.2,188,198.9,188.9z"/>
		</g>
		<g id="use429">
			<path class="st59" d="M197.9,184.7c1,0.7,1.2,2,0.5,3c-0.7,1-2,1.2-3,0.5c0,0,0,0-0.1,0c-1-0.7-1.2-2-0.5-3
				S196.8,184,197.9,184.7C197.8,184.6,197.9,184.7,197.9,184.7z"/>
		</g>
		<g id="use431">
			<path class="st58" d="M195.3,185.9c0.9-1.9,3.3-0.6,2.5,1C197.6,186.1,196.6,185.1,195.3,185.9z"/>
		</g>
		<path id="path433" class="st57" d="M218.3,150.5c1.5,1.1,1.8,3.1,0.8,4.6c-1.1,1.5-3.1,1.8-4.6,0.8c0,0,0,0,0,0
			c-1.5-1.1-1.8-3.1-0.8-4.6C214.7,149.8,216.8,149.5,218.3,150.5C218.3,150.5,218.3,150.5,218.3,150.5z"/>
		<g id="use435">
			<path class="st58" d="M214.3,152.5c1.4-3,5.1-0.9,4,1.5C217.8,152.8,216.3,151.2,214.3,152.5z"/>
		</g>
		<g id="use437">
			<path class="st59" d="M212.6,149.5c1,0.7,1.2,2,0.5,3c-0.7,1-2,1.2-3,0.5c0,0,0,0-0.1,0c-1-0.7-1.2-2-0.5-3
				S211.6,148.7,212.6,149.5C212.6,149.4,212.6,149.4,212.6,149.5z"/>
		</g>
		<g id="use439">
			<path class="st58" d="M210.1,150.7c0.9-1.9,3.3-0.6,2.5,1C212.3,150.9,211.4,149.9,210.1,150.7z"/>
		</g>
		<g id="use441">
			<path class="st59" d="M216.3,146.2c1,0.7,1.2,2,0.5,3s-2,1.2-3,0.5c0,0,0,0-0.1,0c-1-0.7-1.2-2-0.5-3S215.2,145.5,216.3,146.2
				C216.2,146.2,216.2,146.2,216.3,146.2z"/>
		</g>
		<g id="use443">
			<path class="st58" d="M213.7,147.5c0.9-1.9,3.3-0.6,2.5,1C216,147.7,215,146.7,213.7,147.5z"/>
		</g>
		<g id="use445">
			<path id="g" class="st59" d="M221.1,147.1c0.9,0.7,1.1,2,0.4,3c-0.7,0.9-2,1.1-2.9,0.5c-0.9-0.7-1.1-2-0.4-3
				C218.8,146.6,220.1,146.4,221.1,147.1z"/>
		</g>
		<g id="use447">
			<path id="h" class="st58" d="M218.5,148.3c0.9-1.9,3.3-0.6,2.5,1C220.8,148.5,219.8,147.5,218.5,148.3z"/>
		</g>
		<g id="use449">
			<path class="st59" d="M223.3,151.6c0.9,0.7,1.1,2,0.4,3c-0.7,0.9-2,1.1-2.9,0.5c-0.9-0.7-1.1-2-0.4-3
				C221.1,151.1,222.4,150.9,223.3,151.6z"/>
		</g>
		<g id="use451">
			<path class="st58" d="M220.8,152.8c0.9-1.9,3.3-0.6,2.5,1C223,153,222.1,152,220.8,152.8z"/>
		</g>
		<g id="use453">
			<path class="st59" d="M221.1,155.8c0.9,0.7,1.1,2,0.4,3c-0.7,0.9-2,1.1-2.9,0.5c-0.9-0.7-1.1-2-0.4-3
				C218.9,155.4,220.1,155.2,221.1,155.8z"/>
		</g>
		<g id="use455">
			<path class="st58" d="M218.6,157.1c0.9-1.9,3.3-0.6,2.5,1C220.8,157.3,219.8,156.3,218.6,157.1z"/>
		</g>
		<g id="use457">
			<path class="st59" d="M216.4,157c0.9,0.7,1.1,2,0.4,3c-0.7,0.9-2,1.1-2.9,0.5c-0.9-0.7-1.1-2-0.4-3
				C214.2,156.6,215.5,156.4,216.4,157z"/>
		</g>
		<g id="use459">
			<path class="st58" d="M213.9,158.3c0.9-1.9,3.3-0.6,2.5,1C216.1,158.5,215.1,157.5,213.9,158.3z"/>
		</g>
		<g id="use461">
			<path class="st59" d="M212.8,154.1c0.9,0.7,1.1,2,0.4,3c-0.7,0.9-2,1.1-2.9,0.5c-0.9-0.7-1.1-2-0.4-3
				C210.6,153.7,211.9,153.5,212.8,154.1z"/>
		</g>
		<g id="use463">
			<path class="st58" d="M210.3,155.4c0.9-1.9,3.3-0.6,2.5,1C212.5,155.6,211.6,154.6,210.3,155.4z"/>
		</g>
		<path id="path465" class="st57" d="M212.4,82.4c1.6,1,2,3,1.1,4.6c-1,1.6-3,2-4.6,1.1l0,0c-1.6-1-2-3-1.1-4.6
			C208.8,82,210.9,81.5,212.4,82.4z"/>
		<path id="path467" class="st60" d="M208.6,84.7c1.2-3.1,5-1.3,4.1,1.2C212.1,84.7,210.5,83.3,208.6,84.7z"/>
		<g id="use469">
			<path id="i" class="st59" d="M206.7,81.8c1,0.6,1.3,1.9,0.8,2.9c-0.6,1-1.9,1.3-2.9,0.8c0,0,0,0-0.1,0c-1-0.6-1.3-2-0.6-2.9
				C204.5,81.5,205.7,81.2,206.7,81.8z"/>
		</g>
		<g id="use471">
			<path id="j" class="st58" d="M204.3,83.2c0.7-2,3.2-0.8,2.6,0.8C206.5,83.2,205.5,82.3,204.3,83.2z"/>
		</g>
		<g id="use473">
			<path class="st59" d="M210.1,78.3c1,0.6,1.3,1.9,0.8,2.9c-0.6,1-1.9,1.3-2.9,0.8c0,0,0,0-0.1,0c-1-0.6-1.3-2-0.6-2.9
				C207.8,78,209.1,77.7,210.1,78.3z"/>
		</g>
		<g id="use475">
			<path class="st58" d="M207.7,79.7c0.7-2,3.2-0.8,2.6,0.8C209.9,79.7,208.9,78.8,207.7,79.7z"/>
		</g>
		<g id="use477">
			<path class="st59" d="M215,78.8c1,0.6,1.3,1.9,0.8,2.9c-0.6,1-1.9,1.3-2.9,0.8c0,0,0,0-0.1,0c-1-0.6-1.3-2-0.6-2.9
				C212.7,78.5,214,78.2,215,78.8z"/>
		</g>
		<g id="use479">
			<path class="st58" d="M212.5,80.2c0.7-2,3.2-0.8,2.6,0.8C214.7,80.2,213.7,79.3,212.5,80.2z"/>
		</g>
		<g id="use481">
			<path id="k" class="st59" d="M217.5,83.1c1,0.6,1.3,1.9,0.8,2.9c-0.6,1-1.9,1.3-2.9,0.8c0,0,0,0-0.1,0c-1-0.6-1.3-1.9-0.8-2.9
				C215.2,82.8,216.5,82.4,217.5,83.1C217.5,83.1,217.5,83.1,217.5,83.1z"/>
		</g>
		<g id="use483">
			<path class="st58" d="M215.1,84.5c0.7-2,3.2-0.8,2.6,0.8C217.3,84.6,216.3,83.6,215.1,84.5z"/>
		</g>
		<g id="use485">
			<path class="st59" d="M215.6,87.5c1,0.6,1.3,1.9,0.8,2.9c-0.6,1-1.9,1.3-2.9,0.8c0,0,0,0-0.1,0c-1-0.6-1.3-1.9-0.8-2.9
				C213.2,87.2,214.5,86.9,215.6,87.5C215.6,87.5,215.6,87.5,215.6,87.5z"/>
		</g>
		<g id="use487">
			<path class="st58" d="M213.2,89c0.7-2,3.2-0.8,2.6,0.8C215.4,89,214.4,88.1,213.2,89z"/>
		</g>
		<g id="use489">
			<path class="st59" d="M211,89c1,0.6,1.3,1.9,0.8,2.9c-0.6,1-1.9,1.3-2.9,0.8c0,0,0,0-0.1,0c-1-0.6-1.3-2-0.6-2.9
				C208.8,88.8,210,88.5,211,89z"/>
		</g>
		<g id="use491">
			<path class="st58" d="M208.6,90.5c0.7-2,3.2-0.8,2.6,0.8C210.8,90.5,209.8,89.6,208.6,90.5z"/>
		</g>
		<g id="use493">
			<path class="st59" d="M207.3,86.4c1,0.6,1.3,1.9,0.8,2.9c-0.6,1-1.9,1.3-2.9,0.8c0,0,0,0-0.1,0c-1-0.6-1.3-2-0.6-2.9
				C205,86.1,206.3,85.8,207.3,86.4z"/>
		</g>
		<g id="use495">
			<path class="st58" d="M204.8,87.8c0.7-2,3.2-0.8,2.6,0.8C207,87.8,206,86.9,204.8,87.8z"/>
		</g>
		<path id="path497" class="st57" d="M221.6,115.1c1.5,1.1,1.8,3.1,0.7,4.6c-1.1,1.5-3.1,1.8-4.6,0.8c-1.5-1.1-1.8-3.1-0.8-4.6
			C218,114.4,220.1,114,221.6,115.1C221.6,115.1,221.6,115.1,221.6,115.1z"/>
		<g id="use499">
			<path class="st58" d="M217.7,117.1c1.4-3,5.1-0.9,4,1.5C221.1,117.4,219.6,115.8,217.7,117.1z"/>
		</g>
		<g id="use501">
			<path class="st59" d="M216,114c0.9,0.7,1.1,2,0.4,3c-0.7,0.9-2,1.1-2.9,0.5c-0.9-0.7-1.1-2-0.4-3C213.7,113.6,215,113.4,216,114z
				"/>
		</g>
		<g id="use503">
			<path class="st58" d="M213.4,115.3c0.9-1.9,3.3-0.6,2.5,1C215.7,115.5,214.7,114.5,213.4,115.3z"/>
		</g>
		<g id="use505">
			<path class="st59" d="M219.6,110.8c0.9,0.7,1.1,2,0.4,3c-0.7,0.9-2,1.1-2.9,0.5c-1-0.7-1.2-2-0.5-3
				C217.2,110.3,218.6,110.1,219.6,110.8C219.5,110.8,219.6,110.8,219.6,110.8z"/>
		</g>
		<g id="use507">
			<path class="st58" d="M217.1,112.1c0.9-1.9,3.3-0.6,2.5,1C219.3,112.3,218.3,111.3,217.1,112.1z"/>
		</g>
		<g id="use509">
			<path id="l" class="st59" d="M224.4,111.6c1,0.7,1.2,2,0.5,3c-0.7,1-2,1.2-3,0.5c0,0,0,0-0.1,0c-0.9-0.7-1.1-2-0.4-3
				C222.2,111.2,223.4,111,224.4,111.6z"/>
		</g>
		<g id="use511">
			<path class="st58" d="M221.9,112.9c0.9-1.9,3.3-0.6,2.5,1C224.1,113.1,223.1,112.1,221.9,112.9z"/>
		</g>
		<g id="use513">
			<path class="st59" d="M226.7,116.1c1,0.7,1.2,2,0.5,3c-0.7,1-2,1.2-3,0.5c0,0,0,0-0.1,0c-0.9-0.7-1.1-2-0.4-3
				C224.4,115.7,225.7,115.5,226.7,116.1z"/>
		</g>
		<g id="use515">
			<path class="st58" d="M224.1,117.4c0.9-1.9,3.3-0.6,2.5,1C226.4,117.6,225.4,116.6,224.1,117.4z"/>
		</g>
		<g id="use517">
			<path class="st59" d="M224.4,120.4c0.9,0.7,1.1,2,0.4,3c-0.7,0.9-2,1.1-2.9,0.5c-0.9-0.7-1.1-2-0.4-3
				C222.2,120,223.5,119.8,224.4,120.4z"/>
		</g>
		<g id="use519">
			<path class="st58" d="M221.9,121.7c0.9-1.9,3.3-0.6,2.5,1C224.1,121.9,223.1,120.9,221.9,121.7z"/>
		</g>
		<g id="use521">
			<path class="st59" d="M219.7,121.6c0.9,0.7,1.1,2,0.4,3c-0.7,0.9-2,1.1-2.9,0.5c-0.9-0.7-1.1-2-0.4-3
				C217.5,121.2,218.8,121,219.7,121.6z"/>
		</g>
		<g id="use523">
			<path class="st58" d="M217.2,122.9c0.9-1.9,3.3-0.6,2.5,1C219.4,123.1,218.5,122.1,217.2,122.9z"/>
		</g>
		<g id="use525">
			<path class="st59" d="M216.2,118.7c0.9,0.7,1.1,2,0.4,3c-0.7,0.9-2,1.1-2.9,0.5c-0.9-0.7-1.1-2-0.4-3
				C213.9,118.3,215.2,118,216.2,118.7z"/>
		</g>
		<g id="use527">
			<path class="st58" d="M213.6,120c0.9-1.9,3.3-0.6,2.5,1C215.9,120.1,214.9,119.1,213.6,120z"/>
		</g>
		<path id="path529" class="st57" d="M174.6,205c0,1.8-1.5,3.3-3.3,3.3s-3.3-1.5-3.3-3.3s1.5-3.3,3.3-3.3S174.6,203.2,174.6,205z"/>
		<path id="path531" class="st60" d="M170.8,202.9c3.2-0.6,3.7,3.6,1.1,4.1C172.5,205.9,172.9,203.8,170.8,202.9z"/>
		<g id="use533">
			<path id="m" class="st59" d="M172.2,199.8c0,1.2-1,2.1-2.1,2.1c-1.2,0-2.1-1-2.1-2.1c0,0,0,0,0,0c0-1.2,1-2.1,2.1-2.1
				C171.3,197.7,172.2,198.6,172.2,199.8C172.2,199.8,172.2,199.8,172.2,199.8z"/>
		</g>
		<g id="use535">
			<path id="n" class="st58" d="M169.7,198.5c2.1-0.4,2.4,2.3,0.7,2.6C170.9,200.4,171.1,199,169.7,198.5z"/>
		</g>
		<g id="use537">
			<path class="st59" d="M177,200.8c0,1.2-1,2.1-2.1,2.1c-1.2,0-2.1-1-2.1-2.1c0,0,0,0,0,0c0-1.2,1-2.1,2.1-2.1
				C176,198.7,177,199.6,177,200.8C177,200.8,177,200.8,177,200.8z"/>
		</g>
		<g id="use539">
			<path id="o" class="st58" d="M174.5,199.5c2.1-0.4,2.4,2.3,0.7,2.6C175.6,201.4,175.9,200.1,174.5,199.5z"/>
		</g>
		<g id="use541">
			<path class="st59" d="M179.1,205.2c0,1.2-1,2.1-2.1,2.1c-1.2,0-2.1-1-2.1-2.1c0,0,0,0,0,0c0-1.2,1-2.1,2.1-2.1
				S179.1,204,179.1,205.2C179.1,205.2,179.1,205.2,179.1,205.2z"/>
		</g>
		<g id="use543">
			<path class="st58" d="M176.6,203.9c2.1-0.4,2.4,2.3,0.7,2.6C177.7,205.8,178,204.4,176.6,203.9z"/>
		</g>
		<g id="use545">
			<path class="st59" d="M176.8,209.7c0,1.2-1,2.1-2.1,2.1c-1.2,0-2.1-1-2.1-2.1c0,0,0,0,0,0c0-1.2,1-2.1,2.1-2.1
				C175.8,207.6,176.8,208.5,176.8,209.7C176.8,209.7,176.8,209.7,176.8,209.7z"/>
		</g>
		<g id="use547">
			<path class="st58" d="M174.3,208.4c2.1-0.4,2.4,2.3,0.7,2.6C175.4,210.3,175.7,208.9,174.3,208.4z"/>
		</g>
		<g id="use549">
			<path class="st59" d="M172,210.4c0,1.2-1,2.1-2.1,2.1c-1.2,0-2.1-1-2.1-2.1c0,0,0,0,0,0c0-1.2,1-2.1,2.1-2.1
				C171,208.2,172,209.2,172,210.4C172,210.4,172,210.4,172,210.4z"/>
		</g>
		<g id="use551">
			<path class="st58" d="M169.5,209c2.1-0.4,2.4,2.3,0.7,2.6C170.6,211,170.9,209.6,169.5,209z"/>
		</g>
		<g id="use553">
			<path class="st59" d="M168.3,207.3c0,1.2-1,2.1-2.1,2.1c-1.2,0-2.1-1-2.1-2.1c0,0,0,0,0,0c0-1.2,1-2.1,2.1-2.1
				C167.3,205.1,168.3,206.1,168.3,207.3C168.3,207.2,168.3,207.3,168.3,207.3z"/>
		</g>
		<g id="use555">
			<path class="st58" d="M165.8,205.9c2.1-0.4,2.4,2.3,0.7,2.6C166.9,207.8,167.2,206.5,165.8,205.9z"/>
		</g>
		<g id="use557">
			<path class="st59" d="M168.6,202.7c0,1.2-1,2.1-2.1,2.1c-1.2,0-2.1-1-2.1-2.1c0,0,0,0,0,0c0-1.2,1-2.1,2.1-2.1
				C167.6,200.5,168.6,201.5,168.6,202.7C168.6,202.7,168.6,202.7,168.6,202.7z"/>
		</g>
		<g id="use559">
			<path class="st58" d="M166.1,201.3c2.1-0.4,2.4,2.3,0.7,2.6C167.2,203.3,167.5,201.9,166.1,201.3z"/>
		</g>
		<g id="g565">
			<path id="path561" class="st61" d="M158.1,207.2h3.8c0.5,0,0.9,0.4,0.9,0.9c0,0,0,0,0,0v10.3c0,0.5-0.4,0.9-0.9,0.9c0,0,0,0,0,0
				h-3.8c-0.5,0-0.9-0.4-0.9-0.9c0,0,0,0,0,0V208C157.2,207.6,157.6,207.2,158.1,207.2C158.1,207.2,158.1,207.2,158.1,207.2z"/>
			<path id="path563" class="st62" d="M161.2,208.5c0.4,0,0.7,0.3,0.7,0.7v8.2c0,0.4-0.3,0.7-0.7,0.7V208.5z"/>
		</g>
		<g id="g615">
			<g id="g571">
				<path id="path567" class="st63" d="M205.1,78.8c-0.3,0.3-0.6,1.2-1.1,1.2C203.1,80,202.3,78.6,205.1,78.8
					c-2.3-0.7-1.8-1-1.7-1.2C203.8,76.8,204.9,77.7,205.1,78.8C204.3,75.2,207.8,76.8,205.1,78.8C207.7,76.5,208,80,205.1,78.8
					C207.8,79.7,204,81.5,205.1,78.8z M202.4,81c0.4-0.1,1.3-0.6,1.6-0.4C204.8,81.1,204.7,82.5,202.4,81c1.7,1.6,1.1,1.8,0.9,1.9
					C202.6,83.4,202,82.1,202.4,81C200.6,84.4,199.6,82,202.4,81C199,81.9,200.3,79,202.4,81C200.5,78.9,204.6,79.2,202.4,81z
					 M201.5,72.3c-0.3,0.2-1.3,0.4-1.5,0.8C199.8,73.9,200.7,75,201.5,72.3c-0.2,2.3,0.2,2.1,0.5,2
					C202.9,74.2,202.5,72.9,201.5,72.3C204.3,74.9,204.4,71.3,201.5,72.3C204.7,70.8,201.8,69.4,201.5,72.3
					C201.7,69.5,198.7,72.3,201.5,72.3z M205.7,74c-0.2,0.3-1,0.9-0.9,1.4C204.9,76.3,206.3,76.7,205.7,74c0.9,2.2,1.2,1.7,1.4,1.6
					C207.8,75.1,206.8,74.1,205.7,74C209.5,73.7,207.7,71.8,205.7,74C207.8,71.2,204.6,71.3,205.7,74
					C204.5,71.4,203.2,75.4,205.7,74z"/>
				<path id="path569" class="st63" d="M201.2,77.2c-0.3-0.2-1.2-0.6-1.3-1C199.8,75.2,200.9,74.4,201.2,77.2c0.2-2.3,0.7-2,0.9-1.9
					C202.9,75.6,202.2,76.8,201.2,77.2C205,76.4,203.8,78.7,201.2,77.2C204,79.3,200.9,80.1,201.2,77.2
					C200.8,80,198.4,76.6,201.2,77.2z M210.4,75.8c0-0.3-0.2-1.2,0.1-1.4C211.3,73.8,212.8,74.3,210.4,75.8c2.3-0.9,2.3-0.4,2.3-0.2
					C213,76.3,211.5,76.4,210.4,75.8C213.6,78.3,210.7,78.4,210.4,75.8C210.3,78.8,207.6,76.8,210.4,75.8
					C207.6,76.7,209.2,73.4,210.4,75.8z"/>
			</g>
			<path id="path573" class="st64" d="M223.9,107.6c-0.2,0.3-1,0.9-0.9,1.2C223.2,109.7,224.6,110.1,223.9,107.6
				c1,2,1.3,1.6,1.5,1.5C226.2,108.6,225.1,107.7,223.9,107.6C228,107.4,226,105.6,223.9,107.6C226.1,105.1,222.7,105.1,223.9,107.6
				C222.6,105.2,221.3,108.8,223.9,107.6z"/>
			<g id="g601">
				<g id="use575">
					<path id="p" class="st65" d="M217.8,109.4c-0.4-0.1-1.4,0-1.6-0.3C215.7,108.3,216.3,107,217.8,109.4c-0.9-2.2-0.3-2.1-0.1-2.1
						C218.6,107.1,218.6,108.5,217.8,109.4C220.8,106.9,220.8,109.6,217.8,109.4C221.2,109.9,218.9,112.1,217.8,109.4
						C218.7,112,215,110.1,217.8,109.4z"/>
				</g>
				<path id="path577" class="st63" d="M217.5,103.6c0.3,0.2,0.9,1,1.3,1C219.7,104.4,220.2,103.1,217.5,103.6
					c2.2-0.8,1.8-1.1,1.6-1.3C218.6,101.5,217.6,102.4,217.5,103.6C217.3,99.7,215.3,101.5,217.5,103.6
					C214.7,101.4,214.7,104.6,217.5,103.6C214.8,104.7,218.7,106.1,217.5,103.6z"/>
				<g id="use579">
					<path id="q" class="st65" d="M212.8,111.1c-0.2,0.3-0.3,1.3-0.7,1.4C211.2,112.7,210.1,111.5,212.8,111.1c-2.4-0.1-2-0.5-2-0.8
						C211.1,109.5,212.3,110.1,212.8,111.1C211.1,107.8,214.9,108.5,212.8,111.1C214.8,108.3,215.9,111.5,212.8,111.1
						C215.6,111.4,212.4,114,212.8,111.1z"/>
				</g>
				<g id="use581">
					<path id="r" class="st65" d="M215,106.6c0.4,0,1.4,0.1,1.6-0.3C217.2,105.6,216.6,104.3,215,106.6c0.9-2.2,0.4-2.1,0.2-2.1
						C214.3,104.4,214.3,105.8,215,106.6C212.1,104.1,212,106.7,215,106.6C211.5,107.1,213.8,109.3,215,106.6
						C214,109.3,217.7,107.5,215,106.6z"/>
				</g>
				<g id="use583">
					<path id="s" class="st65" d="M220.2,105.3c-0.2,0.3-1,1-0.9,1.4C219.5,107.5,220.9,108,220.2,105.3c1,2.1,1.3,1.7,1.5,1.5
						C222.3,106.3,221.3,105.3,220.2,105.3C224,104.8,222.2,103,220.2,105.3C222.2,102.4,219,102.6,220.2,105.3
						C218.9,102.7,217.7,106.7,220.2,105.3z"/>
				</g>
				<path id="path585" class="st63" d="M211.8,144.7c-0.2,0.3-1,0.9-1,1.3C211,147,212.3,147.5,211.8,144.7c0.8,2.2,1.1,1.8,1.3,1.6
					C213.9,145.9,213,144.9,211.8,144.7C215.7,144.6,214,142.6,211.8,144.7C214.1,142,210.9,142,211.8,144.7
					C210.8,142.1,209.3,146,211.8,144.7z"/>
				<g id="use587">
					<path class="st65" d="M217.4,145.2c-0.4-0.1-1.4,0-1.6-0.3C215.3,144.1,215.9,142.8,217.4,145.2c-0.9-2.2-0.3-2.1-0.1-2.1
						C218.2,142.9,218.2,144.3,217.4,145.2C220.4,142.8,220.4,145.4,217.4,145.2C220.8,145.7,218.5,147.9,217.4,145.2
						C218.3,147.9,214.6,145.9,217.4,145.2z"/>
				</g>
				<path id="path589" class="st63" d="M218.5,139.2c-0.3,0.2-0.9,1-1.3,1C216.3,140.1,215.8,138.8,218.5,139.2
					c-2.2-0.8-1.8-1.1-1.6-1.3C217.4,137.2,218.4,138.1,218.5,139.2C218.7,135.4,220.7,137.1,218.5,139.2
					C221.2,137,221.3,140.2,218.5,139.2C221.1,140.3,217.2,141.8,218.5,139.2z"/>
				<g id="use591">
					<path class="st65" d="M222.1,145.8c-0.2,0.3-0.3,1.3-0.7,1.4C220.5,147.3,219.3,146.2,222.1,145.8c-2.4-0.1-2-0.5-2-0.8
						C220.4,144.1,221.6,144.7,222.1,145.8C220.4,142.5,224.2,143.1,222.1,145.8C224,142.9,225.2,146.1,222.1,145.8
						C224.9,146,221.7,148.6,222.1,145.8z"/>
				</g>
				<g id="use593">
					<path class="st65" d="M215,142c0.4,0,1.4,0.1,1.6-0.3C217.1,141,216.5,139.7,215,142c0.9-2.2,0.4-2.1,0.2-2.1
						C214.3,139.7,214.2,141.1,215,142C212.1,139.5,212,142.1,215,142C211.5,142.4,213.8,144.6,215,142
						C214,144.6,217.7,142.8,215,142z"/>
				</g>
				<g id="use595">
					<path class="st65" d="M219.1,142c-0.2,0.3-1,1-0.9,1.4C218.4,144.3,219.8,144.7,219.1,142c1,2.1,1.3,1.7,1.5,1.5
						C221.2,143,220.2,142.1,219.1,142C222.9,141.6,221,139.7,219.1,142C221.1,139.2,217.9,139.4,219.1,142
						C217.8,139.5,216.6,143.5,219.1,142z"/>
				</g>
				<path id="path597" class="st63" d="M209.1,180.6c0.4,0.1,1.3,0.5,1.6,0.3C211.5,180.4,211.4,179,209.1,180.6
					c1.6-1.7,1.1-1.8,0.9-1.9C209.3,178.2,208.7,179.5,209.1,180.6C207.3,177.2,206.3,179.6,209.1,180.6
					C205.7,179.7,207.1,182.6,209.1,180.6C207.2,182.7,211.4,182.3,209.1,180.6z M206.4,176c0.1,0.4-0.1,1.4,0.2,1.6
					C207.4,178,208.9,177.3,206.4,176c2.2,0.7,2.1,0.2,2.1-0.1C208.6,175.1,207.2,175.2,206.4,176
					C209.1,173.5,205.3,172.8,206.4,176C205.5,172.7,203.3,175.3,206.4,176C203.7,175.3,205.9,178.8,206.4,176z"/>
				<path id="path599" class="st63" d="M209.1,172.2c0.1,0.4,0.3,1.3,0.7,1.5C210.6,174,211.7,173.1,209.1,172.2
					c2.3,0.4,2.1-0.1,2.1-0.4C211.1,170.9,209.7,171.3,209.1,172.2C210.8,168.7,208.2,169.3,209.1,172.2
					C207.8,168.9,206.2,171.7,209.1,172.2C206.3,171.9,208.9,175.1,209.1,172.2z M204.9,173.1c0.4,0.1,1.2,0.6,1.6,0.4
					C207.3,173,207.3,171.6,204.9,173.1c1.7-1.6,1.2-1.7,1-1.9C205.1,170.7,204.6,172,204.9,173.1
					C203.2,169.6,202.1,172,204.9,173.1C201.6,172.1,202.8,175.1,204.9,173.1C202.9,175.1,207.1,174.9,204.9,173.1z M200.6,174.2
					c-0.3,0.2-1.2,0.7-1.2,1.1C199.3,176.2,200.5,177,200.6,174.2c0.3,2.3,0.7,2,1,1.9C202.4,175.8,201.7,174.6,200.6,174.2
					C204.5,174.8,203.2,172.5,200.6,174.2C203.4,172,200.3,171.3,200.6,174.2C200.1,171.4,197.9,174.9,200.6,174.2L200.6,174.2z
					 M209.9,176.3c-0.3,0.2-1.3,0.5-1.3,0.9C208.4,178.1,209.5,179,209.9,176.3c0.1,2.4,0.5,2,0.7,2
					C211.5,178,211,176.7,209.9,176.3C213.6,177.3,212.6,174.9,209.9,176.3C212.9,174.4,209.9,173.4,209.9,176.3
					C209.7,173.4,207.1,176.6,209.9,176.3L209.9,176.3z"/>
			</g>
			<path id="path603" class="st66" d="M181.4,209.2c0.3,0.5,1,1.8,1.6,1.8C184.3,211.1,185.5,209.4,181.4,209.2
				c3.5-0.5,2.9-1.1,2.8-1.4C183.7,206.5,181.9,207.6,181.4,209.2C182.3,203.5,178.9,205.4,181.4,209.2
				C178.1,205.1,177.1,209.8,181.4,209.2C177.2,210,182.4,213.3,181.4,209.2z"/>
			<path id="path605" class="st67" d="M179.2,202.6c-0.2,0.4-1.1,1.1-0.9,1.6C178.7,205.1,180.5,205.5,179.2,202.6
				c1.5,2.2,1.8,1.6,2,1.4C181.8,203.2,180.4,202.4,179.2,202.6C183.4,202.2,180.4,198.9,179.2,202.6
				C180.7,199,176.8,199.8,179.2,202.6C177.2,200,176.7,204.7,179.2,202.6z"/>
			<path id="path607" class="st68" d="M181,197.9c-0.1,0.5-0.5,1.8-0.2,2.2C181.6,201,183.4,200.7,181,197.9
				c2.5,1.9,2.5,1.2,2.7,0.9C184.1,197.8,182.4,197.3,181,197.9C185.2,195,181.9,194,181,197.9C181.6,193.3,178,195.5,181,197.9
				C177.9,195.7,179,201.2,181,197.9z"/>
			<path id="path609" class="st69" d="M187.3,198.1c0.3,0.4,0.9,1.7,1.5,1.7C190.2,199.9,191.4,198.4,187.3,198.1
				c3.5-0.3,2.9-0.9,2.8-1.2C189.7,195.8,187.9,196.6,187.3,198.1C188.5,193,185,194.6,187.3,198.1
				C184.3,194.3,183.1,198.4,187.3,198.1C183.2,198.6,188.2,201.9,187.3,198.1z"/>
			<path id="path611" class="st70" d="M175.5,196c-0.5,0-1.8-0.3-2.2,0.1C172.5,197.1,173.1,198.9,175.5,196
				c-1.6,2.8-0.8,2.7-0.5,2.8C176.1,199.2,176.4,197.3,175.5,196C179.1,199.9,179.6,196.3,175.5,196
				C180.2,196,177.5,192.7,175.5,196C177.3,192.6,172,194.5,175.5,196z"/>
			<path id="path613" class="st71" d="M185.3,202.8c-0.5-0.1-1.9-0.5-2.3-0.1C182.1,203.5,182.5,205.4,185.3,202.8
				c-2,2.7-1.2,2.7-0.9,2.8C185.6,206.1,186.1,204.2,185.3,202.8C188.5,207.1,189.5,203.6,185.3,202.8
				C190.2,203.2,187.7,199.5,185.3,202.8C187.5,199.5,181.8,200.8,185.3,202.8z"/>
		</g>
	</g>
</g>
</svg>
