<svg xmlns="http://www.w3.org/2000/svg" xmlns:xlink="http://www.w3.org/1999/xlink" width="657.173" height="755.21" viewBox="0 0 173.877 199.816" xmlns:v="https://vecta.io/nano"><style><![CDATA[.b{fill:#9a741c}.c{fill:#d7df23}.d{opacity:.999}.e{opacity:.98}.f{fill-rule:evenodd}.g{fill:#8d3803}.h{fill:#d78e55}.i{fill:#c92238}.j{fill:#f0536e}.k{stroke:#8f3b06}.l{stroke-width:.156}.m{fill:#ea8528}.n{fill:#f9c393}.o{fill:#fbe6d7}.p{fill:#915a26}.q{opacity:.981}.r{stroke-width:.265}.s{fill:#da251d}.t{fill:#00923f}.u{fill:#e7c21e}.v{fill:#ffe96b}.w{stroke-width:.556}]]></style><path d="M29.86-.189c0 5.069-2.278 20.464-22.395 35.553 12.595 31.792-12.219 56.757-5.953 96.55 8.73 55.442 54.655 40.996 85.426 67.902 30.771-26.907 76.697-12.46 85.427-67.902 6.266-39.793-18.548-64.757-5.953-96.55C146.294 20.275 144.016 4.88 144.016-.189L86.938 0z" class="s"/><path d="M34.084 4.534c-1.277 7.662-5.994 20.137-21.047 32.416 5.206 15.963 2.011 30.54-1.611 44.845-3.872 15.291-8.225 30.584-5.264 49.387 4.158 26.405 15.864 34.63 31.571 41.022 14.74 5.999 33.28 9.173 49.204 21.518 15.924-12.345 34.464-15.519 49.204-21.518 15.707-6.392 27.414-14.617 31.572-41.022 2.961-18.803-1.392-34.097-5.264-49.387-3.622-14.305-6.816-28.882-1.611-44.845-15.053-12.279-19.769-24.754-21.047-32.416l-52.839.175h-.031z" fill="#fff"/><path d="M37.298 8.5c-2.078 8.083-7.385 19.071-19.738 29.812 4.417 16.037 1.158 30.803-2.299 44.454-3.893 15.376-8.007 29.915-5.19 47.801 3.984 25.3 14.046 31.825 29.154 37.974 13.503 5.495 31.495 8.693 47.712 20.274 16.217-11.581 34.209-14.779 47.712-20.274 15.108-6.149 25.171-12.673 29.155-37.974 2.816-17.885-1.297-32.425-5.19-47.801-3.456-13.65-6.715-28.416-2.299-44.454-12.352-10.741-17.66-21.729-19.738-29.812l-49.611.164h-.058z" class="t"/><g class="d"><use xlink:href="#H" stroke="#986105" class="u w"/><g class="v"><use xlink:href="#I"/><use xlink:href="#J"/><use xlink:href="#K"/><use xlink:href="#L"/><use xlink:href="#M"/><use xlink:href="#N"/><path d="M43.681 102.389c-4.945-4.893-12.498-4.626-15.201-11.989 4.029 6.077 12.139 5.178 15.201 11.989z"/><use xlink:href="#O"/><use xlink:href="#P"/><use xlink:href="#Q"/></g></g><g transform="matrix(-1 0 0 1 174.72832 0)" class="d"><use xlink:href="#H" x="0.426" stroke="#986105" class="u w"/><g class="v"><use xlink:href="#I" x="0.426"/><use xlink:href="#J" x="0.426"/><use xlink:href="#K" x="0.426"/><use xlink:href="#L" x="0.426"/><use xlink:href="#M" x="0.426"/><use xlink:href="#N" x="0.426"/><path d="M44.107 102.389C39.162 97.495 31.61 97.762 28.907 90.4c4.029 6.077 12.139 5.178 15.201 11.989z"/><use xlink:href="#O" x="0.426"/><use xlink:href="#P" x="0.426"/><use xlink:href="#Q" x="0.426"/></g></g><path d="M36.434 130.166c2.019.474 4.074 18.275 29.599 25.747 2.402.577 4.076-3.033 5.398-3.094 1.429-.067 2.789 1.358 4.229 2.022 1.253.285 2.058-2.172 3.21-2.179 1.687.079 2.729 1.522 4.066 1.585 2.047.097 2.119-1.855 4.002-1.855s1.955 1.951 4.002 1.855c1.337-.063 2.379-1.507 4.066-1.585 1.152.007 1.957 2.463 3.21 2.179 1.44-.664 2.801-2.088 4.23-2.022 1.322.062 2.996 3.671 5.398 3.094 25.524-7.472 27.579-25.273 29.598-25.747-9.157 1.478-7.72 4.174-9.132 5.722-.508.425-1.467-.22-2.201-.33-.787 1.454.303 2.977-3.08 2.861-1.687-.99-2.633-2.893-5.062-2.971H86.939 55.91c-2.428.078-3.375 1.981-5.062 2.971-3.384.117-2.294-1.407-3.081-2.861-.734.11-1.692.755-2.2.33-1.412-1.548.024-4.243-9.133-5.722z" fill="#dbdbdb" stroke="#727272" stroke-width=".609"/><path d="M56.021 139.043c-.286.009-.191-.038-.656.34s-1.24 1.28-2.697 2.135a3.595 3.595 0 0 1-1.697.494c-.974.034-1.869-.081-2.828-.381 3.682 3.893 9.278 7.842 18.252 10.59.102-.079.111-.074.27-.225.334-.317.736-.757 1.316-1.273s1.357-1.406 3.283-1.496c1.958-.092 3.274.721 4.164 1.27l.072.045c.081-.078.086-.109.182-.193.572-.505 1.605-1.272 3.168-1.281a3.595 3.595 0 0 1 .189.004c1.832.085 3.134.886 3.83 1.299.058.035.049.025.1.053.684-.579 2.085-1.625 3.971-1.625s3.284 1.045 3.969 1.625c.051-.028.042-.018.102-.053.696-.413 1.999-1.213 3.83-1.299a3.595 3.595 0 0 1 .189-.004c1.563.009 2.596.778 3.168 1.283.094.083.099.112.18.189l.074-.045c.89-.549 2.206-1.359 4.164-1.268 1.926.09 2.705.98 3.285 1.496s.98.958 1.314 1.275c.157.149.166.142.268.221 8.974-2.747 14.57-6.695 18.252-10.588-.959.3-1.854.414-2.828.381a3.595 3.595 0 0 1-1.697-.494c-1.457-.855-2.229-1.755-2.697-2.135s-.371-.331-.656-.34H86.939z" fill="#fff"/><g transform="translate(0 -1.245)" class="s"><use xlink:href="#A"/><path d="M65.696 148.722h-.691l-.275-.832h-1.258l-.26.832h-.674l1.225-3.663h.672zm-1.17-1.449l-.434-1.359-.425 1.359z"/><use xlink:href="#B"/><path d="M69.188 148.722v-3.663h.635v3.663z"/><use xlink:href="#A" x="11.231"/><use xlink:href="#C"/><path d="M77.49 148.722v-3.663h.635v3.663z"/><use xlink:href="#D"/><path d="M84.589 147.375v-.617h1.369v1.459q-.2.225-.579.397-.378.17-.766.17-.494 0-.861-.24-.367-.242-.552-.69-.185-.45-.185-.977 0-.572.206-1.017.206-.445.603-.682.303-.182.753-.182.586 0 .914.287.331.285.425.79l-.631.137q-.067-.27-.251-.425-.182-.157-.457-.157-.416 0-.663.307-.245.307-.245.912 0 .652.249.979.249.325.652.325.2 0 .399-.09.202-.092.346-.222v-.465z"/><use xlink:href="#C" x="12.455"/><use xlink:href="#D" x="10.012"/><path d="M93.137 148.722v-3.663h2.333v.62h-1.698v.812h1.58v.617h-1.58v.997h1.758v.617zm4.158 0v-3.663h2.157v.62H97.93v.867h1.313v.62H97.93v1.557z"/><use xlink:href="#E"/><path d="M103.858 148.722v-3.043h-.934v-.62h2.5v.62h-.931v3.043z"/><use xlink:href="#E" x="5.859"/><use xlink:href="#B" x="42.976"/><use xlink:href="#E" x="12.207"/></g><path d="M86.938 58.775c-9.419.375-61.532 21.993-21.586 77.296h21.586 21.587C148.47 80.768 96.357 59.15 86.938 58.775z" fill="#22c9c1" class="f"/><path d="M122.666 91.106H51.21c-2.317 11.472.654 26.291 14.142 44.965h21.586 21.587c13.488-18.674 16.458-33.494 14.141-44.965z" fill="#28166f"/><defs><path id="A" d="M59.189 148.722v-3.663h.951l.571 2.499.564-2.499h.953v3.663h-.59v-2.884l-.625 2.884h-.612l-.622-2.884v2.884z"/><path id="B" d="M66.035 148.722v-3.663h1.337q.504 0 .732.1.23.097.367.35.137.252.137.577 0 .412-.208.682-.208.267-.622.337.206.14.339.307.135.167.363.595l.384.715h-.76l-.459-.797q-.245-.427-.335-.537-.09-.112-.191-.152-.101-.043-.32-.043h-.129v1.529zm.635-2.114h.47q.457 0 .571-.045.114-.045.178-.155.064-.11.064-.275 0-.185-.086-.297-.084-.115-.238-.145-.077-.013-.464-.013h-.496z"/><path id="C" d="M73.961 146.913q0-.56.144-.94.107-.28.292-.502.187-.222.408-.33.294-.145.678-.145.695 0 1.112.502.419.502.419 1.397 0 .887-.414 1.389-.414.5-1.107.5-.702 0-1.116-.497-.414-.5-.414-1.374zm.655-.025q0 .622.247.945.247.32.627.32.38 0 .622-.317.245-.32.245-.957 0-.63-.238-.94-.236-.31-.629-.31-.393 0-.633.315-.24.312-.24.945z"/><path id="D" d="M79.958 148.722v-3.663h.618l1.288 2.446v-2.446h.59v3.663h-.637l-1.268-2.389v2.389z"/><path id="E" d="M99.971 145.059h.635v1.984q0 .472.024.612.041.225.193.362.155.135.421.135.27 0 .408-.127.137-.13.165-.317.028-.187.028-.622v-2.026h.635v1.924q0 .66-.052.932-.052.272-.191.46-.137.187-.369.3-.232.11-.605.11-.451 0-.685-.12-.232-.122-.367-.315-.135-.195-.178-.407-.062-.315-.062-.93z"/><radialGradient id="F" cx="280.249" cy="103.484" fx="280.249" fy="103.484" r="9.683" gradientTransform="translate(-193.31004,-0.05501583)" gradientUnits="userSpaceOnUse"><stop offset="0" stop-color="#fff"/><stop offset=".121" stop-color="#fff"/><stop offset=".212" stop-color="#ffff04" stop-opacity=".898"/><stop offset=".306" stop-color="#ef9a48"/><stop offset=".373" stop-color="#b7673c"/><stop offset=".457" stop-color="#8f5444"/><stop offset=".581" stop-color="#b7673c"/><stop offset=".738" stop-color="#e3d70c" stop-opacity=".9"/><stop offset=".861" stop-color="#84c225"/><stop offset="1" stop-color="#00923f" stop-opacity=".9"/></radialGradient><path id="G" d="M87.691 85.862l-1.445 4.449 1.445 1.99-6.124-1.99 3.785 2.75 2.339-.76-3.785 5.209 3.785-2.75v-2.459l3.785 5.209-1.446-4.449-2.339-.76 6.124-1.99h-4.678l-1.445 1.99z"/><path id="H" d="M55.068 136.779l3.384.058c.497-6.767-18.306-31.368-11.344-52.617 1.9-5.8 6.316-11.108 12.102-16.966 2.062-2.087 4.025-4.286 6.407-6.592 3.123-3.023 2.732-5.858 2.148-9.333-.976-6.395-4.769-10.995-2.091-19.971-2.504 3.66-8.772 5.982-6.272 16.175 2.957 12.053 3.968 11.893 1.444 15.736-.905-3.682.296-5.478-3.424-12.215-2.046-3.705-1.461-6.767-2.091-10.123-1.856 3.07-6.818 6.269-1.76 16.065 3.358 6.503 3.289 10.698.22 13.204 1.017-4.845-1.565-8.415-2.751-11.113-1.274-2.9-2.567-3.206-3.081-9.683-1.331 3.103-5.626 4.942-.66 14.964 1.761 3.553 4.779 6.502 2.097 12.111-.605-3.628-3.196-6.883-4.958-9.801-3.11-5.15-2.096-6.68-2.751-9.023-3.011 3.337-4.517 6.947-.77 13.534 2.001 3.518 6.093 6.471 3.741 11.553-.225-3.234-3.264-5.726-5.559-8.621-2.08-2.624-2.505-5.202-3.353-7.773-1.62 3.455-5.445 6.748 1.54 13.864 3.036 3.093 6.125 6.167 5.832 9.353-1.91-1.917-2.731-3.623-6.957-5.848-2.616-1.378-4.06-4.032-5.602-6.535-.754 3.3-2.808 7.585 3.657 12.449 3.258 2.451 7.39 4.073 8.481 8.714-2.108-1.613-4.366-2.922-7.703-4.201-3.597-1.379-5.984-3.981-7.391-7.08.747 4.431-.026 9.18 5.446 12.76 4.111 2.689 11.801 3.142 12.137 8.169-2.468-1.538-5.267-2.771-9.259-3.501-5.895-1.079-7.072-4.067-8.714-4.824 1.133 4.699 2.104 9.037 9.959 10.97 4.105 1.01 9.444 1.172 10.97 6.535-2.405-1.651-5.098-2.779-8.947-2.723-4.73.069-7.163-2.043-8.947-3.346 3.116 7.264 6.356 6.832 9.57 8.014 10.23 1.4 8.946 2.859 11.049 5.442-2.483-1.071-5.119-2.591-9.726-2.33-2.436.138-4.88-.04-7.391-1.556 1.469 3.034 2.906 5.849 8.947 6.38 5.976.525 12.418 3.551 12.371 9.725z"/><path id="I" d="M65.512 57.918c.252-6.05-5.353-14.289-1.939-22.575-1.751 8.393 5.603 14.922 1.939 22.575z"/><path id="J" d="M59.11 65.025c-.88-7.737-7.004-14.052-4.542-22.199-.767 8.539 7.295 14.172 4.542 22.199z"/><path id="K" d="M51.96 70.471c.506-5.918-6.874-11.573-4.481-18.853-.757 7.252 7.197 12.036 4.481 18.853z"/><path id="L" d="M47.347 78.371c-1.244-5.883-8.104-10.817-6.304-18.324-.043 7.291 8.34 11.274 6.304 18.324z"/><path id="M" d="M44.055 85.466c-2.607-7.519-9.284-9.615-8.551-17.368 1.017 7.22 8.724 9.903 8.551 17.368z"/><path id="N" d="M43.112 93.294c-3.535-5.524-11.398-6.905-12.66-14.646 2.808 6.729 10.942 7.379 12.66 14.646z"/><path id="O" d="M45.857 110.713c-5.898-3.169-13.175-2.005-17.31-8.67 5.174 5.138 12.935 2.618 17.31 8.67z"/><path id="P" d="M48.931 119.543c-5.388-4.428-12.335-.747-17.362-6.766 5.842 4.363 11.579-.154 17.362 6.766z"/><path id="Q" d="M52.987 127.763c-5.607-4.147-12.357-.116-17.685-5.871 6.057 4.059 11.556-.745 17.685 5.871z"/><path id="R" d="M77.954 169.774l2.791-.311q.11.518.372.731.262.213.641.213.675 0 1.054-.603.276-.445.413-1.882-.503.457-1.034.67-.531.213-1.226.213-1.357 0-2.294-.853-.93-.853-.93-2.157 0-.889.475-1.62.475-.731 1.309-1.103.834-.378 2.095-.378 1.516 0 2.432.463.916.457 1.461 1.462.551.999.551 2.644 0 2.418-1.151 3.545-1.151 1.121-3.19 1.121-1.206 0-1.902-.244-.696-.25-1.158-.725-.462-.475-.71-1.188zm5.168-3.984q0-.725-.413-1.133-.413-.414-1.006-.414-.558 0-.93.372-.365.372-.365 1.115 0 .749.379 1.145.386.396.958.396.593 0 .985-.384.393-.384.393-1.097z"/><path id="S" d="M240.775 90.389a.53.53 0 0 1-.329-.114.5.5 0 0 1-.076-.719c.175-.21.519-.244.733-.074.108.084.177.209.191.345a.5.5 0 0 1-.115.374c-.1.119-.247.188-.405.188z"/><path id="T" d="M240.775 89.501c-.118 0-.229.051-.303.14a.37.37 0 0 0 .056.53.41.41 0 0 0 .55-.055c.065-.076.095-.176.085-.275a.37.37 0 0 0-.142-.255c-.07-.055-.157-.086-.246-.085z"/><path id="U" d="M245.233 93.119c-.226 0-.573-.034-.94-.199-.065-.029-.133-.033-.227-.039-.122-.007-.288-.018-.534-.09-.437-.129-.62-.207-.965-.578s-1.092-1.019-1.236-1.089c-.001 0-.011-.005-.043-.005-.262 0-1.044.264-1.053.267-.03.01-.061-.002-.077-.028s-.012-.06.01-.082l.269-.263c.066-.064.216-.111.438-.174l.178-.054c-.153-.063-.368-.197-.378-.204-.055-.035-.032-.12.033-.122l.771-.029-.128-.74c-.005-.028.009-.057.035-.07s.057-.008.077.012c.009.009.192.191.285.324l.018-.184c.019-.226.035-.379.087-.456l.21-.31c.017-.025.049-.036.078-.025s.046.04.042.071c-.063.469-.097 1.021-.041 1.095.101.124.909.706 1.346.956.444.253.56.413.779.803.124.221.168.378.201.492.025.088.043.151.084.207.097.129.295.157.444.157.206 0 .396-.05.398-.051.025-.007.052.002.069.022l.197.243c.014.017.018.041.011.063s-.025.038-.047.043c-.006.002-.156.037-.391.037z"/><path id="V" d="M241.288 90.987c.044 0 .076.006.101.018.169.082.944.761 1.275 1.118a1.56 1.56 0 0 0 .906.541c.232.069.383.078.505.085.104.006.186.012.273.051.279.124.58.187.885.187a2.01 2.01 0 0 0 .253-.015l-.099-.122c-.071.016-.224.045-.39.045-.26 0-.446-.07-.55-.21-.056-.075-.079-.156-.106-.25-.032-.114-.073-.257-.189-.464a1.53 1.53 0 0 0-.729-.753c-.425-.243-1.266-.842-1.384-.987-.088-.108-.056-.587-.02-.923l-.057.084c-.036.053-.053.249-.065.392-.021.248-.031.373-.13.373h0c-.058 0-.089-.058-.102-.083-.026-.049-.086-.122-.148-.191l.101.585c.003.019-.002.038-.014.053s-.041.038-.061.039l-.605.022c.079.043.162.084.215.098.026.007.105.029.106.099 0 .086-.11.117-.35.186-.141.04-.335.096-.382.142l-.069.067c.262-.08.646-.188.828-.188z"/><path id="W" d="M241.684 90.95l1.436.913c.534.368.692.654.692.654s-.644-.126-1.106-.57z"/><path id="X" d="M97.327 138.84c1.039.895 2.195 1.703 1.323 4.007 1.611-1.397 3.611-2.783 1.517-4.279 2.391-.33 3.705.26 1.867 3.54 1.963-.256 3.981-2.022 1.634-4.162 1.171.009 3.353-.774 2.217 4.085 1.83-.954 3.095-2.349 1.879-4.642 2.731-.539 2.99 2.554 1.272 3.981 2.661.478 4.605-3.003 2.209-4.196 1.832.022 4.116 2.086 1.37 4.974.866-.183 8.94-2.37-.272-6.03-5.549-.233-10.504.779-15.016 2.723z"/><path id="Y" d="M99.19 138.68c1.855.69 1.493 1.742.206 2.943.471-1.098.967-2.202-.206-2.943z"/><path id="Z" d="M102.91 137.887c.907.833 2.054 1.569.506 3.404.573-1.357.476-2.513-.506-3.404z"/><path id="a" d="M100.459 137.965c5.518-1.435 8.431-1.414 11.536-1.499-3.885.262-7.724.797-11.536 1.499z"/><path id="b" d="M107.057 137.429c.914 1.499.481 2.68-.468 3.741.605-1.214.851-2.454.468-3.741z"/><path id="c" d="M110.152 136.975c1.586.893 2.164 2.001 1.004 3.48.616-1.73-.186-2.61-1.004-3.48z"/><path id="d" d="M112.49 136.741c1.117.547 6.018 1.987 1.54 4.594.834-.62 3.059-2.462-1.54-4.594z"/><path id="e" d="M233.695 129.84c-.018 0-.035-.001-.052-.002-.198-.015-.384-.119-.539-.301-.312-.366-.47-1.018-.414-1.7.086-1.055.65-1.877 1.268-1.827.198.015.385.119.539.301.312.366.471 1.017.415 1.7-.084 1.026-.619 1.83-1.217 1.83z"/><path id="f" d="M234.846 128.005c-.084 1.021-.62 1.812-1.198 1.767s-.977-.909-.892-1.93.62-1.811 1.197-1.766.977.908.893 1.929z"/><path id="g" d="M234.068 127.173c-.1.416-.371.708-.606.655s-.344-.432-.244-.848.371-.709.605-.655.346.433.246.848z"/><path id="h" d="M233.895 126.618s-.071 1.018-.018 1.334-.08 1.208-.197 1.199-.004-.892.026-1.188zm.218-.193s.194.423.22.825-.065.555-.039.786-.103.628-.156.713-.066-.074-.034-.225.035-.499.078-.712.088-.598.078-.789-.147-.597-.147-.597zm-.594 1.347s-.145.503-.1.901.067.533.013.561-.1-.046-.091-.159-.044-.423-.032-.563.211-.74.211-.74zm1.015.442s-.079.737-.406.972c-.284.206-.082.21-.028.182s.48-.439.434-1.155zm-.831-1.802s-.325.465-.43.864-.055.428-.075.516-.09.464-.097.711-.095.132-.113-.053.052-.551.07-.695.22-.689.264-.755z"/><path id="i" d="M236.398 129.666a3.07 3.07 0 0 1-3.336 2.282c-.314.772-1.198 1.826-1.302 1.666-.026-.003.492-1.113.432-1.904a3.07 3.07 0 0 1 1.088-5.872l-.118 3.99 1.816-3.573a3.07 3.07 0 0 1 1.421 3.411z"/><path id="j" d="M232.9 126.285c-.981.199-1.821.906-2.088 1.945-.372 1.449.494 2.915 1.943 3.287s2.915-.494 3.287-1.943c.273-1.061-.148-2.106-.945-2.75l-1.611 3.17a.366.366 0 0 1-.691-.178z"/><path id="k" d="M232.414 127.01c-.534.283-.988.698-1.152 1.336-.31 1.206.404 2.413 1.609 2.723s2.413-.404 2.723-1.609c.17-.661-.051-1.263-.41-1.777l-1.283 2.523a.831.831 0 0 1-1.57-.402z"/></defs><g transform="matrix(1.454624 0 0 1.454624 -40.618882 -101.44256)" class="f"><path d="M87.691 84.899l-1.662 5.114h-5.378l4.351 3.161-1.662 5.115 4.351-3.161 4.351 3.161-1.662-5.115 4.351-3.161h-5.378z" fill="#986105" class="q"/><path d="M87.691 85.862l-1.445 4.449h-4.678l3.785 2.75-1.446 4.449 3.785-2.75 3.785 2.75-1.446-4.449 3.785-2.75h-4.678z" class="q u"/><g class="v"><use xlink:href="#G" fill="#fbe7d8" class="q"/><use xlink:href="#G" class="q"/></g></g><g fill="#fff"><path d="M74.777 162.695v9.083h-2.839v-5.952q-.689.463-1.337.749-.641.286-1.612.548v-2.035q1.433-.408 2.226-.981.792-.573 1.24-1.413z"/><use xlink:href="#R"/><use xlink:href="#R" x="9.412"/><use xlink:href="#R" x="18.824"/></g><g class="f"><circle cx="86.939" cy="103.429" r="9.683" opacity=".994" fill="url(#F)" /><g fill="#fff"><path d="M86.122 104.454h1.634v9.868h-1.634z" opacity=".993" /><path d="M75.813 114.322l2.412 23.808h8.714 8.714l2.412-23.808H86.939z" class="d"/></g></g><path d="M75.813 114.322l2.412 23.808h1.128l-.297-2.934v-1.423h.83v4.252h.83v-4.252h.829v4.252h.83v-4.252h.83v4.252h.829v-4.252h.83v4.252h.83v-4.252h.829v4.252h.83v-4.252h.829v4.252h.83v-4.252h.83v4.252h.829v-4.252h.83v4.252h.83v-4.252h.829v4.252h.83v-4.252h.83v1.423l-.297 2.934h1.128l.441-4.357h.094v-.927l1.877-18.524h-1.128l-.374 3.695v.001l-3.009 3.694-2.419-3.695.215-3.695h-1.128l-.215 3.695-3.067 3.695-3.067-3.695-.215-3.695h-1.128l.215 3.695-2.42 3.695-3.009-3.694v-.001l-.374-3.695z" class="s"/><g fill="#fff" stroke="gray"><path d="M58.975 91.106h55.456c-6.734-1.905-16.002-12.322-26.953-8.336-11.13-5.282-16.308 7.197-28.502 8.336z" class="r"/><g stroke-width=".262"><path d="M87.388 76.678c-1.562.234-10.044 11.181-19.556 17.158H87.14h19.308c-8.687-3.556-14.473-17.694-19.061-17.158z"/><path d="M87.388 76.678c-.626.094-2.571 2.117-5.038 4.641l.639.59c.271.242.544.457.824.609s.566.241.864.23a2.02 2.02 0 0 0 .88-.39c.253-.188.477-.419.708-.653s.468-.47.746-.666.598-.354.993-.43c.304-.013.574-.004.818.024s.46.074.656.135c.392.121.7.3.976.501s.519.425.778.638.535.414.877.569c.117.035.239.038.365.017s.259-.069.394-.134c.27-.131.555-.339.847-.574l.068-.057c-2.406-2.98-4.51-5.27-6.394-5.05z"/></g></g><path d="M97.825 116.691H76.053l-.122-1.204h22.016z"/><g transform="matrix(.103251 1.240322 -1.137265 -.08495 147.40541 -193.99535)"><use xlink:href="#S" class="b"/><use xlink:href="#T" class="c"/><use xlink:href="#S" x="-0.073" y="0.584" class="b"/><use xlink:href="#T" x="-0.073" y="0.584" class="c"/><use xlink:href="#S" x="0.485" y="-0.083" class="b"/><use xlink:href="#T" x="0.485" y="-0.083" class="c"/><use xlink:href="#S" x="0.457" y="0.371" class="b"/><use xlink:href="#T" x="0.457" y="0.371" class="c"/><use xlink:href="#U" class="e g"/><use xlink:href="#V" class="e p"/><use xlink:href="#W" class="h"/></g><g transform="matrix(.160757 1.234186 -1.139983 -.032029 130.75635 -193.17735)"><use xlink:href="#S" class="b"/><use xlink:href="#T" class="c"/><use xlink:href="#S" x="-0.073" y="0.584" class="b"/><use xlink:href="#T" x="-0.073" y="0.584" class="c"/><use xlink:href="#S" x="0.485" y="-0.083" class="b"/><use xlink:href="#T" x="0.485" y="-0.083" class="c"/><use xlink:href="#S" x="0.457" y="0.371" class="b"/><use xlink:href="#T" x="0.457" y="0.371" class="c"/><use xlink:href="#U" class="e g"/><use xlink:href="#V" class="e p"/><use xlink:href="#W" class="h"/></g><g transform="matrix(.361328 1.191008 -1.129756 .155686 79.23988 -195.27878)"><use xlink:href="#S" class="b"/><use xlink:href="#T" class="c"/><use xlink:href="#S" x="-0.073" y="0.584" class="b"/><use xlink:href="#T" x="-0.073" y="0.584" class="c"/><use xlink:href="#S" x="0.485" y="-0.083" class="b"/><use xlink:href="#T" x="0.485" y="-0.083" class="c"/><use xlink:href="#S" x="0.457" y="0.371" class="b"/><use xlink:href="#T" x="0.457" y="0.371" class="c"/><use xlink:href="#U" class="e g"/><use xlink:href="#V" class="e p"/><use xlink:href="#W" class="h"/></g><g transform="matrix(.636507 1.069541 -1.059413 .422175 5.15127 -185.84339)"><use xlink:href="#S" class="b"/><use xlink:href="#T" class="c"/><use xlink:href="#S" x="-0.073" y="0.584" class="b"/><use xlink:href="#T" x="-0.073" y="0.584" class="c"/><use xlink:href="#S" x="0.485" y="-0.083" class="b"/><use xlink:href="#T" x="0.485" y="-0.083" class="c"/><use xlink:href="#S" x="0.457" y="0.371" class="b"/><use xlink:href="#T" x="0.457" y="0.371" class="c"/><use xlink:href="#U" class="e g"/><use xlink:href="#V" class="e p"/><use xlink:href="#W" class="h"/></g><g transform="matrix(.848254 .910781 -.946199 .636627 -56.53125 -161.09835)"><use xlink:href="#S" class="b"/><use xlink:href="#T" class="c"/><use xlink:href="#S" x="-0.073" y="0.584" class="b"/><use xlink:href="#T" x="-0.073" y="0.584" class="c"/><use xlink:href="#S" x="0.485" y="-0.083" class="b"/><use xlink:href="#T" x="0.485" y="-0.083" class="c"/><use xlink:href="#S" x="0.457" y="0.371" class="b"/><use xlink:href="#T" x="0.457" y="0.371" class="c"/><use xlink:href="#U" class="e g"/><use xlink:href="#V" class="e p"/><use xlink:href="#W" class="h"/></g><g transform="matrix(1.017339 .813272 -.795152 .927285 -110.77325 -158.91026)"><use xlink:href="#S" class="b"/><use xlink:href="#T" class="c"/><use xlink:href="#S" x="-0.073" y="0.584" class="b"/><use xlink:href="#T" x="-0.073" y="0.584" class="c"/><use xlink:href="#S" x="0.485" y="-0.083" class="b"/><use xlink:href="#T" x="0.485" y="-0.083" class="c"/><use xlink:href="#S" x="0.457" y="0.371" class="b"/><use xlink:href="#T" x="0.457" y="0.371" class="c"/><use xlink:href="#U" class="e g"/><use xlink:href="#V" class="e p"/><use xlink:href="#W" class="h"/></g><g transform="matrix(1.103346 .692112 -.684366 1.011814 -140.02744 -132.91364)"><use xlink:href="#S" class="b"/><use xlink:href="#T" class="c"/><use xlink:href="#S" x="-0.073" y="0.584" class="b"/><use xlink:href="#T" x="-0.073" y="0.584" class="c"/><use xlink:href="#S" x="0.485" y="-0.083" class="b"/><use xlink:href="#T" x="0.485" y="-0.083" class="c"/><use xlink:href="#S" x="0.457" y="0.371" class="b"/><use xlink:href="#T" x="0.457" y="0.371" class="c"/><use xlink:href="#U" class="e g"/><use xlink:href="#V" class="e p"/><use xlink:href="#W" class="h"/></g><g transform="matrix(1.235851 .411171 -.425319 1.145088 -193.50646 -72.931382)"><use xlink:href="#S" class="b"/><use xlink:href="#T" class="c"/><use xlink:href="#S" x="-0.073" y="0.584" class="b"/><use xlink:href="#T" x="-0.073" y="0.584" class="c"/><use xlink:href="#S" x="0.485" y="-0.083" class="b"/><use xlink:href="#T" x="0.485" y="-0.083" class="c"/><use xlink:href="#S" x="0.457" y="0.371" class="b"/><use xlink:href="#T" x="0.457" y="0.371" class="c"/><use xlink:href="#U" class="e g"/><use xlink:href="#V" class="e p"/><use xlink:href="#W" class="h"/></g><use xlink:href="#X" stroke="#007231" class="r t"/><g fill="#00bf52"><use xlink:href="#Y"/><use xlink:href="#Z"/><use xlink:href="#a"/><use xlink:href="#b"/><use xlink:href="#c"/><use xlink:href="#d"/></g><g transform="matrix(-1 0 0 1 348.04457 0)"><use xlink:href="#X" x="174.168" stroke="#007231" class="r t"/><g fill="#00bf52"><use xlink:href="#Y" x="174.168"/><use xlink:href="#Z" x="174.168"/><use xlink:href="#a" x="174.168"/><use xlink:href="#b" x="174.168"/><use xlink:href="#c" x="174.168"/><use xlink:href="#d" x="174.168"/></g></g><path d="M102.792 136.995c-.382.496-.607.617-1.15.833a2.52 2.52 0 0 1-.704.186c-1.525 1.524-6.476 3.316-8.999 2.468-2.235-.573-2.051-2.003.385-1.981 2.788.177 5.895.159 8.039-1.017.022-.143.053-.339.175-.623.216-.502.339-.711.87-1.08z" class="g"/><path d="M100.916 137.84c-.039.005-.076.023-.103.051-.719.719-2.328 1.553-4.052 2.079s-3.573.747-4.766.346c-.554-.143-.94-.333-1.169-.523s-.294-.36-.272-.494.145-.289.438-.415.737-.21 1.327-.205c2.796.177 5.924.171 8.129-1.039.048-.026.081-.073.089-.127.066-.451.264-.795.473-1.183l1.151 1.08c-.408.208-.811.345-1.245.431z" fill="#915925"/><path d="M100.267 138.102c-1.002.815-6.344 2.199-8.927 1.36 2.056 1.042 6.033.623 8.927-1.36z" class="h"/><g transform="matrix(.424775 -.673772 .673772 .424775 -85.170742 199.08192)"><use xlink:href="#e" class="e g"/><use xlink:href="#f" class="f i"/><use xlink:href="#g" class="j"/><use xlink:href="#h"/><g class="f"><g class="k l"><use xlink:href="#i" class="d m"/><use xlink:href="#j" class="d n"/></g><use xlink:href="#k" class="d o"/></g></g><g transform="matrix(.625279 -.623955 .679316 .574322 -129.57327 171.61241)"><use xlink:href="#e" class="e g"/><use xlink:href="#f" class="f i"/><use xlink:href="#g" class="j"/><use xlink:href="#h"/><g class="f"><g class="k l"><use xlink:href="#i" class="d m"/><use xlink:href="#j" class="d n"/></g><use xlink:href="#k" class="d o"/></g></g><g transform="matrix(.655924 -.545078 .585724 .610407 -121.7682 152.65007)"><use xlink:href="#e" class="e g"/><use xlink:href="#f" class="f i"/><use xlink:href="#g" class="j"/><use xlink:href="#h"/><g class="f"><g class="k l"><use xlink:href="#i" class="d m"/><use xlink:href="#j" class="d n"/></g><use xlink:href="#k" class="d o"/></g></g><g transform="matrix(.6493 -.530463 .510151 .675152 -108.17729 145.64134)"><use xlink:href="#e" class="e g"/><use xlink:href="#f" class="f i"/><use xlink:href="#g" class="j"/><use xlink:href="#h"/><g class="f"><g class="k l"><use xlink:href="#i" class="d m"/><use xlink:href="#j" class="d n"/></g><use xlink:href="#k" class="d o"/></g></g><g transform="matrix(.731083 -.369675 .354778 .761781 -106.14358 102.1995)"><use xlink:href="#e" class="e g"/><use xlink:href="#f" class="f i"/><use xlink:href="#g" class="j"/><use xlink:href="#h"/><g class="f"><g class="k l"><use xlink:href="#i" class="d m"/><use xlink:href="#j" class="d n"/></g><use xlink:href="#k" class="d o"/></g></g><g transform="matrix(.845073 -.209899 .199026 .891238 -112.50952 53.496152)"><use xlink:href="#e" class="e g"/><use xlink:href="#f" class="f i"/><use xlink:href="#g" class="j"/><use xlink:href="#h"/><g class="f"><g class="k l"><use xlink:href="#i" class="d m"/><use xlink:href="#j" class="d n"/></g><use xlink:href="#k" class="d o"/></g></g><g transform="matrix(.981819 .100549 -.106546 .926555 -106.41452 -18.041847)"><use xlink:href="#e" class="e g"/><use xlink:href="#f" class="f i"/><use xlink:href="#g" class="j"/><use xlink:href="#h"/><g class="f"><g class="k l"><use xlink:href="#i" class="d m"/><use xlink:href="#j" class="d n"/></g><use xlink:href="#k" class="d o"/></g></g><g transform="matrix(.96204 .17249 -.179287 .925571 -94.795701 -29.511454)"><use xlink:href="#e" class="e g"/><use xlink:href="#f" class="f i"/><use xlink:href="#g" class="j"/><use xlink:href="#h"/><g class="f"><g class="k l"><use xlink:href="#i" class="d m"/><use xlink:href="#j" class="d n"/></g><use xlink:href="#k" class="d o"/></g></g><g transform="rotate(21.138 153.372 -217.121)"><use xlink:href="#e" class="e g"/><use xlink:href="#f" class="f i"/><use xlink:href="#g" class="j"/><use xlink:href="#h"/><g class="f"><g class="k l"><path d="M236.398 129.666c-.63 2.11-2.662 2.703-4.206 2.044a3.07 3.07 0 0 1 1.088-5.872l-.118 3.99 1.816-3.573a3.07 3.07 0 0 1 1.421 3.411z" class="d m"/><use xlink:href="#j" class="d n"/></g><use xlink:href="#k" class="d o"/></g></g><g transform="matrix(1.295031 .138875 -.172006 1.209354 -227.28862 -8.170762)"><use xlink:href="#S" x="-0.019" y="-0.029" class="b"/><use xlink:href="#T" x="-0.019" y="-0.029" class="c"/><use xlink:href="#S" x="-0.092" y="0.555" class="b"/><use xlink:href="#T" x="-0.092" y="0.555" class="c"/><use xlink:href="#S" x="0.466" y="-0.112" class="b"/><use xlink:href="#T" x="0.466" y="-0.112" class="c"/><use xlink:href="#S" x="0.438" y="0.342" class="b"/><use xlink:href="#T" x="0.438" y="0.342" class="c"/></g><path d="M70.909 133.022c-.019.003-.036.013-.049.027l-.325.345c-.08.085-.128.269-.191.539l-.055.22c-.098-.175-.304-.42-.314-.432a.09.09 0 0 0-.098-.025c-.036.012-.058.045-.057.08l.038.912-1.004-.072c-.085-.006-.129.094-.064.143.012.009.267.202.455.299l-.24.04c-.298.046-.501.082-.597.15l-.394.281c-.032.023-.043.064-.027.098s.056.051.096.044c.011-.002 1.069-.213 1.409-.177.042.005.055.012.055.012.175.105 1.035.997 1.413 1.489s.607.617 1.15.833a2.52 2.52 0 0 0 .704.186c1.525 1.524 6.476 3.316 8.999 2.468 2.235-.573 2.051-2.003-.385-1.981-2.788.177-5.895.159-8.039-1.017-.022-.143-.053-.339-.175-.623-.216-.502-.339-.711-.87-1.08-.524-.363-1.47-1.179-1.579-1.343-.059-.097.079-.76.241-1.318.011-.036-.007-.074-.042-.091-.018-.009-.038-.011-.057-.008z" class="g"/><path d="M70.753 133.42l-.089.095a.176.176 0 0 1-.001 0c-.017.018-.085.19-.147.458a.176.176 0 0 1-.001.003l-.055.22a.176.176 0 0 1-.325.043c-.035-.062-.068-.096-.126-.173l.025.614a.176.176 0 0 1-.189.183l-.653-.047.135.084a.176.176 0 0 1-.052.331l-.24.04a.176.176 0 0 1-.003 0c-.297.046-.497.103-.521.12l-.044.032.171-.03c.313-.049.648-.099.873-.075a.176.176 0 0 1 .002 0c.028.003.05.008.07.013s.053.022.054.022a.176.176 0 0 1 .002.001c.084.05.159.123.273.232l.394.397.795.904c.37.481.538.562 1.076.777a.176.176 0 0 1 .004.002c.226.095.424.145.657.173a.176.176 0 0 1 .103.051c.719.719 2.328 1.553 4.052 2.079s3.573.747 4.766.346a.176.176 0 0 1 .012-.004c.541-.139.927-.329 1.157-.519s.294-.36.272-.494-.145-.289-.438-.415-.737-.21-1.327-.205c-2.796.177-5.924.171-8.129-1.039a.176.176 0 0 1-.089-.127c-.022-.143-.048-.314-.163-.581-.214-.496-.293-.647-.809-1.005h0c-.272-.188-.641-.484-.96-.757l-.421-.374c-.115-.108-.19-.176-.245-.259a.176.176 0 0 1-.004-.006c-.039-.063-.037-.102-.039-.144a.91.91 0 0 1 .004-.132 3.36 3.36 0 0 1 .051-.336c.029-.15.078-.328.122-.5z" fill="#915925"/><path d="M70.035 135.345l1.703 1.304c.628.52.784.887.784.887s-.813-.242-1.334-.843zm3.452 2.757c1.002.815 6.344 2.199 8.927 1.36-2.056 1.042-6.033.623-8.927-1.36z" class="h"/><g transform="matrix(.672747 0 0 .672747 -49.93286 41.661439)" class="d"><g transform="rotate(3.011 275.654 134.558)"><path d="M202.572 134.874l-5.144-1.375 2.146-.77 4.549 1.219z" fill="#b36f2f"/><path d="M197.428 133.498v-1.726l2.118-.77.028 1.726z" fill="#875323"/><path d="M197.428 131.772l-2.646-.561 2.311 3.246 6.191 1.28 2.859-2.078-3.521-.853.31 1.587-5.503-.895z" fill="#cd8541"/></g><g transform="matrix(.366988 .024655 -.026038 .347492 109.40066 -3.669585)"><path d="M254.501 366.348c1.076 1.886 1.973 3.205 1.744 5.352-10.236 4.494-18.051 10.65-21.659 18.25-1.699.155-9.313-2.21-9.733-5.755 9.529-9.443 21.752-15.442 29.649-17.846z" fill="#996b14" stroke="#5b400c" class="r"/><path d="M225.563 384.228c.125.538.39 1.048.805 1.38.838-.616 1.921-1.643 3.327-2.936 4.101-3.773 10.946-9.805 22.441-14.453-5.086 1.903-14.417 5.636-25.361 14.96l-1.211 1.049z" fill="#eab95c"/><path d="M256.752 365.171c.976 1.696 1.871 3.457 2.334 5.563l79.479-29.528-10.148-3.123-7.017-2.159z" fill="#4c4c4c" stroke="#424242" stroke-width=".476"/><path d="M258.848 368.016l66.254-27.42 9.421 1.096-75.175 27.713z" fill="#7b7b7b"/><path d="M256.482 364.642c1.996 2.841 2.45 5.169 3.191 7.592l-1.443.678-.622-1.323-1.323.311c-.278-2.655-1.573-4.711-2.49-5.835z" fill="#4c4c4c" stroke="#424242" stroke-width=".423"/><path d="M255.382 365.88c1.458 1.457 2.074 3.952 3.246 6.052-.332-1.031-.594-4.085-2.421-6.464z" fill="#7b7b7b"/></g><path d="M182.958 123.665l.453 1.837c14.914.425 25.515 4.878 35.57 9.843l1.221-1.011c-11.423-4.983-23.47-9.068-37.244-10.669z" fill="#35210e"/><path d="M182.958 123.665c-.113-.677-.093-1.378.079-2.109 16.176 3.376 25.873 7.404 38.198 11.219-.283.66-.606 1.229-1.033 1.559-11.423-4.983-23.47-9.068-37.244-10.669z" fill="#4f3114"/><path d="M184.367 120.309c-.524.268-1.041.726-1.33 1.248 16.176 3.376 25.873 7.404 38.198 11.219-.283.66.292-.818-.122-2.009-10.591-2.512-19.061-4.727-36.746-10.457z" fill="#6b411b"/><path d="M184.367 120.309c-.524.268.724-.489 1.58-.507 17.913 6.917 26.634 8.187 34.682 9.615.287.503.353.847.484 1.349-10.591-2.512-19.061-4.727-36.746-10.457z" fill="#543315"/><path d="M205.86 130.314l-2.538 1.621 4.041-1.179-.292-.657z" fill="#875323"/><path d="M184.113 126.141l-.703-.639c14.914.425 25.515 4.878 35.57 9.843l-.413.506c-11.384-5.41-21.537-9.743-34.455-9.71z" fill="#cd8541"/></g></svg>