<?xml version="1.0" encoding="utf-8"?>
<!-- Generator: Adobe Illustrator 25.4.1, SVG Export Plug-In . SVG Version: 6.00 Build 0)  -->
<svg version="1.1" id="Layer_1" xmlns="http://www.w3.org/2000/svg" xmlns:xlink="http://www.w3.org/1999/xlink" x="0px" y="0px"
	 viewBox="0 0 480 560" style="enable-background:new 0 0 480 560;" xml:space="preserve">
<style type="text/css">
	.st0{fill:none;}
	.st1{stroke:#000000;stroke-width:11;stroke-miterlimit:10;}
	.st2{fill:#FBE600;}
	.st3{fill:#FBE600;stroke:#000000;stroke-width:7;stroke-miterlimit:10;}
	.st4{clip-path:url(#SVGID_00000098192787143806662640000018131414828777833344_);fill:#006F23;}
	.st5{clip-path:url(#SVGID_00000148620646865959052920000016899995359682942895_);}
	.st6{fill:#021EAA;}
	.st7{fill:#FFFFFF;}
	.st8{clip-path:url(#SVGID_00000052808163846424624170000012393863152618438563_);}
	.st9{fill:#FFFFFF;stroke:#000000;stroke-width:0.75;stroke-miterlimit:10;}
	.st10{fill:#D81F00;stroke:#000000;stroke-width:0.75;stroke-miterlimit:10;}
	.st11{clip-path:url(#SVGID_00000036242422222544310680000015596671507234812563_);}
	.st12{fill:none;stroke:#000000;stroke-width:2.5;stroke-miterlimit:10;}
	.st13{fill:#FBE600;stroke:#000000;stroke-miterlimit:10;}
	.st14{fill:none;stroke:#767676;stroke-linecap:round;stroke-miterlimit:10;}
	.st15{fill:#FFFFFF;stroke:#000000;stroke-miterlimit:10;}
	.st16{fill:#006F23;stroke:#000000;stroke-miterlimit:10;}
	.st17{clip-path:url(#SVGID_00000007417225638177332020000002071647438021453709_);}
	.st18{fill:#FBE600;stroke:#000000;stroke-width:0.75;stroke-miterlimit:10;}
	.st19{fill:none;stroke:#000000;stroke-width:7;stroke-miterlimit:10;}
</style>
<rect class="st0" width="480" height="560"/>
<g>
	<path class="st1" d="M468.9,331.8c-2.4-11.3-12.7-16.4-14-17c0.1,5-0.9,11.1-5.3,15.1c-1.5,1.4-3.8,3-15,6
		c-6.2,1.7-11.5,2.8-15.6,3.5c-25.1,99.6-95.7,171.4-179,171.4S86.1,439,61,339.4c-4.1-0.8-9.5-1.9-15.6-3.5c-11.2-3-13.5-4.6-15-6
		c-4.3-4-5.3-10.1-5.3-15.1c-1.4,0.7-11.6,5.7-14,17c-1.5,7.2-2.3,14.3,4.9,21c5.5,5.1,28.8-0.3,26,0.8c-22.4,9.1-17.4,22.7,6,12.9
		c1-0.4-6.2,3.2-11.6,6.2c-3.5,1.9-5.1,6.2-3.7,9.9C69.1,481.9,148.2,550.8,240,550.8S410.9,482,447.4,382.7c1.4-3.8-0.2-8-3.7-9.9
		c-5.5-3-12.7-6.7-11.6-6.2c23.4,9.9,28.4-3.8,6-12.9c-2.8-1.1,20.5,4.4,26-0.8C471.2,346,470.5,339,468.9,331.8z"/>
	<path class="st2" d="M468.9,331.8c-2.4-11.3-12.7-16.4-14-17c0.1,5-0.9,11.1-5.3,15.1c-1.5,1.4-3.8,3-15,6
		c-6.2,1.7-11.5,2.8-15.6,3.5c-25.1,99.6-95.7,171.4-179,171.4S86.1,439,61,339.4c-4.1-0.8-9.5-1.9-15.6-3.5c-11.2-3-13.5-4.6-15-6
		c-4.3-4-5.3-10.1-5.3-15.1c-1.4,0.7-11.6,5.7-14,17c-0.5,2.3-3.9,14.5,4.9,21c6.1,4.4,20.5,2.6,26,0.8c-23.1,11-16.1,21.3,6,12.9
		c0,0-15,7.1-15.7,12c-0.9,6.5,5.6,17.6,7,20.9c3.2,7.5,6.7,14.8,10.4,21.9c41,78.1,110.9,129.5,190.3,129.5s149.2-51.4,190.3-129.5
		c3.7-7.1,7.2-14.4,10.4-21.9c1.4-3.3,7.8-14.4,7-20.9c-0.7-4.9-15.7-12-15.7-12c22.1,8.4,29.1-1.9,6-12.9c5.5,1.8,19.9,3.7,26-0.8
		C472.8,346.3,469.4,334.1,468.9,331.8z"/>
	<g>
		<ellipse class="st0" cx="240" cy="259.5" rx="228.8" ry="291.3"/>
		<path d="M54.8,395.6l3.6-1.6l4.1,9.4l-8.6,3.8c-1.3-0.5-2.6-1.5-4.1-3c-1.4-1.4-2.5-3-3.3-4.8c-1-2.3-1.4-4.4-1.2-6.5s1-4,2.4-5.6
			s3.1-2.9,5.2-3.8c2.3-1,4.5-1.4,6.6-1.2c2.2,0.2,4.1,1,5.8,2.4c1.3,1.1,2.4,2.6,3.4,4.7c1.2,2.7,1.5,5,1.1,7c-0.5,2-1.6,3.7-3.4,5
			l-2.7-4c0.9-0.8,1.5-1.7,1.8-2.8c0.2-1.1,0.1-2.3-0.5-3.6c-0.8-1.9-2.1-3.2-3.8-3.8s-3.7-0.4-6.1,0.7c-2.6,1.1-4.2,2.5-5,4.2
			s-0.8,3.5,0,5.3c0.4,0.9,1,1.8,1.7,2.5c0.8,0.8,1.5,1.4,2.3,1.8l2.7-1.2L54.8,395.6z"/>
		<path d="M54.4,415.2l20.7-11.4l8.4,15.4l-3.5,1.9l-6.1-11.2l-4.6,2.5l5.7,10.4l-3.5,1.9l-5.7-10.4l-5.6,3.1l6.3,11.6l-3.5,1.9
			L54.4,415.2z"/>
		<path d="M66.7,437.1l19.5-13.3l4,5.9l-10.9,12.6l15.7-5.6l4,5.9l-19.5,13.3l-2.5-3.7l15.4-10.5l-18,6.6l-2.6-3.8l12.7-14.3
			l-15.4,10.5L66.7,437.1z"/>
		<path d="M98.3,478.5l-3.4-3.9l2.7-5.1l-6.1-7.2l-5.3,2l-3.3-3.8l23.9-8.4l3.3,3.8L98.3,478.5z M99.7,465.7l4.5-8.2l-8.7,3.3
			L99.7,465.7z"/>
		<path d="M102.4,482.6l16.2-17.2l3.5,3.3l-6.4,6.8l6.8,6.4l6.4-6.8l3.5,3.3l-16.2,17.1l-3.5-3.3l7.1-7.5l-6.8-6.4l-7.1,7.5
			L102.4,482.6z"/>
		<path d="M132.2,508.1l12.9-19.8l8.4,5.5c2.1,1.4,3.5,2.5,4.3,3.5s1.1,2.1,1.1,3.4s-0.4,2.5-1.2,3.7c-1,1.5-2.2,2.4-3.7,2.8
			s-3.2,0.2-5.1-0.7c0.5,1.1,0.9,2.1,1.1,3.1c0.2,1,0.2,2.5,0.2,4.7l-0.1,5.4l-4.8-3.1l-0.1-6.2c0-2.2-0.1-3.6-0.2-4.3
			c-0.1-0.6-0.3-1.2-0.7-1.6c-0.3-0.4-1-0.9-1.9-1.5l-0.8-0.5l-5.4,8.3L132.2,508.1z M143.6,499.3l3,1.9c1.9,1.2,3.2,1.9,3.8,2.1
			c0.6,0.1,1.1,0.1,1.7-0.1c0.5-0.2,1-0.6,1.4-1.2c0.4-0.7,0.6-1.3,0.5-2c-0.1-0.6-0.4-1.2-1-1.8c-0.3-0.3-1.3-0.9-2.9-2l-3.1-2
			L143.6,499.3z"/>
		<path d="M155.1,522.1l10.9-21l4.2,2.2l-10.9,21L155.1,522.1z"/>
		<path d="M166.2,527.8l8.7-21.9l7.1,2.8c2.7,1.1,4.4,1.9,5.1,2.4c1.1,0.8,1.9,2,2.3,3.4c0.4,1.4,0.3,3-0.4,4.8
			c-0.5,1.3-1.2,2.4-2.1,3.1c-0.9,0.7-1.8,1.2-2.7,1.4c-1,0.2-1.9,0.3-2.7,0.1c-1.1-0.2-2.7-0.7-4.7-1.5l-2.9-1.2l-3.3,8.3
			L166.2,527.8z M177.9,511.4l-2.5,6.2l2.4,1c1.7,0.7,3,1,3.6,1.1s1.3-0.2,1.8-0.5s0.9-0.9,1.2-1.5c0.3-0.8,0.3-1.5,0.1-2.3
			s-0.7-1.3-1.4-1.7c-0.5-0.3-1.5-0.8-3.1-1.4L177.9,511.4z"/>
		<path d="M208.3,541.3l-5-1.3l-0.7-5.7l-9.2-2.3l-3.2,4.7l-4.9-1.2l14.7-20.6l4.9,1.2L208.3,541.3z M202.1,530.1l-1-9.3l-5.2,7.7
			L202.1,530.1z"/>
		<path d="M214.4,542.1l2.2-23.5l4.7,0.4l-0.9,9.3l9.3,0.9l0.9-9.3l4.7,0.4l-2.2,23.5l-4.7-0.4l0.9-10.3l-9.3-0.9l-0.9,10.3
			L214.4,542.1z"/>
		<path d="M254,543.5l-3.2-23.4l9.9-1.3c2.5-0.3,4.3-0.4,5.5-0.1c1.2,0.3,2.2,0.9,3,1.9s1.3,2.2,1.5,3.6c0.2,1.8-0.1,3.3-1,4.6
			s-2.3,2.2-4.3,2.8c1.1,0.5,2,1,2.8,1.6s1.8,1.8,3.2,3.4l3.5,4.2l-5.7,0.8l-4.1-4.6c-1.5-1.7-2.4-2.7-3-3.1c-0.5-0.4-1-0.7-1.6-0.8
			c-0.5-0.1-1.3-0.1-2.4,0.1l-1,0.1l1.3,9.8L254,543.5z M256.9,529.3l3.5-0.5c2.3-0.3,3.7-0.6,4.2-0.9c0.5-0.3,0.9-0.7,1.2-1.2
			c0.3-0.5,0.3-1.1,0.2-1.8c-0.1-0.8-0.4-1.4-0.9-1.8s-1.1-0.7-1.9-0.7c-0.4,0-1.5,0.1-3.5,0.4l-3.7,0.5L256.9,529.3z"/>
		<path d="M281,539.1l-6.6-22.7l16.8-4.9l1.1,3.8l-12.2,3.6l1.5,5l11.4-3.3l1.1,3.8l-11.4,3.3l1.8,6.2l12.7-3.7l1.1,3.8L281,539.1z"
			/>
		<path d="M305.3,531.4l-9.7-21.6l7-3.1c2.6-1.2,4.4-1.9,5.3-2c1.4-0.2,2.7,0,4,0.7s2.4,1.9,3.1,3.6c0.6,1.3,0.9,2.5,0.8,3.7
			c-0.1,1.1-0.4,2.1-0.9,2.9s-1.1,1.5-1.8,2c-0.9,0.7-2.4,1.4-4.4,2.3l-2.8,1.3l3.6,8.1L305.3,531.4z M301.6,511.6l2.7,6.1l2.4-1.1
			c1.7-0.8,2.8-1.4,3.3-1.9s0.8-1,0.9-1.7c0.1-0.6,0-1.3-0.3-1.9c-0.4-0.8-0.9-1.3-1.6-1.6c-0.7-0.3-1.4-0.4-2.2-0.2
			c-0.6,0.1-1.6,0.6-3.2,1.3L301.6,511.6z"/>
		<path d="M328.3,520.5l-12.4-20.1l14.9-9.2l2.1,3.4l-10.9,6.7l2.7,4.5l10.1-6.2l2.1,3.4l-10.1,6.2l3.4,5.5l11.2-6.9l2.1,3.4
			L328.3,520.5z"/>
		<path d="M349.6,506.8l-14.7-18.5l3.7-3l5.8,7.3l7.3-5.8l-5.8-7.3l3.7-3l14.7,18.5l-3.7,3l-6.4-8.1l-7.3,5.8l6.4,8.1L349.6,506.8z"
			/>
		<path d="M379.1,481.1l-17.6-15.8l6.7-7.5c1.7-1.9,3.1-3.1,4.1-3.7c1.1-0.6,2.3-0.7,3.5-0.5c1.3,0.2,2.4,0.8,3.5,1.7
			c1.3,1.2,2.1,2.5,2.2,4.1c0.2,1.5-0.3,3.2-1.5,4.9c1.1-0.4,2.2-0.6,3.2-0.6s2.5,0.2,4.7,0.5l5.4,0.9l-3.8,4.2l-6.1-0.9
			c-2.2-0.3-3.6-0.5-4.3-0.4c-0.7,0-1.2,0.2-1.7,0.4c-0.5,0.3-1.1,0.8-1.8,1.6l-0.6,0.7l7.3,6.6L379.1,481.1z M372.1,468.4l2.4-2.6
			c1.5-1.7,2.4-2.8,2.6-3.4s0.3-1.1,0.1-1.7s-0.5-1.1-1-1.5c-0.6-0.5-1.2-0.8-1.9-0.8s-1.3,0.2-1.9,0.7c-0.3,0.3-1.1,1.1-2.4,2.5
			l-2.5,2.8L372.1,468.4z"/>
		<path d="M409.3,443.4l-3,4.2l-5.6-1.5l-5.5,7.6l3.2,4.7l-3,4.1l-13.7-21.3l3-4.1L409.3,443.4z M396.6,445l-9-2.5l5.2,7.7
			L396.6,445z"/>
		<path d="M412.3,438.6L392,426.5l3.9-6.6c1.5-2.5,2.5-4.1,3.2-4.7c1-1,2.2-1.6,3.7-1.7c1.5-0.2,3,0.2,4.7,1.2
			c1.2,0.7,2.2,1.6,2.7,2.5c0.6,1,0.9,1.9,1,2.9s0,1.9-0.3,2.7c-0.4,1.1-1.1,2.6-2.2,4.4l-1.6,2.7l7.7,4.5L412.3,438.6z
			 M397.9,424.5l5.8,3.4l1.3-2.2c1-1.6,1.5-2.8,1.6-3.4c0.1-0.7,0-1.3-0.2-1.9c-0.3-0.6-0.7-1-1.3-1.4c-0.7-0.4-1.5-0.6-2.2-0.4
			s-1.4,0.5-1.9,1.1c-0.4,0.4-1,1.4-1.9,2.9L397.9,424.5z"/>
		<path d="M424.6,417l-21-10.8l2.2-4.2l21,10.8L424.6,417z"/>
		<path d="M430.1,406.1l-21.7-9.4l1.9-4.4l8.5,3.7l3.7-8.6l-8.5-3.7l1.9-4.4l21.7,9.4l-1.9,4.4l-9.5-4.1l-3.7,8.6l9.5,4.1
			L430.1,406.1z"/>
	</g>
	<ellipse class="st3" cx="240" cy="259.5" rx="188.8" ry="251.3"/>
	<g>
		<g>
			<defs>
				<ellipse id="SVGID_00000070817716193281700890000014733259745098327693_" cx="240" cy="259.5" rx="173.8" ry="236.3"/>
			</defs>
			<clipPath id="SVGID_00000088845014158718290660000006732872251379607218_">
				<use xlink:href="#SVGID_00000070817716193281700890000014733259745098327693_"  style="overflow:visible;"/>
			</clipPath>
			
				<rect x="66.3" y="23.3" style="clip-path:url(#SVGID_00000088845014158718290660000006732872251379607218_);fill:#006F23;" width="347.5" height="492"/>
		</g>
		<g>
			<defs>
				<ellipse id="SVGID_00000106866998304565381370000007241489924837231771_" cx="240" cy="259.5" rx="173.8" ry="236.3"/>
			</defs>
			<clipPath id="SVGID_00000105405399219284567880000012876919998417637018_">
				<use xlink:href="#SVGID_00000106866998304565381370000007241489924837231771_"  style="overflow:visible;"/>
			</clipPath>
			<g style="clip-path:url(#SVGID_00000105405399219284567880000012876919998417637018_);">
				<rect x="66.25" y="358.4" class="st6" width="347.5" height="171.6"/>
				<rect x="294" y="466.4" class="st7" width="27" height="27"/>
				<rect x="240" y="466.4" class="st7" width="27" height="27"/>
				<rect x="321" y="439.4" class="st7" width="27" height="27"/>
				<rect x="267" y="439.4" class="st7" width="27" height="27"/>
				<rect x="348" y="412.4" class="st7" width="27" height="27"/>
				<rect x="294" y="412.4" class="st7" width="27" height="27"/>
				<rect x="240" y="412.4" class="st7" width="27" height="27"/>
				<rect x="321" y="385.4" class="st7" width="27" height="27"/>
				<rect x="267" y="385.4" class="st7" width="27" height="27"/>
				<rect x="348" y="358.4" class="st7" width="27" height="27"/>
				<rect x="294" y="358.4" class="st7" width="27" height="27"/>
				<rect x="240" y="358.4" class="st7" width="27" height="27"/>
				<path class="st7" d="M240,463.128c-9.9,3.577-19.5,5.166-29,4.689c-13.1-0.636-16-4.689-29-4.689c-13.9,0-15,4.689-29,4.689
					c-13.9,0-15-4.689-29-4.689c-13,0-15.9,4.053-29,4.689c-9.4,0.477-19.1-1.113-29-4.689V436.9c9.9,3.577,19.5,5.166,29,4.689
					c13.1-0.636,16-4.689,29-4.689c14,0,15,4.689,29,4.689s15-4.689,29-4.689c13,0,15.9,4.053,29,4.689
					c9.4,0.477,19.1-1.113,29-4.689V463.128z"/>
				<path class="st7" d="M240,409.128c-9.9,3.577-19.5,5.166-29,4.689c-13.1-0.636-16-4.689-29-4.689c-13.9,0-15,4.689-29,4.689
					c-13.9,0-15-4.689-29-4.689c-13,0-15.9,4.053-29,4.689c-9.4,0.477-19.1-1.113-29-4.689V382.9c9.9,3.577,19.5,5.166,29,4.689
					c13.1-0.636,16-4.689,29-4.689c14,0,15,4.689,29,4.689s15-4.689,29-4.689c13,0,15.9,4.053,29,4.689
					c9.4,0.477,19.1-1.113,29-4.689V409.128z"/>
				<path class="st6" d="M245,530h6c0-6.8-1.1-10.2-2.1-13.5c-1-3-1.9-5.9-1.9-11.7s0.9-8.7,1.9-11.7c1.1-3.3,2.1-6.8,2.1-13.5
					c0-6.8-1.1-10.2-2.1-13.5c-1-3-1.9-5.9-1.9-11.7c0-5.8,0.9-8.7,1.9-11.7c1.1-3.3,2.1-6.8,2.1-13.5s-1.1-10.2-2.1-13.5
					c-1-3-1.9-5.9-1.9-11.7s0.9-8.7,1.9-11.7c1.1-3.3,2.1-6.8,2.1-13.5c0-6.8-1.1-10.2-2.1-13.5c-1-3-1.9-5.9-1.9-11.7h-6
					c0,6.8,1.1,10.2,2.1,13.5c1,3,1.9,5.9,1.9,11.7c0,5.8-0.9,8.7-1.9,11.7c-1.1,3.3-2.1,6.8-2.1,13.5s1.1,10.2,2.1,13.5
					c1,3,1.9,5.9,1.9,11.7s-0.9,8.7-1.9,11.7c-1.1,3.3-2.1,6.8-2.1,13.5c0,6.8,1.1,10.2,2.1,13.5c1,3,1.9,5.9,1.9,11.7
					c0,5.8-0.9,8.7-1.9,11.7c-1.1,3.3-2.1,6.8-2.1,13.5s1.1,10.2,2.1,13.5C244.1,521.3,245,524.2,245,530z"/>
				<path class="st7" d="M239,530h6c0-6.8-1.1-10.2-2.1-13.5c-1-3-1.9-5.9-1.9-11.7s0.9-8.7,1.9-11.7c1.1-3.3,2.1-6.8,2.1-13.5
					c0-6.8-1.1-10.2-2.1-13.5c-1-3-1.9-5.9-1.9-11.7c0-5.8,0.9-8.7,1.9-11.7c1.1-3.3,2.1-6.8,2.1-13.5s-1.1-10.2-2.1-13.5
					c-1-3-1.9-5.9-1.9-11.7s0.9-8.7,1.9-11.7c1.1-3.3,2.1-6.8,2.1-13.5c0-6.8-1.1-10.2-2.1-13.5c-1-3-1.9-5.9-1.9-11.7h-6
					c0,6.8,1.1,10.2,2.1,13.5c1,3,1.9,5.9,1.9,11.7c0,5.8-0.9,8.7-1.9,11.7c-1.1,3.3-2.1,6.8-2.1,13.5s1.1,10.2,2.1,13.5
					c1,3,1.9,5.9,1.9,11.7s-0.9,8.7-1.9,11.7c-1.1,3.3-2.1,6.8-2.1,13.5c0,6.8,1.1,10.2,2.1,13.5c1,3,1.9,5.9,1.9,11.7
					c0,5.8-0.9,8.7-1.9,11.7c-1.1,3.3-2.1,6.8-2.1,13.5s1.1,10.2,2.1,13.5C238.1,521.3,239,524.2,239,530z"/>
				<path class="st6" d="M233,530h6c0-6.8-1.1-10.2-2.1-13.5c-1-3-1.9-5.9-1.9-11.7s0.9-8.7,1.9-11.7c1.1-3.3,2.1-6.8,2.1-13.5
					c0-6.8-1.1-10.2-2.1-13.5c-1-3-1.9-5.9-1.9-11.7c0-5.8,0.9-8.7,1.9-11.7c1.1-3.3,2.1-6.8,2.1-13.5s-1.1-10.2-2.1-13.5
					c-1-3-1.9-5.9-1.9-11.7s0.9-8.7,1.9-11.7c1.1-3.3,2.1-6.8,2.1-13.5c0-6.8-1.1-10.2-2.1-13.5c-1-3-1.9-5.9-1.9-11.7h-6
					c0,6.8,1.1,10.2,2.1,13.5c1,3,1.9,5.9,1.9,11.7c0,5.8-0.9,8.7-1.9,11.7c-1.1,3.3-2.1,6.8-2.1,13.5s1.1,10.2,2.1,13.5
					c1,3,1.9,5.9,1.9,11.7s-0.9,8.7-1.9,11.7c-1.1,3.3-2.1,6.8-2.1,13.5c0,6.8,1.1,10.2,2.1,13.5c1,3,1.9,5.9,1.9,11.7
					c0,5.8-0.9,8.7-1.9,11.7c-1.1,3.3-2.1,6.8-2.1,13.5s1.1,10.2,2.1,13.5C232.1,521.3,233,524.2,233,530z"/>
				<rect x="375" y="385.4" class="st7" width="27" height="27"/>
			</g>
		</g>
		<g>
			<defs>
				<ellipse id="SVGID_00000060716431500421265550000004587207232359781306_" cx="240" cy="259.5" rx="173.8" ry="236.3"/>
			</defs>
			<clipPath id="SVGID_00000072282304476786203210000016040713320350421937_">
				<use xlink:href="#SVGID_00000060716431500421265550000004587207232359781306_"  style="overflow:visible;"/>
			</clipPath>
			<g style="clip-path:url(#SVGID_00000072282304476786203210000016040713320350421937_);">
				<polygon points="388.2,308.7 316.9,308.7 304.7,329 269.7,283.6 240,283.6 210.3,283.6 175.3,329 163.1,308.7 91.8,308.7 
					68.65,358.4 240,358.4 411.35,358.4 				"/>
				<path class="st9" d="M282.75,166.015c-1.149-1.045-2.298-1.88-2.298-1.88s0.731-0.94,1.358-2.716
					c0.627-1.776,0.209-4.388-1.045-5.537c-1.254-1.045-2.089-1.463-2.089-1.463s0.94-0.94,1.463-3.03
					c0.313-1.149,0.209-3.343-0.836-4.492c-1.254-1.358-3.239-1.88-3.239-1.88s1.045-1.254,1.567-3.134
					c0.522-1.776-0.104-4.283-1.672-5.328c-1.463-1.045-4.283-1.463-4.283-1.463s2.298-2.507,2.298-4.91
					c0-1.567-0.522-4.806-5.224-6.164c-2.507-0.731-5.432,0.731-7.94,0c-4.074-1.149-24.655-16.402-24.342-36.878
					c0-2.403,0.313-5.015,1.149-7.94c-3.134,1.567-8.358,4.701-12.954,10.343c-4.179,5.015-6.268,9.925-7.313,13.163
					c-0.627,3.865-0.94,9.402,0.731,15.566c0.418,1.776,1.045,3.343,1.672,4.806c-0.836,1.149-1.88,2.821-2.716,4.806
					c-0.94,2.089-1.358,3.97-1.672,5.537c0.104,1.672,0.418,4.074,1.463,6.686c0.627,1.567,1.358,2.716,2.089,3.761
					c10.134,12.432,21.521,23.924,30.401,37.192c1.358,1.985,3.343,6.791,3.239,13.163c-0.104,5.955-2.089,10.447-3.239,12.536
					c-1.045,2.089-3.134,5.746-7.208,8.984c-3.448,2.821-6.895,5.224-9.089,4.806c-1.149-0.209-2.507-1.672-4.597-2.403
					s-3.97-0.731-5.224-0.731c-0.104,0-2.194-0.313-3.552,1.254c-0.94,1.149-0.836,2.403-0.836,2.716
					c0.209,1.045,0.836,4.179,3.552,6.686c4.074,3.656,9.507,2.089,9.82,2.716c0.731,1.254-2.298,2.612-3.448,4.597
					c-0.836,1.463-1.358,2.925-1.672,4.074c-0.313,0.522-0.836,1.672-0.731,3.239c0,1.358,0.522,2.298,0.731,2.821
					c0.522,0.94,1.358,2.403,3.03,3.761c1.985,1.672,5.328,1.463,5.224,2.507c0,0.418-2.821,0.209-4.492,2.403
					c-1.567,1.985-1.254,4.179-1.149,4.597c0.104,1.045,0.522,3.03,1.776,5.119c1.358,2.194,3.134,3.448,4.074,4.074
					c1.985,0,7.417,0,9.402,0c0.94-1.045,2.194-2.507,3.239-4.388c1.149-2.089,1.776-3.97,2.194-5.328
					c0.418-2.403,0.731-5.224,0.731-8.462c0-2.925-0.313-5.537-0.627-7.731c0-1.358-0.209-4.074-1.88-7
					c-1.672-2.925-3.865-3.865-3.761-5.224c0.209-1.463,2.298-1.149,4.597-2.403c11.178-5.746,16.506-15.671,20.999-24.655
					c2.925-5.746,6.791-14.521,8.984-26.118c0.836-0.418,1.985-1.358,3.134-2.821C284.735,171.552,284.526,167.582,282.75,166.015z
					 M263.318,131.018c0-1.985,1.567-3.552,3.552-3.552c1.985,0,3.552,1.567,3.552,3.552s-1.567,3.552-3.552,3.552
					C264.885,134.57,263.318,133.002,263.318,131.018z M266.87,141.465c0-1.985,1.567-3.552,3.552-3.552
					c1.985,0,3.552,1.567,3.552,3.552s-1.567,3.552-3.552,3.552C268.437,145.017,266.87,143.45,266.87,141.465z M269.586,150.867
					c0-1.985,1.567-3.552,3.552-3.552c1.985,0,3.552,1.567,3.552,3.552s-1.567,3.552-3.552,3.552
					C271.153,154.419,269.586,152.852,269.586,150.867z M271.571,160.478c0-1.985,1.567-3.552,3.552-3.552
					c1.985,0,3.552,1.567,3.552,3.552s-1.567,3.552-3.552,3.552C273.138,164.03,271.571,162.463,271.571,160.478z M276.168,173.537
					c-1.985,0-3.552-1.567-3.552-3.552s1.567-3.552,3.552-3.552c1.985,0,3.552,1.567,3.552,3.552S278.153,173.537,276.168,173.537z"
					/>
				<path class="st10" d="M244.885,267.979h-9.402c-2.298,9.193-3.552,17.551-4.179,23.401c-0.627,6.164-0.731,11.178,1.985,16.089
					c1.045,1.88,3.03,2.821,3.03,4.074c0,0.522-3.761,3.97-2.925,9.089c0.731,4.91,4.701,7.313,5.224,7.626
					c0.209,0.209,0.94,0.731,1.985,0.731c1.254,0.104,1.985-0.627,2.194-0.731c1.045-1.149,2.298-2.925,3.448-5.328
					c1.776-3.761,1.985-7.313,2.089-9.402c0.209-4.701,0.731-9.82,0.731-15.357c0-5.328-0.313-10.134-0.731-14.626
					c-0.104-2.298-0.313-5.015-1.045-8.044C246.661,272.68,245.721,269.859,244.885,267.979z"/>
			</g>
		</g>
		<g>
			<defs>
				<ellipse id="SVGID_00000019644318619453216550000002521489362417248952_" cx="240" cy="259.5" rx="173.8" ry="236.3"/>
			</defs>
			<clipPath id="SVGID_00000062162287146527768850000016753711148627597730_">
				<use xlink:href="#SVGID_00000019644318619453216550000002521489362417248952_"  style="overflow:visible;"/>
			</clipPath>
			<g style="clip-path:url(#SVGID_00000062162287146527768850000016753711148627597730_);">
				<path class="st12" d="M274,293.9c52.8-32.3,81.2-88.4,71.9-140.4c-7.2-40.1-34.4-65.1-45.2-74.1"/>
				<g>
					<path class="st13" d="M309.39,88.118c-0.207,0.82-1.078,2.92-2.639,3.857c-1.776,1.066-4.425,0.394-6.394,0
						c-1.522-0.304-1.759-1.384-3.146-1.522c-2.03-0.203-4.009-0.761-7.46-1.269c0.475-0.93,1.255-2.161,2.537-3.248
						c2.09-1.772,4.48-1.612,4.466-2.537c-0.009-0.6-1.544-1.851-2.436-2.74c-1.27-1.267-1.672-2.232-3.036-6.504l-1.988-6.233
						c2.593,0.605,4.559,1.453,6.233,1.988c4.272,1.364,5.237,1.766,6.504,3.036c0.889,0.891,2.141,2.426,2.74,2.436
						c0.925,0.014,0.765-2.375,2.537-4.466c1.087-1.282,2.318-2.062,3.248-2.537c0.507,3.451,1.066,5.43,1.269,7.46
						c0.139,1.387,1.218,1.624,1.522,3.146c0.394,1.969,1.066,4.618,0,6.394c-0.937,1.561-3.037,2.431-3.857,2.639L309.39,88.118z"
						/>
					<path class="st14" d="M308.984,75.508c0.577,2.734,0.9,6.154,0.304,9.972c-0.11,0.708-0.246,1.387-0.4,2.036 M296.997,75.624
						l11.891,11.891 M296.881,87.611c2.734,0.577,6.154,0.9,9.972,0.304c0.708-0.11,1.387-0.246,2.036-0.4"/>
				</g>
				<g>
					<path class="st15" d="M328.484,89.455c-0.103-0.308-0.41-2.565-2.463-3.899c-0.308-0.205-2.258-1.437-4.515-0.718
						c-2.155,0.616-3.078,2.36-3.284,2.668c-0.41-0.41-2.052-1.744-4.515-1.847c-2.565-0.103-4.31,1.129-4.823,1.437
						c-0.41,0.41-1.334,1.437-1.744,3.078c-0.513,2.155,0.205,3.797,0.513,4.31c-0.41,0-2.36,0.103-3.591,1.642
						c-1.437,1.744-1.129,4.72,0.821,6.875c0.718,0.308,8.209,3.386,15.597-1.026C327.356,97.869,328.382,90.378,328.484,89.455z"/>
					<path class="st16" d="M303.036,104.847c1.334,1.026,3.284,2.36,5.952,3.797c3.899,2.052,6.465,3.386,9.748,3.386
						c1.334,0,4.412-0.308,7.901-2.976c3.284-2.155,4.412-4.515,4.925-5.746c0.924-2.463,0.616-4.823,0.103-9.44
						c-0.308-2.36-0.718-4.412-0.923-5.746c-0.924,0.513-2.052,1.231-3.181,2.36c-2.155,2.155-2.976,4.618-3.386,5.952
						c-1.437-0.924-3.181-1.95-5.131-2.873c-2.052-0.924-4.002-1.642-5.644-2.155c-0.103,1.539-0.103,3.284,0.103,5.233
						c0.205,2.36,0.718,4.515,1.129,6.157c-0.821-0.205-1.95-0.41-3.386-0.513c-2.565-0.205-4.31-0.308-5.952,0.616
						C304.576,103.102,303.755,103.718,303.036,104.847z"/>
				</g>
				<g>
					<path class="st15" d="M344.158,108.67c0-0.41,0.103-2.771-1.744-4.515c-0.308-0.308-2.052-1.95-4.618-1.744
						c-2.36,0.205-3.694,1.847-4.002,2.155c-0.41-0.513-1.847-2.257-4.31-2.873c-2.668-0.616-4.823,0.308-5.336,0.513
						c-0.513,0.308-1.744,1.231-2.463,2.873c-1.026,2.155-0.513,4.105-0.41,4.618c-0.41-0.103-2.565-0.308-4.105,1.026
						c-1.847,1.539-2.155,4.72-0.513,7.388c0.718,0.513,7.901,5.233,16.521,2.155C341.285,117.289,343.85,109.593,344.158,108.67z"
						/>
					<path class="st16" d="M314.298,119.752c1.231,1.334,2.976,3.181,5.439,5.131c3.694,2.976,6.054,4.925,9.543,5.541
						c1.437,0.205,4.72,0.513,8.927-1.539c3.899-1.539,5.644-3.899,6.362-5.028c1.437-2.36,1.642-4.925,2.052-9.954
						c0.205-2.565,0.205-4.72,0.103-6.259c-1.026,0.308-2.36,0.924-3.797,1.847c-2.668,1.847-4.105,4.207-4.72,5.541
						c-1.334-1.231-2.976-2.668-4.823-4.002c-1.95-1.437-3.899-2.565-5.541-3.489c-0.41,1.539-0.821,3.386-1.026,5.439
						c-0.308,2.565-0.205,4.823,0,6.67c-0.821-0.308-2.052-0.821-3.489-1.129c-2.668-0.718-4.412-1.129-6.362-0.513
						C316.35,118.213,315.324,118.623,314.298,119.752z"/>
				</g>
				<g>
					<path class="st15" d="M354.112,129.887c0.103-0.308,0.718-2.463-0.616-4.618c-0.205-0.308-1.437-2.257-3.797-2.668
						c-2.155-0.308-3.797,0.821-4.105,1.026c-0.205-0.616-1.129-2.463-3.284-3.591c-2.258-1.231-4.412-0.821-5.028-0.718
						c-0.513,0.205-1.847,0.718-2.976,1.95c-1.334,1.744-1.437,3.591-1.437,4.105c-0.41-0.205-2.258-0.924-4.002,0
						c-2.052,1.026-3.078,3.797-2.258,6.67c0.513,0.616,6.054,6.67,14.571,5.746C349.494,137.07,353.599,130.605,354.112,129.887z"
						/>
					<path class="st16" d="M324.354,132.965c0.821,1.437,2.052,3.591,3.797,5.952c2.668,3.591,4.412,5.849,7.388,7.183
						c1.231,0.513,4.207,1.642,8.517,0.616c3.899-0.513,5.952-2.257,6.978-3.181c1.95-1.847,2.668-4.105,4.105-8.62
						c0.718-2.36,1.231-4.31,1.539-5.644c-1.026,0.103-2.36,0.308-3.899,0.821c-2.873,1.026-4.72,2.873-5.644,3.899
						c-0.924-1.437-2.052-3.078-3.489-4.823s-2.873-3.181-4.207-4.412c-0.718,1.334-1.539,2.873-2.155,4.72
						c-0.821,2.257-1.334,4.412-1.539,6.157c-0.718-0.513-1.642-1.231-2.873-1.847c-2.258-1.231-3.797-2.052-5.644-1.95
						C326.509,132.041,325.483,132.247,324.354,132.965z"/>
				</g>
				<g>
					<path class="st15" d="M358.422,149.154c0.103-0.308,0.924-2.463-0.205-4.72c-0.205-0.41-1.231-2.463-3.694-2.976
						c-2.258-0.513-4.002,0.513-4.31,0.718c-0.205-0.616-0.924-2.565-3.078-4.002c-2.258-1.437-4.412-1.231-5.028-1.129
						c-0.616,0.103-1.95,0.513-3.181,1.847c-1.539,1.642-1.744,3.591-1.744,4.105c-0.41-0.205-2.258-1.129-4.105-0.308
						c-2.155,0.924-3.489,3.694-2.771,6.567c0.513,0.616,5.644,7.286,14.469,7.08C353.086,156.131,357.806,149.872,358.422,149.154z
						"/>
					<path class="st16" d="M327.535,149.975c0.718,1.539,1.744,3.899,3.386,6.465c2.463,3.899,4.002,6.362,6.978,8.004
						c1.231,0.718,4.207,1.95,8.722,1.334c4.002-0.205,6.362-1.744,7.388-2.668c2.155-1.744,3.078-4.002,4.925-8.414
						c1.026-2.36,1.642-4.31,2.052-5.644c-1.026,0-2.463,0.103-4.105,0.513c-3.078,0.821-5.028,2.565-6.054,3.591
						c-0.821-1.539-1.847-3.386-3.181-5.233c-1.334-1.95-2.771-3.591-4.002-4.925c-0.821,1.334-1.744,2.873-2.668,4.72
						c-1.026,2.258-1.642,4.412-2.155,6.157c-0.718-0.616-1.642-1.334-2.771-2.155c-2.258-1.539-3.694-2.463-5.644-2.463
						C329.895,149.154,328.869,149.256,327.535,149.975z"/>
				</g>
				<g>
					<path class="st13" d="M346.486,185.22c-0.836,0.498-3.253,1.499-5.286,0.991c-2.313-0.578-3.921-3.28-5.203-5.203
						c-0.991-1.487-0.306-2.558-1.321-3.799c-1.487-1.817-2.643-3.882-5.038-7.103c1.143-0.37,2.78-0.737,4.708-0.578
						c3.143,0.259,4.958,2.334,5.699,1.569c0.48-0.496,0.25-2.763,0.248-4.212c-0.003-2.065,0.456-3.177,2.822-7.764
						c0.927-1.797,1.837-4.088,3.455-6.69l3.455,6.69c2.366,4.587,2.825,5.699,2.822,7.764c-0.002,1.449-0.233,3.717,0.248,4.212
						c0.741,0.764,2.555-1.31,5.699-1.569c1.928-0.159,3.565,0.208,4.708,0.578c-2.395,3.221-3.551,5.286-5.038,7.103
						c-1.016,1.242-0.33,2.313-1.321,3.799c-1.282,1.923-2.891,4.625-5.203,5.203c-2.033,0.508-4.45-0.493-5.286-0.991H346.486z"/>
					<path class="st14" d="M356.418,174.627c-1.756,2.695-4.276,5.74-7.867,8.362c-0.666,0.487-1.329,0.929-1.982,1.332
						 M346.569,162.961l0,21.36 M336.72,174.627c1.756,2.695,4.276,5.74,7.867,8.362c0.666,0.487,1.329,0.929,1.982,1.332"/>
				</g>
				<g>
					<path class="st15" d="M359.985,200.33c0.308-0.308,2.052-1.847,2.155-4.618c0-0.41,0-2.873-1.95-4.72
						c-1.847-1.642-4.002-1.539-4.412-1.437c0.103-0.718,0.41-2.976-0.924-5.336c-1.334-2.463-3.591-3.386-4.207-3.591
						c-0.616-0.205-2.155-0.41-3.899,0.103c-2.258,0.718-3.386,2.463-3.694,2.976c-0.205-0.41-1.539-2.155-3.694-2.36
						c-2.463-0.205-5.131,1.744-5.952,4.823c0.103,0.821,1.642,9.646,10.159,13.955C351.365,204.229,359.061,200.843,359.985,200.33
						z"/>
					<path class="st16" d="M330.432,185.656c-0.103,1.847-0.308,4.515,0,7.799c0.41,4.925,0.616,8.106,2.565,11.082
						c0.821,1.231,2.976,3.899,7.491,5.644c3.899,1.847,6.875,1.437,8.312,1.231c2.873-0.616,4.823-2.257,8.927-5.541
						c2.052-1.642,3.694-3.181,4.823-4.31c-1.026-0.513-2.36-1.129-4.105-1.539c-3.284-0.718-6.054-0.103-7.491,0.308
						c0-1.95-0.103-4.105-0.41-6.465c-0.308-2.463-0.821-4.72-1.334-6.67c-1.437,0.821-3.078,1.847-4.823,3.078
						c-2.155,1.642-3.797,3.284-5.028,4.72c-0.308-0.924-0.821-2.052-1.539-3.386c-1.334-2.565-2.258-4.207-4.105-5.131
						C333.1,186.169,331.971,185.656,330.432,185.656z"/>
				</g>
				<g>
					<path class="st15" d="M354.289,224.702c0.308-0.205,2.565-1.437,3.181-4.105c0.103-0.41,0.718-2.976-0.924-5.233
						c-1.539-2.052-3.694-2.463-4.105-2.463c0.308-0.616,1.026-2.873,0.205-5.541c-0.821-2.771-2.873-4.207-3.386-4.618
						c-0.616-0.308-2.052-0.924-4.002-0.718c-2.463,0.205-4.002,1.744-4.412,2.155c-0.205-0.41-1.129-2.565-3.181-3.181
						c-2.463-0.821-5.541,0.616-7.08,3.591c-0.103,0.924-0.513,10.159,7.08,16.316C344.849,226.754,353.263,225.01,354.289,224.702z
						"/>
					<path class="st16" d="M327.815,203.358c-0.513,1.847-1.231,4.515-1.744,7.799c-0.718,5.028-1.231,8.312,0.103,11.698
						c0.513,1.437,2.052,4.618,6.362,7.388c3.591,2.668,6.567,3.078,8.106,3.078c2.976,0,5.439-1.129,10.159-3.591
						c2.463-1.231,4.412-2.463,5.849-3.284c-0.924-0.821-2.155-1.744-3.797-2.463c-3.181-1.437-6.054-1.437-7.696-1.334
						c0.41-1.95,0.821-4.105,1.026-6.67c0.205-2.565,0.205-4.925,0.103-6.978c-1.642,0.513-3.489,1.129-5.541,2.052
						c-2.463,1.129-4.515,2.463-6.157,3.694c-0.103-0.924-0.41-2.257-0.821-3.797c-0.821-2.873-1.334-4.72-2.976-6.157
						C330.38,204.384,329.354,203.666,327.815,203.358z"/>
				</g>
				<g>
					<path class="st15" d="M343.401,248.868c0.41-0.103,2.873-0.924,4.207-3.489c0.205-0.41,1.334-2.873,0.205-5.541
						c-1.026-2.463-3.284-3.284-3.694-3.489c0.41-0.616,1.744-2.668,1.539-5.541c-0.205-3.078-1.95-4.925-2.463-5.439
						c-0.513-0.41-1.847-1.437-3.899-1.642c-2.565-0.308-4.515,0.821-5.028,1.231c-0.103-0.513-0.513-2.873-2.565-4.002
						c-2.36-1.334-5.746-0.616-8.004,2.052c-0.308,0.924-2.771,10.261,3.489,18.265
						C333.345,248.766,342.375,248.868,343.401,248.868z"/>
					<path class="st16" d="M321.339,221.06c-0.924,1.744-2.36,4.31-3.591,7.593c-1.847,5.028-3.078,8.106-2.463,12.006
						c0.205,1.642,1.026,5.233,4.823,8.927c2.976,3.591,6.054,4.618,7.593,4.925c3.078,0.718,5.746,0,11.185-1.334
						c2.771-0.718,5.131-1.437,6.67-2.052c-0.718-1.026-1.847-2.257-3.284-3.386c-2.873-2.155-5.849-2.873-7.491-3.078
						c0.924-1.847,1.847-4.002,2.565-6.567c0.821-2.565,1.334-4.925,1.744-7.08c-1.744,0.103-3.899,0.308-6.157,0.821
						c-2.771,0.616-5.233,1.539-7.08,2.36c0.103-1.026,0.103-2.463,0-4.105c-0.205-3.078-0.308-5.131-1.642-6.875
						C323.699,222.702,322.775,221.778,321.339,221.06z"/>
				</g>
				<g>
					<path class="st15" d="M329.514,273.059c0.41,0,3.181-0.41,4.925-2.873c0.308-0.41,1.847-2.668,1.129-5.644
						c-0.616-2.668-2.771-4.002-3.181-4.207c0.513-0.513,2.258-2.463,2.565-5.439c0.308-3.181-1.129-5.439-1.539-6.054
						c-0.513-0.513-1.642-1.744-3.694-2.36c-2.565-0.718-4.72,0.103-5.336,0.308c0-0.513,0-2.976-1.95-4.618
						c-2.155-1.847-5.849-1.744-8.62,0.616c-0.41,0.924-4.618,10.056,0.41,19.394C319.15,271.212,328.488,272.853,329.514,273.059z"
						/>
					<path class="st16" d="M311.762,240.633c-1.334,1.642-3.181,4.002-5.028,7.183c-2.771,4.823-4.618,7.799-4.72,11.903
						c0,1.744,0.205,5.541,3.284,10.056c2.463,4.207,5.439,5.746,6.875,6.362c2.976,1.231,5.952,1.026,11.698,0.616
						c2.976-0.205,5.439-0.616,7.183-0.924c-0.616-1.129-1.437-2.565-2.771-4.002c-2.565-2.771-5.541-4.002-7.183-4.515
						c1.231-1.744,2.565-3.797,3.797-6.259c1.334-2.463,2.258-4.823,2.976-6.978c-1.847-0.205-4.002-0.308-6.465-0.205
						c-2.976,0.103-5.644,0.616-7.696,1.129c0.308-1.026,0.513-2.463,0.718-4.207c0.41-3.181,0.616-5.336-0.513-7.388
						C313.917,242.685,313.199,241.659,311.762,240.633z"/>
				</g>
				<g>
					<path class="st13" d="M306.289,260.322c-5.874,1.876-7.201,2.428-8.943,4.175c-1.222,1.226-2.943,3.336-3.768,3.349
						c-1.272,0.02-1.052-3.266-3.489-6.14c-1.495-1.763-3.187-2.836-4.466-3.489c-0.698,4.745-1.465,7.466-1.744,10.257
						c-0.191,1.907-1.675,2.233-2.093,4.326c-0.542,2.708-1.465,6.35,0,8.792c1.288,2.147,4.176,3.343,5.303,3.628l0.14,0.14
						c0.285,1.127,1.482,4.015,3.628,5.303c2.442,1.465,6.084,0.542,8.792,0c2.093-0.419,2.419-1.903,4.326-2.093
						c2.791-0.279,5.512-1.047,10.257-1.744c-0.653-1.278-1.726-2.971-3.489-4.466c-2.874-2.437-6.16-2.217-6.14-3.489
						c0.013-0.824,2.123-2.546,3.349-3.768c1.747-1.742,2.299-3.069,4.175-8.943c0.735-2.302,1.901-5.006,2.733-8.571
						L306.289,260.322z"/>
					<path class="st14" d="M304.429,284.662c-3.76,0.793-8.461,1.237-13.711,0.419c-0.974-0.152-1.908-0.338-2.8-0.549
						 M306.334,266.115l-18.416,18.416 M287.787,268.021c-0.793,3.76-1.237,8.461-0.419,13.711c0.152,0.974,0.338,1.908,0.549,2.8"
						/>
				</g>
			</g>
		</g>
		<g>
			<defs>
				<ellipse id="SVGID_00000070119823590685589760000014506535194847373991_" cx="240" cy="259.5" rx="173.8" ry="236.3"/>
			</defs>
			<clipPath id="SVGID_00000099624708603312298850000012563544228606572967_">
				<use xlink:href="#SVGID_00000070119823590685589760000014506535194847373991_"  style="overflow:visible;"/>
			</clipPath>
			<g style="clip-path:url(#SVGID_00000099624708603312298850000012563544228606572967_);">
				<path class="st12" d="M179.4,79.4c-10.8,8.9-38.1,34-45.2,74.1c-9.3,52.1,19.1,108.1,71.9,140.4"/>
				<path class="st18" d="M179.672,273.681c1.79-2.014,3.803-4.586,5.705-7.83c2.573-4.586,4.139-8.725,4.586-11.969
					c0.559-3.691,0-9.62-2.349-16.332c-1.678-4.922-4.027-8.613-5.929-11.186c-0.112,2.014-0.671,5.034-2.125,8.39
					c-1.23,2.685-2.237,3.803-3.803,6.712c-1.007,1.902-2.237,4.922-3.132,8.837c-0.559,2.125-1.566,7.271,0.447,13.312
					C174.862,268.983,177.994,272.227,179.672,273.681z"/>
				<path class="st18" d="M128.019,250.302c1.119,2.237,3.244,5.481,6.6,8.613c5.034,4.363,10.18,6.264,12.976,6.712
					c2.349,0.336,6.152,0.112,10.403-1.23c3.58-1.119,6.264-2.685,8.054-4.027c-1.678-1.79-3.915-4.027-6.935-6.041
					c-4.586-3.132-8.949-4.81-12.081-5.369c-1.454-0.224-3.58-0.224-6.152,0.224c-2.908,0.559-4.027,1.342-6.712,1.566
					C132.941,250.973,130.703,250.973,128.019,250.302z"/>
				<path class="st18" d="M156.333,245.492c2.014-1.566,4.475-3.58,6.824-6.376c3.244-3.803,5.593-7.495,6.6-10.403
					c1.119-3.356,1.79-9.061,0.783-15.773c-0.671-4.922-2.237-8.949-3.468-11.634c-0.559,1.902-1.566,4.586-3.468,7.495
					c-1.678,2.349-2.797,3.132-4.81,5.705c-1.342,1.678-3.02,4.251-4.586,7.719c-0.895,1.902-2.797,6.488-2.014,12.529
					C152.642,240.123,155.103,243.814,156.333,245.492z"/>
				<path class="st18" d="M120.097,226.587c0.783,2.014,2.125,5.146,4.698,8.166c3.803,4.363,8.054,6.6,10.403,7.271
					c2.014,0.559,5.258,0.783,9.061,0.112c3.244-0.559,5.705-1.566,7.383-2.461c-1.23-1.79-2.908-3.915-5.258-6.041
					c-3.58-3.244-7.159-5.146-9.732-5.929c-1.23-0.336-3.132-0.559-5.369-0.447c-2.573,0.112-3.691,0.671-5.929,0.559
					C124.236,227.706,122.334,227.482,120.097,226.587z"/>
				<path class="st18" d="M140.595,215.96c2.237-1.007,4.922-2.573,7.719-4.698c3.803-3.02,6.712-6.041,8.278-8.613
					c1.79-3.02,3.468-8.278,3.803-14.878c0.336-4.81-0.336-8.837-1.119-11.746c-0.895,1.678-2.349,4.139-4.81,6.488
					c-2.014,1.902-3.356,2.461-5.593,4.475c-1.566,1.342-3.691,3.468-5.929,6.488c-1.23,1.678-3.915,5.705-4.363,11.522
					C138.134,210.031,139.7,214.059,140.595,215.96z"/>
				<path class="st18" d="M113.3,198.51c0.224,2.237,0.783,5.593,2.573,9.173c2.573,5.258,6.264,8.502,8.39,9.732
					c1.79,1.119,4.922,2.125,8.949,2.461c3.244,0.336,6.041-0.112,7.942-0.559c-0.671-2.014-1.79-4.586-3.58-7.271
					c-2.685-4.027-5.705-6.936-8.054-8.39c-1.119-0.671-2.908-1.342-5.146-1.79c-2.573-0.559-3.691-0.336-5.929-0.895
					C117.103,200.635,115.314,199.964,113.3,198.51z"/>
				<path class="st18" d="M133.686,185.645c2.349-0.559,5.146-1.342,8.278-2.797c4.251-2.014,7.607-4.251,9.508-6.376
					c2.237-2.461,4.922-7.047,6.712-13.088c1.23-4.475,1.566-8.39,1.454-11.298c-1.119,1.342-3.02,3.356-5.817,5.034
					c-2.237,1.342-3.58,1.566-6.152,3.02c-1.79,0.895-4.139,2.461-6.936,4.81c-1.454,1.23-4.81,4.475-6.488,9.844
					C132.679,179.717,133.351,183.744,133.686,185.645z"/>
				<path class="st18" d="M112.09,172.781c-0.224,2.125-0.336,5.258,0.783,9.061c1.454,5.369,4.251,9.061,6.041,10.627
					c1.454,1.342,4.251,2.908,7.83,3.915c3.02,0.895,5.593,1.007,7.495,0.895c-0.336-2.014-0.895-4.586-2.125-7.383
					c-1.79-4.251-4.027-7.495-6.041-9.173c-0.895-0.783-2.461-1.79-4.475-2.573c-2.237-1.007-3.468-0.895-5.369-1.902
					C115.222,175.466,113.656,174.571,112.09,172.781z"/>
				<path class="st18" d="M116.13,147.948c-0.671,2.014-1.566,5.034-1.454,8.949c0.112,5.593,2.014,9.844,3.356,11.746
					c1.119,1.678,3.468,3.803,6.712,5.705c2.685,1.566,5.258,2.349,7.047,2.685c0.224-2.014,0.224-4.698-0.224-7.719
					c-0.671-4.586-2.125-8.166-3.58-10.403c-0.671-1.007-1.902-2.349-3.691-3.58c-2.014-1.454-3.132-1.79-4.698-3.132
					C118.48,151.303,117.249,150.073,116.13,147.948z"/>
				<path class="st18" d="M124.869,123.673c-1.007,1.678-2.461,4.475-3.132,8.054c-1.007,5.146-0.112,9.508,0.783,11.522
					c0.783,1.79,2.461,4.251,5.146,6.6c2.237,2.014,4.475,3.132,6.041,3.915c0.559-1.902,1.119-4.251,1.342-7.159
					c0.224-4.363-0.336-8.054-1.342-10.403c-0.447-1.119-1.342-2.573-2.685-4.139c-1.566-1.79-2.573-2.237-3.803-3.915
					C126.435,127.253,125.429,125.799,124.869,123.673z"/>
				<path class="st18" d="M135.378,152.758c2.125,0,4.698-0.224,7.607-0.895c4.027-0.895,7.271-2.237,9.285-3.691
					c2.349-1.678,5.481-5.146,8.166-10.068c1.902-3.58,2.797-6.936,3.244-9.396c-1.23,1.007-3.244,2.349-5.929,3.244
					c-2.237,0.783-3.356,0.783-5.817,1.454c-1.678,0.447-4.027,1.342-6.824,2.908c-1.454,0.783-4.922,3.02-7.383,7.271
					C135.601,147.5,135.378,151.08,135.378,152.758z"/>
				<path class="st18" d="M137.859,103.538c-1.342,1.342-3.132,3.468-4.475,6.6c-1.902,4.475-2.014,8.613-1.678,10.627
					c0.336,1.79,1.342,4.363,3.244,7.047c1.566,2.237,3.356,3.803,4.586,4.81c0.895-1.566,1.902-3.691,2.685-6.264
					c1.119-3.915,1.342-7.383,1.007-9.62c-0.112-1.119-0.671-2.573-1.566-4.251c-1.007-1.902-1.79-2.573-2.573-4.251
					C138.53,107.118,137.971,105.663,137.859,103.538z"/>
				<path class="st18" d="M145.018,123.897c1.902,0.447,4.363,0.783,7.271,0.671c3.915-0.112,7.271-0.671,9.508-1.566
					c2.573-1.119,6.152-3.58,9.62-7.719c2.461-3.02,4.027-5.929,5.034-8.054c-1.342,0.671-3.468,1.454-6.152,1.79
					c-2.237,0.224-3.356,0-5.817,0.112c-1.678,0.112-4.027,0.447-6.936,1.342c-1.566,0.447-5.258,1.79-8.39,5.258
					C146.36,118.975,145.354,122.219,145.018,123.897z"/>
				<path class="st18" d="M151.184,84.074c-1.454,1.119-3.691,3.02-5.481,6.041c-2.685,4.251-3.356,8.39-3.244,10.403
					c0,1.79,0.671,4.586,2.237,7.607c1.23,2.461,2.797,4.251,3.915,5.481c1.119-1.454,2.461-3.356,3.58-5.929
					c1.678-3.803,2.461-7.271,2.349-9.62c0-1.119-0.336-2.685-1.007-4.475c-0.783-2.125-1.454-2.797-2.014-4.698
					C151.296,87.765,151.072,86.199,151.184,84.074z"/>
				<path class="st18" d="M163.811,97.05c1.678,0.895,3.803,1.79,6.376,2.461c3.58,0.895,6.712,1.23,8.949,1.007
					c2.573-0.336,6.488-1.678,10.627-4.475c3.02-2.014,5.146-4.251,6.6-6.041c-1.342,0.224-3.468,0.447-6.041,0.112
					c-2.014-0.336-3.02-0.895-5.258-1.342c-1.454-0.336-3.691-0.671-6.6-0.559c-1.566,0-5.146,0.224-8.949,2.685
					C166.16,92.911,164.482,95.708,163.811,97.05z"/>
				<path class="st18" d="M173.221,68.301c-1.678,0.671-4.251,1.79-6.824,4.027c-3.691,3.244-5.481,6.824-6.041,8.837
					c-0.447,1.678-0.671,4.475,0,7.719c0.447,2.685,1.454,4.81,2.125,6.264c1.454-1.007,3.244-2.461,5.034-4.475
					c2.685-3.02,4.363-6.152,4.922-8.278c0.336-1.007,0.447-2.573,0.336-4.475c-0.112-2.125-0.559-3.02-0.559-5.034
					C172.326,71.769,172.438,70.203,173.221,68.301z"/>
				<path class="st18" d="M200.187,69.867c-1.79-0.783-4.922-1.454-8.837-1.566c-3.244-0.112-5.593,0.671-7.271,1.454
					c-1.902,0.895-4.251,2.573-6.376,5.258c-3.02,3.803-4.251,7.495-4.922,9.844c2.237,0.112,5.481,0.112,9.285-1.007
					c3.58-1.007,5.705-2.125,7.495-3.356c1.454-1.007,3.691-2.908,5.258-4.475C197.055,73.894,198.844,71.657,200.187,69.867z"/>
			</g>
		</g>
		<g>
			<ellipse id="SVGID_1_" class="st19" cx="240" cy="259.5" rx="173.8" ry="236.3"/>
		</g>
	</g>
</g>
</svg>
