<?xml version="1.0" encoding="UTF-8" standalone="no"?>
<svg
   xmlns:dc="http://purl.org/dc/elements/1.1/"
   xmlns:cc="http://creativecommons.org/ns#"
   xmlns:rdf="http://www.w3.org/1999/02/22-rdf-syntax-ns#"
   xmlns:svg="http://www.w3.org/2000/svg"
   xmlns="http://www.w3.org/2000/svg"
   xmlns:xlink="http://www.w3.org/1999/xlink"
   xmlns:sodipodi="http://sodipodi.sourceforge.net/DTD/sodipodi-0.dtd"
   xmlns:inkscape="http://www.inkscape.org/namespaces/inkscape"
   width="358.968"
   height="475.098"
   viewBox="0 0 94.977 125.703"
   version="1.1"
   id="svg529"
   sodipodi:docname="Coat_of_arms_of_Central_Kalimantan (1) (1).svg"
   inkscape:version="1.0.1 (3bc2e813f5, 2020-09-07)">
  <metadata
     id="metadata533">
    <rdf:RDF>
      <cc:Work
         rdf:about="">
        <dc:format>image/svg+xml</dc:format>
        <dc:type
           rdf:resource="http://purl.org/dc/dcmitype/StillImage" />
      </cc:Work>
    </rdf:RDF>
  </metadata>
  <sodipodi:namedview
     pagecolor="#ffffff"
     bordercolor="#666666"
     borderopacity="1"
     objecttolerance="10"
     gridtolerance="10"
     guidetolerance="10"
     inkscape:pageopacity="0"
     inkscape:pageshadow="2"
     inkscape:window-width="1366"
     inkscape:window-height="705"
     id="namedview531"
     showgrid="false"
     inkscape:zoom="0.94703612"
     inkscape:cx="120.68812"
     inkscape:cy="235.615"
     inkscape:window-x="-8"
     inkscape:window-y="-8"
     inkscape:window-maximized="1"
     inkscape:current-layer="svg529" />
  <style
     id="style2"><![CDATA[.Q{fill:#fff}.R{fill:#41723d}.S{fill:#e9e9e9}.T{stroke:#bdbdbd}.U{stroke:#3a6737}.V{opacity:.995}.W{opacity:.998}.X{fill-rule:evenodd}.Y{stroke-width:.265}.Z{fill:#eee}.a{fill:#ffeba3}.b{stroke:#acacac}.c{fill:#f5c742}.d{stroke-width:.236}.e{stroke-width:.185}.f{stroke:#376134}.g{stroke-width:.208}.h{fill:#376134}.i{opacity:.999}.j{fill:#dcdcdc}.k{stroke-width:.167}.l{stroke-width:.051}.m{stroke-width:.213}.n{stroke-width:.215}.o{stroke-linejoin:round}.p{stroke-width:.172}.q{stroke-width:.202}.r{stroke-width:.242}]]></style>
  <defs
     id="defs61">
    <linearGradient
       id="A"
       x1="-23.126"
       y1="34.377"
       x2="-20.246"
       y2="34.403"
       xlink:href="#F">
      <stop
         offset="0"
         stop-color="#edff84"
         id="stop4" />
      <stop
         offset="1"
         stop-color="#ff8953"
         id="stop6" />
    </linearGradient>
    <linearGradient
       id="B"
       x1="-21.47"
       y1="32.771"
       x2="-19.821"
       y2="33.137"
       xlink:href="#F">
      <stop
         offset="0"
         stop-color="#ec4a00"
         id="stop9" />
      <stop
         offset="1"
         stop-color="#ff6018"
         id="stop11" />
    </linearGradient>
    <linearGradient
       id="C"
       x1="319.526"
       y1="166.521"
       x2="322.69"
       y2="166.521"
       gradientTransform="matrix(0.30206219,0.22583056,-0.3548725,0.43643944,-54.469729,-79.530297)"
       xlink:href="#F">
      <stop
         offset="0"
         stop-color="#241205"
         id="stop14" />
      <stop
         offset=".5"
         stop-color="#8b4513"
         id="stop16" />
      <stop
         offset="1"
         stop-color="#241205"
         id="stop18" />
    </linearGradient>
    <linearGradient
       id="D"
       x1="131.104"
       y1="130.319"
       x2="132.925"
       y2="132.14"
       xlink:href="#F"
       gradientTransform="matrix(0.718055,-0.085238,0.088893,0.688536,-113.14968,-25.59016)">
      <stop
         offset="0"
         stop-color="#be5e1a"
         id="stop21" />
      <stop
         offset=".505"
         stop-color="#e9965b"
         id="stop23" />
      <stop
         offset="1"
         stop-color="#be5e1a"
         id="stop25" />
    </linearGradient>
    <linearGradient
       id="E"
       x1="184.73"
       y1="-2.487"
       x2="187.553"
       y2="-2.487"
       xlink:href="#F"
       gradientTransform="matrix(0.5705984,0.42659611,-0.44488472,0.54714084,-113.14968,-25.59016)">
      <stop
         offset="0"
         stop-color="#ebc3a8"
         stop-opacity=".5"
         id="stop28" />
      <stop
         offset=".525"
         stop-color="#fff"
         stop-opacity=".502"
         id="stop30" />
      <stop
         offset="1"
         stop-color="#ebc3a8"
         stop-opacity=".5"
         id="stop32" />
    </linearGradient>
    <linearGradient
       id="F"
       gradientUnits="userSpaceOnUse" />
    <radialGradient
       id="G"
       cx="105"
       cy="222.903"
       fx="105"
       fy="222.903"
       r="39.68"
       gradientTransform="matrix(1,0,0,1.2061378,-57.511514,-206.00083)"
       gradientUnits="userSpaceOnUse"
       spreadMethod="pad">
      <stop
         offset="0"
         stop-color="#7bd26c"
         id="stop36" />
      <stop
         offset="1"
         stop-color="#48af36"
         id="stop38" />
    </radialGradient>
    <linearGradient
       id="H"
       x1="121.034"
       y1="80.967"
       x2="117.903"
       y2="86.817"
       gradientUnits="userSpaceOnUse">
      <stop
         offset="0"
         stop-color="#355d32"
         id="stop41" />
      <stop
         offset="1"
         stop-color="#41723d"
         id="stop43" />
    </linearGradient>
    <path
       id="I"
       d="M78.822 74.714c1.156 2.309.151 5.454-2.481 7.494-.382-2.86-.109-5.525 2.481-7.494z" />
    <path
       id="J"
       d="M72.895 85.475c.956 2.399-.312 5.447-3.108 7.257-.138-2.883.361-5.514 3.108-7.257z" />
    <path
       id="K"
       d="M17.916 77.822c-4.359-.962-5.825-3.743-6.125-6.548 3.011 1.505 5.513 3.782 6.125 6.548z" />
    <path
       id="L"
       d="M-26.003 52.947l-1.732 1.471 1.732 1.471" />
    <path
       id="M"
       d="M-10.194 52.947l1.732 1.471-1.732 1.471" />
    <path
       id="N"
       d="M17.081 61.321c-.536-.039-.668-1.276-.105-1.807-.194-.637.105-1.328.937-1.401-.187-.864 1.22-.571 1.225-.24.747-.212 1.1.28 1.15.51 1.113.402 1.043 1.329.688 1.917l-1.329 2.518z" />
    <path
       id="O"
       d="M16.994 60.662c.116-.407-.074-.98.517-1.056-.704-.879.253-1.182.701-.858-.143-.709.877-.636 1.03-.21.354-.504.823-.072.859.357.592-.3 1.252 1.143.297 1.611-.14-.149-.451-.617-.822-.912-.181.267-.439.42-.509.859l-.861-.789c-.184.649-.103.539-.344 1.209-.737-.124-.401-.241-.867-.211z" />
    <path
       id="P"
       d="M16.292 71.266c-.52.084-.899-1.119-.47-1.779-.316-.591-.172-1.349.608-1.615-.355-.819 1.048-.851 1.12-.523.67-.385 1.108.025 1.203.243 1.145.143 1.268 1.085 1.049 1.753l-.753 2.819z" />
    <path
       id="Q"
       d="M15.818 70.983c.516-.012 1.025.032 1.502.312-.166-.466-.09-.862 0-1.255.323.257.643.528 1.043.546.354-.573.108-.707.103-1.017.309.159.68.155.859.652.526-.429.493-.982.609-1.502.27 1.52 1.651 2.156.199 5.042-1.087-.456-2.689.219-4.316-2.778z" />
    <path
       id="R"
       d="M16.073 70.628c.027-.432-.272-.961.277-1.173-.852-.714 0-1.237.493-1.018-.282-.674.707-.837.941-.448.235-.585.771-.262.893.157.504-.436 1.43.851.613 1.539-.164-.116-.557-.511-.972-.72-.118.308-.333.52-.309.975l-.984-.588c-.043.69.012.562-.081 1.285-.729.047-.432-.148-.87-.01z" />
    <path
       id="S"
       d="M27.611 80.554c.38.367.787.899 1.103.882-.179-.968-.092-1.735 0-2.5l.662 1.177c.063-1.202.193-2.395.735-3.53.598.982 1.081 2.041 1.471 3.162l.735-.735c-.368 1.008.086 1.924.294 2.868l.515-.882c.235 2.491.832 4.317-.515 9.706-2.469-3.135-4.785-6.289-5-10.147z" />
    <path
       id="T"
       d="M29.973 84.51c1.073 1.441 1.478 2.965 2.028 4.472.024-1.362-.421-2.782.104-4.082l-.468.338c-.5-1.176-.624-2.367-.468-3.64l-.338.494c-.287-.882-.352-1.709-.364-2.522-.251.875-.25 1.75-.156 2.626l-.468-.182c.587.999 1.05 1.966 1.144 3.25z" />
    <path
       id="U"
       d="M70.699 72.245c.366.632.78 1.22.301 2.631-.044-.856-.165-1.741-.301-2.631z" />
    <path
       id="V"
       d="M73.144 67.775c.415.599.874 1.152.509 2.597-.113-.85-.304-1.722-.509-2.597z" />
    <path
       id="W"
       d="M64.55 31.973c.519-.159 1.013-.365 1.984.301-.638-.14-1.308-.226-1.984-.301z" />
  </defs>
  <g
     stroke="#000"
     stroke-width="1.086"
     id="g67">
    <path
       d="M15.781.645c-3.7 4.622-8.251 9.033-15.232 9.96l.604 48.909c2.94 37.551 33.792 65.646 46.336 65.646s43.396-28.095 46.336-65.646l.604-48.909c-6.982-.926-11.533-5.338-15.233-9.96C68.32 4.668 57.101 6.77 47.489 6.857c-9.612-.088-20.831-2.19-31.707-6.212z"
       class="Q i"
       id="path63" />
    <path
       d="M16.599 3.626c-3.289 3.852-7.564 7.456-13.441 8.928l.576 46.793c1.427 18.11 9.62 34.06 18.98 45.428 4.683 5.687 9.655 10.221 14.115 13.275s8.487 4.523 10.658 4.523 6.198-1.469 10.658-4.523 9.432-7.588 14.115-13.275c9.36-11.368 17.554-27.318 18.98-45.428l.576-46.793c-5.877-1.471-10.15-5.076-13.439-8.928C67.776 7.347 56.971 9.358 47.51 9.444h-.047c-9.462-.086-20.264-2.098-30.865-5.818z"
       fill="#d20000"
       opacity=".99"
       id="path65" />
  </g>
  <path
     d="M36.892 18.892c-4.212 8.389-7.299 5.872-18.396 13.256-25.192 16.762 2.221 52.669 12.366 65.127l-3.556 6.268c4.216 2.847 10.348 6.067 20.182 6.837 9.834-.769 15.967-3.99 20.182-6.837l-3.556-6.268C74.259 84.817 101.672 48.91 76.48 32.148c-11.097-7.384-14.185-4.867-18.397-13.256-1.245-2.873-6.864-3.569-10.596-3.569s-9.288 1.01-10.596 3.569z"
     fill="url(#G)"
     id="path69" />
  <path
     d="M30.664 98.132l-2.835 5.645c6.002 3.472 12.791 5.379 19.607 5.379s13.605-1.907 19.607-5.379l-2.835-5.645a35.267 37.962 0 0 1-16.771 4.567 35.267 37.962 0 0 1-16.772-4.568z"
     opacity=".99"
     stroke="#dadada"
     stroke-width=".545"
     class="Q X o"
     id="path71" />
  <path
     d="M30.761 103.332l1.33-3.181.597.289-1.33 3.181zm1.666-.427l.617.182q-.06.344.049.562.112.219.391.333.295.121.491.049.199-.074.262-.254.041-.116.005-.222-.033-.108-.169-.232-.093-.084-.439-.343-.445-.333-.576-.605-.184-.383-.047-.77.088-.249.295-.411.209-.164.495-.176.288-.012.637.131.57.234.762.62.194.388.05.843l-.622-.222q.05-.267-.042-.43-.089-.164-.347-.27-.266-.109-.459-.053-.124.036-.169.163-.041.116.021.235.079.152.485.448.406.296.576.506.172.208.217.468.048.259-.061.568-.099.28-.33.465-.231.185-.538.197-.306.009-.701-.152-.574-.235-.781-.646-.206-.413-.073-.984zm2.901 2.359l.905-3.349 2.307.722-.153.567-1.679-.525-.201.742 1.562.489-.152.564-1.562-.489-.246.912 1.738.544-.152.564zm3.209.965l.636-3.42.624.135.875 2.564.425-2.284.596.128-.636 3.42-.644-.139-.866-2.506-.415 2.23zm5.05.922l.195-3.482.977.063.454 2.413.713-2.337.98.064-.195 3.482-.607-.039.153-2.741-.795 2.699-.629-.041-.486-2.782-.153 2.741zm3.946-3.286l.654-.029.071 1.887q.017.449.046.581.05.212.212.336.164.121.438.109.278-.012.415-.14.137-.13.159-.309.022-.18.006-.593l-.073-1.928.654-.029.069 1.83q.024.628-.02.889-.043.261-.18.446-.135.184-.369.302-.235.115-.619.132-.464.02-.709-.083-.243-.106-.389-.283-.146-.179-.198-.379-.075-.297-.097-.882zm3.723 3.269l-.406-3.432.649-.089.337 2.849 1.614-.221.069.583zm5.883-1.104l-.696.16-.43-.711-1.267.291-.108.835-.679.156.558-3.695.677-.155zm-1.446-1.079l-.688-1.165-.177 1.364zm2.081.884l-.952-3.334.608-.201 1.904 1.807-.636-2.226.581-.192.952 3.334-.627.208-1.87-1.761.621 2.174zm4.345-2.969l-.207-.544 1.305-.574.489 1.286q-.115.282-.419.593-.303.308-.673.471-.471.207-.901.15-.431-.06-.757-.376-.327-.319-.503-.784-.192-.504-.144-.983.047-.478.347-.854.227-.288.657-.477.559-.246.968-.13.41.112.669.518l-.555.386q-.154-.21-.382-.269-.227-.062-.488.053-.397.175-.529.549-.13.374.072.906.218.575.565.759.346.182.731.013.19-.084.35-.247.161-.166.255-.341l-.156-.41z"
     opacity=".997"
     id="path73" />
  <g
     fill="gold"
     stroke="#a07843"
     stroke-width=".6"
     class="o"
     id="g141"
     style="fill:#ffde00;fill-opacity:1">
    <path
       d="M43.167 111.254l-8.054 4.043c2.38 2.171 5.44.125 8.173-1.165 2.396-1.131 4.447-1.347 6.824-2.12-2.191-.467-3.782-1.968-6.943-.759z"
       id="path75"
       style="fill:#ffde00;fill-opacity:1" />
    <path
       d="M39.103 109.085l2.808.156c2.219 6.241 12.254 3.041 10.919.156l3.328-.52c-.011 3.784-3.421 6.565-8.371 6.499-2.766-.036-7.686-1.944-8.683-6.291z"
       id="path77"
       style="fill:#ffde00;fill-opacity:1" />
    <path
       d="M47.753 112.826c3.841 1.145 6.822 6.041 11.626 2.986-5.601-1.157-6.044-2.457-8.474-3.702-1.725-.34-2.355.26-3.152.716zm-9.9-94.896c.442-2.555 2.017-3.28 4.227-2.983-.837 1.716-1.984 3.04-4.227 2.983zm3.695-1.157c.896-2.431 2.577-2.854 4.696-2.156-1.133 1.533-2.5 2.624-4.696 2.156zm4.07-.771c1.346-2.21 3.076-2.298 5.02-1.199-1.406 1.283-2.957 2.087-5.02 1.199z"
       id="path79"
       style="fill:#ffde00;fill-opacity:1" />
    <path
       d="M49.818 15.865c1.61-2.023 3.337-1.891 5.13-.555-1.554 1.095-3.193 1.697-5.13.555z"
       id="path81"
       style="fill:#ffde00;fill-opacity:1" />
    <path
       d="M53.851 16.215c2.447-1.012 4.037-.058 5.149 1.993-1.977.217-3.812-.043-5.149-1.993z"
       id="path83"
       style="fill:#ffde00;fill-opacity:1" />
    <path
       d="M56.082 18.173c3.145-.206 4.584 1.32 5.072 3.814-2.315-.452-4.292-1.348-5.072-3.814zm2.598 3.925c3.12-.479 4.704.83 5.429 3.14-2.355-.217-4.414-.883-5.429-3.14z"
       id="path85"
       style="fill:#ffde00;fill-opacity:1" />
    <path
       d="M62.491 25.72c2.914-1.212 4.766-.319 6.023 1.749-2.338.353-4.497.199-6.023-1.749zm4.668 2.423c2.233-.918 5.185-.226 7.032 1.713-2.73.346-5.251.195-7.032-1.713zm4.712 2.217c2.32-.665 5.178.348 6.8 2.48-2.751.042-5.24-.386-6.8-2.48zm4.471 2.739c2.799-.174 5.788 1.69 7.095 4.511-3.132-.64-5.849-1.748-7.095-4.511z"
       id="path87"
       style="fill:#ffde00;fill-opacity:1" />
    <path
       d="M80.186 37.147c2.458-.176 5.083 1.71 6.23 4.564-2.751-.647-5.137-1.769-6.23-4.564z"
       id="path89"
       style="fill:#ffde00;fill-opacity:1" />
    <path
       d="M83.334 40.453c2.38.641 4.24 3.284 4.387 6.357-2.386-1.515-4.271-3.357-4.387-6.357z"
       id="path91"
       style="fill:#ffde00;fill-opacity:1" />
    <path
       d="M85.181 45.048c2.139 1.224 3.268 4.252 2.63 7.262-1.923-2.07-3.28-4.331-2.63-7.262zm.244 4.662c1.964 1.489 2.694 4.637 1.674 7.54-1.641-2.301-2.695-4.717-1.674-7.54z"
       id="path93"
       style="fill:#ffde00;fill-opacity:1" />
    <path
       d="M85.472 54.786c1.772 1.713 2.119 4.926.76 7.686-1.354-2.481-2.111-5.005-.76-7.686zm-.654 5.031c1.548 1.918 1.497 5.15-.192 7.721-1.038-2.628-1.479-5.227.192-7.721zm-1.396 4.628c1.351 2.062.981 5.272-.954 7.664-.774-2.718-.956-5.348.954-7.664zm-2.05 5.583c1.346 2.204.608 5.422-1.844 7.676-.62-2.818-.571-5.496 1.844-7.676z"
       id="path95"
       style="fill:#ffde00;fill-opacity:1" />
    <use
       xlink:href="#I"
       id="use97"
       style="fill:#ffde00;fill-opacity:1" />
    <use
       xlink:href="#I"
       x="-2.925"
       y="5.749"
       id="use99"
       style="fill:#ffde00;fill-opacity:1" />
    <use
       xlink:href="#J"
       id="use101"
       style="fill:#ffde00;fill-opacity:1" />
    <use
       xlink:href="#J"
       x="-3.469"
       y="3.767"
       id="use103"
       style="fill:#ffde00;fill-opacity:1" />
    <path
       d="M65.516 93.503c-1.787 1.276-2.289 2.887-2.496 4.576 1.304-.23 2.335-.185 3.224 0-.164-1.547.119-3.215-.728-4.576zm-2.755 4.705c5.823-1.214 5.588 2.562 5.927 3.666-4.547-.683-4.985-2.159-5.927-3.666z"
       id="path105"
       style="fill:#ffde00;fill-opacity:1" />
    <path
       d="M64.841 100.938c1.589 1.529 1.18 3.442 1.04 5.303 1.716-.494 3.733-1.918 2.912-3.952zM35.307 22.761c2.324-.994 2.65-3.416 2.243-6.36-2.133.908-2.445 3.409-2.243 6.36zm-2.978 3.014c3.311-.357 3.088-2.798 2.647-5.368-1.559 1.045-2.028 3.289-2.647 5.368zm-5.221 3.089c3.514-.654 4.919-2.465 5.405-4.78-1.693.804-3.335 1.241-5.405 4.78z"
       id="path107"
       style="fill:#ffde00;fill-opacity:1" />
    <path
       d="M23.284 30.334c1.664-3.489 3.511-3.772 5.368-3.897-1.335 2.173-2.779 4.135-5.368 3.897zm-4.117 2.684c.794-3.317 2.863-4.402 4.927-4.596-1.165 2.281-2.886 4.163-4.927 4.596z"
       id="path109"
       style="fill:#ffde00;fill-opacity:1" />
    <path
       d="M15.675 35.845c.435-3.383 2.377-4.683 4.407-5.096-.914 2.392-2.425 4.448-4.407 5.096zm-3.34 4.044c-.126-3.409 1.576-5.009 3.512-5.75-.51 2.51-1.662 4.785-3.512 5.75z"
       id="path111"
       style="fill:#ffde00;fill-opacity:1" />
    <path
       d="M10.304 45.071c-1.202-3.751.23-6.048 2.194-7.461.202 2.945-.397 5.826-2.194 7.461z"
       id="path113"
       style="fill:#ffde00;fill-opacity:1" />
    <path
       d="M8.943 50.133c-1.834-3.486-.821-5.997.868-7.729.71 2.866.618 5.806-.868 7.729zm-.147 5.758c-2.519-3.028-2.051-5.695-.758-7.74 1.29 2.655 1.812 5.551.758 7.74z"
       id="path115"
       style="fill:#ffde00;fill-opacity:1" />
    <path
       d="M10.473 61.596c-3.258-2.213-3.547-4.904-2.871-7.228 1.975 2.194 3.278 4.832 2.871 7.228z"
       id="path117"
       style="fill:#ffde00;fill-opacity:1" />
    <path
       d="M11.935 66.956c-3.445-1.909-3.976-4.563-3.514-6.938 2.165 2.007 3.702 4.516 3.514 6.938zm3.005 5.902c-4.219-1.459-5.353-4.39-5.327-7.212 2.817 1.842 5.039 4.394 5.327 7.212z"
       id="path119"
       style="fill:#ffde00;fill-opacity:1" />
    <use
       xlink:href="#K"
       id="use121"
       style="fill:#ffde00;fill-opacity:1" />
    <use
       xlink:href="#K"
       x="3.235"
       y="5.294"
       id="use123"
       style="fill:#ffde00;fill-opacity:1" />
    <use
       xlink:href="#K"
       x="6.397"
       y="10.294"
       id="use125"
       style="fill:#ffde00;fill-opacity:1" />
    <path
       d="M26.995 91.899c-3.935-.779-5.258-3.032-5.529-5.304 2.718 1.219 4.977 3.064 5.529 5.304z"
       id="path127"
       style="fill:#ffde00;fill-opacity:1" />
    <path
       d="M30.859 95.792c-3.995-.369-5.543-2.473-6.047-4.705 2.83.932 5.266 2.534 6.047 4.705z"
       id="path129"
       style="fill:#ffde00;fill-opacity:1" />
    <path
       d="M26.961 94.711c.276.875.325 1.687 1.434 2.794.757.594 1.892 1.037 2.868 1.544.249-.994.731-1.632-.956-3.346z"
       id="path131"
       style="fill:#ffde00;fill-opacity:1" />
    <path
       d="M28.248 97.8c-.795.663-1.235 1.852-1.25 2.794 0 0 1.838 1.287 1.949 1.066s1.985-2.463 1.985-2.463z"
       id="path133"
       style="fill:#ffde00;fill-opacity:1" />
    <path
       d="M27.071 100.667c-1.324 1.349-1.868 2.633-.846 3.787 1.299.993 5.54-.577 5.11-.257-.401.298-3.674-1.065-2.463-2.5zm.385 4.742c5.451-1.695 5.702.865 8.423 1.404-3.464.558-7.106 1.392-8.423-1.404zm4.708 2.639c5.827-2.381 6.335.434 9.37.78-3.75.938-7.67 2.198-9.37-.78z"
       id="path135"
       style="fill:#ffde00;fill-opacity:1" />
    <path
       d="M37.583 110.14c6.1-3.3 7.247-.681 10.748-.874-4.047 1.552-8.219 3.444-10.748.874zm7.283 1.006c3.745 1.227 6.102-.321 8.199-2.39-2.649.182-5.266.128-8.199 2.39z"
       id="path137"
       style="fill:#ffde00;fill-opacity:1" />
    <path
       d="M50.386 111.493c2.297-3.367 5.254-3.376 8.059-4.16-.973 2.1-2.991 3.765-8.059 4.16zm6.759-1.612c1.203-1.525.824-3.05 5.355-4.576-.561 3.484-2.864 4.18-5.355 4.576zm4.67-1.39c.008-2.668 2.527-4.396 4.256-5.152-.471 3.457-2.852 4.494-4.256 5.152z"
       id="path139"
       style="fill:#ffde00;fill-opacity:1" />
  </g>
  <g
     transform="translate(65.585)"
     id="g307">
    <path
       d="M-38.349 36.362l10.003.881c1.581.205 2.495-.033 4.095 2.28 2.018 3.329 4.102 1.674 6.152 2.488v5.924l-5.923 1.19c-.65-.045-1.55.11-1.084-.818-1.183.115-2.741.513-2.203-.674-1.213-.287-2.609-.552-1.244-1.14-2.722-.158-1.887-.643-1.322-1.14-.736-.22-2.276-.264-.959-.933-.56-.371-1.962-.592-.747-1.28-1.019-.113-1.839-.462-.953-1.008-1.476-.556-1.807-.969-1.631-1.319-1.017-.101-1.45-.885-1.023-1.446-1.296-.155-1.9-.726-1.814-1.71-.874-.161-1.232-.652-1.348-1.296z"
       stroke="gray"
       class="g"
       id="path143" />
    <g
       fill="gray"
       id="g149">
      <path
         d="M-25.142 48.211l.069.196 1.787-.623zm-2.206-.672l.078.191 2.28-.932zm-1.24-1.142l.069.194 2.54-.906zm-1.309-1.144l.043.204 2.643-.571zm-.963-.932l.05.201 2.669-.673zm-.737-1.281l.032.204 2.742-.43zm-.946-1.01l.018.207 2.877-.255zm-1.621-1.215l3.647-.018z"
         id="path145" />
      <path
         d="M-34.164 40.711l.002.208 3.647-.018zm-1.023-1.446l-.002.207 3.643.018z"
         id="path147" />
    </g>
    <path
       d="M-37.001 37.658l5.769.298c-.275.47.194.805.99 1.081-.522.697.476 1.314 1.283 1.558-.714.767.657 1.635 1.209 1.595-.409.78.429 1.211 1.136 1.265-.099.456-.115.878 1.081.806-.154 1.211.976.925 1.484.88-.662.372.229 1.207.971.953.277.957.932.778 1.537.751"
       fill="none"
       stroke="#696969"
       class="g"
       id="path151" />
    <path
       d="M-30.235 38.934l-.015.207 3.062.228zm1.275 1.557v.208l2.505-.009zm1.197 1.595l.024.205 2.384-.281zm1.128 1.266l.042.202 2.026-.404zm1.091.805l.021.205 1.671-.175zm1.477.88l.037.204 1.948-.355zm.974.952l.032.205 1.573-.246-1.605.042z"
       fill="gray"
       id="path153" />
    <path
       d="M2.151 36.363l-10.003.881c-1.581.205-2.495-.033-4.095 2.28-2.018 3.329-4.102 1.674-6.152 2.488v5.924l5.923 1.19c.65-.045 1.55.11 1.084-.818 1.183.115 2.741.513 2.203-.674 1.213-.287 2.609-.552 1.244-1.14 2.722-.158 1.887-.643 1.322-1.14.736-.22 2.276-.264.959-.933.56-.371 1.962-.592.747-1.28 1.019-.113 1.839-.462.953-1.008 1.476-.556 1.807-.969 1.631-1.319 1.017-.101 1.45-.885 1.023-1.446 1.296-.155 1.9-.726 1.814-1.71.874-.161 1.232-.652 1.348-1.296z"
       stroke="gray"
       class="g"
       id="path155" />
    <g
       fill="gray"
       id="g161">
      <path
         d="M-11.056 48.211l-.069.196-1.787-.623zm2.206-.672l-.078.191-2.28-.932zm1.24-1.142l-.069.194-2.54-.906zm1.309-1.144l-.043.204-2.643-.571zm.963-.932l-.05.201-2.669-.673zm.737-1.281l-.032.204-2.742-.43zm.946-1.01l-.018.207-2.877-.255zm1.621-1.215l-3.647-.018z"
         id="path157" />
      <path
         d="M-2.034 40.711l-.002.208-3.647-.018zm1.023-1.446l.002.207-3.643.018z"
         id="path159" />
    </g>
    <path
       d="M.803 37.658l-5.769.298c.275.47-.194.805-.99 1.081.522.697-.476 1.314-1.283 1.558.714.767-.657 1.635-1.209 1.595.409.78-.429 1.211-1.136 1.265.099.456.115.878-1.081.806.154 1.211-.976.925-1.484.88.662.372-.229 1.207-.971.953-.277.957-.932.778-1.537.751"
       fill="none"
       stroke="#696969"
       class="g"
       id="path163" />
    <path
       d="M-5.963 38.934l.015.207-3.062.228zm-1.275 1.557v.208l-2.505-.009zm-1.197 1.595l-.024.205-2.384-.281zm-1.128 1.266l-.042.202-2.026-.404zm-1.091.805l-.021.205-1.671-.175zm-1.476.88l-.037.204-1.948-.355zm-.974.952l-.032.205-1.573-.246 1.605.042z"
       fill="gray"
       id="path165" />
    <path
       d="M-18.491 32.53a1.418 1.418 0 0 0-.346.049c-1.597.996-1.653 2.229-1.477 3.499.707.233.994.761 1.011 1.477-1.565 3.065-2.238 6.297-2.239 9.656h3.366.078 3.366c-.002-3.348-.671-6.57-2.226-9.627 1.222-1.953.154-5.077-1.533-5.052z"
       stroke="gray"
       class="Y"
       id="path167" />
    <path
       d="M-25.483 35.592c1.977-1.348 3.472-1.135 5.204-.494.668.246.524 1.051-.183.861-3.699-1.023-3.907-.668-5.021-.367z"
       fill="#edff84"
       id="path169" />
    <path
       d="M-25.407 35.417c1.754-1.838 3.515-2.178 5.235-1.322.503.284.267 1.187-.557.842-1.881-.787-3.709-.107-4.678.48z"
       fill="url(#A)"
       id="path171" />
    <path
       d="M-22.405 30.718c-.208 2.69 1.266 2.938 2.51 3.518.587.135 1.69-.712 1.265-1.741-2.136-.102-3.3-.748-3.775-1.777z"
       fill="url(#B)"
       id="path173" />
    <g
       class="X"
       id="g181">
      <path
         d="M-18.449 35.177a.434.434 0 1 1-.868 0 .434.434 0 1 1 .868 0z"
         class="Q V"
         id="path175" />
      <path
         d="M-18.597 35.177a.286.286 0 0 1-.572 0 .286.286 0 1 1 .572 0z"
         fill="#3d3d3d"
         class="V"
         id="path177" />
      <path
         d="M-18.674 35.177a.208.186 0 0 1-.208.186.208.186 0 0 1-.208-.186.208.186 0 0 1 .208-.186.208.186 0 0 1 .208.186z"
         class="V"
         id="path179" />
    </g>
    <path
       d="M-19.122 34.444c.497-.267 1.042-.724 1.169-1.427 1.573 1.341.976 2.078.852 2.981-.345-.965-1.236-1.725-2.022-1.555z"
       fill="#171717"
       id="path183" />
    <path
       d="M-36.648 45.488c.176 4.152 1.919 6.291 4.204 9.401l21.859 24.365 1.116-1.124z"
       class="Y b j"
       id="path185" />
    <path
       d="M-35.683 47.397c.004.659 1.888 2.71 2.507 3.457l22.751 27.003-.451.347-20.668-22.907c-1.905-2.26-4.088-6.031-4.138-7.901z"
       class="Q"
       id="path187" />
    <path
       d="M-10.424 77.857l-22.751-27.003c-.619-.747-2.503-2.798-2.507-3.457"
       fill="none"
       class="Y b"
       id="path189" />
    <path
       d="M-6.589 82.03c.247.151 2.804-.596 2.137-4.112l-.036.825c-.126-1.287-.732-1.911-1.138-2.812.002.939.182 1.207.005 2.826-.241-.32-.27-.654-.369-.983.015.386.017.773.106 1.155-.246-.202-.296-.631-.31-1.103-.315.367-.206 1.507.006 2.603-.016.483-.328.597-.588.775-.151.286-.197.593.187.827z"
       id="path191" />
    <path
       d="M-8.837 79.162l-1.224 1.083c.889.969 1.856 1.95 2.462 2.87-.679.441-1.885 1.05-1.816 1.32.63.683 1.972-.112 2.714-.797.081-.075.679.149.754.069.419-.442.24-1.324.304-1.642-.888.189-2.125-1.901-3.196-2.903z"
       fill="#4e270b"
       stroke="#391c08"
       class="Y"
       id="path193" />
    <path
       d="M-8.825 79.764l-.301.41c1.042.919 2.161 1.797 2.42 3.116-.199-.83.447-1.083-2.119-3.526z"
       fill="#6e3710"
       id="path195" />
    <path
       d="M-9.683 77.77l-1.311 1.183c-.879 1.321.684 1.878 1.118 1.554l1.542-1.051c.967-.782-.116-2.265-1.35-1.686z"
       fill="#4e270b"
       stroke="#391c08"
       class="Y"
       id="path197" />
    <path
       d="M-10.325 78.953c.693-.962 1.391-1.349 2.103-.286-.641-.252-1.339-.179-2.103.286z"
       fill="#6e3710"
       id="path199" />
    <g
       class="X"
       id="g209">
      <path
         d="M-4.718 50.141l.955.714-25.623 31.512-1.06-.587z"
         fill="url(#C)"
         stroke="#000"
         stroke-width=".176"
         class="V"
         id="path201" />
      <path
         d="M-4.994 49.834l-.055.067-3.257 4.006 1.61 1.204 3.312-4.073zm.03.241l1.328.993-3.091 3.802-1.328-.993z"
         class="V"
         id="path203" />
      <path
         d="M-4.979 49.955l1.469 1.099-3.202 3.938-1.469-1.099z"
         fill="url(#D)"
         class="V"
         id="path205" />
      <path
         d="M-5.28 50.325l1.469 1.098-2.572 3.164-1.469-1.098z"
         fill="url(#E)"
         class="V"
         id="path207" />
    </g>
    <path
       d="M.659 44.473l-5.232 3.823-.402 1.653.734.549.734.549 1.574-.778z"
       stroke-width=".096"
       class="b j"
       id="path211" />
    <path
       d="M.415 44.773l-4.365 3.89-.582 1.371.416.311.416.311 1.245-.876z"
       class="Q"
       id="path213" />
    <path
       d="M-.033 45.324l-4.083 5.021"
       stroke-width=".154"
       fill="none"
       class="b"
       id="path215" />
    <g
       class="X"
       id="g221">
      <path
         d="M-18.099 45.744l-9.636 6.213v28.71l9.636 6.212z"
         class="Q W"
         id="path217" />
      <path
         d="M-18.099 45.744l9.636 6.213v28.71l-9.636 6.212z"
         class="W j"
         id="path219" />
    </g>
    <g
       fill="none"
       id="g271">
      <g
         stroke="#dbdbdb"
         id="g245">
        <g
           class="k"
           id="g241">
          <use
             xlink:href="#L"
             id="use223" />
          <use
             xlink:href="#L"
             y="2.942"
             id="use225" />
          <use
             xlink:href="#L"
             y="6.009"
             id="use227" />
          <use
             xlink:href="#L"
             y="8.951"
             id="use229" />
          <use
             xlink:href="#L"
             y="11.893"
             id="use231" />
          <use
             xlink:href="#L"
             y="14.835"
             id="use233" />
          <use
             xlink:href="#L"
             y="17.903"
             id="use235" />
          <use
             xlink:href="#L"
             y="20.845"
             id="use237" />
          <use
             xlink:href="#L"
             y="23.787"
             id="use239" />
        </g>
        <path
           d="M-26.003 52.947l.348-2.331 2.015.808.348-2.331 2.015.808.348-2.331 2.015.808.815-2.633m-7.985 33.904l.348 2.331 2.015-.808.348 2.331 2.015-.808.348 2.331 2.015-.808.815 2.633"
           class="p"
           id="path243" />
      </g>
      <g
         stroke="#c6c6c6"
         class="k"
         id="g265">
        <use
           xlink:href="#M"
           id="use247" />
        <use
           xlink:href="#M"
           y="2.942"
           id="use249" />
        <use
           xlink:href="#M"
           y="6.01"
           id="use251" />
        <use
           xlink:href="#M"
           y="8.952"
           id="use253" />
        <use
           xlink:href="#M"
           y="11.894"
           id="use255" />
        <use
           xlink:href="#M"
           y="14.836"
           id="use257" />
        <use
           xlink:href="#M"
           y="17.903"
           id="use259" />
        <use
           xlink:href="#M"
           y="20.845"
           id="use261" />
        <use
           xlink:href="#M"
           y="23.788"
           id="use263" />
      </g>
      <path
         d="M-10.194 52.947l-.348-2.331-2.015.808-.348-2.331-2.015.808-.348-2.331-2.015.808-.815-2.633m7.984 33.905l-.348 2.331-2.015-.808-.348 2.331-2.015-.808-.348 2.331-2.015-.808-.815 2.633"
         stroke="#c6c6c6"
         class="p"
         id="path267" />
      <path
         d="M-18.099 45.744l-9.636 6.213v10.623 7.463 10.624l9.636 6.212 9.636-6.212V70.043v-7.463-10.623z"
         stroke-width=".324"
         class="W b"
         id="path269" />
    </g>
    <g
       class="X"
       id="g277">
      <path
         d="M-18.099 47.852l7.904 5.095v26.729l-7.904 5.096z"
         fill="#da251d"
         class="W"
         id="path273" />
      <path
         d="M-18.099 47.852l-7.904 5.095v26.729l7.904 5.096z"
         fill="#e5453d"
         class="W"
         id="path275" />
    </g>
    <path
       d="M-18.099 49.099v5.457c-1.263-.548-.456-2.026-.59-3.413-2.815 1.708-1.41 4.242-2.635 4.675-3.405-4.064 1.732-3.975 3.225-6.719z"
       class="Q"
       id="path279" />
    <path
       d="M-18.099 49.099v5.457c1.263-.548.456-2.026.59-3.413 2.815 1.708 1.41 4.242 2.635 4.675 3.405-4.064-1.732-3.975-3.225-6.719z"
       class="Z"
       id="path281" />
    <path
       d="M-24.822 58.557c-.41-1.145 1.888-1.765.464.609-2.587 4.309 2.966 3.523 1.581 1.087-.345 1.649-2.561 1.442-.766-.846 1.086-1.385.433-2.515-.377-2.606-.906-.101-2.087.84-.901 1.757z"
       class="Q i"
       id="path283" />
    <path
       d="M-11.376 58.557c.41-1.145-1.888-1.765-.464.609 2.587 4.309-2.966 3.523-1.581 1.087.345 1.649 2.561 1.442.766-.846-1.086-1.385-.433-2.515.377-2.606.906-.101 2.087.84.901 1.757z"
       class="Z i"
       id="path285" />
    <path
       d="M-20.881 59.253c1.143-1.5 2.289 1.194.169 1.087-3.044-.153-.82-5.344 2.614-2.327v6.979c-.418-.396-.677-.967-.674-1.826l-2.467 2.131c.24-1.097.885-2.524 2.635-3.196.037-1.429-.031-4.037-1.612-3.99-.714.021-1.102.853-.664 1.141z"
       class="Q W"
       id="path287" />
    <path
       d="M-15.317 59.253c-1.143-1.5-2.289 1.194-.169 1.087 3.044-.153.82-5.344-2.614-2.327v6.979c.418-.396.677-.967.674-1.826l2.467 2.131c-.24-1.097-.885-2.524-2.635-3.196-.037-1.429.031-4.037 1.612-3.99.714.021 1.102.853.664 1.141z"
       fill="#f7f7f7"
       class="W"
       id="path289" />
    <path
       d="M-18.099 68.172l-1.073.134.447.907.626-.009z"
       class="Q"
       id="path291" />
    <path
       d="M-18.099 68.172v1.032l.402-.006c1.031-.108.695-1.126 0-1.076z"
       class="Z"
       id="path293" />
    <path
       d="M-18.099 72.038v1.174c-1.232-.176-1.586.193-2.319.326 1.962-.933.827-2.335.927-3.523l.927.153c-.064.705-.615 1.593.464 1.87zm-4.441-5.993c.301.867 1.103 1.581.805 2.629-3.758.952-.724 3.78.224 3.49 1.404-.667.324-1.644-.656-1.014-1.384-1.129.49-2.782 1.923-1.43-.125-1.589-1.021-2.74-2.295-3.674z"
       class="Q"
       id="path295" />
    <path
       d="M-18.099 72.038v1.174c.396.057.721-.007.948-.239.56.924 1.282 1.093 2.066.978-.921-.805-.743-.913-1.011-1.304 1.055.183 2.358-.262 4.363-2.5-1.233-.681-1.595-1.363-1.771-2.044l-.822.87c.303.337.295.819 1.159.891-.612.901-1.099 1.903-3.014 1.74l-.548-1.479c-.547.085-.843.256-1.054.457.767.126.982 1.667-.316 1.457zm1.855-2.565l.822.087c.157-2.358.974-3.044 1.728-3.892-.913.886-2.046.441-2.551 3.805z"
       class="Z"
       id="path297" />
    <path
       d="M-22.56 75.04c-4.728 4.152 1.577 5.049 2.144 6.305.083.185-.06 1.303.628 1.321.558.063.497-2.13-.526-2.684-2.335-1.266-3.795-1.453-2.247-4.941z"
       class="Q W"
       id="path299" />
    <path
       d="M-13.638 75.04c4.728 4.152-1.577 5.049-2.144 6.305-.083.185.06 1.303-.628 1.321-.558.063-.497-2.13.526-2.684 2.335-1.266 3.795-1.453 2.247-4.941z"
       class="W Z"
       id="path301" />
    <path
       d="M-22.399 77.518c1.484 2.26 2.655-1.226 3.689-1.957-1.049.128-2.386 1.452-3.689 1.957zm4.3-1.022c-1.228 2.315-.192 3.463 0 5.045z"
       class="Q V"
       id="path303" />
    <path
       d="M-13.799 77.518c-1.484 2.26-2.655-1.226-3.689-1.957 1.049.128 2.386 1.452 3.689 1.957zm-4.3-1.022c1.228 2.315.193 3.463 0 5.045z"
       class="V Z"
       id="path305" />
  </g>
  <g
     id="g1536">
    <path
       d="M43.271 88.363c-1.262.18-3.939.475-3.939 1.277 0 1.078 5.643 1.317 8.156 1.317s8.156-.239 8.156-1.317c0-.803-2.677-1.096-3.939-1.277l-4.217.534z"
       fill="#343434"
       stroke="#a9a9a9"
       class="l"
       id="path309" />
    <path
       d="M52.956 88.897a5.468.839 0 0 1-5.468.839 5.468.839 0 0 1-5.468-.839 5.468.839 0 0 1 5.468-.839 5.468.839 0 0 1 5.468.839z"
       opacity=".991"
       fill="#2d2d2d"
       class="X"
       id="path311" />
    <path
       d="M49.47 88.689c-.7.416-3.3.319-3.963-.018 0-1.911 3.963-1.951 3.963.018z"
       fill="#191919"
       opacity=".996"
       stroke="silver"
       class="l"
       id="path313" />
    <path
       d="M47.024 87.517c-.952.383-.862.618-1.093.898.691-.297 1.092-.778 2.723-.477-.434-.201-.633-.531-1.63-.421z"
       fill="#282828"
       opacity=".996"
       id="path315" />
    <path
       d="M39.332 89.64c0 1.687 1.56 4.199 2.764 5.446 2.22.581 3.674.457 5.392.577 1.718-.119 3.173.004 5.392-.577 1.204-1.246 2.764-3.759 2.764-5.446 0 1.078-5.643 1.317-8.156 1.317s-8.156-.239-8.156-1.317z"
       fill="#202020"
       stroke="#a9a9a9"
       class="l"
       id="path317" />
    <path
       d="M40.228 90.671c.275 1.88 1.093 2.822 1.904 3.776 1.546.06 3.454-.127 5.92-1.259-1.057.177-2.14.437-2.96-.118 2.023.044 3.601-.374 5.278-.689h-3.832c2.174-.185 3.801-.724 5.507-1.211-3.771.358-7.702 1.05-11.817-.499z"
       fill="#1c1c1c"
       id="path319" />
    <path
       d="M45.528 95.039c2.332-.174 3.764.009 7.182-.641.834-.942 1.395-1.94 1.927-2.944-1.622.477-3.142 1.297-5.117 1.544.804.225 1.469.019 2.157-.118-1.332.843-2.416.83-3.579 1.092.734.06 1.691.004 2.914-.19-1.546.663-3.604.884-5.484 1.259z"
       fill="#292929"
       id="path321" />
  </g>
  <path
     d="M41.218 22.257l3.75 2.765-.001.006"
     class="a"
     id="path323" />
  <path
     d="M49.103 22.25h-.011l-1.606-4.583-.007.021-1.589 4.555-.003.007-4.692-.01.024.017 3.748 2.771-1.369 4.606.029-.019 3.853-2.771.007-.006 3.893 2.628-.003-.008-1.432-4.479.001-.001 3.829-2.734.007-.005z"
     class="Q"
     id="path325" />
  <path
     fill="#a07843"
     d="M43.597 29.913a.28.28 0 0 1-.267-.357l1.313-4.42-3.615-2.672c-.097-.071-.137-.197-.099-.311s.144-.191.264-.191h.001l4.495.01 1.534-4.396c.039-.112.144-.186.262-.186h0c.118 0 .223.075.262.186l1.54 4.396 4.492-.01h.001c.121 0 .228.078.265.193s-.004.241-.103.311l-3.673 2.622 1.361 4.258c.017.036.027.077.027.121 0 .153-.124.278-.278.278-.025 0-.05-.003-.073-.01-.03-.007-.058-.02-.085-.038l-3.731-2.519-3.731 2.683c-.047.035-.104.051-.161.051zm-1.556-7.393l3.091 2.285c.094.07.135.191.101.303l-1.137 3.827 3.221-2.316a.29.29 0 0 1 .325-.01l3.227 2.179-1.19-3.723c-.036-.114.004-.239.101-.309l3.13-2.235-3.808.008h-.001c-.118 0-.234-.075-.273-.186l-1.34-3.833-1.335 3.825c-.039.112-.147.193-.265.193h-.001z"
     id="path327" />
  <path
     d="M47.486 17.667l-.007.021v6.521l1.624-1.959h-.011z"
     class="c"
     id="path329" />
  <g
     class="a"
     id="g335">
    <path
       d="M41.218 22.257l3.75 2.765-.001.006 2.512-.814v-.005z"
       id="path331" />
    <path
       d="M47.475 24.208l.004.001v-6.521l-1.589 4.555z"
       id="path333" />
  </g>
  <path
     d="M45.887 22.25l-4.692-.01.024.017 6.256 1.951-1.585-1.965z"
     class="c"
     id="path337" />
  <path
     d="M53.774 22.245l.007-.005-4.678.01-1.62 1.955z"
     class="a"
     id="path339" />
  <path
     d="M47.479 24.209h0l2.466.769 3.829-2.734-6.291 1.96z"
     class="c"
     id="path341" />
  <path
     d="M49.945 24.978l-2.466-.769v.005l3.897 5.244-1.432-4.479z"
     class="a"
     id="path343" />
  <path
     d="M47.479 26.844l.007-.006 3.893 2.628-.003-.008-3.897-5.244zm-.013-2.625l-2.5.809-1.369 4.606.029-.019z"
     class="c"
     id="path345" />
  <path
     d="M47.466 24.219l-3.84 5.396 3.853-2.771v-2.63z"
     class="a"
     id="path347" />
  <g
     id="g1527">
    <g
       class="q"
       id="g353">
      <path
         d="M25.472 30.594c-.221-.374.692-1.01 1.377-.871.411-.412 1.098-.519 1.548.002.594-.507 1.025.558.767.708.52.403.297.856.139.991.208.919-.558 1.283-1.189 1.307l-2.614.232z"
         class="S T"
         id="path349" />
      <path
         d="M25.576 30.15c.159.392.268.795.167 1.24.348-.261.707-.316 1.067-.36-.126.322-.264.644-.164.956.589.107.632-.12.895-.213-.047.283.064.565-.307.846.516.28.977.096 1.453.035-1.214.643-1.358 1.884-4.23 1.6.075-.964-.96-1.998 1.12-4.105z"
         class="R U"
         id="path351" />
    </g>
    <path
       d="M25.951 30.243c.375-.103.739-.484 1.077-.124.362-.858 1.052-.355 1.007.086.492-.409.915.301.651.592.565.012.445.516.123.729.515.261-.312 1.34-1.132.912.052-.159.274-.573.332-.951-.296-.002-.538-.106-.918.043l.217-.923c-.599.166-.474.171-1.116.307-.249-.545.002-.374-.242-.67z"
       class="Q"
       id="path355" />
    <g
       class="q"
       id="g361">
      <path
         d="M20.79 33.557c-.271-.339.545-1.097 1.242-1.054.35-.465 1.015-.667 1.533-.213.517-.585 1.093.41.858.595.571.327.414.806.276.962.334.881-.373 1.349-.995 1.46l-2.556.594z"
         class="S T"
         id="path357" />
      <path
         d="M20.831 33.103c.212.366.376.749.338 1.205.308-.307.656-.412 1.006-.505-.08.336-.172.675-.029.969.598.023.609-.207.856-.335-.007.286.142.551-.186.88.55.205.98-.041 1.443-.167-1.113.806-1.083 2.055-3.966 2.173-.06-.965-1.228-1.845.538-4.221z"
         class="R U"
         id="path359" />
    </g>
    <path
       d="M21.215 33.143c.357-.155.664-.582 1.049-.273.239-.9.992-.498 1.009-.056.43-.474.948.171.727.496.561-.067.512.449.224.705.546.187-.122 1.37-.994 1.06.029-.165.191-.606.197-.988-.294.039-.548-.03-.903.17l.086-.944c-.57.247-.445.235-1.062.46-.323-.505-.05-.37-.333-.63z"
       class="Q"
       id="path363" />
    <g
       class="m"
       id="g369">
      <path
         d="M17.943 38.024c-.273-.372.549-1.203 1.252-1.156.353-.51 1.023-.731 1.546-.234.522-.641 1.102.45.865.652.575.358.417.884.278 1.055.336.966-.376 1.479-1.003 1.601l-2.577.651z"
         class="S T"
         id="path365" />
      <path
         d="M17.984 37.526c.214.401.379.822.341 1.321.311-.337.662-.451 1.015-.554-.08.368-.173.74-.029 1.063.603.026.614-.227.863-.368-.007.314.143.604-.188.965.555.225.989-.045 1.455-.183-1.122.883-1.092 2.253-3.999 2.383-.061-1.058-1.239-2.023.542-4.628z"
         class="R U"
         id="path367" />
    </g>
    <path
       d="M18.372 37.571c.36-.17.67-.638 1.058-.299.241-.986 1-.547 1.018-.061.434-.52.956.188.734.544.565-.073.516.492.226.773.551.205-.123 1.502-1.002 1.163.029-.18.193-.664.198-1.083-.296.043-.552-.032-.91.186l.087-1.035c-.575.271-.449.258-1.071.504-.326-.554-.051-.406-.336-.69z"
       class="Q"
       id="path371" />
    <g
       class="m"
       id="g377">
      <path
         d="M14.441 43.725c-.342-.31.299-1.288.997-1.382.244-.57.857-.92 1.468-.537.384-.732 1.169.221.978.467.635.236.585.783.483.979.522.88-.075 1.524-.665 1.768l-2.396 1.151z"
         class="S T"
         id="path373" />
      <path
         d="M14.382 43.229c.289.351.535.73.597 1.227.238-.392.559-.574.884-.745-.005.377-.023.76.183 1.047.596-.095.557-.344.773-.532.056.309.261.563.008.983.588.11.96-.241 1.39-.469-.924 1.089-.621 2.425-3.445 3.131-.27-1.025-1.616-1.736-.39-4.643z"
         class="R U"
         id="path375" />
    </g>
    <path
       d="M14.771 43.195c.319-.238.529-.759.977-.504.04-1.015.872-.735.985-.262.322-.596.974-.006.827.387.54-.184.604.379.375.713.581.091.178 1.497-.751 1.339-.007-.183.057-.69-.021-1.101-.282.101-.547.078-.855.364l-.121-1.032c-.51.38-.389.342-.949.707-.429-.478-.131-.388-.466-.61z"
       class="Q"
       id="path379" />
    <g
       class="m"
       id="g385">
      <path
         d="M15.31 49.767c-.418-.195-.095-1.319.544-1.615.065-.617.547-1.132 1.244-.947.15-.813 1.183-.134 1.072.157.677.038.79.576.75.792.758.686.379 1.478-.112 1.886l-1.949 1.808z"
         class="S T"
         id="path381" />
      <path
         d="M15.107 49.31c.38.25.727.539.933.996.111-.445.364-.714.625-.973.106.362.203.732.484.947.541-.267.43-.494.581-.737.145.279.415.461.298.937.595-.069.846-.514 1.189-.859-.561 1.313.123 2.501-2.366 4.009-.561-.899-2.057-1.181-1.744-4.321z"
         class="R U"
         id="path383" />
    </g>
    <path
       d="M15.469 49.163c.235-.322.281-.881.785-.77-.262-.981.616-.959.864-.542.131-.664.929-.294.904.125.461-.336.689.184.569.57.582-.085.612 1.378-.322 1.501-.061-.172-.149-.676-.346-1.046-.239.18-.5.236-.709.6l-.42-.95c-.375.514-.27.442-.698.956-.551-.33-.239-.332-.626-.445z"
       class="Q"
       id="path387" />
    <g
       stroke-width=".221"
       id="g393">
      <path
         d="M15.515 55.906c-.493-.108-.452-1.272.143-1.688-.096-.616.274-1.217 1.059-1.173-.059-.825 1.211-.366 1.172-.059.724-.097.987.407 1.003.627.983.521.794 1.371.385 1.868l-1.572 2.155z"
         class="S T"
         id="path389" />
      <path
         d="M15.179 55.499c.467.169.91.383 1.249.79-.001-.457.194-.771.399-1.076.209.333.409.676.763.83.5-.368.322-.568.416-.836.227.244.561.369.564.858.609-.185.755-.671 1.025-1.076-.241 1.397.797 2.423-1.425 4.392-.832-.769-2.484-.748-2.992-3.883z"
         class="R U"
         id="path391" />
    </g>
    <path
       d="M15.521 55.283c.162-.361.062-.918.622-.909-.538-.908.393-1.061.766-.701-.039-.676.901-.472.987-.057.397-.42.776.043.752.445.591-.198 1.013 1.227.061 1.533-.11-.157-.338-.632-.644-.955-.204.223-.464.33-.588.728l-.696-.846c-.258.577-.167.486-.481 1.074-.669-.213-.341-.277-.778-.311z"
       class="Q"
       id="path395" />
    <g
       class="d"
       id="g401">
      <use
         xlink:href="#N"
         class="S T"
         id="use397" />
      <path
         d="M16.666 60.942c.518.108 1.016.267 1.435.645-.071-.483.087-.844.257-1.198.27.321.533.653.929.762.47-.465.253-.65.312-.948.276.224.647.305.724.821.613-.288.693-.824.916-1.294-.042 1.514 1.206 2.441-.835 4.862-.992-.687-2.728-.413-3.738-3.651z"
         class="R U"
         id="path399" />
    </g>
    <use
       xlink:href="#O"
       class="Q"
       id="use403" />
    <g
       class="d"
       id="g409">
      <use
         xlink:href="#N"
         x="2.288"
         y="5.408"
         class="S T"
         id="use405" />
      <path
         d="M18.954 66.349c.518.108 1.016.267 1.435.645-.07-.483.087-.844.257-1.198.27.321.533.653.929.762.47-.465.253-.65.312-.948.276.224.647.305.724.821.613-.288.693-.824.916-1.294-.042 1.514 1.206 2.441-.835 4.862-.992-.687-2.728-.413-3.738-3.651z"
         class="R U"
         id="path407" />
    </g>
    <use
       xlink:href="#O"
       x="2.287"
       y="5.408"
       class="Q"
       id="use411" />
    <g
       class="r"
       id="g417">
      <path
         d="M21.618 71.341c-.564-.002-.794-1.225-.243-1.794-.251-.621.012-1.331.878-1.463-.259-.848 1.236-.655 1.265-.326.767-.264 1.173.202 1.243.428 1.196.322 1.191 1.252.862 1.862l-1.206 2.603z"
         class="S T"
         id="path413" />
      <path
         d="M21.156 70.992c.55.071 1.084.195 1.55.542-.11-.477.029-.848.181-1.212.306.3.607.613 1.029.694.458-.497.217-.666.256-.966.305.203.7.258.819.767.62-.331.665-.87.864-1.354.068 1.511 1.443 2.348-.516 4.904-1.09-.614-2.888-.22-4.185-3.376z"
         class="R U"
         id="path415" />
    </g>
    <path
       d="M21.478 70.69c.091-.413-.15-.972.464-1.089-.802-.826.178-1.196.67-.904-.202-.696.872-.695 1.064-.282.334-.527.857-.13.926.295.598-.34 1.396 1.051.43 1.585-.157-.139-.518-.583-.928-.851-.17.279-.428.449-.469.892l-.96-.726c-.145.66-.068.545-.271 1.229-.781-.072-.438-.212-.923-.149z"
       class="Q"
       id="path419" />
    <g
       class="r"
       id="g425">
      <path
         d="M24.872 77.676c-.562.05-.902-1.148-.405-1.764-.306-.596-.109-1.327.742-1.536-.335-.821 1.171-.764 1.231-.439.74-.333 1.187.094 1.276.313 1.22.212 1.3 1.138 1.027 1.776l-.965 2.702z"
         class="S T"
         id="path421" />
      <path
         d="M24.379 77.371c.554.021 1.098.095 1.593.399-.152-.465-.048-.847.07-1.224.332.271.66.556 1.088.598.411-.536.156-.683.168-.986.322.175.72.194.885.69.588-.386.583-.927.737-1.427.204 1.499 1.65 2.207-.068 4.93-1.141-.513-2.897.043-4.474-2.982z"
         class="R U"
         id="path423" />
    </g>
    <path
       d="M24.673 77.041c.053-.42-.238-.954.363-1.126-.874-.75.069-1.207.586-.962-.265-.675.805-.771 1.034-.377.284-.555.842-.207.949.21.564-.393 1.486.92.572 1.539-.169-.124-.569-.533-1.002-.763-.144.293-.386.486-.386.931l-1.022-.636c-.084.671-.018.548-.158 1.248-.784-.001-.455-.172-.933-.065z"
       class="Q"
       id="path427" />
    <g
       class="n"
       id="g433">
      <path
         d="M11.176 49.185c-.426-.243-.026-1.295.657-1.503.102-.592.633-1.033 1.35-.763.201-.772 1.241.02 1.11.289.704.123.793.66.739.866.753.764.314 1.486-.221 1.821l-2.133 1.512z"
         class="S T"
         id="path429" />
      <path
         d="M10.99 48.714c.383.291.729.617.918 1.087.141-.418.419-.648.705-.867.091.366.171.738.453.983.579-.191.476-.426.647-.643.135.29.408.502.259.949.624.008.911-.393 1.288-.685-.658 1.207-.01 2.449-2.689 3.601-.536-.946-2.081-1.41-1.581-4.426z"
         class="R U"
         id="path431" />
    </g>
    <path
       d="M11.375 48.617c.263-.283.342-.822.861-.65-.219-.988.695-.856.931-.417.174-.63.985-.168.937.237.499-.268.709.266.562.627.611-.009.563 1.418-.418 1.42-.054-.175-.119-.676-.303-1.062-.259.145-.535.167-.773.494l-.386-.978c-.419.453-.306.395-.781.842-.557-.391-.231-.353-.628-.512z"
       class="Q"
       id="path435" />
    <g
       class="n"
       id="g441">
      <path
         d="M10.753 55.748c-.481-.094-.439-1.219.142-1.634-.093-.593.27-1.181 1.035-1.155-.056-.796 1.182-.378 1.144-.081.706-.109.962.372.977.584.958.483.773 1.308.373 1.796l-1.537 2.114z"
         class="S T"
         id="path437" />
      <path
         d="M10.426 55.361c.456.154.888.352 1.218.737-.001-.441.19-.748.391-1.047.203.317.398.645.743.786.488-.366.315-.556.407-.816.221.231.547.345.549.817.594-.192.737-.663 1.001-1.061-.237 1.354.774 2.324-1.397 4.272-.81-.725-2.423-.671-2.913-3.688z"
         class="R U"
         id="path439" />
    </g>
    <path
       d="M10.76 55.146c.158-.352.061-.888.608-.891-.523-.866.385-1.033.749-.693-.037-.652.88-.474.963-.075.388-.414.757.026.733.414.577-.204.987 1.164.058 1.479-.107-.149-.329-.603-.626-.909-.199.22-.453.329-.574.715l-.678-.803c-.252.563-.164.473-.471 1.047-.653-.192-.332-.261-.759-.285z"
       class="Q"
       id="path443" />
    <g
       class="n"
       id="g449">
      <path
         d="M12.116 60.511c-.488-.046-.559-1.169-.022-1.64-.152-.581.15-1.202.914-1.253-.135-.786 1.139-.494 1.13-.195.692-.179.995.274 1.031.484 1.002.385.899 1.224.55 1.75l-1.318 2.257z"
         class="S T"
         id="path445" />
      <path
         d="M11.753 60.16c.469.107.918.261 1.285.611-.045-.439.114-.764.284-1.081.234.296.461.602.818.708.449-.413.258-.584.324-.853.243.208.579.288.628.758.572-.25.667-.734.89-1.156-.101 1.371 1.002 2.235-.963 4.39-.879-.641-2.478-.425-3.268-3.379z"
         class="R U"
         id="path447" />
    </g>
    <path
       d="M12.063 59.912c.122-.366-.028-.89.516-.947-.607-.809.28-1.066.676-.765-.102-.645.828-.56.951-.171.344-.45.755-.05.771.339.553-.26 1.098 1.059.205 1.466-.122-.138-.387-.567-.714-.842-.176.239-.418.372-.5.769l-.755-.731c-.195.585-.116.487-.364 1.089-.669-.126-.357-.226-.784-.207z"
       class="Q"
       id="path451" />
    <g
       class="d"
       id="g457">
      <path
         d="M13.903 65.952c-.526-.002-.704-1.251-.173-1.831-.215-.634.051-1.359.863-1.494-.217-.866 1.173-.669 1.191-.333.724-.27 1.089.206 1.147.436 1.106.329 1.074 1.278.749 1.901l-1.204 2.658z"
         class="S T"
         id="path453" />
      <path
         d="M13.482 65.596c.511.072 1.006.199 1.431.553-.088-.487.052-.865.205-1.238.277.307.548.626.94.709.442-.507.222-.68.268-.987.279.208.645.264.741.783.589-.338.647-.888.846-1.383.018 1.543 1.276 2.397-.628 5.007-.998-.627-2.689-.224-3.804-3.446z"
         class="R U"
         id="path455" />
    </g>
    <path
       d="M13.792 65.287c.097-.422-.111-.992.465-1.112-.724-.843.202-1.221.653-.924-.168-.711.834-.71 1.001-.288.327-.539.803-.132.855.301.568-.347 1.271 1.073.354 1.618-.143-.141-.466-.595-.841-.869-.167.285-.413.459-.464.911l-.874-.741c-.155.674-.079.556-.29 1.255-.727-.073-.402-.217-.857-.152z"
       class="Q"
       id="path459" />
    <g
       class="d"
       id="g465">
      <use
         xlink:href="#P"
         class="S T"
         id="use461" />
      <use
         xlink:href="#Q"
         class="R U"
         id="use463" />
    </g>
    <use
       xlink:href="#R"
       class="Q"
       id="use467" />
    <g
       class="d"
       id="g473">
      <use
         xlink:href="#P"
         x="3.432"
         y="5.459"
         class="S T"
         id="use469" />
      <use
         xlink:href="#Q"
         x="3.432"
         y="5.459"
         class="R U"
         id="use471" />
    </g>
    <use
       xlink:href="#R"
       x="3.432"
       y="5.46"
       class="Q"
       id="use475" />
    <g
       class="Y"
       id="g481">
      <path
         d="M23.328 82.98c-.552.169-1.141-1.153-.772-1.967-.43-.631-.385-1.518.423-1.93-.506-.886 1.013-1.119 1.14-.754.671-.533 1.207-.126 1.342.11 1.265.004 1.537 1.063 1.397 1.857l-.404 3.327z"
         class="S T"
         id="path477" />
      <path
         d="M22.772 82.723c.559-.086 1.118-.107 1.677.147-.249-.509-.224-.973-.184-1.434.389.249.776.514 1.213.478.3-.704.014-.823-.037-1.177.359.139.761.082 1.029.625.508-.564.391-1.191.441-1.802.516 1.699 2.11 2.234.956 5.735-1.248-.369-2.889.625-5.096-2.573z"
         class="R U"
         id="path479" />
    </g>
    <path
       d="M22.997 82.282c-.034-.498-.436-1.06.129-1.379-1.03-.697-.182-1.414.386-1.232-.405-.731.645-1.055.956-.643.169-.701.799-.407.993.055.483-.568 1.678.773.892 1.673-.195-.11-.68-.506-1.161-.687-.083.369-.285.641-.193 1.157l-1.155-.535c.055.795.096.64.101 1.48-.785.155-.491-.109-.947.11z"
       class="Q"
       id="path483" />
    <path
       d="M33.604 92.135c-2.374-1.137-3.835-.561-7.206-3.566l.772-.257c-.885-.43-1.236-.937-1.654-1.434l.772.11c-.74-1.066-1.171-2.132-1.287-3.199.665.39.73 1.081 2.132 1.103-.279-.5.052-.594.147-.846l.551.846c.623-.493.556-.526.809-.772.311.897.849 1.342 1.36 1.838v-.735c1.818 1.982 3.364 4.106 3.603 6.912z"
       class="R e f"
       id="path485" />
    <path
       d="M28.752 88.963c.454-.182 2.004.436 3.9.936-1.054-.008-3.304-3.525-3.094-3.51.264.712.261 1.31.962 2.21-1.101-.823-1.698-1.647-1.898-2.47l.156 1.456c-.078-.156-2.236-2.054-2.236-2.054l1.846 2.314-1.326-.312 2.73 1.274z"
       class="h"
       id="path487" />
    <use
       xlink:href="#S"
       class="R e f"
       id="use489" />
    <use
       xlink:href="#T"
       class="h"
       id="use491" />
    <use
       xlink:href="#S"
       x="3.64"
       y="4.375"
       class="R e f"
       id="use493" />
    <use
       xlink:href="#T"
       x="3.64"
       y="4.375"
       class="h"
       id="use495" />
    <path
       d="M29.523 90.15l1.728.294-.073-.221c1.52.055 2.261.769 3.382 1.691l.478-.404c1.13 2.174 4.325 4.406 7.5 5.258 4.046.495 4.427.92 12.991 1.502l-1.664 1.976-14.922-3.588c-3.468-.06-6.19-1.8-8.891-3.588h.78c-.295-.137-1.486-.631-1.924-1.56h.624z"
       class="R e f"
       id="path497" />
    <path
       d="M31.692 93.109c2.032.309 3.688 1.402 5.46 2.371-.657-.798-1.774-1.567-1.728-2.408l-.221.607c-1.303-.633-2.286-1.341-2.757-2.169l.349.864-2.243-1.14 1.728 1.213-1.415-.331c-.092 0 2.169 1.048 2.169 1.048z"
       class="h"
       id="path499" />
  </g>
  <g
     id="g1552">
    <path
       d="M64.269 27.792c.391.529.121 1.301 1.12 1.968 1.083.723 1.284.811 1.571 1.371l-.021-.014c-1.627-1.373-2.682-1.026-3.883-1.122.963.529 1.248 1.464 3.4 1.28l1.662 1.175c-.401-.052-.8-.122-.968-.22-.545-.589-1.13-.732-1.729-.721s-1.212.176-1.812.202c1.077.684 2.132 1.502 3.554 1.031.298-.034.969.166 1.527.279.386.202.728.425 1.056.966l.007.013c-.337-.056-.639-.125-.787-.211-1.333-1.441-2.863-.7-4.332-.635 1.318.836 2.608 1.837 4.347 1.262.267-.03.78.093 1.304.216.362.413.79.822 1.409 1.13-.229-.061-.432-.125-.539-.191-1.254-1.396-2.862-.863-4.36-.928 1.281.856 2.523 1.857 4.332 1.488.346-.006 1.073.237 1.722.417.441.383.765.781 1.065 1.195l.035.045.047.034.364.275c-.55-.154-1.109-.334-1.324-.493-1.238-1.624-3.025-1.191-4.642-1.394 1.314 1.041 2.572 2.236 4.563 1.998.466.03 1.537.534 2.307.77.428.487.83 1.049 1.219 1.651-.43-.189-.824-.385-.985-.538-1.036-1.765-2.863-1.554-4.444-1.956 1.181 1.196 2.289 2.537 4.294 2.546.352.067 1.022.45 1.65.777l1.116 1.97-.027.394c-.519-.336-1.072-.722-1.245-.959-.703-1.928-2.536-2.06-4.019-2.748.947 1.395 1.797 2.919 3.766 3.3.358.141 1.011.708 1.603 1.164.135.412.425.923.916 1.587l.22 1.122c-.472-.406-.973-.867-1.114-1.127-.442-2.007-2.241-2.39-3.62-3.276.754 1.512 1.395 3.14 3.296 3.788.376.21 1.046 1.006 1.617 1.559l.1.614c.071.497.101.954.079 1.34-.353-.387-.682-.78-.777-1.007-.232-2.043-1.981-2.617-3.261-3.646.593 1.585 1.062 3.272 2.885 4.121.259.184.644.696 1.032 1.2l-.011.034-.006.016-.006.016c-.172.596-.085 1.13.069 1.586.107.317.238.602.348.874-.34-.419-.661-.847-.743-1.087-.111-2.054-1.823-2.734-3.039-3.84.499 1.619.867 3.331 2.637 4.291.323.26.826 1.094 1.283 1.728.017.886-.026 1.734-.375 2.549-.359-.597-.796-1.368-.855-1.715.226-2.044-1.351-3.006-2.369-4.302.227 1.681.31 3.432 1.898 4.679.28.315.645 1.246.998 1.953l-.025.041-.075.11.022.132c.208 1.359.143 2.54-.121 3.623-.28-.725-.586-1.591-.594-1.968.572-2.275-.988-3.691-1.887-5.374-.021 1.955-.211 3.961 1.315 5.704.277.455.549 1.763.85 2.658-.256.682-.589 1.333-.982 1.975-.196-.688-.282-1.252-.238-1.669.841-2.007-.549-3.487-1.247-5.13-.253 1.782-.809 3.416.508 5.19.245.492.518 1.23.785 1.915l-.22.336-.025.036-.014.044c-.317.924-.607 1.824-1.059 2.678l.014-.041c-.138-.75-.168-1.348-.077-1.776 1.044-1.905-.184-3.526-.708-5.235-.437 1.744-1.159 3.309-.033 5.215.207.555.418 1.401.627 2.154a7.04 7.04 0 0 1-.516.766l-.02.024-.014.026-.533.909c-.162-.645-.218-1.167-.151-1.548.919-1.767-.344-3.137-.931-4.63-.339 1.585-.964 3.028.214 4.659.219.467.454 1.175.685 1.817-.31.5-.624 1.04-.939 1.832-.064-.387-.08-.719-.034-.98.919-1.767-.344-3.137-.931-4.631-.339 1.585-.963 3.028.215 4.659.18.384.371.93.561 1.47l-.091.255-.002.004v.006c-.235.791-.428 1.498-1.091 2.226-.106-.644-.119-1.161-.024-1.53 1.057-1.685-.093-3.155-.559-4.692-.464 1.552-1.202 2.938-.157 4.661.174.464.344 1.15.516 1.787l-.066.066c-.433.4-.797.873-1.116 1.39-.052-.467-.045-.853.031-1.145 1.057-1.685-.093-3.155-.56-4.692-.464 1.552-1.201 2.938-.157 4.661.154.411.305.996.457 1.568-.264.476-.494.984-.711 1.501-.063-.355-.083-.663-.047-.909.874-1.79-.424-3.127-1.049-4.604-.299 1.593-.886 3.053.333 4.652.177.354.368.85.559 1.35l-1.017 2.552-.068.154c-.08-.536-.084-.979.006-1.308 1.227-1.799-.158-3.387-.734-5.041-.527 1.661-1.38 3.143-.116 5.002.205.48.409 1.18.613 1.843l-.527.98-1.26 2.108.311-1.06c1.996-2.512.194-4.047.054-5.658-.415 1.917-1.198 3.011-.853 6.22-.068.662-.181 1.259-.364 1.807l-.222.332-1.135 1.56.167-.289c1.692-2.05 1.054-3.877 1.321-5.496-.564 1.241-1.533 2.034-1.646 3.773-.417 1.742-.831 3.087-1.577 4.114-.668.732-1.359 1.398-2.051 1.95l1.23-1.59c1.984-1.756 1.634-3.662 2.145-5.219-.746 1.137-1.825 1.766-2.202 3.466-.894 2.183-1.679 3.687-3.14 4.56l-.014.01.247.628v.001c2.319-.953 4.585-3.464 6.43-5.988l.772-1.091 2.366-3.802c1.109-1.425 1.182-1.54 3.849-2.641 2.099-.866 1.933-2.293 2.867-3.099-2.103.315-3.535 1.029-4.656 2.718l-1.186 1.289 1.002-2.474c.655-.607 1.116-.792 3.068-1.36 1.946-.567 1.928-1.811 2.831-2.426-1.899.09-3.276.673-4.426 2.033l-1.119.908a12.17 12.17 0 0 1 .834-1.61c1.012-.952 1.131-1.048 3.454-1.673 1.863-.502 1.845-1.605 2.711-2.149-1.819.08-3.066.577-4.167 1.782l-.683.492c.469-.547.732-1.101.92-1.634.568-.634.973-.849 2.79-1.597 1.787-.735 1.635-1.827 2.426-2.478-1.795.311-2.95.663-3.894 1.998l-1.066 1.275c.288-.871.572-1.456.86-1.957.501-.455 1.016-.68 2.632-1.269 1.814-.662 1.705-1.759 2.522-2.376-1.805.237-2.761.66-3.757 1.955l-.752.63.362-.631a8 8 0 0 0 .782-1.244c.499-.448 1.138-.763 2.742-1.478 2.044-.911 1.823-2.147 2.715-2.92-2.071.429-3.141.992-4.183 2.551l-.783.749.357-.989c.592-.879.981-1.165 3.035-2.342 1.945-1.115 1.603-2.322 2.416-3.182-2.018.637-3.028 1.307-3.912 2.965l-.537.629a11.03 11.03 0 0 0 .74-1.74c.376-.456.943-.93 2.093-1.84 1.762-1.395 1.249-2.538 1.928-3.511-1.904.934-2.805 1.749-3.439 3.521l-.232.37a9.53 9.53 0 0 0 .111-1.235c.324-.631.807-1.135 2.147-2.413 1.63-1.553 1.017-2.643 1.606-3.676-1.812 1.107-2.637 2.002-3.11 3.825l-.666 1.311-.084-.835c.343-.553.541-1.118.655-1.682.301-.448.764-.952 1.647-1.869 1.456-1.512.916-2.555 1.444-3.555-1.616 1.085-2.353 1.955-2.782 3.715l-.172.366-.003-.857c.22-.573.602-1.138 1.527-2.399 1.245-1.697.573-2.657.966-3.719-1.46 1.295-2.076 2.257-2.27 4.06l-.379 1.192-.334-.824.085-.572.08.076-.022-.316c.164-.627.49-1.145 1.471-2.531 1.162-1.642.398-2.478.726-3.48-1.413 1.287-1.98 2.213-2.049 3.882l-.199.731a7.44 7.44 0 0 0-.081-1.274c.145-.476.412-1.053.926-2.092.872-1.766.085-2.528.271-3.567-1.14 1.435-1.552 2.422-1.428 4.104l-.015.113-.028-.149.013.027-.049-.21-.13-.667c-.081-.623.046-1.095.571-2.592.575-1.641-.411-2.164-.42-3.077-.924 1.402-1.165 2.307-.7 3.718l.061.896c-.348-.518-.502-.873-.562-1.13-.077-.33-.021-.545-.012-.906l.002-.091-.009-.016c.064-.368.174-.828.35-1.503.439-1.684-.586-2.121-.669-3.031-.581 1.063-.827 1.839-.705 2.7l-.157-.263c-.093-.424-.066-.916.048-2.05.152-1.523-.749-1.763-.931-2.542-.482 1.393-.504 2.216.144 3.325l.047.158-.631-.889c-.103-.373-.145-.87-.201-1.811-.09-1.528-1.018-1.617-1.321-2.356-.232 1.319-.158 2.114.465 2.988l-.469-.412c-.207-.413-.278-.889-.403-2.105-.157-1.522-1.088-1.57-1.423-2.294-.191 1.464-.047 2.274.81 3.224l.129.243c-.241-.272-.519-.542-.851-.804-.143-.347-.26-.821-.446-1.681-.323-1.495-1.253-1.435-1.665-2.117-.03 1.476.203 2.265 1.159 3.111l.061.089a3.22 3.22 0 0 1-.634-.373l.071.004-.593-.699-.171-.017c-.29-.445-.35-.704-.447-1.928-.092-1.165-.768-1.206-1.001-1.762-.161 1.118-.068 1.738.542 2.469l.166.341c-.365-.451-.764-.687-1.134-.879-.091-.257-.182-.597-.311-1.12-.292-1.185-1.051-1.119-1.4-1.654.003 1.002.155 1.602.69 2.163l-.428-.29-1.233-1.881c-.377-1.033-.889-1.437-1.96-1.799zm8.554 12.326l-.001-.001zm-4.43-3.907h-.002zm11.722 15.325l.052.488a1.77 1.77 0 0 1-.052-.488z"
       stroke="#a07843"
       class="c k"
       id="path501" />
    <g
       class="a"
       id="g521">
      <path
         d="M62.337 90.456c.949-.716 1.216-2.048 1.339-2.91-.34.846-.817 2.139-1.339 2.91zm4.814-6.72c1.188-1.175.646-2.435.162-3.21.06.836.146 2.154-.162 3.21zm-2.144 3.712c.829-.858.889-2.216.878-3.087-.206.889-.481 2.243-.878 3.087zm3.282-10.533c.444.681.942 1.317.396 2.827-.066-.92-.223-1.87-.396-2.827zm1.037-2.459c.43.588.903 1.128.576 2.583-.134-.847-.348-1.713-.576-2.583z"
         id="path503" />
      <use
         xlink:href="#U"
         id="use505" />
      <use
         xlink:href="#U"
         x="1.352"
         y="-2.067"
         id="use507" />
      <use
         xlink:href="#V"
         id="use509" />
      <use
         xlink:href="#V"
         x="1.005"
         y="-2.698"
         id="use511" />
      <path
         d="M75.653 62.316c.396.699.839 1.349.383 2.936-.07-.957-.219-1.944-.383-2.936zm.942-3.157c.466.653.974 1.251.686 2.878-.169-.944-.42-1.909-.686-2.878zm.481-3.449c.543.644 1.121 1.223 1.045 3.017-.287-.997-.658-2.006-1.045-3.017zm-.064-3.469c.568.464 1.159.867 1.317 2.418-.383-.808-.843-1.613-1.317-2.418zm-.126-2.655c.636.361 1.285.658 1.694 2.16-.51-.732-1.095-1.448-1.694-2.16zm-.464-2.967c.656.321 1.321.578 1.819 2.052-.552-.699-1.178-1.378-1.819-2.052zm-.948-2.737c.686.249 1.374.433 2.021 1.845-.621-.636-1.314-1.243-2.021-1.845zm-1.648-2.901c.712.152 1.418.24 2.246 1.551-.7-.545-1.467-1.051-2.246-1.551zm-1.271-2.324c.723.085 1.434.107 2.376 1.335-.746-.477-1.555-.91-2.376-1.335zm-2.894-2.027c.724-.072 1.424-.204 2.599.793-.828-.306-1.709-.555-2.599-.793zm-1.719-1.604c.659-.121 1.291-.295 2.442.531-.782-.218-1.608-.38-2.442-.531zm-2.157-1.551c.635-.195 1.239-.446 2.427.369-.78-.172-1.6-.276-2.427-.369z"
         id="path513" />
      <use
         xlink:href="#W"
         id="use515" />
      <path
         d="M71.336 80.848c1.829-.168 2.391-1.186 2.978-2.186-.908.758-1.854 1.502-2.978 2.186zm1.262-3.012c1.642.012 2.234-.817 2.847-1.629-.876.575-1.785 1.136-2.847 1.629zm1.623-2.733c1.573.011 2.139-.724 2.726-1.443-.839.51-1.709 1.006-2.726 1.443zm1.549-2.961c1.562-.19 2.034-.991 2.528-1.779-.77.612-1.572 1.216-2.528 1.779zm.963-2.477c1.568-.126 2.071-.907 2.596-1.674-.794.58-1.619 1.151-2.596 1.674zm1.704-3.067c1.805-.281 2.321-1.212 2.862-2.13-.869.729-1.776 1.45-2.862 2.13zm1.139-2.815c1.769-.463 2.19-1.442 2.639-2.411-.793.814-1.625 1.623-2.639 2.411zm.82-2.969c1.682-.725 1.957-1.756 2.261-2.782-.667.924-1.372 1.85-2.261 2.782zm.543-3.147c1.61-.878 1.792-1.931 2.003-2.98-.581.982-1.201 1.97-2.003 2.98zm.189-2.925c1.435-.862 1.602-1.877 1.794-2.89-.521.952-1.076 1.909-1.794 2.89zm.073-2.577c1.31-1.049 1.342-2.078 1.399-3.108-.392 1.014-.817 2.038-1.399 3.108zm-.402-2.603c1.276-1.052 1.234-1.999 1.218-2.948-.331.958-.695 1.926-1.218 2.948zm-.516-2.122c1.042-1.185.898-2.131.777-3.082-.193.995-.416 2.004-.777 3.082zm-.721-2.892c.87-1.174.529-1.956.213-2.745-.008.877-.044 1.771-.213 2.745zm-1.229-2.041c.771-1.244.368-1.994-.011-2.754.064.874.101 1.768.011 2.754zm-1.249-2.638c.481-1.186.055-1.783-.353-2.392.162.751.304 1.523.353 2.392zm-1.441-1.678c.288-1.249-.227-1.769-.726-2.302.278.715.54 1.453.726 2.302zm-1.689-1.867c.233-1.261-.305-1.756-.827-2.267.309.701.604 1.427.827 2.267zm-1.681-1.272c.093-1.28-.496-1.711-1.07-2.158.384.662.757 1.349 1.07 2.158zm-2.227-2.177c.188-.963-.196-1.344-.568-1.738.215.538.418 1.094.568 1.738zm-1.662-.883c.052-1.022-.437-1.354-.915-1.699.326.52.643 1.06.915 1.699zm-2.263-2.232c-.945-.257-1.112-.87-1.295-1.475.383.5.788.996 1.295 1.475z"
         id="path517" />
      <use
         xlink:href="#W"
         x="-0.478"
         y="-1.406"
         id="use519" />
    </g>
    <g
       class="e f"
       id="g527">
      <path
         d="M120.813 79.43c.185.492-1.373 3.19-1.769 3.75-2.346 3.994-4.761 7.938-7.505 11.636-.101.376-.359.593-.653.771-7.163.878-14.116 2.205-18.414 2.51l1.778 2.146 17.209-3.895.03-.005c.512.025.814-.039 1.279-.141 2.547-.674 4.977-1.578 6.682-3.914 2.061-2.341 4.002-5.788 5.559-7.252l3.847-3.678c-3.691 2.135-5.156 4.288-7.892 7.898-1.748 2.289-4.227 5.759-8.471 6.081l-.073-.232c2.547-.674 4.977-1.578 6.682-3.914 1.852-2.341 3.601-5.596 5.634-7.059l5.44-5.297c-3.729 3.125-7.326 5.546-9.561 9.325-1.729 2.264-3.342 5.492-7.453 5.866 2.475-3.315 4.537-7.437 6.852-10.772.294-.641.698-1.218.98-1.863.066-.672.156-1.197.11-1.885z"
         fill="url(#H)"
         transform="translate(-54.811)"
         id="path523" />
      <path
         d="M60.904 83.638c1.15-1.65 1.796-4.16 3.333-5.755.976-.999 1.826-.318 2.225.485.323.65-.119 3.22-.278 3.021-.298-1.572-.474-3.894-2.364-2.079-.75.72-1.082 2.78-2.916 4.328zm2.987-1.827c-1.434 3.774-5.514 3.123-5.256 10.244l.966-1.339c-.508-4.482 4.504-6.364 4.291-8.904z"
         class="R"
         id="path525" />
    </g>
  </g>
</svg>
