<?xml version="1.0" encoding="UTF-8" standalone="no"?>
<svg
   xmlns:dc="http://purl.org/dc/elements/1.1/"
   xmlns:cc="http://creativecommons.org/ns#"
   xmlns:rdf="http://www.w3.org/1999/02/22-rdf-syntax-ns#"
   xmlns:svg="http://www.w3.org/2000/svg"
   xmlns="http://www.w3.org/2000/svg"
   xmlns:xlink="http://www.w3.org/1999/xlink"
   xmlns:sodipodi="http://sodipodi.sourceforge.net/DTD/sodipodi-0.dtd"
   xmlns:inkscape="http://www.inkscape.org/namespaces/inkscape"
   width="443.769"
   height="493.735"
   viewBox="0 0 117.414 130.634"
   version="1.1"
   id="svg957"
   sodipodi:docname="Coat of arms of West Sulawesi (1).svg"
   inkscape:version="1.0.1 (3bc2e813f5, 2020-09-07)">
  <metadata
     id="metadata961">
    <rdf:RDF>
      <cc:Work
         rdf:about="">
        <dc:format>image/svg+xml</dc:format>
        <dc:type
           rdf:resource="http://purl.org/dc/dcmitype/StillImage" />
      </cc:Work>
    </rdf:RDF>
  </metadata>
  <sodipodi:namedview
     pagecolor="#ffffff"
     bordercolor="#666666"
     borderopacity="1"
     objecttolerance="10"
     gridtolerance="10"
     guidetolerance="10"
     inkscape:pageopacity="0"
     inkscape:pageshadow="2"
     inkscape:window-width="1366"
     inkscape:window-height="705"
     id="namedview959"
     showgrid="false"
     inkscape:zoom="1.737375"
     inkscape:cx="200.92946"
     inkscape:cy="355.41202"
     inkscape:window-x="-8"
     inkscape:window-y="-8"
     inkscape:window-maximized="1"
     inkscape:current-layer="svg957"
     inkscape:document-rotation="0" />
  <style
     id="style2"><![CDATA[.K{stroke-width:.265}.L{stroke:#186342}.M{fill:none}.N{fill:#ffeba3}.O{fill:#f5c742}.P{stroke:#a07843}.Q{fill:#208358}.R{fill-opacity:.992}.S{fill:#186342}.T{fill:#f5fffa}.U{stroke-width:.14}.V{fill-rule:evenodd}.W{opacity:.996}.X{stroke-linejoin:round}.Y{fill:#fff}.Z{opacity:.998}.a{stroke-linecap:round}.b{stroke:#a9a9a9}.c{opacity:.994}.d{fill:#f4d67d}.e{stroke-width:.1}.f{stroke:#8c0505}.g{stroke-width:.499}.h{fill-opacity:.492}]]></style>
  <defs
     id="defs99">
    <linearGradient
       inkscape:collect="always"
       id="linearGradient2824">
      <stop
         style="stop-color:#50adf3;stop-opacity:1;"
         offset="0"
         id="stop2820" />
      <stop
         style="stop-color:#50adf3;stop-opacity:0;"
         offset="1"
         id="stop2822" />
    </linearGradient>
    <linearGradient
       inkscape:collect="always"
       id="linearGradient2810">
      <stop
         style="stop-color:#50adf3;stop-opacity:1;"
         offset="0"
         id="stop2806" />
      <stop
         style="stop-color:#50adf3;stop-opacity:0;"
         offset="1"
         id="stop2808" />
    </linearGradient>
    <linearGradient
       id="A"
       spreadMethod="pad"
       xlink:href="#m">
      <stop
         offset="0"
         stop-color="#8b0000"
         id="stop4" />
      <stop
         offset=".263"
         stop-color="red"
         id="stop6" />
      <stop
         offset=".508"
         stop-color="#ffc3c3"
         id="stop8" />
      <stop
         offset=".785"
         stop-color="red"
         id="stop10" />
      <stop
         offset="1"
         stop-color="#8b0000"
         id="stop12" />
    </linearGradient>
    <linearGradient
       id="B"
       xlink:href="#m" />
    <linearGradient
       id="C"
       x1="87.45166"
       y1="137.9346"
       x2="89.569038"
       y2="137.9346"
       gradientTransform="matrix(1.165543,0,0,0.85796918,-46.51,-57.336)"
       gradientUnits="userSpaceOnUse"
       spreadMethod="pad">
      <stop
         offset="0"
         stop-color="red"
         id="stop16" />
      <stop
         offset=".7"
         stop-color="#a20000"
         id="stop18" />
      <stop
         offset="1"
         stop-color="red"
         id="stop20" />
    </linearGradient>
    <linearGradient
       id="D"
       x1="75.982643"
       y1="159.84216"
       x2="77.670532"
       y2="159.84216"
       xlink:href="#C"
       gradientTransform="matrix(1.3438613,0,0,0.74412442,-46.51,-57.336)"
       gradientUnits="userSpaceOnUse">
      <stop
         offset="0"
         stop-color="#fff"
         id="stop23" />
      <stop
         offset=".7"
         stop-color="#b7b7b7"
         id="stop25" />
      <stop
         offset="1"
         stop-color="#fff"
         id="stop27" />
    </linearGradient>
    <filter
       id="E"
       x="0"
       width="1"
       y="0"
       height="1"
       color-interpolation-filters="sRGB">
      <feGaussianBlur
         stdDeviation="0"
         id="feGaussianBlur30" />
    </filter>
    <linearGradient
       xlink:href="#A"
       id="F"
       x1="418.11008"
       y1="579.00999"
       x2="418.08135"
       y2="568.5277"
       gradientTransform="scale(0.79508593,1.2577257)"
       gradientUnits="userSpaceOnUse" />
    <linearGradient
       id="G"
       x1="100.428"
       y1="156.814"
       x2="102.711"
       y2="156.814"
       spreadMethod="pad"
       xlink:href="#m">
      <stop
         offset="0"
         stop-color="#8b0000"
         id="stop34" />
      <stop
         offset=".508"
         stop-color="#ffc3c3"
         stop-opacity="0"
         id="stop36" />
      <stop
         offset="1"
         stop-color="#8b0000"
         id="stop38" />
    </linearGradient>
    <linearGradient
       xlink:href="#A"
       id="H"
       x1="418.11008"
       y1="579.00999"
       x2="418.08135"
       y2="568.5277"
       gradientTransform="scale(0.79508593,1.2577257)"
       gradientUnits="userSpaceOnUse" />
    <linearGradient
       id="I"
       spreadMethod="pad"
       x1="0"
       y1="0"
       x2="117.414"
       y2="0"
       gradientUnits="userSpaceOnUse">
      <stop
         offset="0"
         stop-color="#fff"
         id="stop42" />
      <stop
         offset="1"
         stop-color="#b0b0b0"
         id="stop44" />
    </linearGradient>
    <linearGradient
       id="J"
       x1="470.06158"
       y1="619.20203"
       x2="470.06158"
       y2="626.65228"
       gradientTransform="scale(0.91327333,1.0949624)"
       gradientUnits="userSpaceOnUse"
       spreadMethod="pad">
      <stop
         offset="0"
         stop-color="#a8a8a8"
         id="stop47" />
      <stop
         offset="1"
         stop-color="#575757"
         id="stop49" />
    </linearGradient>
    <linearGradient
       id="K"
       x1="1693.65"
       y1="3756.4597"
       x2="1764.9034"
       y2="3756.4597"
       gradientTransform="scale(0.83955843,1.1911023)"
       gradientUnits="userSpaceOnUse"
       spreadMethod="pad">
      <stop
         offset="0"
         stop-color="#fff"
         id="stop52" />
      <stop
         offset="1"
         stop-color="#434343"
         id="stop54" />
    </linearGradient>
    <linearGradient
       xlink:href="#J"
       id="L"
       x1="665.22101"
       y1="22.568741"
       x2="680.36981"
       y2="22.568741"
       gradientTransform="matrix(0.15669881,0,0,6.7731709,-46.293,-66.192721)"
       gradientUnits="userSpaceOnUse" />
    <linearGradient
       xlink:href="#I"
       id="M"
       x1="463.27346"
       y1="343.28381"
       x2="464.18682"
       y2="343.28381"
       gradientTransform="scale(0.40217164,2.4865006)"
       gradientUnits="userSpaceOnUse" />
    <linearGradient
       xlink:href="#I"
       id="N"
       x1="23.928999"
       y1="603.32513"
       x2="23.928999"
       y2="608.04419"
       gradientTransform="matrix(4.1944441,0,0,0.23841062,-46.293,-57.336)"
       gradientUnits="userSpaceOnUse" />
    <linearGradient
       xlink:href="#I"
       id="O"
       x1="112.06393"
       y1="123.99435"
       x2="112.87226"
       y2="124.61578"
       gradientTransform="matrix(0.8571836,0,0,1.1666112,-46.293,-57.336)"
       gradientUnits="userSpaceOnUse" />
    <linearGradient
       xlink:href="#linearGradient2824"
       id="P"
       x1="25.867395"
       y1="602.05737"
       x2="25.867395"
       y2="609.59222"
       gradientTransform="matrix(4.1944441,0,0,0.23841062,-46.293,-57.336)"
       gradientUnits="userSpaceOnUse" />
    <linearGradient
       xlink:href="#linearGradient2810"
       id="Q"
       x1="133.40251"
       y1="123.63139"
       x2="131.66608"
       y2="124.90725"
       gradientTransform="matrix(0.8571836,0,0,1.1666112,-46.293,-57.336)"
       gradientUnits="userSpaceOnUse" />
    <linearGradient
       id="R"
       x1="-29.452"
       y1="148.933"
       x2="-7.147"
       y2="148.933"
       spreadMethod="pad"
       xlink:href="#m">
      <stop
         offset="0"
         stop-color="#fff"
         id="stop63" />
      <stop
         offset=".133"
         stop-color="#a4dbf5"
         id="stop65" />
      <stop
         offset=".314"
         stop-color="#fff"
         id="stop67" />
      <stop
         offset=".5"
         stop-color="#a4dbf5"
         id="stop69" />
      <stop
         offset=".673"
         stop-color="#fff"
         id="stop71" />
      <stop
         offset=".85"
         stop-color="#b0deef"
         id="stop73" />
      <stop
         offset="1"
         stop-color="#fff"
         id="stop75" />
    </linearGradient>
    <path
       id="S"
       d="M54.614 64.806l.883-.077q.063.531.289.873.232.338.714.55.482.207 1.085.207.535 0 .945-.159.41-.159.608-.434.203-.28.203-.608 0-.333-.193-.579-.193-.251-.637-.42-.285-.111-1.259-.342-.974-.236-1.365-.444-.506-.265-.757-.656-.246-.395-.246-.883 0-.535.304-.998.304-.468.887-.709.584-.241 1.297-.241.786 0 1.384.256.603.251.926.743.323.492.347 1.114l-.897.068q-.072-.67-.492-1.013-.415-.342-1.23-.342-.849 0-1.24.314-.386.309-.386.748 0 .381.275.627.27.246 1.408.506 1.143.256 1.568.449.617.285.912.723.294.434.294 1.003 0 .564-.323 1.066-.323.497-.931.777-.603.275-1.36.275-.96 0-1.611-.28-.646-.28-1.018-.839-.367-.564-.386-1.273z" />
    <path
       id="T"
       d="M77.015 67.078l2.715-7.071h1.008l2.894 7.071h-1.066l-.825-2.141h-2.957l-.777 2.141zm2.04-2.904h2.397l-.738-1.958q-.338-.892-.502-1.466-.135.68-.381 1.35z" />
    <path
       id="U"
       d="M125.408 204.538c1.184-.562 2.024-2.188 2.41-7.678-4.659 3.828-3.063 6.995-2.41 7.678z" />
    <path
       id="V"
       d="M125.408 204.538c3.214-2.394 5.593-.011 8.386 0-2.756.646-5.346 4.021-8.386 0z" />
    <path
       id="W"
       d="M127.09 198.32c.073 2.928-.315 3.47-1.036 4.393.195-1.492.432-1.644 1.036-4.393z" />
    <path
       id="X"
       d="M126.672 204.551c1.377.247 3.249.325 5.128.184-1.64-.37-3.195-1.115-5.128-.184z" />
    <path
       id="Y"
       d="M90.237 152.929l1.03-.074c.059.61.4 1.08-.012 1.926-.691-.283-.981-.948-1.018-1.852z" />
    <path
       id="Z"
       d="M89.256 151.631c-.708.169-.099 1.439.686.758l.694-.678z" />
    <path
       id="a"
       d="M89.256 151.631c-.431-.265-.218-1.431.502-1.045l.877 1.125z" />
    <path
       id="b"
       d="M89.759 150.586l.877 1.125.008-1.372c.044-.636-1.172-.353-.885.247z" />
    <path
       id="c"
       d="M90.644 150.338l-.008 1.372.822-.646c.473-.694-.471-1.332-.814-.726z" />
    <path
       id="d"
       d="M91.457 151.064l-.822.646.973.702c.66-.161.371-1.61-.152-1.348z" />
    <path
       id="e"
       d="M90.636 151.71l.024 1.388c.234.641 1.513-.097.949-.686z" />
    <path
       id="f"
       d="M89.942 152.388l.694-.678.024 1.388c-.188.467-1.505-.042-.718-.71z" />
    <path
       id="g"
       d="M89.159 157.361c1.038-.454 1.535-2.264 3.313-.867-.354 2.504-2.137.789-3.313.867z" />
    <path
       id="h"
       d="M90.611 156.541l.598.302-.31.446" />
    <path
       id="i"
       d="M91.494 157.504l.365-.831-.696-.353" />
    <path
       id="j"
       d="M-15.455 157.101l3.608-.905" />
    <path
       id="k"
       d="M-15.455 157.101l3.668-.758" />
    <path
       id="l"
       d="M101.569 155.008h1.142v3.613h-1.142-1.142v-3.613h1.142z" />
    <linearGradient
       id="m"
       gradientUnits="userSpaceOnUse" />
    <linearGradient
       inkscape:collect="always"
       xlink:href="#A"
       id="linearGradient2240"
       x1="101.579"
       y1="158.657"
       x2="101.569"
       y2="155.008"
       gradientTransform="translate(-44.004,-57.326)" />
    <linearGradient
       inkscape:collect="always"
       xlink:href="#G"
       id="linearGradient2244"
       x1="100.428"
       y1="156.814"
       x2="102.711"
       y2="156.814"
       spreadMethod="pad"
       gradientTransform="translate(-44.004,-57.326)" />
    <linearGradient
       inkscape:collect="always"
       xlink:href="#A"
       id="linearGradient2248"
       x1="101.579"
       y1="158.657"
       x2="101.569"
       y2="155.008"
       gradientTransform="translate(-41.721,-57.326)" />
    <linearGradient
       inkscape:collect="always"
       xlink:href="#G"
       id="linearGradient2252"
       x1="100.428"
       y1="156.814"
       x2="102.711"
       y2="156.814"
       spreadMethod="pad"
       gradientTransform="translate(-41.721,-57.326)" />
    <linearGradient
       inkscape:collect="always"
       xlink:href="#R"
       id="linearGradient2260"
       x1="-29.452"
       y1="148.933"
       x2="-7.147"
       y2="148.933"
       spreadMethod="pad" />
    <linearGradient
       inkscape:collect="always"
       xlink:href="#R"
       id="linearGradient2262"
       x1="-29.452"
       y1="148.933"
       x2="-7.147"
       y2="148.933"
       spreadMethod="pad" />
    <linearGradient
       inkscape:collect="always"
       xlink:href="#R"
       id="linearGradient2264"
       x1="-29.452"
       y1="148.933"
       x2="-7.147"
       y2="148.933"
       spreadMethod="pad" />
    <linearGradient
       inkscape:collect="always"
       xlink:href="#R"
       id="linearGradient2266"
       x1="-29.452"
       y1="148.933"
       x2="-7.147"
       y2="148.933"
       spreadMethod="pad" />
    <linearGradient
       inkscape:collect="always"
       xlink:href="#A"
       id="linearGradient2749"
       gradientTransform="translate(-44.004,-57.326)"
       x1="101.579"
       y1="158.657"
       x2="101.569"
       y2="155.008" />
    <linearGradient
       inkscape:collect="always"
       xlink:href="#G"
       id="linearGradient2751"
       gradientTransform="translate(-44.004,-57.326)"
       x1="100.428"
       y1="156.814"
       x2="102.711"
       y2="156.814"
       spreadMethod="pad" />
    <linearGradient
       inkscape:collect="always"
       xlink:href="#A"
       id="linearGradient2759"
       gradientTransform="translate(-44.004,-57.326)"
       x1="101.579"
       y1="158.657"
       x2="101.569"
       y2="155.008" />
    <linearGradient
       inkscape:collect="always"
       xlink:href="#G"
       id="linearGradient2761"
       gradientTransform="translate(-44.004,-57.326)"
       x1="100.428"
       y1="156.814"
       x2="102.711"
       y2="156.814"
       spreadMethod="pad" />
    <linearGradient
       inkscape:collect="always"
       xlink:href="#I"
       id="linearGradient2812"
       gradientUnits="userSpaceOnUse"
       gradientTransform="matrix(0.8571836,0,0,1.1666112,-46.293,-57.336)"
       x1="133.40251"
       y1="123.63139"
       x2="131.66608"
       y2="124.90725" />
    <linearGradient
       inkscape:collect="always"
       xlink:href="#I"
       id="linearGradient2826"
       gradientUnits="userSpaceOnUse"
       gradientTransform="matrix(4.1944441,0,0,0.23841062,-46.293,-57.336)"
       x1="25.867395"
       y1="602.05737"
       x2="25.867395"
       y2="609.59222" />
    <linearGradient
       inkscape:collect="always"
       xlink:href="#I"
       id="linearGradient2828"
       gradientUnits="userSpaceOnUse"
       gradientTransform="matrix(0.15669881,0,0,6.7731709,-46.293,-66.192721)"
       x1="665.22101"
       y1="22.568741"
       x2="680.36981"
       y2="22.568741" />
    <linearGradient
       inkscape:collect="always"
       xlink:href="#I"
       id="linearGradient3150"
       gradientUnits="userSpaceOnUse"
       gradientTransform="scale(0.91327333,1.0949624)"
       x1="117.7647"
       y1="134.21297"
       x2="117.7647"
       y2="129.72758"
       spreadMethod="pad" />
    <linearGradient
       inkscape:collect="always"
       xlink:href="#C"
       id="linearGradient3152"
       gradientUnits="userSpaceOnUse"
       gradientTransform="matrix(1.165543,0,0,0.85796918,-46.51,-57.336)"
       x1="87.45166"
       y1="137.9346"
       x2="89.569038"
       y2="137.9346"
       spreadMethod="pad" />
  </defs>
  <g
     id="g2709">
    <g
       stroke="#000000"
       stroke-width="0.714"
       class="X"
       id="g107"
       transform="translate(-46.293,-57.336)">
      <path
         d="m 49.626,69.393 c 7.265,10.936 4.441,25.288 0.28,40.094 -14.737,50.44 23.471,79.358 55.094,78.085 31.623,1.273 69.83,-27.645 55.094,-78.085 -4.161,-14.806 -6.984,-29.158 0.281,-40.094 H 105 Z"
         class="M"
         id="path103"
         style="fill:#ffffff" />
      <path
         d="m 49.623,57.693 v 11.703 h 53.215 53.215 v -0.003 h 4.322 v -11.7 h -4.322 -4.895 -48.32 z"
         fill="#ff0000"
         class="V Z"
         id="path105" />
    </g>
    <g
       class="Y"
       id="g129"
       transform="translate(-46.293,-57.336)">
      <path
         id="use109"
         d="m 54.614,64.806 0.883,-0.077 q 0.063,0.531 0.289,0.873 0.232,0.338 0.714,0.55 0.482,0.207 1.085,0.207 0.535,0 0.945,-0.159 0.41,-0.159 0.608,-0.434 0.203,-0.28 0.203,-0.608 0,-0.333 -0.193,-0.579 -0.193,-0.251 -0.637,-0.42 -0.285,-0.111 -1.259,-0.342 -0.974,-0.236 -1.365,-0.444 -0.506,-0.265 -0.757,-0.656 -0.246,-0.395 -0.246,-0.883 0,-0.535 0.304,-0.998 0.304,-0.468 0.887,-0.709 0.584,-0.241 1.297,-0.241 0.786,0 1.384,0.256 0.603,0.251 0.926,0.743 0.323,0.492 0.347,1.114 l -0.897,0.068 q -0.072,-0.67 -0.492,-1.013 -0.415,-0.342 -1.23,-0.342 -0.849,0 -1.24,0.314 -0.386,0.309 -0.386,0.748 0,0.381 0.275,0.627 0.27,0.246 1.408,0.506 1.143,0.256 1.568,0.449 0.617,0.285 0.912,0.723 0.294,0.434 0.294,1.003 0,0.564 -0.323,1.066 -0.323,0.497 -0.931,0.777 -0.603,0.275 -1.36,0.275 -0.96,0 -1.611,-0.28 -0.646,-0.28 -1.018,-0.839 -0.367,-0.564 -0.386,-1.273 z" />
      <path
         d="m 67.375,60.007 h 0.936 v 4.085 q 0,1.066 -0.241,1.693 -0.241,0.627 -0.873,1.023 -0.627,0.391 -1.65,0.391 -0.994,0 -1.625,-0.342 -0.632,-0.342 -0.902,-0.989 -0.27,-0.651 -0.27,-1.775 v -4.085 h 0.936 v 4.08 q 0,0.921 0.169,1.36 0.174,0.434 0.588,0.67 0.42,0.236 1.023,0.236 1.032,0 1.471,-0.468 0.439,-0.468 0.439,-1.799 z m 3.67,7.071 v -7.071 h 0.936 v 6.236 h 3.482 v 0.834 z"
         id="path111" />
      <path
         id="use113"
         d="m 77.015,67.078 2.715,-7.071 h 1.008 l 2.894,7.071 h -1.066 l -0.825,-2.141 h -2.957 l -0.777,2.141 z m 2.04,-2.904 h 2.397 l -0.738,-1.958 q -0.338,-0.892 -0.502,-1.466 -0.135,0.68 -0.381,1.35 z" />
      <path
         d="m 86.462,67.078 -1.876,-7.071 h 0.96 l 1.076,4.635 q 0.174,0.728 0.299,1.447 0.27,-1.133 0.318,-1.307 l 1.346,-4.775 h 1.129 l 1.013,3.579 q 0.381,1.331 0.55,2.503 0.135,-0.67 0.352,-1.539 l 1.109,-4.543 h 0.941 l -1.939,7.071 h -0.902 l -1.49,-5.387 q -0.188,-0.675 -0.222,-0.83 -0.111,0.487 -0.207,0.83 l -1.5,5.387 z m 9.322,0 v -7.071 h 5.113 v 0.834 H 96.72 v 2.166 h 3.912 v 0.83 H 96.72 v 2.407 h 4.341 v 0.834 z"
         id="path115" />
      <path
         id="use117"
         d="m 103.25,64.806 0.883,-0.077 q 0.063,0.531 0.289,0.873 0.232,0.338 0.714,0.55 0.482,0.207 1.085,0.207 0.535,0 0.945,-0.159 0.41,-0.159 0.608,-0.434 0.203,-0.28 0.203,-0.608 0,-0.333 -0.193,-0.579 -0.193,-0.251 -0.637,-0.42 -0.285,-0.111 -1.259,-0.342 -0.974,-0.236 -1.365,-0.444 -0.506,-0.265 -0.757,-0.656 -0.246,-0.395 -0.246,-0.883 0,-0.535 0.304,-0.998 0.304,-0.468 0.887,-0.709 0.584,-0.241 1.297,-0.241 0.786,0 1.384,0.256 0.603,0.251 0.926,0.743 0.323,0.492 0.347,1.114 l -0.897,0.068 q -0.072,-0.67 -0.492,-1.013 -0.415,-0.342 -1.23,-0.342 -0.849,0 -1.24,0.314 -0.386,0.309 -0.386,0.748 0,0.381 0.275,0.627 0.27,0.246 1.408,0.506 1.143,0.256 1.568,0.449 0.617,0.285 0.912,0.723 0.294,0.434 0.294,1.003 0,0.564 -0.323,1.066 -0.323,0.497 -0.931,0.777 -0.603,0.275 -1.36,0.275 -0.96,0 -1.611,-0.28 -0.646,-0.28 -1.018,-0.839 -0.367,-0.564 -0.386,-1.273 z" />
      <path
         d="m 111.53,67.078 v -7.071 h 0.936 v 7.071 z m 7.72,0 v -7.071 h 2.653 q 0.81,0 1.297,0.217 0.492,0.212 0.767,0.661 0.28,0.444 0.28,0.931 0,0.453 -0.246,0.854 -0.246,0.4 -0.743,0.646 0.641,0.188 0.984,0.641 0.347,0.453 0.347,1.071 0,0.497 -0.212,0.926 -0.207,0.424 -0.516,0.656 -0.309,0.232 -0.777,0.352 -0.463,0.116 -1.138,0.116 z m 0.936,-4.1 h 1.529 q 0.622,0 0.892,-0.082 0.357,-0.106 0.535,-0.352 0.183,-0.246 0.183,-0.617 0,-0.352 -0.169,-0.617 -0.169,-0.27 -0.482,-0.367 -0.314,-0.101 -1.076,-0.101 h -1.413 z m 0,3.265 h 1.76 q 0.453,0 0.637,-0.034 0.323,-0.058 0.54,-0.193 0.217,-0.135 0.357,-0.391 0.14,-0.26 0.14,-0.598 0,-0.395 -0.203,-0.685 -0.203,-0.294 -0.564,-0.41 -0.357,-0.121 -1.032,-0.121 h -1.635 z"
         id="path119" />
      <path
         id="use121"
         d="m 126.315,67.078 2.715,-7.071 h 1.008 l 2.894,7.071 h -1.066 l -0.825,-2.141 h -2.957 l -0.777,2.141 z m 2.04,-2.904 h 2.397 l -0.738,-1.958 q -0.338,-0.892 -0.502,-1.466 -0.135,0.68 -0.381,1.35 z" />
      <path
         d="m 134.909,67.078 v -7.071 h 3.135 q 0.945,0 1.437,0.193 0.492,0.188 0.786,0.67 0.294,0.482 0.294,1.066 0,0.752 -0.487,1.268 -0.487,0.516 -1.505,0.656 0.371,0.178 0.564,0.352 0.41,0.376 0.777,0.941 l 1.23,1.924 h -1.177 l -0.936,-1.471 q -0.41,-0.637 -0.675,-0.974 -0.265,-0.338 -0.477,-0.473 -0.207,-0.135 -0.424,-0.188 -0.159,-0.034 -0.521,-0.034 h -1.085 v 3.14 z m 0.936,-3.95 h 2.011 q 0.641,0 1.003,-0.13 0.362,-0.135 0.55,-0.424 0.188,-0.294 0.188,-0.637 0,-0.502 -0.367,-0.825 -0.362,-0.323 -1.148,-0.323 h -2.238 z"
         id="path123" />
      <path
         id="use125"
         d="m 142.465,67.078 2.715,-7.071 h 1.008 l 2.894,7.071 h -1.066 l -0.825,-2.141 h -2.957 l -0.777,2.141 z m 2.04,-2.904 h 2.397 l -0.738,-1.958 q -0.338,-0.892 -0.502,-1.466 -0.135,0.68 -0.381,1.35 z" />
      <path
         d="m 152.111,67.078 v -6.236 h -2.33 v -0.834 h 5.604 v 0.834 h -2.339 v 6.236 z"
         id="path127" />
    </g>
  </g>
  <g
     id="g3231">
    <g
       class="L"
       id="g201"
       transform="translate(-46.293,-57.336)">
      <path
         d="m 132.415,122.278 c -3.158,-1.945 -6.484,-4.132 -10.88,-7.858 -0.457,-0.067 -0.717,0.013 -0.926,0.132 -1.714,-1.862 -2.857,-4.133 -4.167,-6.284 -0.324,-0.472 -0.941,-0.406 -1.29,0.099 l -1.753,2.48 c -0.729,-0.011 -1.247,-0.477 -2.514,-1.439 -0.574,-0.797 -1.398,-0.591 -2.183,-0.546 l -2.746,-3.315 c -0.323,-0.331 -0.497,-0.492 -0.997,-0.576 -0.5,0.084 -0.675,0.245 -0.998,0.576 l -2.746,3.315 c -0.784,-0.045 -1.609,-0.252 -2.183,0.546 -1.266,0.961 -1.784,1.427 -2.514,1.439 l -1.753,-2.48 c -0.349,-0.506 -0.966,-0.572 -1.29,-0.099 -1.31,2.151 -2.453,4.422 -4.167,6.284 -0.209,-0.119 -0.469,-0.199 -0.926,-0.132 a 82.59,82.59 0 0 1 -10.88,7.858 c -0.827,2.713 -1.248,5.534 -1.248,8.371 0,7.613 3.024,14.914 8.407,20.297 5.383,5.383 12.684,8.407 20.297,8.407 15.853,0 28.704,-12.851 28.704,-28.704 0,-2.837 -0.421,-5.658 -1.248,-8.371 z"
         opacity="0.992"
         stroke-width="0.238"
         filter="url(#E)"
         transform="matrix(0.98129,0,0,0.98129,1.998415,2.493246)"
         class="Q V X"
         id="path197" />
      <path
         d="M 132.905,126.91 H 77.082 c -0.17,1.255 -0.256,2.521 -0.256,3.787 0,7.47 2.968,14.635 8.25,19.917 5.282,5.282 12.447,8.25 19.917,8.25 15.556,0 28.167,-12.611 28.167,-28.167 0,-1.267 -0.086,-2.532 -0.256,-3.787 z"
         fill="#4fd49b"
         stroke-width="0.234"
         class="c"
         id="path199" />
    </g>
    <path
       d="m 76.831,78.453 c -1.625,0.007 -3.249,0.307 -4.806,0.811 -3.375,1.166 -7.151,1.273 -10.557,0.176 -2.656,-1.509 -5.516,0.33 -8.027,1.259 -2.694,1.272 -5.611,0.125 -8.153,-0.951 -3.097,-1.456 -6.426,-0.738 -9.639,-0.236 -1.631,0.243 -3.13,-0.144 -4.588,-0.724 a 28.17,28.17 0 0 0 55.245,0.176 c -2.189,-0.006 -4.378,-0.04 -6.561,-0.186 a 12.46,12.46 0 0 0 -2.913,-0.324 z"
       fill="#50adf3"
       class="c"
       id="path203" />
    <g
       stroke-width="0.26"
       class="L M"
       id="g211"
       transform="translate(-46.293,-57.336)">
      <path
         d="m 77.038,134.146 h 55.911 m -56.101,-2.333 h 56.244 m -56.227,-2.595 h 56.258"
         class="c"
         id="path205" />
      <path
         d="m 101.616,126.91 -6.913,7.235 m 5.712,-7.235 -9.412,7.235 m 7.854,-7.235 -11.911,7.235 m 10.613,-7.235 -15.513,7.235 m 13.605,-7.235 -18.613,7.235 m -0.136,-1.375 16.811,-5.86 m -2.077,0 -14.81,3.787 m 0.016,-0.936 13.156,-2.851 m -13.065,1.335 10.857,-1.335 m 14.906,0 -3.901,7.235 m 4.75,-7.235 -0.367,7.235 m 1.216,-7.235 2.134,7.235 m 3.98,10e-4 -5.176,-7.235 m 1.412,-0.001 6.264,7.235 m -4.934,-7.235 7.464,7.235 m -5.906,-7.235 9.866,7.235 m -8.438,-7.235 12.949,7.235 m -11.424,-7.235 16.18,7.235 m -14.525,-7.235 18.708,7.235 m -16.533,-7.235 16.73,5.84 m -14.848,-5.84 14.863,3.739 m -12.007,-3.739 12.178,2.594 m -8.77,-2.594 8.472,1.09 m -36.322,-16.733 1.294,2.126 c 0.59,0.608 1.179,-0.32 1.769,0.146 l 3.83,3.31 c -1.776,-0.292 -2.111,0.639 -2.499,1.525 -0.644,1.433 -1.058,0.883 -1.493,0.519 -0.733,-0.44 -1.431,-0.229 -2.077,0.974 m 15.74,-8.6 -1.294,2.126 c -0.59,0.608 -1.179,-0.32 -1.769,0.146 l -3.83,3.31 c 1.776,-0.292 2.111,0.639 2.499,1.525 0.644,1.433 1.058,0.883 1.493,0.519 0.733,-0.44 1.431,-0.229 2.077,0.974"
         class="c"
         id="path207" />
      <path
         d="m 84.879,119.8 h 1.698 l 0.964,1.079 c 1.064,0.354 1.557,-0.815 2.295,-1.331 0.946,0.133 1.658,0.499 2.433,0.803 0.665,-1.322 1.889,-1.722 3.144,-2.387 0.655,0.544 0.781,0.166 2.122,1.904 0.85,0.018 1.171,0.398 1.753,0.957 0.665,0.493 1.494,-0.195 2.272,-0.519 0.278,-0.139 0.763,0.204 1.298,0.665 0.731,0.422 1.406,-0.68 2.177,-0.73 m 20.073,-0.441 h -1.698 l -0.964,1.079 c -1.064,0.354 -1.557,-0.815 -2.295,-1.331 -0.946,0.133 -1.658,0.499 -2.433,0.803 -0.665,-1.322 -1.889,-1.722 -3.144,-2.387 -0.655,0.544 -0.781,0.166 -2.122,1.904 -0.85,0.018 -1.171,0.398 -1.753,0.957 -0.665,0.493 -1.494,-0.195 -2.272,-0.519 -0.278,-0.139 -0.763,0.204 -1.298,0.665 -0.731,0.422 -1.325,-0.68 -2.096,-0.73"
         stroke-opacity="0.996"
         class="c"
         id="path209" />
    </g>
    <g
       id="g3100">
      <g
         transform="translate(77.007,-57.336)"
         stroke="url(#R)"
         stroke-width="0.419"
         class="M W a"
         id="g455"
         style="stroke:url(#linearGradient2266)">
        <path
           d="m -28.816,146.997 c -0.462,-0.169 -0.829,0.423 -0.526,0.752 1.022,1.111 6.033,-0.844 7.635,-0.354 1.109,0.464 0.556,1.296 -0.329,1.057"
           id="path449"
           style="stroke:url(#linearGradient2260)" />
        <path
           d="m -7.783,146.997 c 0.462,-0.169 0.829,0.423 0.526,0.752 -1.022,1.111 -6.033,-0.844 -7.635,-0.354 -1.109,0.464 -0.556,1.296 0.329,1.057"
           id="path451"
           style="stroke:url(#linearGradient2262)" />
        <path
           d="m -27.493,150.899 c -0.374,-0.287 -0.365,-0.907 0.156,-1.035 2.457,-0.602 5.405,1.343 7.326,0.931 0.365,-0.078 0.753,-0.606 0.498,-0.971 -0.159,-0.333 -1.034,-0.282 -0.628,0.133 0.603,0.264 -0.172,0.518 -0.507,0.509 -0.484,-0.013 -1.023,-0.505 -0.595,-0.883 0.825,-0.728 1.461,-0.88 2.944,-0.877 1.483,-0.003 2.118,0.149 2.944,0.877 0.429,0.378 -0.111,0.87 -0.595,0.883 -0.335,0.009 -1.11,-0.245 -0.507,-0.509 0.406,-0.415 -0.469,-0.466 -0.628,-0.133 -0.255,0.365 0.133,0.893 0.498,0.971 1.92,0.413 4.869,-1.532 7.326,-0.931 0.522,0.128 0.53,0.748 0.156,1.035"
           id="path453"
           style="stroke:url(#linearGradient2264)" />
      </g>
      <g
         stroke="#606060"
         stroke-width="0.075"
         id="g463"
         transform="translate(-46.293,-57.336)">
        <path
           d="m 105,142.428 c -0.262,0.05 -0.385,0.151 -0.477,0.262 l -1.036,2.35 c 0.237,1.236 0.908,1.144 1.513,0.839 0.605,0.305 1.275,0.396 1.513,-0.839 l -1.036,-2.35 c -0.092,-0.111 -0.215,-0.212 -0.477,-0.262 z"
           fill="url(#J)"
           id="path457"
           style="fill:url(#linearGradient3150);fill-opacity:1" />
        <path
           d="m 103.488,145.041 c 0,1.675 0.07,3.297 1.513,4.346 1.443,-1.05 1.513,-2.598 1.513,-4.346 -0.237,1.236 -0.908,1.144 -1.513,0.839 -0.605,0.305 -1.275,0.396 -1.513,-0.839 z"
           fill="url(#K)"
           id="path459"
           style="fill:url(#K)" />
        <path
           d="m 105,144.7 -0.352,0.479 0.153,4.242 h 0.398 l 0.153,-4.242 z"
           fill="url(#M)"
           id="path461"
           style="fill:url(#M)" />
      </g>
      <path
         d="m 67.262,87.207 c 0.01,-0.068 0.115,-0.135 0.222,-0.164 l -8.48,-0.318 v 0.174 z"
         fill="url(#P)"
         id="path465"
         style="fill:url(#linearGradient2826);fill-opacity:1;stroke:none" />
      <path
         d="m 50.588,86.304 c -0.469,0.52 -0.971,0.991 -1.306,1.703 -0.004,0.768 0.845,0.528 0.837,0.188 -0.004,-0.188 -0.098,-0.421 -0.274,-0.436 l 0.744,-1.124 c -0.073,0.164 0.128,0.235 0.298,0.165 0.17,-0.07 -0.098,-0.715 -0.298,-0.496 z"
         fill="url(#O)"
         id="path467"
         style="fill:url(#O);fill-opacity:1" />
      <path
         d="m 50.152,87.207 c -0.01,-0.068 -0.115,-0.135 -0.222,-0.164 l 8.48,-0.318 v 0.174 z"
         fill="url(#N)"
         id="path469"
         style="fill:url(#N);fill-opacity:1;stroke:none" />
      <path
         d="m 66.826,86.304 c 0.469,0.52 0.971,0.991 1.306,1.703 0.004,0.768 -0.845,0.528 -0.837,0.188 0.005,-0.188 0.098,-0.421 0.274,-0.436 l -0.744,-1.124 c 0.073,0.164 -0.128,0.235 -0.298,0.165 -0.17,-0.07 0.098,-0.715 0.298,-0.496 z"
         fill="url(#Q)"
         id="path471"
         style="fill:url(#linearGradient2812);fill-opacity:1" />
      <path
         d="M 58.388,59.456 V 86.907761 A 0.319,0.12630039 0 0 0 58.707,87.033 0.319,0.12630039 0 0 0 59.026,86.907761 V 59.456 c 0,0 -0.142,0 -0.319,0 -0.177,0 -0.319,0 -0.319,0 z"
         fill="url(#L)"
         class="V W"
         id="path473"
         style="fill:url(#linearGradient2828);fill-opacity:1;stroke-width:1.03022" />
      <path
         d="m 58.388,59.456 c -2.663,0.743 -2.064,1.625 -3.96,2.915 2.223,-0.62 2.775,-1.65 3.959,-2.078 z"
         fill="url(#C)"
         id="path475"
         style="fill:url(#linearGradient3152);fill-opacity:1" />
      <path
         d="m 58.388,61.05 c -1.398,0.767 -1.821,1.78 -3.96,1.321 2.226,-0.621 2.777,-1.654 3.964,-2.08 z"
         fill="url(#D)"
         id="path477"
         style="fill:url(#D);fill-opacity:1" />
      <g
         stroke="#ffffff"
         class="M e"
         id="g483"
         transform="translate(-46.293,-57.336)">
        <path
           d="m 104.649,124.54 7.944,19.915"
           id="path479" />
        <path
           d="m 105.351,124.54 -7.944,19.915"
           id="path481" />
      </g>
      <path
         d="m 43.844,81.624 c 6.047,-4.665 11.084,-11.296 14.762,-20.573 0.8,8.601 0.591,17.089 0.287,25.567 C 55.352,86.46 48.418,86.065 43.845,81.624 Z"
         fill="#ccdde7"
         id="path485" />
      <path
         d="m 57.926,64.473 c -3.384,7.33 -7.686,12.943 -12.758,17.074 3.986,3.335 9.454,3.998 12.912,4.184 -2.626,-6.513 -0.366,-14.233 -0.154,-21.258 z"
         fill="#d8e5ed"
         id="path487" />
      <path
         d="m 57.397,67.141 c -3.085,5.975 -6.869,10.674 -11.193,14.344 3.561,2.621 8.027,3.26 11.283,3.469 -3.014,-5.823 0.16,-17.812 -0.09,-17.812 z"
         fill="#eef4f7"
         id="path489" />
      <path
         d="m 56.85,69.508 c -2.742,4.803 -5.982,8.716 -9.602,11.914 3.081,1.967 6.617,2.56 9.57,2.797 -2.207,-2.561 -1.66,-9.358 0.031,-14.711 z"
         class="Y"
         id="path491" />
    </g>
  </g>
  <path
     d="m 52.127,35.724 c -0.556,0.01 -1.194,0.097 -1.937,0.282 v 0 c -1.993,0.415 -3.019,1.139 -3.625,1.966 -0.606,0.827 -0.798,1.72 -1.205,2.463 l 0.383,0.259 1.563,-1.894 c 0.161,0.897 0.031,1.769 -0.434,2.543 -0.552,0.92 -1.461,1.704 -2.494,2.201 -1.033,0.497 -2.214,0.72 -3.277,0.578 -0.895,-0.12 -1.657,-0.561 -2.258,-1.246 l 2.455,-0.041 0.035,-0.461 c -0.834,-0.144 -1.651,-0.552 -2.678,-0.594 -1.027,-0.042 -2.233,0.31 -3.804,1.615 v 0 c -1.616,1.239 -2.226,2.335 -2.413,3.343 -0.187,1.008 0.027,1.896 -0.018,2.742 l 0.457,0.069 0.586,-2.387 c 0.535,0.739 0.795,1.581 0.713,2.48 -0.098,1.069 -0.578,2.17 -1.293,3.066 -0.715,0.896 -1.681,1.61 -2.701,1.944 -0.858,0.28 -1.738,0.214 -2.577,-0.143 l 2.196,-1.104 -0.168,-0.431 c -0.814,0.232 -1.727,0.221 -2.67,0.629 -0.943,0.408 -1.879,1.246 -2.729,3.104 -0.919,1.818 -0.992,3.07 -0.723,4.06 0.269,0.99 0.849,1.698 1.176,2.479 l 0.441,-0.137 -0.506,-2.404 c 0.802,0.433 1.401,1.078 1.717,1.924 0.376,1.005 0.422,2.207 0.166,3.324 -0.256,1.117 -0.818,2.181 -1.592,2.924 -0.652,0.625 -1.473,0.945 -2.383,0.988 l 1.5,-1.947 -0.338,-0.314 c -0.633,0.562 -1.462,0.948 -2.135,1.724 -0.673,0.776 -1.148,1.935 -1.109,3.971 -0.039,2.046 0.438,3.205 1.109,3.98 0.671,0.775 1.502,1.163 2.135,1.725 l 0.338,-0.316 -1.5,-1.948 c 0.91,0.043 1.731,0.366 2.383,0.991 0.774,0.743 1.337,1.804 1.592,2.922 0.255,1.118 0.209,2.319 -0.166,3.324 -0.316,0.846 -0.916,1.493 -1.719,1.926 l 0.508,-2.405 -0.441,-0.138 c -0.326,0.781 -0.906,1.489 -1.176,2.48 -0.27,0.991 -0.196,2.246 0.727,4.068 0.848,1.85 1.782,2.689 2.724,3.095 0.942,0.406 1.856,0.395 2.67,0.627 L 29.8,93.198 27.604,92.097 c 0.839,-0.357 1.718,-0.423 2.577,-0.143 1.02,0.333 1.986,1.047 2.701,1.943 0.715,0.896 1.195,1.996 1.293,3.065 0.082,0.899 -0.179,1.742 -0.713,2.48 l -0.586,-2.387 -0.457,0.068 c 0.045,0.846 -0.17,1.734 0.018,2.744 0.188,1.01 0.797,2.104 2.413,3.343 v 0.001 c 1.572,1.305 2.778,1.655 3.804,1.613 1.026,-0.042 1.843,-0.447 2.678,-0.592 l -0.035,-0.463 -2.457,-0.039 c 0.601,-0.686 1.364,-1.128 2.26,-1.248 1.064,-0.142 2.244,0.081 3.277,0.578 1.033,0.497 1.943,1.281 2.494,2.201 0.465,0.775 0.595,1.647 0.434,2.545 l -1.563,-1.897 -0.383,0.26 c 0.407,0.742 0.598,1.636 1.205,2.465 0.607,0.829 1.635,1.554 3.635,1.969 v -0.002 c 1.976,0.49 3.211,0.285 4.117,-0.197 0.906,-0.482 1.467,-1.205 2.156,-1.697 l -0.233,-0.4 -2.23,1.029 c 0.244,-0.878 0.74,-1.607 1.494,-2.104 0.896,-0.59 2.057,-0.9 3.203,-0.9 1.146,0 2.309,0.31 3.205,0.9 0.754,0.496 1.25,1.226 1.494,2.104 l -2.232,-1.029 -0.233,0.4 c 0.689,0.492 1.25,1.214 2.156,1.697 0.906,0.483 2.143,0.688 4.119,0.197 l 0.01,-0.003 c 1.993,-0.415 3.017,-1.137 3.623,-1.964 0.606,-0.827 0.8,-1.723 1.207,-2.465 l -0.383,-0.26 -1.563,1.894 c -0.161,-0.897 -0.032,-1.768 0.432,-2.542 0.552,-0.92 1.463,-1.704 2.496,-2.201 1.033,-0.497 2.214,-0.721 3.277,-0.578 0.896,0.12 1.659,0.562 2.26,1.248 l -2.457,0.039 -0.037,0.461 c 0.834,0.144 1.653,0.552 2.68,0.594 1.027,0.042 2.233,-0.308 3.804,-1.613 v -0.001 c 1.616,-1.239 2.226,-2.335 2.413,-3.343 0.187,-1.008 -0.027,-1.898 0.018,-2.744 l -0.457,-0.068 -0.586,2.387 c -0.535,-0.738 -0.797,-1.581 -0.715,-2.48 0.098,-1.069 0.58,-2.17 1.295,-3.066 0.715,-0.896 1.681,-1.608 2.701,-1.941 0.859,-0.28 1.738,-0.214 2.577,0.143 l -2.196,1.101 0.168,0.432 c 0.814,-0.232 1.727,-0.22 2.67,-0.627 0.943,-0.407 1.877,-1.248 2.726,-3.105 0.919,-1.818 0.992,-3.069 0.723,-4.059 -0.269,-0.99 -0.848,-1.699 -1.174,-2.48 l -0.441,0.138 0.506,2.402 c -0.801,-0.433 -1.401,-1.078 -1.717,-1.924 -0.376,-1.005 -0.422,-2.206 -0.166,-3.324 0.256,-1.118 0.818,-2.179 1.592,-2.922 0.652,-0.625 1.472,-0.948 2.383,-0.991 l -1.5,1.948 0.338,0.316 c 0.633,-0.562 1.462,-0.949 2.135,-1.725 0.673,-0.776 1.149,-1.936 1.11,-3.975 0.04,-2.039 -0.437,-3.2 -1.11,-3.975 -0.673,-0.775 -1.502,-1.162 -2.135,-1.724 l -0.338,0.314 1.5,1.947 c -0.911,-0.042 -1.731,-0.363 -2.383,-0.988 -0.774,-0.743 -1.337,-1.806 -1.592,-2.924 -0.255,-1.118 -0.209,-2.319 0.166,-3.324 0.316,-0.847 0.916,-1.492 1.719,-1.925 l -0.508,2.406 0.441,0.137 c 0.326,-0.781 0.905,-1.487 1.174,-2.479 0.269,-0.992 0.196,-2.242 -0.723,-4.06 -0.85,-1.858 -1.783,-2.696 -2.726,-3.104 -0.943,-0.408 -1.856,-0.397 -2.67,-0.629 l -0.168,0.431 2.197,1.102 c -0.84,0.358 -1.719,0.425 -2.578,0.145 -1.02,-0.333 -1.986,-1.047 -2.701,-1.944 -0.715,-0.897 -1.197,-1.998 -1.295,-3.066 -0.082,-0.9 0.18,-1.742 0.715,-2.48 l 0.586,2.387 0.457,-0.069 c -0.045,-0.846 0.17,-1.732 -0.018,-2.742 -0.188,-1.01 -0.797,-2.105 -2.413,-3.344 v -0.002 c -1.572,-1.305 -2.778,-1.655 -3.804,-1.613 -1.026,0.042 -1.846,0.449 -2.68,0.594 l 0.037,0.461 2.455,0.041 c -0.601,0.685 -1.363,1.126 -2.258,1.246 -1.064,0.142 -2.244,-0.08 -3.277,-0.578 -1.033,-0.498 -1.944,-1.281 -2.496,-2.201 -0.464,-0.774 -0.593,-1.646 -0.432,-2.543 l 1.563,1.894 0.383,-0.259 c -0.407,-0.742 -0.6,-1.634 -1.207,-2.463 -0.607,-0.829 -1.63,-1.551 -3.623,-1.967 -1.982,-0.494 -3.222,-0.287 -4.129,0.197 -0.907,0.484 -1.467,1.203 -2.156,1.696 l 0.233,0.4 2.232,-1.029 c -0.244,0.879 -0.739,1.607 -1.494,2.104 -0.896,0.59 -2.058,0.9 -3.205,0.9 -1.147,0 -2.307,-0.31 -3.203,-0.9 -0.755,-0.497 -1.25,-1.225 -1.494,-2.104 l 2.23,1.029 0.233,-0.4 C 55.783,37.406 55.224,36.686 54.318,36.202 53.865,35.96 53.327,35.788 52.656,35.737 l -0.527,-0.014 z m 13.156,0.397 c 0.519,0.011 1.125,0.094 1.844,0.273 a 0.401,0.401 0 0 0 0.016,0.004 c 1.929,0.402 2.837,1.067 3.382,1.811 0.295,0.403 0.488,0.836 0.669,1.276 l -0.775,-0.94 a 0.401,0.401 0 0 0 -0.703,0.184 c -0.175,0.978 -0.033,1.96 0.483,2.82 0.6,1.001 1.568,1.827 2.666,2.356 1.098,0.529 2.347,0.769 3.504,0.614 0.993,-0.133 1.85,-0.632 2.506,-1.379 A 0.401,0.401 0 0 0 78.58,42.475 l -1.221,-0.02 c 0.459,-0.134 0.918,-0.254 1.419,-0.274 0.92,-0.038 2.005,0.258 3.518,1.511 a 0.401,0.401 0 0 0 0.026,0.021 c 1.565,1.2 2.095,2.193 2.263,3.099 0.091,0.49 0.076,0.963 0.048,1.438 l -0.29,-1.182 a 0.401,0.401 0 0 0 -0.714,-0.14 c -0.583,0.805 -0.881,1.753 -0.789,2.752 0.106,1.163 0.62,2.327 1.38,3.279 0.76,0.952 1.78,1.712 2.89,2.075 0.954,0.312 1.944,0.233 2.86,-0.157 a 0.401,0.401 0 0 0 0.022,-0.727 l -1.089,-0.546 c 0.469,0.079 0.934,0.17 1.392,0.368 0.848,0.366 1.698,1.104 2.521,2.902 a 0.401,0.401 0 0 0 0.007,0.014 c 0.889,1.76 0.936,2.885 0.694,3.774 -0.131,0.482 -0.35,0.901 -0.581,1.317 l 0.252,-1.193 a 0.401,0.401 0 0 0 -0.582,-0.435 c -0.876,0.473 -1.553,1.198 -1.904,2.138 -0.408,1.093 -0.453,2.365 -0.182,3.553 0.271,1.188 0.863,2.317 1.705,3.124 0.724,0.694 1.649,1.052 2.642,1.099 a 0.401,0.401 0 0 0 0.336,-0.644 l -0.744,-0.965 c 0.39,0.274 0.769,0.558 1.097,0.935 0.604,0.697 1.05,1.731 1.012,3.705 a 0.401,0.401 0 0 0 0,0.016 c 0.038,1.974 -0.407,3.008 -1.012,3.705 -0.328,0.379 -0.709,0.664 -1.1,0.939 l 0.748,-0.971 a 0.401,0.401 0 0 0 -0.336,-0.644 c -0.994,0.046 -1.918,0.408 -2.642,1.101 -0.842,0.808 -1.434,1.934 -1.705,3.122 -0.271,1.188 -0.227,2.46 0.182,3.553 0.351,0.939 1.027,1.664 1.901,2.136 a 0.401,0.401 0 0 0 0.583,-0.435 l -0.251,-1.193 c 0.232,0.417 0.451,0.837 0.582,1.32 0.242,0.89 0.195,2.013 -0.694,3.773 a 0.401,0.401 0 0 0 -0.007,0.014 c -0.823,1.798 -1.673,2.538 -2.521,2.904 -0.459,0.198 -0.926,0.29 -1.396,0.368 l 1.092,-0.548 a 0.401,0.401 0 0 0 -0.023,-0.727 c -0.915,-0.39 -1.905,-0.466 -2.858,-0.155 -1.109,0.362 -2.13,1.12 -2.89,2.073 -0.76,0.953 -1.274,2.117 -1.38,3.279 -0.091,0.999 0.206,1.947 0.789,2.752 a 0.401,0.401 0 0 0 0.714,-0.14 l 0.29,-1.182 c 0.028,0.475 0.043,0.949 -0.048,1.439 -0.168,0.906 -0.699,1.899 -2.263,3.099 a 0.401,0.401 0 0 0 -0.018,0.015 c -1.518,1.259 -2.604,1.554 -3.526,1.516 -0.499,-0.02 -0.958,-0.14 -1.415,-0.273 l 1.22,-0.02 a 0.401,0.401 0 0 0 0.295,-0.665 c -0.656,-0.748 -1.514,-1.248 -2.508,-1.381 -1.157,-0.155 -2.406,0.085 -3.504,0.614 -1.098,0.529 -2.066,1.355 -2.666,2.356 -0.516,0.86 -0.658,1.842 -0.483,2.819 a 0.401,0.401 0 0 0 0.703,0.184 l 0.776,-0.94 c -0.181,0.441 -0.374,0.875 -0.669,1.279 -0.545,0.744 -1.452,1.407 -3.382,1.809 a 0.401,0.401 0 0 0 -0.027,0.007 c -1.911,0.474 -3.019,0.27 -3.831,-0.163 -0.442,-0.236 -0.805,-0.544 -1.161,-0.864 l 1.113,0.513 a 0.401,0.401 0 0 0 0.554,-0.471 c -0.266,-0.958 -0.822,-1.78 -1.66,-2.331 -0.975,-0.642 -2.206,-0.966 -3.425,-0.966 -1.219,0 -2.448,0.324 -3.424,0.966 -0.838,0.551 -1.394,1.374 -1.66,2.331 a 0.401,0.401 0 0 0 0.554,0.471 l 1.108,-0.512 c -0.355,0.319 -0.717,0.627 -1.159,0.862 -0.813,0.434 -1.919,0.637 -3.831,0.162 a 0.401,0.401 0 0 0 -0.036,-0.007 c -1.92,-0.402 -2.829,-1.066 -3.372,-1.808 -0.296,-0.404 -0.487,-0.838 -0.668,-1.28 l 0.777,0.943 a 0.401,0.401 0 0 0 0.703,-0.184 c 0.176,-0.979 0.031,-1.961 -0.484,-2.822 -0.6,-1.001 -1.566,-1.827 -2.664,-2.356 -1.098,-0.529 -2.347,-0.769 -3.504,-0.614 -0.994,0.133 -1.852,0.632 -2.508,1.381 a 0.401,0.401 0 0 0 0.295,0.665 l 1.223,0.02 c -0.458,0.133 -0.918,0.253 -1.419,0.273 -0.921,0.038 -2.007,-0.258 -3.523,-1.514 a 0.401,0.401 0 0 0 -0.021,-0.017 c -1.564,-1.2 -2.095,-2.192 -2.263,-3.099 -0.091,-0.491 -0.076,-0.964 -0.047,-1.439 l 0.29,1.182 a 0.401,0.401 0 0 0 0.714,0.14 c 0.583,-0.805 0.879,-1.754 0.788,-2.752 -0.106,-1.162 -0.619,-2.325 -1.379,-3.278 -0.76,-0.953 -1.78,-1.712 -2.89,-2.074 -0.953,-0.311 -1.943,-0.234 -2.858,0.155 a 0.401,0.401 0 0 0 -0.023,0.727 l 1.092,0.548 C 28.049,92.924 27.583,92.833 27.124,92.634 26.278,92.268 25.427,91.53 24.606,89.74 a 0.401,0.401 0 0 0 -0.007,-0.014 c -0.893,-1.764 -0.94,-2.891 -0.698,-3.783 0.131,-0.483 0.351,-0.904 0.583,-1.321 l -0.253,1.196 a 0.401,0.401 0 0 0 0.582,0.435 c 0.875,-0.473 1.553,-1.199 1.904,-2.138 0.408,-1.093 0.453,-2.364 0.182,-3.553 -0.271,-1.189 -0.863,-2.315 -1.705,-3.122 -0.723,-0.694 -1.648,-1.055 -2.642,-1.101 a 0.401,0.401 0 0 0 -0.336,0.644 l 0.748,0.971 c -0.391,-0.275 -0.772,-0.56 -1.1,-0.939 -0.604,-0.696 -1.049,-1.729 -1.012,-3.7 a 0.401,0.401 0 0 0 0,-0.002 0.401,0.401 0 0 0 0,-0.024 c -0.037,-1.971 0.408,-3.004 1.012,-3.701 0.327,-0.377 0.707,-0.661 1.097,-0.935 l -0.744,0.965 a 0.401,0.401 0 0 0 0.336,0.644 c 0.993,-0.047 1.918,-0.405 2.642,-1.099 0.842,-0.808 1.434,-1.936 1.705,-3.124 0.271,-1.188 0.227,-2.46 -0.182,-3.553 -0.351,-0.939 -1.027,-1.664 -1.901,-2.136 a 0.401,0.401 0 0 0 -0.583,0.435 l 0.252,1.196 C 24.253,61.564 24.033,61.143 23.902,60.66 23.66,59.77 23.707,58.645 24.596,56.886 a 0.401,0.401 0 0 0 0.007,-0.014 c 0.822,-1.798 1.675,-2.536 2.523,-2.902 0.46,-0.199 0.926,-0.29 1.396,-0.368 l -1.092,0.549 a 0.401,0.401 0 0 0 0.023,0.727 c 0.915,0.389 1.905,0.466 2.858,0.155 1.11,-0.362 2.13,-1.122 2.89,-2.075 0.76,-0.953 1.272,-2.117 1.379,-3.279 0.091,-0.999 -0.204,-1.947 -0.788,-2.752 a 0.401,0.401 0 0 0 -0.714,0.14 l -0.29,1.182 c -0.028,-0.474 -0.043,-0.947 0.048,-1.438 0.168,-0.906 0.699,-1.899 2.263,-3.099 a 0.401,0.401 0 0 0 0.018,-0.015 c 1.518,-1.259 2.605,-1.556 3.526,-1.518 0.5,0.02 0.959,0.141 1.418,0.274 l -1.22,0.02 a 0.401,0.401 0 0 0 -0.295,0.665 c 0.655,0.747 1.512,1.246 2.506,1.379 1.157,0.155 2.406,-0.085 3.504,-0.614 1.098,-0.529 2.064,-1.355 2.664,-2.356 0.515,-0.86 0.66,-1.842 0.484,-2.82 a 0.401,0.401 0 0 0 -0.703,-0.184 l -0.777,0.942 c 0.181,-0.441 0.373,-0.874 0.668,-1.278 0.545,-0.743 1.455,-1.409 3.384,-1.811 a 0.401,0.401 0 0 0 0.021,-0.005 c 0.716,-0.178 1.324,-0.26 1.842,-0.269 l 0.49,0.013 c 0.619,0.047 1.096,0.202 1.503,0.419 0.441,0.235 0.802,0.543 1.156,0.861 L 54.18,36.903 a 0.401,0.401 0 0 0 -0.554,0.471 c 0.266,0.958 0.822,1.78 1.66,2.332 0.975,0.642 2.205,0.966 3.424,0.966 1.219,0 2.45,-0.324 3.425,-0.966 0.838,-0.551 1.394,-1.373 1.66,-2.332 a 0.401,0.401 0 0 0 -0.554,-0.471 l -1.111,0.513 c 0.355,-0.319 0.717,-0.626 1.159,-0.862 0.509,-0.272 1.134,-0.453 1.999,-0.435 z"
     class="P d e"
     id="path101" />
  <g
     id="g2726">
    <path
       d="m 54.567,18.346 2.476,1.826 -10e-4,0.004"
       class="N"
       id="path131" />
    <path
       d="m 59.766,18.341 -1.061,-3.027 -0.005,0.014 -1.049,3.008 -0.002,0.004 -3.099,-0.007 0.016,0.011 2.475,1.83 -0.904,3.042 0.019,-0.013 2.544,-1.83 0.005,-0.004 2.571,1.735 -0.002,-0.006 -0.946,-2.958 h 10e-4 l 2.529,-1.805 0.005,-0.003 -3.09,0.007 z"
       class="Y"
       id="path133" />
    <path
       fill="#a07843"
       d="m 56.138,23.402 c -0.037,0 -0.074,-0.011 -0.106,-0.034 -0.064,-0.046 -0.092,-0.127 -0.07,-0.202 l 0.867,-2.919 -2.387,-1.765 c -0.064,-0.047 -0.09,-0.13 -0.065,-0.205 0.025,-0.075 0.095,-0.126 0.174,-0.126 v 0 l 2.969,0.006 1.013,-2.903 c 0.026,-0.074 0.095,-0.123 0.173,-0.123 v 0 c 0.078,0 0.147,0.049 0.173,0.123 l 1.017,2.904 2.967,-0.006 v 0 c 0.08,0 0.15,0.051 0.175,0.127 0.025,0.076 -0.003,0.159 -0.068,0.206 l -2.425,1.731 0.899,2.812 c 0.012,0.024 0.018,0.051 0.018,0.08 0,0.101 -0.082,0.184 -0.184,0.184 -0.017,0 -0.033,-0.002 -0.048,-0.006 -0.015,-0.004 -0.039,-0.013 -0.056,-0.025 L 58.71,21.598 56.246,23.37 a 0.18,0.18 0 0 1 -0.107,0.034 z m -1.027,-4.883 2.041,1.509 c 0.062,0.046 0.089,0.126 0.067,0.2 l -0.751,2.527 2.127,-1.53 c 0.062,-0.045 0.151,-0.05 0.215,-0.007 l 2.131,1.439 -0.786,-2.459 c -0.024,-0.075 0.003,-0.158 0.067,-0.204 l 2.067,-1.476 -2.515,0.006 v 0 c -0.078,0 -0.154,-0.049 -0.18,-0.123 l -0.887,-2.53 -0.881,2.526 a 0.19,0.19 0 0 1 -0.175,0.128 v 0 l -2.54,-0.005 z"
       id="path135" />
    <path
       d="m 58.701,15.328 v 4.306 l 1.072,-1.294 h -0.007 l -1.061,-3.027 z"
       class="O"
       id="path137" />
    <g
       class="N"
       id="g143"
       transform="translate(-46.293,-57.336)">
      <path
         d="m 103.336,77.508 -0.001,0.004 1.659,-0.537 v -0.003 l -4.135,-1.289 z"
         id="path139" />
      <path
         d="m 104.994,76.971 v -4.307 l -1.049,3.008 1.047,1.298 z"
         id="path141" />
    </g>
    <path
       d="m 54.551,18.334 0.016,0.011 4.132,1.289 -1.047,-1.298 -0.002,0.004 z"
       class="O"
       id="path145" />
    <path
       d="m 62.863,18.334 -3.09,0.007 -1.07,1.291 4.155,-1.294 z"
       class="N"
       id="path147" />
    <path
       d="m 58.701,19.635 1.629,0.508 2.529,-1.805 -4.155,1.294 z"
       class="O"
       id="path149" />
    <path
       d="m 58.701,19.635 v 0.003 l 2.574,3.463 -0.946,-2.958 h 10e-4 z"
       class="N"
       id="path151" />
    <g
       class="O"
       id="g157"
       transform="translate(-46.293,-57.336)">
      <path
         d="m 104.999,78.707 2.571,1.735 -0.002,-0.006 -2.574,-3.463 v 1.737 z"
         id="path153" />
      <path
         d="m 103.335,77.512 -0.904,3.042 0.019,-0.013 2.536,-3.564 z"
         id="path155" />
    </g>
    <path
       d="m 56.157,23.205 2.544,-1.83 v -1.737 l -0.008,0.003 z"
       class="N"
       id="path159" />
  </g>
  <g
     stroke-width="0.318"
     class="P X"
     id="g169"
     transform="translate(-46.293,-57.336)">
    <path
       d="M 77.244,100.655 C 84.993,87.309 97.358,87.745 105,80.631 v 9.417 c -15.484,0.18 -24.912,8.173 -27.756,10.607 z"
       class="d"
       id="path161" />
    <path
       d="M 105,80.631 C 101.611,87.637 94.511,88.15 90.45,92.733"
       class="M a"
       id="path163" />
    <path
       d="M 132.756,100.655 C 125.007,87.309 112.642,87.745 105,80.631 v 9.417 c 15.484,0.18 24.912,8.173 27.756,10.607 z"
       class="d"
       id="path165" />
    <path
       d="m 105,80.631 c 3.389,7.006 10.489,7.519 14.55,12.102"
       class="M a"
       id="path167" />
  </g>
  <path
     d="m 58.707,24.841 -1.537,2.924 0.897,-0.496 v 7.287 C 57.058,34.48 56.298,34.104 56.288,32.821 l -0.07,-3.371 h 0.412 l -0.773,-1.338 -0.773,1.338 h 0.582 l -0.281,3.643 c 0.048,1.461 0.836,2.326 2.681,2.339 v 12.852 h 0.64 0.64 V 35.432 c 1.846,-0.013 2.634,-0.878 2.681,-2.339 l -0.28,-3.643 h 0.581 l -0.773,-1.338 -0.773,1.338 h 0.412 l -0.07,3.371 c -0.01,1.283 -0.771,1.659 -1.779,1.735 v -7.287 l 0.896,0.496 z"
     class="V Z"
     id="path171" />
  <g
     class="g"
     id="g179"
     transform="translate(-46.293,-57.336)">
    <path
       d="m 74.994,166.265 -3.053,3.416 c -7.606,-4.067 -9.875,-9.458 -13.972,-14.394 l 7.713,2.246 c 1.46,3.748 4.837,6.519 9.312,8.732 z"
       class="Y b"
       id="path173" />
    <path
       d="m 78.047,162.849 -3.053,3.416 c -3.977,-2.058 -7.59,-4.471 -9.312,-8.732 -0.078,-2.355 -0.317,-4.736 0.253,-6.991 3.04,5.101 6.17,10.112 12.111,12.306 z"
       fill="#ff0000"
       class="f"
       id="path175" />
    <path
       d="m 69.281,164.592 c -1.106,1.246 3.275,3.065 2.66,5.089 l 6.106,-6.833 -3.29,-4.789 z"
       fill="#a4a4a4"
       class="b h"
       id="path177" />
  </g>
  <g
     transform="matrix(-0.646285,0,0,0.601164,126.5722,-22.92449)"
     stroke-width="0.8"
     id="g187">
    <path
       d="m 58.58,219.334 -4.724,5.683 C 42.087,218.252 38.577,209.285 32.237,201.073 l 11.935,3.736 c 2.259,6.234 7.485,10.844 14.408,14.525 z"
       class="Y b"
       id="path181" />
    <path
       d="m 63.304,213.651 -4.724,5.683 c -6.153,-3.424 -11.744,-7.437 -14.408,-14.525 -0.121,-3.918 -0.491,-7.878 0.391,-11.629 4.704,8.485 9.547,16.821 18.74,20.471 z"
       fill="#ff0000"
       class="f"
       id="path183" />
    <path
       d="m 49.74,216.551 c -1.711,2.073 5.068,5.099 4.116,8.466 l 9.448,-11.366 -5.091,-7.967 z"
       fill="#a4a4a4"
       class="b h"
       id="path185" />
  </g>
  <g
     class="V g"
     id="g193"
     transform="translate(-46.293,-57.336)">
    <path
       d="m 140.719,164.599 -5.477,-6.538 -0.005,-0.005 c -7.721,8.232 -18.959,13.669 -30.743,13.534 -11.453,-0.132 -22.254,-5.51 -29.738,-13.53 l -0.005,0.002 -5.471,6.53 c 9.067,9.103 21.716,15.134 35.104,15.289 13.79,0.159 26.969,-5.929 36.334,-15.282 z"
       opacity="0.999"
       class="Y b"
       id="path189" />
    <path
       d="m 135.238,158.056 c -7.721,8.232 -19.159,13.717 -30.943,13.581 -11.453,-0.132 -22.054,-5.558 -29.537,-13.578 l -2.753,3.275 c 8.194,8.481 19.829,14.203 32.436,14.349 12.983,0.149 25.086,-5.637 33.545,-14.352 z"
       fill="#ff0000"
       opacity="0.999"
       class="f"
       id="path191" />
  </g>
  <path
     d="m 26.97,107.861 2.41,-2.923 0.883,0.728 -1.113,2.431 2.168,-1.561 0.885,0.73 -2.41,2.923 -0.548,-0.452 1.897,-2.301 -2.477,1.822 -0.568,-0.468 1.319,-2.777 -1.897,2.301 z m 3.653,2.935 2.166,-3.108 2.304,1.606 -0.366,0.526 -1.677,-1.169 -0.48,0.689 1.56,1.087 -0.365,0.524 -1.56,-1.087 -0.59,0.846 1.736,1.21 -0.365,0.524 z m 3.156,2.148 1.926,-3.226 0.657,0.392 -1.599,2.678 1.633,0.975 -0.327,0.548 z m 3.024,1.762 1.7,-3.35 0.682,0.346 -1.411,2.781 1.696,0.86 -0.289,0.569 z m 3.117,1.546 1.461,-3.495 2.591,1.083 -0.247,0.591 -1.886,-0.788 -0.324,0.775 1.755,0.733 -0.246,0.589 -1.755,-0.733 -0.398,0.951 1.953,0.816 -0.246,0.589 z m 4.33,1.692 0.99,-2.987 -1.067,-0.354 0.202,-0.608 2.857,0.947 -0.202,0.608 -1.064,-0.353 -0.99,2.987 z m 2.524,0.801 0.906,-3.678 2.727,0.672 -0.153,0.622 -1.984,-0.489 -0.201,0.815 1.846,0.455 -0.153,0.62 -1.846,-0.455 -0.247,1.001 2.055,0.506 -0.153,0.62 z m 5.839,-2.599 1.389,0.16 q 0.47,0.054 0.708,0.154 0.32,0.136 0.527,0.412 0.208,0.276 0.289,0.652 0.082,0.374 0.021,0.902 -0.053,0.465 -0.208,0.788 -0.188,0.394 -0.479,0.619 -0.22,0.17 -0.568,0.239 -0.261,0.051 -0.682,0.002 l -1.43,-0.164 z m 0.687,0.724 -0.286,2.492 0.567,0.065 q 0.318,0.037 0.464,0.017 0.19,-0.025 0.323,-0.121 0.136,-0.096 0.242,-0.339 0.106,-0.245 0.156,-0.682 0.05,-0.436 0,-0.679 -0.05,-0.242 -0.174,-0.389 -0.124,-0.147 -0.331,-0.218 -0.155,-0.054 -0.62,-0.108 z m 2.929,3.431 0.178,-3.784 0.764,0.036 -0.178,3.784 z m 5.175,0.024 -0.832,0.014 -0.345,-0.855 -1.514,0.025 -0.298,0.865 -0.811,0.013 1.412,-3.812 0.809,-0.013 z m -1.433,-1.475 -0.545,-1.397 -0.488,1.414 z m 2.561,1.337 -0.31,-3.132 -1.118,0.111 -0.063,-0.638 2.996,-0.296 0.063,0.638 -1.116,0.11 0.31,3.132 z m 2.04,-2.086 q -0.107,-0.569 -0.009,-0.987 0.073,-0.308 0.249,-0.575 0.178,-0.268 0.419,-0.426 0.32,-0.213 0.775,-0.298 0.823,-0.155 1.411,0.263 0.591,0.417 0.762,1.326 0.17,0.901 -0.225,1.504 -0.395,0.6 -1.215,0.754 -0.83,0.156 -1.415,-0.257 -0.586,-0.416 -0.753,-1.304 z m 0.77,-0.171 q 0.119,0.632 0.473,0.905 0.353,0.27 0.803,0.186 0.449,-0.084 0.676,-0.461 0.228,-0.379 0.107,-1.027 -0.12,-0.64 -0.461,-0.902 -0.339,-0.262 -0.803,-0.175 -0.465,0.087 -0.689,0.461 -0.225,0.371 -0.104,1.013 z m 4.033,1.113 -1.038,-3.643 0.716,-0.204 2.184,2.008 -0.693,-2.433 0.683,-0.195 1.038,3.643 -0.738,0.21 -2.146,-1.957 0.677,2.376 z m 5.062,-3.088 -0.228,-0.596 1.539,-0.59 0.54,1.409 q -0.141,0.303 -0.504,0.633 -0.362,0.327 -0.799,0.494 -0.555,0.213 -1.056,0.139 -0.502,-0.076 -0.875,-0.428 -0.374,-0.355 -0.569,-0.864 -0.212,-0.553 -0.145,-1.071 0.067,-0.518 0.426,-0.918 0.273,-0.306 0.779,-0.501 0.659,-0.252 1.134,-0.116 0.477,0.133 0.77,0.579 l -0.659,0.404 q -0.175,-0.232 -0.439,-0.302 -0.263,-0.073 -0.572,0.045 -0.468,0.179 -0.632,0.582 -0.161,0.402 0.062,0.986 0.241,0.63 0.642,0.839 0.4,0.206 0.854,0.033 0.224,-0.086 0.416,-0.259 0.193,-0.176 0.306,-0.364 l -0.172,-0.449 z m 6.002,-1.175 -0.749,0.363 -0.673,-0.63 -1.363,0.66 0.094,0.911 -0.73,0.354 -0.324,-4.052 0.728,-0.353 z m -1.921,-0.735 -1.082,-1.037 0.152,1.488 z m 2.515,0.399 -1.918,-3.266 0.642,-0.377 2.618,1.396 -1.281,-2.181 0.613,-0.36 1.918,3.266 -0.662,0.389 -2.568,-1.357 1.251,2.13 z m 6.299,-4.058 -0.682,0.476 -0.764,-0.516 -1.242,0.867 0.236,0.884 -0.665,0.464 -0.959,-3.95 0.663,-0.463 z m -2.012,-0.423 -1.233,-0.854 0.385,1.445 z m 2.547,-10e-4 -2.403,-2.928 0.575,-0.472 2.803,0.972 -1.605,-1.956 0.549,-0.451 2.403,2.928 -0.593,0.487 -2.747,-0.941 1.567,1.91 z"
     stroke="#696969"
     stroke-width="0.165"
     id="path195" />
  <g
     transform="matrix(0.98129,0,0,0.98129,-232.42595,-54.842754)"
     id="g447">
    <path
       d="m 309.873,155.809 a 0.353,0.353 0 0 0 -0.15,0.027 c -2.124,0.873 -6.245,0.929 -10.723,1.326 -4.478,0.397 -9.349,1.16 -13.121,3.627 a 0.353,0.353 0 0 0 -0.102,0.488 0.353,0.353 0 0 0 0.488,0.102 c 3.593,-2.35 8.355,-3.119 12.797,-3.514 4.442,-0.395 8.53,-0.391 10.928,-1.377 a 0.353,0.353 0 0 0 -0.117,-0.68 z"
       stroke-width="0.2"
       class="O P V X Z"
       id="path213" />
    <g
       transform="matrix(0.693393,0.001069,-0.001069,0.693393,222.87842,14.13054)"
       id="g227">
      <g
         class="K O P"
         id="g219">
        <path
           id="use215"
           d="m 125.408,204.538 c 1.184,-0.562 2.024,-2.188 2.41,-7.678 -4.659,3.828 -3.063,6.995 -2.41,7.678 z" />
        <path
           id="use217"
           d="m 125.408,204.538 c 3.214,-2.394 5.593,-0.011 8.386,0 -2.756,0.646 -5.346,4.021 -8.386,0 z" />
      </g>
      <g
         class="N"
         id="g225">
        <path
           id="use221"
           d="m 127.09,198.32 c 0.073,2.928 -0.315,3.47 -1.036,4.393 0.195,-1.492 0.432,-1.644 1.036,-4.393 z" />
        <path
           id="use223"
           d="m 126.672,204.551 c 1.377,0.247 3.249,0.325 5.128,0.184 -1.64,-0.37 -3.195,-1.115 -5.128,-0.184 z" />
      </g>
    </g>
    <g
       transform="matrix(0.694046,-0.475853,0.503461,0.655988,148.78427,85.264523)"
       id="g233">
      <path
         d="m 140.547,141.88 c -2.625,-3.028 -0.425,-5.577 -0.621,-8.363 0.848,2.701 4.406,5.033 0.621,8.363 z"
         class="K O P"
         id="path229" />
      <path
         d="m 140.467,140.619 c 0.866,-1.398 0.321,-3.267 -0.197,-5.128 -0.248,1.663 -0.875,3.269 0.197,5.128 z"
         class="N"
         id="path231" />
    </g>
    <g
       transform="matrix(0.691456,-0.05181,0.05181,0.691456,215.49237,19.31822)"
       id="g247">
      <g
         class="K O P"
         id="g239">
        <path
           id="use235"
           d="m 125.408,204.538 c 1.184,-0.562 2.024,-2.188 2.41,-7.678 -4.659,3.828 -3.063,6.995 -2.41,7.678 z" />
        <path
           id="use237"
           d="m 125.408,204.538 c 3.214,-2.394 5.593,-0.011 8.386,0 -2.756,0.646 -5.346,4.021 -8.386,0 z" />
      </g>
      <g
         class="N"
         id="g245">
        <path
           id="use241"
           d="m 127.09,198.32 c 0.073,2.928 -0.315,3.47 -1.036,4.393 0.195,-1.492 0.432,-1.644 1.036,-4.393 z" />
        <path
           id="use243"
           d="m 126.672,204.551 c 1.377,0.247 3.249,0.325 5.128,0.184 -1.64,-0.37 -3.195,-1.115 -5.128,-0.184 z" />
      </g>
    </g>
    <g
       transform="matrix(0.678081,-0.144916,0.144916,0.678081,200.92982,31.740039)"
       id="g261">
      <g
         class="K O P"
         id="g253">
        <path
           id="use249"
           d="m 125.408,204.538 c 1.184,-0.562 2.024,-2.188 2.41,-7.678 -4.659,3.828 -3.063,6.995 -2.41,7.678 z" />
        <path
           id="use251"
           d="m 125.408,204.538 c 3.214,-2.394 5.593,-0.011 8.386,0 -2.756,0.646 -5.346,4.021 -8.386,0 z" />
      </g>
      <g
         class="N"
         id="g259">
        <path
           id="use255"
           d="m 127.09,198.32 c 0.073,2.928 -0.315,3.47 -1.036,4.393 0.195,-1.492 0.432,-1.644 1.036,-4.393 z" />
        <path
           id="use257"
           d="m 126.672,204.551 c 1.377,0.247 3.249,0.325 5.128,0.184 -1.64,-0.37 -3.195,-1.115 -5.128,-0.184 z" />
      </g>
    </g>
    <g
       transform="matrix(0.659037,-0.215559,0.215559,0.659037,191.31481,42.324358)"
       id="g275">
      <g
         class="K O P"
         id="g267">
        <path
           id="use263"
           d="m 125.408,204.538 c 1.184,-0.562 2.024,-2.188 2.41,-7.678 -4.659,3.828 -3.063,6.995 -2.41,7.678 z" />
        <path
           id="use265"
           d="m 125.408,204.538 c 3.214,-2.394 5.593,-0.011 8.386,0 -2.756,0.646 -5.346,4.021 -8.386,0 z" />
      </g>
      <g
         class="N"
         id="g273">
        <path
           id="use269"
           d="m 127.09,198.32 c 0.073,2.928 -0.315,3.47 -1.036,4.393 0.195,-1.492 0.432,-1.644 1.036,-4.393 z" />
        <path
           id="use271"
           d="m 126.672,204.551 c 1.377,0.247 3.249,0.325 5.128,0.184 -1.64,-0.37 -3.195,-1.115 -5.128,-0.184 z" />
      </g>
    </g>
    <g
       transform="matrix(0.647928,-0.246951,0.246951,0.647928,188.14478,45.907564)"
       id="g289">
      <g
         class="K O P"
         id="g281">
        <path
           id="use277"
           d="m 125.408,204.538 c 1.184,-0.562 2.024,-2.188 2.41,-7.678 -4.659,3.828 -3.063,6.995 -2.41,7.678 z" />
        <path
           id="use279"
           d="m 125.408,204.538 c 3.214,-2.394 5.593,-0.011 8.386,0 -2.756,0.646 -5.346,4.021 -8.386,0 z" />
      </g>
      <g
         class="N"
         id="g287">
        <path
           id="use283"
           d="m 127.09,198.32 c 0.073,2.928 -0.315,3.47 -1.036,4.393 0.195,-1.492 0.432,-1.644 1.036,-4.393 z" />
        <path
           id="use285"
           d="m 126.672,204.551 c 1.377,0.247 3.249,0.325 5.128,0.184 -1.64,-0.37 -3.195,-1.115 -5.128,-0.184 z" />
      </g>
    </g>
    <g
       transform="matrix(0.609032,-0.331474,0.331474,0.609032,177.58075,61.839328)"
       id="g303">
      <g
         class="K O P"
         id="g295">
        <path
           id="use291"
           d="m 125.408,204.538 c 1.184,-0.562 2.024,-2.188 2.41,-7.678 -4.659,3.828 -3.063,6.995 -2.41,7.678 z" />
        <path
           id="use293"
           d="m 125.408,204.538 c 3.214,-2.394 5.593,-0.011 8.386,0 -2.756,0.646 -5.346,4.021 -8.386,0 z" />
      </g>
      <g
         class="N"
         id="g301">
        <path
           id="use297"
           d="m 127.09,198.32 c 0.073,2.928 -0.315,3.47 -1.036,4.393 0.195,-1.492 0.432,-1.644 1.036,-4.393 z" />
        <path
           id="use299"
           d="m 126.672,204.551 c 1.377,0.247 3.249,0.325 5.128,0.184 -1.64,-0.37 -3.195,-1.115 -5.128,-0.184 z" />
      </g>
    </g>
    <g
       transform="matrix(0.580095,-0.379849,0.379849,0.580095,172.77212,71.030662)"
       id="g317">
      <g
         class="K O P"
         id="g309">
        <path
           id="use305"
           d="m 125.408,204.538 c 1.184,-0.562 2.024,-2.188 2.41,-7.678 -4.659,3.828 -3.063,6.995 -2.41,7.678 z" />
        <path
           id="use307"
           d="m 125.408,204.538 c 3.214,-2.394 5.593,-0.011 8.386,0 -2.756,0.646 -5.346,4.021 -8.386,0 z" />
      </g>
      <g
         class="N"
         id="g315">
        <path
           id="use311"
           d="m 127.09,198.32 c 0.073,2.928 -0.315,3.47 -1.036,4.393 0.195,-1.492 0.432,-1.644 1.036,-4.393 z" />
        <path
           id="use313"
           d="m 126.672,204.551 c 1.377,0.247 3.249,0.325 5.128,0.184 -1.64,-0.37 -3.195,-1.115 -5.128,-0.184 z" />
      </g>
    </g>
    <g
       transform="matrix(0.511994,-0.467608,0.467608,0.511994,164.46532,92.941953)"
       id="g331">
      <g
         class="K O P"
         id="g323">
        <path
           id="use319"
           d="m 125.408,204.538 c 1.184,-0.562 2.024,-2.188 2.41,-7.678 -4.659,3.828 -3.063,6.995 -2.41,7.678 z" />
        <path
           id="use321"
           d="m 125.408,204.538 c 3.214,-2.394 5.593,-0.011 8.386,0 -2.756,0.646 -5.346,4.021 -8.386,0 z" />
      </g>
      <g
         class="N"
         id="g329">
        <path
           id="use325"
           d="m 127.09,198.32 c 0.073,2.928 -0.315,3.47 -1.036,4.393 0.195,-1.492 0.432,-1.644 1.036,-4.393 z" />
        <path
           id="use327"
           d="m 126.672,204.551 c 1.377,0.247 3.249,0.325 5.128,0.184 -1.64,-0.37 -3.195,-1.115 -5.128,-0.184 z" />
      </g>
    </g>
    <g
       transform="matrix(0.483359,-0.497151,0.497151,0.483359,162.76238,99.329166)"
       id="g345">
      <g
         class="K O P"
         id="g337">
        <path
           id="use333"
           d="m 125.408,204.538 c 1.184,-0.562 2.024,-2.188 2.41,-7.678 -4.659,3.828 -3.063,6.995 -2.41,7.678 z" />
        <path
           id="use335"
           d="m 125.408,204.538 c 3.214,-2.394 5.593,-0.011 8.386,0 -2.756,0.646 -5.346,4.021 -8.386,0 z" />
      </g>
      <g
         class="N"
         id="g343">
        <path
           id="use339"
           d="m 127.09,198.32 c 0.073,2.928 -0.315,3.47 -1.036,4.393 0.195,-1.492 0.432,-1.644 1.036,-4.393 z" />
        <path
           id="use341"
           d="m 126.672,204.551 c 1.377,0.247 3.249,0.325 5.128,0.184 -1.64,-0.37 -3.195,-1.115 -5.128,-0.184 z" />
      </g>
    </g>
    <g
       transform="matrix(0.440784,-0.535261,0.535261,0.440784,160.61973,109.70965)"
       id="g359">
      <g
         class="K O P"
         id="g351">
        <path
           id="use347"
           d="m 125.408,204.538 c 1.184,-0.562 2.024,-2.188 2.41,-7.678 -4.659,3.828 -3.063,6.995 -2.41,7.678 z" />
        <path
           id="use349"
           d="m 125.408,204.538 c 3.214,-2.394 5.593,-0.011 8.386,0 -2.756,0.646 -5.346,4.021 -8.386,0 z" />
      </g>
      <g
         class="N"
         id="g357">
        <path
           id="use353"
           d="m 127.09,198.32 c 0.073,2.928 -0.315,3.47 -1.036,4.393 0.195,-1.492 0.432,-1.644 1.036,-4.393 z" />
        <path
           id="use355"
           d="m 126.672,204.551 c 1.377,0.247 3.249,0.325 5.128,0.184 -1.64,-0.37 -3.195,-1.115 -5.128,-0.184 z" />
      </g>
    </g>
    <g
       transform="matrix(0.354937,-0.595663,0.595663,0.354937,159.22111,131.53479)"
       id="g373">
      <g
         class="K O P"
         id="g365">
        <path
           id="use361"
           d="m 125.408,204.538 c 1.184,-0.562 2.024,-2.188 2.41,-7.678 -4.659,3.828 -3.063,6.995 -2.41,7.678 z" />
        <path
           id="use363"
           d="m 125.408,204.538 c 3.214,-2.394 5.593,-0.011 8.386,0 -2.756,0.646 -5.346,4.021 -8.386,0 z" />
      </g>
      <g
         class="N"
         id="g371">
        <path
           id="use367"
           d="m 127.09,198.32 c 0.073,2.928 -0.315,3.47 -1.036,4.393 0.195,-1.492 0.432,-1.644 1.036,-4.393 z" />
        <path
           id="use369"
           d="m 126.672,204.551 c 1.377,0.247 3.249,0.325 5.128,0.184 -1.64,-0.37 -3.195,-1.115 -5.128,-0.184 z" />
      </g>
    </g>
    <g
       transform="matrix(0.284673,-0.632263,0.632263,0.284673,160.22886,147.28172)"
       id="g387">
      <g
         class="K O P"
         id="g379">
        <path
           id="use375"
           d="m 125.408,204.538 c 1.184,-0.562 2.024,-2.188 2.41,-7.678 -4.659,3.828 -3.063,6.995 -2.41,7.678 z" />
        <path
           id="use377"
           d="m 125.408,204.538 c 3.214,-2.394 5.593,-0.011 8.386,0 -2.756,0.646 -5.346,4.021 -8.386,0 z" />
      </g>
      <g
         class="N"
         id="g385">
        <path
           id="use381"
           d="m 127.09,198.32 c 0.073,2.928 -0.315,3.47 -1.036,4.393 0.195,-1.492 0.432,-1.644 1.036,-4.393 z" />
        <path
           id="use383"
           d="m 126.672,204.551 c 1.377,0.247 3.249,0.325 5.128,0.184 -1.64,-0.37 -3.195,-1.115 -5.128,-0.184 z" />
      </g>
    </g>
    <g
       transform="matrix(0.178494,-0.670026,0.670026,0.178494,165.14003,170.25818)"
       id="g401">
      <g
         class="K O P"
         id="g393">
        <path
           id="use389"
           d="m 125.408,204.538 c 1.184,-0.562 2.024,-2.188 2.41,-7.678 -4.659,3.828 -3.063,6.995 -2.41,7.678 z" />
        <path
           id="use391"
           d="m 125.408,204.538 c 3.214,-2.394 5.593,-0.011 8.386,0 -2.756,0.646 -5.346,4.021 -8.386,0 z" />
      </g>
      <g
         class="N"
         id="g399">
        <path
           id="use395"
           d="m 127.09,198.32 c 0.073,2.928 -0.315,3.47 -1.036,4.393 0.195,-1.492 0.432,-1.644 1.036,-4.393 z" />
        <path
           id="use397"
           d="m 126.672,204.551 c 1.377,0.247 3.249,0.325 5.128,0.184 -1.64,-0.37 -3.195,-1.115 -5.128,-0.184 z" />
      </g>
    </g>
    <g
       transform="matrix(0.157474,-0.675276,0.675276,0.157474,165.34813,172.29619)"
       id="g415">
      <g
         class="K O P"
         id="g407">
        <path
           id="use403"
           d="m 125.408,204.538 c 1.184,-0.562 2.024,-2.188 2.41,-7.678 -4.659,3.828 -3.063,6.995 -2.41,7.678 z" />
        <path
           id="use405"
           d="m 125.408,204.538 c 3.214,-2.394 5.593,-0.011 8.386,0 -2.756,0.646 -5.346,4.021 -8.386,0 z" />
      </g>
      <g
         class="N"
         id="g413">
        <path
           id="use409"
           d="m 127.09,198.32 c 0.073,2.928 -0.315,3.47 -1.036,4.393 0.195,-1.492 0.432,-1.644 1.036,-4.393 z" />
        <path
           id="use411"
           d="m 126.672,204.551 c 1.377,0.247 3.249,0.325 5.128,0.184 -1.64,-0.37 -3.195,-1.115 -5.128,-0.184 z" />
      </g>
    </g>
    <g
       transform="matrix(0.034978,-0.692511,0.692511,0.034978,175.60281,196.1524)"
       id="g429">
      <g
         class="K O P"
         id="g421">
        <path
           id="use417"
           d="m 125.408,204.538 c 1.184,-0.562 2.024,-2.188 2.41,-7.678 -4.659,3.828 -3.063,6.995 -2.41,7.678 z" />
        <path
           id="use419"
           d="m 125.408,204.538 c 3.214,-2.394 5.593,-0.011 8.386,0 -2.756,0.646 -5.346,4.021 -8.386,0 z" />
      </g>
      <g
         class="N"
         id="g427">
        <path
           id="use423"
           d="m 127.09,198.32 c 0.073,2.928 -0.315,3.47 -1.036,4.393 0.195,-1.492 0.432,-1.644 1.036,-4.393 z" />
        <path
           id="use425"
           d="m 126.672,204.551 c 1.377,0.247 3.249,0.325 5.128,0.184 -1.64,-0.37 -3.195,-1.115 -5.128,-0.184 z" />
      </g>
    </g>
    <g
       transform="matrix(0.008765,-0.693338,0.693338,0.008765,176.5409,198.77374)"
       id="g443">
      <g
         class="K O P"
         id="g435">
        <path
           id="use431"
           d="m 125.408,204.538 c 1.184,-0.562 2.024,-2.188 2.41,-7.678 -4.659,3.828 -3.063,6.995 -2.41,7.678 z" />
        <path
           id="use433"
           d="m 125.408,204.538 c 3.214,-2.394 5.593,-0.011 8.386,0 -2.756,0.646 -5.346,4.021 -8.386,0 z" />
      </g>
      <g
         class="N"
         id="g441">
        <path
           id="use437"
           d="m 127.09,198.32 c 0.073,2.928 -0.315,3.47 -1.036,4.393 0.195,-1.492 0.432,-1.644 1.036,-4.393 z" />
        <path
           id="use439"
           d="m 126.672,204.551 c 1.377,0.247 3.249,0.325 5.128,0.184 -1.64,-0.37 -3.195,-1.115 -5.128,-0.184 z" />
      </g>
    </g>
    <path
       d="m 317.35,110.721 c 4.981,5.163 8.044,12.187 8.044,19.928 0,11.107 -6.309,20.741 -15.538,25.513"
       stroke-width="0.306"
       class="M P X Z a"
       id="path445" />
  </g>
  <g
     id="g3076">
    <g
       class="L M"
       id="g497"
       transform="translate(-46.293,-57.336)">
      <path
         d="m 88.087,154.915 2.829,0.191 m -0.07,-1.288 0.909,1.753 m -15.288,-16.701 2.112,1.657 m 1.57,-0.922 -1.038,2.246 m 1.28,6.002 2.977,0.906 m 0.838,-1.257 0.489,2.735 m -9.437,-19.602 1.63,2.083 m 0.172,1.703 1.071,-1.082 0.496,-1.044"
         class="K"
         id="path493" />
      <path
         d="m 86.347,109.646 c -0.619,0.426 -1.156,0.933 -1.636,1.497 -4.888,5.066 -7.894,11.959 -7.894,19.555 0,10.899 6.191,20.353 15.247,25.036 l 3.935,0.741"
         stroke-width="0.3"
         class="X Z a"
         id="path495" />
    </g>
    <path
       d="m 48.461,98.051 c 0.051,-0.002 0.101,0.007 0.148,0.027 2.085,0.857 6.128,0.911 10.522,1.301 4.394,0.39 9.174,1.138 12.876,3.559 0.16,0.105 0.204,0.319 0.1,0.479 -0.104,0.16 -0.319,0.204 -0.479,0.1 -3.526,-2.306 -8.198,-3.061 -12.557,-3.448 -4.359,-0.387 -8.37,-0.384 -10.723,-1.351 -0.085,-0.035 -0.153,-0.102 -0.189,-0.187 -0.036,-0.085 -0.036,-0.18 -10e-4,-0.266 0.051,-0.125 0.17,-0.209 0.305,-0.215 z"
       stroke-width="0.196"
       class="L Q R V X Z"
       id="path499" />
    <path
       id="use501"
       d="m 43.944,95.593 1.03,-0.074 c 0.059,0.61 0.4,1.08 -0.012,1.926 -0.691,-0.283 -0.981,-0.948 -1.018,-1.852 z"
       style="fill:#186342" />
    <g
       class="L T U"
       id="g517"
       transform="translate(-46.293,-57.336)">
      <path
         id="use503"
         d="m 89.256,151.631 c -0.708,0.169 -0.099,1.439 0.686,0.758 l 0.694,-0.678 z" />
      <path
         id="use505"
         d="m 89.256,151.631 c -0.431,-0.265 -0.218,-1.431 0.502,-1.045 l 0.877,1.125 z" />
      <path
         id="use507"
         d="m 89.759,150.586 0.877,1.125 0.008,-1.372 c 0.044,-0.636 -1.172,-0.353 -0.885,0.247 z" />
      <path
         id="use509"
         d="m 90.644,150.338 -0.008,1.372 0.822,-0.646 c 0.473,-0.694 -0.471,-1.332 -0.814,-0.726 z" />
      <path
         id="use511"
         d="m 91.457,151.064 -0.822,0.646 0.973,0.702 c 0.66,-0.161 0.371,-1.61 -0.152,-1.348 z" />
      <path
         id="use513"
         d="m 90.636,151.71 0.024,1.388 c 0.234,0.641 1.513,-0.097 0.949,-0.686 z" />
      <path
         id="use515"
         d="m 89.942,152.388 0.694,-0.678 0.024,1.388 c -0.188,0.467 -1.505,-0.042 -0.718,-0.71 z" />
    </g>
    <g
       transform="matrix(0.232056,1.035852,0.879872,-0.273193,-90.11222,154.85915)"
       id="g537">
      <path
         id="use519"
         d="m -15.444,152.929 1.03,-0.074 c 0.059,0.61 0.4,1.08 -0.012,1.926 -0.691,-0.283 -0.981,-0.948 -1.018,-1.852 z"
         style="fill:#186342" />
      <g
         class="L T U"
         id="g535">
        <path
           id="use521"
           d="m -16.425,151.631 c -0.708,0.169 -0.099,1.439 0.686,0.758 l 0.694,-0.678 z" />
        <path
           id="use523"
           d="m -16.425,151.631 c -0.431,-0.265 -0.218,-1.431 0.502,-1.045 l 0.877,1.125 z" />
        <path
           id="use525"
           d="m -15.922,150.586 0.877,1.125 0.008,-1.372 c 0.044,-0.636 -1.172,-0.353 -0.885,0.247 z" />
        <path
           id="use527"
           d="m -15.037,150.338 -0.008,1.372 0.822,-0.646 c 0.473,-0.694 -0.471,-1.332 -0.814,-0.726 z" />
        <path
           id="use529"
           d="m -14.224,151.064 -0.822,0.646 0.973,0.702 c 0.66,-0.161 0.371,-1.61 -0.152,-1.348 z" />
        <path
           id="use531"
           d="m -15.045,151.71 0.024,1.388 c 0.234,0.641 1.513,-0.097 0.949,-0.686 z" />
        <path
           id="use533"
           d="m -15.739,152.388 0.694,-0.678 0.024,1.388 c -0.188,0.467 -1.505,-0.042 -0.718,-0.71 z" />
      </g>
    </g>
    <g
       transform="matrix(-0.012696,1.060616,0.969635,-0.063775,-115.232,116.03654)"
       id="g557">
      <path
         id="use539"
         d="m -15.444,152.929 1.03,-0.074 c 0.059,0.61 0.4,1.08 -0.012,1.926 -0.691,-0.283 -0.981,-0.948 -1.018,-1.852 z"
         style="fill:#186342" />
      <g
         class="L T U"
         id="g555">
        <path
           id="use541"
           d="m -16.425,151.631 c -0.708,0.169 -0.099,1.439 0.686,0.758 l 0.694,-0.678 z" />
        <path
           id="use543"
           d="m -16.425,151.631 c -0.431,-0.265 -0.218,-1.431 0.502,-1.045 l 0.877,1.125 z" />
        <path
           id="use545"
           d="m -15.922,150.586 0.877,1.125 0.008,-1.372 c 0.044,-0.636 -1.172,-0.353 -0.885,0.247 z" />
        <path
           id="use547"
           d="m -15.037,150.338 -0.008,1.372 0.822,-0.646 c 0.473,-0.694 -0.471,-1.332 -0.814,-0.726 z" />
        <path
           id="use549"
           d="m -14.224,151.064 -0.822,0.646 0.973,0.702 c 0.66,-0.161 0.371,-1.61 -0.152,-1.348 z" />
        <path
           id="use551"
           d="m -15.045,151.71 0.024,1.388 c 0.234,0.641 1.513,-0.097 0.949,-0.686 z" />
        <path
           id="use553"
           d="m -15.739,152.388 0.694,-0.678 0.024,1.388 c -0.188,0.467 -1.505,-0.042 -0.718,-0.71 z" />
      </g>
    </g>
    <g
       transform="matrix(-0.384262,0.98864,0.9303,0.280716,-118.46407,53.09194)"
       id="g577">
      <path
         id="use559"
         d="m -15.444,152.929 1.03,-0.074 c 0.059,0.61 0.4,1.08 -0.012,1.926 -0.691,-0.283 -0.981,-0.948 -1.018,-1.852 z"
         style="fill:#186342" />
      <g
         class="L T U"
         id="g575">
        <path
           id="use561"
           d="m -16.425,151.631 c -0.708,0.169 -0.099,1.439 0.686,0.758 l 0.694,-0.678 z" />
        <path
           id="use563"
           d="m -16.425,151.631 c -0.431,-0.265 -0.218,-1.431 0.502,-1.045 l 0.877,1.125 z" />
        <path
           id="use565"
           d="m -15.922,150.586 0.877,1.125 0.008,-1.372 c 0.044,-0.636 -1.172,-0.353 -0.885,0.247 z" />
        <path
           id="use567"
           d="m -15.037,150.338 -0.008,1.372 0.822,-0.646 c 0.473,-0.694 -0.471,-1.332 -0.814,-0.726 z" />
        <path
           id="use569"
           d="m -14.224,151.064 -0.822,0.646 0.973,0.702 c 0.66,-0.161 0.371,-1.61 -0.152,-1.348 z" />
        <path
           id="use571"
           d="m -15.045,151.71 0.024,1.388 c 0.234,0.641 1.513,-0.097 0.949,-0.686 z" />
        <path
           id="use573"
           d="m -15.739,152.388 0.694,-0.678 0.024,1.388 c -0.188,0.467 -1.505,-0.042 -0.718,-0.71 z" />
      </g>
    </g>
    <g
       transform="matrix(-0.646139,0.830869,0.766491,0.562499,-98.28904,-0.835091)"
       id="g597">
      <path
         id="use579"
         d="m -15.444,152.929 1.03,-0.074 c 0.059,0.61 0.4,1.08 -0.012,1.926 -0.691,-0.283 -0.981,-0.948 -1.018,-1.852 z"
         style="fill:#186342" />
      <g
         class="L T U"
         id="g595">
        <path
           id="use581"
           d="m -16.425,151.631 c -0.708,0.169 -0.099,1.439 0.686,0.758 l 0.694,-0.678 z" />
        <path
           id="use583"
           d="m -16.425,151.631 c -0.431,-0.265 -0.218,-1.431 0.502,-1.045 l 0.877,1.125 z" />
        <path
           id="use585"
           d="m -15.922,150.586 0.877,1.125 0.008,-1.372 c 0.044,-0.636 -1.172,-0.353 -0.885,0.247 z" />
        <path
           id="use587"
           d="m -15.037,150.338 -0.008,1.372 0.822,-0.646 c 0.473,-0.694 -0.471,-1.332 -0.814,-0.726 z" />
        <path
           id="use589"
           d="m -14.224,151.064 -0.822,0.646 0.973,0.702 c 0.66,-0.161 0.371,-1.61 -0.152,-1.348 z" />
        <path
           id="use591"
           d="m -15.045,151.71 0.024,1.388 c 0.234,0.641 1.513,-0.097 0.949,-0.686 z" />
        <path
           id="use593"
           d="m -15.739,152.388 0.694,-0.678 0.024,1.388 c -0.188,0.467 -1.505,-0.042 -0.718,-0.71 z" />
      </g>
    </g>
    <path
       d="m 36.153,59.802 -2.729,1.094"
       class="K L M"
       id="path599" />
    <g
       transform="matrix(-0.781322,0.705248,0.656467,0.687724,-81.73169,-29.600673)"
       id="g619">
      <path
         id="use601"
         d="m -15.444,152.929 1.03,-0.074 c 0.059,0.61 0.4,1.08 -0.012,1.926 -0.691,-0.283 -0.981,-0.948 -1.018,-1.852 z"
         style="fill:#186342" />
      <g
         class="L T U"
         id="g617">
        <path
           id="use603"
           d="m -16.425,151.631 c -0.708,0.169 -0.099,1.439 0.686,0.758 l 0.694,-0.678 z" />
        <path
           id="use605"
           d="m -16.425,151.631 c -0.431,-0.265 -0.218,-1.431 0.502,-1.045 l 0.877,1.125 z" />
        <path
           id="use607"
           d="m -15.922,150.586 0.877,1.125 0.008,-1.372 c 0.044,-0.636 -1.172,-0.353 -0.885,0.247 z" />
        <path
           id="use609"
           d="m -15.037,150.338 -0.008,1.372 0.822,-0.646 c 0.473,-0.694 -0.471,-1.332 -0.814,-0.726 z" />
        <path
           id="use611"
           d="m -14.224,151.064 -0.822,0.646 0.973,0.702 c 0.66,-0.161 0.371,-1.61 -0.152,-1.348 z" />
        <path
           id="use613"
           d="m -15.045,151.71 0.024,1.388 c 0.234,0.641 1.513,-0.097 0.949,-0.686 z" />
        <path
           id="use615"
           d="m -15.739,152.388 0.694,-0.678 0.024,1.388 c -0.188,0.467 -1.505,-0.042 -0.718,-0.71 z" />
      </g>
    </g>
    <g
       transform="matrix(-0.92363,0.504725,0.478991,0.821268,-53.128,-60.864494)"
       id="g639">
      <path
         id="use621"
         d="m -15.444,152.929 1.03,-0.074 c 0.059,0.61 0.4,1.08 -0.012,1.926 -0.691,-0.283 -0.981,-0.948 -1.018,-1.852 z"
         style="fill:#186342" />
      <g
         class="L T U"
         id="g637">
        <path
           id="use623"
           d="m -16.425,151.631 c -0.708,0.169 -0.099,1.439 0.686,0.758 l 0.694,-0.678 z" />
        <path
           id="use625"
           d="m -16.425,151.631 c -0.431,-0.265 -0.218,-1.431 0.502,-1.045 l 0.877,1.125 z" />
        <path
           id="use627"
           d="m -15.922,150.586 0.877,1.125 0.008,-1.372 c 0.044,-0.636 -1.172,-0.353 -0.885,0.247 z" />
        <path
           id="use629"
           d="m -15.037,150.338 -0.008,1.372 0.822,-0.646 c 0.473,-0.694 -0.471,-1.332 -0.814,-0.726 z" />
        <path
           id="use631"
           d="m -14.224,151.064 -0.822,0.646 0.973,0.702 c 0.66,-0.161 0.371,-1.61 -0.152,-1.348 z" />
        <path
           id="use633"
           d="m -15.045,151.71 0.024,1.388 c 0.234,0.641 1.513,-0.097 0.949,-0.686 z" />
        <path
           id="use635"
           d="m -15.739,152.388 0.694,-0.678 0.024,1.388 c -0.188,0.467 -1.505,-0.042 -0.718,-0.71 z" />
      </g>
    </g>
    <g
       transform="rotate(10.454985,359.46659,409.91685)"
       id="g659">
      <path
         id="use641"
         d="m -15.444,152.929 1.03,-0.074 c 0.059,0.61 0.4,1.08 -0.012,1.926 -0.691,-0.283 -0.981,-0.948 -1.018,-1.852 z"
         style="fill:#186342" />
      <g
         class="L T U"
         id="g657">
        <path
           id="use643"
           d="m -16.425,151.631 c -0.708,0.169 -0.099,1.439 0.686,0.758 l 0.694,-0.678 z" />
        <path
           id="use645"
           d="m -16.425,151.631 c -0.431,-0.265 -0.218,-1.431 0.502,-1.045 l 0.877,1.125 z" />
        <path
           id="use647"
           d="m -15.922,150.586 0.877,1.125 0.008,-1.372 c 0.044,-0.636 -1.172,-0.353 -0.885,0.247 z" />
        <path
           id="use649"
           d="m -15.037,150.338 -0.008,1.372 0.822,-0.646 c 0.473,-0.694 -0.471,-1.332 -0.814,-0.726 z" />
        <path
           id="use651"
           d="m -14.224,151.064 -0.822,0.646 0.973,0.702 c 0.66,-0.161 0.371,-1.61 -0.152,-1.348 z" />
        <path
           id="use653"
           d="m -15.045,151.71 0.024,1.388 c 0.234,0.641 1.513,-0.097 0.949,-0.686 z" />
        <path
           id="use655"
           d="m -15.739,152.388 0.694,-0.678 0.024,1.388 c -0.188,0.467 -1.505,-0.042 -0.718,-0.71 z" />
      </g>
    </g>
    <g
       transform="rotate(44.539996,95.896188,177.35959)"
       id="g679">
      <path
         id="use661"
         d="m -15.444,152.929 1.03,-0.074 c 0.059,0.61 0.4,1.08 -0.012,1.926 -0.691,-0.283 -0.981,-0.948 -1.018,-1.852 z"
         style="fill:#186342" />
      <g
         class="L T U"
         id="g677">
        <path
           id="use663"
           d="m -16.425,151.631 c -0.708,0.169 -0.099,1.439 0.686,0.758 l 0.694,-0.678 z" />
        <path
           id="use665"
           d="m -16.425,151.631 c -0.431,-0.265 -0.218,-1.431 0.502,-1.045 l 0.877,1.125 z" />
        <path
           id="use667"
           d="m -15.922,150.586 0.877,1.125 0.008,-1.372 c 0.044,-0.636 -1.172,-0.353 -0.885,0.247 z" />
        <path
           id="use669"
           d="m -15.037,150.338 -0.008,1.372 0.822,-0.646 c 0.473,-0.694 -0.471,-1.332 -0.814,-0.726 z" />
        <path
           id="use671"
           d="m -14.224,151.064 -0.822,0.646 0.973,0.702 c 0.66,-0.161 0.371,-1.61 -0.152,-1.348 z" />
        <path
           id="use673"
           d="m -15.045,151.71 0.024,1.388 c 0.234,0.641 1.513,-0.097 0.949,-0.686 z" />
        <path
           id="use675"
           d="m -15.739,152.388 0.694,-0.678 0.024,1.388 c -0.188,0.467 -1.505,-0.042 -0.718,-0.71 z" />
      </g>
    </g>
    <g
       transform="rotate(44.539996,104.06119,171.84759)"
       id="g699">
      <path
         id="use681"
         d="m -15.660003,152.338 1.03,-0.074 c 0.059,0.61 0.4,1.08 -0.012,1.926 -0.691,-0.283 -0.981,-0.948 -1.018,-1.852 z"
         style="fill:#186342" />
      <g
         class="L T U"
         id="g697">
        <path
           id="use683"
           d="m -16.425,151.631 c -0.708,0.169 -0.099,1.439 0.686,0.758 l 0.694,-0.678 z" />
        <path
           id="use685"
           d="m -16.425,151.631 c -0.431,-0.265 -0.218,-1.431 0.502,-1.045 l 0.877,1.125 z" />
        <path
           id="use687"
           d="m -15.922,150.586 0.877,1.125 0.008,-1.372 c 0.044,-0.636 -1.172,-0.353 -0.885,0.247 z" />
        <path
           id="use689"
           d="m -15.037,150.338 -0.008,1.372 0.822,-0.646 c 0.473,-0.694 -0.471,-1.332 -0.814,-0.726 z" />
        <path
           id="use691"
           d="m -14.224,151.064 -0.822,0.646 0.973,0.702 c 0.66,-0.161 0.371,-1.61 -0.152,-1.348 z" />
        <path
           id="use693"
           d="m -15.045,151.71 0.024,1.388 c 0.234,0.641 1.513,-0.097 0.949,-0.686 z" />
        <path
           id="use695"
           d="m -15.739,152.388 0.694,-0.678 0.024,1.388 c -0.188,0.467 -1.505,-0.042 -0.718,-0.71 z" />
      </g>
    </g>
    <path
       d="m 32.774,67.945 c -0.687,0.584 -1.642,1.731 -2.081,2.314"
       class="K L M"
       id="path701" />
    <g
       transform="matrix(0.469163,0.883111,-0.883111,0.469163,175.12104,9.097998)"
       id="g721">
      <path
         id="use703"
         d="m -15.660003,152.338 1.03,-0.074 c 0.059,0.61 0.4,1.08 -0.012,1.926 -0.691,-0.283 -0.981,-0.948 -1.018,-1.852 z"
         style="fill:#186342" />
      <g
         class="L T U"
         id="g719">
        <path
           id="use705"
           d="m -16.425,151.631 c -0.708,0.169 -0.099,1.439 0.686,0.758 l 0.694,-0.678 z" />
        <path
           id="use707"
           d="m -16.425,151.631 c -0.431,-0.265 -0.218,-1.431 0.502,-1.045 l 0.877,1.125 z" />
        <path
           id="use709"
           d="m -15.922,150.586 0.877,1.125 0.008,-1.372 c 0.044,-0.636 -1.172,-0.353 -0.885,0.247 z" />
        <path
           id="use711"
           d="m -15.037,150.338 -0.008,1.372 0.822,-0.646 c 0.473,-0.694 -0.471,-1.332 -0.814,-0.726 z" />
        <path
           id="use713"
           d="m -14.224,151.064 -0.822,0.646 0.973,0.702 c 0.66,-0.161 0.371,-1.61 -0.152,-1.348 z" />
        <path
           id="use715"
           d="m -15.045,151.71 0.024,1.388 c 0.234,0.641 1.513,-0.097 0.949,-0.686 z" />
        <path
           id="use717"
           d="m -15.739,152.388 0.694,-0.678 0.024,1.388 c -0.188,0.467 -1.505,-0.042 -0.718,-0.71 z" />
      </g>
    </g>
    <g
       transform="rotate(85.640972,60.905443,134.06167)"
       id="g741">
      <path
         id="use723"
         d="m -15.660003,152.338 1.03,-0.074 c 0.059,0.61 0.4,1.08 -0.012,1.926 -0.691,-0.283 -0.981,-0.948 -1.018,-1.852 z"
         style="fill:#186342" />
      <g
         class="L T U"
         id="g739">
        <path
           id="use725"
           d="m -16.425,151.631 c -0.708,0.169 -0.099,1.439 0.686,0.758 l 0.694,-0.678 z" />
        <path
           id="use727"
           d="m -16.425,151.631 c -0.431,-0.265 -0.218,-1.431 0.502,-1.045 l 0.877,1.125 z" />
        <path
           id="use729"
           d="m -15.922,150.586 0.877,1.125 0.008,-1.372 c 0.044,-0.636 -1.172,-0.353 -0.885,0.247 z" />
        <path
           id="use731"
           d="m -15.037,150.338 -0.008,1.372 0.822,-0.646 c 0.473,-0.694 -0.471,-1.332 -0.814,-0.726 z" />
        <path
           id="use733"
           d="m -14.224,151.064 -0.822,0.646 0.973,0.702 c 0.66,-0.161 0.371,-1.61 -0.152,-1.348 z" />
        <path
           id="use735"
           d="m -15.045,151.71 0.024,1.388 c 0.234,0.641 1.513,-0.097 0.949,-0.686 z" />
        <path
           id="use737"
           d="m -15.739,152.388 0.694,-0.678 0.024,1.388 c -0.188,0.467 -1.505,-0.042 -0.718,-0.71 z" />
      </g>
    </g>
    <g
       transform="rotate(64.115985,94.044124,146.91749)"
       id="g761">
      <path
         id="use743"
         d="m -15.660003,152.338 1.03,-0.074 c 0.059,0.61 0.4,1.08 -0.012,1.926 -0.691,-0.283 -0.981,-0.948 -1.018,-1.852 z"
         style="fill:#186342" />
      <g
         class="L T U"
         id="g759">
        <path
           id="use745"
           d="m -16.425,151.631 c -0.708,0.169 -0.099,1.439 0.686,0.758 l 0.694,-0.678 z" />
        <path
           id="use747"
           d="m -16.425,151.631 c -0.431,-0.265 -0.218,-1.431 0.502,-1.045 l 0.877,1.125 z" />
        <path
           id="use749"
           d="m -15.922,150.586 0.877,1.125 0.008,-1.372 c 0.044,-0.636 -1.172,-0.353 -0.885,0.247 z" />
        <path
           id="use751"
           d="m -15.037,150.338 -0.008,1.372 0.822,-0.646 c 0.473,-0.694 -0.471,-1.332 -0.814,-0.726 z" />
        <path
           id="use753"
           d="m -14.224,151.064 -0.822,0.646 0.973,0.702 c 0.66,-0.161 0.371,-1.61 -0.152,-1.348 z" />
        <path
           id="use755"
           d="m -15.045,151.71 0.024,1.388 c 0.234,0.641 1.513,-0.097 0.949,-0.686 z" />
        <path
           id="use757"
           d="m -15.739,152.388 0.694,-0.678 0.024,1.388 c -0.188,0.467 -1.505,-0.042 -0.718,-0.71 z" />
      </g>
    </g>
    <g
       class="K L"
       id="g773"
       transform="translate(-46.293,-57.336)">
      <path
         id="use763"
         d="m 89.159,157.361 c 1.038,-0.454 1.535,-2.264 3.313,-0.867 -0.354,2.504 -2.137,0.789 -3.313,0.867 z"
         style="fill:#208358;fill-opacity:0.992" />
      <g
         class="M"
         id="g771">
        <path
           d="m 90.226,157.101 3.805,-0.997"
           id="path765" />
        <path
           id="use767"
           d="m 90.611,156.541 0.598,0.302 -0.31,0.446" />
        <path
           id="use769"
           d="m 91.494,157.504 0.365,-0.831 -0.696,-0.353" />
      </g>
    </g>
    <g
       transform="matrix(1.034619,0.523144,-0.523144,1.034619,133.7831,-60.597112)"
       class="K L"
       id="g785">
      <path
         id="use775"
         d="m -16.522,157.361 c 1.038,-0.454 1.535,-2.264 3.313,-0.867 -0.354,2.504 -2.137,0.789 -3.313,0.867 z"
         style="fill:#208358;fill-opacity:0.992" />
      <g
         class="M"
         id="g783">
        <path
           d="m -15.455,157.101 4.34,-1.133"
           id="path777" />
        <path
           id="use779"
           d="m -15.07,156.541 0.598,0.302 -0.31,0.446" />
        <path
           id="use781"
           d="m -14.187,157.504 0.365,-0.831 -0.696,-0.353" />
      </g>
    </g>
    <g
       transform="matrix(0.74612,0.803279,-0.796744,0.752239,167.2309,-20.385638)"
       class="K L"
       id="g797">
      <path
         id="use787"
         d="m -16.522,157.361 c 1.038,-0.454 1.535,-2.264 3.313,-0.867 -0.354,2.504 -2.137,0.789 -3.313,0.867 z"
         style="fill:#208358;fill-opacity:0.992" />
      <g
         class="M"
         id="g795">
        <path
           d="m -15.455,157.101 4.34,-1.133"
           id="path789" />
        <path
           id="use791"
           d="m -15.07,156.541 0.598,0.302 -0.31,0.446" />
        <path
           id="use793"
           d="m -14.187,157.504 0.365,-0.831 -0.696,-0.353" />
      </g>
    </g>
    <g
       transform="matrix(0.74612,0.803279,-0.796744,0.752239,164.35123,-29.302209)"
       class="K L"
       id="g819">
      <path
         id="use799"
         d="m -16.522,157.361 c 1.038,-0.454 1.535,-2.264 3.313,-0.867 -0.354,2.504 -2.137,0.789 -3.313,0.867 z"
         style="fill:#208358;fill-opacity:0.992" />
      <g
         class="M"
         id="g807">
        <path
           id="use801"
           d="m -15.455,157.101 3.608,-0.905" />
        <path
           id="use803"
           d="m -15.07,156.541 0.598,0.302 -0.31,0.446" />
        <path
           id="use805"
           d="m -14.187,157.504 0.365,-0.831 -0.696,-0.353" />
      </g>
      <path
         id="use809"
         d="m -16.522,157.361 c 1.038,-0.454 1.535,-2.264 3.313,-0.867 -0.354,2.504 -2.137,0.789 -3.313,0.867 z"
         style="fill:#208358;fill-opacity:0.992" />
      <g
         class="M"
         id="g817">
        <path
           id="use811"
           d="m -15.455,157.101 3.608,-0.905" />
        <path
           id="use813"
           d="m -15.07,156.541 0.598,0.302 -0.31,0.446" />
        <path
           id="use815"
           d="m -14.187,157.504 0.365,-0.831 -0.696,-0.353" />
      </g>
    </g>
    <g
       transform="matrix(0.324399,1.047243,-1.044005,0.332745,197.52343,31.147251)"
       class="K L"
       id="g831">
      <path
         id="use821"
         d="m -16.522,157.361 c 1.038,-0.454 1.535,-2.264 3.313,-0.867 -0.354,2.504 -2.137,0.789 -3.313,0.867 z"
         style="fill:#208358;fill-opacity:0.992" />
      <g
         class="M"
         id="g829">
        <path
           id="use823"
           d="m -15.455,157.101 3.608,-0.905" />
        <path
           id="use825"
           d="m -15.07,156.541 0.598,0.302 -0.31,0.446" />
        <path
           id="use827"
           d="m -14.187,157.504 0.365,-0.831 -0.696,-0.353" />
      </g>
    </g>
    <g
       transform="matrix(-0.075395,1.09374,-1.093732,-0.066443,202.53915,86.11321)"
       class="K L"
       id="g843">
      <path
         id="use833"
         d="m -16.522,157.361 c 1.038,-0.454 1.535,-2.264 3.313,-0.867 -0.354,2.504 -2.137,0.789 -3.313,0.867 z"
         style="fill:#208358;fill-opacity:0.992" />
      <g
         class="M"
         id="g841">
        <path
           id="use835"
           d="m -15.455,157.101 3.608,-0.905" />
        <path
           id="use837"
           d="m -15.07,156.541 0.598,0.302 -0.31,0.446" />
        <path
           id="use839"
           d="m -14.187,157.504 0.365,-0.831 -0.696,-0.353" />
      </g>
    </g>
    <g
       transform="matrix(-0.334099,1.044189,-1.046316,-0.325403,196.59836,118.54881)"
       class="K L"
       id="g855">
      <path
         id="use845"
         d="m -16.522,157.361 c 1.038,-0.454 1.535,-2.264 3.313,-0.867 -0.354,2.504 -2.137,0.789 -3.313,0.867 z"
         style="fill:#208358;fill-opacity:0.992" />
      <g
         class="M"
         id="g853">
        <path
           id="use847"
           d="m -15.455,157.101 3.608,-0.905" />
        <path
           id="use849"
           d="m -15.07,156.541 0.598,0.302 -0.31,0.446" />
        <path
           id="use851"
           d="m -14.187,157.504 0.365,-0.831 -0.696,-0.353" />
      </g>
    </g>
    <g
       transform="matrix(0.654297,0.900682,0.900682,-0.654297,-91.03927,207.9807)"
       class="K L"
       id="g867">
      <path
         id="use857"
         d="m -16.522,157.361 c 1.038,-0.454 1.535,-2.264 3.313,-0.867 -0.354,2.504 -2.137,0.789 -3.313,0.867 z"
         style="fill:#208358;fill-opacity:0.992" />
      <g
         class="M"
         id="g865">
        <path
           d="m -15.455,157.101 4.589,-1.297"
           id="path859" />
        <path
           id="use861"
           d="m -15.07,156.541 0.598,0.302 -0.31,0.446" />
        <path
           id="use863"
           d="m -14.187,157.504 0.365,-0.831 -0.696,-0.353" />
      </g>
    </g>
    <g
       transform="matrix(0.176545,1.099165,1.099165,-0.176545,-134.53696,128.87432)"
       class="K L"
       id="g879">
      <path
         id="use869"
         d="m -16.522,157.361 c 1.038,-0.454 1.535,-2.264 3.313,-0.867 -0.354,2.504 -2.137,0.789 -3.313,0.867 z"
         style="fill:#208358;fill-opacity:0.992" />
      <g
         class="M"
         id="g877">
        <path
           d="m -15.455,157.101 4.141,-0.941"
           id="path871" />
        <path
           id="use873"
           d="m -15.07,156.541 0.598,0.302 -0.31,0.446" />
        <path
           id="use875"
           d="m -14.187,157.504 0.365,-0.831 -0.696,-0.353" />
      </g>
    </g>
    <g
       transform="matrix(-0.406766,1.036279,1.036279,0.406766,-135.2888,29.498886)"
       class="K L"
       id="g891">
      <path
         id="use881"
         d="m -16.522,157.361 c 1.038,-0.454 1.535,-2.264 3.313,-0.867 -0.354,2.504 -2.137,0.789 -3.313,0.867 z"
         style="fill:#208358;fill-opacity:0.992" />
      <g
         class="M"
         id="g889">
        <path
           id="use883"
           d="m -15.455,157.101 3.668,-0.758" />
        <path
           id="use885"
           d="m -15.07,156.541 0.598,0.302 -0.31,0.446" />
        <path
           id="use887"
           d="m -14.187,157.504 0.365,-0.831 -0.696,-0.353" />
      </g>
    </g>
    <g
       transform="matrix(-0.737822,0.903805,0.903805,0.737822,-119.47553,-32.405989)"
       class="K L"
       id="g903">
      <path
         id="use893"
         d="m -16.522,157.361 c 1.038,-0.454 1.535,-2.264 3.313,-0.867 -0.354,2.504 -2.137,0.789 -3.313,0.867 z"
         style="fill:#208358;fill-opacity:0.992" />
      <g
         class="M"
         id="g901">
        <path
           id="use895"
           d="m -15.455,157.101 3.668,-0.758" />
        <path
           id="use897"
           d="m -15.07,156.541 0.598,0.302 -0.31,0.446" />
        <path
           id="use899"
           d="m -14.187,157.504 0.365,-0.831 -0.696,-0.353" />
      </g>
    </g>
    <g
       transform="matrix(-0.993489,0.72948,0.720693,1.005603,-92.50176,-83.725629)"
       class="K L"
       id="g915">
      <path
         id="use905"
         d="m -16.522,157.361 c 1.038,-0.454 1.535,-2.264 3.313,-0.867 -0.354,2.504 -2.137,0.789 -3.313,0.867 z"
         style="fill:#208358;fill-opacity:0.992" />
      <g
         class="M"
         id="g913">
        <path
           id="use907"
           d="m -15.455,157.101 3.668,-0.758" />
        <path
           id="use909"
           d="m -15.07,156.541 0.598,0.302 -0.31,0.446" />
        <path
           id="use911"
           d="m -14.187,157.504 0.365,-0.831 -0.696,-0.353" />
      </g>
    </g>
    <g
       transform="matrix(-0.826084,0.642773,0.599254,0.886076,-66.31219,-73.63803)"
       class="K L"
       id="g927">
      <path
         id="use917"
         d="m -16.522,157.361 c 1.038,-0.454 1.535,-2.264 3.313,-0.867 -0.354,2.504 -2.137,0.789 -3.313,0.867 z"
         style="fill:#208358;fill-opacity:0.992" />
      <g
         class="M"
         id="g925">
        <path
           d="m -15.455,157.101 2.38,-0.492 c 0.868,-0.462 1.327,-0.946 1.261,-1.461"
           id="path919" />
        <path
           id="use921"
           d="m -15.07,156.541 0.598,0.302 -0.31,0.446" />
        <path
           id="use923"
           d="m -14.187,157.504 0.365,-0.831 -0.696,-0.353" />
      </g>
    </g>
  </g>
  <g
     id="g2856">
    <g
       id="g2776">
      <path
         d="m 53.994,97.383 a 0.15,0.15 0 0 0 -0.15,0.148 v 3.904 a 0.15,0.15 0 0 0 0.15,0.148 h 4.713 4.713 a 0.15,0.15 0 0 0 0.15,-0.148 v -3.904 a 0.15,0.15 0 0 0 -0.15,-0.148 h -4.713 z m 0.15,0.299 h 4.563 4.563 v 3.604 h -4.563 -4.562 z"
         stroke="#000000"
         class="V W X Y e"
         id="path929" />
      <g
         id="g2741">
        <path
           id="use937"
           d="m 57.565,97.682 h 1.142 v 3.613 h -1.142 -1.142 v -3.613 z"
           style="opacity:0.996;fill:url(#linearGradient2240);fill-rule:evenodd;"/>
        <path
           id="use939"
           d="m 57.565,97.682 h 1.142 v 3.613 h -1.142 -1.142 v -3.613 z"
           style="opacity:0.996;fill:url(#linearGradient2244);fill-rule:evenodd;" />
      </g>
      <g
         id="g2735">
        <path
           id="use943"
           d="m 59.848,97.682 h 1.142 v 3.613 h -1.142 -1.142 v -3.613 z"
           style="opacity:0.996;fill:url(#linearGradient2248);fill-rule:evenodd;" />
        <path
           id="use945"
           d="m 59.848,97.682 h 1.142 v 3.613 h -1.142 -1.142 v -3.613 z"
           style="opacity:0.996;fill:url(#linearGradient2252);fill-rule:evenodd;" />
      </g>
      <g
         id="g2747"
         transform="translate(-2.279)">
        <path
           id="path2743"
           d="m 57.565,97.682 h 1.142 v 3.613 h -1.142 -1.142 v -3.613 z"
           style="opacity:0.996;fill:url(#linearGradient2749);fill-rule:evenodd;" />
        <path
           id="path2745"
           d="m 57.565,97.682 h 1.142 v 3.613 h -1.142 -1.142 v -3.613 z"
           style="opacity:0.996;fill:url(#linearGradient2751);fill-rule:evenodd;" />
      </g>
      <g
         id="g2757"
         transform="translate(4.563)">
        <path
           id="path2753"
           d="m 57.565,97.682 h 1.142 v 3.613 h -1.142 -1.142 v -3.613 z"
           style="opacity:0.996;fill:url(#linearGradient2759);fill-rule:evenodd;" />
        <path
           id="path2755"
           d="m 57.565,97.682 h 1.142 v 3.613 h -1.142 -1.142 v -3.613 z"
           style="opacity:0.996;fill:url(#linearGradient2761);fill-rule:evenodd;" />
      </g>
    </g>
  </g>
</svg>
