<?xml version="1.0" encoding="utf-8"?>
<!-- Generator: Adobe Illustrator 23.0.3, SVG Export Plug-In . SVG Version: 6.00 Build 0)  -->
<svg version="1.1" id="Layer_1" xmlns="http://www.w3.org/2000/svg" xmlns:xlink="http://www.w3.org/1999/xlink" x="0px" y="0px"
	 viewBox="0 0 320 320" style="enable-background:new 0 0 320 320;" xml:space="preserve">
<style type="text/css">
	.st0{fill-rule:evenodd;clip-rule:evenodd;fill:#01CAFE;}
	.st1{fill-rule:evenodd;clip-rule:evenodd;fill:#3388AA;stroke:#005588;stroke-width:0.5;}
	.st2{fill-rule:evenodd;clip-rule:evenodd;fill:#FFFF00;stroke:#000000;stroke-width:0.5;}
	.st3{fill-rule:evenodd;clip-rule:evenodd;fill:#FFFFFF;stroke:#000000;stroke-width:0.5;}
	.st4{fill-rule:evenodd;clip-rule:evenodd;fill:#FFFFFF;stroke:#000000;stroke-width:0.4458;}
	.st5{fill:none;stroke:#000000;stroke-width:0.5;}
	.st6{fill:#01CAFE;stroke:#000000;stroke-width:0.5;}
	.st7{fill-rule:evenodd;clip-rule:evenodd;fill:#FF0000;}
	.st8{fill:#808000;stroke:#000000;stroke-width:1.1215;}
	.st9{fill:#FFFF00;}
	.st10{fill:#FF0000;}
	.st11{fill-rule:evenodd;clip-rule:evenodd;fill:#FFFF00;stroke:#000000;stroke-width:1.1215;}
	.st12{fill-rule:evenodd;clip-rule:evenodd;fill:#FFFF00;stroke:#000000;}
	.st13{fill:none;stroke:#808000;stroke-width:2.5;}
	.st14{fill-rule:evenodd;clip-rule:evenodd;fill:#01CAFE;stroke:#000000;stroke-width:1.1215;}
	.st15{fill-rule:evenodd;clip-rule:evenodd;}
	.st16{fill-rule:evenodd;clip-rule:evenodd;fill:#EE9900;stroke:#000000;stroke-width:1.1215;}
</style>
<g id="g6178">
	<path id="path2421" class="st0" d="M62.3,10h196.1l17.9,17.9v115.7c0,52.2-38.7,93.8-116.3,138.5C80,235.9,43.7,193.7,43.7,143.6
		V27.9L62.3,10z"/>
	<path id="path2500" class="st1" d="M159.9,227.6c-21.7,0-43.5,2-64.4,6.3c1.5,7.6,0.1,10.6,7.8,9.1c38.7-7.2,80.6-6.5,118.1,1.1
		l2.1-10.2C203.1,229.7,181.6,227.6,159.9,227.6z"/>
	<path id="path2478" class="st2" d="M256.7,11.6H63.9L45.3,27.3v128.3c17.8,0,23.2,14.3,32.3,17.1c31.5,9.7,36.8-4.2,65.3,1.8
		c-8.6,10.6,7.3,34.9-5.7,41.3c-2,1-4.3,3-2.3,5.8c-5.7,1.8-14,4.9-10.5,8.5c7,7,18.6,7.3,35.2,7.3s28.2-0.3,35.2-7.3
		c3.6-3.6-4.7-6.7-10.5-8.5c2-2.8-0.3-4.9-2.3-5.8c-13-6.4,2.9-30.7-5.7-41.3c28.4-6,33.8,7.9,65.3-1.8c9.1-2.8,13.8-17.2,32.5-17.2
		V27.3L256.7,11.6z"/>
	<path id="path2420" class="st3" d="M159.5,18.2c-3.8,14-62.8,21.5-24.5,59.8h49C224.7,37.3,163.2,32,159.5,18.2z"/>
	<path id="path2422" class="st3" d="M118.4,78h87.8c9.7,0,10.2,23.2,0,23.2h-87.8C107.4,101.2,107.6,78,118.4,78z"/>
	<path id="path2424" class="st4" d="M101,101h122.4c9.7,0,10.2,23.2,0,23.2H101C90,124.3,90.2,101,101,101z"/>
	<path id="path2426" class="st5" d="M111.8,123.8v-10.5h9.1v10.5 M127.4,123.8v-10.5h9.1v10.5 M143.1,123.8v-10.5h9.1v10.5
		 M166.6,123.8v-10.5h9.1v10.5 M182.2,123.8v-10.5h9.1v10.5 M197.9,123.8v-10.5h9.1v10.5"/>
	<rect id="rect2446" x="80.1" y="126.5" class="st6" width="31.8" height="6.9"/>
	<rect id="rect2448" x="115" y="126.5" class="st6" width="31.8" height="6.9"/>
	<rect id="rect2450" x="149.9" y="126.5" class="st6" width="21" height="6.9"/>
	<rect id="rect2452" x="174.1" y="126.5" class="st6" width="31.8" height="6.9"/>
	<rect id="rect2454" x="209" y="126.5" class="st6" width="31.8" height="6.9"/>
	<rect id="rect2456" x="84.8" y="135.6" class="st6" width="29.4" height="9.3"/>
	<rect id="rect2458" x="116.9" y="135.6" class="st6" width="25" height="9.3"/>
	<rect id="rect2460" x="144.6" y="135.6" class="st6" width="30.1" height="9.3"/>
	<rect id="rect2464" x="204.9" y="135.6" class="st6" width="29.4" height="9.3"/>
	<rect id="rect2466" x="48.7" y="135.6" class="st6" width="33.5" height="9.3"/>
	<rect id="rect2468" x="237" y="135.6" class="st6" width="33.8" height="9.3"/>
	<rect id="rect2470" x="177.2" y="135.6" class="st6" width="25" height="9.3"/>
	<path id="path3278" class="st1" d="M159.8,240.7c-17.6,0-35.4,1.6-52.4,5.1c1.1,8.4,1.7,8.1,9.2,6.8c30.7-5.2,63.6-4.5,93.2,1.4
		l1.7-8.2C195,242.5,177.4,240.8,159.8,240.7z"/>
	<path id="path3280" class="st1" d="M159.7,253.8c-12.7,0-25.5,1.1-37.7,3.5l1.2,5.7c23.6-4.6,49.5-4.4,72.5,0l1.2-5.7
		C185.1,255,172.4,253.8,159.7,253.8z"/>
	<path id="path3282" class="st1" d="M146.8,270.5l13.2,8.9l13.4-8.9C164.5,268,155.7,268,146.8,270.5z"/>
	<path id="path2388" class="st7" d="M46.6,146.5h226.5v4.3c-15.5,0-28,2.7-37.3,11.9l-7.5-10l-9.3,10l-7.9-10l-9.3,10l-9.3-10
		l-9.3,10l-9.3-10l-13.4,10l-13.4-10l-9.3,10l-9.3-10l-9.3,10l-9.3-10l-7.9,10l-9.3-10l-6,10C77,153.2,62.8,150,46.6,150V146.5z"/>
	<g id="g2488" transform="matrix(0.4458481,0,0,0.4458481,-5.342643,-6.1608102)">
		<path id="path2416" class="st8" d="M385.3,464.1c0,21.1-17.1,38.2-38.1,38.2c-21.1,0-38.2-17.1-38.2-38.1c0,0,0,0,0,0
			c0-21.1,17.1-38.2,38.1-38.2C368.2,425.9,385.3,443,385.3,464.1C385.3,464.1,385.3,464.1,385.3,464.1z"/>
		<path id="path2418" class="st8" d="M432.1,464.1c0,21.1-17.1,38.2-38.1,38.2c-21.1,0-38.2-17.1-38.2-38.1c0,0,0,0,0,0
			c0-21.1,17.1-38.2,38.1-38.2C415.1,425.9,432.1,443,432.1,464.1C432.1,464.1,432.1,464.1,432.1,464.1z"/>
		<path id="path2414" class="st8" d="M416.1,464.1c0,25.1-20.4,45.5-45.5,45.6c-25.1,0-45.5-20.4-45.6-45.5c0,0,0,0,0-0.1
			c0-25.1,20.4-45.5,45.5-45.6C395.7,418.5,416.1,438.9,416.1,464.1C416.1,464.1,416.1,464.1,416.1,464.1z"/>
		<path id="path2412" class="st9" d="M401.3,464.1c0,17-13.8,30.8-30.8,30.8c-17,0-30.8-13.8-30.8-30.8l0,0
			c0-17,13.8-30.8,30.8-30.8C387.6,433.3,401.3,447.1,401.3,464.1z"/>
		<path id="path2410" class="st10" d="M384.1,464.1c0,7.5-6.1,13.5-13.5,13.5s-13.5-6.1-13.5-13.5s6.1-13.5,13.5-13.5
			S384.1,456.6,384.1,464.1z"/>
	</g>
	<path id="path2495" class="st5" d="M134.8,221.9c16.5,9.4,33,9.6,49.6,0 M138.8,214.7c14.3,9.1,28.4,9.9,41.2,0"/>
	<g id="g3334" transform="matrix(0.4458481,0,0,0.4458481,-5.912191,-6.1608102)">
		<path id="path3284" class="st11" d="M698.9,556c-25,17.8-53.3,27.8-83,34.8c0-23.4-8.2-26.9-23.8-26.7v-24.4c0-9.9-36,4.4-36-4.6
			c0-16.4,85.4,12.9,125.3-28c-3.5,17.8-17.4,34.8-32.4,46.6C676.9,561.7,683.4,556.3,698.9,556z"/>
		<path id="path3290" class="st12" d="M592.2,539.7c0-9.9-36,4.4-36-4.6v50.5c0,4.9-0.4,12.3,15.1,8.1v-32.5
			C571.3,553.3,592.2,549.7,592.2,539.7z"/>
		<path id="path3296" class="st11" d="M592.2,564.1v-24.4c0,9.8-20.4,13.8-20.4,20.6C571.7,567.1,581.8,564.1,592.2,564.1z"/>
		<path id="path3298" class="st11" d="M571.3,560.3c0,6.6,10.2,3.8,20.9,3.8s11.4,30.1,0,33.9c-5.2,5.6-20.9,3-20.9-3.8L571.3,560.3
			z"/>
		<path id="path3313" class="st11" d="M45.4,556c25,17.8,53.3,27.8,83,34.8c0-23.4,8.2-26.9,23.8-26.7v-24.4c0-9.9,36,4.4,36-4.6
			c0-16.4-85.4,12.9-125.3-28c3.5,17.8,17.4,34.8,32.4,46.6C67.4,561.7,60.8,556.3,45.4,556z"/>
		<path id="path3315" class="st11" d="M152.1,539.7c0-9.9,36,4.4,36-4.6v50.5c0,4.9,0.4,12.3-15.1,8.1v-32.5
			C173,553.3,152.1,549.7,152.1,539.7z"/>
		<path id="path3317" class="st12" d="M152.1,564.1v-24.4c0,9.8,20.4,13.8,20.4,20.6C172.5,567.1,162.4,564.1,152.1,564.1z"/>
		<path id="path3286" class="st11" d="M372.1,709.1c-55.2,0-132.5-9.6-232.2-65.3c-14.3-8-11.7-25.2-11.7-53.1
			c0-23.4,8.2-26.9,23.8-26.7c-46.7,46.7,153.4,95.1,220,95.1s266.8-48.4,220-95.1c15.6-0.3,23.8,3.3,23.8,26.7
			c0,27.9,2.6,45.1-11.7,53.1C504.6,699.5,427.3,709.1,372.1,709.1z"/>
		<path id="path3321" class="st11" d="M173,560.3c0,6.6-10.2,3.8-20.9,3.8c-10.7,0-11.4,30.1,0,33.9c5.2,5.6,20.9,3,20.9-3.8
			L173,560.3z"/>
	</g>
	<path id="text3345" d="M60.1,272.5l1,0.5c-0.2,0.4-0.3,0.8-0.2,1.2c0,0.4,0.2,0.7,0.4,1.1c0.3,0.4,0.6,0.7,1.1,1
		c0.4,0.2,0.8,0.4,1.1,0.4c0.4,0.1,0.7,0,0.9-0.1c0.3-0.1,0.5-0.3,0.6-0.6c0.1-0.3,0.2-0.5,0.2-0.8c0-0.3-0.2-0.6-0.4-0.9
		c-0.2-0.2-0.5-0.6-1.2-1.2c-0.6-0.6-1-1.1-1.2-1.4c-0.3-0.4-0.4-0.8-0.4-1.3c0-0.4,0.1-0.8,0.3-1.2c0.2-0.4,0.5-0.7,1-0.9
		c0.4-0.2,0.9-0.3,1.4-0.2c0.5,0.1,1.1,0.3,1.6,0.6c0.6,0.3,1,0.7,1.4,1.2c0.3,0.5,0.5,0.9,0.5,1.5c0,0.5-0.1,1-0.3,1.5l-1-0.5
		c0.2-0.5,0.3-1,0.1-1.5c-0.2-0.4-0.5-0.8-1.1-1.2c-0.6-0.4-1.1-0.5-1.6-0.5c-0.4,0.1-0.7,0.3-0.9,0.6c-0.2,0.3-0.2,0.6-0.1,0.9
		c0.1,0.3,0.5,0.8,1.2,1.5c0.7,0.7,1.2,1.2,1.4,1.5c0.3,0.5,0.5,1,0.5,1.4c0,0.5-0.1,0.9-0.3,1.3c-0.2,0.4-0.6,0.8-1,1
		c-0.4,0.2-0.9,0.3-1.5,0.3c-0.6-0.1-1.1-0.2-1.7-0.6c-0.7-0.4-1.2-0.9-1.6-1.4c-0.4-0.5-0.6-1-0.6-1.6
		C59.7,273.7,59.8,273.1,60.1,272.5L60.1,272.5z M66.3,279.7l4.1-8.3l5.7,3.1l-0.5,1l-4.7-2.5l-1.3,2.5l4.4,2.4l-0.5,1l-4.4-2.4
		l-1.4,2.8l4.9,2.6l-0.5,1L66.3,279.7z M73.7,283.6l3.8-8.5l3.1,1.5c0.5,0.3,0.9,0.5,1.2,0.7c0.4,0.3,0.6,0.6,0.8,0.9
		c0.2,0.3,0.3,0.7,0.3,1.1c0,0.4-0.1,0.9-0.3,1.3c-0.3,0.7-0.8,1.2-1.5,1.5c-0.7,0.3-1.6,0.1-2.7-0.4l-2.1-1l-1.5,3.4L73.7,283.6z
		 M76.7,279.7l2.1,1c0.7,0.3,1.2,0.4,1.7,0.3c0.4-0.1,0.7-0.4,0.9-0.9c0.2-0.4,0.2-0.7,0.2-1c-0.1-0.3-0.2-0.6-0.5-0.8
		c-0.2-0.1-0.5-0.3-1-0.6l-2.1-1L76.7,279.7z M90.1,281l1.1,0.5l-2,5c-0.3,0.9-0.7,1.5-1.1,1.9c-0.4,0.4-0.9,0.7-1.5,0.8
		c-0.6,0.1-1.3,0-2.1-0.4c-0.8-0.3-1.3-0.7-1.7-1.2c-0.4-0.5-0.6-1-0.6-1.7c0-0.6,0.2-1.4,0.5-2.3l2-5l1.1,0.5l-2,5
		c-0.3,0.7-0.5,1.3-0.5,1.7c0,0.4,0.1,0.8,0.4,1.1c0.2,0.3,0.6,0.6,1.1,0.8c0.8,0.3,1.5,0.4,1.9,0.2c0.5-0.2,1-0.9,1.4-2L90.1,281z
		 M96.6,290.1l1,0.7c-0.6,0.9-1.2,1.4-2,1.7c-0.8,0.3-1.6,0.2-2.5-0.1c-0.9-0.3-1.6-0.8-2-1.4c-0.4-0.6-0.7-1.3-0.7-2.2
		c0-0.8,0.1-1.7,0.4-2.5c0.3-0.9,0.8-1.6,1.3-2.2c0.6-0.6,1.2-0.9,2-1c0.7-0.1,1.5,0,2.2,0.2c0.8,0.3,1.5,0.8,1.9,1.5
		c0.4,0.7,0.6,1.4,0.5,2.3l-1.2-0.1c0-0.7-0.1-1.3-0.4-1.7c-0.3-0.4-0.7-0.8-1.2-1c-0.6-0.2-1.2-0.3-1.8-0.1s-1,0.5-1.4,1
		c-0.4,0.5-0.6,1-0.8,1.6c-0.3,0.7-0.4,1.4-0.4,2.1c0,0.6,0.2,1.2,0.5,1.6c0.3,0.4,0.8,0.8,1.3,1c0.6,0.2,1.2,0.2,1.8,0
		S96.2,290.7,96.6,290.1L96.6,290.1z M106.3,286.9l1.1,0.4l-1.5,5.2c-0.3,0.9-0.6,1.6-0.9,2c-0.3,0.5-0.8,0.8-1.4,0.9
		c-0.6,0.2-1.3,0.1-2.1-0.1c-0.8-0.3-1.4-0.6-1.8-1.1c-0.4-0.5-0.7-1-0.7-1.6c-0.1-0.6,0.1-1.4,0.3-2.3l1.5-5.2l1.1,0.4l-1.5,5.2
		c-0.2,0.8-0.3,1.4-0.3,1.8c0,0.4,0.2,0.8,0.5,1.1c0.3,0.3,0.7,0.5,1.1,0.7c0.8,0.3,1.5,0.3,2,0c0.5-0.3,0.9-1,1.2-2.1L106.3,286.9z
		 M106.7,296.8l2.2-9l1.1,0.3l-1.1,4.5l5.4-3.3l1.6,0.4l-4.5,2.7l2.5,6.4l-1.5-0.4l-1.9-5.4l-1.8,1.1l-0.8,3.1L106.7,296.8z
		 M118.1,297l1.1,0.1c-0.1,0.7-0.1,1.2,0.1,1.5c0.2,0.3,0.5,0.5,0.9,0.6c0.3,0.1,0.6,0,0.8-0.1c0.2-0.1,0.4-0.3,0.5-0.5
		c0.1-0.2,0.2-0.6,0.3-1.1l1.2-6.3l1.2,0.2l-1.2,6.2c-0.1,0.8-0.3,1.3-0.6,1.7c-0.3,0.4-0.6,0.6-1,0.8c-0.4,0.1-0.9,0.2-1.4,0
		c-0.8-0.2-1.3-0.5-1.6-1.1C117.9,298.6,117.9,297.9,118.1,297L118.1,297z M123.3,300.8l4.8-8.7l1.3,0.2l2.2,9.8l-1.3-0.2l-0.6-3
		l-3.7-0.6l-1.4,2.6L123.3,300.8z M126.4,297.4l3,0.5l-0.5-2.7c-0.2-0.8-0.3-1.5-0.3-2c-0.2,0.6-0.4,1.1-0.7,1.7L126.4,297.4z
		 M132.5,302.3l1-9.3l1.8,0.2l1.4,6.8c0.1,0.6,0.2,1.1,0.3,1.4c0.1-0.3,0.3-0.8,0.6-1.4l2.8-6.2l1.6,0.2l-1,9.3l-1.1-0.1l0.8-7.8
		l-3.4,7.5l-1.1-0.1l-1.8-8.2l-0.8,7.9L132.5,302.3z M142.8,303.4l0.5-9.3l3.3,0.2c0.7,0,1.2,0.2,1.6,0.4c0.4,0.2,0.7,0.5,0.9,0.9
		s0.3,0.8,0.3,1.3c0,0.4-0.1,0.8-0.4,1.1c-0.2,0.3-0.6,0.6-1,0.8c0.5,0.2,0.9,0.5,1.2,0.9c0.3,0.4,0.4,0.9,0.4,1.4
		c0,0.4-0.1,0.8-0.3,1.2c-0.2,0.4-0.4,0.6-0.7,0.8c-0.3,0.2-0.6,0.3-1,0.4c-0.4,0.1-0.9,0.1-1.4,0.1L142.8,303.4z M144.3,298
		l1.9,0.1c0.5,0,0.9,0,1.1,0c0.3-0.1,0.5-0.2,0.7-0.4c0.2-0.2,0.3-0.5,0.3-0.8c0-0.3,0-0.6-0.2-0.8c-0.1-0.2-0.3-0.4-0.6-0.5
		c-0.3-0.1-0.7-0.2-1.3-0.2l-1.8-0.1L144.3,298z M144.1,302.3l2.2,0.1c0.4,0,0.6,0,0.8,0c0.3,0,0.5-0.1,0.7-0.2
		c0.2-0.1,0.3-0.3,0.5-0.5c0.1-0.2,0.2-0.5,0.2-0.8c0-0.3,0-0.7-0.2-0.9c-0.2-0.3-0.4-0.5-0.7-0.6s-0.7-0.2-1.3-0.2l-2.1-0.1
		L144.1,302.3z M151.4,303.8l0.2-9.3l1.2,0l-0.2,9.3L151.4,303.8z M157.7,300.9l1.1-0.1c0.1,0.5,0.2,0.8,0.4,1.1
		c0.2,0.3,0.5,0.5,0.9,0.7c0.4,0.2,0.9,0.3,1.4,0.2c0.5,0,0.8-0.1,1.2-0.2c0.3-0.1,0.6-0.3,0.8-0.6c0.2-0.2,0.2-0.5,0.2-0.8
		c0-0.3-0.1-0.5-0.3-0.8c-0.2-0.2-0.4-0.4-0.8-0.5c-0.2-0.1-0.8-0.2-1.6-0.4c-0.8-0.2-1.4-0.4-1.7-0.5c-0.4-0.2-0.8-0.5-1-0.8
		c-0.2-0.3-0.3-0.7-0.3-1.2c0-0.5,0.1-0.9,0.4-1.3c0.2-0.4,0.6-0.7,1.1-1c0.5-0.2,1-0.3,1.6-0.4c0.7,0,1.2,0.1,1.8,0.3
		c0.5,0.2,0.9,0.5,1.2,1c0.3,0.4,0.4,0.9,0.5,1.5l-1.1,0.1c-0.1-0.6-0.3-1-0.6-1.3c-0.4-0.3-0.9-0.4-1.6-0.4c-0.7,0-1.2,0.2-1.6,0.4
		c-0.3,0.3-0.5,0.6-0.5,1c0,0.3,0.1,0.6,0.4,0.8c0.2,0.2,0.8,0.4,1.8,0.6c1,0.2,1.6,0.4,2,0.5c0.5,0.2,0.9,0.5,1.2,0.9
		c0.3,0.4,0.4,0.8,0.4,1.3c0,0.5-0.1,1-0.4,1.4s-0.6,0.8-1.2,1.1c-0.5,0.3-1.1,0.4-1.7,0.4c-0.8,0-1.5-0.1-2-0.3
		c-0.6-0.2-1-0.6-1.3-1.1C157.9,302.1,157.7,301.6,157.7,300.9L157.7,300.9z M166.5,303.7l-0.6-9.3l6.4-0.4l0.1,1.1l-5.3,0.4
		l0.2,2.9l4.9-0.3l0.1,1.1l-4.9,0.3l0.2,3.2l5.5-0.4l0.1,1.1L166.5,303.7z M174.7,303.1l-1-9.3l1.8-0.2l2.8,6.3
		c0.3,0.6,0.5,1,0.6,1.3c0.1-0.3,0.2-0.9,0.3-1.5l1.4-6.7l1.6-0.2l1,9.3l-1.1,0.1l-0.8-7.8l-1.7,8.1l-1.1,0.1l-3.4-7.6l0.9,7.9
		L174.7,303.1z M185.1,301.8l-1.4-9.2l3.3-0.6c0.7-0.1,1.2-0.1,1.7,0c0.4,0.1,0.8,0.4,1.1,0.7c0.3,0.3,0.5,0.7,0.5,1.2
		c0.1,0.4,0,0.8-0.1,1.2c-0.2,0.4-0.4,0.7-0.8,1c0.6,0.1,1,0.3,1.4,0.6c0.3,0.3,0.6,0.8,0.6,1.3c0.1,0.4,0,0.8-0.1,1.2
		c-0.1,0.4-0.3,0.7-0.5,1c-0.2,0.2-0.5,0.5-0.9,0.6c-0.4,0.2-0.8,0.3-1.4,0.4L185.1,301.8z M185.4,296.3l1.9-0.3
		c0.5-0.1,0.9-0.2,1.1-0.3c0.3-0.1,0.5-0.3,0.6-0.6c0.1-0.2,0.2-0.5,0.1-0.8c0-0.3-0.2-0.6-0.3-0.8c-0.2-0.2-0.4-0.3-0.7-0.4
		c-0.3,0-0.7,0-1.4,0.1l-1.8,0.3L185.4,296.3z M186.1,300.5l2.2-0.4c0.4-0.1,0.6-0.1,0.8-0.2c0.3-0.1,0.5-0.2,0.6-0.4
		c0.2-0.1,0.3-0.3,0.4-0.6c0.1-0.2,0.1-0.5,0.1-0.8c-0.1-0.3-0.2-0.6-0.4-0.9c-0.2-0.2-0.5-0.4-0.8-0.4c-0.3-0.1-0.8,0-1.3,0.1
		l-2,0.3L186.1,300.5z M193.5,300.3l-1.7-9.2l1.2-0.2l1.7,9.2L193.5,300.3z M196.7,299.7l-1.9-9.1l1.2-0.3l1.7,8.1l4.3-1l0.2,1.1
		L196.7,299.7z M202.6,298.3l1.1-9.9l1.2-0.3l5.8,8.1l-1.3,0.3l-1.7-2.5l-3.6,1l-0.3,3L202.6,298.3z M204.2,294l2.9-0.8l-1.5-2.3
		c-0.5-0.7-0.8-1.3-1.1-1.7c0,0.6,0,1.2,0,1.9L204.2,294z M211.6,295.9L209,287l1.2-0.4l6.5,5.6l-2-7l1.1-0.3l2.6,8.9l-1.2,0.4
		l-6.5-5.6l2,7L211.6,295.9z M223.4,292l-3-8.8l1.1-0.4l2.6,7.8l4.1-1.5l0.4,1L223.4,292z M232.2,278.6l1.1-0.5l1.9,5
		c0.3,0.9,0.5,1.6,0.5,2.2c0,0.6-0.2,1.2-0.5,1.7c-0.4,0.5-1,1-1.8,1.3c-0.8,0.3-1.5,0.4-2.1,0.4c-0.6-0.1-1.1-0.3-1.5-0.8
		c-0.4-0.4-0.8-1.1-1.1-2l-1.9-5l1.1-0.5l1.9,5c0.3,0.8,0.6,1.3,0.8,1.6c0.3,0.3,0.6,0.5,1,0.5s0.8,0,1.3-0.2
		c0.8-0.3,1.3-0.8,1.5-1.3s0.1-1.3-0.3-2.4L232.2,278.6z M238.4,286l-3.6-8.5l3.6-1.7c0.7-0.3,1.3-0.5,1.8-0.5
		c0.4,0,0.9,0.1,1.3,0.4c0.4,0.3,0.7,0.7,0.9,1.1c0.3,0.6,0.3,1.2,0.1,1.8s-0.7,1.1-1.4,1.6c0.3,0,0.6,0.1,0.8,0.1
		c0.4,0.2,0.9,0.4,1.4,0.7l2.4,1.7l-1.4,0.6l-1.8-1.3c-0.5-0.4-1-0.6-1.3-0.8c-0.3-0.2-0.6-0.3-0.8-0.3c-0.2,0-0.4,0-0.6,0
		c-0.1,0-0.3,0.1-0.6,0.2l-1.3,0.6l1.6,3.8L238.4,286z M237.5,280.7l2.3-1.1c0.5-0.2,0.9-0.5,1.1-0.7c0.2-0.2,0.4-0.5,0.4-0.8
		c0-0.3,0-0.6-0.1-0.9c-0.2-0.4-0.5-0.7-0.8-0.8c-0.4-0.1-0.9-0.1-1.5,0.2l-2.6,1.2L237.5,280.7z M245.7,282.6l-0.8-10l1.1-0.6
		l7.2,6.7l-1.2,0.6l-2.1-2.1l-3.4,1.7l0.3,3L245.7,282.6z M246.4,278l2.7-1.4l-1.9-1.9c-0.6-0.6-1-1.1-1.4-1.4
		c0.1,0.6,0.3,1.2,0.3,1.8L246.4,278z M254.1,278.3l-4.2-8.2l1-0.6l1.7,3.4l4.1-2.3l-1.7-3.4l1-0.6l4.2,8.2l-1,0.6l-2-3.9l-4.1,2.3
		l2,3.9L254.1,278.3z"/>
	<path id="path2384" class="st13" d="M62.3,10h196.1l17.9,17.9v115.7c0,52.2-38.7,93.8-116.3,138.5C80,235.9,43.7,193.7,43.7,143.6
		V27.9L62.3,10z"/>
	<g id="keris" transform="matrix(0.4458481,0,0,0.4458481,96.855796,-4.7118039)">
		<path id="path2423" class="st14" d="M137.9,262.2c1,15.8-1.2,31.8-5.4,47.5c-9.1,34.1,9.8,62.3-18.4,101.8h60.4
			c-23.7-31.5-19.2-72.9-21.7-110.1C151.9,288.4,146.9,275.4,137.9,262.2z"/>
		<path id="path2425" class="st15" d="M128.7,404.9c9.9-21.3,11.7-45.2,14.6-68.4c2.2,25.1,2.1,39.3,16.1,68.4H150l-7-23l-7.1,23
			H128.7z"/>
		<path id="path2431" class="st16" d="M137.1,411.5V441c0,9.5-7.6,4.4-7.6,10.6c0,19.3,22.6,19.3,22.6,0v-40.2H137.1z"/>
	</g>
</g>
</svg>
