<?xml version="1.0" encoding="utf-8"?>
<!-- Generator: Adobe Illustrator 23.0.3, SVG Export Plug-In . SVG Version: 6.00 Build 0)  -->
<svg version="1.1" id="Layer_1" xmlns="http://www.w3.org/2000/svg" xmlns:xlink="http://www.w3.org/1999/xlink" x="0px" y="0px"
	 viewBox="0 0 320 320" style="enable-background:new 0 0 320 320;" xml:space="preserve">
<style type="text/css">
	.st0{fill:none;stroke:#FFFFFF;stroke-width:8.3671;}
	.st1{fill-rule:evenodd;clip-rule:evenodd;fill:#FFFFFF;stroke:#FFFFFF;stroke-width:0.7449;}
	.st2{fill-rule:evenodd;clip-rule:evenodd;fill:#469951;stroke:#469951;stroke-width:0.7606;}
	.st3{fill-rule:evenodd;clip-rule:evenodd;fill:#FA1C2C;stroke:#FA1C2C;stroke-width:1.0069;}
	.st4{fill-rule:evenodd;clip-rule:evenodd;fill:#FA1C2C;stroke:#FA1C2C;stroke-width:1.0073;}
	.st5{fill:#FA1C2C;stroke:#FA1C2C;stroke-width:11.0575;}
	.st6{fill-rule:evenodd;clip-rule:evenodd;fill:#FFFD00;stroke:#000000;stroke-width:0.7606;}
	.st7{fill:none;stroke:#000000;stroke-width:5.857;}
	.st8{fill-rule:evenodd;clip-rule:evenodd;fill:#FFFFFF;stroke:#FFFFFF;stroke-width:0.7049;}
	.st9{fill:#FAF51C;}
	.st10{font-family:'MyriadPro-Bold';}
	.st11{font-size:25.8661px;}
	.st12{fill:none;stroke:#FAF51C;}
	.st13{fill-rule:evenodd;clip-rule:evenodd;stroke:#000000;stroke-width:0.7606;}
	.st14{fill-rule:evenodd;clip-rule:evenodd;fill:#FFFFFF;stroke:#FFFFFF;}
	.st15{fill-rule:evenodd;clip-rule:evenodd;fill:#FFFFFF;stroke:#FFFFFF;stroke-width:0.7606;}
	.st16{fill-rule:evenodd;clip-rule:evenodd;fill:#D40000;stroke:#AD0909;stroke-width:0.7606;}
	.st17{fill-rule:evenodd;clip-rule:evenodd;stroke:#000000;stroke-width:0.8081;}
	.st18{fill-rule:evenodd;clip-rule:evenodd;stroke:#000000;stroke-width:0.8071;}
	.st19{fill-rule:evenodd;clip-rule:evenodd;stroke:#000000;stroke-width:0.7914;}
	.st20{fill-rule:evenodd;clip-rule:evenodd;stroke:#000000;stroke-width:0.8107;}
	.st21{fill-rule:evenodd;clip-rule:evenodd;fill:#EFEE0D;stroke:#000000;stroke-width:0.7606;}
	.st22{fill:none;stroke:#000000;stroke-width:3.6699;}
	.st23{fill-rule:evenodd;clip-rule:evenodd;fill:#FAF51C;stroke:#000000;stroke-width:3.4229;stroke-linejoin:round;}
	.st24{fill-rule:evenodd;clip-rule:evenodd;fill:#EFEE0D;stroke:#000000;stroke-width:3.4229;}
	.st25{fill:#FAF51C;stroke:#FAEB1C;stroke-width:11;}
	.st26{fill-rule:evenodd;clip-rule:evenodd;fill:#EFEE0D;stroke:#000000;stroke-width:3.3515;}
	.st27{fill:#F02D2D;}
	.st28{font-size:16.8226px;}
	.st29{fill:none;stroke:#F02D2D;}
	.st30{font-size:16.8227px;}
</style>
<g id="layer4">
	<path id="path2187" class="st0" d="M41.1,51.3l237.3-1L281,15L37,16L41.1,51.3z"/>
	<rect id="rect3954" x="142.9" y="126.4" class="st1" width="31" height="6.5"/>
	<path id="path18934" class="st2" d="M62.9,238.2c0,0,2.4,1.6,5.8,1.6c3.4-0.1,8.2-4.6,14.6-5.3c6.4-0.7,17,6,23.2,5.4
		c6.2-0.6,11.8-5.5,18.1-5c6.3,0.5,10.4,5.9,18.8,5.2c8.4-0.7,8.6-4.1,16.5-3.9c7.9,0.2,9.9,5.2,18,4.6c8.1-0.6,10.9-4.6,17.2-4.2
		c6.4,0.4,8,5.1,17.2,4.9s10.9-5,20.7-4.3c9.8,0.7,11.2,3.6,15.7,4.3s6.6-1.1,6.1-1.2l-0.4,4.9c-2,0.9-1.6,1.1-5.7,1.5
		c-6.1-0.4-7.5-3.9-16.5-4.3c-8.2-0.4-11.2,4.2-20.2,4.3c-9.8-0.8-9.4-4.4-17.2-4.6c-9.9,0.7-9.3,4.3-18.1,4.7
		c-8.4-0.8-10.4-5-17-4.6c-6.4-0.2-9.5,3.5-15.8,3.7c-8.5,0.3-11.4-5-18.6-5c-6.2-0.4-10.7,4.4-18,4.4c-9.2-0.7-14.4-4.8-21.7-5.2
		c-9.1,0.4-9.9,2.5-15.2,4.5c-5,1.2-4.7-0.3-7.1-1.3L62.9,238.2z"/>
	<g id="g6254" transform="matrix(0.760646,0,0,0.760646,-37.94091,-80.94807)">
		<path id="path14565" class="st3" d="M107.7,129.2h-6.6l4.7,39.9h1.2L107.7,129.2z"/>
		<path id="path16313" class="st4" d="M412.7,129.2h6.6l-4.7,39.9h-1.2L412.7,129.2z"/>
		<rect id="rect3064" x="110.1" y="132.1" class="st5" width="300.3" height="34.3"/>
	</g>
	<path id="path12812" class="st2" d="M60.5,215.7c0,0,2.8,3.4,8.9,1.3s7-4.2,13.5-4.9c6.4-0.7,17,6,23.2,5.4
		c6.2-0.6,11.8-5.5,18.1-5c6.3,0.5,10.4,5.9,18.8,5.2s8.6-4.1,16.5-3.9c7.9,0.2,9.2,4.7,18,4.6s8.2-4.3,17.2-4.2
		c9.1,0.1,10.4,4.3,17.2,4.9c6.8,0.6,11.1-5,20.7-4.3c9.6,0.7,9.3,3,15.7,4.3s9.7-2,9.7-2l-0.6,5.4c-2,0.9-3.1,1.7-7.1,2.1
		c-6.1-0.4-9.4-4.2-18.4-4.5c-8.2-0.4-11.2,4.2-20.2,4.3c-9.8-0.8-9.4-4.4-17.2-4.6c-9.9,0.7-9.3,4.3-18.1,4.7
		c-8.4-0.8-10.4-5-17-4.6c-6.4-0.2-9.5,3.5-15.8,3.7c-8.5,0.3-11.4-5-18.6-5c-6.2-0.4-10.7,4.4-18,4.4c-9.2-0.7-14.4-4.8-21.7-5.2
		c-9.1,0.4-9.9,2.5-15.2,4.5c-5,1.2-6.5-0.6-8.9-1.6L60.5,215.7z"/>
	<path id="path4951" class="st2" d="M70.1,243.8l183.1,2.2l-23.3-6.8l-19.9,4.7l-17.7-4.5l-18,3.7l-15-4l-15.4,3.9l-21.2-5.7
		l-16.6,4.4l-24-3.9L70.1,243.8z"/>
	<path id="path13687" class="st2" d="M61.5,226.8c0,0,2.4,3.4,8.5,1.3c6.1-2.2,7-4.2,13.5-4.9c6.4-0.7,17,6,23.2,5.4
		c6.2-0.6,11.8-5.5,18.1-5s10.4,5.9,18.8,5.2c8.4-0.7,8.6-4.1,16.5-3.9c7.9,0.2,9.9,5.2,18,4.6c8.1-0.6,10.9-4.6,17.2-4.2
		c6.4,0.4,8,5.1,17.2,4.9c9.2-0.2,10.9-5,20.7-4.3c9.8,0.7,11.2,3.6,15.7,4.3c4.4,0.7,7.9-1.7,7.4-1.8l-0.7,5.8
		c-2,0.9-2.6,0.9-6.6,1.3c-6.1-0.4-7.5-3.9-16.5-4.3c-8.2-0.4-11.2,4.2-20.2,4.3c-9.8-0.8-9.4-4.4-17.2-4.6
		c-9.9,0.7-9.3,4.3-18.1,4.7c-8.4-0.8-10.4-5-17-4.6c-6.4-0.2-9.5,3.5-15.8,3.7c-8.5,0.3-11.4-5-18.6-5c-6.2-0.4-10.7,4.4-18,4.4
		c-9.2-0.7-14.4-4.8-21.7-5.2c-9.1,0.4-9.9,2.5-15.2,4.5c-5,1.2-6-0.5-8.4-1.5L61.5,226.8z"/>
	<path id="path4074" class="st2" d="M63.2,242.3l4.5,34l91.2,26.5l92.5-25.2l3.2-33"/>
	<path id="path11862" class="st2" d="M59.6,211.6c10.8,4.3,12.4-3.3,21.8-4.5c7.8-0.5,12.2,4.2,22.8,5.3c6.2-0.2,10.5-4.3,18.5-5
		c6.9,0.2,7.5,4,19,5.1c7.5-0.6,9.1-3.4,17-4.8c10.3,0.5,8.2,4.3,17.6,5.3c7.2,0.3,9.3-4.4,16.6-4.1c8.7,0.3,11.7,4.6,19,5.1
		c7.7,0.5,11.1-4.3,20.5-4.8c8.7,0.8,12.5,4.8,18,5c3.2,0.4,5.4-0.9,7.4-2.4l18.5-159.1l-232,0.6L59.6,211.6z"/>
	<rect id="rect8932" x="199.1" y="249.6" class="st6" width="17.2" height="9.7"/>
	<path id="path1312" class="st7" d="M32.6,10l254.7,0l-28.2,272.6L159.3,310l-98.7-28.3L32.6,10z"/>
	<path id="path13690" class="st8" d="M34.7,11.6l250.8,0l-0.7,5l-249.6,0L34.7,11.6z"/>
	<text transform="matrix(0.8846 0 0 1 66.633 40.9575)" class="st9 st10 st11">SUMATERA BARAT</text>
	<text transform="matrix(0.8846 0 0 1 66.633 40.9575)" class="st12 st10 st11">SUMATERA BARAT</text>
	<path id="path10987" class="st13" d="M79.6,167.5c4.7,2,9.4,2.1,14.1,7.7l2.3,19.9c8.4,0.8,14.5,2.9,18.8,7.4l87.3,1.2
		c5.4-4.6,11.9-6.5,18.9-7.6l3.4-20.2c3.4-3.8,9.1-6.1,14-8.5H79.6z"/>
	<path id="path10110" class="st13" d="M73.7,85.6c4.8,20.4,12.5,33.2,30.3,39.6l1.2,42.2l-24.8,0.1l-1.9-37.9L73.7,85.6z"/>
	<rect id="rect1326" x="79.3" y="125.9" class="st13" width="157.7" height="41.6"/>
	<g id="g3077" transform="matrix(0.760646,0,0,0.760646,-38.25598,-81.14778)">
		<rect id="rect4787" x="238.3" y="272.3" class="st14" width="41.8" height="7.2"/>
		<path id="path5662" class="st14" d="M258.6,226.8c-6.1,22.7-12.9,36.8-20.1,45.9l41.6-0.2C271.6,263.7,264.1,249.1,258.6,226.8z"
			/>
	</g>
	<path id="path6539" class="st13" d="M102.5,86.5c4,16.1,7.6,31.9,40.6,39.5l-39.1,0.4L102.5,86.5z"/>
	<path id="path7415" class="st13" d="M215.3,86.5c-4,16.1-7.6,31.9-40.6,39.5l39.1,0.4L215.3,86.5z"/>
	<path id="path4831" class="st15" d="M145.9,136.2l26.6,0c1.8,5.7,6.8,9.1,12.5,12.2l-52.1-0.1C138.8,145,143.3,141.1,145.9,136.2z"
		/>
	<path id="path5706" class="st15" d="M138.1,153.2l41.8,0c3.1,4.7,7.4,8.7,12.7,12.3l-66.9,0C130.2,161.9,134.9,158.4,138.1,153.2z"
		/>
	<path id="path6581" class="st16" d="M95.2,170.2L221,170l-2.4,24.1c-7.5,1-14.5,2.8-19.2,7.2L117,201c-5-4.8-11.5-7.3-18.7-8.7
		L95.2,170.2z"/>
	<path id="path7458" class="st17" d="M98,172.9l1.6,11l25,0.1l0.1-11.2L98,172.9z"/>
	<path id="path8333" class="st18" d="M218.1,172.9l-1.3,11.3l-25,0.1l-0.2-11.4L218.1,172.9z"/>
	
		<rect id="rect8335" x="152.8" y="147.9" transform="matrix(4.756655e-03 -1 1 4.756655e-03 -20.6895 336.0221)" class="st19" width="11.3" height="61"/>
	<path id="path9222" class="st13" d="M100.2,186.7l0.5,3.6c6.4,1.3,12.8,3.7,17.6,8.3l7,0l-0.1-12L100.2,186.7z"/>
	
		<rect id="rect10097" x="152.5" y="162.3" transform="matrix(4.481630e-03 -1 1 4.481630e-03 -35.0316 350.323)" class="st20" width="11.8" height="61"/>
	<path id="path10099" class="st13" d="M216.7,187.2l-0.3,4.5c-6.4,1.3-12.6,2.5-17.4,7.1l-7,0l0-11.5L216.7,187.2z"/>
	<path id="path10985" class="st13" d="M245.3,85.7c-4.8,20.4-12.5,33.2-30.3,39.6l-1.2,42.2l24.8,0.1l1.9-37.9L245.3,85.7z"/>
	<rect id="rect9807" x="99.8" y="248.2" class="st21" width="16.8" height="10.6"/>
	<path id="path2322" class="st22" d="M116.4,246.8l0.2,10.8"/>
	<path id="path18936" class="st23" d="M103.2,257.9l0-6.7c3.7,0.5,8,1.4,12.4-1.9c0.9-1.2,2.5-5-4.8-6.4c-5.8-0.7-10.5-0.5-14.5,0.2
		c-4.5,1.2-6.6,3.9-7.5,7.5c-0.1,2.1-0.2,3.1,0.1,5.2C93.6,256.5,98,258.2,103.2,257.9z"/>
	<path id="path1447" class="st24" d="M88.8,255.4c0,6-0.3,17.4,0.7,18.8c3.1,4.5,8.5,6.6,16.9,6.6c18.9-1.8,40-8.1,50-8.5
		c11.7-0.7,33.8,9.7,54.8,10.5c9.6-0.4,12.7-3.6,15.6-6.8l0.2-22.8c-3.3,2.5-6.5,7.7-16,6.9c-22.5-1.7-33.4-9.2-53.2-10.7
		c-19.8,1-25.9,5.2-38.5,7.8C109.2,259.6,98.2,258.1,88.8,255.4z"/>
	<path id="path3943" class="st25" d="M166.5,72.2l-4.2,3.9l1.1,5.5l-5.3-2.5l-5.2,2.7l0.9-5.5l-4.3-3.8l5.9-0.9l2.5-5l2.7,4.9
		L166.5,72.2z"/>
	<path id="path6303" class="st23" d="M212.1,260.2l0.3-7.7c-3.7,0.5-8.1,0.6-12.4-2.8c-0.9-1.2-2.6-4.1,4.7-5.5
		c5.8-0.7,10.3-0.4,14.4,0.3c4.5,1.2,7.3,3.4,8.1,7c0.1,2.1,0.1,1.5-0.2,3.6C222.3,258,221.2,260.2,212.1,260.2z"/>
	<path id="path6305" class="st26" d="M199,247.7l0.2,10.8"/>
	<text transform="matrix(1 -8.185320e-03 8.185320e-03 1 95.1467 275.2735)" class="st27 st10 st28">T</text>
	<text transform="matrix(1 -8.185320e-03 8.185320e-03 1 95.1467 275.2735)" class="st29 st10 st28">T</text>
	<text transform="matrix(0.9997 -2.639247e-02 2.639247e-02 0.9997 106.629 274.4946)" class="st27 st10 st28">U</text>
	<text transform="matrix(0.9997 -2.639247e-02 2.639247e-02 0.9997 106.629 274.4946)" class="st29 st10 st28">U</text>
	<text transform="matrix(0.9969 -7.865282e-02 7.865282e-02 0.9969 119.6513 272.6766)" class="st27 st10 st28">A</text>
	<text transform="matrix(0.9969 -7.865282e-02 7.865282e-02 0.9969 119.6513 272.6766)" class="st29 st10 st28">A</text>
	<text transform="matrix(0.9943 -0.1066 0.1066 0.9943 132.3411 270.6204)" class="st27 st10 st30">H</text>
	<text transform="matrix(0.9943 -0.1066 0.1066 0.9943 132.3411 270.6204)" class="st29 st10 st30">H</text>
	<text transform="matrix(1 0 0 1 151.0925 267.5054)" class="st27 st10 st28">S</text>
	<text transform="matrix(1 0 0 1 151.0925 267.5054)" class="st29 st10 st28">S</text>
	<text transform="matrix(0.9931 0.117 -0.117 0.9931 161.0885 267.7195)" class="st27 st10 st30">A</text>
	<text transform="matrix(0.9931 0.117 -0.117 0.9931 161.0885 267.7195)" class="st29 st10 st30">A</text>
	<text transform="matrix(0.9725 0.2328 -0.2328 0.9725 173.0988 269.5801)" class="st27 st10 st28">K</text>
	<text transform="matrix(0.9725 0.2328 -0.2328 0.9725 173.0988 269.5801)" class="st29 st10 st28">K</text>
	<text transform="matrix(0.9749 0.2225 -0.2225 0.9749 184.9771 272.3923)" class="st27 st10 st28">A</text>
	<text transform="matrix(0.9749 0.2225 -0.2225 0.9749 184.9771 272.3923)" class="st29 st10 st28">A</text>
	<text transform="matrix(0.9896 0.1442 -0.1442 0.9896 197.2427 275.4059)" class="st27 st10 st28">T</text>
	<text transform="matrix(0.9896 0.1442 -0.1442 0.9896 197.2427 275.4059)" class="st29 st10 st28">T</text>
	<text transform="matrix(1 0 0 1 207.8913 277.022)" class="st27 st10 st28">O</text>
	<text transform="matrix(1 0 0 1 207.8913 277.022)" class="st29 st10 st28">O</text>
</g>
</svg>
