<?xml version="1.0" encoding="UTF-8" standalone="no"?>
<svg
   xmlns:dc="http://purl.org/dc/elements/1.1/"
   xmlns:cc="http://creativecommons.org/ns#"
   xmlns:rdf="http://www.w3.org/1999/02/22-rdf-syntax-ns#"
   xmlns:svg="http://www.w3.org/2000/svg"
   xmlns="http://www.w3.org/2000/svg"
   xmlns:xlink="http://www.w3.org/1999/xlink"
   xmlns:sodipodi="http://sodipodi.sourceforge.net/DTD/sodipodi-0.dtd"
   xmlns:inkscape="http://www.inkscape.org/namespaces/inkscape"
   width="374.014"
   height="589.678"
   viewBox="0 0 98.958 156.019"
   version="1.1"
   id="svg401"
   sodipodi:docname="Coat_of_arms_of_Central_Sulawesi (1).svg"
   inkscape:version="1.0.1 (3bc2e813f5, 2020-09-07)">
  <metadata
     id="metadata405">
    <rdf:RDF>
      <cc:Work
         rdf:about="">
        <dc:format>image/svg+xml</dc:format>
        <dc:type
           rdf:resource="http://purl.org/dc/dcmitype/StillImage" />
      </cc:Work>
    </rdf:RDF>
  </metadata>
  <sodipodi:namedview
     pagecolor="#ffffff"
     bordercolor="#666666"
     borderopacity="1"
     objecttolerance="10"
     gridtolerance="10"
     guidetolerance="10"
     inkscape:pageopacity="0"
     inkscape:pageshadow="2"
     inkscape:window-width="1366"
     inkscape:window-height="705"
     id="namedview403"
     showgrid="false"
     inkscape:zoom="1.0790705"
     inkscape:cx="180.42389"
     inkscape:cy="247.77005"
     inkscape:window-x="-8"
     inkscape:window-y="-8"
     inkscape:window-maximized="1"
     inkscape:current-layer="svg401" />
  <style
     id="style2"><![CDATA[.S{fill:#f5c742}.T{fill:#ffeba3}.U{stroke:#a07843}.V{fill:#268437}.W{fill:#fff}.X{stroke-width:.665}.Y{fill:#113e34}.Z{opacity:.998}.a{stroke-width:.291}.b{stroke-width:.565}.c{fill:none}.d{stroke:#14471e}.e{opacity:.999}.f{fill:#1f6c2d}.g{stroke-linejoin:bevel}.h{fill:#2d9d41}.i{fill-rule:evenodd}.j{opacity:.994}.k{stroke-width:.346}]]></style>
  <defs
     id="defs41">
    <linearGradient
       id="A"
       gradientUnits="userSpaceOnUse">
      <stop
         offset="0"
         stop-color="#67582e"
         id="stop4" />
      <stop
         offset="1"
         stop-color="#9a8445"
         id="stop6" />
    </linearGradient>
    <linearGradient
       xlink:href="#A"
       id="B"
       x1="346.522"
       y1="177.985"
       x2="351.459"
       y2="178.032" />
    <linearGradient
       xlink:href="#A"
       id="C"
       x1="346.02"
       y1="158.691"
       x2="351.605"
       y2="158.691" />
    <path
       id="D"
       d="M6.124 18.918l1.269-.205q.115 1.059.463 1.556.353.497.947.497.63 0 .947-.438.322-.446.322-1.037 0-.38-.136-.642-.132-.271-.467-.467-.229-.132-1.044-.467-1.049-.431-1.471-1.059-.595-.884-.595-2.154 0-.818.277-1.526.282-.715.806-1.088.528-.372 1.273-.372 1.216 0 1.828.884.617.884.648 2.358l-1.304.094q-.083-.825-.362-1.183-.273-.365-.824-.365-.568 0-.89.387-.207.248-.207.664 0 .38.194.649.247.343 1.198.715.952.372 1.406.774.458.395.714 1.088.26.687.26 1.701 0 .92-.309 1.723-.309.803-.872 1.197-.564.387-1.406.387-1.225 0-1.881-.935-.657-.942-.784-2.738z" />
    <path
       id="E"
       d="M30.325 22.401h-1.419l-.564-2.431h-2.582l-.533 2.431h-1.383l2.515-10.703h1.379zm-2.401-4.235l-.89-3.972-.872 3.972z" />
    <path
       id="F"
       d="M25.892 127.095c5.276-.125 6.947 1.002 7.465 2.504-2.046-1.455-4.82-1.889-7.465-2.504z" />
    <path
       id="G"
       d="M34.301 119.961c1.19 2.04 3.239 2.863 3.071 6.827-.778-3.259-2.009-4.705-3.071-6.827z" />
    <path
       id="H"
       d="M330.12 195.904c10.035-.316 9.747.83 13.402 4.003l2.073.338-2.238-.22c-6.219 2.764-9.71-.72-13.237-4.121z" />
    <path
       id="I"
       d="M330.12 195.904l.82-.023c9.202-.227 9.03.942 12.582 4.026l2.168.804-2.334-.686c-5.868 2.608-9.307-.346-12.639-3.545-.199-.191-2.581-.898-2.78-1.09z" />
    <path
       id="J"
       d="M324.242 143.728c-5.473-12.181 15.099-24.744 24.455-8.887l-.468 1.403-3.074.935c-6.723-3.75-12.525-2.413-16.738 3.642-2.453 2.619-3.519 2.716-4.176 2.907z" />
    <path
       id="K"
       d="M324.034 143.232c3.739-8.372 10.221-17.189 24.196-6.988" />
    <path
       id="L"
       d="M323.554 141.651l1.666-.882.318 2.482m-2.191-3.114l2.637-.751m-2.635-.414l2.974-.151m-.339.565l.519 3.226m-2.964-5.052l3.599.018.067 4.445m-3.372-5.57l4.274-.158-.104 4.959m-3.739-5.913l4.67.017.12 4.602m-4.155-5.834l4.975.322.108 4.42m-4.15-6.089l4.852 1.008.3 4.1m-3.885-6.497l4.774 1.612-.206 4.319" />
    <path
       id="M"
       d="M328.147 130.482l4.817 1.975-.452 4.268" />
    <path
       id="N"
       d="M333.263 136.284l1.099-4.305m-5.088-2.299l5.088 2.299m-3.252-3.303l3.726 3.192" />
    <path
       id="O"
       d="M332.326 128.184l3.407 3.54-1.979 4.314" />
    <path
       id="P"
       d="M334.646 135.67l2.492-4.012-3.696-3.817" />
    <path
       id="Q"
       d="M334.997 127.525l3.696 4.266-3.248 3.63" />
    <path
       id="R"
       d="M336.806 135.161l3.068-3.137-3.348-4.629" />
    <path
       id="S"
       d="M338.215 127.461l2.802 4.886-2.976 2.74" />
    <path
       id="T"
       d="M338.732 135.11l3.562-2.294-2.724-5.134" />
    <path
       id="U"
       d="M341.261 128.184l2.347 5.221-3.973 1.798" />
    <path
       id="V"
       d="M340.605 135.381l3.968-1.476-1.727-4.991" />
    <path
       id="W"
       d="M344.502 129.99l.997 4.443-3.659 1.284m3.949-4.621l1.021 4.16-3.902.845" />
    <path
       id="X"
       d="M332.577 154.619c-1.076.824-2.287 7.908-5.479 1.804-2.324-13.803 11.174-19.977 14.232-19.778h4.878l2.806 2.205-2.472 2.873c-3.982.492-10.094 4.013-13.965 12.896z" />
    <path
       id="Y"
       d="M348.999 138.868c-13.602.498-19.624 9.087-20.182 19.808" />
    <path
       id="Z"
       d="M327.098 156.423l2.158-1.493 1.355 3.216m.579-.94l-1.499-4.184-2.787 1.896m-.073-1.502l3.401-2.119 1.561 4.643m-4.888-4.213l3.777-1.576 1.755 4.608m-5.37-4.247l4.264-1.733 1.809 4.618m-5.626-4.771l4.596-1.2 1.426 5.185m-5.539-5.343l4.838-.9 1.143 5.427m-5.237-6.093l4.86-.296.964 5.391m-5.036-6.394l5.158-.15.565 5.487m-4.911-6.448l5.556-.103.234 5.343m-4.711-6.48l5.644.284-.238 5.341m-3.878-7.062l5.146 1.082-.235 4.849m-3.25-7.193l4.647 1.732-.434 4.537m-2.922-7.083l4.535 2.025-.619 4.223m-2.737-6.88l4.462 2.247-.731 3.905m-2.357-6.758l4.173 2.517-.903 3.661m-2.029-6.593l3.786 2.708-.683 3.304m-1.467-6.253l3.536 2.658-.833 3.06m-.868-5.717l2.666 2.692-.699 2.668" />
    <path
       id="a"
       d="M356.187 135.18c0 .521-.207 1.021-.575 1.389s-.868.575-1.389.575-1.021-.207-1.389-.575-.575-.868-.575-1.389.207-1.021.575-1.389.868-.575 1.389-.575 1.021.207 1.389.575.575.868.575 1.389z" />
    <path
       id="b"
       d="M971.055 612.641s5.443-2.915 13.489-2.915c13.03 0 18.971 12.313 8.822 46.986-9.563 32.669-32.716 45.354-32.716 45.354l-14.337-.326s-20.591 2.847-41.169-43.071c-15.991-35.681-6.389-45.422 4.411-46.66 11.395-1.305 15.429 2.635 15.429 2.635s-2.196-21.233 22.8-21.233c28.672.001 23.271 19.23 23.271 19.23z" />
    <path
       id="c"
       d="M938.604 694.146s-10.303-7.74-23.535-29.112c-4.249-6.864-9.516-22.229-9.516-22.229l19.257 8.688 13.417-15.663 12.131 14.357 13.232-12.399 11.028 13.705 15.438-5.446s-2.729 16.785-8.979 26.9c-6.489 10.503-17.808 21.198-17.808 21.198h-24.665z" />
    <path
       id="d"
       d="M923.523 645.239l-18.883-7.299s-4.948-12.571.913-19.058c6.393-7.075 22.842.545 22.842.545s-.725-21.062 19.555-22.031c22.622-1.081 19.272 20.274 19.272 20.274s16.293-6.488 23.906-.136c4.771 3.982-.152 23.654-.152 23.654l-15.255 4.051-11.396-13.705-13.233 11.42-13.233-12.726z" />
    <path
       id="e"
       d="M941.877 1000.402s-11.415-8.666-26.077-32.595c-4.708-7.686-10.544-24.888-10.544-24.888l21.337 9.727 14.867-17.536 13.44 16.074 14.662-13.883 12.22 15.345 17.106-6.097s-3.024 18.793-9.948 30.119c-7.19 11.759-19.731 23.733-19.731 23.733h-27.332z" />
    <path
       id="f"
       d="M921.953 1157.543s-8.885-11.245-17.095-38.081c-2.636-8.618-3.982-26.733-3.982-26.733l18.225 14.755 18.782-13.26 8.992 18.925 17.668-9.773 7.992 17.914 18.088-1.623s-7.629 17.438-17.166 26.672c-9.903 9.587-25.042 18.043-25.042 18.043z" />
    <path
       id="g"
       d="M919.473 1100.347l-18.213-13.146s-1.787-15.001 6.316-20.408c8.84-5.897 24.353 6.922 24.353 6.922s5.122-23.031 27.149-18.463c24.57 5.1 14.996 27.321 14.996 27.321s19.297-2.518 25.685 6.479c4.004 5.64-6.789 25.6-6.789 25.6l-17.5.164-8.387-18.015-17.394 8.711-10.634-17.462z" />
  </defs>
  <g
     class="i"
     id="g53">
    <path
       d="M3.725 33.345h91.507v79.221.04c.065 5.631-1.584 9.704-4.447 13.305s-7.072 6.659-12 9.464c-9.079 5.168-20.416 9.316-29.306 15.952-8.89-6.636-20.227-10.785-29.306-15.952-4.929-2.805-9.137-5.864-12-9.464s-4.512-7.673-4.448-13.305v-.04z"
       fill="#0000cd"
       class="j"
       id="path43" />
    <path
       d="M95.232 33.345v79.221.04c.065 5.631-1.584 9.704-4.447 13.305s-7.072 6.659-12 9.464c-9.079 5.168-20.416 9.316-29.306 15.952-8.89-6.636-20.227-10.785-29.306-15.952-1.646-.937-3.211-1.901-4.673-2.905z"
       fill="gold"
       class="j"
       id="path45" />
    <path
       d="M3.725 3.723h91.507v26.271H3.725z"
       class="W e"
       id="path47" />
    <path
       d="M.209.208v112.358c-.293 25.536 32.467 29.041 49.269 43.182 16.802-14.142 49.563-17.647 49.269-43.182V.208h-49.27zm3.515 3.515h45.753 45.754v26.271H3.724zm0 29.622h91.507v79.221.04c.065 5.631-1.584 9.704-4.447 13.305s-7.072 6.659-12 9.464c-9.079 5.168-20.416 9.316-29.306 15.952-8.89-6.636-20.227-10.785-29.306-15.952-4.929-2.805-9.137-5.864-12-9.464s-4.512-7.673-4.448-13.305v-.04z"
       stroke="#696969"
       stroke-width=".415"
       fill="#d3d3d3"
       class="j"
       id="path49" />
    <path
       d="M1.211 1.21v111.356c-.071 6.181 1.824 10.921 4.994 14.908s7.654 7.2 12.725 10.086c9.91 5.641 21.963 10.008 30.549 16.969 8.586-6.961 20.639-11.329 30.549-16.969 5.07-2.886 9.554-6.099 12.725-10.086s5.065-8.727 4.994-14.896V1.21H49.479zm2.514 1.512h45.754 45.754c.553 0 1.002.449 1.002 1.002v26.272c0 .553-.449 1.002-1.002 1.002H3.725c-.553 0-1.002-.449-1.002-1.002V3.723c0-.553.449-1.002 1.002-1.002zm0 29.622h91.508c.553 0 1.002.449 1.002 1.002v79.221.027c.067 5.832-1.688 10.197-4.664 13.939-2.989 3.759-7.301 6.874-12.289 9.713-9.19 5.231-20.48 9.372-29.203 15.883-.356.265-.844.265-1.199 0-8.723-6.512-20.012-10.653-29.201-15.883-4.988-2.839-9.302-5.953-12.291-9.711-2.974-3.739-4.728-8.103-4.664-13.93v-.012-.027-79.221c0-.553.449-1.002 1.002-1.002z"
       class="W"
       id="path51" />
  </g>
  <g
     id="g1295">
    <path
       d="M38.297 112.156l-2.639 2.035.805 1.041 1.834-1.414 2.236 1.725 2.236-1.725 2.236 1.725 2.236-1.725 2.236 1.725 2.236-1.725 2.236 1.725 2.236-1.725 2.236 1.725 2.236-1.725 1.836 1.414.803-1.041-2.639-2.035-2.236 1.725-2.236-1.725-2.236 1.725-2.236-1.725-2.236 1.725-2.236-1.725-2.236 1.725-2.236-1.725-2.236 1.725zm4.473 8.42l-2.639 2.033.805 1.043 1.834-1.416 2.236 1.725 2.236-1.725 2.236 1.725 2.236-1.725 2.236 1.725 2.236-1.725 1.836 1.416.803-1.043-2.639-2.033-2.236 1.725-2.236-1.725-2.236 1.725-2.236-1.725-2.236 1.725z"
       fill-opacity=".996"
       stroke-opacity=".996"
       fill="#4269aa"
       stroke="#2d4773"
       stroke-width=".315"
       class="Z"
       id="path55" />
  </g>
  <g
     fill="#ed3237"
     class="e"
     id="g73">
    <use
       xlink:href="#D"
       id="use57" />
    <path
       d="M12.465 11.697h1.304v5.797q0 1.38.048 1.789.083.657.396 1.059.317.395.864.395.555 0 .837-.372.282-.38.339-.927.057-.548.057-1.818v-5.921h1.304v5.622q0 1.927-.106 2.723-.106.796-.392 1.343-.282.548-.758.876-.476.321-1.242.321-.925 0-1.406-.35-.476-.358-.754-.92-.277-.57-.366-1.191-.128-.92-.128-2.716zm6.56 10.703V11.785h1.304v8.812h3.243v1.804z"
       id="path59" />
    <use
       xlink:href="#E"
       id="use61" />
    <path
       d="M31.436 22.401l-1.542-10.703h1.335l.974 7.352 1.181-7.352h1.551l1.132 7.477.991-7.477h1.313l-1.568 10.703h-1.383l-1.286-8.002-1.282 8.002zm7.6 0V11.697h4.789v1.81H40.34v2.373h3.243v1.804H40.34v2.913h3.608v1.804z"
       id="path63" />
    <use
       xlink:href="#D"
       x="38.6"
       id="use65" />
    <path
       d="M51.033 22.401V11.697h1.304v10.703zm6.507 0v-8.893h-1.916v-1.81h5.133v1.81h-1.912v8.893zm4.058 0V11.697h4.789v1.81h-3.485v2.373h3.243v1.804h-3.243v2.913h3.608v1.804zm6.031 0V11.697h1.269l2.644 7.148v-7.148h1.212v10.703h-1.309l-2.604-6.98v6.98zm9.508-3.936v-1.804h2.811v4.264q-.41.657-1.189 1.161-.775.497-1.573.497-1.014 0-1.767-.701-.754-.708-1.132-2.015-.379-1.315-.379-2.854 0-1.672.423-2.971.423-1.3 1.238-1.993.621-.533 1.547-.533 1.203 0 1.877.839.678.832.872 2.307l-1.295.401q-.136-.788-.516-1.241-.374-.46-.938-.46-.855 0-1.362.898-.502.898-.502 2.665 0 1.906.511 2.862.511.949 1.339.949.41 0 .82-.263.414-.271.71-.649v-1.358z"
       id="path67" />
    <use
       xlink:href="#E"
       x="56.65"
       id="use69" />
    <path
       d="M87.671 22.401V11.697h1.304v4.213h2.556v-4.213h1.304v10.703H91.53v-4.68h-2.556v4.68z"
       id="path71" />
  </g>
  <g
     class="i"
     id="g81"
     transform="translate(-0.001)">
    <path
       d="m 49.48,35.473 -1.728,5.319 H 42.16 l 4.524,3.287 -1.728,5.319 4.524,-3.287 4.524,3.287 -1.728,-5.319 4.524,-3.288 h -5.591 z"
       fill="#a07843"
       class="e"
       id="path75" />
    <path
       d="m 49.48,36.518 -1.494,4.596 h -4.833 l 3.91,2.841 -1.494,4.597 3.91,-2.841 3.91,2.841 -1.494,-4.596 3.91,-2.841 h -4.832 z"
       class="S e"
       id="path77" />
    <path
       d="m 49.48,36.518 -1.494,4.596 1.494,2.056 -6.327,-2.056 3.91,2.841 2.416,-0.785 -3.91,5.382 3.91,-2.841 V 43.17 l 3.91,5.382 -1.494,-4.596 -2.416,-0.786 6.327,-2.056 H 50.974 L 49.48,43.17 Z"
       class="T e"
       id="path79" />
  </g>
  <g
     id="g1287">
    <g
       class="U"
       id="g87">
      <path
         d="M37.798 130.284l-6.26-5.244-7.472-7.574-5.011-7.951.2-1.537c-.953-2.383-2.161-4.488-1.403-8.753-1.007-2.711-1.786-5.513-1.47-8.753l.067-9.689-.334-9.755.935-1.537-.601-8.553.334-9.555"
         class="b c"
         id="path83" />
      <path
         d="M23.262 126.21c10.636-.455 9.747.83 13.402 4.003l2.126.095-2.291.024c-6.219 2.764-9.71-.72-13.237-4.121z"
         class="S X"
         id="path85" />
    </g>
    <use
       xlink:href="#F"
       class="T"
       id="use89" />
    <path
       d="M38.837 130.662l2.835 2.268-.378-2.102c-8.185-3.732-8.239-9.234-7.907-13.73 4.697 5.271 5.211 6.422 5.45 13.564z"
       class="S U b"
       id="path91" />
    <use
       xlink:href="#G"
       class="T"
       id="use93" />
    <g
       transform="rotate(13.031 517.864 -1220.402)"
       id="g99">
      <path
         d="M330.12 195.904c10.035-.316 9.747.83 13.402 4.003l3.911.263-4.076-.145c-6.219 2.764-9.71-.72-13.237-4.121z"
         class="S U X"
         id="path95" />
      <use
         xlink:href="#F"
         x="306.858"
         y="69.694"
         class="T"
         id="use97" />
    </g>
    <g
       transform="matrix(.805216 .308658 -.257421 .965488 -203.70989 -182.19691)"
       id="g105">
      <path
         d="M330.12 195.904c10.035-.316 9.747.83 13.402 4.003l4.298.189-4.463-.071c-6.219 2.764-9.71-.72-13.237-4.121z"
         class="S U X"
         id="path101" />
      <use
         xlink:href="#F"
         x="306.858"
         y="69.694"
         class="T"
         id="use103" />
    </g>
    <g
       transform="matrix(.720687 .473554 -.457739 .888205 -137.16958 -230.72629)"
       id="g111">
      <path
         d="M327.584 194.543c.173-.005 2.879 1.35 3.045 1.346 9.517-.261 7.989.659 11.581 3.777l2.01.336-2.176-.218c-6.043 2.686-8.199-.287-11.626-3.592-.099-.096-2.735-1.553-2.835-1.649z"
         class="S U X"
         id="path107" />
      <use
         xlink:href="#F"
         x="306.858"
         y="69.694"
         class="T"
         id="use109" />
    </g>
    <g
       transform="matrix(.644787 .57262 -.58115 .812833 -88.91248 -258.95536)"
       id="g117">
      <use
         xlink:href="#H"
         class="S U X"
         id="use113" />
      <use
         xlink:href="#F"
         x="306.858"
         y="69.694"
         class="T"
         id="use115" />
    </g>
    <g
       transform="matrix(.594222 .624935 -.6476 .760951 -59.44191 -276.17747)"
       id="g123">
      <use
         xlink:href="#H"
         class="S U X"
         id="use119" />
      <use
         xlink:href="#F"
         x="306.858"
         y="69.694"
         class="T"
         id="use121" />
    </g>
    <g
       transform="matrix(.594222 .624935 -.6476 .760951 -59.15843 -285.91036)"
       id="g129">
      <path
         d="M327.325 194.578c.125-.004 3.044 1.319 3.166 1.315 9.657-.276 9.422.881 13.031 4.014l2.073.338-2.238-.22c-6.07 2.698-9.541-.557-12.983-3.877-.084-.081-2.964-1.489-3.048-1.571z"
         class="S U X"
         id="path125" />
      <use
         xlink:href="#F"
         x="306.858"
         y="69.694"
         class="T"
         id="use127" />
    </g>
    <g
       transform="matrix(.594222 .624935 -.6476 .760951 -59.30017 -297.34414)"
       id="g135">
      <path
         d="M329.072 195.381c.154-.005 1.353.513 1.502.509 9.573-.267 9.349.892 12.948 4.017l2.073.338-2.238-.22c-6.068 2.697-9.539-.554-12.98-3.874-.086-.083-1.219-.688-1.304-.77z"
         class="S U X"
         id="path131" />
      <use
         xlink:href="#F"
         x="306.858"
         y="69.694"
         class="T"
         id="use133" />
    </g>
    <g
       transform="matrix(.594222 .624935 -.6476 .760951 -59.15843 -307.17152)"
       id="g141">
      <path
         d="M327.488 194.005c.158-.005 2.946 1.89 3.099 1.886 9.56-.265 9.338.894 12.935 4.017l2.073.338-2.238-.22c-6.014 2.673-9.477-.497-12.888-3.785-.116-.112-2.865-2.124-2.981-2.236z"
         class="S U X"
         id="path137" />
      <use
         xlink:href="#F"
         x="306.858"
         y="69.694"
         class="T"
         id="use139" />
    </g>
    <g
       transform="matrix(1.007693 .143477 -.158104 .874452 -285.21608 -100.68898)"
       id="g147">
      <path
         d="M348.989 203.405c-1.939-1.272-2.898-2.533-3.799-4.062-3.637-2.167-5.165-7.433-4.971-12.076.007-.159-.92-3.106-.909-3.264.132.148 1.195 3.08 1.32 3.222 4.094 4.628 4.765 6.031 5.023 12 .615 1.323 2.084 3.177 3.337 4.179z"
         class="S U b"
         id="path143" />
      <use
         xlink:href="#G"
         x="306.858"
         y="69.694"
         class="T"
         id="use145" />
    </g>
    <g
       transform="matrix(.953196 .357 -.342607 .819929 -236.06319 -170.31725)"
       id="g153">
      <path
         d="M348.272 202.434c-1.939-1.272-2.181-1.562-3.082-3.09-3.637-2.167-5.165-7.433-4.971-12.076.007-.159-.92-3.106-.909-3.264.132.148 1.195 3.08 1.32 3.222 4.094 4.628 4.765 6.031 5.023 12 .615 1.323 1.367 2.206 2.62 3.208z"
         class="S U b"
         id="path149" />
      <use
         xlink:href="#G"
         x="306.858"
         y="69.694"
         class="T"
         id="use151" />
    </g>
    <g
       transform="matrix(.791847 .639539 -.583829 .66993 -136.84867 -247.6176)"
       id="g159">
      <path
         d="M346.202 202.012c-.638-2.056-.132-1.332-1.033-2.86-6.556-4.297-4.308-7.785-5.551-13.397 4.604 6.513 6.112 7.608 6.014 13.279-.022.4-.103.724.571 2.978z"
         class="S U b"
         id="path155" />
      <use
         xlink:href="#G"
         x="306.858"
         y="69.694"
         class="T"
         id="use157" />
    </g>
    <g
       transform="matrix(.787364 .64505 -.58849 .665839 -135.61209 -257.62263)"
       id="g165">
      <path
         d="M345.505 201.14c-.381-1.114.193-.313-.79-1.87-3.637-2.167-4.691-7.361-4.497-12.003.007-.159-.92-3.106-.909-3.264.132.148 1.195 3.08 1.32 3.222 4.094 4.628 4.14 5.998 4.398 11.967.615 1.323.689 1.018.478 1.948z"
         class="S U b"
         id="path161" />
      <use
         xlink:href="#G"
         x="306.858"
         y="69.694"
         class="T"
         id="use163" />
    </g>
    <g
       transform="matrix(-.06784 .859675 -.998859 .026712 240.29085 -211.44517)"
       id="g171">
      <use
         xlink:href="#I"
         class="S U X"
         id="use167" />
      <use
         xlink:href="#F"
         x="306.858"
         y="69.694"
         class="T"
         id="use169" />
    </g>
    <g
       transform="matrix(-.06784 .859675 -.998859 .026712 240.19636 -220.5166)"
       id="g177">
      <use
         xlink:href="#I"
         class="S U X"
         id="use173" />
      <use
         xlink:href="#F"
         x="306.858"
         y="69.694"
         class="T"
         id="use175" />
    </g>
    <g
       transform="matrix(-.06784 .859675 -.998859 .026712 240.85782 -232.42285)"
       id="g183">
      <use
         xlink:href="#I"
         class="S U X"
         id="use179" />
      <use
         xlink:href="#F"
         x="306.858"
         y="69.694"
         class="T"
         id="use181" />
    </g>
    <g
       transform="matrix(-.06784 .859675 -.998859 .026712 240.57434 -241.49428)"
       id="g189">
      <use
         xlink:href="#I"
         class="S U X"
         id="use185" />
      <use
         xlink:href="#F"
         x="306.858"
         y="69.694"
         class="T"
         id="use187" />
    </g>
    <g
       transform="matrix(.272609 .818124 -.909445 .413934 105.00813 -313.1732)"
       id="g195">
      <path
         d="M330.94 195.881c9.202-.227 9.03.942 12.582 4.026l2.168.804-2.334-.686c-5.868 2.608-9.307-.346-12.639-3.545-.199-.191-1.301-.441-1.5-.633.561.067 1.195.048 1.722.034z"
         class="S U X"
         id="path191" />
      <use
         xlink:href="#F"
         x="306.858"
         y="69.694"
         class="T"
         id="use193" />
    </g>
  </g>
  <g
     transform="translate(-299.48697,-69.694)"
     id="g313">
    <g
       class="d a"
       id="g281">
      <g
         class="V"
         id="g201">
        <path
           d="m 349.806,133.809 c -0.322,-3.019 -1.60274,-5.6447 -1.40474,-9.0097 0.608,-2.105 0.49645,-4.1909 0.82445,-6.1839 0.15,2.809 -0.2682,5.50535 1.1708,8.42635 0.106,3.746 -0.0805,5.36525 -0.59151,6.76825 z"
           id="path197"
           sodipodi:nodetypes="cccccc" />
        <use
           xlink:href="#J"
           id="use199"
           x="0"
           y="0"
           width="100%"
           height="100%" />
      </g>
      <g
         class="c"
         id="g229">
        <use
           xlink:href="#K"
           id="use203"
           x="0"
           y="0"
           width="100%"
           height="100%" />
        <use
           xlink:href="#L"
           id="use205"
           x="0"
           y="0"
           width="100%"
           height="100%" />
        <use
           xlink:href="#M"
           id="use207"
           x="0"
           y="0"
           width="100%"
           height="100%" />
        <use
           xlink:href="#N"
           id="use209"
           x="0"
           y="0"
           width="100%"
           height="100%" />
        <use
           xlink:href="#O"
           id="use211"
           x="0"
           y="0"
           width="100%"
           height="100%" />
        <use
           xlink:href="#P"
           id="use213"
           x="0"
           y="0"
           width="100%"
           height="100%" />
        <use
           xlink:href="#Q"
           id="use215"
           x="0"
           y="0"
           width="100%"
           height="100%" />
        <use
           xlink:href="#R"
           id="use217"
           x="0"
           y="0"
           width="100%"
           height="100%" />
        <use
           xlink:href="#S"
           id="use219"
           x="0"
           y="0"
           width="100%"
           height="100%" />
        <use
           xlink:href="#T"
           id="use221"
           x="0"
           y="0"
           width="100%"
           height="100%" />
        <use
           xlink:href="#U"
           id="use223"
           x="0"
           y="0"
           width="100%"
           height="100%" />
        <use
           xlink:href="#V"
           id="use225"
           x="0"
           y="0"
           width="100%"
           height="100%" />
        <use
           xlink:href="#W"
           id="use227"
           x="0"
           y="0"
           width="100%"
           height="100%" />
      </g>
      <g
         transform="matrix(-1,0,0,1,697.93195,0)"
         id="g261">
        <use
           xlink:href="#J"
           class="V"
           id="use231"
           x="0"
           y="0"
           width="100%"
           height="100%" />
        <g
           class="c"
           id="g259">
          <use
             xlink:href="#K"
             id="use233"
             x="0"
             y="0"
             width="100%"
             height="100%" />
          <use
             xlink:href="#L"
             id="use235"
             x="0"
             y="0"
             width="100%"
             height="100%" />
          <use
             xlink:href="#M"
             id="use237"
             x="0"
             y="0"
             width="100%"
             height="100%" />
          <use
             xlink:href="#N"
             id="use239"
             x="0"
             y="0"
             width="100%"
             height="100%" />
          <use
             xlink:href="#O"
             id="use241"
             x="0"
             y="0"
             width="100%"
             height="100%" />
          <use
             xlink:href="#P"
             id="use243"
             x="0"
             y="0"
             width="100%"
             height="100%" />
          <use
             xlink:href="#Q"
             id="use245"
             x="0"
             y="0"
             width="100%"
             height="100%" />
          <use
             xlink:href="#R"
             id="use247"
             x="0"
             y="0"
             width="100%"
             height="100%" />
          <use
             xlink:href="#S"
             id="use249"
             x="0"
             y="0"
             width="100%"
             height="100%" />
          <use
             xlink:href="#T"
             id="use251"
             x="0"
             y="0"
             width="100%"
             height="100%" />
          <use
             xlink:href="#U"
             id="use253"
             x="0"
             y="0"
             width="100%"
             height="100%" />
          <use
             xlink:href="#V"
             id="use255"
             x="0"
             y="0"
             width="100%"
             height="100%" />
          <use
             xlink:href="#W"
             id="use257"
             x="0"
             y="0"
             width="100%"
             height="100%" />
        </g>
      </g>
      <use
         xlink:href="#X"
         class="V"
         id="use263"
         x="0"
         y="0"
         width="100%"
         height="100%" />
      <g
         class="c"
         id="g269">
        <use
           xlink:href="#Y"
           id="use265"
           x="0"
           y="0"
           width="100%"
           height="100%" />
        <use
           xlink:href="#Z"
           id="use267"
           x="0"
           y="0"
           width="100%"
           height="100%" />
      </g>
      <g
         transform="matrix(-1,0,0,1,700.44153,0)"
         id="g279">
        <use
           xlink:href="#X"
           x="0.28400001"
           class="V"
           id="use271"
           y="0"
           width="100%"
           height="100%" />
        <g
           class="c"
           id="g277">
          <use
             xlink:href="#Y"
             x="0.28400001"
             id="use273"
             y="0"
             width="100%"
             height="100%" />
          <use
             xlink:href="#Z"
             x="0.28400001"
             id="use275"
             y="0"
             width="100%"
             height="100%" />
        </g>
      </g>
    </g>
    <g
       stroke="#3b321b"
       stroke-width="0.5"
       id="g289">
      <path
         d="m 346.158,176.769 c 0.134,-0.067 5.312,0 5.312,0 1.519,0.671 1.816,1.701 2.312,2.673 h -9.295 c 0.448,-1.151 1.071,-1.885 1.67,-2.673 z"
         fill="url(#B)"
         id="path283"
         style="fill:url(#B)" />
      <path
         d="m 346.158,176.769 1.201,-30.533 c -0.016,-1.212 0.275,-1.686 0.462,-2.411 -0.664,-1.141 -0.364,-2.153 -0.425,-3.213 h 3.355 l 0.719,36.157 z"
         fill="url(#C)"
         id="path285"
         style="fill:url(#C)" />
      <path
         d="m 347.821,143.825 h 2.229 m -2.138,6.802 h 2.238 m -1.72,2.489 H 351 m -1.952,2.606 h -2.062 m 1.644,2.539 h 2.471 m -1.836,2.656 h -2.483 m 1.898,3.374 h 2.541 m -2.557,2.873 h -2.128 m 2.245,3.308 h 2.564 m -2.698,3.207 h -2.367"
         stroke-linecap="round"
         class="c"
         id="path287" />
    </g>
    <g
       class="i"
       id="g311">
      <path
         d="m 346.76,136.078 a 1.704,1.704 0 1 1 -3.408,0 1.704,1.704 0 1 1 3.408,0 z"
         stroke-width="0.3"

         class="Z d f g"
         id="path291"
         style="fill:#369029;fill-opacity:1" />
      <path
         d="m 346.168,135.919 a 0.486,0.486 0 0 1 -0.972,0 0.486,0.486 0 0 1 0.972,0 z"

         class="Z h"
         id="path293"
         style="fill:#45b734;fill-opacity:1" />
      <path
         d="m 352.131,134.448 a 2.42,2.42 0 0 1 -2.421,2.421 2.42,2.42 0 0 1 -2.421,-2.421 2.42,2.42 0 0 1 2.421,-2.421 2.42,2.42 0 0 1 2.421,2.421 z"

         stroke-width="0.426"
         class="Z d f g"
         id="path295"
         style="fill:#369029;fill-opacity:1" />
      <path
         d="m 351.29,134.222 a 0.6905,0.6905 0 1 1 -1.381,0 0.6905,0.6905 0 1 1 1.381,0 z"

         class="Z h"
         id="path297"
         style="fill:#45b734;fill-opacity:1" />
      <path
         id="use299"
         d="m 356.187,135.18 c 0,0.521 -0.207,1.021 -0.575,1.389 -0.368,0.368 -0.868,0.575 -1.389,0.575 -0.521,0 -1.021,-0.207 -1.389,-0.575 -0.368,-0.368 -0.575,-0.868 -0.575,-1.389 0,-0.521 0.207,-1.021 0.575,-1.389 0.368,-0.368 0.868,-0.575 1.389,-0.575 0.521,0 1.021,0.207 1.389,0.575 0.368,0.368 0.575,0.868 0.575,1.389 z"
         style="opacity:0.998;fill:#369029;stroke:#14471e;stroke-width:0.346;stroke-linejoin:bevel;paint-order:markers fill stroke;fill-opacity:1" />
      <path
         d="m 355.504,134.997 a 0.5605,0.5605 0 1 1 -1.121,0 0.5605,0.5605 0 1 1 1.121,0 z"

         class="Z h"
         id="path301"
         style="fill:#45b734;fill-opacity:1" />
      <path
         d="m 354.603,139.74 c 0,0.596 -0.237,1.167 -0.658,1.589 -0.421,0.422 -0.993,0.658 -1.589,0.658 -0.596,0 -1.167,-0.237 -1.589,-0.658 -0.422,-0.421 -0.658,-0.993 -0.658,-1.589 0,-0.596 0.237,-1.167 0.658,-1.589 0.421,-0.422 0.993,-0.658 1.589,-0.658 0.596,0 1.167,0.237 1.589,0.658 0.422,0.421 0.658,0.993 0.658,1.589 z"

         stroke-width="0.396"
         class="Z d f g"
         id="path303"
         style="fill:#369029;fill-opacity:1" />
      <path
         d="m 353.822,139.53 a 0.641,0.641 0 1 1 -1.282,0 0.641,0.641 0 1 1 1.282,0 z"

         class="Z h"
         id="path305"
         style="fill:#45b734;fill-opacity:1" />
      <path
         id="use307"
         d="m 350.044,139.338 c 0,0.521 -0.207,1.021 -0.575,1.389 -0.368,0.368 -0.868,0.575 -1.389,0.575 -0.521,0 -1.021,-0.207 -1.389,-0.575 -0.368,-0.368 -0.575,-0.868 -0.575,-1.389 0,-0.521 0.207,-1.021 0.575,-1.389 0.368,-0.368 0.868,-0.575 1.389,-0.575 0.521,0 1.021,0.207 1.389,0.575 0.368,0.368 0.575,0.868 0.575,1.389 z"
         style="opacity:0.998;fill:#369029;stroke:#14471e;stroke-width:0.346;stroke-linejoin:bevel;paint-order:markers fill stroke;fill-opacity:1" />
      <path
         d="m 349.362,139.155 a 0.5605,0.5605 0 1 1 -1.121,0 0.5605,0.5605 0 1 1 1.121,0 z"

         class="Z h"
         id="path309"
         style="fill:#45b734;fill-opacity:1" />
    </g>
  </g>
  <g
     transform="matrix(.091452 0 0 .091452 -1.485119 .207906)"
     id="g393">
    <path
       d="M968.13 474.512s5.128-3.094 12.709-3.094c12.277 0 17.875 13.07 8.313 49.875-9.01 34.678-30.825 48.144-30.825 48.144l-13.509-.346s-19.401 3.021-38.791-45.719c-15.067-37.875-6.019-48.216 4.156-49.529 10.736-1.385 14.537 2.797 14.537 2.797s-2.068-22.539 21.483-22.539c27.016-.001 21.927 20.411 21.927 20.411z"
       class="Y"
       id="path315" />
    <path
       d="M937.554 561.029s-9.707-8.216-22.176-30.902c-4.004-7.286-8.966-23.595-8.966-23.595l18.145 9.222 12.642-16.625 11.43 15.24 12.469-13.162 10.391 14.547 14.547-5.781s-2.571 17.818-8.46 28.555c-6.114 11.149-16.779 22.501-16.779 22.501z"
       class="V"
       id="path317" />
    <path
       d="M923.344 509.114l-17.792-7.748s-4.662-13.344.86-20.229c6.023-7.51 21.521.578 21.521.578s-.682-22.357 18.426-23.386c21.315-1.148 18.159 21.521 18.159 21.521s15.352-6.887 22.525-.144c4.496 4.227-.144 25.108-.144 25.108l-14.374 4.3-10.737-14.547-12.469 12.122-12.469-13.508z"
       class="W"
       id="path319" />
    <path
       d="M969.189 544.723s5.443-3.208 13.489-3.208c13.03 0 18.971 13.553 8.822 51.716-9.563 35.958-32.716 49.921-32.716 49.921l-14.337-.359s-20.591 3.133-41.169-47.407c-15.991-39.273-6.389-49.996 4.411-51.357 11.395-1.436 15.429 2.9 15.429 2.9s-2.196-23.371 22.8-23.371c28.673 0 23.271 21.165 23.271 21.165z"
       class="Y"
       id="path321" />
    <path
       d="M936.739 634.435s-10.303-8.519-23.535-32.043c-4.249-7.555-9.516-24.467-9.516-24.467l19.257 9.563 13.417-17.24 12.131 15.803 13.232-13.648 11.028 15.085 15.438-5.994s-2.729 18.475-8.979 29.609c-6.489 11.561-17.808 23.333-17.808 23.333h-24.665z"
       class="V"
       id="path323" />
    <path
       d="M921.658 580.603l-18.883-8.034s-4.948-13.837.913-20.977c6.393-7.788 22.842.6 22.842.6s-.725-23.182 19.555-24.249c22.622-1.19 19.272 22.315 19.272 22.315s16.293-7.141 23.906-.149c4.771 4.383-.152 26.035-.152 26.035l-15.255 4.459-11.396-15.084-13.233 12.57-13.233-14.007z"
       class="W"
       id="path325" />
    <use
       xlink:href="#b"
       class="Y"
       id="use327" />
    <use
       xlink:href="#c"
       class="V"
       id="use329" />
    <use
       xlink:href="#d"
       class="W"
       id="use331" />
    <use
       xlink:href="#b"
       y="65.404"
       class="Y"
       id="use333" />
    <use
       xlink:href="#c"
       y="65.405"
       class="V"
       id="use335" />
    <use
       xlink:href="#d"
       y="65.405"
       class="W"
       id="use337" />
    <use
       xlink:href="#b"
       y="139.204"
       class="Y"
       id="use339" />
    <use
       xlink:href="#c"
       y="139.204"
       class="V"
       id="use341" />
    <use
       xlink:href="#d"
       y="139.204"
       class="W"
       id="use343" />
    <path
       d="M975.386 829.857s5.88-3.219 14.57-3.219c14.074 0 20.49 13.602 9.529 51.902-10.329 36.088-35.337 50.101-35.337 50.101l-15.486-.36s-22.24 3.145-44.467-47.578c-17.272-39.414-6.9-50.175 4.765-51.542 12.308-1.441 16.665 2.911 16.665 2.911s-2.373-23.456 24.626-23.456c30.969 0 25.135 21.241 25.135 21.241z"
       class="Y"
       id="path345" />
    <path
       d="M940.336 919.891s-11.128-8.549-25.421-32.157c-4.59-7.583-10.278-24.555-10.278-24.555l20.8 9.597 14.492-17.301 13.103 15.858 14.293-13.697 11.912 15.14 16.675-6.016s-2.948 18.542-9.698 29.716c-7.009 11.602-19.233 23.415-19.233 23.415z"
       class="V"
       id="path347" />
    <path
       d="M924.047 865.867l-20.396-8.063s-5.344-13.889.986-21.053c6.905-7.816 24.672.602 24.672.602s-.782-23.266 21.122-24.337c24.435-1.194 20.816 22.396 20.816 22.396s17.598-7.167 25.821-.15c5.154 4.399-.164 26.129-.164 26.129l-16.478 4.476-12.309-15.14-14.294 12.615-14.293-14.057z"
       class="W"
       id="path349" />
    <path
       d="M977.833 909.146s6.031-3.264 14.946-3.264c14.438 0 21.02 13.787 9.775 52.607-10.596 36.578-36.25 50.781-36.25 50.781l-15.886-.365s-22.815 3.188-45.616-48.225c-17.719-39.948-7.078-50.856 4.888-52.241 12.626-1.461 17.096 2.95 17.096 2.95s-2.434-23.774 25.263-23.774c31.768 0 25.784 21.531 25.784 21.531z"
       class="Y"
       id="path351" />
    <use
       xlink:href="#e"
       class="V"
       id="use353" />
    <path
       d="M925.167 945.645l-20.923-8.172s-5.482-14.077 1.012-21.339c7.084-7.922 25.31.609 25.31.609s-.803-23.581 21.667-24.667c25.065-1.21 21.354 22.699 21.354 22.699s18.053-7.264 26.488-.151c5.287 4.459-.169 26.483-.169 26.483l-16.902 4.537-12.627-15.344-14.662 12.786-14.663-14.247z"
       class="W"
       id="path355" />
    <path
       d="M977.833 989.286s6.031-3.264 14.946-3.264c14.438 0 21.02 13.787 9.775 52.607-10.596 36.578-36.25 50.781-36.25 50.781l-15.886-.365s-22.815 3.188-45.616-48.225c-17.719-39.948-7.078-50.856 4.888-52.241 12.626-1.461 17.096 2.95 17.096 2.95s-2.434-23.774 25.263-23.774c31.768.001 25.784 21.531 25.784 21.531z"
       class="Y"
       id="path357" />
    <use
       xlink:href="#e"
       y="80.141"
       class="V"
       id="use359" />
    <path
       d="M925.167 1025.785l-20.923-8.172s-5.482-14.077 1.012-21.339c7.084-7.922 25.31.609 25.31.609s-.803-23.581 21.667-24.667c25.065-1.21 21.354 22.699 21.354 22.699s18.053-7.264 26.488-.151c5.287 4.459-.169 26.483-.169 26.483l-16.902 4.537-12.627-15.345-14.662 12.786-14.663-14.247z"
       class="W"
       id="path361" />
    <path
       d="M979.595 1078.184s6.656-1.65 15.287.579c13.978 3.61 16.902 18.607-3.695 53.38-19.409 32.765-47.801 40.099-47.801 40.099l-15.289-4.328s-22.888-2.62-32.103-58.103c-7.162-43.11 5.869-51.01 17.8-49.357 12.591 1.744 15.815 7.133 15.815 7.133s3.591-23.627 30.407-16.698c30.758 7.945 19.579 27.295 19.579 27.295z"
       class="Y"
       id="path363" />
    <use
       xlink:href="#f"
       class="V"
       id="use365" />
    <use
       xlink:href="#g"
       class="W"
       id="use367" />
    <path
       d="M969.505 1157.719s6.656-1.65 15.287.579c13.978 3.61 16.902 18.607-3.695 53.38-19.409 32.765-47.801 40.099-47.801 40.099l-15.289-4.328s-22.888-2.62-32.103-58.103c-7.162-43.11 5.869-51.01 17.8-49.357 12.591 1.744 15.815 7.133 15.815 7.133s3.591-23.627 30.407-16.698c30.759 7.945 19.579 27.295 19.579 27.295z"
       class="Y"
       id="path369" />
    <use
       xlink:href="#f"
       x="-10.09"
       y="79.535"
       class="V"
       id="use371" />
    <use
       xlink:href="#g"
       x="-10.09"
       y="79.535"
       class="W"
       id="use373" />
    <path
       d="M943.613 1235.037s6.751 1.205 13.725 6.758c11.293 8.992 7.853 23.88-25.126 47.241-31.076 22.013-59.992 17.141-59.992 17.141l-12.198-10.183s-19.834-11.719-5.641-66.141c11.025-42.287 26.145-44.191 36.367-37.82 10.787 6.723 11.536 12.958 11.536 12.958s12.907-20.113 34.572-2.859c24.851 19.79 6.757 32.905 6.757 32.905z"
       class="Y"
       id="path375" />
    <path
       d="M858.637 1284.021s-3.531-13.89-.094-41.742c1.104-8.944 7.256-26.036 7.256-26.036l10.631 20.9 22.556-4.455.5 20.946 20.117-1.726-.001 19.615 17.18 5.889s-14.073 12.816-26.545 17.362c-12.95 4.72-30.221 6.273-30.221 6.273z"
       class="V"
       id="path377" />
    <path
       d="M879.678 1230.778l-11.275-19.427s4.48-14.427 14.084-16.063c10.476-1.784 19.419 16.244 19.419 16.244s14.062-18.945 32.316-5.798c20.359 14.669 2.562 31.061 2.562 31.061s18.647 5.564 20.815 16.383c1.358 6.781-16.631 20.611-16.631 20.611l-16.049-6.981-.317-19.868-19.434.867-2.596-20.279z"
       class="W"
       id="path379" />
    <path
       d="M897.711 1299.884s6.721 1.366 13.561 7.081c11.076 9.258 7.285 24.06-26.238 46.634-31.589 21.27-60.381 15.715-60.381 15.715l-11.954-10.47s-19.55-12.185-4.072-66.256c12.025-42.014 27.185-43.56 37.253-36.947 10.626 6.976 11.226 13.228 11.226 13.228s13.38-19.802 34.631-2.04c24.374 20.372 5.974 33.055 5.974 33.055z"
       class="Y"
       id="path381" />
    <path
       d="M811.598 1346.841s-3.201-13.969.896-41.732c1.315-8.915 7.87-25.855 7.87-25.855l10.133 21.146 22.654-3.92.004 20.952 20.152-1.248-.465 19.61 17.036 6.293s-14.374 12.479-26.95 16.729c-13.059 4.411-30.36 5.555-30.36 5.555z"
       class="V"
       id="path383" />
    <path
       d="M833.894 1294.111l-10.811-19.688s4.82-14.316 14.459-15.724c10.516-1.536 19.029 16.699 19.029 16.699s14.506-18.607 32.445-5.031c20.005 15.147 1.824 31.112 1.824 31.112s18.511 6.006 20.422 16.871c1.197 6.813-17.114 20.212-17.114 20.212l-15.88-7.359.153-19.871-19.448.408-2.114-20.336z"
       class="W"
       id="path385" />
    <path
       d="M646.913 1429.332s56.839-22.188 81.706-61.724c6.365-10.12 18.157-28.65 33.796-57.121 6.555-11.934 20.716-13.287 29.787-9.138 7.69 3.518 10.942 11.873 10.942 11.873s18.236-5.774 33.131 9.423c18.715 19.096 5.167 34.954 5.167 34.954s18.237 6.079 16.413 27.964c-1.822 21.861-39.79 34.807-49.848 37.69-21.114 6.053-69.301 13.069-103.04 14.894-35.383 1.913-53.799 11.55-53.799 11.55z"
       class="Y"
       id="path387" />
    <path
       d="M770.014 1346.657l-6.383-23.708s5.167-15.501 16.717-17.629c15.577-2.87 19.453 15.806 19.453 15.806s18.845-4.256 31.003 6.687c15.891 14.301 2.432 31.307 2.432 31.307s20.581 8.633 17.629 28.571c-2.377 16.056-33.435 23.404-33.435 23.404l-18.236-13.069 10.941-20.061-22.492-6.991 7.599-20.061z"
       class="W"
       id="path389" />
    <path
       d="M652.992 1433.588s17.142-6.459 36.17-18.846c10.745-6.994 22.797-16.109 31.611-25.987 9.954-11.155 38.906-58.511 38.906-58.511l5.471 21.885 22.796 3.039-7.599 19.292 22.188 6.848-10.03 17.63 19.453 14.285s-25.438 7.694-36.475 9.727c-14.726 2.711-47.427 3.895-75.38 7.599-25.528 3.383-45.593 11.551-45.593 11.551z"
       class="V"
       id="path391" />
  </g>
  <g
     id="g1292">
    <path
       d="M49.459 130.816s-1.297-2.376-4.479-2.376c-2.399 0-3.652 1.164-4.05 2.376-1.753 5.336 4.05 6.621 4.05 6.621s0 .495-2.025 1.246c-2.48.92-4.362.506-4.362.506l1.83 1.402-1.83 1.052s2.765 1.246 6.387 0c3.239-1.115 4.479-3.272 4.479-3.272s1.848 2.356 4.596 3.272c3.505 1.168 6.309 0 6.309 0l-1.792-1.052 1.792-2.22s-1.792.818-3.388.428c-1.911-.466-2.921-1.363-2.921-1.363s5.77-1.078 3.972-6.621c-.417-1.284-2.27-2.376-3.972-2.376-3.283 0-4.596 2.376-4.596 2.376z"
       fill="#a07843"
       id="path395" />
    <path
       d="M49.459 132.168s-1.297-3.077-4.479-3.077c-1.09 0-2.815.503-3.338 1.666-2.202 4.896 4.429 6.446 4.429 6.446s-.597 1.242-2.623 1.994c-2.48.92-3.216.52-3.216.52l1.594.797-1.947 1.013s1.407.531 4.953-.559c3.274-1.007 4.632-3.754 4.632-3.754s1.878 2.684 4.569 3.754c3.038 1.207 5.367.502 5.367.502l-1.696-.878 1.296-1.349s-1.045.483-2.638.078c-2.623-.668-3.438-2.156-3.438-2.156s6.239-1.232 4.409-6.156c-.284-.765-1.694-1.906-3.396-1.906-3.283 0-4.479 3.065-4.479 3.065z"
       class="S"
       id="path397" />
    <path
       d="M47.055 135.652s1.571-2.364-.236-4.09c-.938-.896-2.363-1.112-3.169-.321-.942.925-.667 2.628.905 3.475 1.673.901 2.499.937 2.499.937zm4.827 0s-1.569-2.361.238-4.087c.938-.896 2.363-1.112 3.169-.321.942.925.667 2.628-.905 3.475-1.673.901-2.502.933-2.502.933z"
       id="path399" />
  </g>
</svg>
