<?xml version="1.0" encoding="utf-8"?>
<!-- Generator: Adobe Illustrator 23.0.3, SVG Export Plug-In . SVG Version: 6.00 Build 0)  -->
<svg version="1.1" id="Layer_1" xmlns="http://www.w3.org/2000/svg" xmlns:xlink="http://www.w3.org/1999/xlink" x="0px" y="0px"
	 viewBox="0 0 320 320" style="enable-background:new 0 0 320 320;" xml:space="preserve">
<style type="text/css">
	.st0{fill-rule:evenodd;clip-rule:evenodd;fill:#F8C300;}
	.st1{fill-rule:evenodd;clip-rule:evenodd;fill:#28166F;}
	.st2{fill-rule:evenodd;clip-rule:evenodd;fill:#00923F;}
	.st3{fill-rule:evenodd;clip-rule:evenodd;fill:#DA251D;}
	.st4{fill-rule:evenodd;clip-rule:evenodd;fill:#FEFEFE;}
	.st5{fill-rule:evenodd;clip-rule:evenodd;fill:#FFF500;}
	.st6{fill-rule:evenodd;clip-rule:evenodd;}
	.st7{fill:#332C2B;}
	.st8{fill-rule:evenodd;clip-rule:evenodd;fill:#7F7A00;}
	.st9{fill-rule:evenodd;clip-rule:evenodd;fill:#F9C900;}
	.st10{fill-rule:evenodd;clip-rule:evenodd;fill:#016E30;}
	.st11{fill-rule:evenodd;clip-rule:evenodd;fill:#00853A;}
	.st12{fill:#FFF500;}
	.st13{fill:#DA251D;}
</style>
<g id="Layer_x0020_1">
	<path class="st0" d="M52.8,11.1h214.3v200.9c0,47.6-68.2,76.3-107.2,96.9c-38.9-20.5-107.2-49.3-107.2-96.9
		C52.8,211.9,52.8,11.1,52.8,11.1z"/>
	<path d="M52.8,10h215.4v201.9c0,43-54.3,70.5-93.8,90.7c-5,2.5-9.7,4.9-13.9,7.1L160,310l-0.5-0.3c-4.2-2.2-8.9-4.6-13.9-7.1
		c-39.6-20.1-93.8-47.7-93.8-90.7V10H52.8z M266.1,12.1H53.9v199.8c0,41.7,53.6,68.9,92.7,88.8c4.7,2.4,9.1,4.7,13.4,6.9
		c4.3-2.3,8.8-4.5,13.4-6.9c39.1-19.9,92.7-47.1,92.7-88.8C266.1,211.9,266.1,12.1,266.1,12.1z"/>
	<path class="st1" d="M192.7,55h65.5v152.6c0,31.9-33.5,54.6-65.5,71.8V55L192.7,55z"/>
	<path d="M192.7,53.9h66.5v153.6c0,16.3-8.5,30.2-21.1,42.2c-12.5,11.9-28.9,21.9-44.9,30.6l-1.6,0.8V53.9
		C191.7,53.9,192.7,53.9,192.7,53.9z M257.1,56h-63.4v221.6c15.4-8.4,31-18.1,42.9-29.4c12.2-11.6,20.4-25,20.4-40.7
		C257.1,207.6,257.1,56,257.1,56z"/>
	<path class="st2" d="M61.8,55h65.5v224.4c-31.9-17.2-65.5-39.9-65.5-71.8V55L61.8,55z"/>
	<path d="M61.8,53.9h66.5v227.2l-1.6-0.8c-16-8.6-32.5-18.7-44.9-30.6c-12.6-12-21.1-25.9-21.1-42.2V53.9
		C60.7,53.9,61.8,53.9,61.8,53.9z M126.2,56H62.9v151.5c0,15.6,8.2,29,20.4,40.7c11.9,11.3,27.5,21,42.9,29.4
		C126.2,277.6,126.2,56,126.2,56z"/>
	<path class="st3" d="M127.3,55h65.5v224.4c-11.7,6.3-23.2,11.9-32.7,16.9c-9.6-5-21-10.6-32.7-16.9C127.3,279.4,127.3,55,127.3,55z
		"/>
	<path d="M127.3,53.9h66.5V280l-0.6,0.3c-6.9,3.7-13.7,7.2-20,10.4c-4.6,2.3-8.9,4.5-12.7,6.6l-0.5,0.3l-0.5-0.3
		c-3.8-2-8.2-4.2-12.7-6.6c-6.3-3.2-13.1-6.7-20-10.4l-0.6-0.3V53.9C126.2,53.9,127.3,53.9,127.3,53.9z M191.7,56h-63.3v222.7
		c6.6,3.5,13.2,6.9,19.4,10c4.3,2.2,8.3,4.3,12.3,6.3c3.9-2.1,8-4.1,12.3-6.3c6.2-3.2,12.8-6.5,19.4-10
		C191.7,278.8,191.7,56,191.7,56z"/>
	<rect x="61.8" y="21.6" class="st4" width="196.4" height="26.6"/>
	<path d="M61.8,20.6h197.4v28.8H60.7V20.6C60.7,20.6,61.8,20.6,61.8,20.6z M257.1,22.7H62.9v24.5h194.3V22.7z"/>
	<path class="st5" d="M160,84.9L160,84.9c1.5,0,2.7,29,2.7,64.8v6.8c0,35.8-1.2,64.8-2.7,64.8l0,0c-1.5,0-2.7-29-2.7-64.8v-6.8
		C157.3,113.9,158.5,84.9,160,84.9z"/>
	<path class="st6" d="M160,82.8c1.3,0,2.5,0.5,3.4,1.4c0.9,0.9,1.4,2.1,1.4,3.4v131.1c0,1.3-0.5,2.5-1.4,3.4
		c-0.9,0.9-2.1,1.4-3.4,1.4c-1.3,0-2.5-0.5-3.4-1.4c-0.9-0.9-1.4-2.1-1.4-3.4V87.6c0-1.3,0.5-2.5,1.4-3.4
		C157.5,83.4,158.7,82.8,160,82.8z M160,84.9c1.5,0,2.7,1.2,2.7,2.7v131.1c0,1.5-1.2,2.7-2.7,2.7s-2.7-1.2-2.7-2.7V87.6
		C157.3,86.1,158.5,84.9,160,84.9z"/>
	<path class="st7" d="M160,63.6l78.3,21.4H81.7C107.8,77.8,133.9,70.6,160,63.6C160,63.5,160,63.6,160,63.6z M198.5,74.4L160,63.9
		L84.1,84.6h151.8L198.5,74.4z"/>
	<path class="st5" d="M229.1,87c4.5,0,9.5,12.1-0.3,7.6l-0.6-0.3c-1.1,1.6-3.3,2.2-7.1,0.3l-0.6-0.3c-1.6,1.6-4.8,2.2-8.3,0.3
		c-1.6,1.4-4.5,1.8-7.5-0.2c-1.3,1.6-3.7,2.1-6.4,0l-1.2-0.9c-0.9,2.3-3.9,3.4-6,1.2l-1-1c-1,2.6-5.7,3-7.9,0.3
		c-1.2,2.5-5.4,2.4-7.2,0c-1.1,2.7-5.1,2.2-7-0.1c-1.5,2.3-5.4,2.3-7.9,1c-2.5,1.4-6.4,1.3-7.9-1c-1.9,2.3-5.9,2.7-7,0.1
		c-1.8,2.5-6,2.5-7.2,0c-2.3,2.7-7,2.3-7.9-0.3l-1,1c-2.1,2.1-5.1,1.1-6-1.2l-1.2,0.9c-2.7,2.1-5.1,1.6-6.4,0c-3,2-5.9,1.7-7.5,0.2
		c-3.5,1.9-6.7,1.3-8.3-0.3L99,94.6c-3.8,1.9-6,1.3-7.1-0.3l-0.6,0.3C81.4,99,86.4,87,90.9,87H229.1L229.1,87z"/>
	<path class="st7" d="M229.1,86.8c1.9,0,4,2.1,4.9,4.3c0.4,0.9,0.6,1.8,0.6,2.6c0,0.8-0.3,1.5-1,1.8c-0.9,0.5-2.5,0.4-4.9-0.7
		l-0.5-0.2c-0.6,0.8-1.6,1.4-2.9,1.4c-1.2,0.1-2.6-0.3-4.4-1.2l-0.5-0.3c-0.9,0.9-2.2,1.4-3.7,1.5c-1.4,0.1-2.9-0.3-4.6-1.1
		c-0.9,0.7-2.1,1.2-3.5,1.1c-1.2,0-2.6-0.4-4-1.3c-0.7,0.8-1.6,1.3-2.7,1.3c-1.1,0.1-2.4-0.3-3.7-1.4l-1.1-0.9
		c-0.2,0.4-0.5,0.8-0.8,1.2c-0.5,0.5-1.1,0.9-1.8,1c-0.7,0.2-1.4,0.1-2.1-0.2c-0.5-0.2-1-0.5-1.4-0.9l-0.8-0.8
		c-0.2,0.4-0.5,0.7-0.8,1c-0.6,0.5-1.4,0.8-2.3,1c-0.9,0.1-1.9,0-2.8-0.3c-0.8-0.3-1.5-0.7-2.1-1.4c-0.2,0.4-0.5,0.7-0.9,1
		c-0.6,0.5-1.4,0.7-2.3,0.8c-0.8,0-1.7-0.1-2.5-0.5c-0.6-0.3-1.1-0.7-1.6-1.2c-0.2,0.4-0.4,0.7-0.7,0.9c-0.6,0.5-1.3,0.7-2,0.8
		c-0.8,0-1.6-0.1-2.3-0.4c-0.7-0.3-1.4-0.8-2-1.4c-0.8,1-2,1.6-3.3,1.7c-1.5,0.2-3.3-0.1-4.6-0.9c-1.3,0.7-3.1,1-4.6,0.9
		c-1.3-0.2-2.6-0.7-3.3-1.7c-0.5,0.6-1.2,1.1-2,1.4c-0.8,0.3-1.6,0.5-2.3,0.4c-0.8-0.1-1.5-0.3-2-0.8c-0.3-0.2-0.6-0.6-0.7-0.9
		c-0.4,0.5-1,0.9-1.6,1.2c-0.8,0.4-1.7,0.5-2.5,0.5c-0.9,0-1.7-0.3-2.3-0.8c-0.4-0.3-0.6-0.6-0.9-1c-0.6,0.6-1.3,1.1-2.1,1.4
		c-0.9,0.3-1.9,0.4-2.8,0.3c-0.9-0.1-1.7-0.4-2.3-1c-0.3-0.3-0.6-0.6-0.8-1l-0.8,0.8c-0.4,0.4-0.9,0.7-1.4,0.9
		c-0.7,0.3-1.5,0.3-2.1,0.2c-0.7-0.2-1.3-0.5-1.8-1c-0.3-0.3-0.6-0.7-0.8-1.2l-1.1,0.9c-1.3,1-2.6,1.4-3.7,1.4
		c-1.1-0.1-2-0.6-2.7-1.3c-1.4,0.9-2.7,1.3-4,1.3c-1.4,0-2.6-0.4-3.5-1.1c-1.6,0.9-3.2,1.2-4.6,1.1c-1.6-0.1-2.9-0.6-3.7-1.5
		l-0.5,0.3c-1.8,0.9-3.2,1.3-4.4,1.2c-1.3-0.1-2.3-0.6-2.9-1.4l-0.5,0.2c-2.4,1.1-4,1.2-4.9,0.7c-0.7-0.4-1-1-1-1.8
		c0-0.8,0.2-1.7,0.6-2.6c1-2.2,3-4.3,4.9-4.3C90.9,86.8,229.1,86.8,229.1,86.8z M233.7,91.2c-0.9-2.1-2.8-4.1-4.6-4.1H90.9
		c-1.8,0-3.7,2-4.6,4.1c-0.4,0.9-0.6,1.7-0.6,2.4c0,0.7,0.3,1.2,0.8,1.5c0.8,0.4,2.3,0.3,4.6-0.7l0.8-0.4l0.1,0.1
		c0.6,0.8,1.4,1.4,2.7,1.4c1.1,0,2.5-0.3,4.2-1.2l0.8-0.4l0.1,0.1c0.8,0.8,2.1,1.4,3.6,1.4c1.3,0.1,2.9-0.3,4.5-1.2l0.1-0.1l0.1,0.1
		c0.8,0.7,2,1.2,3.4,1.1c1.2,0,2.6-0.5,3.9-1.4l0.1-0.1l0.1,0.2c0.6,0.7,1.5,1.2,2.5,1.3c1,0.1,2.3-0.3,3.5-1.3l1.5-1.2l0.1,0.2
		c0.2,0.5,0.5,0.9,0.8,1.3c0.5,0.5,1,0.8,1.7,0.9c0.6,0.2,1.3,0.1,1.9-0.1c0.4-0.2,0.9-0.5,1.3-0.9l1.2-1.2l0.1,0.2
		c0.2,0.4,0.4,0.8,0.8,1.1c0.6,0.5,1.3,0.8,2.2,0.9c0.8,0.1,1.8,0,2.6-0.3c0.8-0.3,1.5-0.8,2.1-1.5l0.2-0.2l0.1,0.2
		c0.2,0.4,0.5,0.8,0.9,1.1c0.6,0.4,1.3,0.7,2.1,0.7s1.6-0.1,2.3-0.5c0.6-0.3,1.2-0.7,1.6-1.3l0.2-0.2l0.1,0.3
		c0.2,0.4,0.5,0.8,0.8,1.1c0.5,0.4,1.1,0.6,1.8,0.7c0.7,0,1.5-0.1,2.2-0.4c0.8-0.3,1.5-0.8,2-1.4l0.1-0.2l0.1,0.2
		c0.7,1.1,1.9,1.6,3.2,1.8c1.5,0.2,3.2-0.2,4.5-0.9l0.1,0l0.1,0c1.3,0.7,3,1,4.5,0.9c1.3-0.2,2.5-0.7,3.2-1.8l0.1-0.2l0.1,0.2
		c0.5,0.6,1.2,1.1,2,1.4c0.7,0.3,1.5,0.4,2.2,0.4c0.7-0.1,1.3-0.3,1.8-0.7c0.3-0.3,0.6-0.6,0.8-1.1l0.1-0.3l0.2,0.2
		c0.4,0.6,1,1,1.6,1.3c0.7,0.4,1.6,0.5,2.3,0.5c0.8,0,1.5-0.3,2.1-0.7c0.4-0.3,0.7-0.6,0.9-1.1l0.1-0.2l0.2,0.2
		c0.6,0.7,1.3,1.2,2.1,1.5c0.9,0.3,1.8,0.4,2.6,0.3c0.8-0.1,1.6-0.4,2.2-0.9c0.4-0.3,0.6-0.7,0.8-1.1l0.1-0.2l1.2,1.2
		c0.4,0.4,0.8,0.7,1.3,0.9c0.7,0.3,1.3,0.3,1.9,0.1c0.6-0.2,1.2-0.5,1.7-0.9c0.4-0.4,0.6-0.8,0.8-1.3l0.1-0.2c0.5,0.4,1,0.8,1.5,1.2
		c1.3,1,2.5,1.4,3.5,1.3c1-0.1,1.9-0.5,2.5-1.3l0.1-0.2l0.1,0.1c1.4,0.9,2.7,1.3,3.9,1.4c1.4,0.1,2.5-0.4,3.4-1.1l0.1-0.1l0.1,0.1
		c1.6,0.9,3.2,1.2,4.5,1.2c1.5-0.1,2.8-0.6,3.6-1.4l0.1-0.1l0.8,0.4c1.7,0.9,3.1,1.2,4.2,1.2c1.3-0.1,2.1-0.6,2.7-1.4l0.1-0.1
		l0.8,0.4c2.3,1.1,3.8,1.2,4.6,0.7c0.5-0.3,0.8-0.9,0.8-1.5C234.3,92.9,234.1,92,233.7,91.2L233.7,91.2z"/>
	<path class="st8" d="M235.6,84.8c3.7,2.9,3,12.1-6.8,7.6l-0.6-0.3c-1.1,1.6-3.3,2.2-7.1,0.3l-0.6-0.3c-1.6,1.6-4.8,2.2-8.3,0.3
		c-1.6,1.4-4.5,1.8-7.5-0.2c-1.3,1.6-3.7,2.1-6.4,0l-1.2-1c-0.9,2.3-3.9,3.4-6,1.2l-1-1c-1,2.6-5.7,3-7.9,0.3
		c-1.2,2.5-5.4,2.4-7.2,0c-1.1,2.7-5.1,2.2-7-0.1c-1.5,2.3-5.4,2.3-7.9,1c-2.5,1.4-6.4,1.4-7.9-1c-1.9,2.3-5.9,2.7-7,0.1
		c-1.8,2.5-6,2.5-7.2,0c-2.3,2.7-7,2.3-7.9-0.3l-1,1c-2.1,2.1-5.1,1.1-6-1.2l-1.2,1c-2.7,2.1-5.1,1.6-6.4,0c-3,2-5.9,1.6-7.5,0.2
		c-3.5,1.9-6.7,1.3-8.3-0.3L99,92.5c-3.8,1.9-6,1.3-7.1-0.3l-0.6,0.3c-9.8,4.4-10.5-4.7-6.8-7.6L235.6,84.8L235.6,84.8z"/>
	<path class="st5" d="M90.7,91.6c-10.9,4.4-10.7-6.1-5.6-7.5L160,63.7C160,63.7,90.7,91.6,90.7,91.6z"/>
	<path class="st7" d="M90.8,91.8c-3.8,1.5-6.3,1.3-7.7,0.2c-0.6-0.5-1.1-1.1-1.3-1.8c-0.2-0.7-0.3-1.5-0.1-2.3
		c0.3-1.8,1.6-3.5,3.5-4l74.9-20.4c0.1,0,0.2,0,0.3,0.1c0,0.1,0,0.2-0.1,0.3L90.8,91.8z M83.3,91.7c1.3,1,3.7,1.2,7.3-0.3l65.9-26.6
		L85.2,84.4c-1.7,0.5-2.9,2.1-3.2,3.7c-0.1,0.7-0.1,1.4,0.1,2.1C82.4,90.7,82.8,91.3,83.3,91.7z"/>
	<path class="st5" d="M98.5,91.6c-9.7,4.4-9.5-6.1-5-7.5L160,63.7L98.5,91.6z"/>
	<path class="st7" d="M98.6,91.8c-3.2,1.5-5.4,1.3-6.7,0.4c-0.6-0.4-1.1-1.1-1.3-1.8c-0.2-0.7-0.3-1.5-0.2-2.2
		c0.2-1.9,1.4-3.7,3.1-4.2l66.4-20.4c0.1,0,0.2,0,0.3,0.1c0,0.1,0,0.2-0.1,0.3L98.6,91.8z M92.2,91.9c1.2,0.9,3.2,1,6.3-0.4
		l58.4-26.6L93.7,84.4c-1.6,0.5-2.6,2.2-2.8,3.9c-0.1,0.7,0,1.4,0.2,2.1C91.3,90.9,91.6,91.5,92.2,91.9z"/>
	<path class="st5" d="M108,91.4c-8.2,4.4-15.2-3.5-4.2-7.5L160,63.7L108,91.4z"/>
	<path class="st7" d="M108.1,91.6c-3.2,1.7-6.2,1.6-8.1,0.5c-0.8-0.4-1.4-1-1.7-1.6c-0.3-0.7-0.4-1.4-0.2-2.2v0
		c0.4-1.6,2.2-3.3,5.7-4.5l56.2-20.2c0.1,0,0.2,0,0.3,0.1s0,0.2-0.1,0.3C160.1,63.9,108.1,91.6,108.1,91.6z M100.2,91.8
		c1.8,1,4.7,1.1,7.7-0.5l49.4-26.3l-53.5,19.2c-3.4,1.2-5,2.8-5.4,4.3l0,0c-0.2,0.7-0.1,1.3,0.2,1.9C98.9,90.9,99.5,91.4,100.2,91.8
		z"/>
	<path class="st5" d="M115.2,91.4c-7.1,4.4-14-3.2-3.6-7.5L160,63.7L115.2,91.4z"/>
	<path class="st7" d="M115.3,91.5c-2.7,1.7-5.4,1.6-7.1,0.7c-0.7-0.4-1.3-0.9-1.7-1.6c-0.4-0.7-0.5-1.4-0.4-2.2
		c0.3-1.6,1.9-3.4,5.3-4.9l48.5-20.2c0.1,0,0.2,0,0.3,0.1c0,0.1,0,0.2-0.1,0.3C160.1,63.9,115.3,91.5,115.3,91.5z M108.4,91.9
		c1.6,0.9,4.2,0.9,6.7-0.7l42.6-26.3l-46,19.2c-3.3,1.4-4.8,3-5.1,4.5c-0.1,0.7,0,1.3,0.3,1.9C107.2,91.1,107.7,91.6,108.4,91.9z"/>
	<path class="st5" d="M121.5,91.4c-6.1,4.4-11.2-3.5-3.1-7.5L160,63.7L121.5,91.4z"/>
	<path class="st7" d="M121.6,91.6c-2.1,1.5-4.1,1.6-5.6,0.9c-0.7-0.3-1.2-0.9-1.6-1.5c-0.4-0.6-0.6-1.4-0.5-2.1
		c0.1-1.7,1.4-3.7,4.3-5.1l41.6-20.2c0.1-0.1,0.2,0,0.3,0.1c0.1,0.1,0,0.2-0.1,0.3L121.6,91.6z M116.3,92.1c1.3,0.7,3.2,0.6,5.1-0.9
		L157.9,65l-39.4,19.1c-2.8,1.4-4,3.2-4.1,4.8c0,0.7,0.1,1.4,0.4,1.9C115.2,91.3,115.7,91.8,116.3,92.1z"/>
	<path class="st5" d="M128.7,91.7c-3.9,3.5-10.5-2.6-2.5-7.5L160,63.7L128.7,91.7z"/>
	<path class="st7" d="M128.8,91.8c-1.4,1.2-3.1,1.3-4.4,0.7l0,0c-0.6-0.3-1.2-0.7-1.6-1.3l0,0c-0.4-0.6-0.7-1.2-0.7-2
		c0-1.6,1-3.5,3.9-5.3l33.8-20.5c0.1-0.1,0.2,0,0.3,0.1c0.1,0.1,0,0.2,0,0.3C160.1,63.9,128.8,91.8,128.8,91.8z M124.6,92.2
		c1.2,0.5,2.7,0.4,3.9-0.7l29.6-26.5l-31.9,19.3c-2.7,1.7-3.7,3.4-3.7,4.9c0,0.7,0.2,1.2,0.6,1.7h0C123.5,91.5,124,91.9,124.6,92.2
		C124.6,92.2,124.6,92.2,124.6,92.2z"/>
	<path class="st5" d="M137.9,90.8c-3.5,4.3-14.2,1.2-4.4-6.5L160,63.7L137.9,90.8z"/>
	<path class="st7" d="M138.1,90.9c-1.4,1.7-3.8,2.3-5.8,1.9c-0.8-0.2-1.6-0.5-2.1-1c-0.6-0.5-0.9-1.1-0.9-1.9c0-1.5,1.1-3.4,4.2-5.8
		l26.4-20.6c0.1-0.1,0.2-0.1,0.3,0c0.1,0.1,0.1,0.2,0,0.3L138.1,90.9L138.1,90.9z M132.4,92.4c1.8,0.3,4.1-0.2,5.4-1.8L158.7,65
		l-25,19.4c-2.9,2.3-4,4.1-4,5.5c0,0.7,0.3,1.2,0.8,1.6C131,92,131.6,92.3,132.4,92.4z"/>
	<path class="st5" d="M145.3,90.5c-2.4,4.4-13.1,2.4-4.9-6.2L160,63.7C160,63.7,145.3,90.5,145.3,90.5z"/>
	<path class="st7" d="M145.5,90.6c-0.9,1.7-3,2.4-4.8,2.3c-0.8-0.1-1.6-0.3-2.2-0.7c-0.6-0.4-1.1-1-1.3-1.8c-0.3-1.5,0.4-3.6,3-6.3
		l19.6-20.6c0.1-0.1,0.2-0.1,0.3,0c0.1,0.1,0.1,0.2,0,0.3C160.2,63.8,145.5,90.6,145.5,90.6z M140.7,92.5c1.7,0.1,3.6-0.6,4.4-2.1
		L159,65l-18.5,19.4c-2.5,2.6-3.2,4.6-2.9,5.9c0.2,0.7,0.5,1.2,1.1,1.5C139.3,92.2,140,92.4,140.7,92.5z"/>
	<path class="st5" d="M152.9,89.4c-1.3,4.9-13,5.2-6.1-5.4L160,63.7C160,63.7,152.9,89.4,152.9,89.4z"/>
	<path class="st7" d="M153.1,89.5c-0.5,1.8-2.4,3-4.3,3.3c-0.9,0.2-1.7,0.1-2.5-0.2c-0.8-0.3-1.4-0.8-1.7-1.6
		c-0.6-1.4-0.2-3.7,1.9-7.1l13.2-20.3c0.1-0.1,0.2-0.1,0.3-0.1c0.1,0.1,0.1,0.1,0.1,0.2C160.2,63.8,153.1,89.5,153.1,89.5z
		 M148.8,92.4c1.7-0.3,3.5-1.4,3.9-3l6.7-24.4L147,84.2c-2.1,3.2-2.4,5.4-1.9,6.7c0.3,0.7,0.8,1.1,1.5,1.4
		C147.2,92.5,148,92.5,148.8,92.4z"/>
	<path class="st5" d="M162.3,88.7c0.5,4.9-13.6,6.5-10.5-2.1l8.2-22.9C160,63.7,162.3,88.7,162.3,88.7z"/>
	<path class="st7" d="M162.5,88.7c0.2,1.7-1.3,3-3.1,3.7c-1.2,0.4-2.5,0.6-3.8,0.5c-1.3-0.1-2.5-0.5-3.3-1.3c-1.1-1-1.6-2.7-0.7-5.1
		l8.2-22.9c0-0.1,0.2-0.2,0.3-0.1c0.1,0,0.1,0.1,0.1,0.2C160.2,63.7,162.5,88.7,162.5,88.7z M159.2,92c1.7-0.6,3-1.8,2.9-3.2
		l-2.2-24.1l-7.9,22c-0.8,2.2-0.4,3.7,0.6,4.7c0.8,0.7,1.9,1.1,3.1,1.2C156.8,92.6,158.1,92.4,159.2,92z"/>
	<path class="st5" d="M229.3,91.6c10.9,4.4,10.7-6.1,5.6-7.5L160,63.7L229.3,91.6z"/>
	<path class="st7" d="M229.3,91.4c3.6,1.5,6,1.3,7.3,0.3c0.6-0.4,1-1,1.2-1.6c0.2-0.6,0.2-1.4,0.1-2.1c-0.3-1.6-1.4-3.2-3.2-3.7
		l-71.4-19.5L229.3,91.4L229.3,91.4z M236.9,92.1c-1.4,1.1-3.9,1.3-7.7-0.2l-69.3-27.9c-0.1-0.1-0.2-0.2-0.1-0.3
		c0-0.1,0.2-0.2,0.3-0.1L234.9,84c1.9,0.5,3.2,2.2,3.5,4c0.1,0.8,0.1,1.6-0.1,2.3C238,90.9,237.6,91.6,236.9,92.1z"/>
	<path class="st5" d="M221.5,91.6c9.7,4.4,9.5-6.1,5-7.5L160,63.7L221.5,91.6L221.5,91.6z"/>
	<path class="st7" d="M221.5,91.4c3.1,1.4,5.1,1.3,6.3,0.4c0.6-0.4,0.9-0.9,1.1-1.6c0.2-0.6,0.3-1.4,0.2-2.1
		c-0.2-1.7-1.2-3.4-2.8-3.9l-63.3-19.5L221.5,91.4z M228.1,92.2c-1.3,0.9-3.5,1.1-6.7-0.4l-61.5-27.9c-0.1,0-0.2-0.2-0.1-0.3
		c0-0.1,0.2-0.2,0.3-0.1L226.5,84c1.8,0.5,2.9,2.4,3.1,4.2c0.1,0.8,0,1.6-0.2,2.2C229.1,91.1,228.7,91.8,228.1,92.2z"/>
	<path class="st5" d="M212,91.4c8.2,4.4,15.2-3.5,4.2-7.5L160,63.7L212,91.4z"/>
	<path class="st7" d="M212.1,91.2c3.1,1.6,5.9,1.5,7.7,0.5c0.7-0.4,1.2-0.9,1.5-1.5c0.3-0.6,0.4-1.2,0.2-1.9l0,0
		c-0.4-1.5-2-3.1-5.4-4.3l-53.5-19.2L212.1,91.2z M220.1,92.1c-1.9,1-4.9,1.2-8.1-0.5l-52-27.7c-0.1,0-0.2-0.2-0.1-0.3
		c0-0.1,0.2-0.2,0.3-0.1l56.2,20.2c3.5,1.3,5.2,3,5.7,4.5v0c0.2,0.8,0.1,1.5-0.2,2.2C221.4,91.1,220.8,91.7,220.1,92.1z"/>
	<path class="st5" d="M204.8,91.4c7.1,4.4,14-3.2,3.6-7.5L160,63.7L204.8,91.4z"/>
	<path class="st7" d="M204.9,91.2c2.6,1.6,5.1,1.6,6.7,0.7c0.7-0.3,1.2-0.8,1.5-1.4c0.3-0.6,0.4-1.2,0.3-1.9
		c-0.3-1.5-1.8-3.2-5.1-4.5l-46-19.2L204.9,91.2L204.9,91.2z M211.8,92.3c-1.8,0.9-4.4,0.9-7.1-0.7l-44.8-27.7
		c-0.1-0.1-0.1-0.2-0.1-0.3c0.1-0.1,0.2-0.2,0.3-0.1l48.5,20.2c3.4,1.4,5,3.2,5.3,4.9c0.2,0.8,0,1.5-0.4,2.2
		C213.2,91.4,212.6,91.9,211.8,92.3z"/>
	<path class="st5" d="M198.5,91.4c6.1,4.4,11.2-3.5,3.1-7.5L160,63.7C160,63.7,198.5,91.4,198.5,91.4z"/>
	<path class="st7" d="M198.6,91.2c2,1.4,3.8,1.5,5.1,0.9c0.6-0.3,1.1-0.8,1.4-1.3c0.3-0.6,0.5-1.2,0.4-1.9c-0.1-1.6-1.3-3.4-4.1-4.8
		L162.1,65C162.1,65,198.6,91.2,198.6,91.2z M203.9,92.5c-1.4,0.7-3.4,0.6-5.6-0.9l-38.5-27.7c-0.1-0.1-0.1-0.2-0.1-0.3
		c0.1-0.1,0.2-0.2,0.3-0.1l41.6,20.2c2.9,1.4,4.2,3.4,4.3,5.1c0.1,0.8-0.1,1.5-0.5,2.1C205.1,91.6,204.6,92.1,203.9,92.5z"/>
	<path class="st5" d="M191.3,91.7c3.9,3.5,10.5-2.6,2.5-7.5L160,63.7C160,63.7,191.3,91.7,191.3,91.7z"/>
	<path class="st7" d="M191.4,91.5c1.2,1.1,2.7,1.2,3.9,0.7l0,0c0.6-0.3,1.1-0.6,1.4-1.1h0c0.4-0.5,0.6-1.1,0.6-1.7
		c0-1.5-0.9-3.3-3.7-4.9l-31.9-19.3C161.8,65.1,191.4,91.5,191.4,91.5z M195.5,92.6c-1.3,0.6-3,0.5-4.4-0.7l-31.3-28
		c-0.1-0.1-0.1-0.2,0-0.3c0.1-0.1,0.2-0.1,0.3-0.1L193.9,84c2.9,1.8,3.9,3.7,3.9,5.3c0,0.7-0.3,1.4-0.7,2l0,0
		C196.8,91.8,196.2,92.3,195.5,92.6C195.6,92.6,195.5,92.6,195.5,92.6z"/>
	<path class="st5" d="M182.1,90.8c3.5,4.3,14.2,1.2,4.4-6.5L160,63.7L182.1,90.8z"/>
	<path class="st7" d="M182.2,90.7c1.3,1.6,3.6,2.1,5.4,1.8c0.7-0.1,1.4-0.4,1.9-0.9c0.5-0.4,0.8-1,0.8-1.6c0-1.4-1.1-3.2-4-5.5
		l-25-19.4C161.3,65,182.2,90.7,182.2,90.7z M187.7,92.8c-2,0.4-4.4-0.2-5.8-1.9l-22.1-27.1c-0.1-0.1-0.1-0.2,0-0.3
		c0.1-0.1,0.2-0.1,0.3,0l26.4,20.6c3.1,2.4,4.2,4.4,4.2,5.8c0,0.8-0.4,1.4-0.9,1.9C189.3,92.3,188.5,92.7,187.7,92.8z"/>
	<path class="st5" d="M174.7,90.5c2.4,4.4,13.1,2.4,4.9-6.2L160,63.7C160,63.7,174.7,90.5,174.7,90.5z"/>
	<path class="st7" d="M174.9,90.4c0.8,1.5,2.7,2.2,4.4,2.1c0.8-0.1,1.5-0.3,2-0.6c0.5-0.4,0.9-0.9,1.1-1.5c0.3-1.4-0.4-3.3-2.9-5.9
		L161,65C161,65,174.9,90.4,174.9,90.4z M179.3,92.9c-1.8,0.1-3.9-0.7-4.8-2.3l-14.7-26.8c0-0.1,0-0.2,0-0.3c0.1-0.1,0.2-0.1,0.3,0
		l19.6,20.6c2.6,2.7,3.3,4.8,3,6.3c-0.2,0.8-0.6,1.4-1.3,1.8C180.9,92.6,180.1,92.9,179.3,92.9z"/>
	<path class="st5" d="M167.1,89.4c1.3,4.9,13,5.2,6.1-5.4L160,63.7C160,63.7,167.1,89.4,167.1,89.4z"/>
	<path class="st7" d="M167.3,89.4c0.5,1.7,2.2,2.8,3.9,3c0.8,0.1,1.6,0.1,2.3-0.2c0.7-0.3,1.2-0.7,1.5-1.4c0.5-1.3,0.2-3.5-1.9-6.7
		L160.6,65C160.6,65,167.3,89.4,167.3,89.4z M171.1,92.8c-1.9-0.3-3.8-1.5-4.3-3.3l-7.1-25.8c0-0.1,0-0.2,0.1-0.2
		c0.1-0.1,0.2,0,0.3,0.1l13.2,20.3c2.2,3.3,2.5,5.6,1.9,7.1c-0.3,0.8-0.9,1.3-1.7,1.6C172.9,92.9,172,93,171.1,92.8z"/>
	<path class="st5" d="M157.7,88.7c-0.5,4.9,13.6,6.5,10.5-2.1L160,63.7C160,63.7,157.7,88.7,157.7,88.7z"/>
	<path class="st7" d="M157.9,88.7c-0.1,1.5,1.2,2.6,2.9,3.2c1.1,0.4,2.4,0.6,3.6,0.5c1.2-0.1,2.3-0.5,3.1-1.2c1-0.9,1.4-2.4,0.6-4.7
		l-7.9-22C160.1,64.7,157.9,88.7,157.9,88.7z M160.6,92.4c-1.9-0.7-3.3-2-3.1-3.7l2.3-25c0-0.1,0.1-0.2,0.1-0.2c0.1,0,0.2,0,0.3,0.1
		l8.2,22.9c0.9,2.4,0.4,4.1-0.7,5.1c-0.8,0.8-2,1.2-3.3,1.3C163.2,93,161.8,92.8,160.6,92.4z"/>
	<path class="st5" d="M157.7,88.7c-0.1,1.4,0.9,2.5,2.3,3.2c1.4-0.7,2.4-1.8,2.3-3.2l-2.3-25L157.7,88.7z"/>
	<path class="st7" d="M157.9,88.7c-0.1,0.6,0.1,1.1,0.5,1.6c0.4,0.5,1,0.9,1.6,1.3c0.7-0.4,1.3-0.8,1.6-1.3c0.3-0.5,0.5-1,0.5-1.6
		L160,66L157.9,88.7L157.9,88.7z M158,90.6c-0.4-0.6-0.6-1.2-0.6-1.9l2.3-25c0-0.1,0.1-0.2,0.2-0.2c0.1,0,0.2,0.1,0.2,0.2l2.3,25
		c0.1,0.7-0.2,1.3-0.6,1.9c-0.4,0.6-1.1,1.1-1.9,1.5c-0.1,0-0.1,0-0.2,0C159.1,91.7,158.5,91.2,158,90.6z"/>
	<path class="st5" d="M160,59.6l2.3,2.8l2.3,2.8c0,1.3-2,2.4-4.6,2.4s-4.6-1.1-4.6-2.4l2.3-2.8L160,59.6z"/>
	<path class="st7" d="M160.2,59.5l4.6,5.6v0.1c0,0.7-0.6,1.4-1.5,1.9c-0.9,0.5-2,0.7-3.3,0.7c-1.3,0-2.5-0.3-3.3-0.7
		c-0.9-0.5-1.5-1.1-1.5-1.9V65l4.8-5.8L160.2,59.5L160.2,59.5z M162.1,62.5l-2.1-2.6l-4.3,5.2c0,0.5,0.5,1,1.2,1.4
		c0.8,0.4,1.9,0.7,3.1,0.7c1.2,0,2.3-0.3,3.1-0.7c0.7-0.4,1.2-0.9,1.2-1.4C164.3,65.2,162.1,62.5,162.1,62.5z"/>
	<path class="st5" d="M160,96.7c-6.1,3.6-9,7.7-8.6,12.3c-3.2-1.5-4.3-3.7-3.3-6.5c-4.5,1.7-5,5.5-1.5,11.3c-7,4.2-9.1-7.3-19-5.1
		c3.2,9.3-1,10.9-6,12.6c-4.3,1.4-10.3-1.6-7.7-6.9c-4.2-0.3-5.1,6.1-10.2,9.2c-5.7,3.5-10.7,2.2-10.5-4.1
		c-7.2,2.9-7.9,12.6,1.9,17.2c12.7,6,39.3,3,53-1.6h12h12c13.7,4.6,40.3,7.6,53,1.6c9.8-4.6,9.1-14.3,1.9-17.2
		c0.1,6.3-4.8,7.6-10.5,4.1c-5.1-3.1-6.1-9.6-10.2-9.2c2.6,5.3-3.4,8.3-7.7,6.9c-5-1.7-9.2-3.2-6-12.6c-10-2.1-12,9.4-19,5.1
		c3.4-5.8,2.9-9.6-1.5-11.3c1,2.8-0.1,5-3.3,6.5C169,104.4,166.1,100.3,160,96.7L160,96.7z"/>
	<path class="st7" d="M160,97.1c-2.9,1.7-5.1,3.6-6.5,5.6c-1.4,2-2,4.1-1.8,6.4l0.1,0.6l-0.5-0.2c-1.7-0.8-2.8-1.7-3.3-2.9
		c-0.5-1-0.6-2.1-0.3-3.4c-0.2,0.1-0.4,0.2-0.6,0.3c-1.2,0.7-1.9,1.6-2.2,2.8c-0.3,1.2-0.1,2.6,0.5,4.4c0.4,1,0.9,2,1.5,3.1l0.2,0.3
		l-0.3,0.2c-3.7,2.2-6,0.4-8.7-1.8c-2.5-2-5.4-4.3-10-3.4c1.5,4.6,1.2,7.3-0.1,9.1c-1.3,1.8-3.7,2.7-6.3,3.5c-1.8,0.6-4,0.4-5.7-0.4
		c-0.7-0.3-1.2-0.7-1.7-1.2c-0.5-0.5-0.9-1.1-1.1-1.8c-0.4-1-0.3-2.2,0.2-3.6c-1.9,0.1-3,1.8-4.5,3.8c-1.3,1.9-2.8,4-5.1,5.4
		c-2.2,1.3-4.3,2-6,2c-0.9,0-1.7-0.2-2.4-0.6c-0.7-0.4-1.3-0.9-1.7-1.6c-0.6-0.9-0.9-2.1-0.9-3.7c-1.9,0.9-3.3,2.3-4.1,4
		c-0.5,1-0.7,2-0.7,3c0,1.1,0.2,2.1,0.6,3.2c1,2.4,3.1,4.6,6.6,6.3c5.7,2.7,14.1,3.5,22.9,3.3c10.9-0.3,22.3-2.4,29.8-4.9l0.1,0
		h24.1l0.1,0c7.5,2.5,19,4.5,29.8,4.9c8.8,0.3,17.3-0.6,22.9-3.3c3.5-1.6,5.6-3.9,6.6-6.3c0.4-1.1,0.6-2.2,0.6-3.2
		c0-1.1-0.3-2.1-0.7-3c-0.8-1.7-2.2-3.1-4.1-4c0,1.5-0.4,2.7-0.9,3.7c-0.4,0.7-1,1.3-1.7,1.6c-0.7,0.4-1.5,0.6-2.4,0.6
		c-1.8,0-3.8-0.6-6-2c-2.3-1.4-3.8-3.5-5.1-5.4c-1.4-2-2.6-3.7-4.5-3.8c0.5,1.3,0.6,2.5,0.2,3.6c-0.2,0.7-0.6,1.3-1.1,1.8
		c-0.5,0.5-1.1,0.9-1.7,1.2c-1.7,0.8-3.9,1-5.7,0.4c-2.6-0.9-4.9-1.7-6.3-3.5c-1.3-1.8-1.6-4.5-0.1-9.1c-4.7-0.8-7.5,1.4-10,3.4
		c-2.7,2.1-5.1,4-8.7,1.8L173,114l0.2-0.3c0.7-1.1,1.2-2.2,1.5-3.1c0.6-1.7,0.8-3.2,0.5-4.4c-0.3-1.2-1-2.1-2.2-2.8
		c-0.2-0.1-0.4-0.2-0.6-0.3c0.3,1.2,0.2,2.4-0.3,3.4c-0.6,1.2-1.7,2.1-3.3,2.9l-0.5,0.2l0.1-0.6c0.2-2.3-0.4-4.4-1.8-6.4
		C165.1,100.7,162.9,98.8,160,97.1z M153,102.3c1.5-2.1,3.7-4.1,6.8-5.9l0.2-0.1l0.2,0.1c3.1,1.8,5.4,3.8,6.8,5.9c1.4,2,2,4,1.9,6.2
		c1.3-0.7,2.1-1.5,2.6-2.4c0.5-1,0.5-2.2,0.1-3.5l-0.2-0.6l0.6,0.2c0.5,0.2,0.9,0.4,1.3,0.6c1.4,0.8,2.2,1.9,2.5,3.2
		c0.3,1.3,0.1,2.9-0.6,4.7c-0.4,0.9-0.8,1.9-1.4,2.9c3.2,1.7,5.3,0.1,7.7-1.9c2.7-2.1,5.8-4.6,10.9-3.5l0.4,0.1l-0.1,0.3
		c-1.6,4.6-1.4,7.2-0.1,8.9c1.2,1.7,3.5,2.5,5.9,3.3c1.7,0.6,3.7,0.4,5.2-0.4c0.6-0.3,1.1-0.7,1.5-1.1c0.4-0.4,0.8-0.9,0.9-1.5
		c0.3-1,0.3-2.2-0.4-3.5l-0.2-0.4l0.5,0c2.5-0.2,3.9,1.8,5.5,4.1c1.3,1.8,2.7,3.8,4.9,5.2c2.1,1.3,4.1,1.9,5.7,1.9
		c0.8,0,1.5-0.2,2.1-0.5c0.6-0.3,1.1-0.8,1.5-1.4c0.6-0.9,0.9-2.2,0.8-3.8l0-0.5l0.4,0.2c2.3,0.9,4,2.6,4.9,4.5
		c0.5,1,0.8,2.1,0.8,3.3c0,1.1-0.2,2.3-0.7,3.5c-1,2.5-3.3,4.9-6.9,6.6c-5.8,2.7-14.3,3.6-23.2,3.3c-10.9-0.3-22.4-2.4-29.9-4.9H148
		c-7.6,2.5-19,4.5-29.9,4.9c-8.9,0.3-17.5-0.6-23.2-3.3c-3.6-1.7-5.9-4.1-6.9-6.6c-0.5-1.2-0.7-2.3-0.7-3.5c0-1.2,0.3-2.3,0.8-3.3
		c0.9-1.9,2.6-3.5,4.9-4.5l0.4-0.2l0,0.5c0,1.6,0.3,2.9,0.8,3.8c0.4,0.6,0.9,1.1,1.5,1.4c0.6,0.3,1.3,0.5,2.1,0.5
		c1.6,0,3.6-0.6,5.7-1.9c2.2-1.4,3.7-3.4,4.9-5.2c1.6-2.3,3-4.3,5.5-4.1l0.5,0l-0.2,0.4c-0.6,1.4-0.7,2.5-0.4,3.5
		c0.2,0.6,0.5,1.1,0.9,1.5c0.4,0.4,1,0.8,1.5,1.1c1.6,0.8,3.5,0.9,5.2,0.4c2.5-0.8,4.7-1.6,5.9-3.3c1.2-1.7,1.4-4.3-0.1-8.9
		l-0.1-0.3l0.4-0.1c5.2-1.1,8.2,1.3,10.9,3.5c2.5,1.9,4.6,3.6,7.7,1.9c-0.6-1-1.1-2-1.4-2.9c-0.7-1.8-0.9-3.4-0.6-4.7
		c0.3-1.3,1.2-2.4,2.5-3.2c0.4-0.2,0.9-0.5,1.3-0.6l0.6-0.2l-0.2,0.6c-0.5,1.3-0.4,2.5,0.1,3.5c0.5,0.9,1.3,1.7,2.6,2.4
		C151,106.4,151.7,104.3,153,102.3L153,102.3z"/>
	<path class="st5" d="M146.8,109.3c2.6,5.5,7,10,13.2,13.6c6.2-3.6,10.6-8.1,13.2-13.6c-2.1,1.5-4.1,2.2-6,2.2
		c-0.1-5.2-2.5-8.9-7.2-11.3c-4.7,2.4-7.1,6.1-7.2,11.3C150.9,111.4,148.9,110.7,146.8,109.3z"/>
	<path class="st7" d="M147.6,110.2c1.2,2.3,2.8,4.4,4.7,6.4c2.1,2.2,4.7,4.2,7.7,5.9c3-1.7,5.6-3.7,7.7-5.9c1.9-2,3.5-4.1,4.7-6.4
		c-0.7,0.4-1.4,0.8-2.1,1c-1,0.4-2.1,0.6-3.1,0.6h-0.3l0-0.3c-0.1-2.5-0.7-4.7-1.8-6.5c-1.2-1.8-2.8-3.3-5-4.4
		c-2.2,1.2-3.9,2.6-5,4.4c-1.2,1.8-1.8,4-1.8,6.5l0,0.3h-0.3c-1,0-2-0.2-3.1-0.6C149,110.9,148.3,110.6,147.6,110.2L147.6,110.2z
		 M151.8,117c-2.2-2.3-4-4.8-5.3-7.6l-0.5-1.1l1,0.7c1,0.7,2,1.3,3,1.6c0.9,0.3,1.7,0.5,2.5,0.6c0.1-2.5,0.8-4.7,1.9-6.5
		c1.2-1.9,3-3.5,5.4-4.7l0.1-0.1l0.1,0.1c2.4,1.2,4.2,2.8,5.4,4.7c1.2,1.9,1.8,4,1.9,6.5c0.8-0.1,1.7-0.2,2.5-0.6c1-0.4,2-0.9,3-1.6
		l1-0.7l-0.5,1.1c-1.3,2.8-3.1,5.3-5.3,7.6c-2.2,2.3-4.9,4.3-8,6.1l-0.2,0.1l-0.2-0.1C156.7,121.3,154,119.3,151.8,117z"/>
	<path class="st5" d="M148,115.4c2.7,3.7,6.3,7.2,10.6,10.5c-4.1,0.3-7.3,1.4-9.6,3.4c-0.7-5-2.8-8.6-6.3-10.8
		C144.1,117,145.9,116,148,115.4z"/>
	<path class="st7" d="M148.3,115.2c1.4,1.8,2.9,3.6,4.7,5.3c1.8,1.7,3.7,3.4,5.9,5.1l0.7,0.5l-0.9,0.1c-2,0.1-3.8,0.5-5.4,1.1
		c-1.6,0.6-2.9,1.3-4,2.3l-0.4,0.4l-0.1-0.6c-0.3-2.4-1-4.5-2-6.3c-1-1.8-2.4-3.2-4.2-4.3l-0.3-0.2l0.3-0.3c0.8-0.8,1.6-1.4,2.5-2
		c0.9-0.5,1.9-0.9,3-1.2l0.2-0.1L148.3,115.2L148.3,115.2z M152.5,121c-1.7-1.7-3.3-3.5-4.6-5.2c-0.9,0.3-1.8,0.6-2.6,1.1
		c-0.8,0.4-1.4,1-2.1,1.6c1.7,1.1,3,2.5,4,4.3c1,1.7,1.7,3.7,2,6c1.1-0.9,2.4-1.6,3.8-2.1c1.4-0.5,3-0.8,4.7-1
		C155.8,124.1,154.1,122.6,152.5,121z"/>
	<path class="st5" d="M91.6,124.7c-2.2,5.9,4,13.5,23.5,13.4c10.1-0.1,20.4-2.7,29.8-3.2c2.2-11.8-3.5-19.1-13.9-23.1
		c1.1,13.9-20.6,17-19.5,6.3c-4.4,2.4-3.1,7.8-10.7,9.5C97.3,128.5,94.3,127.9,91.6,124.7z"/>
	<path class="st7" d="M91.7,125.3c-0.2,0.5-0.2,1.1-0.2,1.7c0,1.6,0.6,3.2,2,4.7c1.4,1.5,3.5,2.9,6.4,4c3.7,1.4,8.7,2.2,15.2,2.2
		c5.6,0,11.2-0.9,16.8-1.7c4.4-0.6,8.7-1.3,12.8-1.5c1-5.5,0.2-10-2-13.6c-2.3-3.9-6.2-6.7-11.3-8.8c0.2,5.5-3.1,9.3-7.1,11.2
		c-1.7,0.8-3.4,1.2-5.1,1.3c-1.7,0.1-3.3-0.1-4.6-0.7c-2-0.9-3.4-2.7-3.3-5.4c-1.4,0.9-2.1,2.2-2.9,3.5c-1.3,2.3-2.7,4.7-7.3,5.7
		c-1.8,0.4-3.5,0.5-5.1,0C94.4,127.6,93,126.7,91.7,125.3z M90.8,127c0-0.8,0.1-1.6,0.4-2.4l0.2-0.5l0.4,0.4
		c1.3,1.6,2.7,2.5,4.2,2.9c1.5,0.4,3,0.4,4.8,0c4.4-1,5.7-3.2,6.9-5.4c0.9-1.6,1.8-3.1,3.7-4.1l0.5-0.3l-0.1,0.6
		c-0.3,2.7,1,4.4,2.9,5.3c1.2,0.6,2.8,0.8,4.3,0.7c1.6-0.1,3.3-0.5,4.9-1.3c3.9-1.8,7.2-5.6,6.7-11.1l0-0.5l0.5,0.2
		c5.5,2.1,9.6,5.1,12.1,9.2c2.3,3.8,3.1,8.5,2,14.3l-0.1,0.3l-0.3,0c-4.2,0.2-8.5,0.8-13,1.5c-5.6,0.8-11.2,1.6-16.9,1.7
		c-6.6,0-11.7-0.8-15.5-2.2c-3-1.1-5.2-2.6-6.6-4.1C91.5,130.5,90.9,128.7,90.8,127z"/>
	<path class="st5" d="M124.8,131v-2.7c3.3-1.5,5.8-3.2,7.7-5.1c1.7,2.8,3.8,5.2,6.3,7C133.2,130.5,128.5,130.8,124.8,131z"/>
	<path class="st7" d="M124.5,131v-3l0.2-0.1c1.6-0.7,3.1-1.5,4.3-2.4c1.3-0.8,2.4-1.7,3.3-2.7l0.3-0.3l0.2,0.4
		c0.8,1.4,1.8,2.7,2.8,3.8c1,1.2,2.2,2.2,3.4,3.1l0.7,0.5l-8.7,0.5l-6.6,0.4C124.5,131.4,124.5,131,124.5,131z M125.2,128.5v2.2
		l5.9-0.4l6.9-0.4c-1-0.8-2-1.7-2.8-2.7c-1-1.1-1.9-2.3-2.7-3.6c-0.9,0.9-1.9,1.7-3.1,2.5C128.1,127,126.7,127.8,125.2,128.5z"/>
	<path class="st5" d="M100.7,133.9c8.2-0.6,11.5,3.4,16.1,1.6c-3.9-1.8-6.3-4.7-7.4-8.6c-3,0.8-2,2.4-6.6,2.6
		C101.1,129.6,99.8,132.5,100.7,133.9z"/>
	<path class="st7" d="M100.9,133.5c4-0.2,6.8,0.6,9.2,1.3c2.2,0.6,4,1.1,5.9,0.6c-1.7-0.9-3-2-4.1-3.3c-1.2-1.4-2.1-3-2.6-4.9
		c-0.9,0.3-1.4,0.7-1.9,1.1c-0.9,0.7-1.7,1.4-4.5,1.5c-0.2,0-0.5,0.1-0.7,0.2c-0.4,0.3-0.8,0.7-1,1.2c-0.3,0.5-0.4,1.1-0.4,1.6
		C100.7,133.2,100.8,133.4,100.9,133.5z M109.9,135.4c-2.4-0.7-5.2-1.5-9.2-1.2l-0.2,0l-0.1-0.2c-0.2-0.3-0.3-0.7-0.3-1.1
		c0-0.6,0.1-1.3,0.4-1.9c0.3-0.6,0.7-1.2,1.3-1.5c0.3-0.2,0.6-0.3,1-0.3c2.7-0.1,3.4-0.7,4.2-1.4c0.6-0.5,1.2-0.9,2.4-1.3l0.3-0.1
		l0.1,0.3c0.5,1.9,1.4,3.5,2.6,4.9c1.2,1.4,2.8,2.6,4.6,3.5l0.7,0.3l-0.7,0.3C114.5,136.7,112.4,136.1,109.9,135.4z"/>
	<path class="st5" d="M160,133.3h-11c2.6-2.5,6.2-3.9,11-4.4c4.7,0.4,8.4,1.9,11,4.4H160z"/>
	<path class="st7" d="M160,133.7h-11.8l0.6-0.6c1.3-1.3,2.9-2.3,4.8-3c1.9-0.7,4-1.2,6.4-1.4h0.1c2.4,0.2,4.5,0.7,6.4,1.4
		c1.9,0.8,3.5,1.8,4.8,3l0.6,0.6C171.8,133.7,160,133.7,160,133.7z M149.9,133h20.3c-1.1-1-2.5-1.7-4-2.4c-1.8-0.7-3.9-1.2-6.2-1.4
		c-2.3,0.2-4.4,0.7-6.2,1.4C152.3,131.3,151,132.1,149.9,133z"/>
	<path class="st5" d="M172,115.4c-2.7,3.7-6.3,7.2-10.6,10.5c4.1,0.3,7.3,1.4,9.6,3.4c0.7-5,2.8-8.6,6.3-10.8
		C175.9,117,174.1,116,172,115.4z"/>
	<path class="st7" d="M172.1,115.8c-1.3,1.8-2.9,3.5-4.6,5.2c-1.6,1.6-3.4,3.1-5.3,4.6c1.8,0.2,3.3,0.5,4.7,1
		c1.4,0.5,2.7,1.2,3.8,2.1c0.4-2.3,1-4.3,2-6c1-1.7,2.4-3.2,4-4.3c-0.6-0.6-1.3-1.1-2.1-1.6C173.9,116.4,173.1,116.1,172.1,115.8z
		 M167.1,120.6c1.8-1.7,3.3-3.5,4.7-5.3l0.1-0.2l0.2,0.1c1.1,0.3,2.1,0.7,3,1.2c0.9,0.5,1.7,1.2,2.5,2l0.3,0.3l-0.3,0.2
		c-1.8,1.1-3.1,2.5-4.2,4.3c-1,1.8-1.7,3.9-2,6.3l-0.1,0.6l-0.4-0.4c-1.1-1-2.5-1.8-4-2.3c-1.6-0.6-3.4-0.9-5.4-1.1l-0.9-0.1
		l0.7-0.5C163.4,124,165.3,122.3,167.1,120.6L167.1,120.6z"/>
	<path class="st5" d="M228.4,124.7c2.2,5.9-4,13.5-23.5,13.4c-10.1-0.1-20.4-2.7-29.8-3.2c-2.2-11.8,3.5-19.1,13.9-23.1
		c-1.1,13.9,20.6,17,19.5,6.3c4.4,2.4,3.1,7.8,10.7,9.5C222.7,128.5,225.7,127.9,228.4,124.7z"/>
	<path class="st7" d="M228.7,124.6c0.3,0.8,0.4,1.6,0.4,2.4c0,1.7-0.7,3.5-2.1,5.1c-1.4,1.6-3.6,3-6.6,4.1
		c-3.8,1.4-8.9,2.2-15.5,2.2c-5.6,0-11.3-0.9-16.9-1.7c-4.5-0.7-8.8-1.3-13-1.5l-0.3,0l-0.1-0.3c-1.1-5.8-0.3-10.5,2-14.3
		c2.5-4.1,6.6-7.1,12.1-9.2l0.5-0.2l0,0.5c-0.4,5.5,2.8,9.2,6.7,11.1c1.6,0.7,3.3,1.2,4.9,1.3c1.6,0.1,3.1-0.1,4.3-0.7
		c2-0.9,3.2-2.7,2.9-5.3l-0.1-0.6l0.5,0.3c1.9,1,2.8,2.5,3.7,4.1c1.3,2.2,2.6,4.4,6.9,5.4c1.7,0.4,3.3,0.4,4.8,0
		c1.5-0.4,2.8-1.3,4.2-2.9l0.4-0.4L228.7,124.6L228.7,124.6z M228.5,127c0-0.6-0.1-1.1-0.2-1.7c-1.3,1.4-2.7,2.2-4.1,2.7
		c-1.6,0.5-3.3,0.4-5.1,0c-4.6-1-6-3.4-7.3-5.7c-0.8-1.3-1.5-2.6-2.9-3.5c0.1,2.7-1.3,4.4-3.3,5.4c-1.3,0.6-3,0.8-4.6,0.7
		c-1.7-0.1-3.5-0.6-5.1-1.3c-4-1.9-7.4-5.7-7.1-11.2c-5.1,2.1-9,4.9-11.3,8.8c-2.2,3.6-2.9,8.1-2,13.6c4.1,0.2,8.4,0.8,12.8,1.5
		c5.5,0.8,11.2,1.6,16.8,1.7c6.5,0,11.5-0.8,15.2-2.2c2.9-1.1,5-2.5,6.4-4C227.9,130.2,228.5,128.6,228.5,127z"/>
	<path class="st5" d="M195.2,131v-2.7c-3.3-1.5-5.8-3.2-7.7-5.1c-1.7,2.8-3.8,5.2-6.3,7C186.8,130.5,191.5,130.8,195.2,131z"/>
	<path class="st7" d="M194.8,130.7v-2.2c-1.6-0.7-3-1.5-4.2-2.3c-1.2-0.8-2.2-1.6-3.1-2.5c-0.8,1.3-1.7,2.5-2.7,3.6
		c-0.9,1-1.8,1.9-2.8,2.7l6.9,0.4C188.9,130.3,194.8,130.7,194.8,130.7z M195.5,128.3v3.1l-6.6-0.4l-8.7-0.5l0.7-0.5
		c1.2-0.9,2.4-1.9,3.4-3.1c1.1-1.2,2-2.4,2.8-3.8l0.2-0.4l0.3,0.3c0.9,1,2,1.9,3.3,2.7c1.3,0.9,2.7,1.6,4.3,2.4l0.2,0.1
		C195.5,128.1,195.5,128.3,195.5,128.3z"/>
	<path class="st5" d="M219.3,133.9c-8.2-0.6-11.5,3.4-16.1,1.6c3.9-1.8,6.3-4.7,7.4-8.6c3,0.8,2,2.4,6.6,2.6
		C218.9,129.6,220.2,132.5,219.3,133.9z"/>
	<path class="st7" d="M219.3,134.2c-4-0.3-6.8,0.6-9.2,1.2c-2.5,0.7-4.6,1.3-7,0.4l-0.7-0.3l0.7-0.3c1.9-0.9,3.4-2.1,4.6-3.5
		c1.2-1.4,2.1-3,2.6-4.9l0.1-0.3l0.3,0.1c1.3,0.3,1.8,0.8,2.4,1.3c0.8,0.6,1.5,1.2,4.2,1.4c0.4,0,0.7,0.1,1,0.3
		c0.5,0.3,1,0.9,1.3,1.5c0.3,0.6,0.5,1.3,0.4,1.9c0,0.4-0.1,0.8-0.3,1.1l-0.1,0.2L219.3,134.2L219.3,134.2z M210,134.8
		c2.4-0.7,5.2-1.5,9.2-1.3c0.1-0.2,0.1-0.4,0.1-0.6c0-0.5-0.1-1.1-0.4-1.6c-0.3-0.5-0.6-1-1-1.2c-0.2-0.1-0.4-0.2-0.7-0.2
		c-2.9-0.2-3.7-0.8-4.5-1.5c-0.5-0.4-1-0.8-1.9-1.1c-0.6,1.9-1.4,3.5-2.6,4.9c-1.1,1.3-2.5,2.4-4.1,3.3
		C206,135.9,207.8,135.4,210,134.8z"/>
	<path class="st4" d="M123.9,143.1c16.4,15.6,14.5,22.4,19.2,25.3c2.7,1.7,11.1-3.5,14.4-0.8c18.8,15,28.5,26.3,29.2,33.8
		c2.6-2.2,5.3-3.8,7.9-4.7C191.1,188.4,167.6,170.5,123.9,143.1z"/>
	<path class="st7" d="M127,145.5c8,8.2,10.8,13.7,12.6,17.4c1.2,2.4,2,4.1,3.7,5.1c1,0.7,3.3,0,5.8-0.6c3.2-0.9,6.7-1.8,8.6-0.2
		c9.4,7.5,16.5,14.1,21.4,19.8c4.6,5.3,7.2,9.8,7.8,13.5c1.1-0.9,2.3-1.7,3.4-2.4c1.2-0.7,2.4-1.3,3.6-1.7c-2-4.1-8.6-10.4-20-19
		C162.9,168.9,147.2,158.3,127,145.5L127,145.5z M138.9,163.3c-2-4-5.2-10.3-15.2-19.9l-3-2.9l3.5,2.2c21.8,13.7,38.6,25.1,50.4,34
		c11.8,9,18.6,15.6,20.4,19.8l0.2,0.4l-0.4,0.2c-1.3,0.4-2.6,1-3.9,1.8c-1.3,0.8-2.6,1.7-3.9,2.8l-0.6,0.5l-0.1-0.8
		c-0.3-3.7-2.9-8.3-7.7-13.8c-4.8-5.6-11.9-12.2-21.3-19.7c-1.6-1.3-4.9-0.5-7.9,0.4c-2.7,0.7-5.1,1.4-6.5,0.5
		C141,167.5,140.2,165.8,138.9,163.3z"/>
	<path class="st4" d="M176,159.6l-29.1,20.9l-21,17.2l2.1,2.1l22.2-17.4l26.7-21.2c9.8-4.5,17.5-10.3,23.3-17.4
		C187.5,144.7,179.5,150,176,159.6L176,159.6z"/>
	<path class="st7" d="M176.2,160l-29.1,20.9l-20.6,16.9l1.5,1.5l21.9-17.2l26.8-21.2l0.1,0c4.9-2.3,9.2-4.8,13.1-7.7
		c3.6-2.7,6.7-5.6,9.4-8.8c-11.8,1.1-19.4,6.3-22.8,15.5l-0.1,0.1C176.3,159.9,176.2,160,176.2,160z M146.6,180.1l29-20.8
		c3.6-9.7,11.7-15.1,24.5-16l1-0.1l-0.6,0.8c-2.9,3.6-6.3,6.8-10.2,9.7c-3.9,2.9-8.3,5.5-13.2,7.8l-26.7,21.2l-22.5,17.6l-2.7-2.7
		C132.3,191.8,139.6,186,146.6,180.1z"/>
	<path class="st6" d="M176.9,161.2c8.7-4,15.8-9,21.3-15.1C186,150.4,178.9,155.4,176.9,161.2z"/>
	<ellipse class="st5" cx="160" cy="169.3" rx="23.1" ry="20.4"/>
	<path class="st6" d="M160,145.7c7.2,0,13.7,2.6,18.4,6.8c4.8,4.3,7.8,10.2,7.8,16.8c0,6.6-3,12.5-7.8,16.8
		c-4.7,4.2-11.3,6.8-18.4,6.8c-7.2,0-13.7-2.6-18.4-6.8l-0.2-0.2c-4.7-4.3-7.7-10.1-7.7-16.6c0-6.6,3-12.5,7.8-16.8l0,0h0
		C146.3,148.3,152.8,145.7,160,145.7z M160,148.9c12.8,0,23.1,9.1,23.1,20.4s-10.3,20.4-23.1,20.4c-12.8,0-23.1-9.1-23.1-20.4
		S147.2,148.9,160,148.9z"/>
	<ellipse class="st5" cx="160" cy="169.3" rx="5.3" ry="4.6"/>
	<path class="st6" d="M160,162.5c2,0,3.8,0.7,5.1,1.9h0c1.4,1.2,2.3,2.9,2.3,4.9c0,1.9-0.9,3.6-2.3,4.9l-0.2,0.1
		c-1.3,1.1-3.1,1.8-5,1.8c-2,0-3.8-0.7-5.1-1.9l0,0c-1.4-1.2-2.3-3-2.3-4.9c0-1.9,0.9-3.6,2.3-4.9l0.2-0.1
		C156.3,163.2,158.1,162.5,160,162.5z M160,164.7c2.9,0,5.3,2.1,5.3,4.6c0,2.6-2.4,4.6-5.3,4.6s-5.3-2.1-5.3-4.6
		C154.7,166.7,157.1,164.7,160,164.7z"/>
	<path d="M114.1,151.8c-3.5,4.5-6,9.3-7.6,14.2c-2.6,8.4-2.4,17.1,0.5,25.3c2.9,8.2,8.6,16,16.7,22.4c6.3,4.9,14.1,9.1,23.4,12
		l-0.8,2.4c-9.6-3-17.7-7.3-24.2-12.4c-8.5-6.7-14.5-14.8-17.6-23.5c-3.1-8.7-3.3-18-0.5-26.9c1.6-5.2,4.3-10.2,8-15
		C112.1,150.3,114.1,151.8,114.1,151.8z"/>
	<path d="M205.2,151.8c3.5,4.5,6,9.3,7.6,14.2c2.7,8.4,2.4,17.1-0.5,25.3c-2.9,8.2-8.6,16-16.7,22.4c-6.3,4.9-14.2,9.1-23.4,12
		l0.8,2.4c9.5-3,17.7-7.3,24.2-12.4c8.6-6.7,14.5-14.8,17.6-23.5c3.1-8.7,3.3-18,0.5-26.9c-1.6-5.2-4.3-10.2-8-15
		C207.2,150.3,205.2,151.8,205.2,151.8z"/>
	<path class="st5" d="M111.5,154c5-2.8,3.5-5.7,6.4-8.1C112.9,147.4,110.7,150.1,111.5,154z"/>
	<path class="st9" d="M116.4,146.9c-1.3,2.1-2.5,3.5-3.3,4.2C113.5,149.2,114.7,147.8,116.4,146.9z"/>
	<path class="st5" d="M108.3,158.1c2.2-6.1-0.8-7.7,0-11.9C105.3,151.1,105.3,155.1,108.3,158.1z"/>
	<path class="st9" d="M107.8,148.2c0.3,2.9,0.3,4.9,0,6.1C107,152.3,107,150.2,107.8,148.2z"/>
	<path class="st5" d="M106.4,163.4c0.9-6.9-2.4-7.9-2.5-12.6C102.1,156.7,102.9,160.9,106.4,163.4z"/>
	<path class="st9" d="M103.8,153c0.9,3,1.3,5.1,1.2,6.5C103.9,157.6,103.5,155.4,103.8,153z"/>
	<path class="st5" d="M104.3,166.3c0-7-3.4-7.6-4-12.2C99.1,160.2,100.5,164.2,104.3,166.3z"/>
	<path class="st9" d="M100.5,156.3c1.2,2.9,1.9,4.9,2,6.3C101.1,160.8,100.4,158.7,100.5,156.3z"/>
	<path class="st5" d="M103.2,171c-0.9-6.9-4.4-7-5.7-11.5C97.2,165.7,99.1,169.6,103.2,171z"/>
	<path class="st9" d="M98,161.7c1.6,2.7,2.6,4.6,2.9,5.9C99.2,166.1,98.3,164.1,98,161.7z"/>
	<path class="st5" d="M102.7,175.5c-1.5-6.8-5-6.6-6.6-11C96.3,170.7,98.5,174.3,102.7,175.5z"/>
	<path class="st9" d="M96.7,166.6c1.8,2.5,2.9,4.4,3.4,5.7C98.3,170.8,97.2,168.9,96.7,166.6z"/>
	<path class="st5" d="M102.9,180.6c-2-6.7-5.4-6.3-7.4-10.5C96.2,176.2,98.7,179.8,102.9,180.6z"/>
	<path class="st9" d="M96.3,172.2c2,2.4,3.3,4.2,3.8,5.4C98.2,176.3,97,174.5,96.3,172.2z"/>
	<path class="st5" d="M103.3,185.3c-2.5-6.5-5.9-5.8-8.2-9.9C96.2,181.5,99,184.8,103.3,185.3z"/>
	<path class="st9" d="M96.1,177.4c2.2,2.2,3.6,3.9,4.2,5.1C98.3,181.4,96.9,179.7,96.1,177.4z"/>
	<path class="st5" d="M104.5,190c-3.1-6.3-6.4-5.3-9-9.1C97.1,186.8,100.1,189.8,104.5,190z"/>
	<path class="st9" d="M96.6,182.8c2.4,2,3.9,3.6,4.6,4.7C99.1,186.5,97.6,184.9,96.6,182.8z"/>
	<path class="st5" d="M106.1,194.3c-4.2-5.8-7.4-4.3-10.8-7.7C98,192.2,101.6,194.8,106.1,194.3z"/>
	<path class="st9" d="M96.8,188.3c2.8,1.7,4.6,3,5.5,4C100,191.6,98.2,190.3,96.8,188.3z"/>
	<path class="st5" d="M108.4,198.2c-5.2-5.1-8.3-3.1-12.3-6C99.7,197.4,103.8,199.4,108.4,198.2z"/>
	<path class="st9" d="M97.9,193.7c3.1,1.2,5.2,2.3,6.3,3.1C101.7,196.5,99.6,195.5,97.9,193.7z"/>
	<path class="st5" d="M110.8,202.7c-5.2-5.1-8.3-3.1-12.3-6C102.1,201.9,106.3,203.9,110.8,202.7z"/>
	<path class="st9" d="M100.3,198.2c3.1,1.2,5.2,2.3,6.3,3.1C104.2,201,102.1,199.9,100.3,198.2z"/>
	<path class="st5" d="M114,207.8c-5.2-5.1-8.3-3.1-12.3-6C105.3,207,109.4,209,114,207.8z"/>
	<path class="st9" d="M103.5,203.3c3.1,1.2,5.2,2.3,6.3,3.1C107.3,206.1,105.2,205.1,103.5,203.3z"/>
	<path class="st5" d="M118.3,212.2c-6-4.1-8.8-1.7-13.2-3.9C109.5,212.9,113.9,214.2,118.3,212.2z"/>
	<path class="st9" d="M107.1,209.5c3.3,0.7,5.5,1.4,6.7,2C111.4,211.6,109.1,211,107.1,209.5z"/>
	<path class="st5" d="M124.2,217.3c-6-4.1-8.8-1.7-13.2-3.9C115.5,218,119.9,219.3,124.2,217.3z"/>
	<path class="st9" d="M113.1,214.6c3.3,0.7,5.5,1.4,6.7,2C117.3,216.8,115.1,216.1,113.1,214.6z"/>
	<path class="st5" d="M108.7,159.1c5.5-1.4,5.7-4.8,9.3-6.4C113.2,152.9,110.1,155,108.7,159.1z"/>
	<path class="st9" d="M116.3,153.3c-2.2,1.8-3.8,2.9-4.8,3.3C112.9,154.9,114.5,153.8,116.3,153.3z"/>
	<path class="st5" d="M106.6,164.1c6.7-1.4,7.1-4.8,11.5-6.4C112.1,157.9,108.3,160,106.6,164.1z"/>
	<path class="st9" d="M115.9,158.3c-2.7,1.8-4.6,2.9-5.9,3.3C111.6,159.8,113.6,158.8,115.9,158.3z"/>
	<path class="st5" d="M104.5,170.4c7-2.2,7-5.6,11.5-7.7C109.6,163.6,105.8,166.2,104.5,170.4z"/>
	<path class="st9" d="M113.7,163.6c-2.6,2.1-4.6,3.4-5.9,3.9C109.4,165.6,111.3,164.3,113.7,163.6z"/>
	<path class="st5" d="M104.2,175.9c6.6-3.3,6-6.6,10.1-9.4C108.2,168.3,104.8,171.5,104.2,175.9z"/>
	<path class="st9" d="M112.3,167.7c-2.3,2.4-4,4-5.2,4.8C108.3,170.4,110,168.8,112.3,167.7z"/>
	<path class="st5" d="M104.4,181.2c6.3-3.8,5.4-7.1,9.3-10.2C107.7,173.3,104.6,176.7,104.4,181.2z"/>
	<path class="st9" d="M111.7,172.3c-2.1,2.6-3.7,4.4-4.8,5.2C108,175.4,109.6,173.6,111.7,172.3z"/>
	<path class="st5" d="M104.5,186.6c6.2-4.6,4.8-7.7,8.6-11.3C107.1,178.4,104.2,182.1,104.5,186.6z"/>
	<path class="st9" d="M111.2,176.9c-1.9,2.9-3.3,4.8-4.4,5.8C107.6,180.4,109.1,178.4,111.2,176.9z"/>
	<path class="st5" d="M105.5,191.4c5.8-5,4.2-8.1,7.7-11.9C107.4,183,104.9,186.9,105.5,191.4z"/>
	<path class="st9" d="M111.4,181.2c-1.6,3-3,5-4,6.1C108.1,184.9,109.4,182.9,111.4,181.2z"/>
	<path class="st5" d="M108,196.5c5.2-5.7,3.3-8.5,6.2-12.7C109,187.9,106.9,192.2,108,196.5z"/>
	<path class="st9" d="M112.7,185.7c-1.3,3.2-2.4,5.3-3.2,6.5C109.8,189.7,110.9,187.6,112.7,185.7z"/>
	<path class="st5" d="M110.9,201.5c4.5-6.2,2.3-8.8,4.7-13.4C110.8,192.9,109.3,197.4,110.9,201.5L110.9,201.5z"/>
	<path class="st9" d="M114.3,190.3c-0.9,3.3-1.7,5.6-2.5,6.9C111.9,194.6,112.8,192.4,114.3,190.3z"/>
	<path class="st5" d="M114.3,206.2c4-6.6,1.5-9,3.6-13.7C113.5,197.6,112.3,202.2,114.3,206.2z"/>
	<path class="st9" d="M116.7,194.7c-0.6,3.4-1.3,5.7-1.9,7C114.7,199.3,115.3,196.9,116.7,194.7z"/>
	<path class="st5" d="M117.5,210.5c3.1-7,0.4-9.1,1.8-14.1C115.6,202.2,115,206.8,117.5,210.5z"/>
	<path class="st9" d="M118.5,198.8c-0.2,3.4-0.5,5.8-1,7.2C117,203.6,117.4,201.2,118.5,198.8z"/>
	<path class="st5" d="M120.9,214.3c3.3-7,0.6-9.1,2.2-14C119.2,205.8,118.5,210.5,120.9,214.3z"/>
	<path class="st9" d="M122.1,202.6c-0.3,3.4-0.7,5.8-1.2,7.2C120.6,207.3,121,204.9,122.1,202.6z"/>
	<path class="st5" d="M126.8,218.1c2.4-7.4-1.7-9.1-1-14.2C122.2,210,122.5,214.8,126.8,218.1z"/>
	<path class="st9" d="M125.2,206.3c0.6,3.4,0.7,5.8,0.5,7.3C124.5,211.3,124.3,208.8,125.2,206.3z"/>
	<path class="st2" d="M179.3,217.2c7.1-8,14.7-10.1,21.6-5.1C196.2,216.2,188.6,218.3,179.3,217.2z"/>
	<path class="st7" d="M179.1,217.1c3.6-4.1,7.4-6.6,11.1-7.5c3.7-0.9,7.3-0.1,10.8,2.4l0.2,0.2l-0.2,0.2c-2.4,2.1-5.6,3.7-9.4,4.6
		c-3.6,0.9-7.8,1.1-12.4,0.5l-0.4-0.1C178.9,217.4,179.1,217.1,179.1,217.1z M190.3,210c-3.6,0.8-7.1,3.2-10.6,7.1
		c4.4,0.5,8.3,0.3,11.8-0.6c3.6-0.9,6.7-2.3,9-4.3C197.3,209.8,193.8,209.1,190.3,210z"/>
	<path class="st10" d="M181.9,215.9c4.4-3.8,11.6-5.5,15.5-3.8C193,211.3,187.9,212.6,181.9,215.9z"/>
	<path class="st2" d="M194.2,206.7c4.2-7.5,9.7-10.3,15.7-7.4C206.9,203.3,201.4,206.2,194.2,206.7z"/>
	<path class="st7" d="M194,206.7c2.2-3.8,4.6-6.4,7.4-7.7c2.7-1.3,5.6-1.2,8.6,0.3l0.2,0.1l-0.1,0.2c-1.5,2.1-3.7,3.8-6.5,5.1
		c-2.6,1.2-5.8,2.1-9.3,2.3l-0.3,0L194,206.7L194,206.7z M201.5,199.2c-2.6,1.2-5,3.7-7.1,7.3c3.4-0.3,6.4-1.1,8.9-2.3
		c2.6-1.3,4.8-2.9,6.3-4.9C206.8,198.1,204.1,198.1,201.5,199.2L201.5,199.2z"/>
	<path class="st10" d="M196,205.3c2.8-3.8,8-6.2,11.2-5.5C203.8,199.9,200,201.7,196,205.3z"/>
	<path class="st2" d="M203.7,194.4c0.6-8.6,4.3-13.5,11-13.5C213.7,185.8,210,190.8,203.7,194.4z"/>
	<path class="st7" d="M203.5,194.4c0.3-4.4,1.4-7.8,3.3-10.2c1.9-2.3,4.5-3.5,7.8-3.5h0.2l0,0.2c-0.5,2.5-1.7,5.1-3.6,7.4
		c-1.8,2.3-4.3,4.4-7.4,6.2l-0.3,0.2L203.5,194.4z M207,184.5c-1.8,2.2-2.9,5.5-3.2,9.6c2.9-1.7,5.3-3.8,7-5.9
		c1.9-2.3,3-4.7,3.5-7.1C211.3,181.1,208.8,182.3,207,184.5z"/>
	<path class="st10" d="M204.7,192.4c0.9-4.6,4.5-9.1,7.7-9.8C209.4,184.1,206.8,187.3,204.7,192.4z"/>
	<path class="st2" d="M207.3,182.2c-2.5-8.2-0.8-14.2,5.4-16.5C213.6,170.6,211.9,176.5,207.3,182.2z"/>
	<path class="st7" d="M207.1,182.3c-1.3-4.2-1.5-7.8-0.6-10.7c0.9-2.8,2.9-4.9,6.1-6.1l0.2-0.1l0,0.2c0.5,2.5,0.2,5.3-0.8,8.3
		c-0.9,2.8-2.5,5.6-4.7,8.4l-0.2,0.2L207.1,182.3L207.1,182.3z M206.9,171.7c-0.9,2.7-0.7,6.2,0.5,10.1c2.1-2.7,3.6-5.4,4.5-8.1
		c0.9-2.8,1.2-5.5,0.8-7.9C209.7,167.1,207.8,169.1,206.9,171.7z"/>
	<path class="st10" d="M207.5,179.9c-0.8-4.6,1-10.1,3.8-11.9C208.9,170.5,207.7,174.5,207.5,179.9z"/>
	<path class="st2" d="M203.3,169.8c-5.1-7-5.4-13.1-0.2-17.4C205.5,156.7,205.8,162.9,203.3,169.8z"/>
	<path class="st7" d="M203.2,169.9c-2.6-3.5-3.9-6.9-4-9.9c0-3,1.2-5.6,3.8-7.7l0.2-0.1l0.1,0.2c1.2,2.3,1.9,5,2,8.1
		c0,2.9-0.5,6.1-1.7,9.5l-0.1,0.3C203.4,170.1,203.2,169.9,203.2,169.9z M199.5,160c0,2.9,1.3,6.1,3.7,9.4c1.1-3.2,1.7-6.3,1.6-9.1
		c0-2.9-0.7-5.5-1.8-7.7C200.6,154.7,199.5,157.2,199.5,160z"/>
	<path class="st10" d="M202.7,167.5c-2.3-4.1-2.3-9.9-0.3-12.5C201,158.2,201.1,162.3,202.7,167.5z"/>
	<path class="st2" d="M197.5,230.2c-3.2-9-1.3-15.8,6-18.9C204.6,216.8,202.8,223.5,197.5,230.2L197.5,230.2z"/>
	<path class="st7" d="M197.4,230.3c-1.6-4.6-2-8.6-0.9-11.8c1-3.2,3.3-5.7,7-7.2l0.2-0.1l0,0.2c0.6,2.8,0.4,6-0.7,9.3
		c-1,3.2-2.8,6.5-5.3,9.7l-0.2,0.3L197.4,230.3L197.4,230.3z M196.8,218.5c-1,3.1-0.7,6.9,0.8,11.3c2.4-3.1,4.1-6.3,5.1-9.3
		c1-3.2,1.2-6.2,0.7-8.9C200,213.1,197.8,215.5,196.8,218.5z"/>
	<path class="st10" d="M197.7,227.6c-1.1-5.1,0.9-11.4,4.1-13.6C199.2,217,197.8,221.6,197.7,227.6z"/>
	<path class="st2" d="M213.6,218.4c-6.8-5.8-8.3-11.9-3.4-17.4C213.6,204.8,215.1,210.9,213.6,218.4z"/>
	<path class="st7" d="M213.5,218.5c-3.5-2.9-5.6-6-6.2-9c-0.6-3,0.3-5.9,2.7-8.7l0.2-0.2l0.2,0.2c1.8,2,3,4.6,3.6,7.6
		c0.6,2.9,0.6,6.3-0.1,9.9l-0.1,0.3L213.5,218.5L213.5,218.5z M207.7,209.5c0.6,2.9,2.5,5.8,5.8,8.6c0.6-3.5,0.6-6.7,0.1-9.5
		c-0.6-2.9-1.8-5.4-3.4-7.3C207.9,203.9,207.2,206.7,207.7,209.5z"/>
	<path class="st10" d="M212.6,216.3c-3.2-3.6-4.4-9.4-2.7-12.5C209,207.3,209.9,211.5,212.6,216.3z"/>
	<path class="st2" d="M223.4,206.8c-7.7-4.9-10-11-5.9-17.2C221.5,193,223.8,199,223.4,206.8z"/>
	<path class="st7" d="M223.3,207c-3.9-2.5-6.5-5.3-7.5-8.3c-1-2.9-0.5-6,1.6-9.2l0.1-0.2l0.2,0.1c2.1,1.8,3.7,4.2,4.7,7.2
		c1,2.9,1.4,6.3,1.2,10.1l0,0.3L223.3,207L223.3,207z M216.1,198.5c1,2.8,3.4,5.5,7.1,8c0.2-3.7-0.3-6.9-1.2-9.7
		c-1-2.9-2.5-5.3-4.5-7C215.6,192.8,215.2,195.8,216.1,198.5z"/>
	<path class="st10" d="M222,204.8c-3.8-3.2-5.7-9-4.4-12.4C217.2,196.1,218.7,200.3,222,204.8z"/>
	<path class="st2" d="M229.1,190.3c-8.8-2.4-12.9-7.5-10.8-14.7C223.1,177.6,227.1,182.7,229.1,190.3z"/>
	<path class="st7" d="M229,190.4c-4.5-1.2-7.8-3.1-9.6-5.7c-1.8-2.5-2.3-5.6-1.3-9.2l0.1-0.2l0.2,0.1c2.5,1.1,4.8,2.9,6.7,5.5
		c1.8,2.5,3.3,5.6,4.2,9.3l0.1,0.3L229,190.4z M219.7,184.5c1.8,2.4,4.9,4.3,9.1,5.5c-0.9-3.5-2.3-6.5-4.1-8.9
		c-1.8-2.5-4-4.2-6.3-5.3C217.5,179.3,217.9,182.2,219.7,184.5L219.7,184.5z"/>
	<path class="st10" d="M227.2,188.8c-4.5-1.9-8.2-6.8-7.9-10.5C219.9,181.9,222.6,185.4,227.2,188.8z"/>
	<path class="st2" d="M228.1,167.8c-9,1.7-14.8-1.1-16.1-8.6C217.2,159,223.1,161.8,228.1,167.8z"/>
	<path class="st7" d="M228.1,168c-4.6,0.9-8.4,0.5-11.1-0.9c-2.7-1.5-4.5-4-5.1-7.8l0-0.2l0.2,0c2.7-0.1,5.6,0.6,8.4,2.1
		c2.7,1.4,5.4,3.6,7.8,6.6l0.2,0.3L228.1,168L228.1,168z M217.1,166.7c2.7,1.4,6.2,1.7,10.6,1c-2.4-2.8-4.9-4.8-7.5-6.2
		c-2.7-1.4-5.4-2.1-8-2C212.8,162.9,214.5,165.3,217.1,166.7z"/>
	<path class="st10" d="M225.7,167.3c-4.9,0.3-10.3-2.6-11.7-6C216.3,164.2,220.2,166.2,225.7,167.3z"/>
	<path class="st2" d="M222.5,155c-8.9,2.2-14.9-0.2-16.6-7.5C211.1,146.9,217.1,149.3,222.5,155z"/>
	<path class="st7" d="M222.5,155.2c-4.5,1.1-8.3,1.1-11.2-0.2c-2.8-1.3-4.8-3.7-5.6-7.4l-0.1-0.2l0.2,0c2.7-0.3,5.6,0.2,8.5,1.5
		c2.8,1.3,5.6,3.3,8.2,6.1l0.2,0.2L222.5,155.2z M211.5,154.6c2.7,1.2,6.3,1.3,10.6,0.3c-2.5-2.6-5.2-4.5-7.9-5.7
		c-2.8-1.3-5.6-1.8-8.1-1.5C207,151,208.9,153.4,211.5,154.6L211.5,154.6z"/>
	<path class="st10" d="M220.1,154.6c-4.9,0.6-10.4-2-12-5.2C210.5,152.2,214.5,153.9,220.1,154.6z"/>
	<circle class="st11" cx="195.2" cy="215.4" r="1.5"/>
	<circle class="st11" cx="196.6" cy="217.6" r="1.5"/>
	<circle class="st11" cx="199.2" cy="213.2" r="1.5"/>
	<circle class="st11" cx="211" cy="199.7" r="1.5"/>
	<circle class="st11" cx="214.8" cy="200.3" r="1.5"/>
	<circle class="st11" cx="213.9" cy="195.7" r="1.5"/>
	<circle class="st11" cx="210.2" cy="195.8" r="1.5"/>
	<circle class="st11" cx="216.6" cy="188.9" r="1.5"/>
	<circle class="st11" cx="214.3" cy="186.5" r="1.5"/>
	<circle class="st11" cx="215.8" cy="182.6" r="1.5"/>
	<circle class="st11" cx="214.1" cy="175.9" r="1.5"/>
	<circle class="st11" cx="214.6" cy="172.5" r="1.5"/>
	<circle class="st11" cx="216.4" cy="169.4" r="1.5"/>
	<circle class="st11" cx="212.9" cy="165.7" r="1.5"/>
	<circle class="st11" cx="208" cy="153.8" r="1.5"/>
	<circle class="st11" cx="203.8" cy="153.5" r="1.5"/>
	<circle class="st11" cx="201.1" cy="152.7" r="1.5"/>
	<circle class="st11" cx="200.4" cy="149" r="1.5"/>
	<circle class="st11" cx="204.3" cy="150.1" r="1.5"/>
	<circle class="st11" cx="203.5" cy="147.2" r="1.5"/>
	<path class="st12" d="M137.3,237.6c-0.2,0.1-0.5,0-0.6-0.2s0-0.5,0.2-0.6c3.4-1.9,5.7-3,6.9-3.2c1.8-0.3,2,0.5,0.7,2.6
		c-0.3,0.5-0.2,0.6,0.1,0.6c0.8-0.1,2.1-0.6,3.8-1.3c2.4-1.1,3.7-1.4,4.5-1.5c0.4,0,0.7,0.1,0.9,0.3c0.2,0.2,0.2,0.5,0.1,0.8
		c-0.1,0.4-0.5,0.9-0.8,1.2c0,0-0.7,0-0.4,0c0.5,0.1,1.7-0.1,4.6-0.8c2.2-0.5,3.3-1.1,3.8-1.4c0.2-0.1,0.4-0.2,0.5-0.2h0
		c0.7-0.1,0.6,0.2,0.4,1c-0.1,0.2-0.1,0.4-0.2,0.8v0c0.1,0.1,0.2,0.1,0.5,0.1c0.5,0,1.3-0.2,2.5-0.5c1.5-0.5,2.5-0.7,2.9-0.6
		c0.2,0.1,0.4,0.1,0.5,0.3c1-1,1.7-1.8,2.2-2.4c0.3-0.4,0.5-0.6,0.6-0.8l0.2-0.2c0.5-0.8,0.9-1.2,1.2-1.4c0.4-0.4,0.5-0.3,0.3,0.2
		c0,0.3-0.2,0.8-0.8,1.7l-0.1,0.1c0,0.1-0.1,0.2-0.3,0.4l-0.4,0.5c-0.3,0.3-0.6,0.8-0.9,1.3l0,0c-0.4,0.6-0.5,1.1-0.4,1.5
		c0.1,0.3,0.2,0.5,0.4,0.7l0,0c0.2,0.2,0.5,0.4,0.8,0.4c0.7,0.2,1.5,0,2.3-0.5c1.4-0.9,2.6-1,3.6-0.8c0.3-0.3,0.8-0.6,1.4-0.7
		c1-0.3,1.8-0.6,2.5-0.9c0.7-0.3,1.3-0.6,2-1.1c0.2-0.1,0.5-0.1,0.6,0.1c0.1,0.2,0.1,0.5-0.1,0.6c-0.7,0.5-1.4,0.9-2.2,1.2
		c-0.8,0.3-1.6,0.6-2.6,0.9c-0.3,0.1-0.6,0.2-0.8,0.3c0.2,0.2,0.4,0.3,0.5,0.5c0.2,0.3,0.3,0.6,0.3,0.8c0,0.5-0.2,0.9-0.7,1.1
		c-0.5,0.2-1,0.1-1.3-0.2c-0.2-0.2-0.3-0.4-0.4-0.7c-0.1-0.2-0.1-0.5,0-0.8c0-0.1,0.1-0.3,0.1-0.4c-0.7-0.1-1.5,0.1-2.5,0.7
		c-1.1,0.7-2.1,0.8-3,0.6c-0.5-0.1-0.9-0.4-1.2-0.7l0,0c-0.3-0.3-0.6-0.7-0.7-1.2c0-0.2-0.1-0.4,0-0.6l-0.7,0.7
		c-0.8,0.8-1.4,1.3-1.7,1.5l0,0c-0.2,0.1-0.4,0.1-0.6,0.1c-0.3-0.1-0.4-0.4-0.2-0.7c0.1-0.2,0.4-0.6,0.9-1c0.4-0.4,1.2-0.4,0.9-0.5
		c-0.2-0.1-1.1,0.1-2.4,0.6c-1.3,0.4-2.1,0.5-2.7,0.6c-0.4,0-0.7-0.1-0.9-0.2c-0.3-0.2-0.4-0.4-0.5-0.6c0-0.1,0-0.2,0-0.3l0.1-0.4
		c-0.7,0.3-1.8,0.8-3.6,1.3c-2.9,0.7-4.3,0.9-4.9,0.8c-1.3-0.2-0.8-0.8-0.2-1.4c0.3-0.3,0.5-0.6,0.6-0.9c0,0,0.1,0,0.1,0
		c0,0-0.1,0-0.2,0c-0.6,0-1.9,0.4-4.1,1.4c-1.8,0.8-3.2,1.3-4.1,1.4c-1.4,0.1-1.8-0.4-0.8-1.9c0.6-1,0.6-1.4,0.1-1.3
		C142.8,234.7,140.6,235.7,137.3,237.6L137.3,237.6z M177.4,237.2c-0.1-0.2-0.3-0.3-0.5-0.4c-0.1,0.1-0.1,0.2-0.2,0.4
		c0,0.1,0,0.3,0,0.4c0,0.1,0.1,0.2,0.2,0.3c0.1,0.1,0.3,0.1,0.4,0.1c0.2-0.1,0.2-0.2,0.2-0.3C177.6,237.4,177.5,237.3,177.4,237.2z"
		/>
	<path class="st4" d="M122.6,244.3c5.8,2.3,8.8,7,8.8,14.1c-7.7,0.3-13.2-1.6-16.5-5.6c-1.6,3.5-3.8,5.8-6.4,6.9
		c-1.5-4.7-0.7-8.4,2.5-11.1c-3.3,0.7-6.1,0.6-8.4-0.3C109.6,242.4,116.3,241,122.6,244.3z"/>
	<path d="M122.8,243.8c3,1.2,5.3,3,6.8,5.5c1.5,2.4,2.3,5.5,2.3,9.2c0,0.3-0.2,0.5-0.5,0.5c-3.9,0.1-7.3-0.3-10.1-1.2
		c-2.6-0.9-4.7-2.2-6.3-3.9c-0.8,1.5-1.6,2.8-2.6,3.8c-1.1,1.2-2.4,2.1-3.8,2.6c-0.3,0.1-0.6,0-0.7-0.3l0,0
		c-0.8-2.4-0.9-4.6-0.5-6.6c0.3-1.4,1-2.7,2-3.8c-1.1,0.1-2.1,0.2-3,0.2c-1.5-0.1-2.8-0.3-4-0.8c-0.3-0.1-0.4-0.4-0.3-0.7
		c0-0.1,0.1-0.2,0.2-0.2C109.4,241.8,116.3,240.5,122.8,243.8L122.8,243.8z M128.7,249.8c-1.4-2.3-3.5-3.9-6.3-5l-0.1,0
		c-5.9-3-12.1-1.9-18.7,3.4c0.9,0.2,1.8,0.4,2.8,0.4c1.4,0.1,2.8-0.1,4.4-0.4c0.2-0.1,0.4,0,0.5,0.2c0.2,0.2,0.2,0.6-0.1,0.7
		c-1.5,1.3-2.4,2.8-2.8,4.5c-0.4,1.6-0.3,3.4,0.3,5.5c1.1-0.5,2-1.2,2.9-2.2c1-1.1,1.9-2.5,2.7-4.2c0-0.1,0.1-0.2,0.2-0.2
		c0.2-0.2,0.6-0.2,0.8,0.1c1.6,1.9,3.7,3.3,6.4,4.2c2.6,0.9,5.6,1.3,9.2,1.2C130.8,254.7,130.1,252,128.7,249.8z"/>
	<path class="st4" d="M197.4,244.3c-5.8,2.3-8.8,7-8.8,14.1c7.7,0.3,13.2-1.6,16.5-5.6c1.6,3.5,3.8,5.8,6.4,6.9
		c1.5-4.7,0.7-8.4-2.5-11.1c3.3,0.7,6.1,0.6,8.4-0.3C210.4,242.4,203.7,241,197.4,244.3z"/>
	<path d="M197.6,244.7c-2.8,1.1-4.9,2.8-6.3,5c-1.4,2.2-2.1,4.9-2.2,8.1c3.6,0.1,6.6-0.3,9.2-1.2c2.7-0.9,4.8-2.3,6.4-4.2
		c0.2-0.2,0.5-0.3,0.8-0.1c0.1,0.1,0.1,0.1,0.2,0.2c0.8,1.7,1.7,3.1,2.7,4.2c0.9,0.9,1.8,1.7,2.9,2.2c0.6-2,0.7-3.9,0.3-5.5
		c-0.4-1.7-1.3-3.2-2.8-4.5c-0.2-0.2-0.3-0.5-0.1-0.7c0.1-0.2,0.3-0.2,0.5-0.2c1.6,0.3,3.1,0.5,4.4,0.4c1,0,1.9-0.2,2.8-0.4
		C209.8,242.8,203.5,241.7,197.6,244.7L197.6,244.7L197.6,244.7z M190.4,249.2c1.5-2.5,3.8-4.3,6.8-5.5c6.5-3.3,13.4-1.9,20.5,4.1
		c0.1,0.1,0.1,0.1,0.2,0.2c0.1,0.3,0,0.6-0.3,0.7c-1.2,0.5-2.5,0.7-4,0.8c-1,0-2,0-3-0.2c1,1.1,1.6,2.4,2,3.8
		c0.4,1.9,0.3,4.1-0.5,6.6l0,0c-0.1,0.3-0.4,0.4-0.7,0.3c-1.4-0.6-2.7-1.4-3.8-2.6c-1-1-1.8-2.3-2.6-3.8c-1.7,1.8-3.8,3.1-6.3,3.9
		c-2.8,1-6.2,1.4-10.1,1.2c-0.3,0-0.5-0.2-0.5-0.5C188.1,254.7,188.8,251.7,190.4,249.2L190.4,249.2z"/>
	<path class="st6" d="M124,253.8c5.9,0.4,6.9,1.7,7.4,4.6l1.4-14.3l-6.3-4.9C119.4,236.9,115.8,253.2,124,253.8z"/>
	<path class="st6" d="M196,253.8c-5.9,0.4-6.9,1.7-7.4,4.6l-1.4-14.3l6.3-4.9C200.6,236.9,204.2,253.2,196,253.8z"/>
	<path class="st4" d="M120.5,247.3c-2.2-5.9,4.3-9,6-8.1c21.4,11,45.6,11,67,0c1.7-0.9,8.2,2.2,6,8.1
		C184.1,262.2,135.9,262.2,120.5,247.3z"/>
	<path d="M120,247.5c-0.8-2.1-0.5-3.8,0.2-5.2c0.4-0.9,1.1-1.6,1.8-2.2c0.7-0.6,1.4-1,2.2-1.2c1.1-0.4,2.1-0.5,2.7-0.2
		c10.6,5.4,21.9,8.2,33.3,8.2c11.3,0,22.6-2.7,33.3-8.2c0.6-0.3,1.6-0.3,2.7,0.2c0.7,0.3,1.5,0.7,2.2,1.2c0.7,0.6,1.3,1.3,1.8,2.2
		c0.7,1.4,0.9,3.2,0.2,5.2c0,0.1-0.1,0.1-0.1,0.2C192,255.3,176,259,160,259s-32-3.8-39.9-11.3C120.1,247.6,120,247.6,120,247.5
		L120,247.5z M121.1,242.7c-0.6,1.1-0.8,2.6-0.2,4.3c7.6,7.3,23.3,11,39,11s31.4-3.7,39-11c0.6-1.7,0.4-3.1-0.2-4.3
		c-0.4-0.7-0.9-1.3-1.5-1.8c-0.6-0.5-1.3-0.9-1.9-1.1c-0.8-0.3-1.5-0.4-1.8-0.2c-10.8,5.5-22.3,8.3-33.7,8.3s-23-2.8-33.7-8.3
		c-0.3-0.2-1-0.1-1.8,0.2c-0.6,0.2-1.3,0.6-1.9,1.1C122,241.4,121.5,242,121.1,242.7z"/>
	<path d="M125.7,245.7l0.8,0.4c-0.1,0.3-0.1,0.5-0.1,0.7c0.1,0.2,0.2,0.4,0.4,0.5c0.2,0.2,0.4,0.2,0.6,0.2c0.2,0,0.3-0.1,0.4-0.2
		c0.1-0.1,0.1-0.2,0.1-0.3c0-0.1-0.1-0.2-0.2-0.3c-0.1-0.1-0.2-0.3-0.5-0.5c-0.3-0.3-0.5-0.6-0.6-0.9c-0.1-0.3-0.1-0.7,0.1-0.9
		c0.1-0.2,0.3-0.3,0.5-0.4c0.2-0.1,0.4-0.1,0.7-0.1c0.3,0,0.5,0.2,0.8,0.3c0.5,0.3,0.7,0.6,0.8,1c0.1,0.3,0.1,0.7-0.2,1l-0.8-0.4
		c0.1-0.2,0.1-0.4,0.1-0.5c-0.1-0.2-0.2-0.3-0.4-0.4c-0.2-0.1-0.4-0.2-0.6-0.2c-0.1,0-0.2,0.1-0.3,0.2c-0.1,0.1-0.1,0.2,0,0.3
		c0.1,0.1,0.2,0.4,0.5,0.7c0.3,0.3,0.5,0.6,0.6,0.8c0.1,0.2,0.2,0.4,0.2,0.6c0,0.2-0.1,0.4-0.2,0.7c-0.1,0.2-0.3,0.4-0.5,0.5
		c-0.2,0.1-0.5,0.1-0.8,0.1c-0.3,0-0.6-0.2-0.9-0.4c-0.5-0.3-0.7-0.6-0.9-1S125.5,246.2,125.7,245.7z M132.1,250.7l-0.9-0.4l0.1-1
		l-1.6-0.7l-0.7,0.7l-0.8-0.4l3.3-3.2l0.8,0.4L132.1,250.7L132.1,250.7z M131.4,248.5l0.1-1.7l-1.2,1.2L131.4,248.5z M132.5,250.8
		l1.4-4l0.8,0.3l0.7,3.3l0.9-2.7l0.8,0.3l-1.4,4.1l-0.8-0.3l-0.7-3.2l-0.9,2.7L132.5,250.8L132.5,250.8z M138.9,251.2l0.2-0.7
		l1.8,0.5l-0.4,1.7c-0.2,0.1-0.5,0.2-0.9,0.3c-0.4,0-0.7,0-1.1-0.1c-0.4-0.1-0.8-0.3-1.1-0.6c-0.3-0.3-0.5-0.6-0.5-1
		c-0.1-0.4-0.1-0.8,0-1.2c0.1-0.4,0.3-0.8,0.6-1.1c0.3-0.3,0.6-0.5,1-0.6c0.3-0.1,0.7-0.1,1.1,0c0.5,0.1,0.9,0.3,1.1,0.6
		c0.2,0.3,0.3,0.6,0.3,1l-0.9-0.1c0-0.2-0.1-0.4-0.2-0.6c-0.1-0.2-0.3-0.3-0.6-0.3c-0.4-0.1-0.7-0.1-1,0.1s-0.5,0.5-0.6,1
		c-0.1,0.5-0.1,0.9,0.1,1.2c0.2,0.3,0.4,0.5,0.8,0.6c0.2,0.1,0.4,0.1,0.6,0c0.2,0,0.4-0.1,0.5-0.1l0.1-0.5L138.9,251.2L138.9,251.2z
		 M143.5,249.5l1.7,0.3c0.3,0.1,0.6,0.1,0.7,0.2c0.2,0.1,0.3,0.1,0.4,0.3c0.1,0.1,0.2,0.3,0.3,0.4s0.1,0.3,0.1,0.5
		c0,0.2-0.1,0.4-0.3,0.5c-0.1,0.2-0.3,0.3-0.5,0.3c0.2,0.1,0.4,0.3,0.5,0.5c0.1,0.2,0.1,0.4,0.1,0.7c0,0.2-0.1,0.4-0.2,0.5
		c-0.1,0.2-0.3,0.3-0.5,0.4c-0.2,0.1-0.4,0.1-0.6,0.1c-0.2,0-0.5-0.1-1-0.2l-1.4-0.3L143.5,249.5L143.5,249.5z M144.2,250.3l-0.2,1
		l0.6,0.1c0.3,0.1,0.5,0.1,0.6,0.1c0.1,0,0.3,0,0.4-0.1c0.1-0.1,0.2-0.2,0.2-0.3c0-0.1,0-0.2-0.1-0.3c-0.1-0.1-0.2-0.2-0.3-0.2
		c-0.1,0-0.3-0.1-0.7-0.1L144.2,250.3L144.2,250.3z M143.9,252l-0.2,1.1l0.8,0.1c0.3,0.1,0.5,0.1,0.6,0.1c0.1,0,0.3,0,0.3-0.1
		c0.1-0.1,0.2-0.2,0.2-0.3c0-0.1,0-0.2,0-0.3c-0.1-0.1-0.1-0.2-0.2-0.2c-0.1-0.1-0.4-0.1-0.7-0.2L143.9,252L143.9,252z M147.5,250.2
		l0.9,0.1l-0.3,2.3c-0.1,0.4-0.1,0.6-0.1,0.7c0,0.2,0.1,0.3,0.2,0.5c0.1,0.1,0.3,0.2,0.5,0.2c0.2,0,0.4,0,0.6-0.1
		c0.1-0.1,0.2-0.2,0.3-0.3c0-0.1,0.1-0.4,0.1-0.7l0.3-2.4l0.9,0.1l-0.3,2.2c-0.1,0.5-0.1,0.9-0.2,1.1c-0.1,0.2-0.2,0.4-0.3,0.5
		c-0.2,0.1-0.3,0.2-0.6,0.3c-0.2,0.1-0.5,0.1-0.8,0c-0.4-0.1-0.7-0.1-0.9-0.3c-0.2-0.1-0.4-0.3-0.5-0.4c-0.1-0.2-0.2-0.3-0.2-0.5
		c0-0.3,0-0.6,0.1-1.1L147.5,250.2L147.5,250.2z M151.3,254.9l0.3-4.3l1.3,0.1l0.5,3l1-2.9l1.3,0.1l-0.4,4.3l-0.8-0.1l0.3-3.4
		l-1.1,3.3l-0.8-0.1l-0.6-3.4l-0.3,3.4L151.3,254.9L151.3,254.9z M156.2,255.2l0.2-4.3l0.9,0l-0.2,4.3L156.2,255.2z M159.6,255.3
		l0-4.3l1.8,0c0.5,0,0.8,0,1,0.1c0.2,0.1,0.4,0.2,0.5,0.4c0.1,0.2,0.2,0.4,0.2,0.7c0,0.3-0.1,0.6-0.3,0.8c-0.2,0.2-0.5,0.4-0.8,0.4
		c0.2,0.1,0.3,0.2,0.5,0.4c0.1,0.1,0.3,0.4,0.5,0.7l0.5,0.8h-1l-0.6-0.9c-0.2-0.3-0.4-0.5-0.5-0.6s-0.2-0.2-0.3-0.2
		c-0.1,0-0.2-0.1-0.4-0.1h-0.2l0,1.8C160.4,255.3,159.6,255.3,159.6,255.3z M160.4,252.8h0.6c0.4,0,0.7,0,0.8-0.1
		c0.1,0,0.2-0.1,0.2-0.2c0.1-0.1,0.1-0.2,0.1-0.3c0-0.2,0-0.3-0.1-0.4c-0.1-0.1-0.2-0.2-0.3-0.2c-0.1,0-0.3,0-0.6,0h-0.7
		L160.4,252.8L160.4,252.8z M163.6,251l0.9-0.1l0.1,2.3c0,0.4,0,0.6,0.1,0.7c0,0.2,0.1,0.3,0.3,0.4c0.2,0.1,0.3,0.2,0.6,0.1
		c0.3,0,0.4-0.1,0.5-0.2c0.1-0.1,0.2-0.2,0.2-0.4c0-0.1,0-0.4,0-0.7l-0.1-2.4l0.9-0.1l0.1,2.3c0,0.5,0,0.9,0,1.1
		c0,0.2-0.1,0.4-0.2,0.6c-0.1,0.2-0.3,0.3-0.5,0.4c-0.2,0.1-0.5,0.2-0.8,0.2c-0.4,0-0.7,0-0.9-0.1c-0.2-0.1-0.4-0.2-0.5-0.4
		c-0.1-0.1-0.2-0.3-0.3-0.5c-0.1-0.3-0.1-0.6-0.2-1.1L163.6,251L163.6,251z M168.8,254.9l-1.5-4.2l0.9-0.1l1,2.9l0.5-3l1-0.1
		l1.1,2.9l0.3-3l0.9-0.1l-0.6,4.4l-0.9,0.1l-1.2-3.1l-0.5,3.3L168.8,254.9L168.8,254.9z M177.3,253.7l-0.9,0.2l-0.5-0.9l-1.7,0.3
		l-0.2,1l-0.9,0.2l0.9-4.5l0.9-0.2L177.3,253.7z M175.4,252.3l-0.9-1.5l-0.3,1.7C174.3,252.5,175.4,252.3,175.4,252.3z M179.6,248.8
		l0.8-0.2l0.7,2.6c0.1,0.4,0.1,0.6,0.1,0.8c0,0.3-0.1,0.5-0.3,0.7s-0.4,0.3-0.8,0.4c-0.4,0.1-0.8,0.1-1-0.1
		c-0.3-0.2-0.5-0.5-0.6-0.9l0.8-0.3c0.1,0.2,0.1,0.4,0.2,0.5c0.1,0.1,0.3,0.2,0.5,0.1c0.2,0,0.3-0.1,0.4-0.3c0.1-0.1,0-0.4-0.1-0.7
		L179.6,248.8z M181.1,248.4l0.8-0.3l0.7,2.2c0.1,0.4,0.2,0.6,0.2,0.7c0.1,0.2,0.2,0.3,0.4,0.3c0.2,0.1,0.4,0.1,0.6,0
		c0.2-0.1,0.4-0.2,0.5-0.3c0.1-0.1,0.1-0.3,0.1-0.4c0-0.2-0.1-0.4-0.2-0.7l-0.7-2.3l0.8-0.3l0.7,2.2c0.2,0.5,0.2,0.9,0.3,1.1
		c0,0.2,0,0.4-0.1,0.6c-0.1,0.2-0.2,0.3-0.4,0.5c-0.2,0.1-0.4,0.3-0.7,0.4c-0.4,0.1-0.7,0.2-0.9,0.1c-0.2,0-0.4-0.1-0.6-0.2
		c-0.2-0.1-0.3-0.2-0.4-0.4c-0.1-0.2-0.3-0.6-0.4-1L181.1,248.4L181.1,248.4z M186.5,251.2l-1.6-4l1.7-0.7c0.4-0.2,0.8-0.3,1-0.3
		c0.2,0,0.4,0.1,0.6,0.2c0.2,0.1,0.3,0.3,0.4,0.6c0.1,0.3,0.1,0.6,0,0.9c-0.1,0.3-0.3,0.5-0.7,0.7c0.2,0,0.4,0.1,0.6,0.2
		c0.2,0.1,0.4,0.2,0.7,0.5l0.8,0.6l-1,0.4l-0.9-0.7c-0.3-0.2-0.5-0.4-0.7-0.4c-0.1-0.1-0.2-0.1-0.3-0.1c-0.1,0-0.2,0-0.4,0.1
		l-0.2,0.1l0.6,1.7C187.3,250.9,186.5,251.2,186.5,251.2z M186.4,248.5l0.6-0.2c0.4-0.2,0.6-0.3,0.7-0.3c0.1-0.1,0.1-0.2,0.2-0.3
		c0-0.1,0-0.2,0-0.3c-0.1-0.1-0.1-0.2-0.2-0.3c-0.1-0.1-0.2-0.1-0.4,0c-0.1,0-0.3,0.1-0.6,0.2l-0.6,0.3
		C186,247.5,186.4,248.5,186.4,248.5z M193.9,247.8l-0.8,0.4l-0.8-0.7l-1.5,0.8l0.1,1l-0.8,0.4l-0.5-4.6l0.8-0.4L193.9,247.8
		L193.9,247.8z M191.7,247l-1.3-1.1l0.2,1.7L191.7,247z M194.2,247.5l-2.5-3.5l0.7-0.5l2.5,3.5L194.2,247.5z"/>
	<path class="st13" d="M79.9,26.6h6.5v12.6h10.1v4.1H79.9C79.9,43.3,79.9,26.6,79.9,26.6z M112.3,40.6h-7.3l-1.1,2.8h-6.6l7.9-16.7
		h7.1l7.8,16.7h-6.8L112.3,40.6z M110.9,36.9l-2.3-6l-2.3,6C106.3,36.9,110.9,36.9,110.9,36.9z M122.1,26.6h8.5l3.3,10.2l3.3-10.2
		h8.5v16.7h-5.3V30.6l-4.1,12.7h-4.8l-4.1-12.7v12.7h-5.3C122.1,43.3,122.1,26.6,122.1,26.6z M149.7,26.6h10.8
		c2.3,0,4.1,0.4,5.3,1.3c1.2,0.9,1.8,2.2,1.8,3.8c0,1.7-0.6,3-1.9,4c-1.3,1-3.2,1.4-5.8,1.4h-3.5v6.2h-6.5V26.6z M156.2,33.7h1.6
		c1.3,0,2.1-0.2,2.7-0.5c0.5-0.3,0.8-0.8,0.8-1.3c0-0.5-0.2-1-0.7-1.3c-0.4-0.4-1.3-0.6-2.5-0.6h-1.9
		C156.2,30,156.2,33.7,156.2,33.7z M184.5,26.6h6.5v9.9c0,1-0.2,1.9-0.6,2.8c-0.4,0.9-1,1.7-1.8,2.3c-0.8,0.7-1.7,1.1-2.6,1.4
		c-1.3,0.4-2.8,0.6-4.5,0.6c-1,0-2.1-0.1-3.3-0.2c-1.2-0.1-2.2-0.3-3-0.7c-0.8-0.3-1.6-0.8-2.2-1.4c-0.7-0.6-1.1-1.3-1.4-1.9
		c-0.4-1.1-0.6-2-0.6-2.8v-9.9h6.5v10.2c0,0.9,0.3,1.6,1,2.1c0.6,0.5,1.5,0.8,2.6,0.8c1.1,0,2-0.3,2.6-0.8c0.6-0.5,1-1.2,1-2.2
		C184.5,36.8,184.5,26.6,184.5,26.6z M195.3,26.6h6l7.9,9.2v-9.2h6.1v16.7h-6.1l-7.8-9.2v9.2h-6.1C195.3,43.3,195.3,26.6,195.3,26.6
		z M230.1,37.3v-3.5h10v7.1c-1.9,1-3.6,1.8-5.1,2.1c-1.5,0.4-3.2,0.6-5.2,0.6c-2.5,0-4.5-0.3-6.1-1c-1.6-0.7-2.8-1.7-3.6-3
		c-0.9-1.3-1.3-2.9-1.3-4.6c0-1.8,0.5-3.4,1.4-4.8c0.9-1.3,2.3-2.4,4.1-3.1c1.4-0.5,3.3-0.8,5.7-0.8c2.3,0,4,0.2,5.2,0.5
		c1.2,0.3,2.1,0.9,2.9,1.6c0.8,0.7,1.3,1.6,1.7,2.7l-6.2,0.9c-0.3-0.6-0.7-1.1-1.3-1.5c-0.6-0.3-1.4-0.5-2.4-0.5
		c-1.4,0-2.5,0.4-3.4,1.2c-0.9,0.8-1.3,2-1.3,3.7c0,1.8,0.4,3.1,1.3,3.9c0.9,0.8,2,1.2,3.6,1.2c0.7,0,1.4-0.1,2.1-0.3
		c0.7-0.2,1.4-0.5,2.3-0.9v-1.6H230.1z"/>
</g>
</svg>
