<svg xmlns="http://www.w3.org/2000/svg" xmlns:xlink="http://www.w3.org/1999/xlink" width="649.826" height="730.156" viewBox="0 0 171.933 193.187" xmlns:v="https://vecta.io/nano"><style><![CDATA[.B{opacity:.997}.C{stroke-width:.265}.D{fill:#fcdb00}.E{stroke:#b8a000}.F{fill:#ffec70}.G{opacity:.999}.H{opacity:.995}.I{fill:#00923f}.J{stroke:#00672c}.K{fill:#c4c4c4}.L{stroke:#aaa}.M{fill:#fbfbfb}.N{fill-rule:evenodd}.O{stroke:#8d3803}.P{fill:#009042}.Q{stroke:#064926}.R{fill:#72bf44}.S{stroke-width:.427}.T{stroke-width:.324}.U{fill:#be7212}.V{stroke-width:1.948}.W{fill:#f7941e}.X{fill:#ffd15e}.Y{stroke-width:.339}.Z{stroke-width:.3}.a{stroke:#7668ae}.b{fill:#bab3d6}.c{stroke-width:.529}.d{stroke-width:.487}.e{stroke-width:.446}.f{stroke-width:.503}.g{stroke-width:.865}.h{stroke-width:.259}.i{fill-opacity:.797}]]></style><path d="M24.176.633C24.052 13.96 6.342 19.277.645 19.437 28.797 90.36-4.376 128.118 4.803 143.98c15.827 27.351 59.128 29.849 81.164 48.381 22.036-18.532 65.337-21.031 81.164-48.381 9.179-15.862-23.994-53.62 4.158-124.543-5.697-.16-23.407-5.477-23.531-18.804H85.966z" fill="#715386" stroke="#41304f" stroke-width="1.265"/><g class="c"><use xlink:href="#B" class="K L"/><use xlink:href="#C" class="I J"/></g><use xlink:href="#D" class="M"/><g transform="matrix(.99467 -.103105 .103105 .99467 -200.956467 -51.292234)"><g class="c"><use xlink:href="#B" x="187.736" y="79.725" class="K L"/><use xlink:href="#C" x="187.736" y="79.725" class="I J"/></g><use xlink:href="#D" x="187.736" y="79.725" class="M"/></g><g transform="matrix(.969954 -.31524 .328105 .931921 -221.517902 11.199123)"><g stroke-width=".527"><use xlink:href="#B" x="187.736" y="79.725" class="K L"/><use xlink:href="#C" x="187.736" y="79.725" class="I J"/></g><use xlink:href="#D" x="187.736" y="79.725" class="M"/></g><g transform="matrix(1.050961 -.341568 .355507 1.009751 -248.828282 13.737864)"><g class="d"><use xlink:href="#B" x="187.736" y="79.725" class="K L"/><use xlink:href="#C" x="187.736" y="79.725" class="I J"/></g><use xlink:href="#D" x="187.736" y="79.725" class="M"/></g><g transform="matrix(1.018975 -.42764 .438111 .976751 -252.525612 41.82202)"><g class="d"><use xlink:href="#B" x="187.736" y="79.725" class="K L"/><use xlink:href="#C" x="187.736" y="79.725" class="I J"/></g><use xlink:href="#D" x="187.736" y="79.725" class="M"/></g><g transform="matrix(1.018975 -.42764 .438111 .976751 -255.74431 45.29652)"><g class="d"><use xlink:href="#B" x="187.736" y="79.725" class="K L"/><use xlink:href="#C" x="187.736" y="79.725" class="I J"/></g><use xlink:href="#D" x="187.736" y="79.725" class="M"/></g><g transform="matrix(1.094876 -.50051 .507047 1.053203 -285.394198 59.72922)"><g class="e"><use xlink:href="#B" x="187.736" y="79.725" class="K L"/><use xlink:href="#C" x="187.736" y="79.725" class="I J"/></g><use xlink:href="#D" x="187.736" y="79.725" class="M"/></g><g transform="matrix(1.061806 -.567302 .571248 1.019808 -287.187114 84.16111)"><g class="e"><use xlink:href="#B" x="187.736" y="79.725" class="K L"/><use xlink:href="#C" x="187.736" y="79.725" class="I J"/></g><use xlink:href="#D" x="187.736" y="79.725" class="M"/></g><g transform="matrix(1.007759 -.658548 .658782 .965577 -285.59916 117.76937)"><g class="e"><use xlink:href="#B" x="187.736" y="79.725" class="K L"/><use xlink:href="#C" x="187.736" y="79.725" class="I J"/></g><use xlink:href="#D" x="187.736" y="79.725" class="M"/></g><g transform="matrix(.985822 -.8883 .90992 .909197 -308.08082 186.96417)"><g stroke-width=".405"><use xlink:href="#B" x="187.736" y="79.725" class="K L"/><use xlink:href="#C" x="187.736" y="79.725" class="I J"/></g><use xlink:href="#D" x="187.736" y="79.725" class="M"/></g><g transform="matrix(1.056248 -1.001689 1.059763 .944839 -342.60591 217.61115)"><g stroke-width=".369"><use xlink:href="#B" x="187.736" y="79.725" class="K L"/><use xlink:href="#C" x="187.736" y="79.725" class="I J"/></g><use xlink:href="#D" x="187.736" y="79.725" class="M"/></g><g transform="matrix(1.009369 -1.140161 1.48126 .74605 -375.1415 277.77404)"><g class="Y"><use xlink:href="#B" x="187.736" y="79.725" class="K L"/><path d="M250.295 96.528c-1.797 1.716-3.559.576-3.567 5.28.432 2.601 3.686 1.262 7.417 1.242-.843-.96-1.818-1.369-2.976-1.667.698-.318 1.096-1.037 1.323-1.984-.72-.341-1.439-.681-2.221-.283.157-.788.299-1.583.024-2.587z" class="I J"/></g><use xlink:href="#D" x="187.736" y="79.725" class="M"/></g><g transform="matrix(.690379 -1.287411 1.621227 .513818 -309.9797 344.64588)"><g class="Y"><use xlink:href="#B" x="187.736" y="79.725" class="K L"/><use xlink:href="#C" x="187.736" y="79.725" class="I J"/></g><use xlink:href="#D" x="187.736" y="79.725" class="M"/></g><g transform="matrix(.690379 -1.287411 1.621227 .513818 -310.54666 350.788)"><g class="Y"><use xlink:href="#B" x="187.736" y="79.725" class="K L"/><use xlink:href="#C" x="187.736" y="79.725" class="I J"/></g><use xlink:href="#D" x="187.736" y="79.725" class="M"/></g><g transform="matrix(.690379 -1.287411 1.621227 .513818 -310.83014 357.96955)"><g class="Y"><use xlink:href="#B" x="187.736" y="79.725" class="K L"/><use xlink:href="#C" x="187.736" y="79.725" class="I J"/></g><use xlink:href="#D" x="187.736" y="79.725" class="M"/></g><g transform="matrix(.421932 -1.398579 1.690849 .182797 -250.539972 426.03654)"><g class="Y"><use xlink:href="#B" x="187.736" y="79.725" class="K L"/><use xlink:href="#C" x="187.736" y="79.725" class="I J"/></g><use xlink:href="#D" x="187.736" y="79.725" class="M"/></g><g transform="matrix(.411179 -1.401778 1.692203 .169807 -247.716785 435.88122)"><g class="Y"><use xlink:href="#B" x="187.736" y="79.725" class="K L"/><use xlink:href="#C" x="187.736" y="79.725" class="I J"/></g><use xlink:href="#D" x="187.736" y="79.725" class="M"/></g><g transform="matrix(.42764 -1.46111 1.759949 .176994 -257.496307 456.58405)"><g stroke-width=".325"><use xlink:href="#B" x="187.736" y="79.725" class="K L"/><use xlink:href="#C" x="187.736" y="79.725" class="I J"/></g><use xlink:href="#D" x="187.736" y="79.725" class="M"/></g><g transform="matrix(.466751 -1.458819 1.920911 .176716 -282.197844 462.17853)"><g stroke-width=".312"><use xlink:href="#B" x="187.736" y="79.725" class="K L"/><path d="M246.807 102.151c.66 2.159 3.784 1.188 7.338 1.168-.843-.96-1.819-1.639-2.977-1.937.698-.318 1.096-1.037 1.323-1.984-.72-.341-1.439-.681-2.221-.283.157-.788.299-1.583.024-2.587h0c-1.67 1.595-3.311.722-3.54 4.37l-5.492 3.253.834 1.003z" class="I J"/></g><use xlink:href="#D" x="187.736" y="79.725" class="M"/></g><use xlink:href="#E" class="C D E"/><use xlink:href="#F" class="F"/><use xlink:href="#G" class="C D E"/><use xlink:href="#H" class="F"/><g transform="matrix(.998954 -.045729 .045729 .998954 -194.764618 -70.26243)"><use xlink:href="#E" x="187.736" y="79.725" class="C D E"/><use xlink:href="#F" x="187.736" y="79.725" class="F"/></g><g transform="matrix(1.092128 -.049511 .049991 1.081634 -225.591559 -91.157761)"><path d="M327.426 190.302c.636 2.885-1.376 7.36 4.347 8.292-.242-2.876-.76-5.726-4.347-8.292z" class="C D E"/><use xlink:href="#F" x="187.736" y="79.725" class="F"/></g><g transform="matrix(1.092128 -.049511 .049991 1.081634 -225.024595 -97.394368)"><path d="M327.426 190.302c.636 2.885-1.508 8.359 4.347 8.292-.242-2.876-.76-5.726-4.347-8.292z" class="C D E"/><use xlink:href="#F" x="187.736" y="79.725" class="F"/></g><g transform="matrix(1.167287 -.066823 .073869 1.05027 -253.490841 -91.096668)"><path d="M327.426 190.302c.636 2.885-1.264 6.216 4.347 8.292-.242-2.876-.76-5.726-4.347-8.292z" class="C D E"/><use xlink:href="#F" x="187.736" y="79.725" class="F"/></g><g transform="matrix(1.154912 .068255 .177626 1.076295 -269.769863 -147.097761)"><use xlink:href="#E" x="187.736" y="79.725" class="C D E"/><use xlink:href="#F" x="187.736" y="79.725" class="F"/></g><g transform="matrix(1.062437 -.006028 .226566 .998078 -249.253643 -113.886883)"><path d="M327.426 190.302c-.03 2.881-1.618 6.875 4.347 8.292-.242-2.876-.76-5.726-4.347-8.292z" class="C D E"/><use xlink:href="#F" x="187.736" y="79.725" class="F"/></g><g transform="matrix(.938502 -.174857 .356921 .861018 -234.406399 -37.220104)"><use xlink:href="#I" class="C D E"/><use xlink:href="#F" x="187.736" y="79.725" class="F"/></g><g transform="matrix(.938502 -.174857 .356921 .861018 -235.634822 -42.653512)"><use xlink:href="#I" class="C D E"/><use xlink:href="#F" x="187.736" y="79.725" class="F"/></g><g transform="matrix(.925532 -.233994 .41078 .836662 -243.719409 -24.047997)"><use xlink:href="#I" class="C D E"/><use xlink:href="#F" x="187.736" y="79.725" class="F"/></g><g transform="matrix(.925532 -.233994 .41078 .836662 -245.751031 -30.095616)"><use xlink:href="#I" class="C D E"/><use xlink:href="#F" x="187.736" y="79.725" class="F"/></g><g transform="matrix(.797022 -.378551 .496416 .744709 -223.03549 29.78159)"><use xlink:href="#I" class="C D E"/><use xlink:href="#F" x="187.736" y="79.725" class="F"/></g><g transform="matrix(.775892 -.420164 .535097 .717419 -226.835673 43.6349)"><use xlink:href="#I" class="C D E"/><use xlink:href="#F" x="187.736" y="79.725" class="F"/></g><g transform="matrix(.73336 -.354116 .505765 .604645 -210.020318 39.44611)"><use xlink:href="#I" class="C D E"/><use xlink:href="#F" x="187.736" y="79.725" class="F"/></g><g transform="matrix(.704999 -.407667 .549325 .565363 -212.710709 60.64707)"><use xlink:href="#I" class="C D E"/><use xlink:href="#F" x="187.736" y="79.725" class="F"/></g><g transform="matrix(.672646 -.459088 .589943 .522839 -213.822919 81.75893)"><use xlink:href="#I" class="C D E"/><use xlink:href="#F" x="187.736" y="79.725" class="F"/></g><g transform="matrix(.59186 -.559389 .664991 .423297 -206.218895 130.68201)"><use xlink:href="#I" class="C D E"/><use xlink:href="#F" x="187.736" y="79.725" class="F"/></g><g transform="matrix(.540787 -.608904 .699393 .363652 -200.303289 155.20008)"><use xlink:href="#I" class="C D E"/><use xlink:href="#F" x="187.736" y="79.725" class="F"/></g><g transform="matrix(.630743 -.515149 .632657 .470253 -221.115017 100.31831)"><use xlink:href="#I" class="C D E"/><use xlink:href="#F" x="187.736" y="79.725" class="F"/></g><g transform="matrix(.99518 -.098069 .098069 .99518 -203.881208 -53.360794)"><use xlink:href="#G" x="187.736" y="79.725" class="C D E"/><use xlink:href="#H" x="187.736" y="79.725" class="F"/></g><g transform="matrix(.958887 -.271505 .292831 .889053 -228.987049 18.382939)"><use xlink:href="#G" x="187.736" y="79.725" class="C D E"/><use xlink:href="#H" x="187.736" y="79.725" class="F"/></g><g transform="matrix(.938277 -.335881 .352424 .867158 -233.26861 37.11201)"><use xlink:href="#G" x="187.736" y="79.725" class="C D E"/><use xlink:href="#H" x="187.736" y="79.725" class="F"/></g><g transform="matrix(.930231 -.35756 .372449 .858748 -234.197625 38.9688)"><use xlink:href="#G" x="187.736" y="79.725" class="C D E"/><use xlink:href="#H" x="187.736" y="79.725" class="F"/></g><g transform="matrix(.885504 -.397949 .443528 .744053 -233.633009 68.72148)"><use xlink:href="#J" class="C D E"/><use xlink:href="#H" x="187.736" y="79.725" class="F"/></g><g transform="matrix(.887062 -.394464 .440599 .745791 -234.29504 61.63386)"><use xlink:href="#J" class="C D E"/><use xlink:href="#H" x="187.736" y="79.725" class="F"/></g><g transform="matrix(.851486 -.466318 .500638 .70689 -235.489842 87.98391)"><use xlink:href="#J" class="C D E"/><use xlink:href="#H" x="187.736" y="79.725" class="F"/></g><g transform="matrix(.816506 -.466318 .553664 .70689 -235.446924 81.91267)"><use xlink:href="#J" class="C D E"/><use xlink:href="#H" x="187.736" y="79.725" class="F"/></g><g transform="matrix(.784342 -.518596 .598605 .66926 -235.459606 101.53783)"><use xlink:href="#J" class="C D E"/><use xlink:href="#H" x="187.736" y="79.725" class="F"/></g><g transform="matrix(.694181 -.520137 .547894 .646199 -197.255274 102.03738)"><use xlink:href="#J" class="C D E"/><use xlink:href="#H" x="187.736" y="79.725" class="F"/></g><g transform="matrix(.579932 -.500676 .457721 .622021 -143.2558 95.73504)"><use xlink:href="#J" class="C D E"/><use xlink:href="#H" x="187.736" y="79.725" class="F"/></g><g transform="matrix(.579932 -.500676 .457721 .622021 -145.794861 92.1269)"><use xlink:href="#J" class="C D E"/><use xlink:href="#H" x="187.736" y="79.725" class="F"/></g><g transform="matrix(.505057 -.560077 .503474 .569942 -131.850291 118.77955)"><use xlink:href="#J" class="C D E"/><use xlink:href="#H" x="187.736" y="79.725" class="F"/></g><g transform="matrix(.491136 -.600931 .586564 .523949 -145.764054 138.42727)"><use xlink:href="#J" class="C D E"/><use xlink:href="#H" x="187.736" y="79.725" class="F"/></g><g transform="matrix(.375079 -.630428 .586488 .437137 -109.257474 162.40239)"><use xlink:href="#J" class="C D E"/><use xlink:href="#H" x="187.736" y="79.725" class="F"/></g><g transform="matrix(.339349 -.650358 .609946 .403759 -104.774352 172.31306)"><use xlink:href="#J" class="C D E"/><use xlink:href="#H" x="187.736" y="79.725" class="F"/></g><g transform="matrix(.337103 -.590483 .605911 .366587 -106.251152 156.7628)"><use xlink:href="#J" class="C D E"/><use xlink:href="#H" x="187.736" y="79.725" class="F"/></g><g transform="matrix(.28512 -.482125 .512476 .299316 -73.34597 130.72504)"><use xlink:href="#J" class="C D E"/><use xlink:href="#H" x="187.736" y="79.725" class="F"/></g><g transform="matrix(.286331 -.44206 .514653 .274443 -77.08693 119.6137)"><use xlink:href="#J" class="C D E"/><use xlink:href="#H" x="187.736" y="79.725" class="F"/></g><g transform="matrix(.1999 -.487281 .556436 .174829 -59.9009 152.08291)"><use xlink:href="#J" class="C D E"/><use xlink:href="#H" x="187.736" y="79.725" class="F"/></g><g transform="matrix(.133368 -.509525 .574735 .099328 -44.80632 171.94082)"><use xlink:href="#J" class="C D E"/><use xlink:href="#H" x="187.736" y="79.725" class="F"/></g><g transform="matrix(-.102629 -.807888 -.78258 -.094664 293.78603 302.89752)"><path d="M326.897 189.699c.346 3.476-.226 7.679 4.876 8.895-.242-2.876-.382-6.089-4.876-8.895z" class="C D E"/><use xlink:href="#F" x="187.736" y="79.725" class="F"/></g><path d="M140.587 126.452l2.173.945c23.673-64.492-21.034-102.188-31.385-106.944l-.29.269c24.224 15.246 50.858 53.194 29.502 105.73z" class="C D E"/><g fill="#fff" stroke="#cecece" class="N"><g class="S"><path d="M35.959 127.904c-.782-1.559-2.638-2.17-4.162-1.369l-.664.349c-1.524.8-2.121 2.699-1.339 4.258l2.531 5.046c.782 1.559 2.638 2.169 4.162 1.369l.664-.349c1.524-.8 2.121-2.699 1.338-4.258zm-1.659.871l2.531 5.046c.325.648.102 1.358-.53 1.69l-.664.349a1.17 1.17 0 0 1-1.651-.545l-2.531-5.046c-.325-.648-.102-1.356.531-1.689l.664-.349c.633-.333 1.325-.105 1.65.543z" class="H"/><path d="M41.772 137.143c-1.032-1.399-2.962-1.675-4.329-.619l-.596.46c-1.367 1.055-1.637 3.031-.606 4.43l3.339 4.527c1.032 1.399 2.963 1.675 4.33.619l.596-.46c1.367-1.055 1.637-3.031.605-4.43zm-1.489 1.149l3.339 4.527a1.23 1.23 0 0 1-.239 1.758l-.596.46c-.567.438-1.289.334-1.718-.247l-3.339-4.527c-.429-.581-.328-1.318.24-1.757l.596-.46c.568-.439 1.288-.336 1.717.246z" class="H"/></g><path d="M35.686 133.534l4.39 5.381a.91.91 0 0 1-.111 1.267c-.374.319-.926.268-1.238-.114l-4.39-5.381a.91.91 0 0 1 .111-1.267c.374-.319.926-.268 1.238.114z" class="H T"/><path d="M48.747 145.062c-1.279-1.165-3.225-1.05-4.364.259l-.496.57a3.21 3.21 0 0 0 .253 4.466l4.14 3.772c1.279 1.165 3.226 1.05 4.364-.259l.496-.57a3.21 3.21 0 0 0-.253-4.465zm-1.241 1.424l4.14 3.772a1.23 1.23 0 0 1 .101 1.772l-.496.57c-.472.543-1.201.586-1.732.101l-4.14-3.772c-.531-.484-.573-1.227-.1-1.771l.496-.57c.473-.544 1.199-.587 1.731-.103z" class="H S"/><path d="M42.447 142.737l5.226 4.531a.91.91 0 0 1 .102 1.268c-.315.38-.867.427-1.239.105l-5.226-4.531a.91.91 0 0 1-.102-1.268c.315-.38.867-.427 1.239-.105z" class="H T"/><g class="S"><path d="M58.443 152.256c-1.435-.956-3.343-.543-4.277.925l-.407.64c-.934 1.469-.531 3.42.904 4.376l4.645 3.094c1.435.956 3.343.543 4.277-.925l.407-.64c.934-1.469.531-3.42-.904-4.376zm-1.018 1.599l4.646 3.094c.596.397.748 1.127.36 1.736l-.407.64c-.388.609-1.101.763-1.698.366l-4.646-3.094c-.596-.397-.747-1.125-.359-1.736l.407-.64c.388-.61 1.1-.764 1.696-.367z" class="H"/><path d="M67.471 157.365c-1.661-.428-3.334.595-3.753 2.294l-.182.74c-.418 1.699.582 3.412 2.242 3.84l5.375 1.385c1.661.428 3.334-.596 3.753-2.295l.182-.74c.418-1.699-.582-3.411-2.243-3.839zm-.456 1.85l5.375 1.385c.69.178 1.064.818.891 1.523l-.182.741c-.174.705-.8 1.087-1.49.91l-5.375-1.385c-.69-.178-1.063-.817-.889-1.523l.182-.741c.174-.706.798-1.088 1.488-.91z" class="H"/></g><path d="M60.938 157.282l6.422 2.441c.456.174.687.689.518 1.156s-.674.703-1.13.53l-6.422-2.441c-.456-.173-.687-.689-.518-1.156s.674-.703 1.13-.53z" class="H T"/><path d="M78.508 159.992c-1.702-.196-3.226 1.048-3.417 2.79l-.083.759c-.191 1.741 1.024 3.301 2.726 3.497l5.508.634c1.702.196 3.226-1.049 3.417-2.79l.083-.759c.191-1.741-1.025-3.301-2.726-3.496zm-.209 1.896l5.509.634c.707.081 1.162.664 1.083 1.387l-.083.759c-.079.722-.65 1.187-1.357 1.106l-5.509-.634c-.707-.081-1.161-.663-1.081-1.387l.084-.759c.079-.724.648-1.188 1.355-1.106z" class="H S"/><path d="M71.527 161.13l6.735 1.283c.479.091.792.559.703 1.049s-.546.811-1.025.72l-6.735-1.283c-.479-.091-.792-.559-.703-1.049s.546-.811 1.025-.72z" class="H T"/><g class="S"><path d="M137.551 127.904c.782-1.559 2.638-2.17 4.162-1.369l.664.349c1.524.8 2.121 2.699 1.339 4.258l-2.531 5.046c-.782 1.559-2.638 2.169-4.162 1.369l-.664-.349c-1.524-.8-2.121-2.699-1.338-4.258zm1.659.871l-2.531 5.046c-.325.648-.102 1.358.53 1.69l.664.349a1.17 1.17 0 0 0 1.651-.545l2.531-5.046c.325-.648.102-1.356-.531-1.689l-.664-.349c-.633-.333-1.325-.105-1.65.543z" class="H"/><path d="M131.737 137.143c1.032-1.399 2.962-1.675 4.329-.619l.596.46c1.367 1.055 1.637 3.031.606 4.43l-3.339 4.527c-1.032 1.399-2.963 1.675-4.33.619l-.596-.46c-1.367-1.055-1.637-3.031-.605-4.43zm1.489 1.149l-3.339 4.527a1.23 1.23 0 0 0 .239 1.758l.596.46c.567.438 1.289.334 1.718-.247l3.339-4.527c.429-.581.328-1.318-.24-1.757l-.596-.46c-.568-.439-1.288-.336-1.717.246z" class="H"/></g><path d="M137.823 133.534l-4.39 5.381a.91.91 0 0 0 .111 1.267c.374.319.926.268 1.238-.114l4.39-5.381a.91.91 0 0 0-.111-1.267c-.374-.319-.926-.268-1.238.114z" class="H T"/><path d="M124.763 145.062c1.279-1.165 3.225-1.05 4.364.259l.496.57a3.21 3.21 0 0 1-.253 4.466l-4.14 3.772c-1.279 1.165-3.226 1.05-4.364-.259l-.496-.57a3.21 3.21 0 0 1 .253-4.465zm1.241 1.424l-4.14 3.772a1.23 1.23 0 0 0-.101 1.772l.496.57c.473.543 1.201.586 1.732.101l4.14-3.772c.531-.484.574-1.227.1-1.771l-.496-.57c-.473-.544-1.199-.587-1.731-.103z" class="H S"/><path d="M131.063 142.737l-5.226 4.531a.91.91 0 0 0-.102 1.268c.315.38.867.427 1.239.105l5.226-4.531a.91.91 0 0 0 .102-1.268c-.315-.38-.867-.427-1.239-.105z" class="H T"/><g class="S"><path d="M115.066 152.256c1.435-.956 3.343-.543 4.277.925l.407.64c.934 1.469.531 3.42-.904 4.376l-4.645 3.094c-1.435.956-3.343.543-4.277-.925l-.407-.64c-.934-1.469-.531-3.42.904-4.376zm1.018 1.599l-4.646 3.094c-.596.397-.748 1.127-.36 1.736l.407.64c.388.609 1.101.763 1.698.366l4.646-3.094c.596-.397.747-1.125.359-1.736l-.407-.64c-.388-.61-1.1-.764-1.696-.367z" class="H"/><path d="M106.038 157.365c1.661-.428 3.334.595 3.753 2.294l.182.74c.418 1.699-.582 3.412-2.242 3.84l-5.375 1.385c-1.661.428-3.334-.596-3.753-2.295l-.182-.74c-.418-1.699.582-3.411 2.243-3.839zm.456 1.85l-5.375 1.385c-.69.178-1.064.818-.891 1.523l.182.741c.174.705.8 1.087 1.49.91l5.375-1.385c.69-.178 1.063-.817.889-1.523l-.182-.741c-.174-.706-.798-1.088-1.488-.91z" class="H"/></g><path d="M112.571 157.282l-6.422 2.441c-.456.174-.687.689-.518 1.156s.674.703 1.13.53l6.422-2.441c.456-.173.687-.689.518-1.156s-.674-.703-1.13-.53z" class="H T"/><path d="M95.001 159.992c1.702-.196 3.226 1.048 3.417 2.79l.083.759c.191 1.741-1.024 3.301-2.726 3.497l-5.508.634c-1.702.196-3.226-1.049-3.417-2.79l-.083-.759c-.191-1.741 1.025-3.301 2.726-3.496zm.209 1.896l-5.509.634c-.707.081-1.162.664-1.083 1.387l.083.759c.079.722.65 1.187 1.357 1.106l5.509-.634c.707-.081 1.161-.663 1.081-1.387l-.084-.759c-.079-.724-.648-1.188-1.355-1.106z" class="H S"/><path d="M101.982 161.13l-6.735 1.283c-.479.091-.792.559-.703 1.049s.546.811 1.025.72l6.735-1.283c.479-.091.792-.559.703-1.049s-.546-.811-1.025-.72zm-19.019 2.256l6.85-.098c.487-.007.884.389.891.887s-.38.905-.867.912l-6.85.098c-.487.007-.884-.389-.891-.887s.38-.905.867-.912zm-32.486-12.973l5.991 3.398a.91.91 0 0 1 .343 1.223c-.236.436-.769.592-1.195.351l-5.991-3.398a.91.91 0 0 1-.343-1.223c.236-.436.769-.592 1.195-.351zm72.555 0l-5.991 3.398a.91.91 0 0 0-.343 1.223c.236.436.769.592 1.195.351l5.991-3.398a.91.91 0 0 0 .343-1.223c-.236-.436-.769-.592-1.195-.351z" class="H T"/></g><path d="M139.384 123.962c.219-3.283 1.642-.84 2.071-.668-.28 1.827-.109 3.518.501 5.078-.482 1.045-1.702.952-2.105.1.254-1.708-.235-3.045-.468-4.51z" class="C D E"/><path d="M32.037 129.475c-1.094-3.045-1.008-4.774-.472-6 1.959-2.048 2.435.167 1.559.827l.449 4.418c.571.591-.876 1.926-1.536.756z" class="I J c"/><g transform="matrix(1.03482 0 0 1.03482 -18.610643 -83.135039)" class="N"><path d="M101.058 87.287l-2.642 8.132h-8.552l6.918 5.027-2.642 8.132 6.917-5.026 6.918 5.026-2.642-8.132 6.918-5.027H103.7z" fill="#b8a000" class="H"/><path d="M101.058 89.458l-2.174 6.692h-7.037l5.693 4.137-2.174 6.692 5.693-4.136 5.693 4.136-2.174-6.692 5.693-4.137h-7.037z" class="D H"/><path d="M101.058 89.458l-2.174 6.692 2.174 3.22-9.212-3.22 5.693 4.137 3.518-.916-5.693 7.609 5.693-4.136V99.37l5.693 7.609-2.174-6.692-3.518-1.143 9.212-2.993h-7.037l-2.174 2.993z" class="F H"/></g><use xlink:href="#K" fill="#e77844" stroke="#b44917" class="g"/><path d="M46.963 52.955c-1.049.169-3.067 1.431-4.23 7.088-.037.177-.095.349-.174.512.002.376.062 1.067.178 1.918l.717 4.045c-.061-3.332.716-7.106 3.373-10.748.236-.324.557-.578.928-.732.831-.347 1.033-.671 1.09-.795s.064-.182-.031-.395c-.191-.425-.975-1.033-1.85-.893zm-4.516 7.803l-.031.049c.011-.02.022-.03.031-.049zm-4.502 6.611c-.523-.125-.717-.083-.937.211s-.638 1.411-.039 3.92c.036.138.431.833 1.104 1.643.111.134.258.342.379.484-.181-.621-.356-1.004-.537-1.746-.177-.729.03-1.498.549-2.039.945-.984.786-1.266.658-1.58s-.653-.767-1.176-.893zm6.484 4.639c.892 4.487 1.906 9.331 2.275 12.748.066.658-.169 1.31-.638 1.776s-1.123.695-1.78.625c.02.29.085.562.092.857.018.786-.385 1.523-1.059 1.93.139.375.278.623.416 1.045.346 1.056-.152 2.205-1.16 2.674.155.307.344.555.438.963.172.75.07 1.95-.645 2.77-.092.104-.193.2-.303.285.815.893.754 2.278-.137 3.096.727.188 1.308.734 1.54 1.449s.082 1.498-.397 2.077c-.551.665-.562.88-.605 1.027.375.056 1.163.134 1.314.065 1.037-.474 2.264-.074 2.824.919s.266 2.25-.676 2.892c-.905.617-.836.888-.836.844s-.018.068.305.27c.557.348 1.62.378 2.621-.533l-1.59-32.869-.07-.127a26.22 26.22 0 0 1-.754-1.447c-.397-.826-.788-2.12-1.176-3.332zm-9.096 6.785c-.041.122-.209.31-.209.416.001.251.114.598.375.963s.664.707.938.861.386-.143-.43.191c.285-.116.591-.172.898-.162.072-1.638-.29-2.102-.527-2.262-.162-.109-.641-.031-1.045-.008zm.84 8.383c-.037.179-.195.629-.201.598-.014-.068-.171-.188.109-.01.084.054.366.163.51.223-.186-.49-.323-.791-.418-.811zm.51 6.623c.021.01-.104-.007-.178.031s-.072-.029-.088.158c-.013.15.274.82.744 1.564.173.056.215.092.375.146l-.258-.287c-.328-.365-.524-.829-.557-1.318-.032-.477-.06-.305-.039-.295z" fill="#ee9d78"/><g transform="matrix(-1 0 0 1 403.68059 -79.725)"><use xlink:href="#K" x="231.748" y="79.725" fill="#e77844" stroke="#b44917" class="g"/><path d="M278.711 132.68c-1.049.169-3.067 1.431-4.23 7.088a2.195 2.195 0 0 1-.174.512c.002.376.062 1.067.178 1.918l.717 4.045c-.061-3.332.716-7.106 3.373-10.748a2.195 2.195 0 0 1 .928-.732c.831-.347 1.033-.671 1.09-.795s.064-.182-.031-.395c-.191-.425-.975-1.033-1.85-.893zm-4.516 7.803a2.195 2.195 0 0 1-.031.049c.011-.02.022-.03.031-.049zm-4.502 6.611c-.523-.125-.717-.083-.937.211s-.638 1.411-.039 3.92c.036.138.431.833 1.104 1.643.111.134.258.342.379.484-.181-.621-.356-1.004-.537-1.746a2.195 2.195 0 0 1 .549-2.039c.945-.984.786-1.266.658-1.58s-.653-.767-1.176-.893zm6.484 4.639c.892 4.487 1.906 9.331 2.275 12.748a2.195 2.195 0 0 1-2.418 2.4c.02.29.085.562.092.857a2.195 2.195 0 0 1-1.059 1.93c.139.375.278.623.416 1.045a2.195 2.195 0 0 1-1.16 2.674c.155.307.344.555.438.963.172.75.07 1.95-.645 2.77a2.195 2.195 0 0 1-.303.285 2.195 2.195 0 0 1-.137 3.096 2.195 2.195 0 0 1 1.143 3.525c-.551.665-.562.88-.605 1.027.375.056 1.163.134 1.314.065a2.195 2.195 0 0 1 2.148 3.811c-.905.617-.836.888-.836.844s-.018.068.305.27c.557.348 1.62.378 2.621-.533l-1.59-32.869-.07-.127a26.22 26.22 0 0 1-.754-1.447c-.397-.826-.788-2.12-1.176-3.332zm-9.096 6.785c-.041.122-.209.31-.209.416.001.251.114.598.375.963s.664.707.938.861.386-.143-.43.191a2.195 2.195 0 0 1 .898-.162c.072-1.638-.29-2.102-.527-2.262-.162-.109-.641-.031-1.045-.008zm.84 8.383c-.037.179-.195.629-.201.598-.014-.068-.171-.188.109-.01.084.054.366.163.51.223-.186-.49-.323-.791-.418-.811zm.51 6.623c.021.01-.104-.007-.178.031s-.072-.029-.088.158c-.013.15.274.82.744 1.564.173.056.215.092.375.146l-.258-.287a2.195 2.195 0 0 1-.557-1.318c-.032-.477-.06-.305-.039-.295z" fill="#ee9d78"/></g><ellipse cx="85.967" cy="90.605" rx="38.932" ry="54.256" fill="#fff" stroke="#000" stroke-width=".574" class="G N"/><g class="B"><use xlink:href="#L" fill="#dd954d" class="O h"/><use xlink:href="#M" fill="#f8cda5"/><path d="M69.603 106.995l-2.264 2.876m-2.296-2.632l2.507-2.364m-1.813-2.347l-2.562 1.905m-1.691-3.532l2.472-1.436m-3.758-2.934l2.427-.491m-2.939-3.239l2.235-.052m-2.279-3.459l2.091.109m-1.718-3.698l2.049.241m-1.358-3.421l2.023.545m-1.167-3.187l2.039.652m-.725-3.589l2.03.722m-.711-2.927l2.061.529" fill="none" class="C O"/><g transform="matrix(-1.138489 -.170287 -.414804 .892329 474.48213 -13.110857)"><use xlink:href="#N" class="C P Q"/><use xlink:href="#O" class="R"/></g><g transform="matrix(-.551284 -.723696 -.688048 .579847 339.45422 200.3892)"><use xlink:href="#P" class="C P Q"/><use xlink:href="#Q" class="R"/></g><use xlink:href="#R" class="C P Q"/><use xlink:href="#Q" x="-231.409" y="-79.725" class="R"/><g transform="matrix(.431326 .846686 -.677955 .596023 40.90667 -273.96936)"><use xlink:href="#R" x="231.409" y="79.725" class="C P Q"/><use xlink:href="#Q" class="R"/></g><path d="M69.607 69.413c1.03-10.06 8.832-9.232 13.142-13.553L79.24 60.57l-3.04.334 2.639.301-3.107.368 2.005.334-3.007.401 2.405.067-3.007.601 1.904.2-2.005.334 1.503.234-1.938.401 1.303.367-1.804.401 1.336.167-1.871.401 1.503.067-1.704.401 1.47.368-2.105.334 1.27.134z" class="C P Q"/><path d="M70.588 66.417c3.002-6.909 6.633-5.8 9.087-7.617-3.592 2.007-7.07 4.122-9.087 7.617z" class="R"/><g transform="matrix(.092393 0 0 .092393 29.85807 53.31774)" class="N"><circle cx="422.001" cy="172.602" r="12.829" class="G O U V"/><ellipse cx="423.337" cy="172.253" rx="10.205" ry="10.113" class="G W"/><ellipse cx="426.745" cy="168.631" rx="3.189" ry="3.16" class="G X"/></g><g transform="matrix(.092393 0 0 .092393 28.53516 54.90052)" class="N"><circle cx="422.001" cy="172.602" r="12.829" class="G O U V"/><ellipse cx="423.337" cy="172.253" rx="10.205" ry="10.113" class="G W"/><ellipse cx="426.745" cy="168.631" rx="3.189" ry="3.16" class="G X"/></g><g transform="matrix(.092393 0 0 .092393 31.15736 55.20762)" class="N"><circle cx="422.001" cy="172.602" r="12.829" class="G O U V"/><ellipse cx="423.337" cy="172.253" rx="10.205" ry="10.113" class="G W"/><ellipse cx="426.745" cy="168.631" rx="3.189" ry="3.16" class="G X"/></g><g transform="matrix(.092393 0 0 .092393 29.83445 56.74315)" class="N"><circle cx="422.001" cy="172.602" r="12.829" class="G O U V"/><ellipse cx="423.337" cy="172.253" rx="10.205" ry="10.113" class="G W"/><ellipse cx="426.745" cy="168.631" rx="3.189" ry="3.16" class="G X"/></g><g transform="matrix(-1 0 0 1 403.34239 -79.725)"><use xlink:href="#L" x="231.409" y="79.725" fill="#dd954d" class="O h"/><use xlink:href="#M" x="231.409" y="79.725" fill="#f8cda5"/><path d="M301.012 186.72l-2.264 2.876m-2.296-2.632l2.507-2.364m-1.813-2.347l-2.562 1.905m-1.691-3.532l2.472-1.436m-3.758-2.934l2.427-.491m-2.939-3.239l2.235-.052m-2.279-3.459l2.091.109m-1.718-3.698l2.049.241m-1.358-3.421l2.023.545m-1.167-3.187l2.039.652m-.725-3.589l2.03.722m-.711-2.927l2.061.529" fill="none" class="C O"/><g transform="matrix(-1.138489 -.170287 -.414804 .892329 705.89113 66.614143)"><use xlink:href="#N" class="C P Q"/><use xlink:href="#O" class="R"/></g><g transform="matrix(-.551284 -.723696 -.688048 .579847 570.86322 280.1142)"><use xlink:href="#P" class="C P Q"/><use xlink:href="#Q" class="R"/></g><use xlink:href="#R" x="231.409" y="79.725" class="C P Q"/><use xlink:href="#Q" class="R"/><g transform="matrix(.431326 .846686 -.677955 .596023 272.31567 -194.24436)"><use xlink:href="#R" x="231.409" y="79.725" class="C P Q"/><use xlink:href="#Q" class="R"/></g><path d="M301.016 149.138c1.03-10.06 8.832-9.232 13.142-13.553l-3.508 4.711-3.04.334 2.639.301-3.107.368 2.005.334-3.007.401 2.405.067-3.007.601 1.904.2-2.005.334 1.503.234-1.938.401 1.303.367-1.804.401 1.336.167-1.871.401 1.503.067-1.704.401 1.47.368-2.105.334 1.27.134z" class="C P Q"/><path d="M301.997 146.142c3.002-6.909 6.633-5.8 9.087-7.617-3.592 2.007-7.07 4.122-9.087 7.617z" class="R"/><g transform="matrix(.092393 0 0 .092393 261.26707 133.04274)" class="N"><circle cx="422.001" cy="172.602" r="12.829" class="G O U V"/><ellipse cx="423.337" cy="172.253" rx="10.205" ry="10.113" class="G W"/><ellipse cx="426.745" cy="168.631" rx="3.189" ry="3.16" class="G X"/></g><g transform="matrix(.092393 0 0 .092393 259.94416 134.62552)" class="N"><circle cx="422.001" cy="172.602" r="12.829" class="G O U V"/><ellipse cx="423.337" cy="172.253" rx="10.205" ry="10.113" class="G W"/><ellipse cx="426.745" cy="168.631" rx="3.189" ry="3.16" class="G X"/></g><g transform="matrix(.092393 0 0 .092393 262.56636 134.93262)" class="N"><circle cx="422.001" cy="172.602" r="12.829" class="G O U V"/><ellipse cx="423.337" cy="172.253" rx="10.205" ry="10.113" class="G W"/><ellipse cx="426.745" cy="168.631" rx="3.189" ry="3.16" class="G X"/></g><g transform="matrix(.092393 0 0 .092393 261.24345 136.46815)" class="N"><circle cx="422.001" cy="172.602" r="12.829" class="G O U V"/><ellipse cx="423.337" cy="172.253" rx="10.205" ry="10.113" class="G W"/><ellipse cx="426.745" cy="168.631" rx="3.189" ry="3.16" class="G X"/></g></g></g><g class="a f"><path d="M85.966 89.623l-8.13 2.179-2.575-1.276-6.066 1.816v2.606l4.276 3.007-4.903 23.595 17.397 3.934 17.398-3.934-4.903-23.595 4.277-3.007v-2.606l-6.066-1.816-2.575 1.276z" class="b"/><path d="M77.837 91.801v31.677m4.89-31.677v31.677m3.24-32.549v33.421m8.13-32.549v31.677m-4.89-31.677v31.677" fill="none"/></g><g class="N Z a b"><path d="M103.807 119.837h-2.84v3.107h2.84z" class="B"/><path d="M101.802 120.372h-2.84v3.107h2.84z" class="B"/><path d="M99.664 120.973h-2.84v3.107h2.84z" class="B"/><path d="M97.412 121.527h-2.84v3.107h2.84z" class="B"/><path d="M95.333 121.905h-2.84v3.107h2.84z" class="B"/><path d="M92.924 122.283h-2.84v3.107h2.84z" class="B"/><path d="M90.75 122.897h-2.84v3.107h2.84zm-22.624-3.06h2.84v3.107h-2.84z" class="B"/><path d="M70.131 120.372h2.84v3.107h-2.84z" class="B"/><path d="M72.269 120.973h2.84v3.107h-2.84z" class="B"/><path d="M74.521 121.527h2.84v3.107h-2.84z" class="B"/><path d="M76.6 121.905h2.84v3.107H76.6z" class="B"/><path d="M79.01 122.283h2.84v3.107h-2.84z" class="B"/><path d="M81.183 122.897h2.84v3.107h-2.84z" class="B"/><path d="M83.384 123.309h2.583v3.047h-2.583z" class="B"/><path d="M85.967 123.309h2.583v3.047h-2.583z" class="B"/><path d="M84.313 124.089h3.307v2.79h-3.307z" class="B"/></g><g class="N Z a b"><path d="M69.495 114.221h6.084v3.027h-6.084z" class="B"/><path d="M73.771 114.789h6.084v3.027h-6.084z" class="B"/><path d="M78.212 115.403h6.084v3.027h-6.084zm24.227-1.182h-6.084v3.027h6.084z" class="B"/><path d="M98.162 114.789h-6.084v3.027h6.084z" class="B"/><path d="M93.721 115.403h-6.084v3.027h6.084z" class="B"/><path d="M82.925 115.837h6.084v3.027h-6.084z" class="B"/><path d="M83.847 117.939h4.24v2.137h-4.24z" class="B"/></g><g class="N"><g class="a b"><g class="Z"><path d="M70.593 108.928h3.983v2.878h-3.983z" class="B"/><path d="M74.003 108.456h3.983v2.878h-3.983z" class="B"/><path d="M77.381 108.054h3.983v2.878h-3.983zm-5.346-4.771h4.159v2.623h-4.159z" class="B"/><path d="M74.357 102.766h4.159v2.623h-4.159z" class="B"/><path d="M76.838 102.293h4.159v2.623h-4.159z" class="B"/><path d="M79.143 101.792h4.159v2.623h-4.159z" class="B"/><path d="M81.749 101.291h4.159v2.623h-4.159zm18.149 1.992h-4.159v2.623h4.159z" class="B"/><path d="M97.576 102.766h-4.159v2.623h4.159z" class="B"/><path d="M95.096 102.293h-4.159v2.623h4.159z" class="B"/><path d="M92.791 101.792h-4.159v2.623h4.159z" class="B"/><path d="M90.185 101.291h-4.159v2.623h4.159z" class="B"/><path d="M83.887 100.461h4.159v2.623h-4.159z" class="B"/></g><g stroke-width=".291"><path d="M72.928 97.254h3.893v2.627h-3.893z" class="B"/><path d="M75.101 96.735h3.893v2.627h-3.893z" class="B"/><path d="M77.423 96.262h3.893v2.627h-3.893z" class="B"/><path d="M79.58 95.759h3.893v2.627H79.58z" class="B"/><path d="M82.019 95.257h3.893v2.627h-3.893zm16.986 1.997h-3.893v2.627h3.893z" class="B"/><path d="M96.832 96.735h-3.893v2.627h3.893z" class="B"/><path d="M94.511 96.262h-3.893v2.627h3.893z" class="B"/><path d="M92.353 95.759H88.46v2.627h3.893z" class="B"/><path d="M89.914 95.257h-3.893v2.627h3.893z" class="B"/><path d="M84.02 94.426h3.893v2.627H84.02z" class="B"/></g><g class="Z"><path d="M67.959 92.375h4.042v2.84h-4.042z" class="B"/><path d="M70.699 91.34h4.042v2.84h-4.042z" class="B"/><path d="M73.24 90.526h2.021l2.021 1.001v1.838H73.24zm6.813-1.324h3.809v2.94h-3.809z" class="B"/><path d="M82.258 88.433h3.809v2.94h-3.809zm9.622.769h-3.809v2.94h3.809z" class="B"/><path d="M89.675 88.433h-3.809v2.94h3.809z" class="B"/></g><path d="M83.632 87.807v3.003h2.334 2.335v-3.003h-2.335z" stroke-width=".237" class="B"/><g class="Z"><path d="M103.974 92.375h-4.042v2.84h4.042z" class="B"/><path d="M101.234 91.34h-4.042v2.84h4.042z" class="B"/><path d="M98.693 90.526h-2.021l-2.021 1.001v1.838h4.042zm2.647 18.402h-3.983v2.878h3.983z" class="B"/><path d="M97.931 108.456h-3.983v2.878h3.983z" class="B"/><path d="M94.552 108.054h-3.983v2.878h3.983z" class="B"/></g></g><g class="f"><ellipse cx="85.967" cy="108.999" rx="6.118" ry="7.796" fill="#fff" stroke="#939393" class="B"/><path d="M85.953 101.203c-3.374.009-6.105 3.497-6.105 7.796 0 1.246.234 2.475.684 3.582.581-.071 1.089-.215 1.548-.413a5.96 5.96 0 0 0 1.245-.736c.379-.287.729-.611 1.072-.951l1.03-1.054 1.119-1.046a8.71 8.71 0 0 1 1.336-.928c.497-.277 1.051-.516 1.686-.699a10.06 10.06 0 0 1 2.165-.359c-.865-3.112-3.176-5.192-5.767-5.192z" fill="red" stroke="#c60000" class="B"/></g></g><g stroke="#000" class="C"><g fill="silver"><path d="M71.462 133.52l-.709 2.811h12.331c.919-1.375 1.902-1.649 2.882-1.984-3.631-5.219-9.549 1.512-14.505-.827z"/><path d="M100.471 133.52l.709 2.811H88.849c-.919-1.375-1.902-1.649-2.882-1.984 3.631-5.219 9.549 1.512 14.505-.827z"/></g><g fill="#fff"><path d="M71.462 133.52l4.985-3.969c3.128.47 6.121-3.236 9.52-.307v5.103c-3.631-5.219-9.549 1.512-14.505-.827z"/><path d="M100.471 133.52l-4.985-3.969c-3.128.47-6.121-3.236-9.52-.307v5.103c3.631-5.219 9.549 1.512 14.505-.827z"/></g><path d="M86.652 132.127c3.367-1.331 6.523 1.118 10.747.84m-10.725-2.105c3.305-1.707 5.539 1.135 9.622.702m-9.645-1.704c3.547-1.609 5.895.467 8.843.702m-10.213 1.565c-3.367-1.331-6.523 1.118-10.747.84m10.725-2.105c-3.305-1.707-5.539 1.135-9.622.702m9.645-1.704c-3.547-1.609-5.895.467-8.843.702" fill="none"/></g><g transform="matrix(.6844 0 0 .811097 16.991733 -146.239527)"><g stroke="#a60000" stroke-width=".8"><path d="M28.01 333.506c6.34 8.212 9.85 17.178 21.619 23.943l9.448-11.365c-9.194-3.65-14.036-11.987-18.74-20.471-.882 3.751-.512 7.711-.391 11.629z" fill="red"/><path d="M45.514 348.984c-1.711 2.073 5.068 5.099 4.116 8.466l9.448-11.366-5.091-7.967z" fill="#ae0000" class="i"/><path d="M173.553 333.51c-6.34 8.212-9.85 17.178-21.619 23.943l-9.448-11.365c9.194-3.65 14.036-11.987 18.74-20.471.882 3.751.512 7.711.391 11.629z" fill="red"/><path d="M156.05 348.988c1.711 2.073-5.068 5.099-4.116 8.466l-9.448-11.366 5.091-7.967z" fill="#ae0000" class="i"/><path d="M147.569 338.111c-8.584 9.84-20.138 17.319-32.727 20.666-4.825 1.26-9.801 1.909-14.842 1.847-17.722-.219-34.434-9.166-46.013-22.507l-.002.001-.007.004-1.273 1.633-2.979 3.81-4.214 5.42c14.029 15.143 33.601 25.175 54.317 25.432 21.338.264 41.73-9.862 56.22-25.42h-.001l-4.232-5.432-4.242-5.443-.001-.002-.006-.007z" fill="red" class="G N"/></g><path d="M47.935 348.651l6.196-6.653 1.77 1.648q.989.921 1.205 1.3.342.606.186 1.402-.151.8-.891 1.594-.672.722-1.401.958-.724.232-1.319.051-.59-.185-1.589-1.115l-.722-.672-2.337 2.51zm6.246-4.505l-1.758 1.888.608.566q.613.571.911.687.303.121.65.029.352-.096.656-.423.309-.331.375-.693.066-.362-.075-.638-.141-.276-.831-.918zm-1.121 9.206l5.6-7.161 2.496 1.952q.957.749 1.215 1.265.261.511.151 1.196-.107.68-.626 1.344-.657.84-1.464 1.036-.802.2-1.647-.249.167.572.16 1.094-.003.517-.23 1.694l-.379 1.955-1.412-1.104.359-2.231q.197-1.208.195-1.548.002-.345-.123-.568-.121-.228-.531-.549l-.244-.191-2.338 2.99zm4.414-3.208l.879.688q.806.63 1.079.734.277.099.582-.009.305-.108.584-.465.267-.342.291-.654.027-.317-.146-.579-.124-.184-.92-.806l-.928-.726zm3.705 3.848q.875-1.369 1.841-1.995.975-.628 1.906-.644.93-.016 1.86.578 1.348.861 1.537 2.432.194 1.574-1.021 3.476-1.229 1.923-2.819 2.43-1.4.452-2.753-.413-1.364-.871-1.549-2.321-.208-1.656.998-3.542zm1.34.782q-.845 1.322-.767 2.306.081.979.823 1.453.747.477 1.656.138.912-.345 1.78-1.703.851-1.333.778-2.277-.068-.941-.842-1.436-.773-.494-1.67-.162-.897.332-1.758 1.68zm5.069 8.315l1.783-9.303 1.451.744-1.394 6.847 4.693-5.154 1.424.73-6.522 6.871zm4.496 2.183l3.626-8.337 1.376.599-3.626 8.337zm2.704 1.207l3.036-8.569 1.379.489.849 6.741 2.027-5.722 1.321.468-3.036 8.569-1.426-.505-.849-6.59-1.98 5.588zm7.433-.541l1.469.181q-.174 1.752 1.164 2.079.663.162 1.126-.088.465-.256.59-.768.074-.301-.007-.544-.081-.243-.319-.442-.237-.205-1.201-.779-.864-.512-1.217-.949-.353-.437-.48-1.037-.12-.604.032-1.224.177-.723.644-1.221.473-.497 1.123-.651.651-.154 1.5.054 1.277.313 1.824 1.181.547.868.274 2.167l-1.483-.28q.078-.734-.172-1.096-.25-.361-.84-.506-.59-.145-.97.024-.38.169-.47.536-.088.361.14.679.229.318 1.198.868 1.024.589 1.425 1.064.408.47.53 1.094.123.618-.071 1.413-.282 1.15-1.184 1.759-.896.61-2.402.242-2.662-.652-2.221-3.755zm6.395 4.488l1.534-8.961 1.479.253-1.534 8.961zm9.393-2.306l.069-1.53 3.24.145-.162 3.618q-.515.554-1.432.929-.917.375-1.821.334-1.103-.049-1.921-.626-.818-.583-1.265-1.683-.441-1.106-.375-2.568.067-1.499.611-2.542.55-1.043 1.366-1.534.823-.491 1.932-.441 1.332.06 2.101.777.775.711.945 2.035l-1.502.274q-.136-.708-.565-1.099-.429-.392-1.049-.419-.96-.043-1.589.68-.628.717-.697 2.247-.074 1.642.532 2.525.518.762 1.46.804.44.02.92-.164.486-.189.874-.532l.052-1.152zm3.844-1.001q-.125-1.62.27-2.702.401-1.088 1.134-1.661.733-.573 1.834-.658 1.595-.123 2.691 1.018 1.102 1.14 1.276 3.391.176 2.275-.789 3.637-.846 1.204-2.448 1.327-1.614.125-2.634-.922-1.162-1.198-1.335-3.43zm1.541-.181q.121 1.564.775 2.304.654.733 1.532.665.884-.068 1.406-.886.521-.824.397-2.431-.122-1.577-.749-2.287-.621-.711-1.536-.64-.915.071-1.431.876-.516.805-.393 2.4zm7.182 3.902l-1.726-8.926 3.111-.602q1.193-.231 1.752-.086.557.139 1.001.672.443.527.603 1.355.202 1.047-.179 1.784-.376.736-1.269 1.079.541.249.93.597.388.342 1.126 1.285l1.226 1.569-1.76.34-1.447-1.735q-.782-.941-1.04-1.163-.259-.228-.509-.281-.251-.059-.763.04l-.304.059.72 3.726zm.477-5.436l1.096-.212q1.005-.194 1.262-.332.256-.144.375-.445.119-.301.033-.745-.082-.426-.302-.649-.221-.229-.532-.27-.22-.027-1.212.165l-1.157.224zm5.275-.262q-.48-1.552-.334-2.694.15-1.15.739-1.871.588-.721 1.643-1.047 1.528-.473 2.849.397 1.327.868 1.994 3.024.675 2.18.035 3.722-.559 1.361-2.093 1.836-1.546.479-2.773-.317-1.398-.911-2.06-3.049zm1.463-.518q.464 1.499 1.265 2.075.8.57 1.641.31.847-.262 1.175-1.175.326-.919-.151-2.459-.468-1.511-1.236-2.065-.763-.556-1.64-.284-.877.271-1.202 1.171-.325.899.148 2.428zm7.881 2.22l-3.578-8.357 1.345-.576 5.194 4.38-2.389-5.581 1.288-.552 3.578 8.357-1.391.595-5.092-4.269 2.333 5.45zm8.334-3.836l-3.562-6.661-1.952 1.044-.725-1.356 5.222-2.793.725 1.356-1.947 1.041 3.562 6.661zm9.105-5.499l-1.376.887-1.666-1.383-2.502 1.612.602 2.068-1.345.867-2.485-9.214 1.34-.863zm-4.278-1.522l-2.687-2.281.978 3.383zm4.937.999l-5.486-7.155 1.191-.913 4.554 5.94 2.972-2.279.932 1.216zm1.752-6.984q-1.096-1.2-1.45-2.295-.354-1.105-.129-2.007.225-.903 1.04-1.647 1.181-1.079 2.747-.855 1.57.22 3.093 1.887 1.539 1.685 1.617 3.352.074 1.469-1.112 2.553-1.195 1.092-2.643.894-1.653-.228-3.163-1.881zm1.103-1.091q1.058 1.158 2.029 1.338.967.175 1.617-.419.655-.598.562-1.564-.097-.97-1.184-2.16-1.066-1.168-1.998-1.341-.927-.178-1.605.441-.678.619-.589 1.571.089.952 1.168 2.133z" fill="#fff"/></g><defs ><path id="B" d="M61.189 18.563c2.397-3.277 3.522-2.74 4.229-.945 3.349-.571 2.79 2.158 1.181 3.047 2.245 2.817-2.447 2.976-3.355 2.197z"/><path id="C" d="M62.559 16.803c-1.797 1.716-3.559.576-3.567 5.28.432 2.601 3.687 1.532 7.418 1.512-.843-.96-1.819-1.639-2.977-1.937.698-.318 1.096-1.037 1.323-1.984-.72-.341-1.439-.681-2.221-.283.157-.788.299-1.583.024-2.587z"/><path id="D" d="M63.146 17.873l-.083.885c.538-.078 1.094.083 2.071.752.173.971-.291 1.39-.768 1.971 1.16.467 1.082.643 1.57.952.72-.139.846-.782-.067-1.904 1.784-1.014 1.077-2.694-.969-2.272-.195-1.214-1.765-1.698-1.754-.384z"/><path id="E" d="M139.69 110.577c.636 2.885-1.728 8.436 4.347 8.292-.242-2.876-.76-5.726-4.347-8.292z"/><path id="F" d="M140.54 112.207c1.964 1.475 1.994 3.137 2.055 4.796-1.287-1.407-2.149-2.949-2.055-4.796z"/><path id="G" d="M144.674 118.916c2.443-4.607 5.564-5.824 8.441-7.047-1.898 3.064-1.286 8.611-8.441 7.047z"/><path id="H" d="M147.462 116.955c2.877.184 3.118-2.268 4.276-3.803-1.572.946-3.3 1.547-4.276 3.803z"/><path id="I" d="M327.426 190.302c-.477 2.769-1.598 7.036 4.347 8.292-.242-2.876-1.074-5.296-4.347-8.292z"/><path id="J" d="M332.41 198.641c2.443-4.607 5.564-5.824 8.441-7.047-1.96 3.023-1.796 8.27-8.441 7.047z"/><path id="K" d="M48.6 76.306l1.666 34.461c-3.501 4.752-10.724.133-5.574-3.379-2.111.964-6.852-.211-3.309-4.488-6.586 2.128-5.192-5.214-.935-3.742-.849-.486-1.95-1.016-4.821-1.854-4.428-5.58 2.985-7.76 3.284-3.357l1.804 2.005c.788-.902-.993-2.784-2.142-4.141-1.909-2.254-6.487-1.502-4.139-6.283.293-.597 3.763-1.965 4.645 3.15l2.571 2.997c-1.742-5.301-3.23-6.016-4.811-8.419-1.408.577-5.992-3.212-2.806-6.548 2.348-.787 5.475-.096 5.078 4.811l3.074 6.548c-.098-4.003-1.483-7.381-3.676-10.82-1.181-1.872-3.265-3.591-3.674-5.216-2.769-11.521 10.691-6.377 5.212-.668 1.955 8.013 3.672 7.255 4.477 13.631-.854-7.887-5.168-24.659-3.942-25.391 3.354-16.309 15.692-5.74 8.018-2.539-6.716 9.206-.169 18.755 0 19.243z"/><path id="L" d="M85.772 113.476v5.881c-33.813-7.893-28.586-39.516-18.791-47.78l1.209.804c-18.193 24.963 6.683 43.006 17.582 41.096z"/><path id="M" d="M84.795 114.291l-.142 1.747c-37.619-10.387-20.319-42.074-17.576-43.703-18.654 30.776 13.246 43.455 17.718 41.955z"/><path id="N" d="M282.735 163.152c.895-1.028 2.216-.625 2.372-5.1l.178 2.806.892-4.726-.289 3.662.974-4.757-.095 3.414.945-3.839-.083 3.379.603-3.662.233 2.489.239-2.819.174 2.474.63-4.364-.073 4.108.687-4.912-.033 3.746.647-4.36-.022 4.326.79-4.548-.067 3.677.635-3.443-.171 3.157.739-3.307.089 2.587.763-3.824.144 3.204.524-3.672.212 3.239.606-3.306.128 3.168.891-3.184.054 2.517 1.065-2.567-.184 2.382 1.119-2.683-.281 2.952.96-2.082 2.136 2.413.09-1.839c-4.4-7.727-14.694-1.324-18.223 13.296z"/><path id="O" d="M283.824 159.96c3.658-10.126 11.344-15.61 15.566-11.546-8.214-4.071-13.691 8.496-15.566 11.546z"/><path id="P" d="M283.179 163.872c.895-1.028 1.781-2.093 1.937-6.567l.147 2.931.892-4.726-.266 4.284.974-4.757-.095 3.414.945-3.839-.083 3.379.603-3.662.233 2.489.239-2.819.174 2.474.63-4.364-.073 4.108.687-4.912-.033 3.746.647-4.36-.022 4.326.79-4.548-.067 3.677.635-3.443-.171 3.157.739-3.307.089 2.587.763-3.824.144 3.204.524-3.672.212 3.239.606-3.306.128 3.168.891-3.184.054 2.517 1.065-2.567-.184 2.382 1.119-2.683-.281 2.952.96-2.082 2.136 2.413.09-1.839c-4.686-9.552-17.945-1.334-17.78 14.016z"/><path id="Q" d="M284.29 158.169c3.568-11.491 10.878-13.819 15.101-9.755-8.214-4.071-12.627 3.936-15.101 9.755z"/><path id="R" d="M51.77 84.147c.895-1.028 1.781-2.093 1.937-6.567l.472 2.646.567-4.441.142 3.496.567-3.969v3.071l.85-3.496-.189 2.929.709-3.213v2.457l.472-2.788.236 1.89.567-3.78v2.788l.614-3.591-.047 2.835.661-3.449.167 2.718.601-2.94-.251 2.756.819-2.522-.033 1.687.601-1.837.2.969.651-2.205.2 1.921.468-2.389.418 2.055.401-2.121.267 1.988.752-2.005.15 1.687.969-1.737v1.604l.935-1.904v1.804l2.639-.635c-4.686-9.552-17.68-1.061-17.515 14.289z"/></defs></svg>