<?xml version="1.0" encoding="UTF-8" standalone="no"?>
<svg
   xmlns:dc="http://purl.org/dc/elements/1.1/"
   xmlns:cc="http://creativecommons.org/ns#"
   xmlns:rdf="http://www.w3.org/1999/02/22-rdf-syntax-ns#"
   xmlns:svg="http://www.w3.org/2000/svg"
   xmlns="http://www.w3.org/2000/svg"
   xmlns:xlink="http://www.w3.org/1999/xlink"
   xmlns:sodipodi="http://sodipodi.sourceforge.net/DTD/sodipodi-0.dtd"
   xmlns:inkscape="http://www.inkscape.org/namespaces/inkscape"
   width="590.476"
   height="790.715"
   viewBox="0 0 156.23 209.21"
   version="1.1"
   id="svg372"
   sodipodi:docname="Coat of arms of North Kalimantan (2021 version).svg"
   inkscape:version="1.0.1 (3bc2e813f5, 2020-09-07)">
  <metadata
     id="metadata376">
    <rdf:RDF>
      <cc:Work
         rdf:about="">
        <dc:format>image/svg+xml</dc:format>
        <dc:type
           rdf:resource="http://purl.org/dc/dcmitype/StillImage" />
      </cc:Work>
    </rdf:RDF>
  </metadata>
  <sodipodi:namedview
     pagecolor="#ffffff"
     bordercolor="#666666"
     borderopacity="1"
     objecttolerance="10"
     gridtolerance="10"
     guidetolerance="10"
     inkscape:pageopacity="0"
     inkscape:pageshadow="2"
     inkscape:window-width="1366"
     inkscape:window-height="705"
     id="namedview374"
     showgrid="false"
     inkscape:zoom="0.57416387"
     inkscape:cx="203.19653"
     inkscape:cy="243.42383"
     inkscape:window-x="-8"
     inkscape:window-y="-8"
     inkscape:window-maximized="1"
     inkscape:current-layer="svg372" />
  <style
     id="style2"><![CDATA[.B{opacity:.999}.C{fill:#fff}.D{stroke-width:.265}.E{fill:#006f31}.F{stroke:#002a14}.G{stroke:#c3c3c3}.H{stroke-width:.884}.I{fill-rule:evenodd}.J{stroke:#1b1918}.K{dominant-baseline:auto}.L{opacity:.998}.M{fill:#1b1918}.N{stroke-width:.381}.O{stroke-width:.059}.P{stroke-width:.064}.Q{stroke-width:.233}.R{stroke-width:.235}.S{stroke-width:.382}.T{stroke-width:.665}.U{stroke-width:.528}]]></style>
  <defs
     id="defs76">
    <linearGradient
       id="A"
       x1="0"
       y1="0"
       x2="156.23"
       y2="0"
       gradientUnits="userSpaceOnUse"
       spreadMethod="pad">
      <stop
         stop-color="#ff3737"
         offset="0"
         id="stop4" />
      <stop
         stop-color="#ed9d00"
         offset=".429"
         id="stop6" />
      <stop
         stop-color="#fff9ad"
         offset="1"
         id="stop8" />
    </linearGradient>
    <linearGradient
       id="B"
       x1="0"
       y1="0"
       x2="156.23"
       y2="0"
       gradientUnits="userSpaceOnUse"
       spreadMethod="pad">
      <stop
         stop-color="#fff"
         offset="0"
         id="stop11" />
      <stop
         stop-color="#afafaf"
         offset="1"
         id="stop13" />
    </linearGradient>
    <linearGradient
       id="C"
       x1="202.344"
       x2="205.315"
       y1="187.78"
       y2="187.78"
       xlink:href="#B" />
    <linearGradient
       id="D"
       x1="325.70395"
       x2="329.90854"
       y1="119.07407"
       y2="119.07407"
       xlink:href="#B"
       gradientUnits="userSpaceOnUse"
       gradientTransform="scale(0.63018999,1.586823)" />
    <linearGradient
       id="E"
       x1="334.43301"
       x2="338.31769"
       y1="118.80183"
       y2="118.80183"
       xlink:href="#B"
       gradientTransform="scale(0.63018999,1.586823)"
       gradientUnits="userSpaceOnUse" />
    <linearGradient
       id="F"
       x1="329.86282"
       x2="334.25021"
       y1="118.74738"
       y2="118.74738"
       xlink:href="#B"
       gradientTransform="scale(0.63018999,1.586823)"
       gradientUnits="userSpaceOnUse" />
    <linearGradient
       id="G"
       x1="351.47986"
       x2="355.31882"
       y1="119.16483"
       y2="119.16483"
       xlink:href="#B"
       gradientTransform="scale(0.63018999,1.586823)"
       gradientUnits="userSpaceOnUse" />
    <linearGradient
       id="H"
       x1="347.04678"
       x2="351.38846"
       y1="118.96517"
       y2="118.96517"
       xlink:href="#B"
       gradientTransform="scale(0.63018999,1.586823)"
       gradientUnits="userSpaceOnUse" />
    <linearGradient
       id="I"
       x1="342.97931"
       x2="346.90967"
       y1="119.31002"
       y2="119.31002"
       xlink:href="#B"
       gradientTransform="scale(0.63018999,1.586823)"
       gradientUnits="userSpaceOnUse" />
    <linearGradient
       id="J"
       x1="338.68332"
       x2="342.52228"
       y1="118.94702"
       y2="118.94702"
       xlink:href="#B"
       gradientTransform="scale(0.63018999,1.586823)"
       gradientUnits="userSpaceOnUse" />
    <linearGradient
       id="K"
       x1="359.93472"
       x2="363.9108"
       y1="119.11037"
       y2="119.11037"
       xlink:href="#B"
       gradientTransform="scale(0.63018999,1.586823)"
       gradientUnits="userSpaceOnUse" />
    <linearGradient
       id="L"
       x1="355.68445"
       x2="359.61481"
       y1="118.43882"
       y2="118.43882"
       xlink:href="#B"
       gradientTransform="scale(0.63018999,1.586823)"
       gradientUnits="userSpaceOnUse" />
    <linearGradient
       id="M"
       x1="19.69"
       x2="22.867"
       y1="193.17"
       y2="193.17"
       xlink:href="#B" />
    <linearGradient
       id="N"
       x1="51.310001"
       x2="48.132999"
       y1="193.17"
       y2="193.17"
       xlink:href="#B"
       gradientUnits="objectBoundingBox" />
    <radialGradient
       id="O"
       cx="450.39001"
       cy="160.23"
       r="56.970001"
       gradientTransform="matrix(1.3509,0,0,1.8136,-392.43,-154.94)"
       fx="450.39001"
       fy="160.23"
       gradientUnits="userSpaceOnUse"
       spreadMethod="pad">
      <stop
         stop-color="#9eeafc"
         offset="0"
         id="stop28" />
      <stop
         stop-color="#48d8fa"
         offset="1"
         id="stop30" />
    </radialGradient>
    <linearGradient
       id="P"
       x1="175.256"
       x2="195.52499"
       y1="134.17599"
       y2="134.17599"
       gradientUnits="userSpaceOnUse"
       spreadMethod="pad">
      <stop
         stop-color="red"
         stop-opacity=".986"
         offset="0"
         id="stop33" />
      <stop
         stop-color="red"
         stop-opacity=".986"
         offset=".173"
         id="stop35" />
      <stop
         stop-color="#f60000"
         stop-opacity=".988"
         offset=".355"
         id="stop37" />
      <stop
         stop-color="red"
         stop-opacity=".986"
         offset=".553"
         id="stop39" />
      <stop
         stop-color="#f60000"
         stop-opacity=".988"
         offset=".71"
         id="stop41" />
      <stop
         stop-color="red"
         stop-opacity=".996"
         offset=".856"
         id="stop43" />
      <stop
         stop-color="red"
         offset="1"
         id="stop45" />
    </linearGradient>
    <linearGradient
       id="Q"
       x1="175.258"
       x2="195.527"
       y1="150.05"
       y2="150.05"
       xlink:href="#b">
      <stop
         stop-color="#fff"
         stop-opacity=".984"
         offset="0"
         id="stop48" />
      <stop
         stop-color="#fff"
         offset=".173"
         id="stop50" />
      <stop
         stop-color="#f4f4f4"
         stop-opacity=".988"
         offset=".355"
         id="stop52" />
      <stop
         stop-color="#fff"
         offset=".553"
         id="stop54" />
      <stop
         stop-color="#f4f4f4"
         stop-opacity=".988"
         offset=".71"
         id="stop56" />
      <stop
         stop-color="#fff"
         offset=".856"
         id="stop58" />
    </linearGradient>
    <linearGradient
       id="R"
       x1="-.121"
       x2="-1.018"
       y1="91.441"
       y2="93.362"
       xlink:href="#b">
      <stop
         stop-color="#fff"
         offset="0"
         id="stop61" />
      <stop
         stop-color="#c30000"
         offset="1"
         id="stop63" />
    </linearGradient>
    <linearGradient
       id="S"
       x1="1.8051245"
       x2="4.6130285"
       y1="139.74252"
       y2="134.93791"
       xlink:href="#A"
       gradientTransform="scale(1.5521117,0.64428351)"
       gradientUnits="userSpaceOnUse" />
    <linearGradient
       id="T"
       x1="-2.8277237"
       x2="14.349948"
       y1="79.900558"
       y2="73.299255"
       xlink:href="#A"
       gradientTransform="scale(0.91051769,1.0982763)"
       gradientUnits="userSpaceOnUse" />
    <path
       id="U"
       d="M171.594 183.71c2.149 1.018 4.537.951 7 .54-2.141-.353-2.804-2.032-7-.54z" />
    <path
       id="V"
       d="M-3.709 176.74c2.663 2.168 1.862 3.168 2.342 5.338-1.011-1.113-2.758-2.851-2.341-5.338z" />
    <path
       id="W"
       d="M-8.536 183.71c2.149 1.018 3.625.22 6.088-.191-2.141-.353-1.892-1.3-6.088.191z" />
    <path
       id="X"
       d="M259.825 115.69c-2.542 1.753.235 4.078 2.007 2.831l3.823-4.647c.889-1.309-1.349-4.513-3.401-1.5-2.082-.743-4.957.362-2.429 3.316z" />
    <path
       id="Y"
       d="M260.559 119.01c.094-.783.143-1.238 1.637-1.871-.891-.474-.348-1.111-.683-2.426 1.296.28 2.038-.176 2.616.164.268-.973.649-1.424 1.699-1.958 1.66 1.527-.06 4.971 1.179 6.592-2.773-.745-4.535.716-6.448-.501z" />
    <path
       id="Z"
       d="M-4.897 106.21c2.5-2.615 5.131-4.924 8.686-5.078-.167-1.913-1.978-3.498-.468-5.746 3.292.511 2.843-3.073.535-4.076-.373-1.025-1.68-1.467-3.474-1.604-1.18-2.082-2.361-1.237-3.541-1.737-1.741.995-2.58 1.93-1.604 3.675-1.109 1.729-2.891 6.496 1.737 11.426z" />
    <path
       id="a"
       d="M3.521 91.489c-.804 1.393.72 2.441 1.842 1.479 3.391-2.843 8.724-5.127 15.072-6.984-4.834.937-10.017-1.392-16.914 5.504z" />
    <linearGradient
       id="b"
       gradientUnits="userSpaceOnUse" />
    <linearGradient
       inkscape:collect="always"
       xlink:href="#B"
       id="linearGradient1207"
       x1="19.081163"
       y1="193.16982"
       x2="22.86742"
       y2="193.16982"
       gradientUnits="userSpaceOnUse" />
    <linearGradient
       inkscape:collect="always"
       xlink:href="#B"
       id="linearGradient1215"
       x1="51.350304"
       y1="193.16982"
       x2="49.108421"
       y2="193.16982"
       gradientUnits="userSpaceOnUse" />
    <linearGradient
       inkscape:collect="always"
       xlink:href="#B"
       id="linearGradient1223"
       x1="202.3475"
       y1="187.778"
       x2="205.3185"
       y2="187.778"
       gradientUnits="userSpaceOnUse" />
    <linearGradient
       inkscape:collect="always"
       xlink:href="#A"
       id="linearGradient1225"
       x1="-1.6807996"
       y1="86.856812"
       x2="11.393743"
       y2="79.606758" />
    <linearGradient
       inkscape:collect="always"
       xlink:href="#A"
       id="linearGradient1227"
       x1="1.618384"
       y1="91.092804"
       x2="7.8094444"
       y2="86.571701" />
  </defs>
  <g
     transform="translate(-137.89,-31.178)"
     id="g370">
    <g
       class="I"
       id="g98">
      <path
         d="m 139.05,51.653 c 11.905,-2.294 18.996,-8.326 19.695,-19.319 h 114.28 c 1.788,12.242 7.788,19.455 19.946,19.319 v 118.81 c -0.941,32.748 -49.002,50.053 -76.961,68.514 -26.657,-20.078 -74.898,-32.375 -76.961,-68.514 z"
         fill="url(#O)"
         id="path78" />
      <path
         d="m 216.01,86.21 c -5.404,0 -10.046,21.052 -30.135,39.865 -13.243,12.403 -41.11,20.882 -46.826,27.146 9.803,13.248 30.185,12.197 48.088,8.111 10.278,-2.346 19.554,-6.633 28.873,-6.663 9.319,0.031 18.595,4.317 28.873,6.663 17.902,4.087 38.285,5.137 48.088,-8.111 -5.716,-6.264 -33.583,-14.744 -46.827,-27.146 C 226.056,107.262 221.414,86.21 216.01,86.21 Z"
         fill="#41c050"
         opacity="0.996"
         class="J O"
         id="path80" />
      <g
         transform="translate(0.145)"
         opacity="0.996"
         id="g92">
        <path
           d="m 195.53,105.06 -3.582,1.562 a 5.288,5.288 0 0 0 -3.174,4.847 v 3.624 l -3.582,1.562 a 5.288,5.288 0 0 0 -3.174,4.847 v 3.529 l -3.582,1.562 a 5.288,5.288 0 0 0 -3.174,4.847 v 31.864 l 20.27,-8.836 z"
           fill="url(#P)"
          
           class="B"
           id="path82" />
        <path
           d="m 175.26,145.63 20.27,-8.836 v 35.617 l -20.27,-0.235 z"
           fill="url(#Q)"
          
           class="B"
           id="path84" />
        <g
           transform="matrix(-1,0,0,1,431.73,0)"
           id="g90">
          <path
             d="m 195.53,105.06 -3.582,1.562 a 5.288,5.288 0 0 0 -3.174,4.847 v 3.624 l -3.582,1.562 a 5.288,5.288 0 0 0 -3.174,4.847 v 3.529 l -3.582,1.562 a 5.288,5.288 0 0 0 -3.174,4.847 v 31.864 l 20.27,-8.836 z"
             fill="url(#P)"
            
             class="B"
             id="path86" />
          <path
             d="m 175.26,145.63 20.27,-8.836 v 35.617 l -20.27,-0.235 z"
             fill="url(#Q)"
            
             class="B"
             id="path88" />
        </g>
      </g>
      <path
         d="m 292.97,150.19 v 20.266 c -0.941,32.748 -49.002,50.053 -76.961,68.514 -26.657,-20.078 -74.898,-32.375 -76.961,-68.514 v -20.98 c 9.803,13.248 30.185,12.197 48.088,8.11 10.388,-2.371 19.752,-6.727 29.171,-6.665 15.343,0.1 25.81,9.545 49.244,9.414 9.62,-0.054 19.178,-2.554 27.418,-10.146 z"
         fill="#010066"
         class="J O"
         id="path94" />
      <path
         d="m 292.97,157.59 v 2.406 c -4.609,2.297 -8.827,3.918 -12.811,5.035 -4.769,1.337 -9.194,1.947 -13.544,2.125 -11.199,0.459 -21.607,-2.395 -31,-4.971 -7.515,-2.061 -14.366,-3.94 -20.256,-3.723 -6.499,0.239 -14.654,2.235 -23.062,4.293 l -13.24,3.048 c -8.657,1.735 -17.617,2.002 -25.297,0.729 -5.857,-0.971 -10.987,-2.843 -14.712,-5.651 v -2.857 c 3.421,3.261 8.792,5.395 15.118,6.444 7.375,1.222 16.014,0.959 24.394,-0.721 4.346,-0.871 8.778,-1.956 13.141,-3.024 8.523,-2.086 16.79,-4.109 23.568,-4.359 6.286,-0.231 13.305,1.694 21.005,3.806 9.222,2.529 19.441,5.332 30.241,4.889 4.163,-0.171 8.399,-0.755 12.966,-2.035 4.15,-1.163 8.581,-2.904 13.489,-5.433 z m 0,4.958 v 2.408 c -4.651,2.326 -8.905,3.964 -12.921,5.089 -4.769,1.337 -9.194,1.947 -13.544,2.125 -11.199,0.459 -21.607,-2.395 -31,-4.971 -7.515,-2.061 -14.366,-3.94 -20.256,-3.723 -6.499,0.239 -14.654,2.235 -23.062,4.293 l -13.24,3.048 c -8.657,1.735 -17.617,2.002 -25.297,0.729 -5.8,-0.961 -10.887,-2.807 -14.602,-5.57 v -2.836 c 3.426,3.203 8.75,5.303 15.009,6.34 7.375,1.222 16.014,0.958 24.394,-0.721 4.346,-0.871 8.778,-1.956 13.141,-3.024 8.523,-2.086 16.79,-4.109 23.568,-4.359 6.286,-0.231 13.305,1.694 21.005,3.806 9.222,2.529 19.441,5.332 30.241,4.889 4.163,-0.171 8.399,-0.755 12.966,-2.035 4.181,-1.172 8.647,-2.93 13.598,-5.49 z m 0,4.958 v 2.409 c -4.694,2.355 -8.983,4.01 -13.03,5.144 -4.769,1.337 -9.194,1.947 -13.544,2.125 -11.199,0.459 -21.607,-2.395 -31,-4.971 -7.515,-2.061 -14.366,-3.94 -20.256,-3.723 -6.499,0.239 -14.654,2.235 -23.062,4.293 l -13.24,3.048 c -8.657,1.735 -17.617,2.002 -25.297,0.729 -5.743,-0.952 -10.787,-2.771 -14.493,-5.488 v -2.815 c 3.429,3.146 8.707,5.212 14.899,6.239 7.375,1.222 16.014,0.958 24.394,-0.721 4.346,-0.871 8.778,-1.956 13.141,-3.024 8.523,-2.086 16.79,-4.109 23.568,-4.358 6.286,-0.231 13.305,1.694 21.005,3.806 9.222,2.529 19.441,5.332 30.241,4.889 4.163,-0.171 8.399,-0.755 12.966,-2.035 4.212,-1.18 8.713,-2.956 13.707,-5.546 z m -0.055,4.986 c -0.057,0.864 -0.155,1.715 -0.29,2.555 -4.602,2.292 -8.815,3.911 -12.794,5.026 -4.769,1.337 -9.194,1.947 -13.544,2.125 -11.199,0.459 -21.607,-2.395 -31,-4.971 -7.515,-2.061 -14.366,-3.94 -20.256,-3.723 -6.499,0.239 -14.654,2.235 -23.062,4.293 l -13.24,3.048 c -8.657,1.735 -17.617,2.002 -25.297,0.729 -5.317,-0.881 -10.035,-2.506 -13.646,-4.899 a 32.67,32.67 0 0 1 -0.542,-3.133 c 3.433,2.993 8.583,4.97 14.595,5.967 7.375,1.222 16.014,0.959 24.394,-0.721 4.346,-0.871 8.778,-1.956 13.141,-3.024 8.523,-2.086 16.79,-4.109 23.568,-4.358 6.286,-0.231 13.305,1.694 21.005,3.806 9.222,2.529 19.441,5.332 30.241,4.889 4.163,-0.171 8.399,-0.755 12.966,-2.035 4.227,-1.185 8.746,-2.968 13.762,-5.574 z"
         class="C"
         id="path96" />
    </g>
    <path
       d="M 292.966,170.458 V 51.651 C 281.061,49.356 272.427,43.325 271.728,32.333 H 160.284 c -0.699,10.992 -9.333,17.023 -21.238,19.318 v 118.807 c 2.063,36.139 50.302,48.434 76.958,68.513 26.656,-20.078 74.897,-32.374 76.958,-68.513 z"
       fill="none"
       opacity="0.995"
       stroke="#ffcb00"
       stroke-width="2.312"
       id="path100" />
    <g
       class="I"
       id="g134">
      <g
         stroke="#ffec00"
         id="g110">
        <path
           d="m 207.178,102.995 c 1.356,-0.333 1.84,-1.201 1.452,-2.603 l 6.852,-8.048 6.67,8.214 c -0.551,1.209 -0.237,2.075 1.343,2.437 v 36.275 c -0.882,0.703 -1.393,1.586 -1.258,2.779 l -6.755,8.308 -6.806,-7.998 c 0.439,-1.396 0,-2.45 -1.498,-3.089 z"
           stroke-width="0.601"
           class="M"
           id="path102" />
        <g
           fill="#ffec00"
           id="g108">
          <path
             d="m 218.127,97.036 c 0.482,3.586 3.579,4.515 2.644,7.5 0.304,0.091 0.551,-0.226 0.758,-0.822 0.306,0.577 0.31,1.133 -0.348,1.643 1.175,0.313 0.079,2.581 0.582,5.249 -1.33,-1.867 -0.608,-3.371 -0.993,-3.999 -0.3,-0.491 -0.693,-0.21 -0.961,0.118 -1.002,1.225 0.284,3.242 0.459,1.556 0.664,1.211 -0.621,1.23 -1.076,0.594 -0.377,-0.527 -0.54,-1.72 0.247,-2.562 -0.635,0.272 -1.175,0.574 -1.621,0.904 0.836,1.201 1.73,2.567 1.658,4.172 -0.377,-1.135 -1.41,-2.366 -2.333,-3.58 -0.856,0.902 -1.153,1.975 -0.955,3.201 -0.685,-1.144 -0.776,-2.4 0.555,-3.737 -1.244,-1.719 -2.038,-3.371 -0.175,-4.633 -1.161,-0.313 -1.034,-1.445 -0.703,-1.864 0.4,-0.507 1.986,-0.323 1.076,0.706 -0.414,-0.955 -1.189,0.092 -0.371,0.426 1.482,0.135 1.265,-1.776 1.366,-2.526 0.499,0.521 0.634,1.307 -0.029,2.675 0.349,-0.165 0.669,-0.501 0.97,-0.954 0.073,0.36 -0.143,0.732 -0.6,1.115 0.474,-0.041 0.895,10e-4 1.2,0.227 -0.441,-0.076 -0.863,-0.081 -1.256,0.029 1.426,0.774 1.109,1.737 0.565,2.2 -0.357,0.304 -0.811,0.391 -1.047,0.172 -0.124,-0.115 -0.423,-0.622 0.089,-0.611 -0.089,0.412 0.44,0.394 0.714,0.07 0.327,-0.386 0.131,-0.839 -0.254,-1.087 -0.529,-0.34 -1.265,-0.097 -1.626,0.494 -0.547,0.888 0.013,1.853 0.774,2.958 a 12.11,12.11 0 0 1 1.646,-1.042 c -1.17,0.338 -1.893,-0.095 -2.194,-0.636 -0.322,-0.58 -0.134,-1.416 0.723,-1.431 0.311,-0.006 0.561,0.175 0.46,0.608 -0.503,-0.575 -1.011,0 -0.817,0.435 0.219,0.492 1.217,0.892 2.066,0.048 1.506,-3.268 -2.275,-4.633 -1.191,-7.612 z m -1.379,15.496 c 1.579,-2.716 3.374,0.469 4.993,-0.747 0.268,0.831 -1.009,1.821 -1.977,0.859 0.562,1.197 -1.068,1.721 -1.202,0.484 0.921,0.647 0.76,-0.748 0.253,-0.932 -0.347,-0.126 -1.298,0.055 -1.341,0.88 -0.006,1.344 1.49,2.283 2.12,3.686 0.238,0.18 0.372,-0.179 0.5,-0.715 0.031,-0.129 -1.122,-1.945 -1.886,-1.551 0.637,-1.142 1.881,0.678 1.961,1.168 0.269,-1.154 0.799,-2.805 1.971,-1.758 -0.598,-0.08 -1.105,0.71 -1.49,1.647 -0.032,0.079 2.783,-0.247 1.839,1.313 0.123,-0.933 -1.923,-1.126 -1.952,-1.044 -0.688,1.411 -0.016,2.06 -0.69,2.529 -0.922,-1.511 -1.623,-1.606 -2.521,-0.925 -0.667,0.516 -0.555,1.458 0.532,1.01 0.307,0.657 -1.039,1.179 -1.468,0.148 -0.443,-1.064 0.603,-1.435 1.052,-1.65 -0.442,-0.075 -0.806,0.023 -1.105,0.266 0.105,-0.322 0.334,-0.537 0.774,-0.573 -0.454,-0.124 -0.735,-0.398 -0.938,-0.741 0.269,0.19 0.571,0.287 0.947,0.181 -0.31,-0.26 -0.44,-0.609 -0.389,-1.046 0.532,0.913 1.29,1.575 2.377,1.868 -0.787,-1.452 -2.954,-1.934 -2.36,-4.355 z m 1.29,7.268 c -1.499,1.134 -1.474,2.161 -0.406,3.117 1.757,-3.007 1.265,-5.011 0.161,-5.062 1.473,-0.663 2.701,0.97 0.728,4.785 0.106,-0.07 0.763,-0.572 1.08,-1.519 0.585,-1.746 0.443,-4.212 2.172,-4.035 -1.52,1.31 -1.682,4.783 -1.375,4.725 1.202,-0.229 1.928,0.357 1.597,1.627 -1.007,-1.138 -2.45,-0.925 -3.675,-0.125 1.303,0.53 2.116,3.499 3.91,1.591 0,0.89 -0.451,1.247 -1.271,1.162 0.162,0.62 0.813,0.685 1.602,0.595 -1.43,1.225 -3.249,0.699 -4.423,-1.729 -2.025,1.134 -0.958,3.196 1.174,2.312 -2.28,2.879 -4.951,-1.32 -1.712,-3.276 -2.615,-2.287 -1.942,-4.029 0.437,-4.168 z m 2.292,10.796 c -0.066,0.593 0.212,1.136 0.128,1.77 0.595,-0.885 1.488,0.508 2.436,-1.558 0.086,2.164 -1.346,1.584 -2.182,1.579 -0.082,1.109 0.783,1.88 1.445,1.811 -0.608,0.682 -1.072,0.38 -1.351,-0.165 -0.179,-0.349 -0.19,-0.884 -0.42,-1.041 -0.813,0.425 -1.131,0.847 -1.113,1.268 -1.064,-0.136 -0.86,-1.095 0.844,-1.719 0.243,-0.867 -0.147,-1.502 0.214,-1.946 z m -2.328,-0.862 c -0.27,0.219 -0.237,-0.29 -0.503,-0.292 -0.389,-0.003 -0.949,0.698 0.174,1.358 0.713,0.538 1.536,0.303 2.49,-0.865 -0.285,1.951 -1.92,3.304 -2.431,4.365 -0.402,0.835 0.461,2.214 1.396,1.412 0.739,-0.633 0.386,-1.397 -0.416,-1.017 0.322,-0.658 1.518,-0.736 1.243,0.77 1.404,-0.941 2.284,-0.218 1.987,1.269 -0.828,-1.744 -2.303,0.151 -3.405,0.004 -1.068,-0.142 -2.054,-1.055 -1.663,-2.577 0.644,-1.427 2.032,-1.986 2.258,-2.929 -1.254,0.512 -1.874,1.277 -2.402,2.079 0.038,-0.428 0.118,-0.856 0.492,-1.284 -0.411,0.092 -0.781,0.08 -1.108,-0.036 0.419,-0.053 0.83,-0.161 1.225,-0.422 -0.191,-0.241 -0.596,-0.129 -0.895,-0.193 0.211,-0.303 0.673,-0.137 1.01,-0.206 -1.148,-0.585 -1.081,-1.571 -0.606,-2.041 0.5,-0.495 1.435,-0.434 1.152,0.604 z m 0.431,7.897 c -0.289,-0.518 -0.719,-0.477 -0.922,-0.24 -0.158,0.184 -0.119,0.487 -0.161,0.738 -0.126,0.744 0.498,1.231 -0.121,1.769 -0.906,-0.924 -0.507,-2.529 0.105,-3.057 0.418,-0.362 1.432,-0.026 1.1,0.791 z m 1.192,-0.678 c 0.228,0.296 0.24,0.623 0.074,0.974 0.462,-0.003 0.807,-0.264 1.054,-0.739 0.114,0.441 -0.039,0.797 -0.414,1.085 0.516,0.094 1.002,-0.063 1.447,-0.584 -0.313,1.752 -1.783,0.761 -2.675,1.142 -1.876,0.673 -1.589,2.34 -0.48,2.365 -0.575,0.891 -1.679,-0.055 -1.186,-1.499 0.258,-0.757 1.926,-1.74 2.179,-2.744 z m -1.314,3.059 c 0.773,-1.6 1.708,-0.74 2.562,-1.11 -0.179,0.37 -0.516,0.496 -0.912,0.534 0.545,0.268 0.322,0.869 0.632,1.303 -0.761,-0.242 -0.835,-1.574 -2.282,-0.727 z m -2.454,1.476 c -0.21,-0.813 0.446,-0.924 0.876,-0.644 0.357,0.232 0.678,0.709 1.056,0.937 0.56,0.338 0.959,0.063 1.259,-0.626 0.686,0.445 -0.614,1.989 -1.957,0.843 -1.012,-0.207 -0.624,1.13 0.049,0.437 0.578,0.938 -0.841,0.963 -1.07,0.418 -0.252,-0.601 0.111,-1.173 0.874,-1.293 -0.39,-0.52 -0.761,-0.41 -1.088,-0.071 z m 2.262,-0.945 c 0.425,-0.72 1.786,-0.388 2.309,0.577 0.469,0.865 0.14,1.563 -0.491,2.215 -0.436,0.451 -0.923,0.964 -0.845,1.635 -0.519,-0.192 -0.752,-0.584 -0.475,-1.33 -0.571,0.129 -0.869,0.588 -1.03,1.294 -0.506,-0.647 -0.184,-1.206 0.428,-1.634 -0.367,-0.222 -0.492,-0.488 -0.377,-0.799 0.287,0.381 0.669,0.568 1.391,0.061 1.332,-1.048 0.324,-2.241 -0.91,-2.02 z"
             stroke-width="0.065"
             id="path104" />
          <path
             d="m 212.582,97.051 c -0.498,3.586 -3.699,4.515 -2.733,7.5 -0.314,0.091 -0.569,-0.226 -0.784,-0.822 -0.316,0.577 -0.321,1.133 0.36,1.643 -1.214,0.313 -0.082,2.581 -0.601,5.249 1.374,-1.867 0.629,-3.371 1.027,-3.999 0.311,-0.491 0.717,-0.21 0.994,0.118 1.036,1.225 -0.294,3.242 -0.475,1.556 -0.687,1.211 0.642,1.23 1.113,0.594 0.39,-0.527 0.558,-1.72 -0.255,-2.562 0.657,0.272 1.214,0.574 1.676,0.904 -0.864,1.201 -1.788,2.567 -1.714,4.172 0.39,-1.135 1.457,-2.366 2.411,-3.58 0.885,0.902 1.192,1.975 0.987,3.201 0.708,-1.144 0.802,-2.4 -0.574,-3.738 1.286,-1.719 2.106,-3.371 0.18,-4.633 1.2,-0.313 1.069,-1.445 0.726,-1.864 -0.413,-0.507 -2.053,-0.323 -1.112,0.706 0.428,-0.955 1.229,0.092 0.384,0.426 -1.532,0.135 -1.308,-1.776 -1.412,-2.526 -0.516,0.521 -0.656,1.307 0.03,2.675 -0.36,-0.165 -0.692,-0.501 -1.002,-0.954 -0.076,0.36 0.148,0.732 0.62,1.115 -0.49,-0.041 -0.925,0.001 -1.24,0.227 0.455,-0.076 0.892,-0.081 1.298,0.029 -1.474,0.774 -1.146,1.737 -0.584,2.2 0.369,0.303 0.839,0.391 1.082,0.171 0.128,-0.115 0.437,-0.622 -0.092,-0.611 0.092,0.412 -0.455,0.394 -0.738,0.07 -0.338,-0.386 -0.136,-0.839 0.262,-1.087 0.547,-0.34 1.308,-0.097 1.681,0.494 0.566,0.888 -0.013,1.853 -0.8,2.958 -0.461,-0.343 -1.024,-0.69 -1.701,-1.042 1.209,0.338 1.957,-0.095 2.268,-0.636 0.333,-0.58 0.139,-1.416 -0.748,-1.431 -0.321,-0.006 -0.58,0.175 -0.475,0.608 0.52,-0.575 1.045,0 0.845,0.435 -0.227,0.492 -1.258,0.892 -2.135,0.048 -1.557,-3.268 2.351,-4.633 1.231,-7.612 z m 1.426,15.496 c -1.632,-2.716 -3.488,0.469 -5.162,-0.747 -0.277,0.831 1.043,1.821 2.043,0.859 -0.581,1.197 1.104,1.721 1.243,0.484 -0.952,0.647 -0.785,-0.748 -0.262,-0.932 0.358,-0.126 1.342,0.055 1.387,0.88 0.006,1.344 -1.54,2.283 -2.191,3.686 -0.246,0.18 -0.384,-0.179 -0.517,-0.715 -0.032,-0.129 1.16,-1.945 1.95,-1.551 -0.659,-1.142 -1.944,0.678 -2.027,1.168 -0.278,-1.154 -0.826,-2.805 -2.037,-1.758 0.618,-0.08 1.143,0.71 1.54,1.647 0.034,0.079 -2.877,-0.247 -1.901,1.313 -0.127,-0.933 1.987,-1.126 2.017,-1.044 0.711,1.411 0.015,2.06 0.713,2.529 0.953,-1.511 1.678,-1.606 2.606,-0.925 0.689,0.516 0.574,1.458 -0.55,1.01 -0.317,0.657 1.074,1.179 1.518,0.148 0.458,-1.064 -0.624,-1.435 -1.088,-1.65 0.457,-0.075 0.833,0.023 1.143,0.266 -0.109,-0.322 -0.346,-0.537 -0.8,-0.573 0.469,-0.124 0.76,-0.398 0.969,-0.741 -0.278,0.19 -0.59,0.287 -0.979,0.181 a 1.09,1.09 0 0 0 0.402,-1.046 c -0.55,0.914 -1.334,1.575 -2.457,1.868 0.813,-1.452 3.054,-1.934 2.44,-4.355 z m -1.334,7.268 c 1.55,1.134 1.524,2.161 0.42,3.117 -1.816,-3.007 -1.308,-5.011 -0.166,-5.062 -1.522,-0.663 -2.792,0.97 -0.753,4.785 -0.109,-0.07 -0.789,-0.572 -1.117,-1.519 -0.605,-1.746 -0.458,-4.212 -2.245,-4.035 1.571,1.31 1.738,4.783 1.421,4.725 -1.242,-0.229 -1.993,0.357 -1.65,1.628 1.041,-1.138 2.532,-0.925 3.799,-0.125 -1.347,0.53 -2.187,3.499 -4.041,1.591 10e-4,0.89 0.466,1.247 1.314,1.162 -0.167,0.62 -0.841,0.685 -1.656,0.595 1.478,1.225 3.358,0.699 4.572,-1.729 2.093,1.134 0.99,3.196 -1.214,2.312 2.356,2.879 5.118,-1.32 1.769,-3.276 2.703,-2.287 2.008,-4.029 -0.452,-4.168 z m -2.369,10.796 c 0.068,0.593 -0.219,1.136 -0.132,1.77 -0.615,-0.885 -1.538,0.508 -2.518,-1.558 -0.089,2.164 1.392,1.584 2.256,1.579 0.084,1.109 -0.809,1.88 -1.494,1.811 0.628,0.682 1.108,0.38 1.397,-0.165 0.185,-0.349 0.196,-0.884 0.434,-1.041 0.84,0.425 1.17,0.847 1.15,1.268 1.1,-0.136 0.888,-1.095 -0.872,-1.719 -0.251,-0.867 0.152,-1.502 -0.221,-1.946 z m 2.407,-0.862 c 0.28,0.219 0.245,-0.29 0.52,-0.292 0.402,-0.003 0.98,0.698 -0.18,1.358 -0.737,0.538 -1.588,0.303 -2.574,-0.866 0.295,1.951 1.984,3.304 2.512,4.365 0.416,0.835 -0.476,2.214 -1.443,1.412 -0.764,-0.633 -0.399,-1.397 0.43,-1.017 -0.333,-0.658 -1.569,-0.736 -1.285,0.77 -1.451,-0.941 -2.361,-0.218 -2.054,1.269 0.855,-1.744 2.38,0.151 3.52,0.004 1.104,-0.142 2.123,-1.055 1.719,-2.577 -0.665,-1.427 -2.101,-1.986 -2.334,-2.929 1.297,0.512 1.937,1.277 2.483,2.079 -0.039,-0.428 -0.122,-0.856 -0.509,-1.284 0.425,0.092 0.807,0.08 1.146,-0.036 -0.433,-0.053 -0.858,-0.161 -1.266,-0.422 0.197,-0.241 0.617,-0.129 0.925,-0.193 -0.218,-0.303 -0.696,-0.137 -1.044,-0.206 1.186,-0.585 1.117,-1.571 0.626,-2.041 -0.517,-0.495 -1.483,-0.434 -1.191,0.604 z m -0.445,7.897 c 0.299,-0.518 0.743,-0.477 0.953,-0.24 0.163,0.184 0.123,0.487 0.167,0.738 0.13,0.744 -0.515,1.231 0.126,1.769 0.936,-0.924 0.524,-2.529 -0.108,-3.057 -0.432,-0.362 -1.48,-0.026 -1.137,0.791 z m -1.232,-0.678 c -0.236,0.297 -0.248,0.623 -0.077,0.974 -0.478,-0.003 -0.834,-0.264 -1.09,-0.739 -0.118,0.441 0.04,0.797 0.428,1.085 -0.533,0.094 -1.036,-0.063 -1.495,-0.584 0.324,1.752 1.843,0.761 2.765,1.142 1.939,0.673 1.643,2.34 0.496,2.365 0.595,0.891 1.736,-0.055 1.226,-1.499 -0.267,-0.757 -1.991,-1.74 -2.252,-2.744 z m 1.358,3.059 c -0.799,-1.6 -1.766,-0.74 -2.649,-1.11 0.185,0.37 0.534,0.496 0.943,0.534 -0.563,0.268 -0.332,0.869 -0.653,1.303 0.786,-0.242 0.863,-1.574 2.359,-0.727 z m 2.537,1.476 c 0.217,-0.813 -0.461,-0.924 -0.905,-0.644 -0.369,0.232 -0.7,0.709 -1.092,0.937 -0.579,0.338 -0.991,0.063 -1.301,-0.626 -0.709,0.445 0.635,1.989 2.023,0.843 1.046,-0.207 0.645,1.13 -0.051,0.436 -0.597,0.938 0.869,0.963 1.106,0.418 0.261,-0.601 -0.114,-1.173 -0.904,-1.293 0.403,-0.52 0.787,-0.41 1.125,-0.071 z m -2.338,-0.945 c -0.44,-0.72 -1.846,-0.388 -2.387,0.577 -0.484,0.865 -0.145,1.563 0.508,2.215 0.451,0.451 0.954,0.964 0.873,1.635 0.536,-0.192 0.777,-0.584 0.491,-1.33 0.59,0.129 0.898,0.589 1.064,1.294 0.523,-0.647 0.19,-1.206 -0.442,-1.634 0.379,-0.222 0.509,-0.488 0.389,-0.799 -0.297,0.381 -0.692,0.568 -1.437,0.061 -1.377,-1.048 -0.334,-2.241 0.941,-2.02 z"
             stroke-width="0.066"
             id="path106" />
        </g>
      </g>
      <g
         class="J"
         id="g132">
        <path
           d="m 204.261,128.023 20.764,-17.202 5.257,-0.366 -20.835,16.057 -3.701,2.508 c -0.964,1.488 -0.538,3.183 -0.86,3.42 -0.511,0.377 -0.804,-0.41 -1.073,-2.402 0.075,-0.336 -2.194,0.292 -2.406,-1.294 -0.046,-0.341 1.634,0.266 2.855,-0.721 z"
           class="M P"
           id="path112" />
        <path
           d="m 228.401,110.577 1.88,-0.131 -20.67,15.929 -0.507,-0.679 z"
           stroke-width="0.048"
           class="C"
           id="path114" />
        <path
           d="m 202.288,109.896 c -1.293,0.231 -2.382,-1.877 -3.397,-4.831 2.674,1.237 4.915,2.226 4.545,3.788 l 28.91,26.795 c -0.348,0.484 -0.744,0.909 -1.281,1.17 z"
           class="M P"
           id="path116" />
        <path
           d="m 198.901,105.089 -0.01,-0.028 c 2.588,1.196 4.769,2.161 4.572,3.638 l -0.482,0.452 z"
           stroke-width="0.113"
           class="C"
           id="path118" />
        <g
           class="C"
           id="g130">
          <path
             d="m 270.802,69.167 c -0.237,-6.051 5.05,-3.009 9.836,1.443 2.473,2.301 6.293,3.619 8.915,5.372 -3.638,-0.459 -7.139,-0.116 -10.397,1.659 0.464,3.64 1.679,7.129 3.407,10.516 -4.692,-2.478 -8.592,-8.123 -12.46,-8.954 z"
             class="Q"
             id="path120" />
          <path
             d="m 160.401,69.058 c 0.237,-6.051 -5.068,-3.009 -9.872,1.443 -2.482,2.301 -6.315,3.619 -8.948,5.372 3.651,-0.459 7.165,-0.115 10.435,1.659 -0.466,3.64 -1.685,7.129 -3.42,10.516 4.709,-2.478 8.623,-8.123 12.506,-8.954 z"
             class="R"
             id="path122" />
          <path
             d="m 270.802,69.167 c -0.067,-1.701 0.304,-2.684 0.976,-3.118 0.122,2.176 2.519,2.413 3.416,3.928 l -1.627,1.169 h -2.903 z"
             class="Q"
             id="path124" />
          <path
             d="m 160.401,69.058 c 0.067,-1.701 -0.305,-2.684 -0.98,-3.118 -0.122,2.176 -2.528,2.413 -3.428,3.928 l 1.633,1.169 h 2.913 z"
             class="R"
             id="path126" />
          <path
             d="m 275.196,69.972 c -40.022,-19.709 -79.792,-19.825 -119.306,0 l 4.625,11.401 c 38.445,-19.143 73.295,-18.529 110.141,0 z"
             stroke-width="0.195"
             id="path128" />
        </g>
      </g>
    </g>
    <path
       d="m 164.36,68.799 2.758,6.313 c 0.417,0.287 0.85,0.3 1.302,0.013 l -1.133,-3.099 c 1.387,-0.633 2.458,0.94 3.66,1.601 0.769,0.289 1.305,-0.024 1.84,-0.342 -1.383,-0.819 -1.897,-2.053 -4.218,-2.425 0.814,-1.007 0.956,-2.595 0.995,-4.273 -0.395,0.139 -0.791,0.118 -1.183,0.632 -0.375,2.133 -0.86,3.628 -1.582,3.741 l -1.007,-2.294 c -0.491,-0.186 -0.972,-0.216 -1.431,0.133 z m 13.41,-5.492 2.057,6.423 c 0.153,0.503 0.566,0.502 1.001,0.457 l 3.246,-1.075 c 0.219,-0.287 0.585,-0.331 0.286,-1.114 l -3.198,1.032 -1.831,-5.509 c -0.312,-0.435 -0.923,-0.349 -1.561,-0.215 z m 5.71,-1.589 2.062,6.678 c 0.542,0.314 0.795,0.139 1.319,0.064 l -1.948,-6.744 c -0.598,-0.191 -1.02,-0.101 -1.434,0.002 z m 3.06,-0.876 1.652,6.717 c 0.316,0.421 0.762,0.301 1.203,0.198 l -0.842,-4.61 2.304,2.648 c 0.522,0.376 0.744,0.057 1.048,-0.075 l 0.942,-3.637 1.165,4.276 c 0.316,0.211 0.643,0.401 1.205,0.085 l -1.471,-6.647 c -0.422,-0.283 -0.896,-0.453 -1.567,-0.203 l -1.091,4.491 -2.819,-3.219 c -0.441,-0.267 -1.039,-0.234 -1.729,-0.025 z m 16.28,-3.22 0.579,6.981 c 0.414,0.609 0.878,0.664 1.359,0.536 l -0.335,-5.311 4.44,4.831 1.236,0.072 -0.456,-6.679 c -0.245,-0.761 -0.959,-0.721 -1.581,-0.838 l 0.533,5.195 -3.724,-4.366 c -0.588,-0.179 -0.636,-0.573 -2.051,-0.421 z m 7.57,-0.618 c 0.149,0.458 0.278,0.932 0.794,1.109 l 1.707,0.011 0.161,6.118 c 0.327,0.625 0.916,0.376 1.404,0.463 l -0.173,-6.657 1.465,-0.055 c 0.888,-0.298 0.674,-0.706 0.865,-1.074 z m 14.08,0.272 -0.728,7.107 c 0.286,0.682 0.724,0.815 1.211,0.767 l 0.655,-5.389 3.39,5.601 1.178,0.281 0.791,-6.784 c -0.096,-0.806 -0.791,-0.886 -1.369,-1.108 l -0.443,5.307 -2.785,-5.013 c -0.534,-0.279 -0.507,-0.683 -1.899,-0.769 z m 10.6,1.151 -0.999,5.771 c -0.524,1.958 4.064,3.929 5.491,1.597 l 1.052,-5.169 c 0.098,-0.905 -0.46,-0.877 -0.874,-1.054 l -1.196,5.621 c -0.078,0.535 -2.887,1.293 -3.265,-0.896 l 0.958,-4.991 c -0.382,-0.293 0.134,-0.491 -1.167,-0.88 z m 6.86,1.574 c 0.013,0.473 0.002,0.955 0.434,1.26 l 1.586,0.464 -1.535,5.829 c 0.133,0.678 0.75,0.599 1.18,0.811 l 1.672,-6.342 1.379,0.338 c 0.909,-0.045 0.822,-0.488 1.101,-0.785 z m 13.82,4.134 -2.403,6.432 c -0.02,0.742 0.535,0.837 0.964,1.074 l 1.208,-3.013 c 1.019,0.426 1.496,1.601 1.667,3.367 0.075,0.776 0.989,0.917 1.529,0.877 -0.342,-1.153 -0.147,-2.355 -1.157,-3.741 2.257,0.322 3.661,-2.748 1.637,-3.79 z m 0.905,1.319 1.363,0.46 c 1.311,0.675 0.4,2.732 -0.785,2.122 l -1.331,-0.493 z M 173.6,64.973 c -0.89,1.317 -0.829,4.527 -0.542,8.185 0.411,-0.252 0.901,-0.166 1.041,-1.57 l -0.046,-0.867 3.156,-1.284 0.61,0.813 c 0.565,0.839 1.201,0.542 1.819,0.541 -1.7,-2.186 -3.066,-4.635 -6.037,-5.817 z m 0.624,1.571 c 0.95,0.572 1.708,1.325 2.416,2.178 l -2.627,0.908 0.008,-1.397 a 10.37,10.37 0 0 1 0.203,-1.69 z m 24.046,-8.288 c -1.101,1.137 -1.661,4.35 -2.093,8.053 0.44,-0.17 0.889,0.012 1.293,-1.359 l 0.123,-0.873 3.252,-0.657 0.424,0.931 c 0.376,0.948 1.039,0.778 1.628,0.898 -1.197,-2.515 -2.026,-5.226 -4.627,-6.991 z m 0.292,1.69 c 0.794,0.758 1.37,1.658 1.88,2.649 l -2.676,0.387 0.277,-1.391 a 10.8,10.8 0 0 1 0.519,-1.645 z M 220,56.887 c -1.416,0.912 -2.716,4.078 -3.989,7.775 0.502,-0.073 0.938,0.217 1.667,-1.096 l 0.322,-0.867 3.584,0.075 0.244,1.052 c 0.189,1.058 0.927,1.037 1.523,1.296 -0.711,-2.854 -0.99,-5.826 -3.351,-8.235 z m -0.064,1.8 c 0.672,0.96 1.084,2.016 1.405,3.149 l -2.916,-0.22 0.599,-1.362 a 10.98,10.98 0 0 1 0.912,-1.567 z m 31.494,3.792 c -1.638,0.502 -3.753,3.155 -5.981,6.316 0.515,0.058 0.87,0.442 1.935,-0.611 l 0.546,-0.735 3.521,0.977 -0.035,1.053 c -0.091,1.045 0.644,1.211 1.165,1.606 0.046,-2.869 0.55,-5.738 -1.15,-8.605 z m -0.536,1.68 c 0.412,1.074 0.542,2.173 0.561,3.322 l -2.823,-0.944 0.95,-1.132 c 0.471,-0.521 0.926,-0.94 1.312,-1.246 z m 14.196,3.545 c -1.617,0.348 -3.894,2.769 -6.327,5.681 0.488,0.103 0.792,0.512 1.911,-0.429 l 0.593,-0.675 3.282,1.275 -0.133,1.032 c -0.186,1.02 0.503,1.249 0.965,1.684 0.315,-2.818 1.069,-5.597 -0.29,-8.569 z m -0.672,1.605 c 0.294,1.094 0.314,2.186 0.224,3.318 l -2.615,-1.181 1.017,-1.029 a 10.84,10.84 0 0 1 1.375,-1.109 z"
       id="path136" />
    <g
       fill="#ffd300"
       class="I J"
       id="g148">
      <path
         d="m 240.66,198.399 c -0.325,-1.504 1.882,-0.792 5.006,-1.477 2.844,-0.623 6.647,-2.984 9.596,-5.095 -1.004,3.243 -2.722,5.772 -4.839,7.901 3.255,0.713 6.586,1.15 10.047,1.12 -4.888,3.649 -9.972,5.531 -15.19,6.205 z"
         class="N"
         id="path138" />
      <path
         d="m 190.743,198.733 c 0.321,-1.504 -1.858,-0.792 -4.943,-1.477 -2.808,-0.623 -6.563,-2.984 -9.475,-5.095 0.991,3.243 2.687,5.772 4.778,7.901 -3.214,0.713 -6.504,1.15 -9.921,1.12 4.826,3.649 9.847,5.531 14.999,6.205 z"
         class="S"
         id="path140" />
      <path
         d="m 240.634,198.105 c 0.815,1.515 2.558,2.159 5.6,1.901 l -0.573,2.877 -2.261,0.635 c -1.778,-1.207 -3.179,-2.677 -2.766,-5.413 z"
         class="N"
         id="path142" />
      <path
         d="m 190.77,198.439 c -0.805,1.515 -2.526,2.159 -5.529,1.901 l 0.566,2.877 2.232,0.635 c 1.755,-1.207 3.139,-2.677 2.731,-5.413 z"
         class="S"
         id="path144" />
      <path
         d="m 184.841,199.935 c 20.693,5.193 41.198,4.728 61.562,0 l 2.666,10.857 c -22.128,5.453 -44.255,5.351 -66.383,-0.108 z"
         class="N"
         id="path146" />
    </g>
    <path
       d="m 222.623,205.19 0.665,6.973 c 0.421,0.604 0.886,0.653 1.365,0.519 l -0.401,-5.306 4.5,4.776 1.237,0.056 -0.538,-6.673 c -0.255,-0.758 -0.968,-0.709 -1.591,-0.818 l 0.597,5.188 -3.778,-4.32 c -0.59,-0.171 -0.643,-0.565 -2.056,-0.396 z m 7.37,-0.7 c 0.202,0.437 0.386,0.892 0.92,1.007 l 1.696,-0.192 0.885,6.056 c 0.399,0.581 0.954,0.264 1.449,0.293 l -0.961,-6.59 1.448,-0.228 c 0.846,-0.401 0.586,-0.781 0.732,-1.169 z m -21.28,0.81 0.04,5.857 c -0.168,2.02 4.696,3.147 5.687,0.599 l 0.119,-5.273 c -0.064,-0.908 -0.608,-0.781 -1.047,-0.882 l -0.181,5.744 c 0.018,0.54 -2.612,1.784 -3.372,-0.303 l 0.058,-5.082 c -0.428,-0.22 0.045,-0.507 -1.304,-0.659 z m 10,0.06 c -1.236,0.99 -2.194,4.107 -3.088,7.726 0.457,-0.113 0.881,0.123 1.454,-1.186 l 0.231,-0.851 3.309,-0.244 0.304,0.977 c 0.254,0.987 0.933,0.902 1.502,1.095 -0.872,-2.645 -1.354,-5.439 -3.713,-7.517 z m 0.077,1.713 c 0.692,0.851 1.151,1.817 1.533,2.864 l -2.704,0.048 0.449,-1.345 c 0.235,-0.63 0.49,-1.161 0.722,-1.567 z m 19.953,-4.053 c -1.161,1.22 -1.679,4.603 -2.046,8.496 0.471,-0.189 0.963,-0.01 1.362,-1.458 l 0.109,-0.919 3.501,-0.772 0.485,0.965 c 0.433,0.984 1.146,0.789 1.786,0.901 -1.364,-2.607 -2.335,-5.428 -5.197,-7.214 z m 0.362,1.765 c 0.88,0.775 1.528,1.704 2.107,2.73 l -2.885,0.473 0.262,-1.465 a 11.1,11.1 0 0 1 0.517,-1.738 z m -38.112,-0.215 -0.642,6.975 c 0.302,0.672 0.749,0.806 1.245,0.763 l 0.592,-5.288 3.534,5.529 1.205,0.285 0.711,-6.657 c -0.109,-0.792 -0.819,-0.876 -1.411,-1.099 l -0.377,5.209 -2.909,-4.946 c -0.548,-0.278 -0.526,-0.675 -1.947,-0.771 z m -5.65,-0.53 -1.208,7.289 4.102,0.535 c 0.636,-0.253 0.656,-0.636 0.853,-0.982 l -3.669,-0.478 0.335,-2.021 2.721,0.355 c 0.861,-0.296 0.742,-0.672 0.953,-1.021 l -3.485,-0.466 0.325,-1.96 3.166,0.413 c 0.37,-0.224 0.857,-0.244 0.926,-0.993 z m -5.98,-1.12 -1.275,6.686 c -0.064,0.251 0.064,0.458 0.425,0.614 l 2.528,0.567 c 2.668,0.39 2.994,-2.294 1.914,-3.496 1.352,-0.362 1.607,-3.233 -0.294,-3.742 z m 1.155,1.299 1.47,0.183 c 1.637,0.439 0.647,2.504 -0.468,2.205 l -1.454,-0.284 z m -0.568,3.107 1.47,0.184 c 1.637,0.439 0.647,2.504 -0.468,2.205 l -1.454,-0.284 z"
       id="path150" />
    <g
       fill="#cd661c"
       stroke="#8b4512"
       class="T"
       id="g160">
      <path
         d="m 216.01,152.7 c -1.055,0 -2.667,0.687 -3.024,1.89 l 1.89,27.781 h 2.268 l 1.89,-27.781 c -0.357,-1.203 -1.969,-1.89 -3.024,-1.89 z"
         id="path152" />
      <path
         d="m 194.16,158.75 c -0.802,-0.215 -2.097,0.833 -1.537,1.804 5.994,14.782 11.443,17.394 16.905,15.903 2.077,1.819 4.174,3.664 5.222,4.133 l -1.618,-23.784 c -5.547,1.554 -11.425,3.748 -18.972,1.945 z"
         id="path154" />
      <path
         d="m 194.12,164.02 c 6.161,1.086 12.593,-0.384 19.276,-3.361 m -16.716,8.251 c 5.438,0.069 10.949,-0.31 17.008,-4.03 m -14.018,8.17 c 4.984,-0.014 10.022,0.263 14.335,-3.471 m -4.475,6.871 c 1.835,-0.375 3.544,-1.589 4.764,-2.593 M 237.85,158.75 c 0.802,-0.215 2.097,0.833 1.537,1.804 -5.994,14.782 -11.443,17.394 -16.905,15.903 -2.077,1.819 -4.174,3.664 -5.222,4.133 l 1.618,-23.784 c 5.547,1.554 11.425,3.748 18.972,1.945 z"
         id="path156" />
      <path
         d="m 237.89,164.02 c -6.161,1.086 -12.593,-0.384 -19.276,-3.361 m 16.726,8.251 c -5.438,0.069 -10.949,-0.31 -17.008,-4.03 m 14.018,8.17 c -4.984,-0.014 -10.022,0.263 -14.335,-3.471 m 4.475,6.871 c -1.835,-0.375 -3.544,-1.589 -4.764,-2.593"
         id="path158" />
    </g>
    <path
       d="m 216.01,154.49 c -0.139,0 -0.597,0.098 -0.903,0.268 -0.225,0.125 -0.253,0.193 -0.296,0.249 l 1.199,17.627 1.199,-17.627 c -0.043,-0.056 -0.071,-0.124 -0.296,-0.249 a 2.52,2.52 0 0 0 -0.903,-0.268 z m -22.16,5.55 c 5.649,1.341 11.71,1.158 18.615,-2.15 l -0.024,1.063 c -5.874,2.589 -11.789,3.865 -17.789,2.433 z m 1.85,5.13 c 4.01,0.494 9.48,0.104 17.198,-3.118 l -0.047,0.614 c -4.909,3.708 -12.675,5.169 -16.82,3.213 z m 3.3,4.95 c 3.634,-0.014 8.24,-1.195 14.174,-3.673 l -0.047,0.992 c -3.818,2.884 -9.364,4.408 -13.591,4.023 z m 3.03,3.79 c 4.393,4.302 9.696,-0.398 11.339,-2.835 -2.625,1.59 -4.605,3.541 -11.339,2.835 z m 9.83,2.85 1.704,1.403 0.033,-2.606 z m 26.3,-16.72 c -5.649,1.341 -11.71,1.158 -18.615,-2.15 l 0.024,1.063 c 5.874,2.589 11.789,3.865 17.789,2.433 z m -1.84,5.13 c -4.01,0.494 -9.48,0.104 -17.198,-3.118 l 0.047,0.614 c 4.909,3.708 12.675,5.169 16.82,3.213 z m -3.31,4.95 c -3.634,-0.014 -8.24,-1.195 -14.174,-3.673 l 0.047,0.992 c 3.818,2.884 9.364,4.408 13.591,4.023 z m -3.02,3.79 c -4.393,4.302 -9.696,-0.398 -11.339,-2.835 2.625,1.59 4.605,3.541 11.339,2.835 z m -9.83,2.85 -1.704,1.403 -0.033,-2.606 z"
       fill="#e4813a"
       id="path162" />
    <path
       d="m 176.882,111.47 c -3.94,0.809 -7.142,2.685 -7.86,6.271 l -0.006,-0.008 a 53.49,53.49 0 0 0 -2.299,2.207 c 1.263,-2.029 2.244,-4.563 1.39,-8.399 -3.033,2.857 -4.943,6.97 -3.411,10.587 -0.71,0.817 -1.376,1.641 -1.999,2.47 0.433,-1.463 0.466,-3.255 -0.446,-5.857 -2.647,3.159 -3.927,6.309 -2.06,9.593 -0.519,0.877 -0.993,1.757 -1.426,2.641 0.202,-1.757 -0.085,-3.761 -1.721,-6.349 -1.854,3.641 -2.373,7.373 0.111,10.186 a 34.29,34.29 0 0 0 -0.763,2.458 c -0.251,-1.397 -1.001,-2.933 -2.813,-4.811 -1.225,4.029 -1.214,7.298 1.89,9.565 -0.112,0.935 -0.184,1.868 -0.219,2.797 -0.501,-1.306 -1.551,-2.638 -3.903,-4.163 -0.285,4.244 0.4,7.093 4.02,8.547 0.102,1.136 0.259,2.264 0.466,3.382 -0.86,-1.443 -2.264,-2.8 -4.911,-3.907 0.477,4.232 2.203,7.732 6.088,8.589 0.321,1.009 0.685,2.005 1.083,2.987 -1.074,-1.548 -2.709,-2.927 -5.939,-3.711 1.17,4.222 3.522,7.47 7.707,7.537 0.801,1.535 1.695,3.023 2.662,4.459 -1.566,-1.994 -3.405,-3.937 -8.096,-4.048 2.061,3.913 5.088,6.601 9.253,5.7 1.157,1.573 2.407,3.074 3.732,4.49 -2.12,-1.894 -4.35,-3.87 -9.297,-2.893 2.928,3.664 6.507,5.831 10.349,3.983 a 49.28,49.28 0 0 0 4.746,4.195 c -2.432,-1.666 -4.897,-3.555 -9.879,-1.897 3.384,3.283 7.229,4.982 10.823,2.612 a 45.61,45.61 0 0 0 4.208,2.762 c -2.319,-0.95 -4.949,-1.511 -8.807,0.477 3.806,2.693 8.002,3.58 11.179,0.796 1.48,0.735 2.98,1.364 4.487,1.886 -2.388,-0.578 -4.981,-0.76 -8.389,1.858 4.262,1.989 8.442,2.337 11.063,-1.053 2.218,0.567 4.433,0.888 6.605,0.92 l 0.001,-0.007 c 7.895,0 14.736,0.453 35.319,0.355 4.221,0.32 9.557,3.139 12.315,7.374 0.668,-0.334 1.266,-1.293 1.204,-2.481 -3.904,-4.443 -9.978,-5.906 -14.812,-5.765 -11.782,0.344 -24.019,0.735 -37.345,-0.338 -1.022,-0.145 -2.052,-0.356 -3.083,-0.62 -0.512,-5.518 -3.41,-6.335 -6.008,-8.23 -0.735,3.475 0.86,5.806 3.823,7.586 -1.675,-0.558 -3.347,-1.259 -4.996,-2.096 0.528,-5.606 -2.2,-6.591 -4.434,-8.935 -1.35,3.309 -0.172,5.659 2.46,7.863 a 44.46,44.46 0 0 1 -4.41,-2.919 c 1.258,-5.289 -1.19,-7.004 -3.011,-9.626 -1.644,2.729 -1.209,5.202 0.497,7.597 -1.049,-0.905 -2.066,-1.863 -3.046,-2.868 1.907,-5.08 -0.302,-7.089 -1.777,-9.918 -1.882,2.383 -1.864,4.772 -0.655,7.233 a 48.06,48.06 0 0 1 -2.383,-3.081 c 2.96,-3.889 1.275,-5.967 0.472,-8.593 -2.414,1.707 -2.829,3.811 -2.049,6.22 a 44.91,44.91 0 0 1 -2.084,-3.738 c 3.978,-3.358 2.678,-5.769 2.394,-8.564 -3.413,1.525 -3.819,4.291 -2.762,7.808 a 41.14,41.14 0 0 1 -2.177,-5.628 c 4.277,-2.598 3.432,-5.161 3.622,-7.924 -3.218,0.823 -4.261,3.013 -4.141,6.047 -0.445,-1.786 -0.765,-3.605 -0.937,-5.45 4.59,-1.679 4.415,-4.07 5.146,-6.716 -3.12,0.155 -4.679,1.711 -5.287,4.332 -0.035,-1.409 0.017,-2.828 0.161,-4.255 4.743,-1.004 5.429,-4.01 6.554,-6.495 -2.92,-0.312 -4.943,1.176 -6.13,3.58 a 34.14,34.14 0 0 1 1.282,-4.788 c 5.21,0.209 5.982,-2.49 7.772,-4.761 -3.01,-1.058 -5.111,-0.091 -6.736,2.122 a 37.93,37.93 0 0 1 2.273,-4.373 c 4.946,1.059 6.082,-1.401 8.118,-3.295 -2.666,-1.465 -4.785,-0.846 -6.648,1.031 a 45.57,45.57 0 0 1 3.263,-4.136 c 4.569,1.895 6.144,-0.283 8.482,-1.745 -2.238,-1.859 -4.345,-1.747 -6.437,-0.43 0.405,-0.407 0.819,-0.813 1.247,-1.216 l -0.084,-0.117 c 2.678,-1.09 5.638,-1.797 7.407,-6.901 z"
       fill="#f7d700"
       opacity="0.997"
       stroke="#8d7b00"
       stroke-width="0.3"
       class="K"
       id="path164" />
    <g
       fill="#fff08a"
       id="g234">
      <path
         d="m 178.774,188.27 c 2.281,0.673 4.63,0.236 6.999,-0.551 -2.169,-0.017 -3.085,-1.573 -6.999,0.551 z m 4.11,-7.97 c 2.966,1.73 2.33,2.841 3.14,4.911 -1.171,-0.943 -3.166,-2.389 -3.14,-4.911 z"
         id="path166" />
      <use
         xlink:href="#U"
         id="use168"
         x="0"
         y="0"
         width="100%"
         height="100%" />
      <path
         d="m 176.421,176.74 c 2.663,2.168 1.862,3.168 2.342,5.338 -1.011,-1.113 -2.758,-2.851 -2.342,-5.338 z"
         id="path170" />
      <g
         transform="rotate(10.610997,108.53615,1117.4793)"
         id="g176">
        <use
           xlink:href="#U"
           x="-180.13"
           id="use172"
           y="0"
           width="100%"
           height="100%" />
        <use
           xlink:href="#V"
           id="use174"
           x="0"
           y="0"
           width="100%"
           height="100%" />
      </g>
      <g
         transform="rotate(19.071031,110.22453,679.77513)"
         id="g182">
        <use
           xlink:href="#U"
           x="-180.13"
           id="use178"
           y="0"
           width="100%"
           height="100%" />
        <use
           xlink:href="#V"
           id="use180"
           x="0"
           y="0"
           width="100%"
           height="100%" />
      </g>
      <g
         transform="rotate(31.382993,106.86042,468.10914)"
         id="g188">
        <use
           xlink:href="#U"
           x="-180.13"
           id="use184"
           y="0"
           width="100%"
           height="100%" />
        <use
           xlink:href="#V"
           id="use186"
           x="0"
           y="0"
           width="100%"
           height="100%" />
      </g>
      <g
         transform="rotate(40.43099,107.68072,391.31538)"
         id="g194">
        <use
           xlink:href="#U"
           x="-180.13"
           id="use190"
           y="0"
           width="100%"
           height="100%" />
        <use
           xlink:href="#V"
           id="use192"
           x="0"
           y="0"
           width="100%"
           height="100%" />
      </g>
      <g
         transform="rotate(54.015025,104.88407,324.80517)"
         id="g200">
        <use
           xlink:href="#U"
           x="-180.13"
           id="use196"
           y="0"
           width="100%"
           height="100%" />
        <use
           xlink:href="#V"
           id="use198"
           x="0"
           y="0"
           width="100%"
           height="100%" />
      </g>
      <g
         transform="rotate(65.306999,104.44306,288.34144)"
         id="g206">
        <use
           xlink:href="#W"
           id="use202"
           x="0"
           y="0"
           width="100%"
           height="100%" />
        <use
           xlink:href="#V"
           id="use204"
           x="0"
           y="0"
           width="100%"
           height="100%" />
      </g>
      <g
         transform="rotate(75.877016,104.47007,263.2133)"
         id="g212">
        <use
           xlink:href="#W"
           id="use208"
           x="0"
           y="0"
           width="100%"
           height="100%" />
        <use
           xlink:href="#V"
           id="use210"
           x="0"
           y="0"
           width="100%"
           height="100%" />
      </g>
      <g
         transform="rotate(85.45098,105.34595,244.77544)"
         id="g218">
        <use
           xlink:href="#W"
           id="use214"
           x="0"
           y="0"
           width="100%"
           height="100%" />
        <use
           xlink:href="#V"
           id="use216"
           x="0"
           y="0"
           width="100%"
           height="100%" />
      </g>
      <g
         transform="rotate(97.46601,104.65903,226.52215)"
         id="g224">
        <use
           xlink:href="#W"
           id="use220"
           x="0"
           y="0"
           width="100%"
           height="100%" />
        <use
           xlink:href="#V"
           id="use222"
           x="0"
           y="0"
           width="100%"
           height="100%" />
      </g>
      <g
         transform="rotate(110.03,104.25306,210.15908)"
         id="g230">
        <use
           xlink:href="#W"
           id="use226"
           x="0"
           y="0"
           width="100%"
           height="100%" />
        <use
           xlink:href="#V"
           id="use228"
           x="0"
           y="0"
           width="100%"
           height="100%" />
      </g>
      <path
         d="m 171.32,115.99 c 2.187,-0.649 3.224,-2.391 4.583,-3.827 -2.485,0.904 -4.274,2.079 -4.583,3.827 z"
         id="path232" />
    </g>
    <path
       d="m 242.511,186.93 c -15.162,1.51 -26.132,0.974 -38.927,0.601 -4.833,-0.141 -11.381,1.605 -15.284,6.048 -0.063,1.188 0.536,2.147 1.203,2.481 2.758,-4.235 8.567,-7.338 12.788,-7.658 26.458,0.126 28.346,1.52 40.219,-1.473 z"
       stroke-width="0.3"
       class="E F K"
       id="path236" />
    <use
       xlink:href="#X"
       class="C G H"
       id="use238"
       x="0"
       y="0"
       width="100%"
       height="100%" />
    <use
       xlink:href="#Y"
       class="D E F"
       id="use240"
       x="0"
       y="0"
       width="100%"
       height="100%" />
    <g
       transform="rotate(12.002013,147.13841,1002.2262)"
       id="g246">
      <use
         xlink:href="#X"
         x="-180.13"
         class="C G H"
         id="use242"
         y="0"
         width="100%"
         height="100%" />
      <use
         xlink:href="#Y"
         x="-180.13"
         class="D E F"
         id="use244"
         y="0"
         width="100%"
         height="100%" />
    </g>
    <g
       transform="rotate(21.314016,144.32661,626.22366)"
       id="g252">
      <use
         xlink:href="#X"
         x="-180.13"
         class="C G H"
         id="use248"
         y="0"
         width="100%"
         height="100%" />
      <use
         xlink:href="#Y"
         x="-180.13"
         class="D E F"
         id="use250"
         y="0"
         width="100%"
         height="100%" />
    </g>
    <g
       transform="rotate(31.232011,142.92868,470.01898)"
       id="g258">
      <use
         xlink:href="#X"
         x="-180.13"
         class="C G H"
         id="use254"
         y="0"
         width="100%"
         height="100%" />
      <use
         xlink:href="#Y"
         x="-180.13"
         class="D E F"
         id="use256"
         y="0"
         width="100%"
         height="100%" />
    </g>
    <g
       transform="rotate(48.362992,147.61206,345.46696)"
       id="g264">
      <use
         xlink:href="#X"
         x="-180.13"
         class="C G H"
         id="use260"
         y="0"
         width="100%"
         height="100%" />
      <use
         xlink:href="#Y"
         x="-180.13"
         class="D E F"
         id="use262"
         y="0"
         width="100%"
         height="100%" />
    </g>
    <g
       transform="rotate(56.091034,143.98401,315.32339)"
       id="g270">
      <use
         xlink:href="#X"
         x="-180.13"
         class="C G H"
         id="use266"
         y="0"
         width="100%"
         height="100%" />
      <use
         xlink:href="#Y"
         x="-180.13"
         class="D E F"
         id="use268"
         y="0"
         width="100%"
         height="100%" />
    </g>
    <g
       transform="rotate(63.148016,141.09014,293.84746)"
       id="g276">
      <use
         xlink:href="#X"
         x="-180.13"
         class="C G H"
         id="use272"
         y="0"
         width="100%"
         height="100%" />
      <use
         xlink:href="#Y"
         x="-180.13"
         class="D E F"
         id="use274"
         y="0"
         width="100%"
         height="100%" />
    </g>
    <g
       transform="rotate(80.456982,145.45608,253.07015)"
       id="g282">
      <use
         xlink:href="#X"
         x="-180.13"
         class="C G H"
         id="use278"
         y="0"
         width="100%"
         height="100%" />
      <use
         xlink:href="#Y"
         x="-180.13"
         class="D E F"
         id="use280"
         y="0"
         width="100%"
         height="100%" />
    </g>
    <g
       transform="rotate(95.873013,147.27903,227.77578)"
       id="g288">
      <use
         xlink:href="#X"
         x="-180.13"
         class="C G H"
         id="use284"
         y="0"
         width="100%"
         height="100%" />
      <use
         xlink:href="#Y"
         x="-180.13"
         class="D E F"
         id="use286"
         y="0"
         width="100%"
         height="100%" />
    </g>
    <g
       transform="rotate(106.79001,146.56399,213.58032)"
       id="g294">
      <use
         xlink:href="#X"
         x="-180.13"
         class="C G H"
         id="use290"
         y="0"
         width="100%"
         height="100%" />
      <use
         xlink:href="#Y"
         x="-180.13"
         class="D E F"
         id="use292"
         y="0"
         width="100%"
         height="100%" />
    </g>
    <g
       transform="rotate(117.16998,146.38394,201.69831)"
       id="g300">
      <use
         xlink:href="#X"
         x="-180.13"
         class="C G H"
         id="use296"
         y="0"
         width="100%"
         height="100%" />
      <use
         xlink:href="#Y"
         x="-180.13"
         class="D E F"
         id="use298"
         y="0"
         width="100%"
         height="100%" />
    </g>
    <g
       transform="rotate(127.35,145.70206,190.99184)"
       id="g306">
      <use
         xlink:href="#X"
         x="-180.13"
         class="C G H"
         id="use302"
         y="0"
         width="100%"
         height="100%" />
      <use
         xlink:href="#Y"
         x="-180.13"
         class="D E F"
         id="use304"
         y="0"
         width="100%"
         height="100%" />
    </g>
    <g
       stroke="#9b9b9b"
       class="D"
       id="g336">
      <g
         transform="translate(180.51)"
         id="g312">
        <path
           d="m 14.868,195.69 c -0.331,-2.716 0.733,-8.077 7.843,-7.465 l -0.28,1.539 c -2.271,0.633 -3.969,3.337 -3.311,8.265 -1.479,-0.949 -1.97,-2.72 -1.559,-5.244 z"
           fill="url(#M)"
           id="path308"
           style="fill:url(#linearGradient1207);fill-opacity:1" />
        <path
           d="m 56.132,195.69 c 0.331,-2.716 -0.733,-8.077 -7.843,-7.465 l 0.28,1.539 c 2.271,0.633 3.969,3.337 3.311,8.265 1.479,-0.949 1.97,-2.72 1.559,-5.244 z"
           fill="url(#N)"
           id="path310"
           style="fill:url(#linearGradient1215);fill-opacity:1" />
      </g>
      <g
         class="I"
         id="g334">
        <rect
           x="202.48"
           y="184.17"
           width="2.7060001"
           height="7.2160001"
           ry="1.353"
           fill="url(#C)"
          
           class="B"
           id="rect314"
           style="fill:url(#linearGradient1223);fill-opacity:1" />
        <rect
           x="205.17999"
           y="184.17"
           width="2.7060001"
           height="7.2160001"
           ry="1.353"
           fill="url(#D)"
          
           class="B"
           id="rect316"
           style="fill:url(#D);fill-opacity:1" />
        <rect
           x="207.89"
           y="184.17"
           width="2.7060001"
           height="7.2160001"
           ry="1.353"
           fill="url(#F)"
          
           class="B"
           id="rect318"
           style="fill:url(#F);fill-opacity:1" />
        <rect
           x="210.60001"
           y="184.17"
           width="2.7060001"
           height="7.2160001"
           ry="1.353"
           fill="url(#E)"
          
           class="B"
           id="rect320"
           style="fill-opacity:1;fill:url(#E)" />
        <rect
           x="213.3"
           y="184.17"
           width="2.7060001"
           height="7.2160001"
           ry="1.353"
           fill="url(#J)"
          
           class="B"
           id="rect322"
           style="fill-opacity:1;fill:url(#J)" />
        <rect
           x="216.00999"
           y="184.17"
           width="2.7060001"
           height="7.2160001"
           ry="1.353"
           fill="url(#I)"
          
           class="B"
           id="rect324"
           style="fill-opacity:1;fill:url(#I)" />
        <rect
           x="218.71001"
           y="184.17"
           width="2.7060001"
           height="7.2160001"
           ry="1.353"
           fill="url(#H)"
          
           class="B"
           id="rect326"
           style="fill-opacity:1;fill:url(#H)" />
        <rect
           x="221.42"
           y="184.17"
           width="2.7060001"
           height="7.2160001"
           ry="1.353"
           fill="url(#G)"
          
           class="B"
           id="rect328"
           style="fill-opacity:1;fill:url(#G)" />
        <rect
           x="224.13"
           y="184.17"
           width="2.7060001"
           height="7.2160001"
           ry="1.353"
           fill="url(#L)"
          
           class="B"
           id="rect330"
           style="fill-opacity:1;fill:url(#L)" />
        <rect
           x="226.83"
           y="184.17"
           width="2.7060001"
           height="7.2160001"
           ry="1.353"
           fill="url(#K)"
          
           class="B"
           id="rect332"
           style="fill-opacity:1;fill:url(#K)" />
      </g>
    </g>
    <g
       transform="translate(180.22)"
       class="L"
       id="g360">
      <use
         xlink:href="#Z"
         id="use338"
         x="0"
         y="0"
         width="100%"
         height="100%" />
      <circle
         cx="-0.60299999"
         cy="92.443001"
         r="0.80800003"
         stroke="url(#R)"
        
         class="B I U"
         id="circle340" />
      <path
         d="m -4.329,86.102 c -1.623,2.022 2.697,3.904 4.076,4.109 10.676,-6.758 7.743,-10.592 5.312,-14.533 1.273,5.271 -5.035,8.935 -9.388,10.424 z"
         fill="url(#T)"
         id="path342"
         style="fill-opacity:1;fill:url(#linearGradient1225)" />
      <use
         xlink:href="#a"
         fill="#fffb8d"
         id="use344"
         x="0"
         y="0"
         width="100%"
         height="100%" />
      <path
         d="M 3.455,91.615 C 2.247,92.745 0.909,92.041 0.615,89.711 6.958,81.684 15.908,84.879 19.349,85.608 14.518,86.304 8.738,85.194 3.455,91.616 Z"
         fill="url(#S)"
         id="path346"
         style="fill-opacity:1;fill:url(#linearGradient1227)" />
      <g
         transform="matrix(-1,0,0,1,71.585,0)"
         id="g358">
        <use
           xlink:href="#Z"
           id="use348"
           x="0"
           y="0"
           width="100%"
           height="100%" />
        <circle
           cx="-0.60299999"
           cy="92.443001"
           r="0.80800003"
           stroke="url(#R)"
          
           class="B I U"
           id="circle350" />
        <path
           d="m -4.329,86.102 c -1.623,2.022 2.697,3.904 4.076,4.109 10.676,-6.758 7.743,-10.592 5.312,-14.533 1.273,5.271 -5.035,8.935 -9.388,10.424 z"
           fill="url(#T)"
           id="path352"
           style="fill-opacity:1;fill:url(#T)" />
        <use
           xlink:href="#a"
           fill="#fffb8d"
           id="use354"
           x="0"
           y="0"
           width="100%"
           height="100%" />
        <path
           d="M 3.455,91.615 C 2.247,92.745 0.909,92.041 0.615,89.711 6.958,81.684 15.908,84.879 19.349,85.608 14.518,86.304 8.738,85.194 3.455,91.616 Z"
           fill="url(#S)"
           id="path356"
           style="fill-opacity:1;fill:url(#S)" />
      </g>
    </g>
    <g
       class="B I K"
       id="g368">
      <path
         d="m 216.011,33.617 -0.359,1.103 -2.006,6.176 h -7.654 l 6.191,4.498 -2.365,7.279 6.193,-4.498 6.191,4.498 -2.365,-7.279 6.193,-4.498 h -7.654 z m 0,2.443 1.816,5.59 h 5.883 l -4.76,3.457 1.816,5.592 -4.756,-3.457 -4.758,3.457 1.818,-5.592 -4.76,-3.457 h 5.883 z"
         fill="#8d7b00"
        
         class="L"
         id="path362" />
      <path
         d="m 216.011,36.061 1.816,5.59 h 5.883 l -4.76,3.457 1.816,5.592 -4.756,-3.457 -4.758,3.457 1.818,-5.592 -4.76,-3.457 h 5.883 z"
         fill="#f7d700"
        
         class="L"
         id="path364" />
      <path
         d="m 216.011,36.061 v 8.091 l 1.816,-2.501 h 5.883 l -7.699,2.501 2.94,0.956 1.816,5.592 -4.756,-6.548 v 3.091 l -4.758,3.457 4.758,-6.548 -2.94,0.956 -4.76,-3.457 7.699,2.501 -1.816,-2.501 z"
         fill="#fff08a"
        
         class="L"
         id="path366" />
    </g>
  </g>
</svg>
